<?xml version="1.0" standalone="no"?>
<!DOCTYPE svg PUBLIC "-//W3C//DTD SVG 1.1//EN" "http://www.w3.org/Graphics/SVG/1.1/DTD/svg11.dtd" >
<svg xmlns="http://www.w3.org/2000/svg" xmlns:xlink="http://www.w3.org/1999/xlink" version="1.1">
<metadata></metadata>
<defs>
<font id="toyoraljanahregular" horiz-adv-x="1024" >
<font-face units-per-em="2048" ascent="1544" descent="-504" />
<missing-glyph horiz-adv-x="409" />
<glyph unicode="&#xfedf;&#xfe82;" horiz-adv-x="1314" arabic-form="isolated" d="M-255 1430q-22 0 -21 18q0 23 63 67t107.5 46t122 -37t116.5 -29q12 2 53 27q41 20 54.5 19t20.5 -12t-3 -24q-76 -74 -156 -73q-32 0 -49.5 8t-41 19t-49.5 23t-65.5 11.5t-84.5 -32t-67 -31.5zM877 354q-240 125 -272 113t-129 -155.5t-101 -200.5 q-12 -147 194.5 -190.5t406.5 28t173 196.5q-16 80 -272 209zM1225 193q8 -47 -13.5 -116t-58.5 -106q-84 -80 -216 -127t-262 -49t-236.5 70t-133.5 209q-18 82 19 178t198 268q-137 104 -304 270t-199 240t-13 121q18 51 70 -23q18 -25 37 -63q72 -100 226.5 -264 t270.5 -234q7 -3 19 8t18 13q14 12 172 133q348 267 332 353.5t-126 155t-296 89.5q-49 4 -134 -14.5t-114 -18.5q-111 -2 -121 47q-8 39 48 60q25 10 55 10q291 10 487 -39q254 -61 283 -199q16 -88 -46.5 -188t-144 -171t-192.5 -159t-145 -123q248 -90 375 -167.5 t145 -163.5z" />
<glyph unicode="&#xfee0;&#xfe82;" horiz-adv-x="1431" arabic-form="final" d="M-255 1430q-22 0 -21 18q0 23 63 67.5t107.5 46t122 -37.5t116.5 -29q12 2 53 27q41 20 54.5 19t20.5 -12t-3 -24q-76 -74 -156 -73q-32 0 -49.5 8t-41 19t-49 22.5t-65.5 11.5t-85 -31.5t-67 -31.5zM877 354q-240 125 -272 113t-129 -155.5t-101 -200.5 q-12 -147 194.5 -190.5t406.5 28t173 196.5q-16 80 -272 209zM1229 104.5q0 -63.5 39 -128t121 -66.5h43q29 0 28 -39q0 -14 -8 -25.5t-20 -11.5h-46q-78 0 -138 41t-85 107q-80 -88 -213 -140.5t-265 -54.5t-241.5 70.5t-138.5 216.5q-18 82 19 178t198 268 q-137 104 -304 270t-199 240t-13 121q18 51 70 -23q18 -25 37 -63q72 -100 226.5 -264t270.5 -234q7 -3 19 8t18 13q14 12 172 133q348 267 332 353.5t-126 155t-296 89.5q-49 4 -134 -14.5t-114 -18.5q-111 -2 -121 47q-8 39 48 60q25 10 55 10q291 10 487 -39 q254 -61 283 -199q16 -88 -46.5 -188t-144 -171t-192.5 -159t-145 -123q248 -90 375.5 -167.5t144.5 -163.5q4 -25 4 -88.5z" />
<glyph unicode="&#xfedf;&#xfe84;" horiz-adv-x="1316" arabic-form="isolated" d="M209 1368q0 16 -22 30.5t-76 14.5t-82 8q-68 27 5 106t142 96t70 -32q0 -30 -37 -10t-99.5 -28t-62.5 -91q1 -20 67 -20q126 0 126 -70q0 -51 -52.5 -88t-91.5 -37t-59.5 16.5t-20.5 34t9.5 30.5t21.5 13h6l-6 -34q0 -20 30 -20.5t81 24t51 57.5zM877 354 q-240 125 -272 113t-129 -155.5t-101 -200.5q-12 -147 194.5 -190.5t406.5 28t173 196.5q-16 80 -272 209zM1225 193q8 -47 -13.5 -116t-58.5 -106q-84 -80 -216 -127t-262 -49t-236.5 70t-133.5 209q-18 82 19 178t198 268q-137 104 -304 270t-199 240t-13 121 q18 51 70 -23q18 -25 37 -63q72 -100 226.5 -264t270.5 -234q7 -3 19 8t18 13q14 12 172 133q348 267 332 353.5t-126 155t-296 89.5q-49 4 -134 -14.5t-114 -18.5q-111 -2 -121 47q-8 39 48 60q25 10 55 10q291 10 487 -39q254 -61 283 -199q16 -88 -46.5 -188t-144 -171 t-192.5 -159t-145 -123q248 -90 375 -167.5t145 -163.5z" />
<glyph unicode="&#xfee0;&#xfe84;" horiz-adv-x="1431" arabic-form="final" d="M209 1368q0 16 -22 30.5t-76 14.5t-82 8q-68 27 5 106t142 96t70 -32q0 -30 -37 -10t-99.5 -28t-62.5 -91q1 -20 67 -20q126 0 126 -70q0 -51 -52.5 -88t-91.5 -37t-59.5 16.5t-20.5 34t9.5 30.5t21.5 13h6l-6 -34q0 -20 30 -20.5t81 24t51 57.5zM877 354 q-240 125 -272 113t-129 -155.5t-101 -200.5q-12 -147 194.5 -190.5t406.5 28t173 196.5q-16 80 -272 209zM1229 104.5q0 -63.5 39 -128t121 -66.5h43q29 0 28 -39q0 -14 -8 -25.5t-20 -11.5h-46q-78 0 -138 41t-85 107q-80 -88 -213 -140.5t-265 -54.5t-241.5 70.5 t-138.5 216.5q-18 82 19 178t198 268q-137 104 -304 270t-199 240t-13 121q18 51 70 -23q18 -25 37 -63q72 -100 226.5 -264t270.5 -234q7 -3 19 8t18 13q14 12 172 133q348 267 332 353.5t-126 155t-296 89.5q-49 4 -134 -14.5t-114 -18.5q-111 -2 -121 47q-8 39 48 60 q25 10 55 10q291 10 487 -39q254 -61 283 -199q16 -88 -46.5 -188t-144 -171t-192.5 -159t-145 -123q248 -90 375.5 -167.5t144.5 -163.5q4 -25 4 -88.5z" />
<glyph unicode="&#xfedf;&#xfe88;" horiz-adv-x="1327" arabic-form="isolated" d="M461 -610q31 0 81 24.5t50 57.5q0 16 -22 30t-76 14.5t-82 8.5q-68 27 5 105.5t142 96t70 -31.5q0 -28 -37 -9t-99.5 -29t-62.5 -91q0 -21 66 -21q126 0 127 -69q0 -51 -52.5 -88t-91.5 -37t-58.5 15.5t-19.5 33.5t9.5 31.5t21.5 13.5h6l-8 -35q0 -20 31 -20zM877 354 q-240 125 -272 113t-129 -155.5t-101 -200.5q-12 -147 194.5 -190.5t406.5 28t173 196.5q-16 80 -272 209zM1225 193q8 -47 -13.5 -116t-58.5 -106q-84 -80 -216 -127t-262 -49t-236.5 70t-133.5 209q-18 82 19 178t198 268q-137 104 -304 270t-199 240t-13 121 q18 51 70 -23q18 -25 37 -63q72 -100 226.5 -264t270.5 -234q7 -3 19 8t18 13q14 12 172 133q348 267 332 353.5t-126 155t-296 89.5q-49 4 -134 -14.5t-114 -18.5q-111 -2 -121 47q-8 39 48 60q25 10 55 10q291 10 487 -39q254 -61 283 -199q16 -88 -46.5 -188t-144 -171 t-192.5 -159t-145 -123q248 -90 375 -167.5t145 -163.5z" />
<glyph unicode="&#xfee0;&#xfe88;" horiz-adv-x="1431" arabic-form="final" d="M461 -610q31 0 81 24.5t50 57.5q0 16 -22 30t-76 14.5t-82 8.5q-68 27 5 105.5t142 96t70 -31.5q0 -28 -37 -9t-99.5 -29t-62.5 -91q0 -21 66 -21q126 0 127 -69q0 -51 -52.5 -88t-91.5 -37t-58.5 15.5t-19.5 33.5t9.5 31.5t21.5 13.5h6l-8 -35q0 -20 31 -20zM877 354 q-240 125 -272 113t-129 -155.5t-101 -200.5q-12 -147 194.5 -190.5t406.5 28t173 196.5q-16 80 -272 209zM1229 104.5q0 -63.5 39 -128t121 -66.5h43q29 0 28 -39q0 -14 -8 -25.5t-20 -11.5h-46q-78 0 -138 41t-85 107q-80 -88 -213 -140.5t-265 -54.5t-241.5 70.5 t-138.5 216.5q-18 82 19 178t198 268q-137 104 -304 270t-199 240t-13 121q18 51 70 -23q18 -25 37 -63q72 -100 226.5 -264t270.5 -234q7 -3 19 8t18 13q14 12 172 133q348 267 332 353.5t-126 155t-296 89.5q-49 4 -134 -14.5t-114 -18.5q-111 -2 -121 47q-8 39 48 60 q25 10 55 10q291 10 487 -39q254 -61 283 -199q16 -88 -46.5 -188t-144 -171t-192.5 -159t-145 -123q248 -90 375.5 -167.5t144.5 -163.5q4 -25 4 -88.5z" />
<glyph unicode="&#xfedf;&#xfe8e;" horiz-adv-x="1329" arabic-form="isolated" d="M877 354q-240 125 -272 113t-129 -155.5t-101 -200.5q-12 -147 194.5 -190.5t406.5 28t173 196.5q-16 80 -272 209zM1225 193q8 -47 -13.5 -116t-58.5 -106q-84 -80 -216 -127t-262 -49t-236.5 70t-133.5 209q-18 82 19 178t198 268q-137 104 -304 270t-199 240t-13 121 q18 51 70 -23q18 -25 37 -63q72 -100 226.5 -264t270.5 -234q7 -3 19 8t18 13q14 12 172 133q348 267 332 353.5t-126 155t-296 89.5q-49 4 -134 -14.5t-114 -18.5q-111 -2 -121 47q-8 39 48 60q25 10 55 10q291 10 487 -39q254 -61 283 -199q16 -88 -46.5 -188t-144 -171 t-192.5 -159t-145 -123q248 -90 375 -167.5t145 -163.5z" />
<glyph unicode="&#xfee0;&#xfe8e;" horiz-adv-x="1431" arabic-form="final" d="M877 354q-240 125 -272 113t-129 -155.5t-101 -200.5q-12 -147 194.5 -190.5t406.5 28t173 196.5q-16 80 -272 209zM1229 104.5q0 -63.5 39 -128t121 -66.5h43q29 0 28 -39q0 -14 -8 -25.5t-20 -11.5h-46q-78 0 -138 41t-85 107q-80 -88 -213 -140.5t-265 -54.5 t-241.5 70.5t-138.5 216.5q-18 82 19 178t198 268q-137 104 -304 270t-199 240t-13 121q18 51 70 -23q18 -25 37 -63q72 -100 226.5 -264t270.5 -234q7 -3 19 8t18 13q14 12 172 133q348 267 332 353.5t-126 155t-296 89.5q-49 4 -134 -14.5t-114 -18.5q-111 -2 -121 47 q-8 39 48 60q25 10 55 10q291 10 487 -39q254 -61 283 -199q16 -88 -46.5 -188t-144 -171t-192.5 -159t-145 -123q248 -90 375.5 -167.5t144.5 -163.5q4 -25 4 -88.5z" />
<glyph unicode="&#xfedf;&#xfb51;" horiz-adv-x="1345" d="M877 354q-240 125 -272 113t-129 -155.5t-101 -200.5q-12 -147 194.5 -190.5t406.5 28t173 196.5q-16 80 -272 209zM1225 193q8 -47 -13.5 -116t-58.5 -106q-84 -80 -216 -127t-262 -49t-236.5 70t-133.5 209q-18 82 19 178t198 268q-137 104 -304 270t-199 240t-13 121 q18 51 70 -23q18 -25 37 -63q72 -100 226.5 -264t270.5 -234q7 -3 19 8t18 13q14 12 172 133q348 267 332 353.5t-126 155t-296 89.5q-49 4 -134 -14.5t-114 -18.5q-111 -2 -121 47q-8 39 48 60q25 10 55 10q291 10 487 -39q254 -61 283 -199q16 -88 -46.5 -188t-144 -171 t-192.5 -159t-145 -123q248 -90 375 -167.5t145 -163.5zM39 1659q0 -2 -2 -2q-16 31 -41 35q-31 6 -42 -48.5t12.5 -132t68.5 -88.5q63 -12 33 131q-10 51 -19.5 71.5t-9.5 29.5v4zM18 1399q-61 18 -90 136t17 165q20 23 55 14q14 -2 33.5 -17.5t17.5 -27.5q23 4 35 -23.5 t14 -54.5q33 -133 -26 -182q-25 -18 -56 -10z" />
<glyph unicode="&#xfee0;&#xfb51;" horiz-adv-x="1431" d="M39 1659q0 -2 -2 -2q-16 31 -41 35q-31 6 -42 -48.5t12.5 -132t68.5 -88.5q63 -12 33 131q-10 51 -19.5 71.5t-9.5 29.5v4zM18 1399q-61 18 -90 136t17 165q20 23 55 14q14 -2 33.5 -17.5t17.5 -27.5q23 4 35 -23.5t14 -54.5q33 -133 -26 -182q-25 -18 -56 -10zM877 354 q-240 125 -272 113t-129 -155.5t-101 -200.5q-12 -147 194.5 -190.5t406.5 28t173 196.5q-16 80 -272 209zM1229 104.5q0 -63.5 39 -128t121 -66.5h43q29 0 28 -39q0 -14 -8 -25.5t-20 -11.5h-46q-78 0 -138 41t-85 107q-80 -88 -213 -140.5t-265 -54.5t-241.5 70.5 t-138.5 216.5q-18 82 19 178t198 268q-137 104 -304 270t-199 240t-13 121q18 51 70 -23q18 -25 37 -63q72 -100 226.5 -264t270.5 -234q7 -3 19 8t18 13q14 12 172 133q348 267 332 353.5t-126 155t-296 89.5q-49 4 -134 -14.5t-114 -18.5q-111 -2 -121 47q-8 39 48 60 q25 10 55 10q291 10 487 -39q254 -61 283 -199q16 -88 -46.5 -188t-144 -171t-192.5 -159t-145 -123q248 -90 375.5 -167.5t144.5 -163.5q4 -25 4 -88.5z" />
<glyph unicode="&#xfe91;&#xfbaf;" horiz-adv-x="1849" d="M1657 -410q-31 0 -64 23q-31 25 -30 57q0 66 67 66q100 0 101 -55q0 -91 -74 -91zM1365 -166q-166 0 -212.5 -5t-97.5 -11q-95 -11 -183.5 -41t-78.5 -53q14 -45 171.5 -82t462.5 -50q102 -4 110.5 -44t-97.5 -117q-209 -147 -419 -206t-472 -32q-178 17 -307 115 q-217 164 -115 426q41 106 101.5 157.5t111.5 45.5q41 -6 12 -39q-14 -18 -49 -41q-70 -53 -106.5 -136t-18.5 -177t118.5 -168t229.5 -93q221 -33 435.5 31.5t461.5 200.5q-59 10 -238 21t-289 40t-157.5 96t-10.5 120.5t177 85.5t338 32h279q76 0 107.5 66.5t23.5 170 t-27.5 206t-41 200.5t-21.5 127q0 63 55 63q84 1 124 -335q21 -178 8 -272q-14 -94 -36 -160q-49 -142 -204 -142h-145z" />
<glyph unicode="&#xfe92;&#xfbaf;" horiz-adv-x="1787" d="M1616 -414q-31 0 -64 23q-31 25 -30 57q0 66 67 66q100 0 101 -56q0 -90 -74 -90zM1427 -166h-157q-167 0 -212.5 -5t-97 -11t-96.5 -16.5t-88 -25t-62.5 -27.5t-15.5 -25q14 -45 172.5 -82.5t462.5 -49.5q102 -4 110.5 -44t-97.5 -117q-209 -147 -419 -206t-472 -32 q-177 17 -307 115q-217 162 -115 426q41 106 101 157.5t112 45.5q41 -6 12 -39q-14 -18 -49 -41q-70 -53 -106.5 -136t-18.5 -177t118.5 -168t229.5 -93q221 -33 435 31.5t462 200.5q-59 10 -238.5 21t-289 40t-157 95.5t-11.5 120.5t177 86t339 32h278q76 0 109 66.5 t24.5 171t-28 207t-42 199.5t-22.5 126q0 63 57.5 63t82 -86t26.5 -207.5t5 -244.5t38 -209t109 -86q29 0 29 -39q0 -14 -8.5 -25.5t-20.5 -11.5q-121 0 -180 111q-60 -111 -179 -111z" />
<glyph unicode="&#xfef3;&#xfbaf;" horiz-adv-x="1867" d="M1767 -385q-29 0 -63 23q-31 25 -31 57q0 66 68 65q100 0 100 -55q0 -90 -74 -90zM1587 -385q-29 0 -61.5 25t-32.5 55q0 66 68 65q102 0 102 -55q0 -90 -76 -90zM1365 -166q-166 0 -212.5 -5t-97.5 -11q-95 -11 -183.5 -41t-78.5 -53q14 -45 171.5 -82t462.5 -50 q102 -4 110.5 -44t-97.5 -117q-209 -147 -419 -206t-472 -32q-178 17 -307 115q-217 164 -115 426q41 106 101.5 157.5t111.5 45.5q41 -6 12 -39q-14 -18 -49 -41q-70 -53 -106.5 -136t-18.5 -177t118.5 -168t229.5 -93q221 -33 435.5 31.5t461.5 200.5q-59 10 -238 21 t-289 40t-157.5 96t-10.5 120.5t177 85.5t338 32h279q76 0 107.5 66.5t23.5 170t-27.5 206t-41 200.5t-21.5 127q0 63 55 63q84 1 124 -335q21 -178 8 -272q-14 -94 -36 -160q-49 -142 -204 -142h-145z" />
<glyph unicode="&#xfef4;&#xfbaf;" horiz-adv-x="1783" d="M1712 -385q-29 0 -63 23q-31 25 -31 57q0 66 68 65q100 0 100 -55q0 -90 -74 -90zM1532 -385q-29 0 -62 25t-32 55q0 66 67 65q102 0 103 -55q0 -90 -76 -90zM1427 -166h-157q-167 0 -212.5 -5t-97 -11t-96.5 -16.5t-88 -25t-62.5 -27.5t-15.5 -25q14 -45 172.5 -82.5 t462.5 -49.5q102 -4 110.5 -44t-97.5 -117q-209 -147 -419 -206t-472 -32q-177 17 -307 115q-217 162 -115 426q41 106 101 157.5t112 45.5q41 -6 12 -39q-14 -18 -49 -41q-70 -53 -106.5 -136t-18.5 -177t118.5 -168t229.5 -93q221 -33 435 31.5t462 200.5 q-59 10 -238.5 21t-289 40t-157 95.5t-11.5 120.5t177 86t339 32h278q76 0 109 66.5t24.5 171t-28 207t-42 199.5t-22.5 126q0 63 57.5 63t82 -86t26.5 -207.5t5 -244.5t38 -209t109 -86q29 0 29 -39q0 -14 -8.5 -25.5t-20.5 -11.5q-121 0 -180 111q-60 -111 -179 -111z" />
<glyph unicode="&#xfb58;&#xfbaf;" horiz-adv-x="1882" d="M1792 -266q29 0 61.5 -25t32.5 -55q0 -66 -67 -66q-102 0 -103 56q0 90 76 90zM1708 -461q29 0 61 -22q33 -27 33 -58q0 -66 -67 -65q-102 0 -103 55q0 90 76 90zM1585 -264q31 0 64 -23q31 -25 30 -57q0 -66 -67 -66q-100 0 -101 56q0 90 74 90zM1365 -166 q-166 0 -212.5 -5t-97.5 -11q-95 -11 -183.5 -41t-78.5 -53q14 -45 171.5 -82t462.5 -50q102 -4 110.5 -44t-97.5 -117q-209 -147 -419 -206t-472 -32q-178 17 -307 115q-217 164 -115 426q41 106 101.5 157.5t111.5 45.5q41 -6 12 -39q-14 -18 -49 -41q-70 -53 -106.5 -136 t-18.5 -177t118.5 -168t229.5 -93q221 -33 435.5 31.5t461.5 200.5q-59 10 -238 21t-289 40t-157.5 96t-10.5 120.5t177 85.5t338 32h279q76 0 107.5 66.5t23.5 170t-27.5 206t-41 200.5t-21.5 127q0 63 55 63q84 1 124 -335q21 -178 8 -272q-14 -94 -36 -160 q-49 -142 -204 -142h-145z" />
<glyph unicode="&#xfb59;&#xfbaf;" horiz-adv-x="1783" d="M1698 -240q29 0 61 -22q33 -27 33 -57q0 -66 -68 -66q-102 0 -102 55q0 90 76 90zM1614 -434q29 0 61.5 -25t32.5 -55q0 -66 -68 -66q-102 0 -102 56q0 90 76 90zM1491 -238q31 0 63 -22q31 -25 31 -57q0 -66 -67 -66q-100 0 -101 55q0 90 74 90zM1427 -166h-157 q-167 0 -212.5 -5t-97 -11t-96.5 -16.5t-88 -25t-62.5 -27.5t-15.5 -25q14 -45 172.5 -82.5t462.5 -49.5q102 -4 110.5 -44t-97.5 -117q-209 -147 -419 -206t-472 -32q-177 17 -307 115q-217 162 -115 426q41 106 101 157.5t112 45.5q41 -6 12 -39q-14 -18 -49 -41 q-70 -53 -106.5 -136t-18.5 -177t118.5 -168t229.5 -93q221 -33 435 31.5t462 200.5q-59 10 -238.5 21t-289 40t-157 95.5t-11.5 120.5t177 86t339 32h278q76 0 109 66.5t24.5 171t-28 207t-42 199.5t-22.5 126q0 63 57.5 63t82 -86t26.5 -207.5t5 -244.5t38 -209t109 -86 q29 0 29 -39q0 -14 -8.5 -25.5t-20.5 -11.5q-121 0 -180 111q-60 -111 -179 -111z" />
<glyph unicode="&#xfbfe;&#xfbaf;" horiz-adv-x="1906" d="M1753 -393q-29 0 -63 22q-31 25 -31 58q0 66 67 65q100 0 101 -55q0 -90 -74 -90zM1573 -393q-29 0 -62 22q-33 27 -32 58q0 66 67 65q102 0 103 -55q0 -90 -76 -90zM1365 -166q-166 0 -212.5 -5t-97.5 -11q-95 -11 -183.5 -41t-78.5 -53q14 -45 171.5 -82t462.5 -50 q102 -4 110.5 -44t-97.5 -117q-209 -147 -419 -206t-472 -32q-178 17 -307 115q-217 164 -115 426q41 106 101.5 157.5t111.5 45.5q41 -6 12 -39q-14 -18 -49 -41q-70 -53 -106.5 -136t-18.5 -177t118.5 -168t229.5 -93q221 -33 435.5 31.5t461.5 200.5q-59 10 -238 21 t-289 40t-157.5 96t-10.5 120.5t177 85.5t338 32h279q76 0 107.5 66.5t23.5 170t-27.5 206t-41 200.5t-21.5 127q0 63 55 63q84 1 124 -335q21 -178 8 -272q-14 -94 -36 -160q-49 -142 -204 -142h-145z" />
<glyph unicode="&#xfbff;&#xfbaf;" horiz-adv-x="1789" d="M1704 -385q-29 0 -64 23q-31 25 -30 57q0 66 67 65q100 0 101 -55q0 -90 -74 -90zM1524 -385q-29 0 -62 25t-32 55q0 66 67 65q102 0 102 -55q1 -90 -75 -90zM1427 -166h-157q-167 0 -212.5 -5t-97 -11t-96.5 -16.5t-88 -25t-62.5 -27.5t-15.5 -25q14 -45 172.5 -82.5 t462.5 -49.5q102 -4 110.5 -44t-97.5 -117q-209 -147 -419 -206t-472 -32q-177 17 -307 115q-217 162 -115 426q41 106 101 157.5t112 45.5q41 -6 12 -39q-14 -18 -49 -41q-70 -53 -106.5 -136t-18.5 -177t118.5 -168t229.5 -93q221 -33 435 31.5t462 200.5 q-59 10 -238.5 21t-289 40t-157 95.5t-11.5 120.5t177 86t339 32h278q76 0 109 66.5t24.5 171t-28 207t-42 199.5t-22.5 126q0 63 57.5 63t82 -86t26.5 -207.5t5 -244.5t38 -209t109 -86q29 0 29 -39q0 -14 -8.5 -25.5t-20.5 -11.5q-121 0 -180 111q-60 -111 -179 -111z" />
<glyph unicode="&#xfe9f;&#xfbaf;" horiz-adv-x="2828" d="M2066 -440q-31 0 -63 22q-31 25 -31 58q0 66 68 65q100 0 100 -55q0 -90 -74 -90zM1817 741q-154 0 -154 -123q0 -37 45 -128t45 -101q0 -51 -63 -51q-35 0 -73 102.5t-38 153.5q0 109 70.5 180.5t169 71.5t252 -50.5t304 -126t261 -177t110.5 -191.5t-103 -171 t-258 -133t-339 -91q-340 -72 -619 -72h-157q-167 0 -212.5 -5t-97 -11t-96.5 -16.5t-88 -25t-62.5 -27.5t-15.5 -25q14 -45 172.5 -82.5t462.5 -49.5q102 -4 110.5 -44t-97.5 -117q-209 -147 -419 -206t-472 -32q-177 17 -307 115q-217 162 -115 426q41 106 101 157.5 t112 45.5q41 -6 12 -39q-14 -18 -49 -41q-70 -53 -106.5 -136t-18.5 -177t118.5 -168t229.5 -93q221 -33 435 31.5t462 200.5q-59 10 -238.5 21t-289 40t-157 95.5t-11.5 120.5t177 86t339 32l278 4q164 -10 440.5 40t513 139t263.5 179q-6 109 -174 223.5t-358.5 180 t-294.5 65.5z" />
<glyph unicode="&#xfea0;&#xfbaf;" horiz-adv-x="2801" d="M2060 -424q-31 0 -63 23q-31 25 -31 57q0 66 68 65q100 0 100 -55q0 -90 -74 -90zM2802 -90q29 0 28.5 -38t-31.5 -38h-51q-170 0 -261 4t-220 33t-219 88q-113 -39 -171 -57t-183 -40q-158 -28 -359 -28h-98q-290 0 -461 -58q-43 -14 -62.5 -27t-15.5 -25 q14 -45 172.5 -82.5t462.5 -49.5q102 -4 110.5 -44t-97.5 -117q-209 -147 -419 -206t-472 -32q-177 17 -307 115q-217 162 -115 426q41 106 101 157.5t112 45.5q41 -6 12 -39q-14 -18 -49 -41q-70 -53 -106.5 -136t-18.5 -177t118.5 -168t229.5 -93q221 -33 435 31.5 t462 200.5q-59 10 -238.5 21t-289 40t-157 95.5t-11.5 120.5t177 86t339 32h278q281 0 832 207q338 129 338 155q0 82 -101.5 171t-239.5 152.5t-274.5 104.5t-212.5 41q-154 0 -153 -123q0 -37 45 -128t45 -101q0 -51 -64 -51q-35 0 -72.5 103.5t-37.5 152.5 q0 109 70.5 180.5t169 71.5t252 -50.5t304 -126t261 -177t110.5 -181.5t-66.5 -135t-143 -80.5t-184 -55.5t-144.5 -46q90 -84 395 -84h246z" />
<glyph unicode="&#xfb7c;&#xfbaf;" horiz-adv-x="2848" d="M2140 -315q29 0 62 -25t32 -55q0 -66 -67 -66q-102 0 -103 55q0 91 76 91zM2056 -510q29 0 62 -22q33 -27 32 -58q0 -66 -67 -65q-102 0 -103 55q0 90 76 90zM1933 -313q31 0 64 -23q31 -25 31 -57q0 -66 -68 -66q-100 0 -100 56q-1 90 73 90zM1817 741q-154 0 -154 -123 q0 -37 45 -128t45 -101q0 -51 -63 -51q-35 0 -73 102.5t-38 153.5q0 109 70.5 180.5t169 71.5t252 -50.5t304 -126t261 -177t110.5 -191.5t-103 -171t-258 -133t-339 -91q-340 -72 -619 -72h-157q-167 0 -212.5 -5t-97 -11t-96.5 -16.5t-88 -25t-62.5 -27.5t-15.5 -25 q14 -45 172.5 -82.5t462.5 -49.5q102 -4 110.5 -44t-97.5 -117q-209 -147 -419 -206t-472 -32q-177 17 -307 115q-217 162 -115 426q41 106 101 157.5t112 45.5q41 -6 12 -39q-14 -18 -49 -41q-70 -53 -106.5 -136t-18.5 -177t118.5 -168t229.5 -93q221 -33 435 31.5 t462 200.5q-59 10 -238.5 21t-289 40t-157 95.5t-11.5 120.5t177 86t339 32l278 4q164 -10 440.5 40t513 139t263.5 179q-6 109 -174 223.5t-358.5 180t-294.5 65.5z" />
<glyph unicode="&#xfb7d;&#xfbaf;" horiz-adv-x="2803" d="M2142 -317q29 0 62 -25t32 -55q0 -66 -67 -66q-102 0 -103 55q0 91 76 91zM2058 -512q29 0 62 -25t32 -55q0 -66 -67 -65q-102 0 -103 55q0 90 76 90zM1935 -315q31 0 64 -23q31 -25 31 -57q0 -66 -68 -66q-100 0 -100 55q-1 91 73 91zM2802 -90q29 0 28.5 -38t-31.5 -38 h-51q-170 0 -261 4t-220 33t-219 88q-113 -39 -171 -57t-183 -40q-158 -28 -359 -28h-98q-290 0 -461 -58q-43 -14 -62.5 -27t-15.5 -25q14 -45 172.5 -82.5t462.5 -49.5q102 -4 110.5 -44t-97.5 -117q-209 -147 -419 -206t-472 -32q-177 17 -307 115q-217 162 -115 426 q41 106 101 157.5t112 45.5q41 -6 12 -39q-14 -18 -49 -41q-70 -53 -106.5 -136t-18.5 -177t118.5 -168t229.5 -93q221 -33 435 31.5t462 200.5q-59 10 -238.5 21t-289 40t-157 95.5t-11.5 120.5t177 86t339 32h278q281 0 832 207q338 129 338 155q0 82 -101.5 171 t-239.5 152.5t-274.5 104.5t-212.5 41q-154 0 -153 -123q0 -37 45 -128t45 -101q0 -51 -64 -51q-35 0 -72.5 103.5t-37.5 152.5q0 109 70.5 180.5t169 71.5t252 -50.5t304 -126t261 -177t110.5 -181.5t-66.5 -135t-143 -80.5t-184 -55.5t-144.5 -46q90 -84 395 -84h246z" />
<glyph unicode="&#xfe91;&#xfbb1;" horiz-adv-x="1835" d="M467 188q0 16 -21.5 30.5t-76 14.5t-82.5 9q-68 27 5 105.5t142 95.5t70 -31q0 -31 -37 -11t-99.5 -27.5t-62.5 -90.5q1 -21 67 -21q126 0 126 -69q0 -51 -52.5 -88t-91.5 -37t-59.5 16t-20.5 33.5t9.5 31t21.5 13.5h6l-6 -35q0 -20 30 -20.5t81 24.5t51 57zM1659 -406 q-31 0 -64 23q-31 25 -30 57q0 66 67 66q100 0 101 -55q0 -91 -74 -91zM1365 -166q-166 0 -212.5 -5t-97.5 -11q-95 -11 -183.5 -41t-78.5 -53q14 -45 171.5 -82t462.5 -50q102 -4 110.5 -44t-97.5 -117q-209 -147 -419 -206t-472 -32q-178 17 -307 115q-217 164 -115 426 q41 106 101.5 157.5t111.5 45.5q41 -6 12 -39q-14 -18 -49 -41q-70 -53 -106.5 -136t-18.5 -177t118.5 -168t229.5 -93q221 -33 435.5 31.5t461.5 200.5q-59 10 -238 21t-289 40t-157.5 96t-10.5 120.5t177 85.5t338 32h279q76 0 107.5 66.5t23.5 170t-27.5 206t-41 200.5 t-21.5 127q0 63 55 63q84 1 124 -335q21 -178 8 -272q-14 -94 -36 -160q-49 -142 -204 -142h-145z" />
<glyph unicode="&#xfe92;&#xfbb1;" horiz-adv-x="1783" d="M89 203q30 0 81 24.5t51 57.5q0 16 -21.5 30t-75.5 14.5t-83 8.5q-68 27 5 105.5t151 99.5q61 14 61 -35q0 -30 -37 -10t-99.5 -28t-62.5 -91q0 -21 67 -21q126 0 126 -69q0 -51 -52.5 -88t-91.5 -37t-59 16.5t-20 33.5t9 30.5t21 13.5h7l-7 -35q0 -20 30 -20zM1616 -442 q-31 0 -64 22q-31 25 -30 58q0 66 67 65q100 0 101 -55q0 -90 -74 -90zM1427 -166h-157q-167 0 -212.5 -5t-97 -11t-96.5 -16.5t-88 -25t-62.5 -27.5t-15.5 -25q14 -45 172.5 -82.5t462.5 -49.5q102 -4 110.5 -44t-97.5 -117q-209 -147 -419 -206t-472 -32q-177 17 -307 115 q-217 162 -115 426q41 106 101 157.5t112 45.5q41 -6 12 -39q-14 -18 -49 -41q-70 -53 -106.5 -136t-18.5 -177t118.5 -168t229.5 -93q221 -33 435 31.5t462 200.5q-59 10 -238.5 21t-289 40t-157 95.5t-11.5 120.5t177 86t339 32h278q76 0 109 66.5t24.5 171t-28 207 t-42 199.5t-22.5 126q0 63 57.5 63t82 -86t26.5 -207.5t5 -244.5t38 -209t109 -86q29 0 29 -39q0 -14 -8.5 -25.5t-20.5 -11.5q-121 0 -180 111q-60 -111 -179 -111z" />
<glyph unicode="&#xfef3;&#xfbb1;" horiz-adv-x="1863" d="M294 76q30 0 81 24.5t51 57.5q0 16 -21.5 30t-76 14.5t-82.5 8.5q-68 27 5 105.5t142 96t70 -31.5q0 -30 -37 -10t-99.5 -28t-62.5 -91q0 -21 66 -21q126 0 127 -69q0 -51 -52.5 -88t-91.5 -37t-59.5 16.5t-20.5 33.5t9.5 30.5t21.5 13.5h6l-6 -35q0 -20 30 -20z M1788 -401q-29 0 -64 22q-31 25 -30 57q0 66 67 66q100 0 101 -55q0 -90 -74 -90zM1608 -401q-29 0 -62 22q-33 27 -33 57q0 66 68 66q102 0 102 -55q1 -90 -75 -90zM1365 -166q-166 0 -212.5 -5t-97.5 -11q-95 -11 -183.5 -41t-78.5 -53q14 -45 171.5 -82t462.5 -50 q102 -4 110.5 -44t-97.5 -117q-209 -147 -419 -206t-472 -32q-178 17 -307 115q-217 164 -115 426q41 106 101.5 157.5t111.5 45.5q41 -6 12 -39q-14 -18 -49 -41q-70 -53 -106.5 -136t-18.5 -177t118.5 -168t229.5 -93q221 -33 435.5 31.5t461.5 200.5q-59 10 -238 21 t-289 40t-157.5 96t-10.5 120.5t177 85.5t338 32h279q76 0 107.5 66.5t23.5 170t-27.5 206t-41 200.5t-21.5 127q0 63 55 63q84 1 124 -335q21 -178 8 -272q-14 -94 -36 -160q-49 -142 -204 -142h-145z" />
<glyph unicode="&#xfef4;&#xfbb1;" horiz-adv-x="1783" d="M105.5 203q29.5 0 81 24.5t51.5 57.5q0 16 -22 30t-76 14.5t-83 8.5q-68 27 5.5 105.5t142.5 96t69 -31.5q1 -30 -36 -10t-99.5 -28t-62.5 -91q0 -21 66 -21q126 0 126 -69q0 -51 -52 -88t-91 -37t-59.5 16.5t-20.5 33.5t9 30.5t22 13.5h6l-6 -35q0 -20 29.5 -20z M1706 -410q-29 0 -64 23q-31 25 -30 57q0 66 67 66q100 0 101 -55q0 -91 -74 -91zM1526 -410q-29 0 -62 25t-32 55q0 66 67 66q102 0 103 -55q0 -91 -76 -91zM1427 -166h-157q-167 0 -212.5 -5t-97 -11t-96.5 -16.5t-88 -25t-62.5 -27.5t-15.5 -25q14 -45 172.5 -82.5 t462.5 -49.5q102 -4 110.5 -44t-97.5 -117q-209 -147 -419 -206t-472 -32q-177 17 -307 115q-217 162 -115 426q41 106 101 157.5t112 45.5q41 -6 12 -39q-14 -18 -49 -41q-70 -53 -106.5 -136t-18.5 -177t118.5 -168t229.5 -93q221 -33 435 31.5t462 200.5 q-59 10 -238.5 21t-289 40t-157 95.5t-11.5 120.5t177 86t339 32h278q76 0 109 66.5t24.5 171t-28 207t-42 199.5t-22.5 126q0 63 57.5 63t82 -86t26.5 -207.5t5 -244.5t38 -209t109 -86q29 0 29 -39q0 -14 -8.5 -25.5t-20.5 -11.5q-121 0 -180 111q-60 -111 -179 -111z" />
<glyph unicode="&#xfb58;&#xfbb1;" horiz-adv-x="1847" d="M324.5 109q29.5 0 81 24.5t51.5 56.5q0 16 -22 30.5t-76 15t-83 8.5q-68 27 5.5 105.5t142.5 96t70 -31.5q0 -31 -37 -11t-99.5 -27.5t-62.5 -90.5q1 -21 67 -21q126 0 125 -69q0 -51 -52 -88t-91 -37t-59.5 16t-20.5 33.5t9.5 31t21.5 13.5h6l-6 -35q0 -20 29.5 -20z M1755 -231q29 0 62 -25t32 -55q0 -66 -67 -66q-102 0 -103 55q0 91 76 91zM1671 -426q29 0 62 -25t32 -55q0 -66 -67 -65q-102 0 -103 55q0 90 76 90zM1548 -229q31 0 64 -23q31 -25 30 -57q0 -66 -67 -66q-100 0 -100 56q-1 90 73 90zM1365 -166q-166 0 -212.5 -5 t-97.5 -11q-95 -11 -183.5 -41t-78.5 -53q14 -45 171.5 -82t462.5 -50q102 -4 110.5 -44t-97.5 -117q-209 -147 -419 -206t-472 -32q-178 17 -307 115q-217 164 -115 426q41 106 101.5 157.5t111.5 45.5q41 -6 12 -39q-14 -18 -49 -41q-70 -53 -106.5 -136t-18.5 -177 t118.5 -168t229.5 -93q221 -33 435.5 31.5t461.5 200.5q-59 10 -238 21t-289 40t-157.5 96t-10.5 120.5t177 85.5t338 32h279q76 0 107.5 66.5t23.5 170t-27.5 206t-41 200.5t-21.5 127q0 63 55 63q84 1 124 -335q21 -178 8 -272q-14 -94 -36 -160q-49 -142 -204 -142h-145z " />
<glyph unicode="&#xfb59;&#xfbb1;" horiz-adv-x="1787" d="M130 203q30 0 81 24.5t51 57.5q0 16 -21.5 30t-75.5 14.5t-83 8.5q-68 27 5 105.5t151 99.5q61 14 61 -35q0 -30 -37 -10t-99.5 -28t-62.5 -91q0 -21 66 -21q126 0 127 -69q0 -51 -52.5 -88t-91.5 -37t-59 16.5t-20 33.5t9 30.5t21 13.5h6l-6 -35q0 -20 30 -20z M1706 -248q29 0 61 -22q33 -27 33 -58q0 -66 -67 -65q-102 0 -103 55q0 90 76 90zM1622 -442q29 0 61.5 -25t32.5 -55q0 -66 -67 -66q-102 0 -103 56q0 90 76 90zM1499 -246q31 0 64 -22q31 -25 30 -58q0 -66 -67 -65q-100 0 -101 55q0 90 74 90zM1427 -166h-157 q-167 0 -212.5 -5t-97 -11t-96.5 -16.5t-88 -25t-62.5 -27.5t-15.5 -25q14 -45 172.5 -82.5t462.5 -49.5q102 -4 110.5 -44t-97.5 -117q-209 -147 -419 -206t-472 -32q-177 17 -307 115q-217 162 -115 426q41 106 101 157.5t112 45.5q41 -6 12 -39q-14 -18 -49 -41 q-70 -53 -106.5 -136t-18.5 -177t118.5 -168t229.5 -93q221 -33 435 31.5t462 200.5q-59 10 -238.5 21t-289 40t-157 95.5t-11.5 120.5t177 86t339 32h278q76 0 109 66.5t24.5 171t-28 207t-42 199.5t-22.5 126q0 63 57.5 63t82 -86t26.5 -207.5t5 -244.5t38 -209t109 -86 q29 0 29 -39q0 -14 -8.5 -25.5t-20.5 -11.5q-121 0 -180 111q-60 -111 -179 -111z" />
<glyph unicode="&#xfbfe;&#xfbb1;" horiz-adv-x="1859" d="M432 227q0 16 -21.5 30.5t-75.5 14.5t-83 9q-68 27 5 105.5t142.5 95.5t69.5 -31q0 -31 -37 -11t-99.5 -27.5t-62.5 -90.5q0 -21 66 -21q126 0 127 -70q0 -51 -52.5 -88t-91.5 -37t-59 16.5t-20 34t9 31t21 13.5h6l-6 -35q0 -20 30 -20.5t81 24.5t51 57zM1761 -381 q-29 0 -63 23q-31 25 -31 57q0 66 68 65q100 0 100 -55q0 -90 -74 -90zM1581 -381q-29 0 -61.5 25t-32.5 55q0 66 67 65q102 0 103 -55q0 -90 -76 -90zM1365 -166q-166 0 -212.5 -5t-97.5 -11q-95 -11 -183.5 -41t-78.5 -53q14 -45 171.5 -82t462.5 -50q102 -4 110.5 -44 t-97.5 -117q-209 -147 -419 -206t-472 -32q-178 17 -307 115q-217 164 -115 426q41 106 101.5 157.5t111.5 45.5q41 -6 12 -39q-14 -18 -49 -41q-70 -53 -106.5 -136t-18.5 -177t118.5 -168t229.5 -93q221 -33 435.5 31.5t461.5 200.5q-59 10 -238 21t-289 40t-157.5 96 t-10.5 120.5t177 85.5t338 32h279q76 0 107.5 66.5t23.5 170t-27.5 206t-41 200.5t-21.5 127q0 63 55 63q84 1 124 -335q21 -178 8 -272q-14 -94 -36 -160q-49 -142 -204 -142h-145z" />
<glyph unicode="&#xfbff;&#xfbb1;" horiz-adv-x="1783" d="M124 203q30 0 81 24.5t51 57.5q0 16 -21.5 30t-76 14.5t-82.5 8.5q-68 27 5 105.5t142 96t70 -31.5q0 -30 -37 -10t-99.5 -28t-62.5 -91q0 -21 66 -21q126 0 127 -69q0 -51 -52.5 -88t-91.5 -37t-59.5 16.5t-20.5 33.5t9.5 30.5t21.5 13.5h6l-6 -35q0 -20 30 -20z M1706 -377q-29 0 -64 23q-31 25 -30 57q0 66 67 66q100 0 101 -56q0 -90 -74 -90zM1526 -377q-29 0 -62 25t-32 55q0 66 67 66q102 0 103 -56q0 -90 -76 -90zM1427 -166h-157q-167 0 -212.5 -5t-97 -11t-96.5 -16.5t-88 -25t-62.5 -27.5t-15.5 -25q14 -45 172.5 -82.5 t462.5 -49.5q102 -4 110.5 -44t-97.5 -117q-209 -147 -419 -206t-472 -32q-177 17 -307 115q-217 162 -115 426q41 106 101 157.5t112 45.5q41 -6 12 -39q-14 -18 -49 -41q-70 -53 -106.5 -136t-18.5 -177t118.5 -168t229.5 -93q221 -33 435 31.5t462 200.5 q-59 10 -238.5 21t-289 40t-157 95.5t-11.5 120.5t177 86t339 32h278q76 0 109 66.5t24.5 171t-28 207t-42 199.5t-22.5 126q0 63 57.5 63t82 -86t26.5 -207.5t5 -244.5t38 -209t109 -86q29 0 29 -39q0 -14 -8.5 -25.5t-20.5 -11.5q-121 0 -180 111q-60 -111 -179 -111z" />
<glyph unicode="&#xfe9f;&#xfbb1;" horiz-adv-x="2834" d="M126 203q30 0 81 24.5t51 57.5q0 16 -21.5 30t-76 14.5t-82.5 8.5q-68 27 5 105.5t142 96t70 -31.5q0 -30 -37 -10t-99.5 -28t-62.5 -91q0 -21 66 -21q126 0 127 -69q0 -51 -52.5 -88t-91.5 -37t-59 16.5t-20 33.5t9 30.5t21 13.5h6l-6 -35q0 -20 30 -20zM2126 -432 q-31 0 -64 22q-31 25 -30 58q0 66 67 65q100 0 101 -55q0 -90 -74 -90zM1817 741q-154 0 -154 -123q0 -37 45 -128t45 -101q0 -51 -63 -51q-35 0 -73 102.5t-38 153.5q0 109 70.5 180.5t169 71.5t252 -50.5t304 -126t261 -177t110.5 -191.5t-103 -171t-258 -133t-339 -91 q-340 -72 -619 -72h-157q-167 0 -212.5 -5t-97 -11t-96.5 -16.5t-88 -25t-62.5 -27.5t-15.5 -25q14 -45 172.5 -82.5t462.5 -49.5q102 -4 110.5 -44t-97.5 -117q-209 -147 -419 -206t-472 -32q-177 17 -307 115q-217 162 -115 426q41 106 101 157.5t112 45.5q41 -6 12 -39 q-14 -18 -49 -41q-70 -53 -106.5 -136t-18.5 -177t118.5 -168t229.5 -93q221 -33 435 31.5t462 200.5q-59 10 -238.5 21t-289 40t-157 95.5t-11.5 120.5t177 86t339 32l278 4q164 -10 440.5 40t513 139t263.5 179q-6 109 -174 223.5t-358.5 180t-294.5 65.5z" />
<glyph unicode="&#xfea0;&#xfbb1;" horiz-adv-x="2799" d="M142.5 203q29.5 0 80.5 24.5t51 57.5q0 16 -21.5 30t-75.5 14.5t-83 8.5q-68 27 5 105.5t151 99.5q61 14 61 -35q0 -30 -37 -10t-99 -28t-62 -91q1 -21 67 -21q126 0 125 -69q0 -51 -52 -88t-91.5 -37t-59.5 16.5t-20 33.5t9 30.5t22 13.5h6l-6 -35q0 -20 29.5 -20z M2060 -459q-31 0 -63 23q-31 25 -31 57q0 66 68 66q100 0 100 -56q0 -90 -74 -90zM2802 -90q29 0 28.5 -38t-31.5 -38h-51q-170 0 -261 4t-220 33t-219 88q-113 -39 -171 -57t-183 -40q-158 -28 -359 -28h-98q-290 0 -461 -58q-43 -14 -62.5 -27t-15.5 -25 q14 -45 172.5 -82.5t462.5 -49.5q102 -4 110.5 -44t-97.5 -117q-209 -147 -419 -206t-472 -32q-177 17 -307 115q-217 162 -115 426q41 106 101 157.5t112 45.5q41 -6 12 -39q-14 -18 -49 -41q-70 -53 -106.5 -136t-18.5 -177t118.5 -168t229.5 -93q221 -33 435 31.5 t462 200.5q-59 10 -238.5 21t-289 40t-157 95.5t-11.5 120.5t177 86t339 32h278q281 0 832 207q338 129 338 155q0 82 -101.5 171t-239.5 152.5t-274.5 104.5t-212.5 41q-154 0 -153 -123q0 -37 45 -128t45 -101q0 -51 -64 -51q-35 0 -72.5 103.5t-37.5 152.5 q0 109 70.5 180.5t169 71.5t252 -50.5t304 -126t261 -177t110.5 -181.5t-66.5 -135t-143 -80.5t-184 -55.5t-144.5 -46q90 -84 395 -84h246z" />
<glyph unicode="&#xfb7c;&#xfbb1;" horiz-adv-x="2834" d="M140.5 203q29.5 0 80.5 24.5t51 57.5q0 16 -21.5 30t-75.5 14.5t-83 8.5q-68 27 5 105.5t151 99.5q61 14 61 -35q0 -30 -37 -10t-99 -28t-62 -91q1 -21 67 -21q126 0 125 -69q0 -51 -52 -88t-91.5 -37t-59.5 16.5t-20 33.5t9 30.5t22 13.5h6l-6 -35q0 -20 29.5 -20z M2169 -293q29 0 61 -22q33 -27 33 -58q0 -66 -68 -65q-102 0 -102 55q0 90 76 90zM2085 -487q29 0 61.5 -25t32.5 -55q0 -66 -68 -66q-102 0 -102 55q0 91 76 91zM1962 -291q31 0 63 -22q31 -25 31 -58q0 -66 -67 -65q-100 0 -101 55q0 90 74 90zM1817 741q-154 0 -154 -123 q0 -37 45 -128t45 -101q0 -51 -63 -51q-35 0 -73 102.5t-38 153.5q0 109 70.5 180.5t169 71.5t252 -50.5t304 -126t261 -177t110.5 -191.5t-103 -171t-258 -133t-339 -91q-340 -72 -619 -72h-157q-167 0 -212.5 -5t-97 -11t-96.5 -16.5t-88 -25t-62.5 -27.5t-15.5 -25 q14 -45 172.5 -82.5t462.5 -49.5q102 -4 110.5 -44t-97.5 -117q-209 -147 -419 -206t-472 -32q-177 17 -307 115q-217 162 -115 426q41 106 101 157.5t112 45.5q41 -6 12 -39q-14 -18 -49 -41q-70 -53 -106.5 -136t-18.5 -177t118.5 -168t229.5 -93q221 -33 435 31.5 t462 200.5q-59 10 -238.5 21t-289 40t-157 95.5t-11.5 120.5t177 86t339 32l278 4q164 -10 440.5 40t513 139t263.5 179q-6 109 -174 223.5t-358.5 180t-294.5 65.5z" />
<glyph unicode="&#xfb7d;&#xfbb1;" horiz-adv-x="2799" d="M144.5 203q29.5 0 80.5 24.5t51 57.5q0 16 -21.5 30t-75.5 14.5t-83 8.5q-68 27 5 105.5t151 99.5q61 14 61 -35q1 -30 -36 -10t-99.5 -28t-62.5 -91q1 -21 67 -21q126 0 125 -69q0 -51 -52 -88t-91 -37t-59.5 16.5t-20.5 33.5t9 30.5t22 13.5h6l-6 -35q0 -20 29.5 -20z M2142 -354q29 0 62 -25t32 -55q0 -66 -67 -66q-102 0 -103 56q0 90 76 90zM2058 -549q29 0 62 -22q33 -27 32 -58q0 -66 -67 -65q-102 0 -103 55q0 90 76 90zM1935 -352q31 0 64 -23q31 -25 31 -57q0 -66 -68 -66q-100 0 -100 56q-1 90 73 90zM2802 -90q29 0 28.5 -38 t-31.5 -38h-51q-170 0 -261 4t-220 33t-219 88q-113 -39 -171 -57t-183 -40q-158 -28 -359 -28h-98q-290 0 -461 -58q-43 -14 -62.5 -27t-15.5 -25q14 -45 172.5 -82.5t462.5 -49.5q102 -4 110.5 -44t-97.5 -117q-209 -147 -419 -206t-472 -32q-177 17 -307 115 q-217 162 -115 426q41 106 101 157.5t112 45.5q41 -6 12 -39q-14 -18 -49 -41q-70 -53 -106.5 -136t-18.5 -177t118.5 -168t229.5 -93q221 -33 435 31.5t462 200.5q-59 10 -238.5 21t-289 40t-157 95.5t-11.5 120.5t177 86t339 32h278q281 0 832 207q338 129 338 155 q0 82 -101.5 171t-239.5 152.5t-274.5 104.5t-212.5 41q-154 0 -153 -123q0 -37 45 -128t45 -101q0 -51 -64 -51q-35 0 -72.5 103.5t-37.5 152.5q0 109 70.5 180.5t169 71.5t252 -50.5t304 -126t261 -177t110.5 -181.5t-66.5 -135t-143 -80.5t-184 -55.5t-144.5 -46 q90 -84 395 -84h246z" />
<glyph unicode="&#x6c2;" horiz-adv-x="595" d="M138.5 979q29.5 0 80.5 24.5t51 57.5q0 16 -21.5 30.5t-75.5 14.5t-83 8q-68 27 5 106t142.5 96t69.5 -32q0 -30 -37 -10t-99 -28t-62 -91q1 -20 67 -20q126 0 125 -70q0 -51 -52 -88t-91.5 -37t-59.5 16.5t-20 33.5t9 30.5t22 13.5h6l-6 -35q0 -20 29.5 -20zM391 653 q-2 0 -6 -2q-63 94 -139 111q-95 20 -135 -174q-20 -92 3 -243.5t94 -288t167 -156.5q113 -23 131 129q20 176 -68 463q-14 51 -33 91.5t-14 69.5zM741 -166q-117 0 -176 109q-25 -47 -65 -84q-80 -66 -181 -35q-143 43 -240 280.5t-74.5 468.5t163.5 265q43 10 90 1 t111.5 -61.5t58.5 -91.5q25 4 41 -2q-18 172 18 168q79 -4 91 -100q8 -68 1.5 -149t-6.5 -97q4 -14 8.5 -37t6.5 -31q35 -186 22 -321q0 -207 131 -207q29 0 29 -39q0 -14 -8.5 -25.5t-20.5 -11.5z" />
<glyph unicode="&#x6c3;" horiz-adv-x="743" d="M303 874q-29 0 -63 23q-31 25 -31 57q0 66 67 66q100 0 101 -55q0 -91 -74 -91zM113 874q-29 0 -62 25t-33 55q0 66 68 66q102 0 102 -55q1 -91 -75 -91zM391 653q-2 0 -6 -2q-63 94 -139 111q-95 20 -135 -174q-20 -92 3 -243.5t94 -288t167 -156.5q113 -23 131 129 q20 176 -68 463q-14 51 -33 91q-19 41 -14 70zM741 -166q-117 0 -176 109q-25 -47 -65 -84q-80 -66 -181 -35q-143 43 -240 280.5t-74.5 468.5t163.5 265q43 10 90 1t111.5 -61.5t58.5 -91.5q25 4 41 -2q-18 172 18 168q79 -4 91 -100q8 -68 1.5 -149t-6.5 -97 q4 -14 8.5 -37t6.5 -31q35 -186 22 -321q0 -207 131 -207q29 0 29 -39q0 -14 -8.5 -25.5t-20.5 -11.5z" />
<glyph unicode="&#x6d5;" horiz-adv-x="778" d="M432 653q-2 0 -6 -2q-63 94 -139 111q-95 20 -135 -174q-20 -92 3 -243.5t93.5 -288t167.5 -156.5q113 -23 131 129q20 176 -68 463q-14 51 -33 91q-19 41 -14 70zM782 -166q-117 0 -176 109q-25 -47 -65 -84q-80 -66 -181 -35q-143 43 -240 280.5t-74.5 468.5t163.5 265 q43 10 90 1t111.5 -61.5t58.5 -91.5q25 4 41 -2q-18 172 18 168q80 -4 92 -100q8 -68 1 -149t-6 -97t14 -68q35 -186 22 -321q0 -207 131 -207q29 0 29 -39q0 -14 -8.5 -25.5t-20.5 -11.5z" />
<glyph unicode="&#x671;" horiz-adv-x="532" arabic-form="final" d="M39 1655v2h-2q-16 31 -41 35q-31 6 -42 -48.5t12.5 -132t68.5 -88.5q63 -12 33 131q-11 51 -20 71.5t-9 29.5zM18 1399q-61 18 -90 136t17 165q20 23 55 14q14 -2 33.5 -17.5t17.5 -27.5q23 4 35 -23.5t14 -54.5q33 -133 -26 -182q-25 -18 -56 -10zM532 -90q29 0 29 -38 t-46 -38q-30 0 -74 31t-79.5 90t-67.5 125t-58 160t-46 170q-50 193 -92.5 473t-42.5 359t45 79q57 0 81 -210q5 -44 10.5 -105.5t8.5 -91t8 -74.5t17.5 -136.5t26.5 -169.5t34 -174q33 -164 98.5 -307t147.5 -143z" />
<glyph unicode="&#x67e;" horiz-adv-x="1644" arabic-form="final" d="M942 -307q29 0 62 -25t32 -55q0 -66 -67 -66q-102 0 -103 56q0 90 76 90zM858 -502q29 0 62 -22q33 -27 32 -58q0 -66 -67 -65q-102 0 -103 55q0 90 76 90zM735 -305q31 0 64 -23q31 -25 30 -57q0 -66 -67 -66q-100 0 -100 56q-1 90 73 90zM1638 -90q29 0 29 -39 q0 -14 -8 -25.5t-21 -11.5q-121 6 -178 113q-25 -47 -65 -80q-117 -83 -355 -111q-236 -28 -384 -16t-302 64t-265.5 170t-82.5 282q20 119 107.5 223.5t191.5 112.5q39 4 46 -22.5t-27 -43.5q-104 -39 -172 -114.5t-66 -182.5q0 -227 283 -338q109 -41 301 -61t398 4.5 t294 102.5q47 43 51 155.5t-18.5 222t-47 223t-24.5 142.5q0 63 52 63t79 -61t29 -154.5t6 -201t11 -200.5t41 -154.5t97 -61.5z" />
<glyph unicode="&#x67e;" horiz-adv-x="335" arabic-form="initial" d="M238 -270q29 0 61.5 -25t32.5 -55q0 -66 -68 -66q-102 0 -102 56q0 90 76 90zM154 -465q29 0 61 -22q33 -27 33 -58q0 -66 -68 -65q-102 0 -102 55q0 90 76 90zM31 -268q31 0 63 -23q31 -25 31 -57q0 -66 -68 -66q-100 0 -100 56q0 90 74 90zM0 -166q-12 0 -20.5 11.5 t-8.5 25.5q0 39 29 39q76 0 107.5 66.5t23.5 170t-27.5 206t-41 200.5t-21.5 127q0 63 55 63q68 0 109 -227q18 -98 24.5 -215t-4 -188.5t-33 -137t-71.5 -103.5t-121 -38z" />
<glyph unicode="&#x67e;" horiz-adv-x="360" arabic-form="medial" d="M268 -246q29 0 62 -22q33 -27 32 -58q0 -66 -67 -65q-102 0 -102 55q-1 90 75 90zM184 -440q29 0 62 -25t33 -55q0 -66 -68 -66q-102 0 -102 56q-1 90 75 90zM61 -244q31 0 64 -22q31 -25 31 -58q0 -66 -68 -65q-100 0 -100 55q-1 90 73 90zM358 -166q-121 0 -180 111 q-59 -111 -178 -111q-12 0 -20.5 11.5t-8.5 25.5q0 39 29 39q76 0 108.5 66.5t24.5 171t-27.5 207t-42 199.5t-22.5 126q0 63 57 63t82 -86t27 -207.5t5 -244.5t38 -209t108 -86q29 0 29 -39q0 -14 -8.5 -25.5t-20.5 -11.5z" />
<glyph unicode="&#x679;" horiz-adv-x="1642" arabic-form="final" d="M743 940q8 0 52.5 -2t102.5 0t81 27q39 39 -7 96t-112 84q-33 18 -68.5 9t-54.5 -44q-35 -70 6 -170zM774 892q10 -11 10 -22.5t-12 -11.5t-43 60q-37 2 -61 26q-8 6 0 6l41 -8h10q-57 119 -78 272q-4 14 -6 35l-2 21q-2 33 10 35t19 -19q2 -4 2 -10v-23l6 -51 q2 -6 11 -61t24 -103q0 59 26.5 98.5t75.5 40.5t93 -24t82 -69t34 -85q-6 -100 -244 -84q-12 3 -16 3q2 -2 5 -8.5t13 -17.5zM1638 -90q29 0 29 -39q0 -14 -8 -25.5t-21 -11.5q-121 6 -178 113q-25 -47 -65 -80q-117 -82 -354.5 -110.5t-385 -16.5t-302 64t-265.5 170 t-82 282q20 119 107.5 223.5t191.5 112.5q39 4 46 -22.5t-27 -43.5q-104 -39 -172 -114.5t-66 -182.5q0 -227 283 -338q109 -41 301 -61t398 4.5t294 102.5q47 43 51 155.5t-18.5 222t-47 223t-24.5 142.5q0 63 52 63t79 -61t29 -154.5t6 -201t11 -200.5t41 -154.5t97 -61.5 z" />
<glyph unicode="&#x679;" horiz-adv-x="362" arabic-form="initial" d="M47 948q8 0 52 -2t101.5 0t82.5 27q39 39 -7.5 96t-111.5 84q-33 18 -69 9t-54 -44q-35 -70 6 -170zM88 878q0 -11 -12 -12q-14 0 -43 60q-37 2 -62 26q-8 6 -3.5 6t44.5 -8h11q-57 119 -78 273q-17 87 2 90q12 2 18 -19q2 -4 2 -10v-22l6 -52q2 -6 12 -62.5t23 -100.5 q0 59 26.5 98t76 40t93.5 -24t82 -68.5t33 -84.5q-6 -100 -243 -84q-13 2 -17 2q2 -2 5.5 -8.5t13.5 -17.5t10 -22zM0 -166q-12 0 -20.5 11.5t-8.5 25.5q0 39 29 39q76 0 107.5 66.5t23.5 170t-27.5 206t-41 200.5t-21.5 127q0 63 55 63q68 0 109 -227q18 -98 24.5 -215 t-4 -188.5t-33 -137t-71.5 -103.5t-121 -38z" />
<glyph unicode="&#x679;" horiz-adv-x="360" arabic-form="medial" d="M70 897q8 0 52 -2t102 0t81 27q39 39 -7 96t-112 84q-33 18 -68.5 9t-54.5 -44q-34 -70 7 -170zM111 831q0 -16 -12 -16t-44 59q-37 2 -61 27q-8 6 0 6l41 -6l10 -2q-57 119 -78 272q-4 14 -6 35l-2 21q-2 33 10.5 35t18.5 -19q2 -4 2 -10v-23l6 -51q2 -6 10 -53.5 t25 -110.5q0 59 26.5 98.5t75.5 40.5t93 -24t82 -69t34 -85q-6 -100 -244 -84q-12 2 -16 2q2 -2 5 -8t13 -18.5t11 -16.5zM358 -166q-121 0 -180 111q-59 -111 -178 -111q-12 0 -20.5 11.5t-8.5 25.5q0 39 29 39q76 0 108.5 66.5t24.5 171t-27.5 207t-42 199.5t-22.5 126 q0 63 57 63t82 -86t27 -208.5t5 -244.5t38 -208t108 -86q29 0 29 -39q0 -14 -8.5 -25.5t-20.5 -11.5z" />
<glyph unicode="&#x6a4;" horiz-adv-x="1677" arabic-form="final" d="M1118 997q-31 0 -63 23q-31 25 -31 57q0 66 68 66q100 0 100 -56q0 -90 -74 -90zM934 997q-29 0 -62 25t-32 55q0 66 67 66q102 0 103 -56q0 -90 -76 -90zM1018 1192q-29 0 -62 22q-33 27 -32 58q0 66 67 65q102 0 103 -55q0 -90 -76 -90zM956 592l11 -10q8 -12 12 -80 q6 -147 110.5 -410.5t231.5 -159.5q76 63 75 216t-50.5 298.5t-108.5 219.5q-127 152 -201 90q-59 -49 -73 -164h-7zM1671 -166h-340q-179 -96 -522 -100q-156 -2 -310.5 29.5t-273.5 90t-181 164t-40 233.5t108.5 231.5t192.5 113.5q39 4 46 -23.5t-27 -42.5 q-104 -39 -172 -115.5t-66 -181.5q0 -229 283 -337q115 -45 357.5 -62.5t453.5 23.5q-182 82 -297 454q-84 260 26 293q-25 33 8 108.5t70 102.5q150 123 301 -47q131 -150 185.5 -421.5t-37.5 -416.5q-6 -10 -15 -20h250q29 0 29 -39q0 -14 -8.5 -25.5t-20.5 -11.5z" />
<glyph unicode="&#x6a4;" horiz-adv-x="792" arabic-form="initial" d="M186 592h7q14 115 73 164q74 61 201 -90q59 -74 108.5 -219.5t50.5 -298t-75 -216.5q-31 -25 -59 -26q-121 -8 -224 338q-55 186 -59 256t-12 82zM0 -166q-12 0 -20.5 11.5t-8.5 25.5q0 39 29 39h330q-131 119 -217 401l379 -477h-492zM418 1024q-31 0 -64 23 q-31 25 -30 57q0 66 67 65q100 0 101 -55q0 -90 -74 -90zM233 1024q-29 0 -61.5 25t-32.5 55q0 66 68 65q102 0 102 -55q0 -90 -76 -90zM317 1219q-29 0 -61 22q-33 27 -33 57q0 66 68 66q102 0 102 -55q0 -90 -76 -90z" />
<glyph unicode="&#x6a4;" horiz-adv-x="854" arabic-form="medial" d="M213 592q18 -9 22.5 -85.5t59.5 -262.5q102 -352 225 -340q29 6 58 28q76 63 74.5 216t-50.5 298.5t-108 219.5q-127 152 -201 90q-59 -49 -74 -164h-6zM856 -90q29 0 29 -39q0 -14 -8.5 -25.5t-20.5 -11.5h-883q-29 0 -28 39q0 14 8 26l29 11h374q-129 117 -215 389 t25 305q-25 33 8 108.5t68 102.5q150 123 301 -47q133 -150 189.5 -434.5t-54.5 -423.5h178zM494 985q-31 0 -64 23q-31 25 -31 57q0 66 68 65q100 0 100 -55q1 -90 -73 -90zM309 985q-29 0 -61.5 25t-32.5 55q0 66 68 65q102 0 102 -55q0 -90 -76 -90zM393 1180 q-29 0 -61 22q-33 27 -33 58q0 66 68 65q102 0 102 -55q0 -90 -76 -90z" />
<glyph unicode="&#x686;" horiz-adv-x="1327" arabic-form="final" d="M709 -215q29 0 61.5 -25t32.5 -55q0 -66 -68 -65q-102 0 -102 55q0 90 76 90zM625 -410q29 0 61 -22q33 -27 33 -57q0 -66 -68 -66q-102 0 -102 55q0 90 76 90zM502 -213q31 0 63 -23q31 -25 31 -57q0 -66 -68 -65q-100 0 -100 55q0 90 74 90zM578.5 -41q-6.5 0 -31.5 -8 q-219 -76 -301 -129q-139 -92 -140 -215q0 -94 79 -164q152 -134 460 -143q203 0 380 66.5t177 152.5q0 35 -42 65q-18 13 -32 17q-34 10 -34 37q0 10 10 19t26 9q76 0 124.5 -57.5t48.5 -106.5q0 -74 -96.5 -145.5t-246 -114.5t-310.5 -43t-310.5 51.5t-244.5 144.5 t-95 208q0 151 142 251q76 54 134 90t205 86t222 70q423 116 423 172q0 82 -101 171t-238.5 152.5t-274.5 104.5t-213 41q-154 0 -154 -123q0 -37 45.5 -128t45.5 -101q0 -51 -64 -51q-35 0 -73 103.5t-38 152.5q0 109 72 180.5t170 71.5t252 -50.5t304.5 -126t260 -177 t109.5 -181.5t-66.5 -135t-143.5 -80.5t-184.5 -55.5t-144.5 -46q92 -84 395 -84h240q29 0 29 -39q0 -14 -8.5 -25.5t-20.5 -11.5l-328 -2q-221 0 -342 82q-70 45 -76.5 45z" />
<glyph unicode="&#x686;" horiz-adv-x="1390" arabic-form="initial" d="M692 -211q29 0 62 -22q33 -27 32 -58q0 -66 -67 -65q-102 0 -103 55q0 90 76 90zM608 -406q29 0 62 -22q33 -27 32 -57q0 -66 -67 -66q-102 0 -103 55q0 90 76 90zM485 -209q31 0 64 -22q31 -25 31 -58q0 -66 -68 -65q-100 0 -100 55q-1 90 73 90zM389 741 q-154 0 -153 -123q0 -37 45 -128t45 -101q0 -51 -64 -51q-35 0 -72.5 102.5t-37.5 153.5q0 109 70.5 180.5t168.5 71.5t252 -50.5t304.5 -126t261 -177t110.5 -191.5t-104.5 -169t-255 -128t-414.5 -101t-545 -69q-12 0 -20.5 11.5t-8.5 25.5q0 39 29 39q334 32 698 108 q206 43 351 111t168 143q-6 109 -174.5 223.5t-358.5 180t-295 65.5z" />
<glyph unicode="&#x686;" horiz-adv-x="1376" arabic-form="medial" d="M678 -221q29 0 61.5 -25t32.5 -55q0 -66 -67 -66q-102 0 -103 56q0 90 76 90zM594 -416q29 0 61 -22q33 -27 33 -58q0 -66 -67 -65q-102 0 -103 55q0 90 76 90zM471 -219q31 0 64 -23q31 -25 30 -57q0 -66 -67 -66q-100 0 -101 56q0 90 74 90zM-29 -129q0 39 29 39 q381 39 775 187.5t394 174.5q0 82 -101 171t-239.5 152.5t-274.5 104.5t-212 41q-154 0 -154 -123q0 -37 45.5 -128t45.5 -101q0 -51 -64 -51q-35 0 -73 103.5t-38 152.5q0 109 71 180.5t169 71.5t252 -50.5t304.5 -126t261 -177t110.5 -181.5t-66.5 -135t-143.5 -80.5 t-184.5 -55.5t-144.5 -46q90 -84 395 -84h246q29 0 29 -39q0 -14 -8.5 -25.5t-23.5 -11.5h-50q-170 0 -261 4t-220 33t-219 88q-113 -39 -171.5 -56.5t-183.5 -40t-266 -28.5q-12 0 -20.5 11.5t-8.5 25.5z" />
<glyph unicode="&#x688;" horiz-adv-x="1175" arabic-form="final" d="M152 1061q8 0 52 -2q150 -7 186 29t-10 93.5t-112 84.5q-33 18 -68.5 9t-54.5 -44q-34 -70 7 -170zM137 1038q-37 2 -61 27q-8 6 0 6l41 -6l10 -2q-57 119 -78 272q-4 14 -6 35l-2 21q-2 33 10 35q15 2 21 -29v-23l6 -51q2 -6 10.5 -60t24.5 -104q0 59 26.5 98t75.5 40 t93 -23.5t82 -68.5t34 -85q-6 -100 -244 -84q-12 2 -16 2q2 -2 5 -8t13 -18.5t10.5 -22.5t-12 -10t-43.5 59zM1167 -166q-172 0 -217 229q-82 -111 -227 -190q-242 -135 -455 -57q-84 31 -106 71q-6 5 -2 17q14 40 96 -19q184 -66 412 54q227 117 295 299q55 147 -28 277 q-141 220 -484 241q-131 12 -241 -16t-118 -21q-49 14 -31 61q8 27 99 43q287 51 561 -51q178 -66 271 -214t57 -296q-47 -352 118 -352q29 0 29 -39q0 -14 -8.5 -25.5t-20.5 -11.5z" />
<glyph unicode="&#x698;" horiz-adv-x="409" arabic-form="final" d="M166 952q-31 0 -64 23q-31 25 -30 57q0 66 67 66q100 0 101 -56q0 -90 -74 -90zM-18 952q-29 0 -62 25t-33 55q0 66 68 66q102 0 102 -56q1 -90 -75 -90zM66 1147q-29 0 -62 22q-33 27 -33 58q0 66 68 65q102 0 102 -55q1 -90 -75 -90zM410 -166q-68 0 -113 33 q-12 -233 -113 -326q-39 -39 -112 -53q-31 -10 -54.5 -3t-20.5 29t21.5 32t35.5 6t32 2q94 35 127 144t10.5 263t-57.5 297t-80 298t-53 211t31.5 72.5t70.5 -47.5t87 -300t67 -437q4 -68 22 -96q33 -49 99 -49q29 0 28 -39q0 -14 -8 -25.5t-20 -11.5z" />
<glyph unicode="&#x691;" horiz-adv-x="409" arabic-form="final" d="M8 944q8 0 52 -2t101.5 0t82.5 27q39 39 -7.5 96t-111.5 84q-33 18 -69 9t-54 -44q-35 -70 6 -170zM49 874q0 -11 -12 -12q-14 0 -43 60q-37 2 -62 26q-8 6 -3.5 6t44.5 -8h11q-57 119 -78 273q-4 14 -6 34l-2 21q-2 33 10 35t18 -19l2 -10v-23l6 -51q2 -6 12 -61.5 t23 -102.5q0 59 27 98.5t76 40.5t93 -24t82 -69t34 -84q-6 -100 -244 -84q-13 2 -17 2q2 -2 5.5 -8.5t13.5 -17.5t10 -22zM410 -166q-68 0 -113 33q-12 -233 -113 -326q-39 -39 -112 -53q-31 -10 -54.5 -3t-20.5 29.5t21.5 32t35.5 5t32 2.5q94 35 127 144t10.5 263 t-57.5 297t-80 298t-53 211t31.5 72.5t70.5 -48t86.5 -300t67.5 -436.5q4 -68 22 -96q33 -49 99 -49q29 0 28 -39q0 -14 -8 -25.5t-20 -11.5z" />
<glyph unicode="&#x6a9;" horiz-adv-x="1693" arabic-form="final" d="M1180 1366q45 0 81 -100t79.5 -260t68.5 -257.5t54.5 -287t31.5 -370t123 -181.5h76q29 0 28 -39q0 -14 -8 -25.5t-20 -11.5h-78q-111 2 -164 100q-43 -72 -141 -112q-250 -104 -682 -80q-121 8 -275.5 61t-264 171t-81.5 282q20 119 107.5 223.5t191.5 112.5h8 q35 -2 39 -26.5t-28 -39.5q-104 -39 -172 -115.5t-66 -181.5q0 -229 283 -338q182 -68 571 -65q201 0 334 57q86 37 113.5 104.5t23.5 180.5q-11 355 -247 1026q-10 27 -20.5 61.5t-1.5 72.5t36 38zM680 326q0 -47 101 -47q51 0 112.5 33.5t60.5 86.5q0 29 -53 43 q-16 4 -121 21q-37 2 -127 22q-66 18 -65 54q0 88 134 178t220 90t86 -82q0 -12 -10.5 -30.5t-19.5 -18.5t-19 8t-10 16l6 31q0 39 -33 39q-59 0 -183 -87t-124 -136q0 -20 45 -31.5t131 -23.5t127 -29q63 -25 63 -77t-71.5 -100t-141.5 -48h-22q-39 0 -81 23.5t-42 60.5 q0 12 8 26q6 20 17 21q18 0 18 -17z" />
<glyph unicode="&#x6a9;" horiz-adv-x="1036" arabic-form="initial" d="M3 -166q-15 0 -23.5 11.5t-8.5 25.5q0 39 29 39q43 -2 98.5 0t118 1t127 5t125.5 16q124 21 210.5 85.5t86.5 185.5q0 66 -111 102q-53 18 -196 41.5t-314 63.5q-135 45 -135 131q0 141 128 295.5t303 252t313 97.5q160 0 159 -197q0 -31 -20.5 -74.5t-46.5 -44.5 q-18 0 -36.5 18.5t-15.5 36t4 31t4 25.5t3 18v2q0 94 -68 95q-86 0 -236.5 -95.5t-271 -225.5t-120.5 -216q0 -49 100 -80q37 -12 235.5 -47t284.5 -76q131 -61 131 -176q0 -216 -277 -308q-65 -22 -155 -29t-134 -10t-160 -1t-131 2z" />
<glyph unicode="&#x6a9;" horiz-adv-x="1157" arabic-form="medial" d="M3 -166q-15 0 -23.5 11.5t-8.5 25.5q0 39 29 39q43 -2 98.5 0t118 1t127 5t125.5 16q124 21 210.5 85.5t86.5 185.5q0 66 -113 102q-55 18 -194 40.5t-316 64.5q-135 45 -135 131q0 141 128 295.5t303 252t315 97.5q160 0 159 -197q0 -31 -20.5 -74.5t-46.5 -44.5 q-18 0 -36.5 18.5t-15.5 36t4 31t4 25.5t3 18v2q0 94 -68 95q-86 0 -237.5 -95.5t-272.5 -225.5t-121 -216q0 -49 101 -80q41 -12 238.5 -47t283.5 -76q131 -61 131 -176q0 -33 -8 -59q0 -211 131 -211h172q29 0 29 -39q0 -14 -8.5 -25.5t-20.5 -11.5h-172q-143 0 -197 158 q-69 -76 -203 -120q-65 -22 -155 -29t-134 -10t-160 -1t-131 2z" />
<glyph unicode="&#x6af;" horiz-adv-x="1689" arabic-form="final" d="M1667 1497q-293 39 -688 -219q-59 -37 -86 1t16 85q10 10 23 18q94 61 268 123q283 100 475 82q57 -6 81 -31.5t-2 -46t-87 -12.5zM1180 1366q45 0 81 -100t79.5 -260t68.5 -257.5t54.5 -287t31.5 -370t123 -181.5h76q29 0 28 -39q0 -14 -8 -25.5t-20 -11.5h-78 q-111 2 -164 100q-43 -72 -141 -112q-250 -104 -682 -80q-121 8 -275.5 61t-264 171t-81.5 282q20 119 107.5 223.5t191.5 112.5h8q35 -2 39 -26.5t-28 -39.5q-104 -39 -172 -115.5t-66 -181.5q0 -229 283 -338q182 -68 571 -65q201 0 334 57q86 37 113.5 104.5t23.5 180.5 q-11 355 -247 1026q-10 27 -20.5 61.5t-1.5 72.5t36 38zM680 326q0 -47 101 -47q51 0 112.5 33.5t60.5 86.5q0 29 -53 43q-16 4 -121 21q-37 2 -127 22q-66 18 -65 54q0 88 134 178t220 90t86 -82q0 -12 -10.5 -30.5t-19.5 -18.5t-19 8t-10 16l6 31q0 39 -33 39 q-59 0 -183 -87t-124 -136q0 -20 45 -31.5t131 -23.5t127 -29q63 -25 63 -77t-71.5 -100t-141.5 -48h-22q-39 0 -81 23.5t-42 60.5q0 12 8 26q6 20 17 21q18 0 18 -17z" />
<glyph unicode="&#x6af;" horiz-adv-x="1036" arabic-form="initial" d="M877 1366q-293 39 -689 -219q-59 -37 -85.5 1t16.5 85q59 59 316.5 150t449.5 73q57 -6 80.5 -31.5t-2 -46t-86.5 -12.5zM3 -166q-15 0 -23.5 11.5t-8.5 25.5q0 39 29 39q43 -2 98.5 0t118 1t127 5t125.5 16q124 21 210.5 85.5t86.5 185.5q0 66 -111 102 q-53 18 -196 41.5t-314 63.5q-135 45 -135 131q0 141 128 295.5t303 252t313 97.5q160 0 159 -197q0 -31 -20.5 -74.5t-46.5 -44.5q-18 0 -36.5 18.5t-15.5 36t4 31t4 25.5t3 18v2q0 94 -68 95q-86 0 -236.5 -95.5t-271 -225.5t-120.5 -216q0 -49 100 -80q37 -12 235.5 -47 t284.5 -76q131 -61 131 -176q0 -216 -277 -308q-65 -22 -155 -29t-134 -10t-160 -1t-131 2z" />
<glyph unicode="&#x6af;" horiz-adv-x="1155" arabic-form="medial" d="M848 1325q-293 39 -688 -219q-59 -37 -86 1t16 85q10 10 23 18q94 61 268 123q283 100 475 82q57 -6 81 -31.5t-2 -46t-87 -12.5zM3 -166q-15 0 -23.5 11.5t-8.5 25.5q0 39 29 39q43 -2 98.5 0t118 1t127 5t125.5 16q124 21 210.5 85.5t86.5 185.5q0 66 -113 102 q-55 18 -194 40.5t-316 64.5q-135 45 -135 131q0 141 128 295.5t303 252t315 97.5q160 0 159 -197q0 -31 -20.5 -74.5t-46.5 -44.5q-18 0 -36.5 18.5t-15.5 36t4 31t4 25.5t3 18v2q0 94 -68 95q-86 0 -237.5 -95.5t-272.5 -225.5t-121 -216q0 -49 101 -80q41 -12 238.5 -47 t283.5 -76q131 -61 131 -176q0 -33 -8 -59q0 -211 131 -211h172q29 0 29 -39q0 -14 -8.5 -25.5t-20.5 -11.5h-172q-143 0 -197 158q-69 -76 -203 -120q-65 -22 -155 -29t-134 -10t-160 -1t-131 2z" />
<glyph unicode="&#x6ba;" horiz-adv-x="1478" arabic-form="final" d="M1479 -166q-78 0 -131 47q-16 -176 -88 -321q-106 -223 -295 -328.5t-416 -17.5q-229 84 -392 316t-157 478q4 143 61 250q29 51 64 74q4 4 8 4q-25 45 -16 67q37 98 180 103.5t314 -54.5t311 -126q308 -143 270 -210q-22 -38 -94 -12q-27 10 -72 42t-166 93.5t-266 120 t-265 57.5t-151 -85q-4 -10 -8 -35q2 -8 -4 -18q-156 -248 27 -596q156 -295 385 -379q170 -61 320.5 17.5t236.5 236.5q87 158 109 312t4 278q-36 240 -132 495q-4 12 -13 41t-13 41q-31 80 2 117t70.5 -19t101.5 -278q68 -254 88 -500q20 -135 127 -135q29 0 28 -39 q0 -14 -8 -25.5t-20 -11.5z" />
<glyph unicode="&#x6c0;" horiz-adv-x="786" arabic-form="final" d="M189.5 920q29.5 0 81 24.5t51.5 56.5q0 16 -22 30.5t-76 15t-83 8.5q-68 27 5.5 105.5t142.5 96t69 -31.5q1 -31 -36 -11t-99.5 -27.5t-62.5 -90.5q0 -21 66 -21q126 0 126 -69q0 -51 -52 -88t-91 -37t-59.5 16t-20.5 33.5t9 31t22 13.5h6l-6 -35q0 -20 29.5 -20z M432 653q-2 0 -6 -2q-63 94 -139 111q-95 20 -135 -174q-20 -92 3 -243.5t93.5 -288t167.5 -156.5q113 -23 131 129q20 176 -68 463q-14 51 -33 91.5t-14 69.5zM782 -166q-117 0 -176 109q-25 -47 -65 -84q-80 -66 -181 -35q-143 43 -240 280.5t-74.5 468.5t163.5 265 q43 10 90 1t111.5 -61.5t58.5 -91.5q25 4 41 -2q-18 172 18 168q80 -4 92 -100q8 -68 1 -149t-6 -97.5t14 -67.5q35 -186 22 -321q0 -207 131 -207q29 0 29 -39q0 -14 -8.5 -25.5t-20.5 -11.5z" />
<glyph unicode="&#x6c1;" horiz-adv-x="741" arabic-form="final" d="M391 653q-2 0 -6 -2q-63 94 -139 111q-95 20 -135 -174q-20 -92 3 -243.5t94 -288t167 -156.5q113 -23 131 129q20 176 -68 463q-14 51 -33 91q-19 41 -14 70zM741 -166q-117 0 -176 109q-25 -47 -65 -84q-80 -66 -181 -35q-143 43 -240 280.5t-74.5 468.5t163.5 265 q43 10 90 1t111.5 -61.5t58.5 -91.5q25 4 41 -2q-18 172 18 168q79 -4 91 -100q8 -68 1.5 -149t-6.5 -97q4 -14 8.5 -37t6.5 -31q35 -186 22 -321q0 -207 131 -207q29 0 29 -39q0 -14 -8.5 -25.5t-20.5 -11.5z" />
<glyph unicode="&#x6c1;" horiz-adv-x="305" arabic-form="initial" d="M0 -166q-12 0 -20.5 11.5t-8.5 25.5q0 39 29 39q76 0 107.5 66.5t23.5 170t-27.5 206t-41 200.5t-21.5 127q0 63 55 63q68 0 109 -227q18 -98 24.5 -215t-4 -188.5t-33 -137t-71.5 -103.5t-121 -38z" />
<glyph unicode="&#x6c1;" horiz-adv-x="825" arabic-form="medial" d="M435 131q81 90 74 210t-86 209t-136.5 35.5t-78 -212t22.5 -391.5q123 59 204 149zM14 -166q-44 0 -43.5 38t29.5 38q45 0 137 31q-65 305 -17 547q22 114 85 174.5t154 36.5t159 -135t72 -210q6 -156 -90.5 -279.5t-249.5 -185.5q84 -328 225 -362q63 -16 94 33 t49.5 136t32.5 114q59 100 174 100q29 0 29 -39q0 -14 -8 -25.5t-21 -11.5q-89 0 -123 -98q-12 -32 -21 -78.5t-15 -67.5q-27 -88 -94.5 -139t-151.5 -20q-160 59 -264 432q-116 -29 -142 -29z" />
<glyph unicode="&#x6be;" horiz-adv-x="825" arabic-form="final" d="M435 131q81 90 74 210t-86 209t-136.5 35.5t-78 -212t22.5 -391.5q123 59 204 149zM14 -166q-44 0 -43.5 38t29.5 38q45 0 137 31q-65 305 -17 547q22 114 85 174.5t154 36.5t159 -135t72 -210q6 -156 -90.5 -279.5t-249.5 -185.5q84 -328 225 -362q63 -16 94 33 t49.5 136t32.5 114q59 100 174 100q29 0 29 -39q0 -14 -8 -25.5t-21 -11.5q-89 0 -123 -98q-12 -32 -21 -78.5t-15 -67.5q-27 -88 -94.5 -139t-151.5 -20q-160 59 -264 432q-116 -29 -142 -29z" />
<glyph unicode="&#x6be;" horiz-adv-x="882" arabic-form="initial" d="M297 543q47 8 104.5 -14t106.5 -89q90 -131 88 -329q-2 -127 -49 -205q131 -44 151 123q20 176 -67 463q-14 51 -33 91.5t-17.5 51t5.5 18.5l-2 -2h-4q-68 94 -142 111q-93 20 -135 -174q-2 -12 -6 -45zM193 -23q0 -7 -7 -14q98 -109 174 -102.5t120 95.5t33 229.5 t-73 230.5q-68 92 -145 67q-6 -186 -43 -172q-23 8 -53 88q-27 -55 -29 -131q-10 -154 57 -243q18 -25 52.5 -44t37.5 -24q14 -25 -11.5 -37t-61 15.5t-51.5 41.5zM0 -90q115 0 129 164q-43 94 -32 222t96 196q-2 172 64.5 272t197.5 74q45 -8 108.5 -60.5t57.5 -91.5 q77 16 115 -87q26 -69 35 -114t9 -47q82 -438 -88 -579q-82 -69 -196 -29q-12 4 -17 6q-174 -88 -325 74q-55 -76 -154 -76q-12 0 -20.5 11.5t-8.5 25.5q0 39 29 39z" />
<glyph unicode="&#x6be;" horiz-adv-x="827" arabic-form="medial" d="M435 131q81 90 74 210t-86 209t-136.5 35.5t-78 -212t22.5 -391.5q123 59 204 149zM14 -166q-44 0 -43.5 38t29.5 38q45 0 137 31q-65 305 -17 547q22 114 85 174.5t154 36.5t159 -135t72 -210q6 -156 -90.5 -279.5t-249.5 -185.5q84 -328 225 -362q63 -16 94 33 t49.5 136t32.5 114q59 100 174 100q29 0 29 -39q0 -14 -8 -25.5t-21 -11.5q-89 0 -123 -98q-12 -32 -21 -78.5t-15 -67.5q-27 -88 -94.5 -139t-151.5 -20q-160 59 -264 432q-116 -29 -142 -29z" />
<glyph unicode="&#x6d2;" horiz-adv-x="1427" arabic-form="final" d="M1427 -90q29 0 29 -38t-34 -38h-153q-166 0 -211.5 -5t-97 -11t-96.5 -16.5t-88 -25t-62.5 -27.5t-15.5 -25q14 -45 172.5 -82.5t462.5 -49.5q102 -4 110.5 -44t-97.5 -117q-209 -147 -419 -206t-472 -32q-177 17 -307 115q-217 162 -115 426q41 106 101 157.5t112 45.5 q41 -6 12 -39q-14 -18 -49 -41q-70 -53 -106.5 -136t-18.5 -177t118.5 -168t229.5 -93q221 -33 435 31.5t462 200.5q-59 10 -238.5 21t-289 40t-157 95.5t-11.5 120.5t177 86t339 32h278z" />
<glyph unicode="&#x6d3;" horiz-adv-x="1427" arabic-form="final" d="M13.5 203q29.5 0 80.5 24.5t51 57.5q0 16 -21.5 30t-75.5 14.5t-83 8.5q-68 27 5 105.5t151 99.5q61 14 61 -35q0 -30 -37 -10t-99 -28t-62 -91q0 -21 66 -21q126 0 126 -69q0 -51 -52 -88t-91.5 -37t-59.5 16.5t-20 33.5t9 30.5t22 13.5h6l-6 -35q0 -20 29.5 -20z M1427 -90q29 0 29 -39q0 -14 -8 -25.5t-18 -11.5h-181q-186 0 -264 -12q-213 -32 -271 -72q-20 -14 -16 -26q14 -45 172.5 -82.5t462.5 -49.5q102 -4 110.5 -44t-97.5 -117q-209 -147 -419 -206t-472 -32q-177 17 -307 115q-217 162 -115 426q41 106 110 166q14 12 31 20 q61 33 89 10t-54 -73q-70 -53 -106.5 -136t-18.5 -177t118.5 -168t229.5 -93q221 -33 435 31.5t462 200.5q-59 10 -238.5 21t-289 40t-157 95.5t-11.5 120.5t177 86t339 32h278z" />
<glyph unicode="&#x649;" horiz-adv-x="315" arabic-form="initial" d="M0 -166q-12 0 -20.5 11.5t-8.5 25.5q0 39 29 39q76 0 107.5 66.5t23.5 170t-27.5 206t-41 200.5t-21.5 127q0 63 55 63q68 0 109 -227q18 -98 24.5 -215t-4 -188.5t-33 -137t-71.5 -103.5t-121 -38z" />
<glyph unicode="&#x649;" horiz-adv-x="358" arabic-form="medial" d="M358 -166q-121 0 -180 111q-59 -111 -178 -111q-12 0 -20.5 11.5t-8.5 25.5q0 39 29 39q76 0 108.5 66.5t24.5 171t-27.5 207t-42 199.5t-22.5 126q0 63 57 63t82 -86t27 -207.5t5 -244.5t38 -209t108 -86q29 0 29 -39q0 -14 -8.5 -25.5t-20.5 -11.5z" />
<glyph unicode="&#x6cc;" horiz-adv-x="1439" arabic-form="final" d="M1430 -90q29 0 28.5 -38t-34.5 -38h-153q-166 0 -211.5 -5t-97 -11t-96.5 -16.5t-88 -25t-62.5 -27.5t-15.5 -25q14 -45 172.5 -82.5t462.5 -49.5q102 -4 110.5 -44t-97.5 -117q-209 -147 -419 -206t-472 -32q-177 17 -307 115q-217 162 -115 426q41 106 101 157.5 t112 45.5q41 -6 12 -39q-14 -18 -49 -41q-70 -53 -106.5 -136t-18.5 -177t118.5 -168t229.5 -93q221 -33 435 31.5t462 200.5q-59 10 -238.5 21t-289 40t-157 95.5t-11.5 120.5t177 86t339 32h279z" />
<glyph unicode="&#x6cc;" horiz-adv-x="301" arabic-form="initial" d="M285 -385q-29 0 -64 23q-31 25 -31 57q0 66 68 65q100 0 100 -55q1 -90 -73 -90zM104 -385q-29 0 -61.5 25t-32.5 55q0 66 68 65q102 0 102 -55q0 -90 -76 -90zM0 -166q-12 0 -20.5 11.5t-8.5 25.5q0 39 29 39q76 0 107.5 66.5t23.5 170t-27.5 206t-41 200.5t-21.5 127 q0 63 55 63q68 0 109 -227q18 -98 24.5 -215t-4 -188.5t-33 -137t-71.5 -103.5t-121 -38z" />
<glyph unicode="&#x6cc;" horiz-adv-x="354" arabic-form="medial" d="M340 -385q-29 0 -64 23q-31 25 -30 57q0 66 67 65q100 0 101 -55q0 -90 -74 -90zM160 -385q-29 0 -62 25t-32 55q0 66 67 65q102 0 103 -55q0 -90 -76 -90zM354 -166q-121 0 -180 111q-59 -111 -178 -111q-12 0 -20.5 11.5t-8.5 25.5q0 39 29 39q76 0 108.5 66.5 t24.5 171t-27.5 207t-42 199.5t-22.5 126q0 63 57 63t82 -86t27 -207.5t5 -244.5t38 -209t108 -86q29 0 29 -39q0 -14 -8.5 -25.5t-20.5 -11.5z" />
<glyph unicode="&#xfc5e;" horiz-adv-x="0" arabic-form="isolated" d="M-444.5 2050q-34.5 0 -67.5 -25t-57.5 -66.5t1.5 -62.5t74 5q41 18 68 55q12 27 7 36t-1 13t8 4t9 -4q10 -20 -0.5 -41.5t-14.5 -30.5q-27 -37 -71 -53q-55 -29 -93 2q-2 0 -2 2v2q-24 23 -18 54q16 79 106 120q63 33 99.5 7t23.5 -80q-10 -66 -47 -103 q-45 -61 -114.5 -102t-120.5 -4q-30 45 -21 59q7 7 17 -4q4 -27 14 -37q49 -35 135 33q90 66 117 149q12 47 -13 68q-4 4 -38.5 4zM-226 1982q-32 0 -67 -25.5t-55 -62.5q-29 -45 -3 -65t70 0t72 59q12 25 7 34t-1 13t9 4q4 0 10 -9q8 -13 -17 -64q-25 -35 -78.5 -59 t-87.5 10v2q-25 18 -19 51q15 77 107 123q66 35 99 4q60 -41 -10 -168l-13 -12q-47 -66 -115.5 -104t-119.5 -3q-29 41 -19 57q4 15 15 -4q2 -23 14 -34q47 -35 135 30q89 71 117 150q12 51 -12 67q-6 6 -38 6zM-426 1546q-14 51 11.5 62.5t29.5 3.5t13.5 -60.5t33 -83 t60.5 -14.5t44 36.5t-4.5 43t-28 41t-34.5 37t-22.5 27.5t14.5 18q49 20 81 -72q12 -35 36 -57.5t56 -9t36 32t-12.5 39t-36 38t-40 32.5t-26.5 24t12 20q42 15 116 -75q19 -23 18 -62t-52 -62t-88 -10q-2 -29 -53 -51q-121 -53 -164 102z" />
<glyph unicode="&#xfc5f;" horiz-adv-x="0" arabic-form="isolated" d="M-195 1585q-190 -90 -317 -108q-2 -2 -12 -3t-17.5 5t-5.5 16q4 32 86 45q37 6 43 8q317 90 373 195q-29 -86 -87 -122q-20 -13 -63 -36zM-195 1446q-190 -90 -317 -109q-2 -2 -12 -3t-17.5 5.5t-5.5 16.5q4 32 86 45q37 6 43 8q317 90 373 195q-29 -86 -87 -122 q-20 -13 -63 -36zM-498 1788q-14 51 11.5 62t29.5 3t13.5 -60t33 -83t60.5 -14.5t44 37t-4.5 43t-27.5 41t-34.5 37t-22.5 27.5t14 17q50 21 82 -71q12 -35 35.5 -57.5t55.5 -9.5t36 31.5t-12.5 39t-36 38t-40 33t-26.5 24.5t13 20q42 14 116 -76q20 -24 18.5 -62.5 t-55.5 -60.5q-49 -23 -86 -10q-2 -29 -53 -51q-121 -53 -164 102z" />
<glyph unicode="&#xfc60;" horiz-adv-x="0" arabic-form="isolated" d="M-207 1825q-190 -90 -317 -109q-21 -5 -29 1.5t-6 20t25.5 25t60.5 17.5t43 8q317 90 373 194q-29 -84 -87 -121q-20 -13 -63 -36zM-377 1595q-14 51 11.5 62.5t29.5 3.5t13.5 -60.5t33 -83t60.5 -14.5t44 37t-4.5 43.5t-27.5 40.5t-34.5 36.5t-22.5 27.5t14 18 q50 21 82 -72q12 -35 35.5 -57.5t55.5 -9t36 32t-12.5 39t-36 38t-40 32.5t-26.5 24.5t12 19.5q40 14 116 -75q20 -23 19 -62t-52.5 -62t-88.5 -10q-2 -29 -53 -51q-121 -53 -164 102z" />
<glyph unicode="&#xfc61;" horiz-adv-x="0" arabic-form="isolated" d="M-369.5 1964q56.5 61 142.5 61t86 -85q0 -45 -55.5 -118t-122 -108t-103.5 -35t-66.5 16.5t-29.5 44t9 27.5t15 -15q18 -48 62 -48q76 0 172 91.5t96 154.5q0 25 -13 36t-58 11t-104.5 -49.5t-59.5 -92.5q0 -37 50 -36.5t99 38t49 66.5l-4 19q0 8 13 8t13.5 -18.5 t-13 -46t-55.5 -59.5t-90 -32t-66 21v2q-23 16 -23 51t56.5 96zM-418 1548q-14 51 11.5 62.5t29.5 3.5t13.5 -60.5t33 -83t60.5 -14.5t44 36.5t-4.5 43.5t-27.5 41t-34.5 36.5t-22.5 27.5t14 18q50 21 82 -72q12 -35 35.5 -57.5t55.5 -9t36 32t-12.5 39t-36 38t-40 32.5 t-26.5 24t12 20q41 14 117 -75q20 -23 18.5 -62t-53 -62t-88.5 -10q-2 -29 -53 -51q-121 -53 -164 102z" />
<glyph unicode="&#xfc62;" horiz-adv-x="0" arabic-form="isolated" d="M-209 1446q-190 -90 -317 -109q-2 -2 -12.5 -3t-17.5 5.5t-5 16.5q4 32 86 45q37 6 43 8q317 90 373 195q-29 -86 -87 -122q-20 -13 -63 -36zM-553 1657q-14 51 11.5 62t29.5 3t13.5 -60t33 -83t60.5 -14.5t44 37t-4.5 43t-28 41t-34.5 37t-22.5 27.5t14.5 17 q50 20 82 -71q12 -35 35.5 -57.5t55.5 -9.5t36 31.5t-12.5 39t-36 38t-40 33t-26.5 24.5t12 20q43 15 116 -75q19 -24 18 -63t-54 -61q-49 -23 -86 -10q-2 -29 -53 -52q-121 -53 -164 103z" />
<glyph unicode="&#xfc63;" horiz-adv-x="0" arabic-form="isolated" d="M-348 1798q-41 94 -35 174v2q2 16 18.5 12.5t21.5 -18t3 -29t0 -22.5q10 -174 94 -213q-51 18 -69.5 37.5t-32.5 56.5zM-418 1548q-14 51 11.5 62.5t29.5 3.5t13.5 -60.5t33 -83t60.5 -14.5t44 36.5t-4.5 43.5t-27.5 41t-34.5 36.5t-22.5 27.5t14 18q50 21 82 -72 q12 -35 35.5 -57.5t55.5 -9t36 32t-12.5 39t-36 38t-40 32.5t-26.5 24t12 20q41 14 117 -75q20 -23 18.5 -62t-53 -62t-88.5 -10q-2 -29 -53 -51q-121 -53 -164 102z" />
<glyph unicode="&#xfdf2;" horiz-adv-x="1417" arabic-form="isolated" d="M391 653q-2 0 -6 -2q-63 94 -139 111q-95 20 -135 -174q-20 -92 3 -243.5t94 -288t167 -156.5q113 -23 129 129q20 174 -66 460l-24 74q-29 63 -26 74.5t3 15.5zM741 -90q61 0 95 48t36 138q4 201 -47.5 414.5t-93.5 353.5l-31 105q-16 63 -61 186q-14 49 -27 82 q-31 80 2 117t76 -23q16 -27 31 -63q205 -545 231 -1157q10 -201 133 -201q99 0 123 118t5 239.5t-33.5 196.5t-37 164t-39 144t-34.5 119.5t-28 102.5t-35 107.5t-34 97.5t-14 38q-31 80 2.5 117t71 -19t103 -290t153.5 -746q68 -465 -203 -465q-121 0 -172 100 q-51 -100 -170 -100t-178 109q-25 -47 -65 -84q-80 -66 -181 -35q-143 43 -240 280.5t-76 468.5t165 265q43 10 90 1t111.5 -61.5t58.5 -91.5q25 4 39 -2q-16 172 20 168q61 -2 84 -72l4 -41q4 -33 0 -116.5t-2 -116.5q4 -14 8.5 -37t6.5 -31q35 -186 22 -321 q0 -207 131 -207z" />
<glyph unicode="&#xfdfa;" horiz-adv-x="2164" arabic-form="isolated" d="M1952 86q-33 0 -41 -51q10 -37 63 -37q27 -1 31 22q-12 66 -53 66zM412 -90q20 0 24 3t2 9q-10 43 -50 71q-40 27 -69 27t-28 -24q0 -27 53 -55q48 -31 68 -31zM389 918l-2 79q-33 -18 -84 -34q-66 -33 -70 -50q-5 -23 53 -23t103 28zM664 1352q0 -56 -43 -56 q-27 0 -43 17q-37 -31 -62 -31q-43 0 -43 47t6 64l13 12q-2 -76 34 -76q25 0 39 33l-4 47l19 29l8 -62q2 -33 28 -33t25 31l-6 45l14 21q15 -32 15 -88zM166 432q0 -20 66 -20t118 49l-4 78q-180 -70 -180 -107zM1266 1253l403 191l-12 -45l-400 -197zM1294 -248 q0 -33 -4 -61q-12 -27 -42 -27t-38 8q-31 -32 -52 -32t-43 17q-21 17 -31 17t-70 -36t-146 -35q-88 0 -88 15t66 15q66 -1 98 5t79 38t65 33q18 0 45 -16l26 -17q31 0 37 35q2 27 23 27q8 0 8 -14t-2 -17q2 -8 22 -12q25 1 25 29t22 28zM2025 860q1 14 -35 32t-67 19 q-31 0 -111 -49l-55 -37q-23 -14 -41 -32q4 -2 60 -2t152 18q97 18 97 51zM1133 152l100 -76l-53 -64l-99 72l-57 -74l-102 74l59 72l96 -72zM942 1378l33 -463q-6 -135 -27 -149l-51 496zM1552 1079q0 -23 54 -51l-19 -49q-67 19 -67 81t53 91q260 152 432 209l-18 -51 q-79 -29 -257 -114t-178 -116zM1954 176q26 0 68 -50t42 -137t-82 -212t-180 -125q-53 0 -125 33t-71 47q0 8 14 8t60 -15t63 -16q139 -4 287 217l-15 45q-37 -53 -71 -53t-56 26q-48 58 8 169q33 63 58 63zM1947 991q36 1 86 -29t50 -63t-32 -83t-64 -64q-94 -43 -238 -43 q-29 0 -98 4q-49 -96 -78 -97q-8 0 -8 23t45 86q-90 35 -99 53q-84 -53 -102 -53q14 -285 51 -360q39 -72 172 -82l4 4q-43 35 -43 95q-1 60 57 136q58 78 124 78t116 -35q51 -35 52 -63q-53 18 -113 18t-127 -29q-53 -29 -53 -57t49 -77q49 -50 92 -60q38 4 148 40t128 48 l-34 -76q-207 -109 -399 -109t-236 150q-61 -133 -115 -133t-139 90q-133 -115 -404 -115q-76 0 -143 11q19 -166 66 -209q90 -90 340 -90t358 65q31 76 57 76q8 -1 8 -23t-24 -84q12 -26 61 -26t94 24q43 135 68 136q8 0 8 -34t-20 -77q56 -27 80 -27t26 4t-16 82l35 74 q25 -74 24 -106q0 -137 -90 -138q-47 0 -98 39q-31 -53 -125 -53t-94 53q-42 -29 -146 -51t-233 -20q-199 0 -293 57q-121 72 -123 258l-45 -66q-33 -49 -53 -53q25 -43 25 -90q0 -48 -25 -72q-24 -24 -58 -24t-118 47q-27 -61 -86 -96q-10 -7 -49 -11t-44 -4l-22 -8 q-12 0 -12 9t49 32q66 25 80 39l69 53q-20 33 -20 79t37 88t69 42l13 -4q33 -20 65 -20t68 47l47 86q-80 25 -113 55q-61 55 -80 174h-4q-59 -102 -162 -102q-32 0 -72 15t-40 26q0 51 83 114t179 95l-4 34l41 68q16 -221 43 -289q27 -63 115 -92l-27 270l39 88l35 -368 q106 -12 194 -12q213 0 363 81q29 78 38 78t9 -22t-8 -47q78 -72 120 -72q53 0 86 88l-26 330q-152 -6 -180 151h-4l-15 -51q-25 -82 -69 -96l4 -4q143 8 143 -80q0 -61 -51 -94q-176 -121 -328 -121q-94 0 -151 48t-57 127t32 144q-55 14 -78 88h-4q-31 -104 -113 -104 q-100 0 -96 158l-55 -50q-14 -14 -97 -14t-83 37q0 25 26 67t51 52l156 76v20l35 74l8 -246q2 -86 66 -86q30 0 60 22t34 46l-33 233l37 80l57 -330q19 -43 67 -43t48 27q0 51 -33 151l-20 66q-4 12 -10 35t-11 32l27 68q82 -248 82 -309t-21 -103q-20 -57 -51 -57 q-10 0 -18 6q-14 -35 -15 -80q0 -154 187 -153q147 0 291 98q4 4 4 6q0 12 -100 28t-103 17q-25 18 27 82q123 51 131 109q2 2 2 28q0 193 -41 473l34 115q47 -420 81 -530t145 -129l-10 196l43 92l16 -286q57 23 123 73l61 -43q41 -25 80 -30q41 43 141 117t137 73z" />
<glyph unicode="&#x622;" horiz-adv-x="532" arabic-form="final" d="M-155 1448q-22 0 -21 18q0 23 64.5 69t107.5 46t121 -39t116 -29q12 2 54 27q41 20 54 19.5t20.5 -12t-3.5 -23.5q-76 -74 -155 -74q-31 0 -49.5 8t-42 19.5t-50 22.5t-65.5 11t-84 -31.5t-67 -31.5zM532 -90q29 0 29 -38t-46 -38q-30 0 -74 31t-79.5 90t-67.5 125 t-58 160t-46 170q-50 193 -92.5 473t-42.5 359t45 79q57 0 81 -210q5 -44 10.5 -105.5t8.5 -91t8 -74.5t17.5 -136.5t26.5 -169.5t34 -174q33 -164 98.5 -307t147.5 -143z" />
<glyph unicode="&#x623;" horiz-adv-x="538" arabic-form="final" d="M205 1542q0 16 -22 30.5t-76 14.5t-82 8q-68 27 5 106t142 96t70 -32q0 -30 -37 -10t-99.5 -28t-62.5 -91q1 -20 67 -20q126 0 126 -70q0 -51 -52.5 -88t-91.5 -37t-59.5 16.5t-20.5 34t9.5 31t21.5 13.5h6l-6 -35q0 -20 30 -20.5t81 24t51 57.5zM529.5 -166 q-37.5 0 -82 31t-80 90t-67.5 125t-58 160t-46 170q-50 193 -92.5 473t-42.5 359t45 79t64 -101t26 -188.5t10 -117t8 -74.5t17.5 -136.5t26.5 -169.5t34 -174q33 -164 98.5 -307t148.5 -143q29 0 28.5 -38t-38 -38z" />
<glyph unicode="&#x624;" horiz-adv-x="909" arabic-form="final" d="M357 1077q44 0 116 35t72 82q0 27 -25 41q-35 25 -112.5 23.5t-118.5 11.5q-88 35 -7 134t193 146q115 39 123 -37q0 -39 -52 -12t-142.5 -41.5t-90.5 -130.5q1 -31 139 -31q52 0 95 -23.5t43 -72.5q0 -74 -76 -127t-149 -53q-37 0 -65 22.5t-28 48t14.5 45t30.5 19.5h9 l-13 -51q0 -29 44 -29zM229 575l11 -10q10 -12 12 -80q6 -147 110.5 -410t231.5 -159q76 61 75 215t-50.5 299t-108.5 217q-125 154 -201 90q-59 -47 -73 -162h-7zM909 -166q-63 0 -112 33q-8 -231 -111 -326q-41 -39 -118 -56t-68 34q2 18 20.5 27.5t34.5 5t31 2.5 q172 61 139 389q-18 -41 -47 -70q-76 -74 -174 -51q-213 45 -348 471q0 2 -7.5 25.5t-10.5 35t-9 38t-7 42.5q-1 14 -3 38q-3 30 11 67.5t52 46.5q-23 33 9 108.5t69 104.5q133 109 270 -19q4 51 40 61.5t65 -44.5q27 -59 79 -275t74 -467q8 -72 25 -96q33 -49 96 -49 q29 0 29 -39q0 -14 -8.5 -25.5t-20.5 -11.5z" />
<glyph unicode="&#x625;" horiz-adv-x="532" arabic-form="final" d="M459 -610q31 0 81 24.5t50 57.5q0 16 -22 30t-76 14.5t-82 8.5q-68 27 5 105.5t142 96t70 -31.5q0 -28 -37 -9t-99.5 -29t-62.5 -91q0 -21 66 -21q126 0 127 -69q0 -51 -52.5 -88t-91.5 -37t-58.5 15.5t-19.5 33.5t9.5 31.5t21.5 13.5h6l-8 -35q0 -20 31 -20zM532 -90 q29 0 29 -38t-46 -38q-30 0 -74 31t-79.5 90t-67.5 125t-58 160t-46 170q-50 193 -92.5 473t-42.5 359t45 79q57 0 81 -210q5 -44 10.5 -105.5t8.5 -91t8 -74.5t17.5 -136.5t26.5 -169.5t34 -174q33 -164 98.5 -307t147.5 -143z" />
<glyph unicode="&#x626;" horiz-adv-x="1452" arabic-form="final" d="M444 268q0 27 -24 41q-35 25 -113 24t-119 11q-88 35 -7 134t194 147q115 39 123 -37q0 -40 -52 -13t-142.5 -41.5t-90.5 -130.5q0 -30 138 -30q52 0 95 -23.5t43 -73.5q0 -74 -75.5 -127t-149.5 -53q-37 0 -64.5 22.5t-27.5 48t14.5 45t30.5 19.5h8l-12 -51 q0 -29 44 -28.5t115.5 35t71.5 81.5zM1450 -90q29 0 29 -39q0 -14 -8.5 -25.5t-18.5 -11.5h-181q-185 0 -263 -12q-214 -32 -272 -72q-20 -14 -15 -26q14 -45 171.5 -82.5t463.5 -49.5q102 -4 110.5 -44t-98.5 -117q-209 -147 -419 -206t-472 -32q-178 17 -307 115 q-216 162 -114 426q40 106 110 166q14 12 31 20q61 33 89 10t-55 -73q-70 -53 -106.5 -136t-18.5 -177t119 -168t230 -93q221 -33 435 31.5t462 200.5q-59 10 -238.5 21t-289 40t-157 96t-17.5 111.5t86 64.5q170 62 435 62h279z" />
<glyph unicode="&#x626;" horiz-adv-x="323" arabic-form="initial" d="M238 1034q0 27 -25 41q-35 25 -112.5 24t-118.5 11q-88 35 -7 134t193 147q115 39 123 -37q0 -40 -52 -13t-142.5 -41.5t-90.5 -130.5q0 -30 138 -30q52 0 95.5 -23.5t43.5 -73.5q0 -74 -76 -127t-150 -53q-37 0 -64.5 22.5t-27.5 48t14.5 45t30.5 19.5h8l-12 -51 q0 -29 44 -28.5t116 35t72 81.5zM0 -166q-12 0 -20.5 11.5t-8.5 25.5q0 39 29 39q76 0 107.5 66.5t23.5 170t-27.5 206t-41 200.5t-21.5 127q0 63 55 63q68 0 109 -227q18 -98 24.5 -215t-4 -188.5t-33 -137t-71.5 -103.5t-121 -38z" />
<glyph unicode="&#x626;" horiz-adv-x="358" arabic-form="medial" d="M238 1038q0 27 -25 41q-35 25 -112.5 24t-118.5 11q-88 35 -7 134t193 147q115 39 123 -37q0 -40 -52 -13t-142.5 -41.5t-90.5 -129.5q0 -31 138 -31q52 0 95.5 -23.5t43.5 -72.5q0 -74 -76 -127.5t-150 -53.5q-37 0 -64.5 22.5t-27.5 47t14.5 45t30.5 20.5h8l-12 -51 q0 -29 44 -28.5t116 35t72 81.5zM358 -166q-121 0 -180 111q-59 -111 -178 -111q-12 0 -20.5 11.5t-8.5 25.5q0 39 29 39q76 0 108.5 66.5t24.5 171t-27.5 207t-42 199.5t-22.5 126q0 63 57 63t82 -86t27 -208.5t5 -244.5t38 -208t108 -86q29 0 29 -39q0 -14 -8.5 -25.5 t-20.5 -11.5z" />
<glyph unicode="&#x627;" horiz-adv-x="532" arabic-form="final" d="M532 -90q29 0 29 -38t-46 -38q-30 0 -74 31t-79.5 90t-67.5 125t-58 160t-46 170q-50 193 -92.5 473t-42.5 359t45 79q57 0 81 -210q5 -44 10.5 -105.5t8.5 -91t8 -74.5t17.5 -136.5t26.5 -169.5t34 -174q33 -164 98.5 -307t147.5 -143z" />
<glyph unicode="&#x628;" horiz-adv-x="1638" arabic-form="final" d="M799 -518q-31 0 -64 22q-31 25 -30 58q0 66 67 65q100 0 100 -55q1 -90 -73 -90zM1638 -90q29 0 29 -39q0 -14 -8 -25.5t-21 -11.5q-121 6 -178 113q-25 -47 -65 -80q-117 -83 -355 -111q-236 -28 -384 -16t-302 64t-265.5 170t-82.5 282q20 119 107.5 223.5t191.5 112.5 q39 4 46 -22.5t-27 -43.5q-104 -39 -172 -114.5t-66 -182.5q0 -227 283 -338q109 -41 301 -61t398 4.5t294 102.5q47 43 51 155.5t-18.5 222t-47 223t-24.5 142.5q0 63 52 63t79 -61t29 -154.5t6 -201t11 -200.5t41 -154.5t97 -61.5z" />
<glyph unicode="&#x628;" horiz-adv-x="325" arabic-form="initial" d="M96 -385q-31 0 -63 23q-31 25 -31 57q0 66 68 65q100 0 100 -55q0 -90 -74 -90zM0 -166q-12 0 -20.5 11.5t-8.5 25.5q0 39 29 39q76 0 107.5 66.5t23.5 170t-27.5 206t-41 200.5t-21.5 127q0 63 55 63q68 0 109 -227q18 -98 24.5 -215t-4 -188.5t-33 -137t-71.5 -103.5 t-121 -38z" />
<glyph unicode="&#x628;" horiz-adv-x="358" arabic-form="medial" d="M188 -385q-31 0 -63 23q-31 25 -31 57q0 66 68 65q100 0 100 -55q0 -90 -74 -90zM358 -166q-121 0 -180 111q-59 -111 -178 -111q-12 0 -20.5 11.5t-8.5 25.5q0 39 29 39q76 0 108.5 66.5t24.5 171t-27.5 207t-42 199.5t-22.5 126q0 63 57 63t82 -86t27 -207.5t5 -244.5 t38 -209t108 -86q29 0 29 -39q0 -14 -8.5 -25.5t-20.5 -11.5z" />
<glyph unicode="&#x629;" horiz-adv-x="741" arabic-form="final" d="M344 948q-29 0 -63 23q-31 25 -31 57q0 66 67 66q100 0 101 -56q0 -90 -74 -90zM154 948q-29 0 -62 25t-33 55q0 66 68 66q102 0 102 -56q1 -90 -75 -90zM391 653q-2 0 -6 -2q-63 94 -139 111q-95 20 -135 -174q-20 -92 3 -243.5t94 -288t167 -156.5q113 -23 131 129 q20 176 -68 463q-14 51 -33 91q-19 41 -14 70zM741 -166q-117 0 -176 109q-25 -47 -65 -84q-80 -66 -181 -35q-143 43 -240 280.5t-74.5 468.5t163.5 265q43 10 90 1t111.5 -61.5t58.5 -91.5q25 4 41 -2q-18 172 18 168q79 -4 91 -100q8 -68 1.5 -149t-6.5 -97 q4 -14 8.5 -37t6.5 -31q35 -186 22 -321q0 -207 131 -207q29 0 29 -39q0 -14 -8.5 -25.5t-20.5 -11.5z" />
<glyph unicode="&#x62a;" horiz-adv-x="1638" arabic-form="final" d="M924 756q-29 0 -64 22q-31 25 -31 58q0 66 68 65q100 0 100 -55q1 -90 -73 -90zM733 756q-29 0 -61 22q-33 27 -33 58q0 66 68 65q102 0 102 -55q0 -90 -76 -90zM1638 -90q29 0 29 -39q0 -14 -8 -25.5t-21 -11.5q-121 6 -178 113q-25 -47 -65 -80q-117 -83 -355 -111 q-236 -28 -384 -16t-302 64t-265.5 170t-82.5 282q20 119 107.5 223.5t191.5 112.5q39 4 46 -22.5t-27 -43.5q-104 -39 -172 -114.5t-66 -182.5q0 -227 283 -338q109 -41 301 -61t398 4.5t294 102.5q47 43 51 155.5t-18.5 222t-47 223t-24.5 142.5q0 63 52 63t79 -61 t29 -154.5t6 -201t11 -200.5t41 -154.5t97 -61.5z" />
<glyph unicode="&#x62a;" horiz-adv-x="331" arabic-form="initial" d="M211 874q-29 0 -64 23q-31 25 -30 57q0 66 67 66q100 0 101 -55q0 -91 -74 -91zM20 874q-29 0 -61.5 25t-32.5 55q0 66 68 66q102 0 102 -55q0 -91 -76 -91zM0 -166q-12 0 -20.5 11.5t-8.5 25.5q0 39 29 39q76 0 107.5 66.5t23.5 170t-27.5 206t-41 200.5t-21.5 127 q0 63 55 63q68 0 109 -227q18 -98 24.5 -215t-4 -188.5t-33 -137t-71.5 -103.5t-121 -38z" />
<glyph unicode="&#x62a;" horiz-adv-x="358" arabic-form="medial" d="M227 874q-29 0 -63 23q-31 25 -31 57q0 66 68 66q100 0 100 -55q0 -91 -74 -91zM37 874q-29 0 -62 25t-32 55q0 66 67 66q102 0 103 -55q0 -91 -76 -91zM358 -166q-121 0 -180 111q-59 -111 -178 -111q-12 0 -20.5 11.5t-8.5 25.5q0 39 29 39q76 0 108.5 66.5t24.5 171 t-27.5 207t-42 199.5t-22.5 126q0 63 57 63t82 -86t27 -207.5t5 -244.5t38 -209t108 -86q29 0 29 -39q0 -14 -8.5 -25.5t-20.5 -11.5z" />
<glyph unicode="&#x62b;" horiz-adv-x="1638" arabic-form="final" d="M899 680q-31 0 -63 22q-31 25 -31 58q0 66 67 65q100 0 101 -55q0 -90 -74 -90zM715 680q-29 0 -62 22q-33 27 -32 58q0 66 67 65q102 0 103 -55q0 -90 -76 -90zM799 874q-29 0 -62 25t-32 55q0 66 67 66q102 0 102 -55q1 -91 -75 -91zM1638 -90q29 0 29 -39 q0 -14 -8 -25.5t-21 -11.5q-121 6 -178 113q-25 -47 -65 -80q-117 -83 -355 -111q-236 -28 -384 -16t-302 64t-265.5 170t-82.5 282q20 119 107.5 223.5t191.5 112.5q39 4 46 -22.5t-27 -43.5q-104 -39 -172 -114.5t-66 -182.5q0 -227 283 -338q109 -41 301 -61t398 4.5 t294 102.5q47 43 51 155.5t-18.5 222t-47 223t-24.5 142.5q0 63 52 63t79 -61t29 -154.5t6 -201t11 -200.5t41 -154.5t97 -61.5z" />
<glyph unicode="&#x62b;" horiz-adv-x="331" arabic-form="initial" d="M195 829q-31 0 -64 23q-31 25 -31 57q0 66 68 66q100 0 100 -55q1 -91 -73 -91zM10 829q-29 0 -61.5 25t-32.5 55q0 66 68 66q102 0 102 -55q0 -91 -76 -91zM94 1024q-29 0 -61.5 25t-32.5 55q0 66 68 65q102 0 102 -55q0 -90 -76 -90zM0 -166q-12 0 -20.5 11.5 t-8.5 25.5q0 39 29 39q76 0 107.5 66.5t23.5 170t-27.5 206t-41 200.5t-21.5 127q0 63 55 63q68 0 109 -227q18 -98 24.5 -215t-4 -188.5t-33 -137t-71.5 -103.5t-121 -38z" />
<glyph unicode="&#x62b;" horiz-adv-x="358" arabic-form="medial" d="M205 823q-31 0 -64 23q-31 25 -30 57q0 66 67 66q100 0 101 -56q0 -90 -74 -90zM20 823q-30 0 -62 25t-32 55q0 66 68 66q102 0 102 -56q0 -90 -76 -90zM104 1018q-29 0 -61 22q-33 27 -33 58q0 66 68 65q102 0 102 -55q0 -90 -76 -90zM358 -166q-121 0 -180 111 q-59 -111 -178 -111q-12 0 -20.5 11.5t-8.5 25.5q0 39 29 39q76 0 108.5 66.5t24.5 171t-27.5 207t-42 199.5t-22.5 126q0 63 57 63t82 -86t27 -207.5t5 -244.5t38 -209t108 -86q29 0 29 -39q0 -14 -8.5 -25.5t-20.5 -11.5z" />
<glyph unicode="&#x62c;" horiz-adv-x="1325" arabic-form="final" d="M590 -451q-31 0 -64 23q-31 25 -30 57q0 66 67 66q100 0 101 -55q0 -91 -74 -91zM578.5 -41q-6.5 0 -31.5 -8q-219 -76 -301 -129q-139 -92 -140 -215q0 -94 79 -164q152 -134 460 -143q203 0 380 66.5t177 152.5q0 35 -42 65q-18 13 -32 17q-34 10 -34 37q0 10 10 19 t26 9q76 0 124.5 -57.5t48.5 -106.5q0 -74 -96.5 -145.5t-246 -114.5t-310.5 -43t-310.5 51.5t-244.5 144.5t-95 208q0 151 142 251q76 54 134 90t205 86t222 70q423 116 423 172q0 82 -101 171t-238.5 152.5t-274.5 104.5t-213 41q-154 0 -154 -123q0 -37 45.5 -128 t45.5 -101q0 -51 -64 -51q-35 0 -73 103.5t-38 152.5q0 109 72 180.5t170 71.5t252 -50.5t304.5 -126t260 -177t109.5 -181.5t-66.5 -135t-143.5 -80.5t-184.5 -55.5t-144.5 -46q92 -84 395 -84h240q29 0 29 -39q0 -14 -8.5 -25.5t-20.5 -11.5l-328 -2q-221 0 -342 82 q-70 45 -76.5 45z" />
<glyph unicode="&#x62c;" horiz-adv-x="1400" arabic-form="initial" d="M795 -387q-31 0 -64 22q-31 25 -31 58q0 66 68 65q100 0 100 -55q1 -90 -73 -90zM389 741q-154 0 -153 -123q0 -37 45 -128t45 -101q0 -51 -64 -51q-35 0 -72.5 102.5t-37.5 153.5q0 109 70.5 180.5t168.5 71.5t252 -50.5t304.5 -126t261 -177t110.5 -191.5t-104.5 -169 t-255 -128t-414.5 -101t-545 -69q-12 0 -20.5 11.5t-8.5 25.5q0 39 29 39q334 32 698 108q206 43 351 111t168 143q-6 109 -174.5 223.5t-358.5 180t-295 65.5z" />
<glyph unicode="&#x62c;" horiz-adv-x="1374" arabic-form="medial" d="M795 -387q-31 0 -64 22q-31 25 -31 58q0 66 68 65q100 0 100 -55q1 -90 -73 -90zM-29 -129q0 39 29 39q381 39 775 187.5t394 174.5q0 82 -101 171t-239.5 152.5t-274.5 104.5t-212 41q-154 0 -154 -123q0 -37 45.5 -128t45.5 -101q0 -51 -64 -51q-35 0 -73 103.5 t-38 152.5q0 109 71 180.5t169 71.5t252 -50.5t304.5 -126t261 -177t110.5 -181.5t-66.5 -135t-143.5 -80.5t-184.5 -55.5t-144.5 -46q90 -84 395 -84h246q29 0 29 -39q0 -14 -8.5 -25.5t-23.5 -11.5h-50q-170 0 -261 4t-220 33t-219 88q-113 -39 -171.5 -56.5t-183.5 -40 t-266 -28.5q-12 0 -20.5 11.5t-8.5 25.5z" />
<glyph unicode="&#x62d;" horiz-adv-x="1325" arabic-form="final" d="M578.5 -41q-6.5 0 -31.5 -8q-219 -76 -301 -129q-139 -92 -140 -215q0 -94 79 -164q152 -134 460 -143q203 0 380 66.5t177 152.5q0 35 -42 65q-18 13 -32 17q-34 10 -34 37q0 10 10 19t26 9q76 0 124.5 -57.5t48.5 -106.5q0 -74 -96.5 -145.5t-246 -114.5t-310.5 -43 t-310.5 51.5t-244.5 144.5t-95 208q0 151 142 251q76 54 134 90t205 86t222 70q423 116 423 172q0 82 -101 171t-238.5 152.5t-274.5 104.5t-213 41q-154 0 -154 -123q0 -37 45.5 -128t45.5 -101q0 -51 -64 -51q-35 0 -73 103.5t-38 152.5q0 109 72 180.5t170 71.5 t252 -50.5t304.5 -126t260 -177t109.5 -181.5t-66.5 -135t-143.5 -80.5t-184.5 -55.5t-144.5 -46q92 -84 395 -84h240q29 0 29 -39q0 -14 -8.5 -25.5t-20.5 -11.5l-328 -2q-221 0 -342 82q-70 45 -76.5 45z" />
<glyph unicode="&#x62d;" horiz-adv-x="1396" arabic-form="initial" d="M389 741q-154 0 -153 -123q0 -37 45 -128t45 -101q0 -51 -64 -51q-35 0 -72.5 102.5t-37.5 153.5q0 109 70.5 180.5t168.5 71.5t252 -50.5t304.5 -126t261 -177t110.5 -191.5t-104.5 -169t-255 -128t-414.5 -101t-545 -69q-12 0 -20.5 11.5t-8.5 25.5q0 39 29 39 q334 32 698 108q206 43 351 111t168 143q-6 109 -174.5 223.5t-358.5 180t-295 65.5z" />
<glyph unicode="&#x62d;" horiz-adv-x="1374" arabic-form="medial" d="M-29 -129q0 39 29 39q381 39 775 187.5t394 174.5q0 82 -101 171t-239.5 152.5t-274.5 104.5t-212 41q-154 0 -154 -123q0 -37 45.5 -128t45.5 -101q0 -51 -64 -51q-35 0 -73 103.5t-38 152.5q0 109 71 180.5t169 71.5t252 -50.5t304.5 -126t261 -177t110.5 -181.5 t-66.5 -135t-143.5 -80.5t-184.5 -55.5t-144.5 -46q90 -84 395 -84h246q29 0 29 -39q0 -14 -8.5 -25.5t-23.5 -11.5h-50q-170 0 -261 4t-220 33t-219 88q-113 -39 -171.5 -56.5t-183.5 -40t-266 -28.5q-12 0 -20.5 11.5t-8.5 25.5z" />
<glyph unicode="&#x62e;" horiz-adv-x="1325" arabic-form="final" d="M440 946q-31 0 -63 23q-31 25 -31 57q0 66 68 66q100 0 100 -56q0 -90 -74 -90zM578.5 -41q-6.5 0 -31.5 -8q-219 -76 -301 -129q-139 -92 -140 -215q0 -94 79 -164q152 -134 460 -143q203 0 380 66.5t177 152.5q0 35 -42 65q-18 13 -32 17q-34 10 -34 37q0 10 10 19 t26 9q76 0 124.5 -57.5t48.5 -106.5q0 -74 -96.5 -145.5t-246 -114.5t-310.5 -43t-310.5 51.5t-244.5 144.5t-95 208q0 151 142 251q76 54 134 90t205 86t222 70q423 116 423 172q0 82 -101 171t-238.5 152.5t-274.5 104.5t-213 41q-154 0 -154 -123q0 -37 45.5 -128 t45.5 -101q0 -51 -64 -51q-35 0 -73 103.5t-38 152.5q0 109 72 180.5t170 71.5t252 -50.5t304.5 -126t260 -177t109.5 -181.5t-66.5 -135t-143.5 -80.5t-184.5 -55.5t-144.5 -46q92 -84 395 -84h240q29 0 29 -39q0 -14 -8.5 -25.5t-20.5 -11.5l-328 -2q-221 0 -342 82 q-70 45 -76.5 45z" />
<glyph unicode="&#x62e;" horiz-adv-x="1394" arabic-form="initial" d="M795 946q-31 0 -64 23q-31 25 -31 57q0 66 68 66q100 0 100 -56q1 -90 -73 -90zM389 741q-154 0 -153 -123q0 -37 45 -128t45 -101q0 -51 -64 -51q-35 0 -72.5 102.5t-37.5 153.5q0 109 70.5 180.5t168.5 71.5t252 -50.5t304.5 -126t261 -177t110.5 -191.5t-104.5 -169 t-255 -128t-414.5 -101t-545 -69q-12 0 -20.5 11.5t-8.5 25.5q0 39 29 39q334 32 698 108q206 43 351 111t168 143q-6 109 -174.5 223.5t-358.5 180t-295 65.5z" />
<glyph unicode="&#x62e;" horiz-adv-x="1374" arabic-form="medial" d="M758 948q-31 0 -64 23q-31 25 -30 57q0 66 67 66q100 0 100 -56q1 -90 -73 -90zM-29 -129q0 39 29 39q381 39 775 187.5t394 174.5q0 82 -101 171t-239.5 152.5t-274.5 104.5t-212 41q-154 0 -154 -123q0 -37 45.5 -128t45.5 -101q0 -51 -64 -51q-35 0 -73 103.5 t-38 152.5q0 109 71 180.5t169 71.5t252 -50.5t304.5 -126t261 -177t110.5 -181.5t-66.5 -135t-143.5 -80.5t-184.5 -55.5t-144.5 -46q90 -84 395 -84h246q29 0 29 -39q0 -14 -8.5 -25.5t-23.5 -11.5h-50q-170 0 -261 4t-220 33t-219 88q-113 -39 -171.5 -56.5t-183.5 -40 t-266 -28.5q-12 0 -20.5 11.5t-8.5 25.5z" />
<glyph unicode="&#x62f;" horiz-adv-x="1167" arabic-form="final" d="M1167 -166q-172 0 -217 229q-82 -111 -227 -190q-242 -135 -455 -57q-84 31 -106 71q-6 6 -2 17.5t18.5 15.5t24.5 -2l53 -33q184 -66 412 54q227 117 295 299q55 147 -28 277q-141 220 -484 241q-131 12 -241 -16t-118 -21q-49 14 -31 61q8 27 99 43q287 51 561 -51 q178 -66 271 -214t57 -296q-47 -352 118 -352q29 0 29 -39q0 -14 -8.5 -25.5t-20.5 -11.5z" />
<glyph unicode="&#x630;" horiz-adv-x="1167" arabic-form="final" d="M377 948q-31 0 -64 23q-31 25 -30 57q0 66 67 66q100 0 101 -56q0 -90 -74 -90zM1167 -166q-172 0 -217 229q-82 -111 -227 -190q-242 -135 -455 -57q-84 31 -106 71q-6 6 -2 17.5t18.5 15.5t24.5 -2l53 -33q184 -66 412 54q227 117 295 299q55 147 -28 277 q-141 220 -484 241q-131 12 -241 -16t-118 -21q-49 14 -31 61q8 27 99 43q287 51 561 -51q178 -66 271 -214t57 -296q-47 -352 118 -352q29 0 29 -39q0 -14 -8.5 -25.5t-20.5 -11.5z" />
<glyph unicode="&#x631;" horiz-adv-x="409" arabic-form="final" d="M410 -166q-68 0 -113 33q-12 -233 -113 -326q-39 -39 -112 -53q-31 -10 -54.5 -3t-20.5 29t21.5 32t35.5 6t32 2q94 35 127 144t10.5 263t-57.5 297t-80 298t-53 211t31.5 72.5t70.5 -47.5t87 -300t67 -437q4 -68 22 -96q33 -49 99 -49q29 0 28 -39q0 -14 -8 -25.5 t-20 -11.5z" />
<glyph unicode="&#x632;" horiz-adv-x="409" arabic-form="final" d="M86 967q-31 0 -63 22q-31 25 -31 58q0 66 67 65q100 0 101 -55q0 -90 -74 -90zM410 -166q-68 0 -113 33q-12 -233 -113 -326q-39 -39 -112 -53q-31 -10 -54.5 -3t-20.5 29t21.5 32t35.5 6t32 2q94 35 127 144t10.5 263t-57.5 297t-80 298t-53 211t31.5 72.5t70.5 -47.5 t87 -300t67 -437q4 -68 22 -96q33 -49 99 -49q29 0 28 -39q0 -14 -8 -25.5t-20 -11.5z" />
<glyph unicode="&#x633;" horiz-adv-x="2439" arabic-form="final" d="M2158 -225q69 0 74 291v24l-12 232q-8 159 -14 235l-2 29q-25 211 -84 211q-14 0 -36 -22t-31 -21.5t-17 6.5q-20 12 -11 39q6 27 48 45q31 16 57 16q74 0 106 -67q48 -91 54 -511q2 -144 37.5 -258t111.5 -114q29 0 29 -39q0 -14 -8.5 -25.5t-20.5 -11.5q-92 0 -143 62 q-27 -186 -132 -186.5t-212 200.5q-76 139 -117 291q0 2 -14.5 60t-22.5 101q0 -221 -12 -305q-29 -219 -129 -219q-147 0 -328 531q8 -156 8 -158q53 -379 -75 -651q-106 -223 -296 -328.5t-417 -17.5q-229 84 -392 316t-157 478q4 139 63 250q25 51 62 74q8 4 10 4 q-27 41 -16 67q35 98 178 103.5t314 -55t311.5 -126t190.5 -99.5t71 -64q4 -25 8 -37v-10q-8 -23 -52 -19t-93 38t-136.5 82t-204 98.5t-223 80t-192.5 17t-111 -79.5q-8 -20 -8 -30.5t-4 -22.5q-156 -248 27 -596q152 -293 385 -379q168 -61 319.5 18.5t239.5 241.5 q121 221 116 452h2v37q0 332 -30 617q-3 35 -9 70.5t-6 47.5l-2 5q0 51 45 51t58 -43q14 -123 16 -158q35 -209 184 -547q86 -188 134 -188q81 0 84 520l-15 324q0 18 11 34t35 16.5t37 -34.5t11 -61q-4 -121 57.5 -334t117.5 -348q104 -250 173 -250z" />
<glyph unicode="&#x633;" horiz-adv-x="1472" arabic-form="initial" d="M180 -52q-41 -114 -180 -114q-12 0 -20.5 11.5t-8.5 25.5q0 39 29 39q133 0 129 211q-5 347 -39 617q-4 32 -4 44l-2 11q0 51 46 51t54 -43q16 -106 19 -158q31 -197 184 -547q82 -188 131 -188t74 225q12 121 12 295l-16 324q0 14 12 32t36 18.5t36 -30.5t12 -65 q-6 -111 54.5 -329t119.5 -353q104 -250 170 -250q72 0 78 291q12 612 72 727q37 68 108 67q25 0 60.5 -17t43 -44t-7 -36t-23.5 -9t-28.5 21t-36.5 22q-59 0 -84 -211l-2 -13q0 -26 -3.5 -74.5t-8.5 -176.5l-20 -347q-14 -266 -140 -266q-104 0 -211 201q-76 139 -116 291 q-16 57 -37 161q0 -221 -13 -305q-29 -219 -129 -219q-147 0 -327 531q8 -156 8.5 -245t-31.5 -176z" />
<glyph unicode="&#x633;" horiz-adv-x="1312" arabic-form="medial" d="M180 -52q-41 -114 -180 -114q-12 0 -20.5 11.5t-8.5 25.5q0 39 29 39q133 0 129 211q0 309 -39 617q-4 32 -4 44l-2 11q0 51 46 51t54 -43q16 -106 19 -158q31 -197 184 -547q82 -188 131 -188t74 225q12 121 12 295l-16 324q0 14 12 32t36 18.5t36 -30.5t12 -65 q-6 -111 54.5 -329t119.5 -353q104 -250 170 -250q72 0 78 291v24l-14 232q-4 94 -7.5 145t-4.5 73.5t-3 32.5v13q-25 211 -84 211q-16 0 -37 -21q-18 -23 -28 -22.5t-23.5 9.5t-7.5 36q8 27 44 44t60 17q72 0 106 -64t50.5 -169t20.5 -201.5t4 -339.5q10 -176 131 -176 q29 0 28 -39q0 -14 -8 -25.5t-20 -11.5q-90 4 -146 62q-27 -186 -131 -186.5t-211 200.5q-76 139 -116 291q-16 57 -37 161q0 -221 -13 -305q-29 -219 -129 -219q-147 0 -327 531q8 -156 8.5 -245t-31.5 -176z" />
<glyph unicode="&#x634;" horiz-adv-x="2439" arabic-form="final" d="M1868 893q-31 0 -64 22q-31 25 -30 58q0 66 67 65q100 0 101 -55q0 -90 -74 -90zM1683 893q-29 0 -61 22q-33 27 -33 58q0 66 68 65q102 0 102 -55q0 -90 -76 -90zM1767 1087q-29 0 -61.5 25t-32.5 55q0 66 68 66q102 0 102 -55q0 -91 -76 -91zM2158 -225q69 0 74 291v24 l-12 232q-8 159 -14 235l-2 29q-25 211 -84 211q-14 0 -36 -22t-31 -21.5t-17 6.5q-20 12 -11 39q6 27 48 45q31 16 57 16q74 0 106 -67q48 -91 54 -511q2 -144 37.5 -258t111.5 -114q29 0 29 -39q0 -14 -8.5 -25.5t-20.5 -11.5q-92 0 -143 62q-27 -186 -132 -186.5 t-212 200.5q-76 139 -117 291q0 2 -14.5 60t-22.5 101q0 -221 -12 -305q-29 -219 -129 -219q-147 0 -328 531q8 -156 8 -158q53 -379 -75 -651q-106 -223 -296 -328.5t-417 -17.5q-229 84 -392 316t-157 478q4 139 63 250q25 51 62 74q8 4 10 4q-27 41 -16 67 q35 98 178 103.5t314 -55t311.5 -126t190.5 -99.5t71 -64q4 -25 8 -37v-10q-8 -23 -52 -19t-93 38t-136.5 82t-204 98.5t-223 80t-192.5 17t-111 -79.5q-8 -20 -8 -30.5t-4 -22.5q-156 -248 27 -596q152 -293 385 -379q168 -61 319.5 18.5t239.5 241.5q121 221 116 452h2v37 q0 332 -30 617q-3 35 -9 70.5t-6 47.5l-2 5q0 51 45 51t58 -43q14 -123 16 -158q35 -209 184 -547q86 -188 134 -188q81 0 84 520l-15 324q0 18 11 34t35 16.5t37 -34.5t11 -61q-4 -121 57.5 -334t117.5 -348q104 -250 173 -250z" />
<glyph unicode="&#x634;" horiz-adv-x="1486" arabic-form="initial" d="M758 874q-31 0 -64 23q-31 25 -30 57q0 66 67 66q100 0 100 -55q1 -91 -73 -91zM573 874q-29 0 -61.5 25t-32.5 55q0 66 68 66q102 0 102 -55q0 -91 -76 -91zM657 1069q-29 0 -61.5 25t-32.5 55q0 66 68 65q102 0 102 -55q0 -90 -76 -90zM180 -52q-41 -114 -180 -114 q-12 0 -20.5 11.5t-8.5 25.5q0 39 29 39q133 0 129 211q-5 347 -39 617q-4 32 -4 44l-2 11q0 51 46 51t54 -43q16 -106 19 -158q31 -197 184 -547q82 -188 131 -188t74 225q12 121 12 295l-16 324q0 14 12 32t36 18.5t36 -30.5t12 -65q-6 -111 54.5 -329t119.5 -353 q104 -250 170 -250q72 0 78 291q12 612 72 727q37 68 108 67q25 0 60.5 -17t43 -44t-7 -36t-23.5 -9t-28.5 21t-36.5 22q-59 0 -84 -211l-2 -13q0 -26 -3.5 -74.5t-8.5 -176.5l-20 -347q-14 -266 -140 -266q-104 0 -211 201q-76 139 -116 291q-16 57 -37 161 q0 -221 -13 -305q-29 -219 -129 -219q-147 0 -327 531q8 -156 8.5 -245t-31.5 -176z" />
<glyph unicode="&#x634;" horiz-adv-x="1312" arabic-form="medial" d="M729 872q-31 0 -63 23q-31 25 -31 57q0 66 67 66q100 0 101 -55q0 -91 -74 -91zM545 872q-29 0 -62 25t-32 55q0 66 67 66q102 0 103 -55q0 -91 -76 -91zM629 1067q-29 0 -62 25t-32 55q0 66 67 65q102 0 103 -55q0 -90 -76 -90zM180 -52q-41 -114 -180 -114 q-12 0 -20.5 11.5t-8.5 25.5q0 39 29 39q133 0 129 211q0 309 -39 617q-4 32 -4 44l-2 11q0 51 46 51t54 -43q16 -106 19 -158q31 -197 184 -547q82 -188 131 -188t74 225q12 121 12 295l-16 324q0 14 12 32t36 18.5t36 -30.5t12 -65q-6 -111 54.5 -329t119.5 -353 q104 -250 170 -250q72 0 78 291v24l-14 232q-4 94 -7.5 145t-4.5 73.5t-3 32.5v13q-25 211 -84 211q-16 0 -37 -21q-18 -23 -28 -22.5t-23.5 9.5t-7.5 36q8 27 44 44t60 17q72 0 106 -64t50.5 -169t20.5 -201.5t4 -339.5q10 -176 131 -176q29 0 28 -39q0 -14 -8 -25.5 t-20 -11.5q-90 4 -146 62q-27 -186 -131 -186.5t-211 200.5q-76 139 -116 291q-16 57 -37 161q0 -221 -13 -305q-29 -219 -129 -219q-147 0 -327 531q8 -156 8.5 -245t-31.5 -176z" />
<glyph unicode="&#x635;" horiz-adv-x="2582" arabic-form="final" d="M1411 -70q13 0 149 -8q221 -13 436 -4t308 98q106 113 48 252.5t-198.5 263t-295.5 187.5q-206 74 -348 -6q-80 -45 -126 -135q-46 -92 -51 -214q-12 -238 78 -434zM2583 -90q29 0 28 -39q0 -14 -8 -25.5t-20 -11.5q-141 2 -197 150q-156 -176 -624 -162q-66 2 -170.5 7 t-129.5 5q14 -27 61.5 -86t47.5 -74q2 -55 -49 -57q-35 -2 -86 78t-80 143h-13q-25 -156 -83 -278q-106 -223 -295 -328.5t-416 -17.5q-229 84 -392 316t-157 478q4 137 61 250q29 51 64 74q4 4 8 4q-25 45 -16 67q37 98 180 103.5t314 -54.5t311 -126q308 -143 270 -210 q-22 -38 -94 -12q-27 10 -72 42t-165 93.5t-266 120t-266 57.5t-151 -85q-4 -10 -8 -35q2 -8 -4 -18q-154 -246 27 -596q156 -295 385 -379q170 -61 320.5 17.5t236.5 236.5q87 158 109 312t4 278q-36 240 -132 495q-20 63 -26 82q-31 80 2 117t70.5 -19t101.5 -278l12 -49 q72 257 268 320q112 36 220 15.5t221 -77.5q201 -102 342 -270.5t129 -327.5q0 -25 -5 -35q-4 -211 132 -211z" />
<glyph unicode="&#x635;" horiz-adv-x="1456" arabic-form="initial" d="M422 -76q468 -30 650 20q91 24 138 72q106 113 47 252.5t-199 263t-296 187.5q-208 75 -346 -5q-80 -46 -125 -136q-83 -162 -38 -451q7 -45 33.5 -103.5t62.5 -77t73 -22.5zM0 -166q-12 0 -20.5 11.5t-8.5 25.5q0 39 29 39q221 0 63 708q-31 145 -30 175q0 61 55 61 q68 0 109 -227q0 -5 3 -25l5 -33q83 195 245 247q112 36 219 15.5t220 -77.5q201 -102 342 -270.5t129 -327.5q-20 -264 -406 -320q-125 -18 -255 -14t-216 8t-116 4q25 -37 64.5 -88t45.5 -72q2 -55 -49 -57q-50 -3 -154 195q-35 72 -77 172q-56 -150 -197 -150z" />
<glyph unicode="&#x635;" horiz-adv-x="1488" arabic-form="medial" d="M424 -76q466 -28 648 20q91 24 138 72q106 113 48 252.5t-198 263t-296 187.5q-206 74 -348 -6q-226 -127 -162 -586q6 -43 32.5 -102.5t62.5 -78t75 -22.5zM0 -166q-12 0 -20.5 11.5t-8.5 25.5q0 39 29 39q234 0 50 774q-18 74 -17 109q0 61 55 61q68 0 109 -227 q2 -16 10 -58q20 53 57 109q74 102 185.5 138t220 15.5t221.5 -77.5q201 -102 342 -270.5t129 -327.5q-20 -246 127 -246q29 0 29 -39q0 -14 -8.5 -25.5t-20.5 -11.5q-141 0 -197 150q-156 -176 -624 -162q-66 2 -170.5 7t-128.5 5q14 -27 61 -86t47 -74q2 -55 -49 -57 q-35 -2 -86 80q-63 91 -145 287q-56 -150 -197 -150z" />
<glyph unicode="&#x636;" horiz-adv-x="2582" arabic-form="final" d="M1690 946q-31 0 -64 23q-31 25 -31 57q0 66 68 66q100 0 100 -56q1 -90 -73 -90zM1411 -70q13 0 149 -8q221 -13 436 -4t308 98q106 113 48 252.5t-198.5 263t-295.5 187.5q-206 74 -348 -6q-80 -45 -126 -135q-46 -92 -51 -214q-12 -238 78 -434zM2583 -90q29 0 28 -39 q0 -14 -8 -25.5t-20 -11.5q-141 2 -197 150q-156 -176 -624 -162q-66 2 -170.5 7t-129.5 5q14 -27 61.5 -86t47.5 -74q2 -55 -49 -57q-35 -2 -86 78t-80 143h-13q-25 -156 -83 -278q-106 -223 -295 -328.5t-416 -17.5q-229 84 -392 316t-157 478q4 137 61 250q29 51 64 74 q4 4 8 4q-25 45 -16 67q37 98 180 103.5t314 -54.5t311 -126q308 -143 270 -210q-22 -38 -94 -12q-27 10 -72 42t-165 93.5t-266 120t-266 57.5t-151 -85q-4 -10 -8 -35q2 -8 -4 -18q-154 -246 27 -596q156 -295 385 -379q170 -61 320.5 17.5t236.5 236.5q87 158 109 312 t4 278q-36 240 -132 495q-20 63 -26 82q-31 80 2 117t70.5 -19t101.5 -278l12 -49q72 257 268 320q112 36 220 15.5t221 -77.5q201 -102 342 -270.5t129 -327.5q0 -25 -5 -35q-4 -211 132 -211z" />
<glyph unicode="&#x636;" horiz-adv-x="1454" arabic-form="initial" d="M541 946q-31 0 -64 23q-31 25 -31 57q0 66 68 66q100 0 100 -56q1 -90 -73 -90zM422 -76q468 -30 650 20q91 24 138 72q106 113 47 252.5t-199 263t-296 187.5q-208 75 -346 -5q-80 -46 -125 -136q-83 -162 -38 -451q7 -45 33.5 -103.5t62.5 -77t73 -22.5zM0 -166 q-12 0 -20.5 11.5t-8.5 25.5q0 39 29 39q221 0 63 708q-31 145 -30 175q0 61 55 61q68 0 109 -227q0 -5 3 -25l5 -33q83 195 245 247q112 36 219 15.5t220 -77.5q201 -102 342 -270.5t129 -327.5q-20 -264 -406 -320q-125 -18 -255 -14t-216 8t-116 4q25 -37 64.5 -88 t45.5 -72q2 -55 -49 -57q-50 -3 -154 195q-35 72 -77 172q-56 -150 -197 -150z" />
<glyph unicode="&#x636;" horiz-adv-x="1488" arabic-form="medial" d="M530 950q-31 0 -63 23q-31 25 -31 57q0 66 68 66q100 0 100 -56q0 -90 -74 -90zM424 -76q466 -28 648 20q91 24 138 72q106 113 48 252.5t-198 263t-296 187.5q-206 74 -348 -6q-226 -127 -162 -586q6 -43 32.5 -102.5t62.5 -78t75 -22.5zM0 -166q-12 0 -20.5 11.5 t-8.5 25.5q0 39 29 39q234 0 50 774q-18 74 -17 109q0 61 55 61q68 0 109 -227q2 -16 10 -58q20 53 57 109q74 102 185.5 138t220 15.5t221.5 -77.5q201 -102 342 -270.5t129 -327.5q-20 -246 127 -246q29 0 29 -39q0 -14 -8.5 -25.5t-20.5 -11.5q-141 0 -197 150 q-156 -176 -624 -162q-66 2 -170.5 7t-128.5 5q14 -27 61 -86t47 -74q2 -55 -49 -57q-35 -2 -86 80q-63 91 -145 287q-56 -150 -197 -150z" />
<glyph unicode="&#x637;" horiz-adv-x="1488" arabic-form="final" d="M680 -86q86 0 202 5q237 10 330 99q106 113 48 252.5t-199 262t-295 186.5q-129 61 -267.5 27.5t-205.5 -166.5q-45 -90 -51 -213q-12 -242 77 -437q25 0 150 -8t211 -8zM1489 -166q-137 0 -195 152q-156 -176 -624 -162q-66 2 -170.5 7t-128.5 5q14 -27 61.5 -87 t46.5 -73q4 -55 -49 -59q-33 0 -83 77t-83 144q-111 8 -217 84q-57 41 -29 43q10 2 26 -2t98 -18t79 -6q-197 403 -301 1038q-23 152 -29 229.5t21 106t57.5 -3t34.5 -91.5q13 -201 31 -284q59 -383 125 -623q6 229 106 369q74 102 186 137q199 62 439 -61 q201 -102 351 -281t116 -352q0 -213 131 -213q29 0 29 -39q0 -14 -8.5 -25.5t-20.5 -11.5z" />
<glyph unicode="&#x637;" horiz-adv-x="1447" arabic-form="initial" d="M338 -90q39 0 204 -7t265 -6t225 30.5t189 90.5q106 113 46.5 252.5t-199.5 262t-294 186.5q-129 61 -267 27.5t-206 -166.5q-45 -88 -49 -218q-7 -242 86 -452zM0 -166q-12 0 -20.5 11.5t-8.5 25.5q0 39 29 39h242q-209 428 -314 1067q-23 152 -28 221q-8 115 39 125 q35 8 59 -49q10 -27 13 -67q18 -208 32 -273q59 -383 125 -623q6 229 106 369q74 102 186 137q199 62 439 -61q201 -102 343 -271.5t130 -328.5q-22 -263 -408 -320q-126 -19 -253 -14.5t-216 9.5t-116 5q14 -27 61.5 -87t46.5 -73q4 -55 -49 -59q-33 0 -88 82 q-53 84 -78 135h-272z" />
<glyph unicode="&#x637;" horiz-adv-x="1488" arabic-form="medial" d="M330 -90q39 0 203.5 -7t265 -6t225.5 30.5t188 90.5q106 113 48 252.5t-199 262t-295 186.5q-129 61 -267.5 27.5t-205.5 -166.5q-45 -88 -49 -218q-7 -242 86 -452zM1489 -90q29 0 29 -39q0 -14 -8.5 -25.5t-20.5 -11.5q-137 0 -195 152q-124 -142 -452 -160 q-128 -7 -288.5 0.5t-182.5 7.5q10 -18 59.5 -81.5t48.5 -76.5q4 -55 -49 -59q-33 0 -83 75.5t-81 141.5h-266q-12 0 -20.5 11.5t-8.5 25.5q0 39 29 39h233q-211 436 -313 1067q-23 152 -29 229.5t21 106t57.5 -3t34.5 -95.5l8 -86q10 -102 46 -338.5t104 -478.5 q4 227 104 369q74 102 186 137q199 62 439 -61q201 -102 350.5 -280.5t116.5 -352.5q0 -213 131 -213z" />
<glyph unicode="&#x638;" horiz-adv-x="1488" arabic-form="final" d="M469 948q-31 0 -63 23q-31 25 -31 57q0 66 67 66q100 0 101 -56q0 -90 -74 -90zM680 -86q86 0 202 5q237 10 330 99q106 113 48 252.5t-199 262t-295 186.5q-129 61 -267.5 27.5t-205.5 -166.5q-45 -90 -51 -213q-12 -242 77 -437q25 0 150 -8t211 -8zM1489 -166 q-137 0 -195 152q-156 -176 -624 -162q-66 2 -170.5 7t-128.5 5q14 -27 61.5 -87t46.5 -73q4 -55 -49 -59q-33 0 -83 77t-83 144q-111 8 -217 84q-57 41 -29 43q10 2 26 -2t98 -18t79 -6q-197 403 -301 1038q-23 152 -29 229.5t21 106t57.5 -3t34.5 -91.5q13 -201 31 -284 q59 -383 125 -623q6 229 106 369q74 102 186 137q199 62 439 -61q201 -102 351 -281t116 -352q0 -213 131 -213q29 0 29 -39q0 -14 -8.5 -25.5t-20.5 -11.5z" />
<glyph unicode="&#x638;" horiz-adv-x="1462" arabic-form="initial" d="M444 946q-31 0 -63 23q-31 25 -31 57q0 66 68 66q100 0 100 -56q0 -90 -74 -90zM338 -90q39 0 204 -7t265 -6t225 30.5t189 90.5q106 113 46.5 252.5t-199.5 262t-294 186.5q-129 61 -267 27.5t-206 -166.5q-45 -88 -49 -218q-7 -242 86 -452zM0 -166q-12 0 -20.5 11.5 t-8.5 25.5q0 39 29 39h242q-209 428 -314 1067q-23 152 -28 221q-8 115 39 125q35 8 59 -49q10 -27 13 -67q18 -208 32 -273q59 -383 125 -623q6 229 106 369q74 102 186 137q199 62 439 -61q201 -102 343 -271.5t130 -328.5q-22 -263 -408 -320q-126 -19 -253 -14.5 t-216 9.5t-116 5q14 -27 61.5 -87t46.5 -73q4 -55 -49 -59q-33 0 -88 82q-53 84 -78 135h-272z" />
<glyph unicode="&#x638;" horiz-adv-x="1488" arabic-form="medial" d="M492 948q-31 0 -64 23q-31 25 -31 57q0 66 68 66q100 0 100 -56q1 -90 -73 -90zM330 -90q39 0 203.5 -7t265 -6t225.5 30.5t188 90.5q106 113 48 252.5t-199 262t-295 186.5q-129 61 -267.5 27.5t-205.5 -166.5q-45 -88 -49 -218q-7 -242 86 -452zM1489 -90q29 0 29 -39 q0 -14 -8.5 -25.5t-20.5 -11.5q-137 0 -195 152q-124 -142 -452 -160q-128 -7 -288.5 0.5t-182.5 7.5q10 -18 59.5 -81.5t48.5 -76.5q4 -55 -49 -59q-33 0 -83 75.5t-81 141.5h-266q-12 0 -20.5 11.5t-8.5 25.5q0 39 29 39h233q-211 436 -313 1067q-23 152 -29 229.5t21 106 t57.5 -3t34.5 -95.5l8 -86q10 -102 46 -338.5t104 -478.5q4 227 104 369q74 102 186 137q199 62 439 -61q201 -102 350.5 -280.5t116.5 -352.5q0 -213 131 -213z" />
<glyph unicode="&#x639;" horiz-adv-x="1325" arabic-form="final" d="M1354 -129q0 -14 -8.5 -25.5t-20.5 -11.5q-287 4 -446 49q-157 63 -184 68.5t-36 7.5t-69.5 -40t-192 -80t-198 -84t-91 -123t22.5 -152q18 -29 43 -49q143 -135 418.5 -137.5t443.5 102.5q115 72 74 131l-12 18q-29 23 -54 25q-43 37 -8 61q16 10 59.5 -6t60.5 -31.5 t34 -39.5q78 -119 -107.5 -236t-468.5 -119q-394 -5 -573 246q-72 115 -16 229q37 82 133 154q57 43 198.5 81t194.5 85q-37 16 -145.5 46t-185.5 55.5t-143.5 80.5t-66.5 135t110.5 181.5t261 177t304.5 126t252 50.5t169 -72t71 -180q0 -29 -29 -133q-39 -123 -82 -123 q-63 0 -63 51q0 31 45 101.5t45 127.5q0 123 -154 123q-76 0 -212 -41t-274.5 -104.5t-239.5 -152.5t-101 -171q0 -51 344 -149q43 -12 172 -55l12 -7q39 0 159 112t122 155l-7 28q-6 29 7.5 43.5t34 8t33.5 -33t14 -52.5q0 -88 -224 -275l-18 -18q121 -51 242.5 -81 t320.5 -38q29 0 29 -39z" />
<glyph unicode="&#x639;" horiz-adv-x="1357" arabic-form="initial" d="M0 -166q-12 0 -20.5 11.5t-8.5 25.5q0 39 29 39h492q-201 63 -339.5 170.5t-150.5 222.5q-8 88 100.5 189.5t261 177t310 126t256 50.5t169 -72t70.5 -180q0 -29 -28 -133q-39 -123 -82 -123q-63 0 -64 51q0 31 45 101.5t45 127.5q0 123 -153 123q-104 0 -295 -65.5 t-358.5 -180t-172.5 -223.5q-4 -57 114 -136t290 -132t364.5 -59t337.5 82q27 20 38.5 18t16.5 -41t-55 -82q-62 -43 -134 -59q-150 -33 -306 -33l-190 4h-582z" />
<glyph unicode="&#x639;" horiz-adv-x="1380" arabic-form="medial" d="M258 -166h-258q-12 0 -20.5 11.5t-8.5 25.5q0 39 29 39q291 0 430 15.5t197 68.5q-37 16 -145.5 46t-185.5 55.5t-143.5 80.5t-66.5 135t110.5 181.5t261 177t304 126t252 50.5t169 -72t70.5 -180q0 -29 -28 -133q-41 -123 -82 -123q-63 0 -64 51q0 31 45 101.5t45 127.5 q0 123 -153 123q-76 0 -212 -41t-274.5 -104.5t-240 -152.5t-101.5 -171q0 -51 344 -149q43 -12 173 -55l12 -7q39 0 158.5 112t121.5 155l-6 28q-6 29 7.5 43.5t34 8t33.5 -33t13 -52.5q0 -88 -223 -275l-18 -18q160 -72 275.5 -95.5t266.5 -23.5q29 0 29 -39 q0 -14 -8.5 -25.5t-20.5 -11.5q-219 4 -344 29.5t-297 95.5q-14 2 -80 -45q-119 -80 -401 -80z" />
<glyph unicode="&#x63a;" horiz-adv-x="1325" arabic-form="final" d="M528 879q-31 0 -63 22q-31 25 -31 57q0 66 68 66q100 0 100 -55q0 -90 -74 -90zM1354 -129q0 -14 -8.5 -25.5t-20.5 -11.5q-287 4 -446 49q-157 63 -184 68.5t-36 7.5t-69.5 -40t-192 -80t-198 -84t-91 -123t22.5 -152q18 -29 43 -49q143 -135 418.5 -137.5t443.5 102.5 q115 72 74 131l-12 18q-29 23 -54 25q-43 37 -8 61q16 10 59.5 -6t60.5 -31.5t34 -39.5q78 -119 -107.5 -236t-468.5 -119q-394 -5 -573 246q-72 115 -16 229q37 82 133 154q57 43 198.5 81t194.5 85q-37 16 -145.5 46t-185.5 55.5t-143.5 80.5t-66.5 135t110.5 181.5 t261 177t304.5 126t252 50.5t169 -72t71 -180q0 -29 -29 -133q-39 -123 -82 -123q-63 0 -63 51q0 31 45 101.5t45 127.5q0 123 -154 123q-76 0 -212 -41t-274.5 -104.5t-239.5 -152.5t-101 -171q0 -51 344 -149q43 -12 172 -55l12 -7q39 0 159 112t122 155l-7 28 q-6 29 7.5 43.5t34 8t33.5 -33t14 -52.5q0 -88 -224 -275l-18 -18q121 -51 242.5 -81t320.5 -38q29 0 29 -39z" />
<glyph unicode="&#x63a;" horiz-adv-x="1353" arabic-form="initial" d="M887 950q-31 0 -64 23q-31 25 -30 57q0 66 67 66q100 0 101 -56q0 -90 -74 -90zM0 -166q-12 0 -20.5 11.5t-8.5 25.5q0 39 29 39h492q-201 63 -339.5 170.5t-150.5 222.5q-8 88 100.5 189.5t261 177t310 126t256 50.5t169 -72t70.5 -180q0 -29 -28 -133 q-39 -123 -82 -123q-63 0 -64 51q0 31 45 101.5t45 127.5q0 123 -153 123q-104 0 -295 -65.5t-358.5 -180t-172.5 -223.5q-4 -57 114 -136t290 -132t364.5 -59t337.5 82q27 20 38.5 18t16.5 -41t-55 -82q-62 -43 -134 -59q-150 -33 -306 -33l-190 4h-582z" />
<glyph unicode="&#x63a;" horiz-adv-x="1380" arabic-form="medial" d="M713 877q-31 0 -64 22q-31 25 -31 57q0 66 68 66q100 0 100 -55q1 -90 -73 -90zM258 -166h-258q-12 0 -20.5 11.5t-8.5 25.5q0 39 29 39q291 0 430 15.5t197 68.5q-37 16 -145.5 46t-185.5 55.5t-143.5 80.5t-66.5 135t110.5 181.5t261 177t304 126t252 50.5t169 -72 t70.5 -180q0 -29 -28 -133q-41 -123 -82 -123q-63 0 -64 51q0 31 45 101.5t45 127.5q0 123 -153 123q-76 0 -212 -41t-274.5 -104.5t-240 -152.5t-101.5 -171q0 -51 344 -149q43 -12 173 -55l12 -7q39 0 158.5 112t121.5 155l-6 28q-6 29 7.5 43.5t34 8t33.5 -33t13 -52.5 q0 -88 -223 -275l-18 -18q160 -72 275.5 -95.5t266.5 -23.5q29 0 29 -39q0 -14 -8.5 -25.5t-20.5 -11.5q-219 4 -344 29.5t-297 95.5q-14 2 -80 -45q-119 -80 -401 -80z" />
<glyph unicode="&#x641;" horiz-adv-x="1671" arabic-form="final" d="M838 877q-31 0 -64 22q-31 25 -31 57q0 66 68 66q100 0 100 -55q1 -90 -73 -90zM956 592l11 -10q8 -12 12 -80q6 -147 110.5 -410.5t231.5 -159.5q76 63 75 216t-50.5 298.5t-108.5 219.5q-127 152 -201 90q-59 -49 -73 -164h-7zM1671 -166h-340q-179 -96 -522 -100 q-156 -2 -310.5 29.5t-273.5 90t-181 164t-40 233.5t108.5 231.5t192.5 113.5q39 4 46 -23.5t-27 -42.5q-104 -39 -172 -115.5t-66 -181.5q0 -229 283 -337q115 -45 357.5 -62.5t453.5 23.5q-182 82 -297 454q-84 260 26 293q-25 33 8 108.5t70 102.5q150 123 301 -47 q131 -150 185.5 -421.5t-37.5 -416.5q-6 -10 -15 -20h250q29 0 29 -39q0 -14 -8.5 -25.5t-20.5 -11.5z" />
<glyph unicode="&#x641;" horiz-adv-x="808" arabic-form="initial" d="M186 592h7q14 115 73 164q74 61 201 -90q59 -74 108.5 -219.5t50.5 -298t-75 -216.5q-31 -25 -59 -26q-121 -8 -224 338q-55 186 -59 256t-12 82zM0 -166q-12 0 -20.5 11.5t-8.5 25.5q0 39 29 39h330q-131 119 -217 401l379 -477h-492zM276 946q-31 0 -63 23 q-31 25 -31 57q0 66 68 66q100 0 100 -56q0 -90 -74 -90z" />
<glyph unicode="&#x641;" horiz-adv-x="882" arabic-form="medial" d="M240 592q17 -9 21.5 -85.5t60.5 -262.5q102 -352 225 -340q29 6 57 28q76 63 75 216t-50 298.5t-109 219.5q-127 152 -201 90q-59 -49 -73 -164h-6zM883 -90q29 0 28 -39q0 -14 -8 -25.5t-20 -11.5h-883q-29 0 -29 39q0 14 9 26l28 11h375q-129 117 -215 389t25 305 q-25 33 7.5 108.5t67.5 102.5q150 123 301 -47q133 -150 190 -434.5t-54 -423.5h178zM375 946q-31 0 -64 23q-31 25 -30 57q0 66 67 66q100 0 101 -56q0 -90 -74 -90z" />
<glyph unicode="&#x642;" horiz-adv-x="1480" arabic-form="final" d="M492 877q-29 0 -64 22q-31 25 -31 57q0 66 68 66q100 0 100 -55q1 -90 -73 -90zM301 877q-29 0 -61 22q-33 27 -33 57q0 66 67 66q102 0 103 -55q0 -90 -76 -90zM786 592q21 -17 23 -102.5t65 -278.5q102 -317 222 -305q29 6 55 26q80 76 76 219.5t-53.5 292 t-108.5 222.5q-125 150 -201 90q-57 -47 -71 -164h-7zM1479 -166q-78 0 -131 49q-16 -176 -86 -323q-106 -223 -296 -328.5t-417 -17.5q-229 84 -392 316t-157 478q4 139 56 237.5t104 110.5q31 6 28 -22q0 -23 -22 -55q-152 -248 29 -596q152 -293 385 -379 q168 -61 318.5 17.5t238.5 240.5t108 340q-80 -87 -186 -64q-217 45 -346 473q-84 262 24 293q-23 33 10 108.5t68 102.5q129 106 264 -10q6 51 39 51q43 -2 80 -100q23 -55 77.5 -248.5t72.5 -386.5h2v-21l2 -41q16 -150 127 -149q29 0 28 -39q0 -14 -8 -25.5t-20 -11.5z " />
<glyph unicode="&#x642;" horiz-adv-x="798" arabic-form="initial" d="M186 592h7q14 115 73 164q74 61 201 -90q59 -74 108.5 -219.5t50.5 -298t-75 -216.5q-31 -25 -59 -26q-121 -8 -224 338q-55 186 -59 256t-12 82zM0 -166q-12 0 -20.5 11.5t-8.5 25.5q0 39 29 39h330q-131 119 -217 401l379 -477h-492zM416 961q-29 0 -64 22 q-31 25 -30 57q0 66 67 66q100 0 100 -55q1 -90 -73 -90zM225 961q-29 0 -61 22q-33 27 -33 57q0 66 68 66q102 0 102 -55q0 -90 -76 -90z" />
<glyph unicode="&#x642;" horiz-adv-x="882" arabic-form="medial" d="M240 592q17 -9 21.5 -85.5t60.5 -262.5q102 -352 225 -340q29 6 57 28q76 63 75 216t-50 298.5t-109 219.5q-127 152 -201 90q-59 -49 -73 -164h-6zM883 -90q29 0 28 -39q0 -14 -8 -25.5t-20 -11.5h-883q-29 0 -29 39q0 14 9 26l28 11h375q-129 117 -215 389t25 305 q-25 33 7.5 108.5t67.5 102.5q150 123 301 -47q133 -150 190 -434.5t-54 -423.5h178zM479 946q-29 0 -63 23q-31 25 -31 57q0 66 68 66q100 0 100 -56q0 -90 -74 -90zM289 946q-29 0 -62 25t-32 55q0 66 67 66q102 0 103 -56q0 -90 -76 -90z" />
<glyph unicode="&#x643;" horiz-adv-x="1693" arabic-form="final" d="M1180 1366q45 0 81 -100t79.5 -260t68.5 -257.5t54.5 -287t31.5 -370t123 -181.5h76q29 0 28 -39q0 -14 -8 -25.5t-20 -11.5h-78q-111 2 -164 100q-43 -72 -141 -112q-250 -104 -682 -80q-121 8 -275.5 61t-264 171t-81.5 282q20 119 107.5 223.5t191.5 112.5h8 q35 -2 39 -26.5t-28 -39.5q-104 -39 -172 -115.5t-66 -181.5q0 -229 283 -338q182 -68 571 -65q201 0 334 57q86 37 113.5 104.5t23.5 180.5q-11 355 -247 1026q-10 27 -20.5 61.5t-1.5 72.5t36 38zM680 326q0 -47 101 -47q51 0 112.5 33.5t60.5 86.5q0 29 -53 43 q-16 4 -121 21q-37 2 -127 22q-66 18 -65 54q0 88 134 178t220 90t86 -82q0 -12 -10.5 -30.5t-19.5 -18.5t-19 8t-10 16l6 31q0 39 -33 39q-59 0 -183 -87t-124 -136q0 -20 45 -31.5t131 -23.5t127 -29q63 -25 63 -77t-71.5 -100t-141.5 -48h-22q-39 0 -81 23.5t-42 60.5 q0 12 8 26q6 20 17 21q18 0 18 -17z" />
<glyph unicode="&#x643;" horiz-adv-x="1003" arabic-form="initial" d="M3 -166q-15 0 -23.5 11.5t-8.5 25.5q0 39 29 39q43 -2 98.5 0t118 1t127 5t125.5 16q124 21 210.5 85.5t86.5 185.5q0 66 -111 102q-53 18 -196 41.5t-314 63.5q-135 45 -135 131q0 141 128 295.5t303 252t313 97.5q160 0 159 -197q0 -31 -20.5 -74.5t-46.5 -44.5 q-18 0 -36.5 18.5t-15.5 36t4 31t4 25.5t3 18v2q0 94 -68 95q-86 0 -236.5 -95.5t-271 -225.5t-120.5 -216q0 -49 100 -80q37 -12 235.5 -47t284.5 -76q131 -61 131 -176q0 -216 -277 -308q-65 -22 -155 -29t-134 -10t-160 -1t-131 2z" />
<glyph unicode="&#x643;" horiz-adv-x="1155" arabic-form="medial" d="M3 -166q-15 0 -23.5 11.5t-8.5 25.5q0 39 29 39q43 -2 98.5 0t118 1t127 5t125.5 16q124 21 210.5 85.5t86.5 185.5q0 66 -113 102q-55 18 -194 40.5t-316 64.5q-135 45 -135 131q0 141 128 295.5t303 252t315 97.5q160 0 159 -197q0 -31 -20.5 -74.5t-46.5 -44.5 q-18 0 -36.5 18.5t-15.5 36t4 31t4 25.5t3 18v2q0 94 -68 95q-86 0 -237.5 -95.5t-272.5 -225.5t-121 -216q0 -49 101 -80q41 -12 238.5 -47t283.5 -76q131 -61 131 -176q0 -33 -8 -59q0 -211 131 -211h172q29 0 29 -39q0 -14 -8.5 -25.5t-20.5 -11.5h-172q-143 0 -197 158 q-69 -76 -203 -120q-65 -22 -155 -29t-134 -10t-160 -1t-131 2z" />
<glyph unicode="&#x644;" horiz-adv-x="1464" arabic-form="final" d="M1464 -166q-82 0 -137 55q-16 -152 -61 -272q-68 -182 -220.5 -308t-332.5 -126q-133 0 -266.5 75.5t-229.5 193.5t-156.5 266.5t-60.5 282.5t63 257q39 78 72 78q-18 31 -18 53q0 59 62.5 88t137.5 29q177 0 437 -106q442 -181 442 -271q0 -35 -46 -35t-103 39 q-113 80 -339.5 181.5t-370.5 101.5t-165 -119q0 -12 -4 -18q-72 -113 -72 -250q0 -227 154 -443q219 -308 492 -309q90 0 181 51q166 93 248 311.5t82 432.5t-31.5 352.5t-60 255t-79 282t-77 236t-26.5 100.5q0 68 39 68q53 0 129 -249t131 -557t57 -486q10 -164 129 -164 q29 0 29 -39q0 -14 -8.5 -25.5t-20.5 -11.5z" />
<glyph unicode="&#x644;" horiz-adv-x="280" arabic-form="initial" d="M133 141q0 157 -39 323.5t-60.5 244t-47 162.5t-29.5 101q-11 42 -54.5 168t-43.5 158q0 68 39 68q72 0 169 -378t134 -691q10 -113 10 -160q0 -303 -211 -303q-12 0 -20.5 11.5t-8.5 25.5q0 39 29 39q133 6 133 231z" />
<glyph unicode="&#x644;" horiz-adv-x="346" arabic-form="medial" d="M0 -166q-12 0 -20.5 11.5t-8.5 25.5q0 39 29 39q133 6 133 231q-1 131 -27 260q-48 234 -95 390.5t-50 175.5q-45 141 -72.5 223t-27.5 108q0 68 41 68t78 -98q205 -543 233 -1157q6 -201 133 -201q29 0 29 -39q0 -14 -8.5 -25.5t-20.5 -11.5q-119 0 -172 98 q-55 -98 -174 -98z" />
<glyph unicode="&#x645;" horiz-adv-x="890" arabic-form="final" d="M248 479q0 -29 21.5 -120t55 -199.5t88 -189.5t116 -81t99.5 74t38 185.5t-35 231.5t-85 199.5t-102.5 128t-94.5 48.5t-74.5 -50.5t-43.5 -130.5h-6q2 -4 7.5 -12t7.5 -15t5 -23.5t3 -45.5zM211 -350q0 252 -102 790l-78 312q0 33 14 64.5t47 31.5t80 -195 q27 100 86 147.5t121 47.5q98 0 188 -112.5t141.5 -273.5t51.5 -296t25.5 -194.5t105.5 -61.5q29 0 29 -39q0 -14 -8.5 -25.5t-20.5 -11.5q-115 0 -174 100q-63 -119 -174 -118q-150 0 -264 186q10 -106 18 -235l2 -70q-1 -158 -49 -318q-26 -84 -78.5 -138t-124.5 -54 q-47 0 -47 35q0 23 13.5 36t31.5 13l23 -4q74 0 108.5 114.5t34.5 268.5z" />
<glyph unicode="&#x645;" horiz-adv-x="755" arabic-form="initial" d="M164 479q0 -29 21.5 -120t55 -199.5t88 -189.5t116 -81t99.5 74t38 185.5t-35 231.5t-85 199.5t-102.5 128t-94.5 48.5t-74.5 -51.5t-43.5 -129.5h-6q2 -4 7.5 -12t7.5 -15t5 -23.5t3 -45.5zM0 -166q-12 0 -20.5 11.5t-8.5 25.5q0 39 29 39q131 6 131 211q-41 94 -63 172 q-39 117 -39 195.5t65 97.5q-10 14 -10 45t29.5 88t56.5 80q57 49 125 49q98 0 189 -111.5t142.5 -272.5t51.5 -333t-88 -258q-57 -57 -131 -57q-143 0 -260 178q-54 -160 -199 -160z" />
<glyph unicode="&#x645;" horiz-adv-x="802" arabic-form="medial" d="M444.5 -111q61.5 0 98.5 73t37 171q0 244 -112 433.5t-200 189.5q-45 0 -78.5 -51.5t-42.5 -129.5h-8q18 -20 21.5 -73.5t25 -143.5t55 -198.5t88 -189.5t116 -81zM29 485.5q0 81.5 63 100.5q-8 10 -8 32q0 102 72.5 166t136.5 64q98 0 189 -111.5t142.5 -273.5 t51.5 -313q0 -37 -2 -56q6 -178 129 -184q29 0 28 -39q0 -14 -8 -25.5t-20 -11.5q-113 0 -172 100q-23 -55 -72 -86.5t-100 -31.5q-143 0 -260 178q-57 -160 -199 -160q-12 0 -20.5 11.5t-8.5 25.5q0 39 29 39q131 6 131 211q-41 88 -65 172q-37 111 -37 192.5z" />
<glyph unicode="&#x646;" horiz-adv-x="1478" arabic-form="final" d="M717 684q-31 0 -64 23q-31 25 -30 57q0 66 67 65q100 0 101 -55q0 -90 -74 -90zM1479 -166q-78 0 -131 47q-16 -176 -88 -321q-106 -223 -295 -328.5t-416 -17.5q-229 84 -392 316t-157 478q4 143 61 250q29 51 64 74q4 4 8 4q-25 45 -16 67q37 98 180 103.5t314 -54.5 t311 -126q308 -143 270 -210q-22 -38 -94 -12q-27 10 -72 42t-166 93.5t-266 120t-265 57.5t-151 -85q-4 -10 -8 -35q2 -8 -4 -18q-156 -248 27 -596q156 -295 385 -379q170 -61 320.5 17.5t236.5 236.5q87 158 109 312t4 278q-36 240 -132 495q-4 12 -13 41t-13 41 q-31 80 2 117t70.5 -19t101.5 -278q68 -254 88 -500q20 -135 127 -135q29 0 28 -39q0 -14 -8 -25.5t-20 -11.5z" />
<glyph unicode="&#x646;" horiz-adv-x="309" arabic-form="initial" d="M0 -166q-12 0 -20.5 11.5t-8.5 25.5q0 39 29 39q76 0 107.5 66.5t23.5 170t-27.5 206t-41 200.5t-21.5 127q0 63 55 63q68 0 109 -227q18 -98 24.5 -215t-4 -188.5t-33 -137t-71.5 -103.5t-121 -38zM94 877q-31 0 -63 22q-31 25 -31 57q0 66 68 66q100 0 100 -55 q0 -90 -74 -90z" />
<glyph unicode="&#x646;" horiz-adv-x="358" arabic-form="medial" d="M104 874q-31 0 -63 23q-31 25 -31 57q0 66 68 66q100 0 100 -55q0 -91 -74 -91zM358 -166q-121 0 -180 111q-59 -111 -178 -111q-12 0 -20.5 11.5t-8.5 25.5q0 39 29 39q76 0 108.5 66.5t24.5 171t-27.5 207t-42 199.5t-22.5 126q0 63 57 63t82 -86t27 -207.5t5 -244.5 t38 -209t108 -86q29 0 29 -39q0 -14 -8.5 -25.5t-20.5 -11.5z" />
<glyph unicode="&#x647;" horiz-adv-x="890" arabic-form="isolated" d="M297 543q47 8 104.5 -14t106.5 -89q90 -131 88 -329q-2 -127 -49 -205q131 -44 151 123q20 176 -67 463q-14 51 -33 91.5t-17.5 51t5.5 18.5l-2 -2h-4q-68 94 -142 111q-93 20 -135 -174q-2 -12 -6 -45zM475 -49q48 119 39 215q-12 160 -74 250q-68 92 -145 67 q4 -141 52 -297.5t128 -234.5zM193 -23q0 -7 -7 -14q121 -145 222 -94q10 4 14 8q-86 74 -145.5 219t-77.5 303q-27 -55 -29 -131q-10 -154 57 -243q18 -25 52.5 -44t37.5 -24q14 -25 -11.5 -37t-61 15.5t-51.5 41.5zM0 -166v76q115 0 129 164q-43 94 -32 222t96 196 q-2 172 64.5 272t197.5 74q45 -8 108.5 -60.5t57.5 -91.5q77 16 115 -87q26 -69 35 -114t9 -47q82 -438 -88 -579q-82 -69 -196 -29q-12 4 -17 6q-14 -8 -45.5 -24.5t-93.5 -11.5q-93 8 -186 110q-55 -76 -154 -76z" />
<glyph unicode="&#x647;" horiz-adv-x="741" arabic-form="final" d="M391 653q-2 0 -6 -2q-63 94 -139 111q-95 20 -135 -174q-20 -92 3 -243.5t94 -288t167 -156.5q113 -23 131 129q20 176 -68 463q-14 51 -33 91q-19 41 -14 70zM741 -166q-117 0 -176 109q-25 -47 -65 -84q-80 -66 -181 -35q-143 43 -240 280.5t-74.5 468.5t163.5 265 q43 10 90 1t111.5 -61.5t58.5 -91.5q25 4 41 -2q-18 172 18 168q79 -4 91 -100q8 -68 1.5 -149t-6.5 -97q4 -14 8.5 -37t6.5 -31q35 -186 22 -321q0 -207 131 -207q29 0 29 -39q0 -14 -8.5 -25.5t-20.5 -11.5z" />
<glyph unicode="&#x647;" horiz-adv-x="886" arabic-form="initial" d="M297 543q47 8 104.5 -14t106.5 -89q90 -131 88 -329q-2 -127 -49 -205q131 -44 151 123q20 176 -67 463q-14 51 -33 91.5t-17.5 51t5.5 18.5l-2 -2h-4q-68 94 -142 111q-93 20 -135 -174q-2 -12 -6 -45zM193 -23q0 -7 -7 -14q98 -109 174 -102.5t120 95.5t33 229.5 t-73 230.5q-68 92 -145 67q-6 -186 -43 -172q-23 8 -53 88q-27 -55 -29 -131q-10 -154 57 -243q18 -25 52.5 -44t37.5 -24q14 -25 -11.5 -37t-61 15.5t-51.5 41.5zM0 -90q115 0 129 164q-43 94 -32 222t96 196q-2 172 64.5 272t197.5 74q45 -8 108.5 -60.5t57.5 -91.5 q77 16 115 -87q26 -69 35 -114t9 -47q82 -438 -88 -579q-82 -69 -196 -29q-12 4 -17 6q-174 -88 -325 74q-55 -76 -154 -76q-12 0 -20.5 11.5t-8.5 25.5q0 39 29 39z" />
<glyph unicode="&#x647;" horiz-adv-x="825" arabic-form="medial" d="M435 131q81 90 74 210t-86 209t-136.5 35.5t-78 -212t22.5 -391.5q123 59 204 149zM14 -166q-44 0 -43.5 38t29.5 38q45 0 137 31q-65 305 -17 547q22 114 85 174.5t154 36.5t159 -135t72 -210q6 -156 -90.5 -279.5t-249.5 -185.5q84 -328 225 -362q63 -16 94 33 t49.5 136t32.5 114q59 100 174 100q29 0 29 -39q0 -14 -8 -25.5t-21 -11.5q-89 0 -123 -98q-12 -32 -21 -78.5t-15 -67.5q-27 -88 -94.5 -139t-151.5 -20q-160 59 -264 432q-116 -29 -142 -29z" />
<glyph unicode="&#x648;" horiz-adv-x="909" arabic-form="final" d="M229 575l11 -10q10 -12 12 -80q6 -147 110.5 -410t231.5 -159q76 61 75 215t-50.5 299t-108.5 217q-125 154 -201 90q-59 -47 -73 -162h-7zM909 -166q-63 0 -112 33q-8 -231 -111 -326q-41 -39 -118 -56t-68 34q2 18 20.5 27.5t34.5 5t31 2.5q172 61 139 389 q-18 -41 -47 -70q-76 -74 -174 -51q-213 45 -348 471q0 2 -7.5 25.5t-10.5 35t-9 38t-7 42.5q-1 14 -3 38q-3 30 11 67.5t52 46.5q-23 33 9 108.5t69 104.5q133 109 270 -19q4 51 40 61.5t65 -44.5q27 -59 79 -275t74 -467q8 -72 25 -96q33 -49 96 -49q29 0 29 -39 q0 -14 -8.5 -25.5t-20.5 -11.5z" />
<glyph unicode="&#x649;" horiz-adv-x="1427" arabic-form="final" d="M1427 -90q29 0 29 -38t-34 -38h-153q-166 0 -211.5 -5t-97 -11t-96.5 -16.5t-88 -25t-62.5 -27.5t-15.5 -25q14 -45 172.5 -82.5t462.5 -49.5q102 -4 110.5 -44t-97.5 -117q-209 -147 -419 -206t-472 -32q-177 17 -307 115q-217 162 -115 426q41 106 101 157.5t112 45.5 q41 -6 12 -39q-14 -18 -49 -41q-70 -53 -106.5 -136t-18.5 -177t118.5 -168t229.5 -93q221 -33 435 31.5t462 200.5q-59 10 -238.5 21t-289 40t-157 95.5t-11.5 120.5t177 86t339 32h278z" />
<glyph unicode="&#x64a;" horiz-adv-x="1431" arabic-form="final" d="M662 -1094q-29 0 -64 23q-31 25 -31 57q0 66 68 66q100 0 100 -56q1 -90 -73 -90zM481 -1094q-29 0 -61.5 25t-32.5 55q0 66 68 66q102 0 102 -56q0 -90 -76 -90zM1430 -90q29 0 28.5 -38t-34.5 -38h-153q-166 0 -211.5 -5t-97 -11t-96.5 -16.5t-88 -25t-62.5 -27.5 t-15.5 -25q14 -45 172.5 -82.5t462.5 -49.5q102 -4 110.5 -44t-97.5 -117q-209 -147 -419 -206t-472 -32q-177 17 -307 115q-217 162 -115 426q41 106 101 157.5t112 45.5q41 -6 12 -39q-14 -18 -49 -41q-70 -53 -106.5 -136t-18.5 -177t118.5 -168t229.5 -93 q221 -33 435 31.5t462 200.5q-59 10 -238.5 21t-289 40t-157 95.5t-11.5 120.5t177 86t339 32h279z" />
<glyph unicode="&#x64a;" horiz-adv-x="317" arabic-form="initial" d="M248 -387q-29 0 -64 22q-31 25 -30 58q0 66 67 65q100 0 101 -55q0 -90 -74 -90zM68 -387q-29 0 -62 22q-33 27 -33 58q0 66 68 65q102 0 102 -55q1 -90 -75 -90zM0 -166q-12 0 -20.5 11.5t-8.5 25.5q0 39 29 39q76 0 107.5 66.5t23.5 170t-27.5 206t-41 200.5t-21.5 127 q0 63 55 63q68 0 109 -227q18 -98 24.5 -215t-4 -188.5t-33 -137t-71.5 -103.5t-121 -38z" />
<glyph unicode="&#x64a;" horiz-adv-x="358" arabic-form="medial" d="M279 -385q-29 0 -64 23q-31 25 -31 57q0 66 68 65q100 0 100 -55q1 -90 -73 -90zM98 -385q-30 0 -62 25t-32 55q0 66 68 65q102 0 102 -55q0 -90 -76 -90zM358 -166q-121 0 -180 111q-59 -111 -178 -111q-12 0 -20.5 11.5t-8.5 25.5q0 39 29 39q76 0 108.5 66.5t24.5 171 t-27.5 207t-42 199.5t-22.5 126q0 63 57 63t82 -86t27 -207.5t5 -244.5t38 -209t108 -86q29 0 29 -39q0 -14 -8.5 -25.5t-20.5 -11.5z" />
<glyph unicode="&#xd;" horiz-adv-x="681" />
<glyph unicode=" "  horiz-adv-x="409" />
<glyph unicode="&#x09;" horiz-adv-x="409" />
<glyph unicode="&#xa0;" horiz-adv-x="409" />
<glyph unicode="!" horiz-adv-x="684" d="M432 -106q8 -56 -60 -63q-30 -3 -63 14t-35 38q-6 63 73 71t85 -60zM258 96q-23 18 6 54q96 88 70 350q-43 440 -180 723q-13 27 8 51q22 24 45 29q57 5 115 -179t89 -357q30 -173 35 -253q12 -110 -20 -236t-119 -172q-35 -18 -49 -10z" />
<glyph unicode="&#x22;" horiz-adv-x="493" d="M123 924q-27 0 -27 24q0 18 21 33q57 43 57 172q0 21 -3 43t20 41q24 18 49 18q39 0 39 -58q1 -58 -39 -140t-93 -123q-14 -10 -24 -10zM258 924q-25 0 -25 24q0 18 19 33q57 43 57 172q0 21 -3 43t22 40t49 19q39 0 39 -59t-40 -141t-91 -121q-16 -10 -27 -10z" />
<glyph unicode="#" horiz-adv-x="1517" d="M326 12q-37 0 -31 47q21 197 131 475q-175 -30 -289 -75q-12 -4 -18 -4q-27 1 -27 27t31 34q137 56 333 92q67 159 125 272q-282 -31 -454 -100q-12 -4 -16 -4q-27 0 -27 25t29 37q174 70 509 117q95 170 191 274q8 14 32 14q24 -1 40 -23t-2 -42q-77 -81 -158 -210 q144 15 282 17q105 199 214 315q13 12 35 12t38 -21q16 -22 -4 -42q-92 -99 -188 -265q174 -4 284 -32q33 -8 32 -47t-32 -39h-10q-122 31 -320 36q-53 -98 -117 -239q58 2 114 3q209 0 344 -35q33 -8 31 -47t-33 -39h-11q-143 37 -391 37q-45 0 -90 -2q-118 -279 -141 -465 q-4 -31 -29 -31q-35 0 -28 47q20 185 120 447q-207 -9 -315 -31q-135 -310 -158 -502q-2 -33 -26 -33zM543 623q162 26 314 36q58 140 108 244q-146 -1 -286 -13q-63 -111 -97 -185t-39 -82z" />
<glyph unicode="$" horiz-adv-x="739" d="M569 276q1 43 -37 67t-81 28l-41 2q-16 -133 -19 -250q178 68 178 153zM199 494q0 -46 145 -43q16 150 37 272q-72 -51 -127 -117t-55 -112zM254 92q33 0 78 12q-4 129 6 271l-84 4q-51 4 -96 18q-61 29 -62 68q0 73 100 191t210 180q23 94 49 157q11 23 35 23t39 -14 t8 -33q-23 -55 -33 -95h20q29 0 78 -26t49 -64q0 -39 -37 -39q-2 -1 -40 17t-51 20t-46 -8q-39 -156 -59 -328q219 -18 219 -157q0 -86 -78 -164q-76 -68 -168 -100q4 -95 11 -145q8 -50 -20 -50t-34 35q-12 80 -14 143q-41 -4 -75 -4t-81 34t-47 91q0 23 22 57t40 33 q18 0 24 -2l-20 -78q0 -47 57 -47z" />
<glyph unicode="%" horiz-adv-x="1280" d="M741 977q-4 47 -22 47q-10 4 -10 -2q-1 -31 32 -45zM471 37q0 69 40 145t75 76h8q8 10 32 22t38 13q82 0 84 -111q0 -47 -45 -138t-111 -107q-25 -4 -33 -5q-88 0 -88 105zM1109 1067q26 0 38 -28q13 -28 -19 -53t-104 -79q-240 -193 -508 -531t-360 -554 q-12 -27 -33 -27q-27 0 -27 35q0 12 6 25q88 205 314 512t452 520q-45 4 -77 12q-49 -164 -146 -186q-10 -2 -31 -2q-90 0 -90 104q0 63 41 141t74 78q9 0 16 -2q8 43 60 43q84 1 86 -112q104 -11 147 -2q72 61 125 98q10 8 36 8zM541 46q0 -56 22 -56q41 0 82 77t41 127 q0 91 -69 25l-37 -57q-39 -60 -39 -116zM596 828q0 -60 20 -60q70 0 115 150q-55 22 -71 59q-1 -2 -3 -4q-61 -85 -61 -145z" />
<glyph unicode="&#x26;" horiz-adv-x="1073" d="M995 565q0 -141 -157 -202q26 -81 26 -144q0 -182 -156 -270t-337 -68q-111 16 -210 102t-100 197q0 49 21 92q47 98 138 174t175 97q-180 82 -180 213q0 43 23 92q82 178 317 178q88 0 183 -54t96 -112q0 -18 -20 -34t-41 -17q-22 0 -34 20q-69 127 -219 127t-207 -118 q-12 -27 -12 -54q0 -72 100 -135l19 -10q18 -8 59 -30t69 -36t79 -14q108 0 108 -59q0 -37 -45 -37l-119 14q-84 -4 -90 0q-67 1 -179 -63t-155 -152q-18 -41 -18 -76q0 -84 94 -147q76 -55 187 -72q45 -4 63 -4q172 0 265 107t51 276q-30 -10 -82 -20t-154 -41 q-68 -27 -68 -70l29 -78q0 -29 -29 -28q-9 -1 -35 45t-26 67q0 90 127 144q39 13 118 37t119 36q127 53 127 142q0 59 -59 94t-59 47q0 29 42 29t99 -60t57 -125z" />
<glyph unicode="'" horiz-adv-x="311" d="M82 596q-25 0 -25 25q0 18 19 32q57 43 57 172q0 35 -3 50t22 33t49 20q39 0 39 -58t-39 -141q-39 -82 -92 -123q-14 -10 -27 -10z" />
<glyph unicode="(" horiz-adv-x="616" d="M182 270q0 -332 205 -393q14 -20 14 -41q0 -49 -61 -33q-129 31 -195 197q-49 131 -49 303q0 173 33 315t120 300t204 235q10 6 18 6q27 0 39 -33q14 -31 -4 -53q-324 -377 -324 -803z" />
<glyph unicode=")" horiz-adv-x="524" d="M45 -209q-27 0 -27 23q0 12 9 20q229 266 307 604q29 125 28 250q0 332 -204 393q-14 20 -15 41q0 49 62 33q129 -27 194 -197q49 -134 49 -304t-32 -312q-33 -142 -120 -301q-87 -158 -204 -236q-20 -14 -47 -14z" />
<glyph unicode="*" horiz-adv-x="755" d="M217 557q-10 0 -10 14q0 53 137 228q-109 0 -204 13t-95 38q0 18 14 18h7q100 -31 274 -34q-35 47 -86 132t-51 96t12 11q4 0 61 -93t97 -140q193 233 239 233q23 0 23 -18q0 -6 -8 -13q-102 -70 -217 -211h28q150 0 246 27h4q14 0 14 -10q0 -20 -99 -34t-195 -13 q53 -70 186 -187l39 -36q0 -20 -23 -21q-6 0 -10 4q-98 66 -227 227q-56 -67 -104 -149t-52 -82z" />
<glyph unicode="+" horiz-adv-x="1132" d="M651 379q166 0 303 -51q52 -20 68 -52t-13 -43q-30 -9 -87 11q-127 49 -265 49q10 -219 -49 -385q-20 -52 -52 -68t-42 14t10 87q63 158 47 350q-160 -14 -368 -82q-70 -23 -85 20q-20 56 64 93q100 35 291 49l86 6q-23 139 -70 282q-23 70 23 84q41 16 76 -34l14 -31 q35 -96 49 -289v-10z" />
<glyph unicode="," horiz-adv-x="419" d="M74 -133q0 23 32 35t67 69q34 57 44 125q7 33 59 33t52 -39q-4 -55 -70 -135t-139 -109q-45 -14 -45 21z" />
<glyph unicode="-" horiz-adv-x="1091" d="M887 125q-268 111 -721 -35q-68 -22 -83 22t38 78l26 13q100 35 291 49q301 25 482 -43q53 -20 68 -52q16 -32 -14 -42t-87 10z" />
<glyph unicode="&#xad;" horiz-adv-x="1091" d="M887 125q-268 111 -721 -35q-68 -22 -83 22t38 78l26 13q100 35 291 49q301 25 482 -43q53 -20 68 -52q16 -32 -14 -42t-87 10z" />
<glyph unicode="." horiz-adv-x="235" d="M127 -20q-23 0 -49 18t-27 45q0 53 55 53q80 0 80 -45q0 -71 -59 -71z" />
<glyph unicode="/" horiz-adv-x="1443" d="M123 -166q-33 0 -33 39q0 10 8 31q131 305 492 762q373 465 653 657q14 8 41 8t45 -31q18 -37 -14 -57q-283 -193 -653 -639q-373 -444 -500 -739q-14 -31 -39 -31z" />
<glyph unicode="0" horiz-adv-x="1064" d="M465 -166q-158 0 -268 199q-88 156 -95 289q-6 258 62 462q94 297 328 375q12 4 38 -7t27 -34q0 -7 -2 -14q46 31 98 31q150 0 244 -201q76 -168 76 -338q0 -250 -121 -479q-143 -283 -387 -283zM496 -96q164 0 280 243q105 217 105 416t-56 336q-74 168 -200 168 q-63 0 -97 -117q-14 -14 -27 -14t-23 17t-4 47q7 30 30 59q-11 -4 -25 -8q-141 -37 -237 -306q-113 -330 6 -628q84 -213 248 -213z" />
<glyph unicode="1" horiz-adv-x="821" d="M287 911q-47 0 -47 42t102 127t138 85t64 -19t28 -48t-56 -230q-96 -348 -96 -637q0 -201 74 -200q98 0 152 -35t50 -92q-145 71 -262 28q-57 -20 -135 -58t-90 -40q-45 0 -45 47t221 133q-45 72 -45 181v131q0 238 52 460t52 275q-32 -6 -78 -78t-79 -72z" />
<glyph unicode="2" horiz-adv-x="1236" d="M268 -47q0 -8 43 -8q43 1 240 65t273 64t139 -33q82 -41 81 -104q0 -41 -47 -78h-53q29 70 29 73q0 51 -154 52q-96 0 -219 -43q-16 -6 -91 -36q-75 -31 -129 -51t-94 -20q-38 0 -77 35q-35 35 -35 74q0 80 143 209q84 70 293 230t308 259q129 135 129 233 q0 147 -166 148q-246 0 -576 -199q-66 -41 -76 -41q-59 0 -59 56q0 37 37 61q10 6 33 17t34 18q326 166 551 166q137 0 225 -66t89 -200q0 -106 -144 -254q-92 -92 -301 -248q-142 -102 -284 -214t-142 -165z" />
<glyph unicode="3" horiz-adv-x="1460" d="M1208 262q0 -162 -190 -295t-354 -133q-373 0 -484 281q-8 15 -8 33t20 24t37 -18q43 -106 151 -166t250 -60t312 95q190 104 191 247q0 166 -349 166q-12 0 -110 -15t-131 -15t-33 30q0 49 70 70q27 6 137 35q174 59 338 164q211 135 211 253q0 76 -73 114t-169 32 q-195 -12 -360 -86q-111 -47 -166 -98q-16 -16 -43 -17q-55 0 -56 47q0 70 206 152t413 82q340 0 340 -234q0 -156 -213 -295q-74 -49 -252 -139q315 -20 315 -254z" />
<glyph unicode="4" horiz-adv-x="1206" d="M846 182q0 -40 2 -78t7 -55q5 -16 14 -47q18 -61 106 -156q-72 -14 -121 12q-109 58 -113 310q-1 59 19 178t20 158q-231 -57 -532 -185q-80 -37 -101 -36q-66 0 -65 53q0 21 38 95t54 110q117 291 160 561q29 139 74 139q55 0 55 -80t-90 -346t-162 -403 q391 109 586 204q19 130 79 358t99 228q55 0 55 -53q0 -39 -64 -237t-71 -281q63 16 124 -16q60 -32 93 -87l-18 -61q-101 101 -222 57q-26 -190 -26 -246v-96z" />
<glyph unicode="5" horiz-adv-x="1222" d="M225 969v12q12 39 173 107q162 68 272 92q110 25 248 24q61 0 101 -38t40 -83t-39 -55q-18 -4 -29 12q-8 16 -2 31v12q0 41 -104 41q-158 0 -428 -123q-51 -201 -158 -395l-20 -41q289 166 489 166q150 -1 249 -63t99 -191q0 -49 -14 -98q-62 -233 -312 -389t-458 -156 t-207 135q0 50 34 97t52 47q39 0 25 -56q-20 -14 -31 -47l-2 -20q0 -70 129 -70q188 0 413 148t271 329q8 27 8 62q0 86 -61 137q-63 51 -160 51q-182 0 -524 -194q-68 -41 -89 -41q-53 0 -53 34q0 25 47 101q96 154 156 379q0 4 3 13t5 17q-54 -31 -72 -30q-51 0 -51 43z " />
<glyph unicode="6" horiz-adv-x="966" d="M828 1059q-18 0 -83 16q-55 18 -90 19q-87 0 -203 -128t-165 -239q-150 -340 -144 -516q6 -299 170 -299q77 0 177 95t143 177q98 193 96 320q-6 158 -134 158t-247 -168t-115 -308q0 -39 25 -77q23 -45 23 -50q0 -35 -37 -34q-34 0 -58 60t-28 112q-2 180 129 358 t313 178q106 0 162 -74q49 -59 55 -165q4 -201 -139 -416q-158 -244 -352 -244q-72 0 -129 39q-61 37 -86 104q-45 111 -45 261q0 268 127 518q78 150 206 278q160 162 303 162q51 0 109 -24t61 -68q2 -23 -12 -34t-32 -11z" />
<glyph unicode="7" horiz-adv-x="1138" d="M137 1102q0 47 58 47q37 0 83 -14t87 -19q336 -12 583 25q55 10 56 -39q0 -8 -9 -33q-14 -6 -59 -29q-74 -40 -186 -190t-187 -279q-197 -336 -235 -594q-10 -57 -17 -116q-25 -27 -47 -27q-49 0 -49 80q-1 222 205 580t399 553h-8q-98 -12 -352 -25q-322 -10 -322 80z " />
<glyph unicode="8" horiz-adv-x="1255" d="M705 356q-27 0 -187 -156t-160 -212q0 -78 181 -78q89 0 233 90t143 190q0 43 -94 109q-88 57 -116 57zM989 190q0 -166 -172 -270q-141 -86 -293 -86q-244 0 -243 156q0 137 321 397q-36 16 -142 47t-171 58q-160 70 -160 170t182 221q143 94 344 172t287 78t148 -62 q61 -63 61 -158q0 -31 -31 -128t-65 -97q-57 0 -58 45q0 25 41 88q39 63 39 113q0 109 -135 108q-160 0 -442 -146t-281 -265q0 -45 299 -131q36 -8 96 -28t68 -26q18 0 110 86t117 115q16 16 17 35l-4 23q-2 16 6 34q32 33 56 -14q14 -29 15 -51q1 -74 -196 -240l-17 -16 q117 -51 164 -113q39 -47 39 -115z" />
<glyph unicode="9" horiz-adv-x="968" d="M322 -166q-43 0 -116 36t-73 85q0 33 25 33q18 0 32 -15q70 -66 123 -65q227 0 371 387q104 285 104 489q0 111 -30 215q-51 170 -166 170q-42 1 -146 -77t-160 -226t-57 -301q0 -195 125 -194q129 0 240 176q100 166 100 313q0 98 -55 125q-16 5 -16 23t17 32t34 9 q58 -31 76 -87t18 -153q0 -141 -115 -315q-131 -199 -305 -199q-8 0 -20 6q-113 0 -164 125q-37 86 -37 184q0 186 137 400q146 238 312 238t239 -183q55 -131 55 -330l-2 -67q-18 -279 -151 -523q-166 -311 -395 -311z" />
<glyph unicode=":" horiz-adv-x="376" d="M158 -166q-31 0 -60 22t-28 52q0 63 63 63q94 0 94 -53q1 -84 -69 -84zM236 399q-31 0 -60 22t-29 52q0 63 64 64q94 0 94 -56q1 -82 -69 -82z" />
<glyph unicode=";" horiz-adv-x="561" d="M303 174q27 0 40 -11t11 -36q0 -63 -80 -159t-163 -128q-55 -20 -56 25q0 27 35 39q45 18 85 87t52 144q6 39 76 39zM389 588q-27 0 -57 22t-31 54q0 63 64 63q96 0 96 -55q0 -84 -72 -84z" />
<glyph unicode="&#x3c;" horiz-adv-x="1026" d="M152 213q-43 45 -34 83t34 62q66 72 235 177q260 160 449 180q57 7 85 -13t6 -46t-83 -31q-287 -25 -606 -338q297 -313 606 -340q61 -6 83 -32t-6 -45t-85 -13q-188 20 -449 180q-170 104 -235 176z" />
<glyph unicode="=" horiz-adv-x="1071" d="M889 379q-268 111 -721 -35q-68 -22 -83 22t38 78q91 45 317 62q301 25 482 -43q53 -20 68 -52q16 -32 -14 -42t-87 10zM889 74q-268 111 -721 -35q-68 -23 -83 21t38 79q91 45 317 62q301 25 482 -43q53 -20 68 -52t-14 -43q-30 -9 -87 11z" />
<glyph unicode="&#x3e;" horiz-adv-x="989" d="M866 358q25 -24 34 -62t-34 -83q-66 -72 -235 -176q-260 -160 -449 -180q-57 -6 -85 13t-6 45t83 32q309 27 606 340q-319 313 -606 338q-61 5 -83 31t6 45t85 14q188 -20 449 -180q170 -104 235 -177z" />
<glyph unicode="?" horiz-adv-x="927" d="M260 -139q-63 0 -63 47q-1 57 67 57t68 -53q0 -16 -28 -34t-44 -17zM250 246q0 -33 31 -37q55 -8 55 -35q0 -39 -49 -39t-82 36t-33 85q0 84 152 211q47 35 141 109t141 108q152 123 152 199q0 137 -209 137q-183 0 -457 -192q-104 -73 -110 -72q-45 0 -45 50 q-1 50 157 141t254 118t203 27q287 0 287 -213q0 -123 -205 -285q-49 -41 -166 -123q-217 -154 -217 -225z" />
<glyph unicode="@" horiz-adv-x="1579" d="M879 -166q-197 0 -376 81t-299 241t-120 351t109 361t283 272t355 103q182 0 346 -125q209 -159 214 -440q0 -211 -113 -350q-121 -154 -293 -92q-98 37 -96 231q-274 -342 -434 -342q-88 0 -88 104q0 201 264 513t391 229q41 -29 41 -112t-47 -83q-41 0 -74 52t14 71 q-91 -31 -290 -289q-211 -268 -211 -368q0 -33 28 -33q70 0 248 215q39 45 117 139q68 90 78 162q6 49 57 49q70 0 57 -67q-49 -251 -49 -319t37 -79q20 -4 31 -4q102 0 170 150q68 151 33 323t-162 281q-115 94 -269 94q-243 0 -439 -198t-195 -439q0 -174 100 -312 t255 -209t327 -71q219 0 368 117q147 121 148 291q-1 66 -13 104t-12 41q0 35 27 37q27 6 45 -27q68 -151 40 -271t-121 -205t-221 -131t-261 -46z" />
<glyph unicode="A" horiz-adv-x="1122" d="M645 1067q-76 0 -336 -627q246 70 453 86q-6 101 -31 320q-35 221 -86 221zM694 432q-62 0 -248 -42t-192 -54q-23 -57 -79 -188t-114 -281q-41 -98 -86 -98q-53 0 -53 59q0 27 162 342q49 104 57 123q-57 -23 -85 -42t-52 -20q-51 0 -51 52q0 37 95 69t138 47 q24 47 80 172t162 340q123 240 240 240q55 0 94 -70q27 -45 39 -96q31 -150 51 -467q201 -18 201 -141q0 -43 -35 -62q-47 -23 -47 29q0 2 10 33q0 55 -133 55q12 0 16 -22q68 -465 146 -465q14 0 30 10q31 25 45 25q37 4 37 -43q0 -29 -42 -47t-68 -17q-186 2 -244 557 q-12 2 -74 2z" />
<glyph unicode="B" horiz-adv-x="1339" d="M258 225q0 -150 107 -180q16 -16 16 -31q0 -31 -49 -30q-78 0 -123 118q-39 90 -39 186t50 344t104 248t55 -53q-1 -24 -19 -57q-102 -199 -102 -545zM291 -174q-207 0 -207 139q0 88 70 131q28 0 34 -4t15 -35q-45 -51 -45 -92q0 -47 135 -47q205 0 442 100 q119 47 262 172q168 141 168 228q0 104 -209 104q-154 0 -309 -55q-13 -6 -117 -52t-122 -46q-59 0 -60 22q0 29 94 84q494 279 494 483q0 49 -52 76t-122 27q-291 0 -637 -322q-72 -66 -88 -65q-51 0 -51 55q0 39 125 137q340 268 633 268t292 -196q0 -135 -243 -338 q73 14 163 14t190 -48t99 -146q0 -174 -256 -357t-438 -208q-233 -29 -260 -29z" />
<glyph unicode="C" horiz-adv-x="1112" d="M410 -174q-132 0 -222 114t-90 253v73q0 156 99 367q97 219 257 380t326 161q39 0 97 -29q59 -29 59 -60t-20 -49t-32 -18q-14 0 -68 24t-87 23q-168 0 -353 -305t-186 -504q0 -143 46 -233q55 -115 157 -115t230 72q186 106 319 358q24 41 48 41t32 -43q-6 -29 -66 -133 t-84 -133q-82 -104 -206 -174t-256 -70z" />
<glyph unicode="D" horiz-adv-x="1269" d="M1090 588q0 184 -144 292t-342 109q-133 0 -285 -43t-258 -115t-118 -71q-59 0 -60 55q0 37 92 88q295 172 633 172q215 0 391 -134t177 -349q0 -260 -206 -503t-468 -243q-100 0 -146 35q-4 3 -5 7q-28 -35 -52 -35q-104 0 -160 204q-41 147 -41 285v137q0 79 31 231 t66 152q55 0 55 -61q0 -34 -31 -148q-31 -160 -31 -293q0 -434 152 -434l37 7q2 1 4 1q0 -1 -1 -1l81 -15q221 0 425 222t204 448z" />
<glyph unicode="E" horiz-adv-x="1009" d="M293 -129q-187 0 -185 213q0 80 6 170q5 90 7 129q-51 -31 -70 -31q-45 0 -45 60q0 35 117 86q4 52 28 291q10 99 40 148q-7 -3 -15 -5t-106 -69t-111 -66q-55 0 -55 55q0 44 179 122t327 126q39 12 136 26q96 14 144 15q48 0 98 -32t50 -77t-22 -78q-22 -34 -36 -34 q-30 -1 -30 36q2 8 2 35t-22 37t-85 10q-145 0 -390 -79q27 -14 28 -60l-25 -111q-22 -104 -47 -266q19 2 113 35t143 33q156 0 176 -74l-8 -47q-41 -3 -59 21t-67 24q-50 0 -173 -30t-129 -54q-19 -66 0 -317q4 -78 14 -109q23 -53 89 -53t220 40t228 40t134 -46t60 -124 l-45 -25q-49 109 -176 109q-74 0 -218 -37t-220 -37z" />
<glyph unicode="F" d="M-8 315q-51 0 -51 44t51 69q57 20 88 31q10 68 20 189q10 120 15 167t26 92q-19 -11 -43 -24l-75 -43q-37 -20 -50 -23q-49 0 -49 54t107 94q496 197 686 196q80 0 135 -26q80 -37 80 -103t-45 -76q-27 14 -27 54q0 59 -164 59q-80 0 -240 -41t-236 -78q24 -11 24 -36 t-25 -123q-25 -99 -38 -159t-13 -140q14 0 83 16t115 16t93 -14q68 -23 67 -68l-26 -26q-31 2 -67 19q-37 17 -67 17t-116 -14t-86 -32q0 -557 125 -539h12q43 0 43 -35q0 -16 -19 -28t-36 -11q-213 0 -217 563q-77 -41 -80 -41z" />
<glyph unicode="G" horiz-adv-x="1284" d="M1153 -274q-154 0 -154 282q0 98 33 277q-125 -223 -237 -314q-152 -129 -377 -129q-156 0 -246 164q-72 133 -72 289q0 297 187 600q213 348 497 348q43 0 93 -24q61 -27 61 -68q0 -23 -15 -40t-27 -17t-24 4q-63 39 -127 39q-111 0 -243 -130t-223 -333 q-90 -203 -91 -395q0 -127 58 -234q63 -125 170 -125q225 0 436 268t231 486q6 74 -24 74q-39 0 -385 -211q-72 -43 -86 -43q-47 0 -47 52t235 166t297 113q102 0 103 -123q0 -38 -12 -98t-13 -72q-53 -379 -53 -559t59 -170q53 7 53 -35t-57 -42z" />
<glyph unicode="H" horiz-adv-x="1400" d="M1231 1167q45 0 45 -59q0 -25 -10 -66q-101 -255 -115 -436q66 -29 86 -49q39 -33 39 -75t-20 -66t-39 -25q-25 0 -35 41l20 43q-6 31 -59 43q-10 -28 -3 -132t13 -189q27 -221 100 -222q20 0 35 21h49q8 -31 9 -35q0 -27 -34 -44t-59 -17q-147 0 -190 260 q-14 72 -23 368q-37 6 -137 7q-166 0 -526 -103q-10 -127 -55 -348q-59 -283 -211 -283q-25 0 -58 19q-43 20 -43 55l2 4l8 29h41q20 -33 41 -33q94 0 146 236q29 145 35 286q-88 -45 -121 -45q-43 0 -43 47q0 37 59 62q8 4 92 26q4 -2 13 -2q4 107 3 117t-6 165t-47 316 q-6 27 -6 52q0 63 58 63q45 0 68 -175t24 -290v-203l2 -10q227 72 358 86q211 20 224 21l90 -6q16 156 69 351t111 195z" />
<glyph unicode="I" horiz-adv-x="962" d="M632 -29q-173 0 -417 -106q-55 -23 -61 -23q-54 0 -54 58t332 125q-82 106 -82 430q0 225 33 446q2 41 20 193q2 12 16 31q-33 -9 -133 -45t-142 -62q-42 -25 -48 -25q-41 0 -41 47q-1 60 233 126t316 66t162 -26q106 -33 106 -88t-26 -55q-31 0 -47 47t-156 47 q-68 0 -137 -12q18 -17 12 -60q-78 -495 -78 -633q0 -406 95 -407l77 4q84 0 162 -24q106 -33 107 -101q-1 -27 -17 -37q-12 -4 -45 -4q-14 88 -187 88z" />
<glyph unicode="J" horiz-adv-x="681" d="M-139 -543q-104 0 -209 86t-107 191q-4 61 37 61q20 0 27 -37q12 -86 81 -146t152 -61q283 0 424 336q104 253 104 571t-46 644q-3 39 14 56q-96 -30 -184 -68t-93 -37q-55 0 -55 45q0 62 240 120t321 58q79 0 139 -34t60 -99q0 -12 -22 -40t-48 3q2 6 2 16q0 53 -49 70 q-23 8 -87 8t-144 -19q18 -10 23 -30t11 -139t7 -287q0 -612 -127 -903q-53 -123 -154 -225q-117 -123 -241 -134l-51 -4l-23 -2h-2z" />
<glyph unicode="K" horiz-adv-x="1130" d="M315 -152q-106 0 -165 136q-46 98 -52 187t-6 138q0 257 38 541t106 285q55 0 51 -62q-104 -266 -105 -657q0 -29 2 -134q2 -106 40 -234t81 -128q39 2 68 -16q-7 -56 -58 -56zM887 -82q-145 10 -369 279q-70 86 -162 190q-84 86 -157 105l-6 45q33 25 47 26h45 q102 11 232 113t216 211q2 5 40 71q92 159 120 156q17 -2 33 -22t14 -35q-4 -55 -133 -228q-63 -84 -192 -182t-236 -137q19 -18 117 -148t200 -225q145 -143 232 -145q18 0 49 15t67 32l21 -33q-3 -40 -67 -66t-111 -22z" />
<glyph unicode="L" horiz-adv-x="1077" d="M676 10q-205 0 -453 -84q-2 0 -16 -6t-47 -19t-106 -42t-83 -29q-53 0 -53 51q0 25 109 84q23 10 24 12q121 96 121 451q0 211 -8 295l-23 278q0 63 38 115q37 52 99 51q62 1 159 -71t97 -127t-51 -56q-35 0 -94 91q-55 92 -115 92q-39 0 -32 -117q18 -406 18 -408v-311 q0 -135 -67 -256q283 104 501 105q92 0 189 -52q117 -61 116 -147q1 -45 -71 -45l2 41q10 104 -254 104z" />
<glyph unicode="M" horiz-adv-x="1828" d="M825 -102q-49 0 -49 92q0 48 9 177q21 296 -7 547q-27 250 -84 251q-55 0 -157 -228q-182 -418 -220 -649q-2 -37 -20 -186q-12 -51 -66 -52q-55 0 -55 62v6q2 4 3 15q6 70 16 124q37 342 36 734q0 184 -49 184q-35 0 -98 -76l-86 -111q-51 -63 -76 -63q-53 0 -53 54 t141 166t189 112q96 0 120 -166q18 -107 -2 -475q215 631 390 631q119 0 153 -263q14 -92 14 -360q31 141 46 190q45 172 137 347q129 240 252 239q147 0 166 -317l22 -412q18 -311 19 -315q29 -250 100 -250q12 0 42 26t38 25q8 0 24 -11t8 -43q-9 -32 -55 -53 q-38 -20 -67 -20q-86 0 -129 82q-70 141 -86 864q-9 344 -91 344t-204 -297q-63 -156 -138 -413t-69 -396q4 -37 -12 -71q-14 -45 -52 -45z" />
<glyph unicode="N" horiz-adv-x="1220" d="M201 944q-53 0 -207 -184q-35 -45 -43 -48t-19 -3q-10 0 -24 19t-14 36q0 56 135 160t190 104q121 0 117 -166l-4 -407q37 119 110 329q135 354 271 355q94 0 127 -144q8 -33 24 -213q4 -102 35 -430q43 -338 109 -338q10 0 32 18t43 23l35 -16q-4 -45 -44 -76t-68 -31 q-109 0 -162 195q-31 119 -46 349t-38 429q-27 160 -74 160q-37 0 -143 -279q-121 -303 -154 -417q-72 -246 -72 -439q4 -78 -57 -77q-57 0 -57 67q0 68 13 194t13 197l17 430q0 203 -45 203z" />
<glyph unicode="O" horiz-adv-x="1122" d="M414 635q0 -53 -60 -53t-100 34q-68 -158 -68 -296t54 -246q63 -129 182 -129q238 0 379 268q117 225 117 494q0 147 -72 280q-86 150 -215 161q-129 10 -234 -92t-117 -214q4 24 36 62t56 38t40 -16t16 -41t-69 -104t-69 -87t22 -26t30 -19l49 6q23 0 23 -20zM436 -137 q-188 0 -274 155q-68 121 -68 310q0 121 41 256q41 115 62 170q-10 203 132 346t324 129q164 -8 273 -193q92 -156 92 -321q0 -295 -137 -545q-169 -307 -445 -307z" />
<glyph unicode="P" horiz-adv-x="1247" d="M196 995q54 0 54 -57q0 -42 -14 -102t-15 -70q-27 -180 -26 -350q0 -518 165 -518q10 0 17 2l31 -31q-17 -47 -54 -47q-139 0 -196 168q-39 111 -39 272l-8 178q0 283 22 473q9 82 63 82zM728 1303q204 -1 312 -101q109 -100 108 -259q-2 -159 -156 -319t-308 -210 t-218 -49q-62 -1 -116 31t-53 89q0 29 22 56h48q-2 -86 67 -86q205 0 410 166q217 172 217 364q0 123 -113 186q-94 55 -260 55t-358 -106q-113 -61 -322 -231q-40 -31 -56 -31t-36 18t-20 38t55 73q51 43 76 62q211 139 354 197t347 57z" />
<glyph unicode="Q" horiz-adv-x="1150" d="M424 639q0 -53 -60 -53t-100 37q-134 -306 -8 -556q60 -118 176 -118q68 0 133 24q-102 61 -183 61t-81 50q0 49 89 49t253 -119q137 94 211 298t74 375t-72 304q-86 150 -215 161q-129 10 -234 -92t-117 -214q5 26 37 64t55 38q24 0 40 -16t16 -42t-68 -105t-69 -87 q0 -8 22 -26t29 -19l49 6q23 0 23 -20zM862 -90q56 0 60 6v2q0 31 4 43t22 25q51 -18 51 -64t-44 -76q-44 -29 -85 -28q-72 0 -202 88l-19 12q-94 -51 -203 -51q-188 0 -274 156q-68 121 -68 309q0 121 41 256q41 115 62 170q-10 203 131 346t326 131q164 -13 264 -183 t100 -351t-80 -402t-229 -336q87 -53 143 -53z" />
<glyph unicode="R" horiz-adv-x="1251" d="M375 -182q-213 0 -209 446q2 313 70 647q14 82 65 82t51 -57q0 -27 -41 -174q-55 -258 -55 -520q0 -346 129 -346h16l31 -31q-18 -47 -57 -47zM967 -137q-176 0 -365 262q-53 74 -131 157q-77 83 -113 92q-79 20 -71 66q4 31 55 31t84 -12q206 18 410 182t217 346 q10 123 -79 178t-231 56q-297 0 -712 -301q-84 -61 -88 -62q-18 0 -41 18t-23 32q0 15 8 24q135 131 399 248q264 116 456 116t294 -87t102 -249t-188 -344q-158 -152 -315 -200q-59 -18 -121 -35q53 -74 76 -102q96 -129 244 -263q90 -78 172 -77q20 0 49 16t71 37l21 -33 q-5 -47 -71 -71t-109 -25z" />
<glyph unicode="S" d="M807 233q0 66 -111 103q-55 18 -191 40t-319 64q-135 47 -135 131q-1 213 275 429t471 217q158 0 157 -197q0 -33 -20 -76t-47 -43q-17 1 -35 19t-16 35t3 31t4 26q3 13 3 18v2q0 96 -66 96q-122 0 -376 -210t-254 -328q0 -49 100 -80q38 -12 236 -47t284 -76 q131 -61 131 -186t-148 -241t-286 -116h-47q-86 0 -170 58t-84 145q0 27 16 69t35 42q37 0 37 -35l-14 -64q0 -55 51 -86t119 -30q135 0 266 84t131 206z" />
<glyph unicode="T" horiz-adv-x="1138" d="M586 -170q-125 0 -187 215q-43 143 -43 311v172q0 18 27 424q8 143 78 146q53 0 53 -62q0 -32 -20 -100q-66 -232 -39 -606q2 -84 30 -260q23 -92 41 -121q35 -49 92 -55q27 -2 27 -20q1 -18 -17 -31t-42 -13zM977 977q-23 0 -16 41l16 43q0 84 -293 84q-236 0 -550 -157 q-166 -83 -200 -83q-55 0 -55 49t203 125q202 76 354 113t270 37t216 -29q131 -39 131 -119q0 -63 -45 -90q-16 -14 -31 -14z" />
<glyph unicode="U" horiz-adv-x="1230" d="M274 -168q-66 0 -98 51q-27 39 -26 101q0 117 71 387q172 569 172 665q0 39 -26 39q-39 0 -121 -88q-4 -6 -70 -84q-41 -41 -59 -41q-31 0 -51 45q4 47 92 121t147 102q43 25 88 25t69 -46t25 -93q0 -130 -119 -490t-118 -530q0 -88 18 -88q160 0 459 631q51 111 94 272 q14 37 31 117q4 80 10 135q18 92 72 92t53 -61q0 -34 -29 -150q-16 -84 -24 -156t-8 -303q6 -97 19 -305t91 -209q33 0 49 54q8 25 27 24q33 0 33 -45t-32 -75t-73 -29q-127 0 -178 241q-31 141 -31 334q1 22 5 100q-80 -236 -236 -464q-186 -279 -326 -279z" />
<glyph unicode="V" horiz-adv-x="1226" d="M596 -154q-88 0 -160 256q-18 59 -69 334q-104 559 -185 559q-47 -1 -131 -117t-112 -116q-49 0 -49 45t98 137q100 92 147 110t82 17q90 0 154 -192q37 -109 84 -390q16 -117 57 -330t72 -212q37 0 73 157q70 291 166 594q152 459 238 459q25 1 44 -21t9 -40 q-78 -113 -133 -256q-121 -324 -174 -537t-105 -391q-23 -66 -106 -66z" />
<glyph unicode="W" horiz-adv-x="1640" d="M190 1010q199 0 199 -495q0 -167 -8 -329q96 268 223 522t205 255q66 0 65 -66q0 -18 -16 -47q-4 -41 -4 -82q0 -246 72 -526q86 -330 209 -330q139 0 229 317q70 240 70 436t-41 347q-66 221 -203 221q-43 0 -92 -51q-29 0 -33 2t-18 26q2 43 73 74q55 27 101 27 q139 0 231 -183q72 -141 82 -294v-50q0 -301 -92 -589q-115 -362 -303 -363q-195 0 -299 406q-74 287 -74 569q0 10 2 16q-43 -43 -201 -385q-92 -207 -153 -444q-12 -55 -15 -74q-10 -106 -51 -115q-6 -2 -20 -2q-57 0 -54 66l23 281q0 350 -8 440q-25 340 -107 340 q-45 0 -116 -96q-31 -47 -97 -142q-39 -53 -78 -57l-41 29q4 80 136 210q131 135 204 136z" />
<glyph unicode="X" horiz-adv-x="1251" d="M92 -51q0 140 283 514q98 131 98 135q0 24 -132 235t-174 279t-42 92q0 59 57 60q37 0 64 -45q0 -2 80 -160l96 -193q61 -113 113 -184q80 96 298 351t267 255q16 0 34 -16t19 -38q0 -22 -14 -36q-50 -52 -208 -212q-345 -348 -345 -386q0 -23 155 -227 q193 -258 310 -258q29 1 53 29t41 28q35 0 35 -42t-56 -72t-106 -29q-137 0 -285 188q-37 51 -107 151t-106 150q-141 -193 -205 -299q-123 -207 -122 -328q0 -23 36 -67l-24 -37q-49 5 -81 65t-32 97z" />
<glyph unicode="Y" horiz-adv-x="1081" d="M283 -856q-109 0 -203 88q-94 82 -135 205q-4 31 -2 37q4 36 26 22t49 -55q125 -205 258 -205q291 0 461 404q119 276 140 589q18 241 18 395t-37 355q-12 -39 -67 -225q-91 -290 -269 -564t-313 -274q-129 0 -129 168q0 109 79 375q79 265 119 413t40 218t-33 71 q-37 0 -170 -125t-156 -125q-45 1 -45 51t162 168t227 117q115 0 115 -126t-80 -404q-31 -96 -125 -414q-37 -143 -37 -228t43 -85q72 0 256 315q319 547 332 836v55q-2 27 -2 53q0 59 51 60q57 1 94 -267t37 -356q0 -412 -37 -653q-57 -365 -217 -619q-168 -270 -450 -270z " />
<glyph unicode="Z" horiz-adv-x="1431" d="M1260 -176q-29 0 -29 35q0 10 7 27t7 51q0 68 -84 110q-71 39 -185 39t-280 -47q-106 -35 -304 -107t-220 -73q-88 0 -88 102q0 80 133 225q61 70 183 185t468 403q345 288 365 289q19 -1 35 -13t21 -21l1 9q0 59 -168 60q-120 0 -268 -35t-338 -88t-221 -53 q-57 0 -57 57q0 29 53 51q90 31 223 55l227 41q251 54 361 54t174 -31q84 -41 84 -119q0 -49 -24 -82t-40 -33q-29 0 -22 35l7 38q-36 -41 -171 -146q-940 -750 -940 -860q0 -14 27 -15q4 0 475 148q227 65 345 65t212 -66t94 -173q0 -40 -31 -99q-14 -18 -32 -18z" />
<glyph unicode="[" horiz-adv-x="751" d="M430 -72q-59 0 -109 -11t-57 -11q-57 0 -57 45q0 16 14 29q-80 106 -80 458t39 611q4 78 21 192q4 16 16 34q-34 -9 -72 -23t-59 -9q-35 6 -29 37q10 47 86 66q152 39 267 34q86 0 159 -26q100 -33 101 -88q0 -55 -27 -56q-29 0 -45 43q-18 51 -160 52q-68 0 -135 -11 q17 -18 10 -61l-45 -287q-43 -284 -43 -614t94 -330l78 4q86 0 162 -24q106 -33 107 -101q-1 -29 -15 -37q-12 -4 -47 -4q-14 88 -174 88z" />
<glyph unicode="\" horiz-adv-x="1198" d="M94 -205q-27 0 -26 35q0 12 6 25q113 264 423 653t547 551q10 8 34 8t40 -29t-12 -47q-244 -164 -555 -542q-318 -379 -424 -627q-12 -27 -33 -27z" />
<glyph unicode="]" horiz-adv-x="681" d="M129 -195q-51 1 -51 57t332 128q-72 102 -72 410t47 675q2 37 21 191q2 14 12 28t13 16q-45 4 -155 0t-200 -24q-41 -8 -41 43q0 10 2 14q16 53 300 53t310 -81q12 -39 -29 -39q-6 0 -34 8t-64 14q4 -16 0 -38l-47 -289q-53 -367 -53 -665t92 -298q37 0 37 -35 q0 -41 -72 -57q-172 -39 -255 -75t-93 -36z" />
<glyph unicode="^" horiz-adv-x="1228" d="M96 510l453 887h131l453 -887h-146l-373 739l-372 -739h-146z" />
<glyph unicode="_" horiz-adv-x="477" d="M53 -268q-12 0 -20 11t-8 26q0 39 28 38h369q29 0 29 -38q-1 -13 -9 -25t-20 -12h-369z" />
<glyph unicode="`" horiz-adv-x="454" d="M126 1192q52 0 58 -33q10 -68 44 -125t67 -69t33 -35q0 -35 -45 -21q-74 29 -142 109q-63 80 -67 135q0 39 52 39z" />
<glyph unicode="a" horiz-adv-x="835" d="M514 215q0 29 2 43q-94 -125 -223 -248q-156 -143 -248 -143q-29 -1 -59 21t-29 85q0 129 134 340t300 353t250 88q39 -25 39 -112t-66 -93q-45 -2 -45 33q1 6 13 32t10 55q-2 30 -6 29q-102 -18 -330 -313q-225 -297 -225 -405q0 -39 35 -39q88 0 278 229 q137 166 145 178q55 76 66 148q6 47 49 47q63 0 51 -62q-51 -256 -51 -319q0 -104 47 -117q16 -4 35 6q12 8 16 19q10 43 44 43t32 -27q0 -12 -6 -27q-31 -80 -115 -79q-27 0 -45 8q-98 33 -98 227z" />
<glyph unicode="b" horiz-adv-x="897" d="M655 584q51 0 110 -35t58 -103q0 -160 -231 -389t-385 -229q-125 0 -125 92q0 51 49 103q12 12 34 12t21 -17q0 -14 -20 -42t-21 -46q0 -27 39 -26q125 0 342 217t217 332q0 63 -84 63q-205 0 -501 -393l-4 -4q-74 -124 -105 -123q-66 0 -88 92q-6 41 -6 145 q0 182 94 552t154 370q18 0 41 -14q22 -15 22 -31t-2 -20q-106 -272 -123 -322q-106 -322 -106 -567q0 -49 12 -92q106 178 260 311q188 164 348 164z" />
<glyph unicode="c" horiz-adv-x="684" d="M548 602q-20 0 -54 37t-70 37q-125 0 -256 -234q-117 -206 -117 -328q-1 -122 107 -122t210 67t173 177q6 12 17 12q10 0 22 -16t8 -27q-10 -35 -110 -134t-124 -110q-100 -55 -127 -55q-2 0 -26 -4l-25 -2q-106 0 -156 70t-51 165q0 152 135 367q158 250 330 250 q28 0 96 -30t70 -75q2 -18 -15 -32q-17 -13 -37 -13z" />
<glyph unicode="d" horiz-adv-x="933" d="M51 -66q88 0 291 203t233 273q52 121 12 189q-17 30 -40 34q-115 23 -317 -267t-201 -403q0 -29 22 -29zM825 -38q0 -20 -30 -42q-29 -16 -54 -16q-147 0 -147 342q0 44 2 73l-39 -47q-328 -418 -477 -417h-21q-102 0 -102 104q0 84 91 267t228 331t261 148q45 0 96 -35 q6 32 25 140t34 185q39 205 86 205q18 0 36 -16t20 -30q0 -14 -25 -97q-131 -442 -131 -854q0 -236 72 -236l59 31q16 -16 16 -36z" />
<glyph unicode="e" horiz-adv-x="681" d="M133 354q0 -10 47 -14q80 -4 173 114t93 208q1 38 -35 29t-65 -46q-213 -250 -213 -291zM43 53q-1 -80 103 -80t236 115t187 240h33q20 -18 14 -35q-57 -168 -193 -282t-271 -113q-98 0 -148 66t-43 175q10 158 164 381q166 244 303 244q46 0 68 -37t22 -72 q0 -98 -86 -231q-100 -156 -229 -156q-61 0 -94 27l-5 2q-18 -16 -40 -98t-21 -146z" />
<glyph unicode="f" horiz-adv-x="507" d="M-51 324q-1 16 19 32t145 74l20 10q31 346 55 449q78 305 263 305q65 0 113 -68t48 -141q0 -72 -34 -88q-23 9 -26 29t-5 36t-4 27q-2 41 -35 86q-33 51 -72 51q-175 0 -211 -657q13 2 51 11t62 9q92 0 119 -67q6 -12 6 -32t-14 -21q-18 -5 -43 25t-62 30t-78 -14 t-50 -28t-9 -72q0 -60 15 -220t16 -172q0 -68 -56 -68t-49 72q2 12 2 20t-10 406l-141 -76q-35 0 -35 52z" />
<glyph unicode="g" horiz-adv-x="815" d="M276 -719q-129 0 -235 117t-107 250q0 59 41 59q29 0 29 -35q-4 -119 76 -211t178 -92q203 0 301 299q61 193 62 383q0 381 -68 381q-4 0 -87 -126t-136 -191q-133 -152 -242 -152q-55 0 -90 43q-29 41 -29 92q0 172 218 446t358 273q57 0 90 -63q27 -45 27 -97 q0 -86 -48 -86q-57 0 -49 105q2 63 -22 63q-76 0 -207 -147q-92 -104 -150 -203q-41 -47 -90 -146t-49 -151t16 -53q74 0 195 129q49 53 172 211t154 158q72 0 104 -203q25 -139 25 -268q1 -328 -129 -556t-308 -229z" />
<glyph unicode="h" horiz-adv-x="700" d="M598 -16q18 0 44 18t28 18q31 0 30 -30q0 -27 -40 -48t-64 -22q-125 0 -158 332q-6 78 -24 217q-16 84 -37 84q-59 0 -152 -188q-127 -258 -145 -476q-2 -14 -20 -29q-18 -16 -34 -16q-17 0 -24 17q-16 43 -16 259t68 638t130 424q51 0 52 -49l-16 -53q-8 -30 -34 -104 t-41 -165q-61 -356 -71 -614l10 22q164 403 301 404q115 0 143 -336q6 -78 25 -217q16 -86 45 -86z" />
<glyph unicode="i" horiz-adv-x="319" d="M186 -123q-94 0 -147 152q-37 104 -37 196t23 232q33 193 92 192q47 0 47 -53q0 -22 -30 -94t-42 -248q4 -84 0 -100q14 -76 27 -127q29 -84 78 -84q12 0 22 12t35 22q20 -19 20 -39t-30 -40t-58 -21zM125 889q-23 0 -38 18t-15 40t16 41t39 20q53 0 53 -60t-55 -59z" />
<glyph unicode="j" horiz-adv-x="342" d="M-156 -735q-156 0 -259 101t-103 249q0 49 35 49t32 -39q-6 -102 71 -191t181 -89q221 0 324 342q65 219 65 470t-49 441q-6 20 6 54t50 34q80 0 79 -475q0 -172 -8 -231q-29 -268 -139 -476q-129 -239 -285 -239zM217 805q-57 0 -57 49q0 43 52 43t52 -37q0 -55 -47 -55 z" />
<glyph unicode="k" horiz-adv-x="786" d="M139 1200q8 0 32 -17t24 -31t-2 -17q-137 -393 -138 -781q0 -209 45 -356q20 -70 52 -78q45 -12 45 -37q1 -12 -13 -23t-26 -7q-121 29 -166 204q-23 90 -27 287q-3 74 57 465t117 391zM193 199q-12 0 -35 -2h-37q-45 0 -45 65q0 6 64 70t138 158q73 95 138 258 q23 53 49 53q53 0 53 -62q0 -117 -313 -446q215 -39 321 -88q182 -90 183 -250q-1 -16 -15 -61t-35 -52l-17 4q1 0 1 -2q-16 10 -16 25l18 65q0 143 -188 216q-129 49 -264 49z" />
<glyph unicode="l" horiz-adv-x="370" d="M217 -145q-78 0 -137 90q-76 125 -76 391t32 555t77 289q53 0 53 -60q0 -6 -6 -35l-13 -73q-6 -33 -26 -166q-29 -252 -29 -553q0 -375 131 -375q25 0 37 19h23l18 -19v2q4 -4 4 -22q-35 -43 -88 -43z" />
<glyph unicode="m" horiz-adv-x="1275" d="M428 6q-76 0 -86 170q-2 37 10 299q4 55 -10 55q-35 0 -175 -256t-149 -348q-2 -37 -47 -37q-20 0 -37 66q-10 55 -10 74q0 388 32 508t64 120q23 0 41 -16t15 -31q-59 -217 -62 -448q111 199 154 264q125 193 194 192q84 0 82 -202q-4 -23 -6 -97q-6 -70 -6 -129 t17 -102q37 12 115 118t138 206q136 233 198 233t77 -117q10 -123 16 -223q18 -272 97 -276q28 1 52 31t38 30q28 0 28 -36t-46 -62t-75 -27q-88 0 -143 129q-45 96 -45 180v15l2 86q6 180 -22 180q-3 0 -49 -73q-46 -74 -94 -148t-66 -102t-23 -33q-137 -193 -219 -193z " />
<glyph unicode="n" horiz-adv-x="788" d="M412 647q88 0 116 -129q6 -63 18 -185t21 -190q20 -143 68 -143q18 0 53 35l39 -12q2 -37 -35 -66q-29 -18 -51 -18q-147 0 -182 331q-26 301 -51 301q-35 0 -170 -214t-195 -400q-14 -49 -49 -49q-47 0 -43 47q0 6 34 227t42 350q10 84 61 84q31 0 38 -15t11 -31t6 -21 l-61 -305l18 30q219 373 312 373z" />
<glyph unicode="o" horiz-adv-x="638" d="M-16 115q0 162 76 343t141 181q20 0 33 -5q4 34 70 66t95 31q166 0 172 -256q2 -123 -110 -325q-133 -238 -285 -250q-90 -10 -141 55t-51 160zM260 586q0 -8 -35 -56q-162 -211 -162 -385t80 -174q121 0 238 222q100 188 100 305q0 168 -82 168q-63 0 -135 -68l-5 2 q1 -6 1 -14z" />
<glyph unicode="p" horiz-adv-x="759" d="M229 43q129 0 250 207q107 180 107 290t-56 111q-111 0 -253 -175t-162 -279q-37 -174 -41 -430q-4 -342 100 -342q6 0 64 22v-39q0 -20 -31 -34t-41 -11q-88 10 -133 125q-39 92 -41 213q-2 39 -2 193t51 688q14 150 86 149q47 0 47 -49q0 -8 -2 -12l-49 -256 q209 305 416 305q137 0 137 -195q0 -164 -147 -362t-283 -197q-102 0 -103 105q0 35 21 84h43l-6 -86q0 -25 28 -25z" />
<glyph unicode="q" horiz-adv-x="833" d="M553 715q0 12 -12 12q-45 0 -226 -190q-75 -83 -189 -251t-114 -251q0 -10 15 -10q78 0 270 178t217 256q12 49 22 79t52 31q57 0 57 -61h-4q4 -2 2 -6l-6 -21q-142 -525 -141 -805q0 -66 18 -120q29 -90 90 -91q51 0 76 52q29 49 39 49q33 0 33 -44t-50 -82t-98 -38 q-109 0 -162 115q-37 82 -36 182q0 186 88 606l2 6q-287 -369 -443 -368h-20q-47 0 -75 41t-28 77q0 152 244 444t358 292q96 0 97 -129q0 -94 -56 -95q-45 0 -45 52v12q25 75 25 78z" />
<glyph unicode="r" horiz-adv-x="538" d="M440 641q-14 0 -20 12q-8 26 -10 37q-2 20 -27 21q-53 0 -137 -118q-84 -117 -121 -223t-35 -249q0 -2 6 -166q0 -21 -19 -37t-40 -16q-57 0 -49 88q18 207 18 345t-18 320q-2 20 17 42t47 22t42 -33q10 -29 8 -47q-14 -106 -12 -180q127 324 272 323q98 0 113 -88 q10 -53 -35 -53z" />
<glyph unicode="s" horiz-adv-x="565" d="M473 635q-6 0 -39 17t-53 22q-68 6 -196 -104t-128 -187q0 -43 150 -43q289 0 289 -160q0 -115 -121 -201t-240 -85q-53 0 -94 32q-51 33 -51 92q0 27 22 60t39 33q18 0 23 -2q-4 -37 -12 -53t-7 -27q0 -45 56 -45q85 0 201 58t116 126q0 42 -38 66t-81 28l-196 6 q-53 4 -105 25t-53 61q0 102 158 257t270 155q29 0 78 -26t49 -66t-37 -39z" />
<glyph unicode="t" horiz-adv-x="577" d="M274 891q46 0 48 -57l-43 -254q51 10 97 10t91 -24t45 -64q0 -10 -2 -15l-2 -2l-4 -8q-6 -2 -8 -3t0 -3h-2q-4 -2 -12 -2t-19 10q-20 49 -69 49t-124 -45v-16q-14 -96 -8 -250q8 -270 123 -270q31 0 57 33t37 32q33 0 33 -30q0 -35 -59 -70q-51 -27 -76 -27 q-92 0 -148 101q-83 149 -51 469q-55 -20 -100 -54t-58 -34q-27 0 -26 57q0 37 168 117l20 4q4 27 12 99t11 108q16 139 69 139z" />
<glyph unicode="u" horiz-adv-x="804" d="M63 -96q-96 0 -96 192q0 59 63 315t109 261q25 0 44 -14t19 -26q0 -13 -5 -30l-19 -47q-131 -348 -131 -492q0 -86 31 -86q39 -1 118 99q78 100 166 270t89 264q2 33 21 61t44 27q51 0 51 -51q0 -8 -17 -103t-18 -171q0 -322 99 -322q25 1 45 21t43 34q23 -23 22 -32 q0 -39 -46 -64t-70 -24q-158 0 -187 348l-2 18q-104 -223 -141 -280q-111 -168 -232 -168z" />
<glyph unicode="v" horiz-adv-x="675" d="M254 -98q-29 0 -70 114q-12 43 -82 244q-63 144 -114 232q-50 88 -52 109t21 38q16 10 33 10q41 0 133 -221q6 -12 75 -192t69 -189l36 90q109 274 141 340q119 229 232 230q45 0 45 -39q0 -18 -27 -25q-6 -2 -16 2h-2q-59 4 -187 -258q-27 -59 -75 -178t-76 -178 q-55 -129 -84 -129z" />
<glyph unicode="w" horiz-adv-x="1046" d="M770 739q-45 -1 -45 17t36 38t66 19q80 0 123 -123q33 -86 33 -189t-70 -263q-86 -205 -188 -205t-197 160q-63 111 -110 256q-45 -117 -125 -302q-119 -260 -207 -260q-63 0 -90 113q-18 74 -13 161t23 288q23 164 76 163q47 0 47 -59q0 -10 -2 -18q-66 -303 -66 -431 q-8 -125 15 -124q59 0 160 210q63 131 112 271q31 104 35 123q23 72 53 71q12 0 33 -10q29 -16 25 -41q-10 -92 51 -270q74 -221 184 -221q55 -1 109 149t53 293q0 25 -4 61q-14 135 -74 136q-33 -13 -43 -13z" />
<glyph unicode="x" horiz-adv-x="862" d="M672 45q-133 0 -398 305q-61 -63 -143 -211t-82 -217q0 -18 17 -63l-39 -15q-17 14 -37 54t-21 59q-1 97 115 273t124 178q-39 48 -137 168t-98 167q1 15 13 31t24 17q31 0 141 -152t117 -152q2 0 146 199q143 199 180 199q18 0 35 -23q10 -20 10 -38t-158 -195 q-157 -178 -157 -203t138 -155t165 -138q6 0 30 -12q23 -6 43 -6t56 32q39 7 39 -23q1 -30 -53 -54t-70 -25z" />
<glyph unicode="y" horiz-adv-x="712" d="M143 -657q-150 0 -260 117t-110 206q0 43 34 43q19 -1 27 -23t16 -55q31 -84 99 -141t151 -63q219 -18 344 239q102 211 103 465q0 174 -49 432q-94 -238 -146 -332q-137 -262 -264 -262q-98 -1 -98 145t74 405t133 265q20 2 43 -15q22 -17 22 -29t-2 -13 q-59 -92 -123 -264t-63 -334q0 -88 26 -88q32 -1 90 89t82 136q193 311 172 471q-8 70 52 70q55 0 65 -102l2 -15q25 -227 49 -268q24 -42 24 -284t-101 -476q-138 -319 -392 -319z" />
<glyph unicode="z" horiz-adv-x="823" d="M-55 -10q0 102 454 432q198 145 219 164q-102 6 -278 -25t-208 -41t-42 -10q-61 0 -61 49q0 25 41 47q37 16 51 17q63 0 442 36q139 0 139 -71q0 -33 -90 -111q-92 -74 -156 -120q-63 -46 -263 -197q-147 -117 -160 -162q16 0 30 -2q369 100 452 100t144 -26 q92 -41 93 -113q0 -6 -17 -39q-16 0 -32 11q-15 11 -15 20q4 74 -133 74q-98 0 -446 -115q-72 -23 -80 -23q-51 1 -45 58v4q-39 20 -39 43z" />
<glyph unicode="{" horiz-adv-x="606" d="M182 270q0 -332 205 -393q14 -20 14 -41q0 -49 -61 -33q-129 31 -195 197q-49 131 -49 303q0 173 33 315t120 300t204 235q10 6 18 6q27 0 39 -33q14 -31 -4 -53q-324 -377 -324 -803z" />
<glyph unicode="|" horiz-adv-x="454" d="M154 -29v1565h147v-1565h-147z" />
<glyph unicode="}" horiz-adv-x="536" d="M45 -209q-27 0 -27 23q0 12 9 20q229 266 307 604q29 125 28 250q0 332 -204 393q-14 20 -15 41q0 49 62 33q129 -27 194 -197q49 -134 49 -304t-32 -312q-33 -142 -120 -301q-87 -158 -204 -236q-20 -14 -47 -14z" />
<glyph unicode="~" horiz-adv-x="1228" d="M143 489q-1 9 53 65t76 71q68 61 157 61t209 -66t183 -49q29 8 88 44t85 36t40 -20t-6 -41q-127 -129 -260 -129q-50 0 -78 12t-112 52t-147 40q-62 0 -132 -43q-39 -32 -65 -50t-50 -17q-41 0 -41 34z" />
<glyph unicode="&#xa1;" horiz-adv-x="684" />
<glyph unicode="&#xa2;" horiz-adv-x="815" d="M174 78q0 -131 109 -131q18 0 55 4q-4 299 49 586q-85 -93 -149 -243t-64 -216zM92 99q0 103 96 291t224 269q18 82 51 166q11 23 35 23t38 -14t9 -33q-20 -49 -35 -99q30 4 54 4t88 -28q64 -29 69 -76q2 -18 -16 -35q-16 -10 -35 -10t-54 37q-36 37 -68 37t-61 -15 q-80 -319 -88 -649q156 57 263 226q10 10 20 10q10 -1 21 -17t8 -26q-9 -35 -113 -136t-121 -108q-18 -12 -78 -43q0 -102 13 -174q6 -37 -22 -37t-34 35q-10 82 -16 164l-43 -6q-105 0 -155 70t-50 174z" />
<glyph unicode="&#xa3;" horiz-adv-x="1138" />
<glyph unicode="&#xa4;" horiz-adv-x="1138" />
<glyph unicode="&#xa5;" horiz-adv-x="1138" />
<glyph unicode="&#xa6;" horiz-adv-x="454" />
<glyph unicode="&#xa7;" horiz-adv-x="1138" />
<glyph unicode="&#xa8;" horiz-adv-x="454" />
<glyph unicode="&#xa9;" horiz-adv-x="1638" />
<glyph unicode="&#xaa;" horiz-adv-x="665" />
<glyph unicode="&#xab;" horiz-adv-x="1138" d="M520 160l-315 379l336 399l77 -57l-241 -342l223 -332zM868 160l-315 379l336 399l78 -57l-242 -342l223 -332z" />
<glyph unicode="&#xac;" horiz-adv-x="1228" />
<glyph unicode="&#xae;" horiz-adv-x="1638" />
<glyph unicode="&#xaf;" horiz-adv-x="454" d="M-53 1237v123h561v-123h-561z" />
<glyph unicode="&#xb0;" horiz-adv-x="819" d="M227 1124q-1 -76 53 -129t130 -53t129 53t53 129t-53 129t-129 53t-130 -52q-54 -54 -53 -130zM117 1124q0 123 85 208t208 85q124 0 208 -85t84 -208t-85 -208t-207 -85t-208 85q-85 85 -85 208z" />
<glyph unicode="&#xb1;" horiz-adv-x="1228" />
<glyph unicode="&#xb2;" horiz-adv-x="739" />
<glyph unicode="&#xb3;" horiz-adv-x="739" />
<glyph unicode="&#xb4;" horiz-adv-x="440" d="M74 930q0 23 32 35t67 69q34 57 44 125q7 33 59 33t52 -39q-4 -55 -70 -135t-139 -109q-45 -14 -45 21z" />
<glyph unicode="&#xb5;" horiz-adv-x="1138" />
<glyph unicode="&#xb6;" horiz-adv-x="1228" />
<glyph unicode="&#xb7;" horiz-adv-x="569" d="M156 598q0 53 38 91t91 38t91 -38t38 -91t-38 -91t-91 -38t-91 38t-38 91z" />
<glyph unicode="&#xb8;" horiz-adv-x="454" />
<glyph unicode="&#xb9;" horiz-adv-x="739" d="M162 1108l-68 78l299 231h121l-12 -850h-135l12 717z" />
<glyph unicode="&#xba;" horiz-adv-x="741" d="M47 1087q0 143 87 237q86 94 234 93q148 0 237 -86t89 -229q0 -142 -87 -236t-234 -94t-237 86q-89 86 -89 229zM182 1094q0 -98 49 -160t133 -64q84 0 140 64q55 64 55 162t-49 160t-133 62q-83 0 -139 -62q-56 -64 -56 -162z" />
<glyph unicode="&#xbb;" horiz-adv-x="1138" d="M520 217l242 342l-223 332l79 47l316 -379l-336 -399zM172 217l242 342l-224 332l80 47l316 -379l-336 -399z" />
<glyph unicode="&#xbc;" horiz-adv-x="1708" />
<glyph unicode="&#xbd;" horiz-adv-x="1708" />
<glyph unicode="&#xbe;" horiz-adv-x="1708" />
<glyph unicode="&#xbf;" horiz-adv-x="876" d="M-131 -610q0 109 154 241q94 72 264 200t170 189q0 37 -31 39q-55 10 -55 33q0 41 48 41t81 -36t32 -85q0 -84 -151 -211q-213 -166 -281 -217q-152 -127 -151 -198q0 -137 209 -138q182 0 452 189q108 76 115 76q45 1 45 -51t-158 -142t-254 -117q-94 -27 -204 -26 q-285 0 -285 213zM442 301q-68 0 -67 53q0 16 25 34q26 17 46 18q63 0 64 -48q0 -57 -68 -57z" />
<glyph unicode="&#xc0;" horiz-adv-x="1366" d="M582 1528q52 0 59 -33q10 -68 44 -125t71 -72q29 -10 28 -32q0 -35 -45 -21q-74 29 -141 109q-66 80 -68 135q0 39 52 39zM645 1067q-76 0 -336 -627q246 70 453 86q-6 101 -31 320q-35 221 -86 221zM692 432q-64 0 -248 -42t-190 -54q-23 -57 -79 -188t-114 -281 q-41 -98 -86 -98q-53 0 -53 59q0 27 162 342q49 104 57 123q-57 -23 -83 -42t-54 -20q-51 0 -51 52q0 37 95 69t138 47q24 47 80 172t162 340q123 240 240 240q55 0 94 -70q27 -45 39 -96q31 -150 51 -467q201 -18 201 -141q0 -43 -35 -62q-47 -23 -47 29q0 2 10 33 q0 55 -133 55q12 0 16 -22q68 -465 146 -465q14 0 30 10q31 25 45 25q37 4 37 -43q0 -29 -42 -47t-68 -17q-186 2 -244 557q-12 2 -76 2z" />
<glyph unicode="&#xc1;" horiz-adv-x="1366" d="M530 1266q0 23 29 32q37 14 71 72t44 125q6 33 58 33t52 -39q-2 -55 -68 -135t-141 -109q-45 -14 -45 21zM645 1067q-76 0 -336 -627q246 70 453 86q-6 101 -31 320q-35 221 -86 221zM694 432q-62 0 -248 -42t-192 -54q-23 -57 -79 -188t-114 -281q-41 -98 -86 -98 q-53 0 -53 59q0 27 162 342q49 104 57 123q-57 -23 -85 -42t-52 -20q-51 0 -51 52q0 37 95 69t138 47q24 47 80 172t162 340q123 240 240 240q55 0 94 -70q27 -45 39 -96q31 -150 51 -467q201 -18 201 -141q0 -43 -35 -62q-47 -23 -47 29q0 2 10 33q0 55 -133 55 q12 0 16 -22q68 -465 146 -465q14 0 30 10q31 25 45 25q37 4 37 -43q0 -29 -42 -47t-68 -17q-186 2 -244 557q-12 2 -74 2z" />
<glyph unicode="&#xc2;" horiz-adv-x="1366" d="M721 1526q-98 59 -134 59t-83 -59q-20 -18 -33 -19q-20 0 -20 25q0 6 28 47q31 41 54 65t67 25q42 0 104 -46t93 -34q10 2 43 29t46 27t19 -15q8 -12 -2 -28q-66 -90 -133 -91q-26 1 -49 15zM645 1067q-76 0 -336 -627q246 70 453 86q-6 101 -31 320q-35 221 -86 221z M694 432q-62 0 -248 -42t-192 -54q-23 -57 -79 -188t-114 -281q-41 -98 -86 -98q-53 0 -53 59q0 27 162 342q49 104 57 123q-57 -23 -85 -42t-52 -20q-51 0 -51 52q0 37 95 69t138 47q24 47 80 172t162 340q123 240 240 240q55 0 94 -70q27 -45 39 -96q31 -150 51 -467 q201 -18 201 -141q0 -43 -35 -62q-47 -23 -47 29q0 2 10 33q0 55 -133 55q12 0 16 -22q68 -465 146 -465q14 0 30 10q31 25 45 25q37 4 37 -43q0 -29 -42 -47t-68 -17q-186 2 -244 557q-12 2 -74 2z" />
<glyph unicode="&#xc3;" horiz-adv-x="1366" d="M837 1536q-75 0 -173 37t-138 37t-64 -28t-30 -66h-98q10 94 62 155t125 61t173 -36q100 -37 129 -37q97 0 105 94h106q-12 -93 -67 -155t-130 -62zM645 1067q-76 0 -336 -627q246 70 453 86q-6 101 -31 320q-35 221 -86 221zM694 432q-62 0 -248 -42t-192 -54 q-23 -57 -79 -188t-114 -281q-41 -98 -86 -98q-53 0 -53 59q0 27 162 342q49 104 57 123q-57 -23 -85 -42t-52 -20q-51 0 -51 52q0 37 95 69t138 47q24 47 80 172t162 340q123 240 240 240q55 0 94 -70q27 -45 39 -96q31 -150 51 -467q201 -18 201 -141q0 -43 -35 -62 q-47 -23 -47 29q0 2 10 33q0 55 -133 55q12 0 16 -22q68 -465 146 -465q14 0 30 10q31 25 45 25q37 4 37 -43q0 -29 -42 -47t-68 -17q-186 2 -244 557q-12 2 -74 2z" />
<glyph unicode="&#xc4;" horiz-adv-x="1366" d="M645 1067q-76 0 -336 -627q246 70 453 86q-6 101 -31 320q-35 221 -86 221zM694 432q-62 0 -248 -42t-192 -54q-23 -57 -79 -188t-114 -281q-41 -98 -86 -98q-53 0 -53 59q0 27 162 342q49 104 57 123q-57 -23 -85 -42t-52 -20q-51 0 -51 52q0 37 95 69t138 47 q24 47 80 172t162 340q123 240 240 240q55 0 94 -70q27 -45 39 -96q31 -150 51 -467q201 -18 201 -141q0 -43 -35 -62q-47 -23 -47 29q0 2 10 33q0 55 -133 55q12 0 16 -22q68 -465 146 -465q14 0 30 10q31 25 45 25q37 4 37 -43q0 -29 -42 -47t-68 -17q-186 2 -244 557 q-12 2 -74 2z" />
<glyph unicode="&#xc5;" horiz-adv-x="1366" d="M561 1710q0 -51 36 -87t87 -36t87 36t36 87t-36 87t-87 36t-87 -36t-36 -87zM475 1710q-1 86 61 148t148 61q86 0 147 -61q61 -62 61 -148t-60 -147q-62 -61 -148 -61t-148 60q-62 62 -61 148zM645 1067q-76 0 -336 -627q246 70 453 86q-6 101 -31 320q-35 221 -86 221z M694 432q-62 0 -248 -42t-192 -54q-23 -57 -79 -188t-114 -281q-41 -98 -86 -98q-53 0 -53 59q0 27 162 342q49 104 57 123q-57 -23 -85 -42t-52 -20q-51 0 -51 52q0 37 95 69t138 47q24 47 80 172t162 340q123 240 240 240q55 0 94 -70q27 -45 39 -96q31 -150 51 -467 q201 -18 201 -141q0 -43 -35 -62q-47 -23 -47 29q0 2 10 33q0 55 -133 55q12 0 16 -22q68 -465 146 -465q14 0 30 10q31 25 45 25q37 4 37 -43q0 -29 -42 -47t-68 -17q-186 2 -244 557q-12 2 -74 2z" />
<glyph unicode="&#xc6;" horiz-adv-x="1820" />
<glyph unicode="&#xc7;" horiz-adv-x="1366" />
<glyph unicode="&#xc8;" d="M410 1528q52 0 59 -33q10 -68 44 -125t71 -72q29 -10 28 -32q0 -35 -45 -21q-74 29 -141 109q-66 80 -68 135q0 39 52 39zM293 -129q-187 0 -185 213q0 80 6 170q5 90 7 129q-51 -31 -70 -31q-45 0 -45 60q0 35 117 86q4 52 28 291q10 99 40 148q-7 -3 -15 -5t-106 -69 t-111 -66q-55 0 -55 55q0 44 179 122t327 126q39 12 136 26q96 14 144 15q48 0 98 -32t50 -77t-22 -78q-22 -34 -36 -34q-30 -1 -30 36q2 8 2 35t-22 37t-85 10q-145 0 -390 -79q27 -14 28 -60l-25 -111q-22 -104 -47 -266q19 2 113 35t143 33q156 0 176 -74l-8 -47 q-41 -3 -59 21t-67 24q-50 0 -173 -30t-129 -54q-19 -66 0 -317q4 -78 14 -109q23 -53 89 -53t220 40t228 40t134 -46t60 -124l-45 -25q-49 109 -176 109q-74 0 -218 -37t-220 -37z" />
<glyph unicode="&#xc9;" d="M358 1266q0 23 29 32q37 14 71 72t44 125q6 33 58 33t52 -39q-2 -55 -68 -135t-141 -109q-45 -14 -45 21zM293 -129q-187 0 -185 213q0 80 6 170q5 90 7 129q-51 -31 -70 -31q-45 0 -45 60q0 35 117 86q4 52 28 291q10 99 40 148q-7 -3 -15 -5t-106 -69t-111 -66 q-55 0 -55 55q0 44 179 122t327 126q39 12 136 26q96 14 144 15q48 0 98 -32t50 -77t-22 -78q-22 -34 -36 -34q-30 -1 -30 36q2 8 2 35t-22 37t-85 10q-145 0 -390 -79q27 -14 28 -60l-25 -111q-22 -104 -47 -266q19 2 113 35t143 33q156 0 176 -74l-8 -47q-41 -3 -59 21 t-67 24q-50 0 -173 -30t-129 -54q-19 -66 0 -317q4 -78 14 -109q23 -53 89 -53t220 40t228 40t134 -46t60 -124l-45 -25q-49 109 -176 109q-74 0 -218 -37t-220 -37z" />
<glyph unicode="&#xca;" d="M549 1526q-98 59 -134 59t-83 -59q-20 -18 -33 -19q-20 0 -20 25q0 6 28 47q31 41 54 65t67 25q42 0 104 -46t93 -34q10 2 43 29t46 27t19 -15q8 -12 -2 -28q-66 -90 -133 -91q-26 1 -49 15zM293 -129q-187 0 -185 213q0 80 6 170q5 90 7 129q-51 -31 -70 -31 q-45 0 -45 60q0 35 117 86q4 52 28 291q10 99 40 148q-7 -3 -15 -5t-106 -69t-111 -66q-55 0 -55 55q0 44 179 122t327 126q39 12 136 26q96 14 144 15q48 0 98 -32t50 -77t-22 -78q-22 -34 -36 -34q-30 -1 -30 36q2 8 2 35t-22 37t-85 10q-145 0 -390 -79q27 -14 28 -60 l-25 -111q-22 -104 -47 -266q19 2 113 35t143 33q156 0 176 -74l-8 -47q-41 -3 -59 21t-67 24q-50 0 -173 -30t-129 -54q-19 -66 0 -317q4 -78 14 -109q23 -53 89 -53t220 40t228 40t134 -46t60 -124l-45 -25q-49 109 -176 109q-74 0 -218 -37t-220 -37z" />
<glyph unicode="&#xcb;" d="M293 -129q-187 0 -185 213q0 80 6 170q5 90 7 129q-51 -31 -70 -31q-45 0 -45 60q0 35 117 86q4 52 28 291q10 99 40 148q-7 -3 -15 -5t-106 -69t-111 -66q-55 0 -55 55q0 44 179 122t327 126q39 12 136 26q96 14 144 15q48 0 98 -32t50 -77t-22 -78q-22 -34 -36 -34 q-30 -1 -30 36q2 8 2 35t-22 37t-85 10q-145 0 -390 -79q27 -14 28 -60l-25 -111q-22 -104 -47 -266q19 2 113 35t143 33q156 0 176 -74l-8 -47q-41 -3 -59 21t-67 24q-50 0 -173 -30t-129 -54q-19 -66 0 -317q4 -78 14 -109q23 -53 89 -53t220 40t228 40t134 -46t60 -124 l-45 -25q-49 109 -176 109q-74 0 -218 -37t-220 -37z" />
<glyph unicode="&#xcc;" horiz-adv-x="569" d="M183 1528q52 0 59 -33q10 -68 44 -125t70 -72q29 -10 29 -32q0 -35 -45 -21q-74 29 -141 109q-63 80 -68 135q0 39 52 39zM632 -29q-173 0 -417 -106q-55 -23 -61 -23q-54 0 -54 58t332 125q-82 106 -82 430q0 225 33 446q2 41 20 193q2 12 16 31q-33 -9 -133 -45 t-142 -62q-42 -25 -48 -25q-41 0 -41 47q-1 60 233 126t316 66t162 -26q106 -33 106 -88t-26 -55q-31 0 -47 47t-156 47q-68 0 -137 -12q18 -17 12 -60q-78 -495 -78 -633q0 -406 95 -407l77 4q84 0 162 -24q106 -33 107 -101q-1 -27 -17 -37q-12 -4 -45 -4q-14 88 -187 88z " />
<glyph unicode="&#xcd;" horiz-adv-x="569" d="M131 1266q0 23 29 32q36 14 70 72t44 125q6 33 58 33t53 -39q-3 -55 -69 -135t-140 -109q-45 -14 -45 21zM632 -29q-173 0 -417 -106q-55 -23 -61 -23q-54 0 -54 58t332 125q-82 106 -82 430q0 225 33 446q2 41 20 193q2 12 16 31q-33 -9 -133 -45t-142 -62 q-42 -25 -48 -25q-41 0 -41 47q-1 60 233 126t316 66t162 -26q106 -33 106 -88t-26 -55q-31 0 -47 47t-156 47q-68 0 -137 -12q18 -17 12 -60q-78 -495 -78 -633q0 -406 95 -407l77 4q84 0 162 -24q106 -33 107 -101q-1 -27 -17 -37q-12 -4 -45 -4q-14 88 -187 88z" />
<glyph unicode="&#xce;" horiz-adv-x="569" d="M322 1526q-98 59 -131 59t-87 -59q-23 -18 -32 -19q-20 0 -21 25q0 6 29 47q31 41 54 65t66 25q42 0 104 -46t93 -34q10 2 43 29t46 27q12 1 20 -13t-2 -30q-66 -90 -133 -91q-26 1 -49 15zM632 -29q-173 0 -417 -106q-55 -23 -61 -23q-54 0 -54 58t332 125 q-82 106 -82 430q0 225 33 446q2 41 20 193q2 12 16 31q-33 -9 -133 -45t-142 -62q-42 -25 -48 -25q-41 0 -41 47q-1 60 233 126t316 66t162 -26q106 -33 106 -88t-26 -55q-31 0 -47 47t-156 47q-68 0 -137 -12q18 -17 12 -60q-78 -495 -78 -633q0 -406 95 -407l77 4 q84 0 162 -24q106 -33 107 -101q-1 -27 -17 -37q-12 -4 -45 -4q-14 88 -187 88z" />
<glyph unicode="&#xcf;" horiz-adv-x="569" d="M632 -29q-173 0 -417 -106q-55 -23 -61 -23q-54 0 -54 58t332 125q-82 106 -82 430q0 225 33 446q2 41 20 193q2 12 16 31q-33 -9 -133 -45t-142 -62q-42 -25 -48 -25q-41 0 -41 47q-1 60 233 126t316 66t162 -26q106 -33 106 -88t-26 -55q-31 0 -47 47t-156 47 q-68 0 -137 -12q18 -17 12 -60q-78 -495 -78 -633q0 -406 95 -407l77 4q84 0 162 -24q106 -33 107 -101q-1 -27 -17 -37q-12 -4 -45 -4q-14 88 -187 88z" />
<glyph unicode="&#xd0;" horiz-adv-x="1478" />
<glyph unicode="&#xd1;" horiz-adv-x="1478" d="M892 1536q-74 0 -172 37t-138 37q-39 0 -64 -28t-31 -66h-98q11 94 63 155t125 61t173 -36q100 -37 129 -37q96 0 104 94h107q-12 -93 -68 -155t-130 -62zM201 944q-53 0 -207 -184q-35 -45 -43 -48t-19 -3q-10 0 -24 19t-14 36q0 56 135 160t190 104q121 0 117 -166 l-4 -407q37 119 110 329q135 354 271 355q94 0 127 -144q8 -33 24 -213q4 -102 35 -430q43 -338 109 -338q10 0 32 18t43 23l35 -16q-4 -45 -44 -76t-68 -31q-109 0 -162 195q-31 119 -46 349t-38 429q-27 160 -74 160q-37 0 -143 -279q-121 -303 -154 -417 q-72 -246 -72 -439q4 -78 -57 -77q-57 0 -57 67q0 68 13 194t13 197l17 430q0 203 -45 203z" />
<glyph unicode="&#xd2;" horiz-adv-x="1708" d="M752 1528q52 0 59 -33q10 -68 44 -125t71 -72q29 -10 28 -32q0 -35 -45 -21q-74 29 -141 109q-63 80 -68 135q0 39 52 39zM414 635q0 -53 -60 -53t-100 34q-68 -158 -68 -296t54 -246q63 -129 182 -129q238 0 379 268q117 225 117 494q0 147 -72 280q-86 150 -215 161 q-129 10 -234 -92t-117 -214q4 24 36 62t56 38t40 -16t16 -41t-69 -104t-69 -87t22 -26t30 -19l49 6q23 0 23 -20zM436 -137q-188 0 -274 155q-68 121 -68 310q0 121 41 256q41 115 62 170q-10 203 132 346t324 129q164 -8 273 -193q92 -156 92 -321q0 -295 -137 -545 q-169 -307 -445 -307z" />
<glyph unicode="&#xd3;" horiz-adv-x="1708" d="M700 1266q0 23 29 32q37 14 71 72t44 125q6 33 58 33t52 -39q-4 -55 -67 -135q-68 -80 -142 -109q-45 -14 -45 21zM414 635q0 -53 -60 -53t-100 34q-68 -158 -68 -296t54 -246q63 -129 182 -129q238 0 379 268q117 225 117 494q0 147 -72 280q-86 150 -215 161 q-129 10 -234 -92t-117 -214q4 24 36 62t56 38t40 -16t16 -41t-69 -104t-69 -87t22 -26t30 -19l49 6q23 0 23 -20zM436 -137q-188 0 -274 155q-68 121 -68 310q0 121 41 256q41 115 62 170q-10 203 132 346t324 129q164 -8 273 -193q92 -156 92 -321q0 -295 -137 -545 q-169 -307 -445 -307z" />
<glyph unicode="&#xd4;" horiz-adv-x="1708" d="M891 1526q-98 59 -134 59t-83 -59q-23 -18 -33 -19q-20 0 -20 25q0 6 28 47q31 41 54 65t66 25q43 0 105 -46t93 -34q10 2 43 29t46 27t19 -15q8 -12 -2 -28q-66 -90 -133 -91q-26 1 -49 15zM414 635q0 -53 -60 -53t-100 34q-68 -158 -68 -296t54 -246q63 -129 182 -129 q238 0 379 268q117 225 117 494q0 147 -72 280q-86 150 -215 161q-129 10 -234 -92t-117 -214q4 24 36 62t56 38t40 -16t16 -41t-69 -104t-69 -87t22 -26t30 -19l49 6q23 0 23 -20zM436 -137q-188 0 -274 155q-68 121 -68 310q0 121 41 256q41 115 62 170q-10 203 132 346 t324 129q164 -8 273 -193q92 -156 92 -321q0 -295 -137 -545q-169 -307 -445 -307z" />
<glyph unicode="&#xd5;" horiz-adv-x="1708" d="M1007 1536q-75 0 -173 37t-138 37t-64 -28t-30 -66h-98q10 94 62 155t125 61t173 -36q100 -37 129 -37q97 0 105 94h106q-12 -93 -67 -155t-130 -62zM414 635q0 -53 -60 -53t-100 34q-68 -158 -68 -296t54 -246q63 -129 182 -129q238 0 379 268q117 225 117 494 q0 147 -72 280q-86 150 -215 161q-129 10 -234 -92t-117 -214q4 24 36 62t56 38t40 -16t16 -41t-69 -104t-69 -87t22 -26t30 -19l49 6q23 0 23 -20zM436 -137q-188 0 -274 155q-68 121 -68 310q0 121 41 256q41 115 62 170q-10 203 132 346t324 129q164 -8 273 -193 q92 -156 92 -321q0 -295 -137 -545q-169 -307 -445 -307z" />
<glyph unicode="&#xd6;" horiz-adv-x="1708" d="M414 635q0 -53 -60 -53t-100 34q-68 -158 -68 -296t54 -246q63 -129 182 -129q238 0 379 268q117 225 117 494q0 147 -72 280q-86 150 -215 161q-129 10 -234 -92t-117 -214q4 24 36 62t56 38t40 -16t16 -41t-69 -104t-69 -87t22 -26t30 -19l49 6q23 0 23 -20zM436 -137 q-188 0 -274 155q-68 121 -68 310q0 121 41 256q41 115 62 170q-10 203 132 346t324 129q164 -8 273 -193q92 -156 92 -321q0 -295 -137 -545q-169 -307 -445 -307z" />
<glyph unicode="&#xd7;" horiz-adv-x="997" d="M233 -68q111 45 205 134q-197 209 -264 344q-33 70 5 102t75 -12q8 -10 14 -23q113 -223 230 -348q104 115 219 338q35 63 82 40t12 -108q-60 -126 -252 -331q84 -78 193 -125q57 -25 69 -56q13 -31 -19 -39t-87 13q-113 51 -217 145q-109 -102 -228 -156 q-55 -20 -87 -12q-31 8 -19 38t69 56z" />
<glyph unicode="&#xd8;" horiz-adv-x="1708" />
<glyph unicode="&#xd9;" horiz-adv-x="1478" d="M638 1528q52 0 58 -33q10 -68 44 -125t71 -72q29 -10 29 -32q0 -35 -45 -21q-74 29 -142 109q-63 80 -67 135q0 39 52 39zM274 -168q-66 0 -98 51q-27 39 -26 101q0 117 71 387q172 569 172 665q0 39 -26 39q-39 0 -121 -88q-4 -6 -70 -84q-41 -41 -59 -41q-31 0 -51 45 q4 47 92 121t147 102q43 25 88 25t69 -46t25 -93q0 -130 -119 -490t-118 -530q0 -88 18 -88q160 0 459 631q51 111 94 272q14 37 31 117q4 80 10 135q18 92 72 92t53 -61q0 -34 -29 -150q-16 -84 -24 -156t-8 -303l18 -292q14 -221 92 -222q33 0 49 54q8 25 27 24 q33 0 33 -45t-32 -75t-73 -29q-127 0 -178 241q-31 141 -31 334q1 22 5 100q-80 -236 -236 -464q-186 -279 -326 -279z" />
<glyph unicode="&#xda;" horiz-adv-x="1478" d="M586 1266q0 22 32 34t67 70q34 58 44 125q7 33 59 33t52 -39q-4 -55 -70 -135t-139 -109q-45 -14 -45 21zM274 -168q-66 0 -98 51q-27 39 -26 101q0 117 71 387q172 569 172 665q0 39 -26 39q-39 0 -121 -88q-4 -6 -70 -84q-41 -41 -59 -41q-31 0 -51 45q4 47 92 121 t147 102q43 25 88 25t69 -46t25 -93q0 -130 -119 -490t-118 -530q0 -88 18 -88q160 0 459 631q51 111 94 272q14 37 31 117q4 80 10 135q18 92 72 92t53 -61q0 -34 -29 -150q-16 -84 -24 -156t-8 -303q6 -97 19 -305t91 -209q33 0 49 54q8 25 27 24q33 0 33 -45t-32 -75 t-73 -29q-127 0 -178 241q-31 141 -31 334q1 22 5 100q-80 -236 -236 -464q-186 -279 -326 -279z" />
<glyph unicode="&#xdb;" horiz-adv-x="1478" d="M648 1585q-30 -1 -55 -25t-34 -34q-23 -18 -33 -19q-20 1 -20 21t65 98q40 43 82 43q43 0 105 -46t94 -34q10 2 43 29t46 27q13 1 21 -13t-4 -30q-66 -90 -133 -91q-26 1 -49 15q-98 59 -128 59zM274 -168q-66 0 -98 51q-27 39 -26 101q0 117 71 387q172 569 172 665 q0 39 -26 39q-39 0 -121 -88q-4 -6 -70 -84q-41 -41 -59 -41q-31 0 -51 45q4 47 92 121t147 102q43 25 88 25t69 -46t25 -93q0 -130 -119 -490t-118 -530q0 -88 18 -88q160 0 459 631q51 111 94 272q14 37 31 117q4 80 10 135q18 92 72 92t53 -61q0 -34 -29 -150 q-16 -84 -24 -156t-8 -303q6 -97 19 -305t91 -209q33 0 49 54q8 25 27 24q33 0 33 -45t-32 -75t-73 -29q-127 0 -178 241q-31 141 -31 334q1 22 5 100q-80 -236 -236 -464q-186 -279 -326 -279z" />
<glyph unicode="&#xdc;" horiz-adv-x="1478" d="M274 -168q-66 0 -98 51q-27 39 -26 101q0 117 71 387q172 569 172 665q0 39 -26 39q-39 0 -121 -88q-4 -6 -70 -84q-41 -41 -59 -41q-31 0 -51 45q4 47 92 121t147 102q43 25 88 25t69 -46t25 -93q0 -130 -119 -490t-118 -530q0 -88 18 -88q160 0 459 631q51 111 94 272 q14 37 31 117q4 80 10 135q18 92 72 92t53 -61q0 -34 -29 -150q-16 -84 -24 -156t-8 -303q6 -97 19 -305t91 -209q33 0 49 54q8 25 27 24q33 0 33 -45t-32 -75t-73 -29q-127 0 -178 241q-31 141 -31 334q1 22 5 100q-80 -236 -236 -464q-186 -279 -326 -279z" />
<glyph unicode="&#xdd;" horiz-adv-x="1251" d="M473 1266q0 23 29 32q36 14 70 72t44 125q6 33 58 33t53 -39q-3 -55 -69 -135t-140 -109q-45 -14 -45 21zM283 -856q-109 0 -203 88q-94 82 -135 205q-4 31 -2 37q4 36 26 22t49 -55q125 -205 258 -205q291 0 461 404q119 276 140 589q18 241 18 395t-37 355 q-12 -39 -67 -225q-91 -290 -269 -564t-313 -274q-129 0 -129 168q0 109 79 375q79 265 119 413t40 218t-33 71q-37 0 -170 -125t-156 -125q-45 1 -45 51t162 168t227 117q115 0 115 -126t-80 -404q-31 -96 -125 -414q-37 -143 -37 -228t43 -85q72 0 256 315 q319 547 332 836v55q-2 27 -2 53q0 59 51 60q57 1 94 -267t37 -356q0 -412 -37 -653q-57 -365 -217 -619q-168 -270 -450 -270z" />
<glyph unicode="&#xde;" horiz-adv-x="1138" />
<glyph unicode="&#xdf;" horiz-adv-x="1138" />
<glyph unicode="&#xe0;" d="M410 1192q52 0 59 -33q10 -68 44 -125t67 -69t32 -35q0 -35 -45 -21q-74 29 -141 109q-66 80 -68 135q0 39 52 39zM514 215q0 29 2 43q-94 -125 -223 -248q-156 -143 -248 -143q-29 -1 -59 21t-29 85q0 129 134 340t300 353t250 88q39 -25 39 -112t-66 -93q-45 -2 -45 33 q1 6 13 32t10 55q-2 30 -6 29q-102 -18 -330 -313q-225 -297 -225 -405q0 -39 35 -39q88 0 278 229q137 166 145 178q55 76 66 148q6 47 49 47q63 0 51 -62q-51 -256 -51 -319q0 -104 47 -117q16 -4 35 6q12 8 16 19q10 43 44 43t32 -27q0 -10 -6 -27q-31 -80 -115 -79 q-27 0 -45 8q-98 33 -98 227z" />
<glyph unicode="&#xe1;" d="M358 930q0 23 33 35t67 69t44 125q6 33 58 33t52 -39q-2 -55 -68 -135t-141 -109q-45 -14 -45 21zM514 215q0 29 2 43q-94 -125 -223 -248q-156 -143 -248 -143q-29 -1 -59 21t-29 85q0 129 134 340t300 353t250 88q39 -25 39 -112t-66 -93q-45 -2 -45 33q1 6 13 32 t10 55q-2 30 -6 29q-102 -18 -330 -313q-225 -297 -225 -405q0 -39 35 -39q88 0 278 229q137 166 145 178q55 76 66 148q6 47 49 47q63 0 51 -62q-51 -256 -51 -319q0 -104 47 -117q16 -4 35 6q12 8 16 19q10 43 44 43t32 -27q0 -12 -6 -27q-31 -80 -115 -79q-27 0 -45 8 q-98 33 -98 227z" />
<glyph unicode="&#xe2;" d="M422 1249q-30 0 -56 -24t-34 -35q-20 -18 -33 -19q-20 0 -20 25q0 6 28 47q31 41 54 65t67 25q42 0 104 -46t93 -34q10 2 43 29t46 27t19 -15q8 -12 -2 -28q-66 -90 -133 -90q-26 0 -49 14q-98 59 -127 59zM514 215q0 29 2 43q-94 -125 -223 -248q-156 -143 -248 -143 q-29 -1 -59 21t-29 85q0 129 134 340t300 353t250 88q39 -25 39 -112t-66 -93q-45 -2 -45 33q1 6 13 32t10 55q-2 30 -6 29q-102 -18 -330 -313q-225 -297 -225 -405q0 -39 35 -39q88 0 278 229q137 166 145 178q55 76 66 148q6 47 49 47q63 0 51 -62q-51 -256 -51 -319 q0 -104 47 -117q16 -4 35 6q12 8 16 19q10 43 44 43t32 -27q0 -12 -6 -27q-31 -80 -115 -79q-27 0 -45 8q-98 33 -98 227z" />
<glyph unicode="&#xe3;" d="M354 1274q-40 0 -64 -28t-30 -66h-98q10 94 62 155t125 61t173 -36q100 -37 129 -37q97 0 105 94h106q-12 -94 -67 -155q-55 -62 -130 -62t-173 37t-138 37zM514 215q0 29 2 43q-94 -125 -223 -248q-156 -143 -248 -143q-29 -1 -59 21t-29 85q0 129 134 340t300 353 t250 88q39 -25 39 -112t-66 -93q-45 -2 -45 33q1 6 13 32t10 55q-2 30 -6 29q-102 -18 -330 -313q-225 -297 -225 -405q0 -39 35 -39q88 0 278 229q137 166 145 178q55 76 66 148q6 47 49 47q63 0 51 -62q-51 -256 -51 -319q0 -104 47 -117q16 -4 35 6q12 8 16 19 q10 43 44 43t32 -27q0 -12 -6 -27q-31 -80 -115 -79q-27 0 -45 8q-98 33 -98 227z" />
<glyph unicode="&#xe4;" d="M514 215q0 29 2 43q-94 -125 -223 -248q-156 -143 -248 -143q-29 -1 -59 21t-29 85q0 129 134 340t300 353t250 88q39 -25 39 -112t-66 -93q-45 -2 -45 33q1 6 13 32t10 55q-2 30 -6 29q-102 -18 -330 -313q-225 -297 -225 -405q0 -39 35 -39q88 0 278 229 q137 166 145 178q55 76 66 148q6 47 49 47q63 0 51 -62q-51 -256 -51 -319q0 -104 47 -117q16 -4 35 6q12 8 16 19q10 43 44 43t32 -27q0 -12 -6 -27q-31 -80 -115 -79q-27 0 -45 8q-98 33 -98 227z" />
<glyph unicode="&#xe5;" d="M410 1343q0 -51 36 -87t86 -36q51 0 88 36q36 36 35 87q0 51 -35 88q-36 35 -88 35t-87 -35q-35 -37 -35 -88zM324 1343q0 85 61 147t147 62t148 -61t61 -147q0 -86 -61 -148q-62 -61 -148 -61t-147 61t-61 147zM514 215q0 29 2 43q-94 -125 -223 -248 q-156 -143 -248 -143q-29 -1 -59 21t-29 85q0 129 134 340t300 353t250 88q39 -25 39 -112t-66 -93q-45 -2 -45 33q1 6 13 32t10 55q-2 30 -6 29q-102 -18 -330 -313q-225 -297 -225 -405q0 -39 35 -39q88 0 278 229q137 166 145 178q55 76 66 148q6 47 49 47q63 0 51 -62 q-51 -256 -51 -319q0 -104 47 -117q16 -4 35 6q12 8 16 19q10 43 44 43t32 -27q0 -12 -6 -27q-31 -80 -115 -79q-27 0 -45 8q-98 33 -98 227z" />
<glyph unicode="&#xe6;" horiz-adv-x="1593" />
<glyph unicode="&#xe7;" horiz-adv-x="909" />
<glyph unicode="&#xe8;" d="M410 1192q52 0 59 -33q10 -68 44 -125t67 -69t32 -35q0 -35 -45 -21q-74 29 -141 109q-66 80 -68 135q0 39 52 39zM133 354q0 -10 47 -14q80 -4 173 114t93 208q1 38 -35 29t-65 -46q-213 -250 -213 -291zM43 53q-1 -80 103 -80t236 115t187 240h33q20 -18 14 -35 q-57 -168 -193 -282t-271 -113q-98 0 -148 66t-43 175q10 158 164 381q166 244 303 244q46 0 68 -37t22 -72q0 -98 -86 -231q-100 -156 -229 -156q-61 0 -94 27l-5 2q-18 -16 -40 -98t-21 -146z" />
<glyph unicode="&#xe9;" d="M358 930q0 23 33 35t67 69t44 125q6 33 58 33t52 -39q-2 -55 -68 -135t-141 -109q-45 -14 -45 21zM133 354q0 -10 47 -14q80 -4 173 114t93 208q1 38 -35 29t-65 -46q-213 -250 -213 -291zM43 53q-1 -80 103 -80t236 115t187 240h33q20 -18 14 -35q-57 -168 -193 -282 t-271 -113q-98 0 -148 66t-43 175q10 158 164 381q166 244 303 244q46 0 68 -37t22 -72q0 -98 -86 -231q-100 -156 -229 -156q-61 0 -94 27l-5 2q-18 -16 -40 -98t-21 -146z" />
<glyph unicode="&#xea;" d="M422 1249q-30 0 -56 -24t-34 -35q-20 -18 -33 -19q-20 0 -20 25q0 6 28 47q31 41 54 65t67 25q42 0 104 -46t93 -34q10 2 43 29t46 27t19 -15q8 -12 -2 -28q-66 -90 -133 -90q-26 0 -49 14q-98 59 -127 59zM133 354q0 -10 47 -14q80 -4 173 114t93 208q1 38 -35 29 t-65 -46q-213 -250 -213 -291zM43 53q-1 -80 103 -80t236 115t187 240h33q20 -18 14 -35q-57 -168 -193 -282t-271 -113q-98 0 -148 66t-43 175q10 158 164 381q166 244 303 244q46 0 68 -37t22 -72q0 -98 -86 -231q-100 -156 -229 -156q-61 0 -94 27l-5 2q-18 -16 -40 -98 t-21 -146z" />
<glyph unicode="&#xeb;" d="M133 354q0 -10 47 -14q80 -4 173 114t93 208q1 38 -35 29t-65 -46q-213 -250 -213 -291zM43 53q-1 -80 103 -80t236 115t187 240h33q20 -18 14 -35q-57 -168 -193 -282t-271 -113q-98 0 -148 66t-43 175q10 158 164 381q166 244 303 244q46 0 68 -37t22 -72 q0 -98 -86 -231q-100 -156 -229 -156q-61 0 -94 27l-5 2q-18 -16 -40 -98t-21 -146z" />
<glyph unicode="&#xec;" horiz-adv-x="454" />
<glyph unicode="&#xed;" horiz-adv-x="454" />
<glyph unicode="&#xee;" horiz-adv-x="454" />
<glyph unicode="&#xef;" horiz-adv-x="454" />
<glyph unicode="&#xf0;" horiz-adv-x="1138" />
<glyph unicode="&#xf1;" horiz-adv-x="1138" d="M412 1274q-39 0 -64 -28t-31 -66h-98q11 94 63 155t125 61t173 -36q100 -37 129 -37q96 0 104 94h107q-12 -94 -68 -155q-56 -62 -130 -62t-172 37t-138 37zM412 647q88 0 116 -129q6 -63 18 -185t21 -190q20 -143 68 -143q18 0 53 35l39 -12q2 -37 -35 -66 q-29 -18 -51 -18q-147 0 -182 331q-26 301 -51 301q-35 0 -170 -214t-195 -400q-14 -49 -49 -49q-47 0 -43 47q0 6 34 227t42 350q10 84 61 84q31 0 38 -15t11 -31t6 -21l-61 -305l18 30q219 373 312 373z" />
<glyph unicode="&#xf2;" horiz-adv-x="1138" d="M468 1192q52 0 58 -33q10 -68 44 -125t67 -69t33 -35q0 -35 -45 -21q-74 29 -142 109q-66 80 -67 135q0 39 52 39zM-16 115q0 162 76 343t141 181q20 0 33 -5q4 34 70 66t95 31q166 0 172 -256q2 -123 -110 -325q-133 -238 -285 -250q-90 -10 -141 55t-51 160zM260 586 q0 -8 -35 -56q-162 -211 -162 -385t80 -174q121 0 238 222q100 188 100 305q0 168 -82 168q-63 0 -135 -68l-5 2q1 -6 1 -14z" />
<glyph unicode="&#xf3;" horiz-adv-x="1138" d="M416 930q0 23 32 35t67 69q34 57 44 125q7 33 59 33t52 -39q-2 -55 -68 -135t-141 -109q-45 -14 -45 21zM-16 115q0 162 76 343t141 181q20 0 33 -5q4 34 70 66t95 31q166 0 172 -256q2 -123 -110 -325q-133 -238 -285 -250q-90 -10 -141 55t-51 160zM260 586 q0 -8 -35 -56q-162 -211 -162 -385t80 -174q121 0 238 222q100 188 100 305q0 168 -82 168q-63 0 -135 -68l-5 2q1 -6 1 -14z" />
<glyph unicode="&#xf4;" horiz-adv-x="1138" d="M606 1190q-98 59 -133 59t-84 -59q-20 -18 -33 -19q-20 1 -20 21t65 98q40 43 83 43q44 0 106 -46t92 -34q10 2 43 29t46 27q13 1 21 -13t-4 -30q-66 -90 -133 -90q-26 0 -49 14zM-16 115q0 162 76 343t141 181q20 0 33 -5q4 34 70 66t95 31q166 0 172 -256 q2 -123 -110 -325q-133 -238 -285 -250q-90 -10 -141 55t-51 160zM260 586q0 -8 -35 -56q-162 -211 -162 -385t80 -174q121 0 238 222q100 188 100 305q0 168 -82 168q-63 0 -135 -68l-5 2q1 -6 1 -14z" />
<glyph unicode="&#xf5;" horiz-adv-x="1138" d="M412 1274q-39 0 -64 -28t-31 -66h-98q11 94 63 155t125 61t173 -36q100 -37 129 -37q96 0 104 94h107q-12 -94 -68 -155q-56 -62 -130 -62t-172 37t-138 37zM-16 115q0 162 76 343t141 181q20 0 33 -5q4 34 70 66t95 31q166 0 172 -256q2 -123 -110 -325 q-133 -238 -285 -250q-90 -10 -141 55t-51 160zM260 586q0 -8 -35 -56q-162 -211 -162 -385t80 -174q121 0 238 222q100 188 100 305q0 168 -82 168q-63 0 -135 -68l-5 2q1 -6 1 -14z" />
<glyph unicode="&#xf6;" horiz-adv-x="1138" d="M-16 115q0 162 76 343t141 181q20 0 33 -5q4 34 70 66t95 31q166 0 172 -256q2 -123 -110 -325q-133 -238 -285 -250q-90 -10 -141 55t-51 160zM260 586q0 -8 -35 -56q-162 -211 -162 -385t80 -174q121 0 238 222q100 188 100 305q0 168 -82 168q-63 0 -135 -68l-5 2 q1 -6 1 -14z" />
<glyph unicode="&#xf7;" horiz-adv-x="1130" d="M565 -166q-29 0 -63 23q-31 25 -31 57q0 66 68 66q102 0 102 -56q0 -90 -76 -90zM565 414q-29 0 -61 22t-33 58q0 68 68 67q102 0 102 -57q0 -90 -76 -90zM920 127q-270 109 -721 -37q-68 -23 -85 27t66 86q96 37 291 51q103 12 235 5t246 -48q52 -20 68 -52t-14 -42 t-86 10z" />
<glyph unicode="&#xf8;" horiz-adv-x="1138" />
<glyph unicode="&#xf9;" horiz-adv-x="1138" d="M468 1192q52 0 58 -33q10 -68 44 -125t67 -69t33 -35q0 -35 -45 -21q-74 29 -142 109q-66 80 -67 135q0 39 52 39zM63 -96q-96 0 -96 192q0 59 63 315t109 261q25 0 44 -14t19 -26q0 -13 -5 -30l-19 -47q-131 -348 -131 -492q0 -86 31 -86q39 -1 118 99q78 100 166 270 t89 264q2 33 21 61t44 27q51 0 51 -51q0 -8 -17 -103t-18 -171q0 -322 99 -322q25 1 45 21t43 34q23 -23 22 -32q0 -39 -46 -64t-70 -24q-158 0 -187 348l-2 18q-104 -223 -141 -280q-111 -168 -232 -168z" />
<glyph unicode="&#xfa;" horiz-adv-x="1138" d="M416 930q0 23 32 35t67 69q34 57 44 125q7 33 59 33t52 -39q-2 -55 -68 -135t-141 -109q-45 -14 -45 21zM63 -96q-96 0 -96 192q0 59 63 315t109 261q25 0 44 -14t19 -26q0 -13 -5 -30l-19 -47q-131 -348 -131 -492q0 -86 31 -86q39 -1 118 99q78 100 166 270t89 264 q2 33 21 61t44 27q51 0 51 -51q0 -8 -17 -103t-18 -171q0 -322 99 -322q25 1 45 21t43 34q23 -23 22 -32q0 -39 -46 -64t-70 -24q-158 0 -187 348l-2 18q-104 -223 -141 -280q-111 -168 -232 -168z" />
<glyph unicode="&#xfb;" horiz-adv-x="1138" d="M606 1190q-98 59 -133 59t-84 -59q-20 -18 -33 -19q-20 1 -20 21t65 98q40 43 83 43q44 0 106 -46t92 -34q10 2 43 29t46 27q13 1 21 -13t-4 -30q-66 -90 -133 -90q-26 0 -49 14zM63 -96q-96 0 -96 192q0 59 63 315t109 261q25 0 44 -14t19 -26q0 -13 -5 -30l-19 -47 q-131 -348 -131 -492q0 -86 31 -86q39 -1 118 99q78 100 166 270t89 264q2 33 21 61t44 27q51 0 51 -51q0 -8 -17 -103t-18 -171q0 -322 99 -322q25 1 45 21t43 34q23 -23 22 -32q0 -39 -46 -64t-70 -24q-158 0 -187 348l-2 18q-104 -223 -141 -280q-111 -168 -232 -168z " />
<glyph unicode="&#xfc;" horiz-adv-x="1138" d="M63 -96q-96 0 -96 192q0 59 63 315t109 261q25 0 44 -14t19 -26q0 -13 -5 -30l-19 -47q-131 -348 -131 -492q0 -86 31 -86q39 -1 118 99q78 100 166 270t89 264q2 33 21 61t44 27q51 0 51 -51q0 -8 -17 -103t-18 -171q0 -322 99 -322q25 1 45 21t43 34q23 -23 22 -32 q0 -39 -46 -64t-70 -24q-158 0 -187 348l-2 18q-104 -223 -141 -280q-111 -168 -232 -168z" />
<glyph unicode="&#xfd;" d="M358 930q0 23 33 35t67 69t44 125q6 33 58 33t52 -39q-2 -55 -68 -135t-141 -109q-45 -14 -45 21zM143 -657q-150 0 -260 117t-110 206q0 43 34 43q19 -1 27 -23t16 -55q31 -84 99 -141t151 -63q219 -18 344 239q102 211 103 465q0 174 -49 432q-94 -238 -146 -332 q-137 -262 -264 -262q-98 -1 -98 145t74 405t133 265q20 2 43 -15q22 -17 22 -29t-2 -13q-59 -92 -123 -264t-63 -334q0 -88 26 -88q32 -1 90 89t82 136q193 311 172 471q-8 70 52 70q55 0 65 -102l2 -15q25 -227 49 -268q24 -42 24 -284t-101 -476q-138 -319 -392 -319z " />
<glyph unicode="&#xfe;" horiz-adv-x="1138" />
<glyph unicode="&#xff;" d="M143 -657q-150 0 -260 117t-110 206q0 43 34 43q19 -1 27 -23t16 -55q31 -84 99 -141t151 -63q219 -18 344 239q102 211 103 465q0 174 -49 432q-94 -238 -146 -332q-137 -262 -264 -262q-98 -1 -98 145t74 405t133 265q20 2 43 -15q22 -17 22 -29t-2 -13 q-59 -92 -123 -264t-63 -334q0 -88 26 -88q32 -1 90 89t82 136q193 311 172 471q-8 70 52 70q55 0 65 -102l2 -15q25 -227 49 -268q24 -42 24 -284t-101 -476q-138 -319 -392 -319z" />
<glyph unicode="&#x131;" horiz-adv-x="454" />
<glyph unicode="&#x141;" />
<glyph unicode="&#x142;" horiz-adv-x="454" />
<glyph unicode="&#x152;" horiz-adv-x="2048" />
<glyph unicode="&#x153;" horiz-adv-x="1820" />
<glyph unicode="&#x160;" d="M420 1505l-209 293h160l143 -194l139 194h160l-205 -293h-188zM807 233q0 66 -111 103q-55 18 -191 40t-319 64q-135 47 -135 131q-1 213 275 429t471 217q158 0 157 -197q0 -33 -20 -76t-47 -43q-17 1 -35 19t-16 35t3 31t4 26q3 13 3 18v2q0 96 -66 96 q-122 0 -376 -210t-254 -328q0 -49 100 -80q38 -12 236 -47t284 -76q131 -61 131 -186t-148 -241t-286 -116h-47q-86 0 -170 58t-84 145q0 27 16 69t35 42q37 0 37 -35l-14 -64q0 -55 51 -86t119 -30q135 0 266 84t131 206z" />
<glyph unicode="&#x161;" horiz-adv-x="796" d="M307 1169l-209 293h160l143 -194l140 194h159l-204 -293h-189zM473 635q-6 0 -39 17t-53 22q-68 6 -196 -104t-128 -187q0 -43 150 -43q289 0 289 -160q0 -115 -121 -201t-240 -85q-53 0 -94 32q-51 33 -51 92q0 27 22 60t39 33q18 0 23 -2q-4 -37 -12 -53t-7 -27 q0 -45 56 -45q85 0 201 58t116 126q0 42 -38 66t-81 28l-196 6q-53 4 -105 25t-53 61q0 102 158 257t270 155q29 0 78 -26t49 -66t-37 -39z" />
<glyph unicode="&#x178;" horiz-adv-x="1251" d="M283 -856q-109 0 -203 88q-94 82 -135 205q-4 31 -2 37q4 36 26 22t49 -55q125 -205 258 -205q291 0 461 404q119 276 140 589q18 241 18 395t-37 355q-12 -39 -67 -225q-91 -290 -269 -564t-313 -274q-129 0 -129 168q0 109 79 375q79 265 119 413t40 218t-33 71 q-37 0 -170 -125t-156 -125q-45 1 -45 51t162 168t227 117q115 0 115 -126t-80 -404q-31 -96 -125 -414q-37 -143 -37 -228t43 -85q72 0 256 315q319 547 332 836v55q-2 27 -2 53q0 59 51 60q57 1 94 -267t37 -356q0 -412 -37 -653q-57 -365 -217 -619q-168 -270 -450 -270z " />
<glyph unicode="&#x17d;" horiz-adv-x="1138" d="M477 1505l-209 293h160l143 -194l140 194h159l-204 -293h-189zM1260 -176q-29 0 -29 35q0 10 7 27t7 51q0 68 -84 110q-71 39 -185 39t-280 -47q-106 -35 -304 -107t-220 -73q-88 0 -88 102q0 80 133 225q61 70 183 185t468 403q345 288 365 289q19 -1 35 -13t21 -21l1 9 q0 59 -168 60q-120 0 -268 -35t-338 -88t-221 -53q-57 0 -57 57q0 29 53 51q90 31 223 55l227 41q251 54 361 54t174 -31q84 -41 84 -119q0 -49 -24 -82t-40 -33q-29 0 -22 35l7 38q-36 -41 -171 -146q-940 -750 -940 -860q0 -14 27 -15q4 0 475 148q227 65 345 65t212 -66 t94 -173q0 -40 -31 -99q-14 -18 -32 -18z" />
<glyph unicode="&#x17e;" horiz-adv-x="909" d="M362 1169l-208 293h159l144 -194l139 194h160l-205 -293h-189zM-55 -10q0 102 454 432q198 145 219 164q-102 6 -278 -25t-208 -41t-42 -10q-61 0 -61 49q0 25 41 47q37 16 51 17q63 0 442 36q139 0 139 -71q0 -33 -90 -111q-92 -74 -156 -120q-63 -46 -263 -197 q-147 -117 -160 -162q16 0 30 -2q369 100 452 100t144 -26q92 -41 93 -113q0 -6 -17 -39q-16 0 -32 11q-15 11 -15 20q4 74 -133 74q-98 0 -446 -115q-72 -23 -80 -23q-51 1 -45 58v4q-39 20 -39 43z" />
<glyph unicode="&#x192;" horiz-adv-x="1138" />
<glyph unicode="&#x2c6;" horiz-adv-x="454" d="M264 1190q-98 59 -133 59t-84 -59q-23 -18 -33 -19q-20 1 -20 21t65 98q40 43 82 43q43 0 105 -46t94 -34q10 2 43 29t46 27q13 1 21 -13t-4 -30q-66 -90 -133 -90q-26 0 -49 14z" />
<glyph unicode="&#x2c7;" horiz-adv-x="454" d="M135 1169l-209 293h160l143 -194l140 194h159l-204 -293h-189z" />
<glyph unicode="&#x2d8;" horiz-adv-x="454" d="M-86 1462h98q31 -160 216 -160t214 160h99q-20 -283 -305 -282q-302 -1 -322 282z" />
<glyph unicode="&#x2d9;" horiz-adv-x="454" d="M233 1137q-31 0 -63 22q-31 25 -31 58q0 66 68 65q100 0 100 -55q0 -90 -74 -90z" />
<glyph unicode="&#x2da;" horiz-adv-x="454" d="M104 1343q0 -51 36 -87t87 -36t87 36t36 87t-36 87t-87 36t-87 -36t-36 -87zM18 1343q0 85 62 147t147 62t147 -61t62 -147t-61 -148q-61 -61 -147 -61t-148 61t-62 147z" />
<glyph unicode="&#x2db;" horiz-adv-x="313" d="M76 -100q0 60 40 141q40 82 91 121q16 10 31 10q14 0 18 -19t-16 -38q-57 -43 -58 -172q0 -17 3 -41t-21 -43q-25 -18 -49 -19q-39 0 -39 60z" />
<glyph unicode="&#x2dc;" horiz-adv-x="454" d="M70 1274q-39 0 -64 -28t-31 -66h-98q11 94 63 155t125 61t173 -36q100 -37 129 -37q96 0 104 94h107q-12 -94 -68 -155q-56 -62 -130 -62t-172 37t-138 37z" />
<glyph unicode="&#x2dd;" horiz-adv-x="454" d="M84 924q-27 0 -27 24q0 18 21 33q57 43 57 172q0 21 -3 43t21 40t48 19q39 0 39 -58t-39 -140t-92 -123q-14 -10 -25 -10zM219 924q-25 0 -24 24q0 18 18 33q57 43 57 172q0 21 -3 43t22 40t49 19q39 0 39 -59t-40 -141t-91 -121q-16 -10 -27 -10z" />
<glyph unicode="&#x3c0;" horiz-adv-x="1167" />
<glyph unicode="&#x60c;" horiz-adv-x="319" d="M76 -100q0 60 40 141q40 82 91 121q16 10 31 10q14 0 18 -19t-16 -38q-57 -43 -58 -172q0 -17 3 -41t-21 -43q-25 -18 -49 -19q-39 0 -39 60z" />
<glyph unicode="&#x615;" horiz-adv-x="456" d="M123 1061q8 0 52 -2q150 -7 186 29t-10 93.5t-111 84.5q-33 18 -69 9t-54 -44q-35 -70 6 -170zM154 979q-17 0 -45 59q-37 2 -62 27q-8 6 0 6l41 -6l10 -2q-57 119 -78 272q-4 14 -6 35l-2 21q-2 33 10.5 34.5t18.5 -18.5q2 -4 2 -10v-23l6 -51q2 -6 9.5 -52t25.5 -112 q0 59 26.5 98t76 40t93 -23.5t81.5 -68.5t34 -85q-6 -100 -243 -84q-13 2 -17 2q2 -2 5 -8t13 -18.5t10.5 -22.5t-9.5 -10z" />
<glyph unicode="&#x61b;" horiz-adv-x="319" d="M139 -156q-31 0 -63 23q-31 25 -31 57q0 66 68 66q100 0 100 -56q0 -90 -74 -90zM76 194q0 60 40 142t91 121q16 10 31 10q14 0 18 -19t-16 -38q-57 -43 -58 -172q0 -18 3 -42t-21 -42t-49 -19q-39 -1 -39 59z" />
<glyph unicode="&#x61f;" horiz-adv-x="1232" d="M758 -166q-45 0 -69 31q-25 31 -7 61t72 31q80 0 80 -68q0 -55 -76 -55zM725 156q-57 0 -57 47q0 31 65 41q37 2 37 45q0 82 -256 264q-8 6 -82 57t-102 73q-131 105 -175 162q-79 101 -77 187q0 123 70 186q70 62 174 66t227 -20q215 -43 362 -128q148 -84 195 -132 t26 -91q-22 -43 -92 2q-193 131 -415 222q-438 160 -453 -99q0 -86 71 -166t172 -142l202 -124t173 -142q72 -79 70 -165q0 -57 -39 -100t-96 -43z" />
<glyph unicode="&#x621;" horiz-adv-x="606" d="M217 -84q76 0 178.5 49t102.5 117q0 35 -43 64.5t-154 27.5t-170 16q-117 47 -14 185q86 117 243.5 198.5t200.5 12.5q12 -18 12 -47q1 -58 -74 -19t-203 -59.5t-128 -186.5q0 -43 196 -43q74 0 135.5 -33.5t61.5 -105.5q0 -104 -107.5 -180t-213.5 -76q-51 0 -91 32 t-40 69t20.5 64.5t42.5 27.5h12l-16 -72q0 -41 49 -41z" />
<glyph unicode="&#x622;" horiz-adv-x="579" d="M98 1321q35 0 54.5 -68.5t31 -188.5t13.5 -132q88 -532 178 -787t200 -311q-108 22 -184 94q-48 46 -97 180q-96 263 -161 576t-80 512l-2 27q0 98 47 98zM-128 1454q-22 0 -22 21t65.5 66.5t108 45.5t120 -39t116.5 -28q12 2 53 24t54.5 21.5t20.5 -12t-3 -23.5 q-76 -74 -156 -74q-32 0 -49.5 8t-41 19.5t-51.5 23t-65.5 11.5t-107.5 -50q-20 -14 -42 -14z" />
<glyph unicode="&#x623;" horiz-adv-x="581" d="M98 1321q35 0 54.5 -68.5t31 -188.5t13.5 -131t6 -38q152 -948 372 -1061q-108 22 -184 94q-48 46 -97 180q-96 263 -161 576t-80 512l-2 27q0 98 47 98zM60.5 1448q29.5 0 81 24.5t51.5 57.5q0 16 -22 30.5t-76 14.5t-83 8q-68 27 5 106t142.5 96t69.5 -32 q1 -30 -36 -10t-99.5 -28t-62.5 -91q1 -20 67 -20q126 0 125 -70q0 -51 -52 -88t-91 -37t-59.5 16.5t-20.5 33.5t9 30.5t22 13.5h6l-6 -35q0 -20 29.5 -20z" />
<glyph unicode="&#x624;" horiz-adv-x="931" d="M357 1077q44 0 116 35t72 82q0 27 -25 41q-35 25 -112.5 23.5t-118.5 11.5q-88 35 -7 134t193 146q115 39 123 -37q0 -39 -52 -12t-142.5 -41.5t-90.5 -130.5q1 -31 139 -31q52 0 95 -23.5t43 -72.5q0 -74 -76 -127t-149 -53q-37 0 -65 22.5t-28 48t14.5 45t30.5 19.5h9 l-13 -51q0 -29 44 -29zM229 575q2 -4 11.5 -15t11.5 -92t65 -273q102 -317 222 -306q27 4 55 27q80 74 76 218.5t-53.5 291.5t-108.5 221q-125 154 -201 90q-55 -45 -71 -162h-7zM676 -127q-74 -74 -174 -51q-217 47 -346 471q-63 207 -17 266q16 18 41 27q-23 33 10 108.5 t68 104.5q135 113 274 -21q-2 53 37 65.5t67 -46.5t80.5 -279.5t79.5 -510.5q3 -32 3 -44q12 -303 -113 -420q-41 -37 -113 -51q-31 -10 -54 -3t-20 29.5t21.5 32t34.5 5.5t33 2q172 63 139 389q-22 -45 -51 -74z" />
<glyph unicode="&#x625;" horiz-adv-x="659" d="M98 1321q35 0 54.5 -68.5t31 -188.5t13.5 -132q88 -532 178 -787t200 -311q-108 22 -184 94q-48 46 -97 180q-96 263 -161 576t-80 512l-2 27q0 98 47 98zM493.5 -610q30.5 0 81 24.5t50.5 57.5q0 16 -22 30t-76 14.5t-83 8.5q-68 27 5.5 105.5t142.5 96t70 -31.5 q0 -28 -37 -9t-99.5 -29t-62.5 -91q1 -21 67 -21q126 0 125 -69q0 -51 -52 -88t-91 -37t-58.5 15.5t-19.5 33.5t9.5 31.5t21.5 13.5h6l-8 -35q0 -20 30.5 -20z" />
<glyph unicode="&#x626;" horiz-adv-x="1675" d="M130 725q44 0 115.5 35t71.5 82q0 27 -24 41q-35 25 -113 23.5t-119 11.5q-88 35 -7 134t194 146q115 39 123 -37q0 -39 -52 -12t-142.5 -42t-90.5 -130q0 -31 138 -31q52 0 95 -23.5t43 -72.5q0 -74 -75.5 -127t-149.5 -53q-37 0 -64.5 22.5t-27.5 48t14.5 45t30.5 19.5 h8l-12 -51q0 -29 44 -29zM1028 403q0 102 162 256q158 158 270 158q33 0 76 -24q53 -27 53 -68t-37 -41q-4 0 -41 18q-33 20 -51 21q-72 6 -196 -100q-129 -115 -129 -193q0 -43 148 -43t227 -42t65 -120q-20 -109 -129 -205q-195 -168 -565.5 -229t-632.5 31 q-319 112 -217 424q74 219 336 317q207 76 387 39q135 -27 135 -102q0 -47 -53 -47l-17 -2h-29q-30 0 -45 30q-16 39 -95 50.5t-178 -11t-192.5 -66.5t-149.5 -126t-35.5 -188.5t110.5 -175t216 -85t273.5 -6.5t288.5 50t256 88t183.5 102.5t62.5 97.5q-8 59 -82 81.5 t-157 18.5t-150.5 16.5t-67.5 75.5z" />
<glyph unicode="&#x627;" horiz-adv-x="575" d="M98 1321q35 0 54.5 -68.5t31 -188.5t13.5 -132q88 -532 178 -787t200 -311q-108 22 -184 94q-48 46 -97 180q-96 263 -161 576t-80 512l-2 27q0 98 47 98z" />
<glyph unicode="&#x628;" horiz-adv-x="1611" d="M795 -504q-31 0 -64 23q-31 25 -31 57q0 66 68 66q100 0 100 -56q1 -90 -73 -90zM1319 680q0 63 53 63q70 0 109 -220t21.5 -383t-73.5 -235.5t-223.5 -116.5t-319 -46t-265 4t-268 58t-265.5 170t-82 282q20 119 107.5 223.5t191.5 112.5q39 4 46 -22.5t-27 -43.5 q-104 -39 -172 -114.5t-66 -182.5q0 -227 283 -338q102 -39 312 -59t425 9.5t272 123.5q35 51 30 165t-24.5 214t-42 203.5t-22.5 132.5z" />
<glyph unicode="&#x629;" horiz-adv-x="692" d="M315 946q-29 0 -63 23q-31 25 -31 57q0 66 68 66q100 0 100 -56q0 -90 -74 -90zM125 946q-29 0 -62 25t-32 55q0 66 67 66q102 0 103 -56q0 -90 -76 -90zM438 492q-14 51 -33 92t-14 69q-2 0 -6 -2q-63 94 -139 111q-95 20 -135 -174q-20 -92 3 -243.5t94 -288 t167 -156.5q113 -23 131 129q20 176 -68 463zM322 -176q-143 43 -241.5 279.5t-76 468.5t163.5 266q43 10 90 1t111.5 -61.5t58.5 -91.5q78 16 116 -87q25 -66 34.5 -112.5t9.5 -48.5q80 -436 -88 -579q-80 -66 -178 -35z" />
<glyph unicode="&#x62a;" horiz-adv-x="1607" d="M901 745q-29 0 -63 23q-31 25 -31 57q0 66 67 66q100 0 101 -55q0 -91 -74 -91zM711 745q-29 0 -62 25t-33 55q0 66 68 66q102 0 102 -55q1 -91 -75 -91zM1319 680q0 63 53 63q70 0 109 -220t21.5 -383t-73.5 -235.5t-223.5 -116.5t-319 -46t-265 4t-268 58t-265.5 170 t-82 282q20 119 107.5 223.5t191.5 112.5q39 4 46 -22.5t-27 -43.5q-104 -39 -172 -114.5t-66 -182.5q0 -227 283 -338q102 -39 312 -59t425 9.5t272 123.5q35 51 30 165t-24.5 214t-42 203.5t-22.5 132.5z" />
<glyph unicode="&#x62b;" horiz-adv-x="1599" d="M930 680q-31 0 -64 22q-31 25 -30 58q0 66 67 65q100 0 101 -55q0 -90 -74 -90zM745 680q-29 0 -61 22q-33 27 -33 58q0 66 68 65q102 0 102 -55q0 -90 -76 -90zM829 874q-29 0 -61.5 25t-32.5 55q0 66 68 66q102 0 102 -55q0 -91 -76 -91zM1319 680q0 63 53 63 q70 0 109 -220t21.5 -383t-73.5 -235.5t-223.5 -116.5t-319 -46t-265 4t-268 58t-265.5 170t-82 282q20 119 107.5 223.5t191.5 112.5q39 4 46 -22.5t-27 -43.5q-104 -39 -172 -114.5t-66 -182.5q0 -227 283 -338q102 -39 312 -59t425 9.5t272 123.5q35 51 30 165t-24.5 214 t-42 203.5t-22.5 132.5z" />
<glyph unicode="&#x62c;" horiz-adv-x="1335" d="M590 -451q-31 0 -64 23q-31 25 -30 57q0 66 67 66q100 0 101 -55q0 -91 -74 -91zM1229 303q0 -57 -30 -94t-95.5 -74t-200.5 -80t-264 -82t-254 -88t-202 -119.5t-77 -158.5q0 -139 158 -221t371 -84t390 64.5t177 152.5q0 48 -54 68q-54 19 -54 48q0 10 9 20.5t25 10.5 q76 0 125.5 -57.5t49.5 -106.5q0 -74 -96.5 -145.5t-246 -114.5t-303.5 -43q-258 0 -457.5 117t-199.5 287q0 115 115.5 215t281.5 167.5t332 121t281.5 95.5t115.5 70q0 82 -101 171t-239.5 152.5t-274.5 104.5t-212 41q-154 0 -154 -123q0 -37 45.5 -128t45.5 -101 q0 -51 -64 -51q-35 0 -73 102.5t-38 153.5q0 109 71 180.5t169 71.5t252 -50.5t304.5 -126t261 -177t110.5 -189.5z" />
<glyph unicode="&#x62d;" horiz-adv-x="1345" d="M1229 303q0 -57 -30 -94t-95.5 -74t-200.5 -80t-264 -82t-254 -88t-202 -119.5t-77 -158.5q0 -139 158 -221t371 -84t390 64.5t177 152.5q0 48 -54 68q-54 19 -54 48q0 10 9 20.5t25 10.5q76 0 125.5 -57.5t49.5 -106.5q0 -74 -96.5 -145.5t-246 -114.5t-303.5 -43 q-258 0 -457.5 117t-199.5 287q0 115 115.5 215t281.5 167.5t332 121t281.5 95.5t115.5 70q0 82 -101 171t-239.5 152.5t-274.5 104.5t-212 41q-154 0 -154 -123q0 -37 45.5 -128t45.5 -101q0 -51 -64 -51q-35 0 -73 102.5t-38 153.5q0 109 71 180.5t169 71.5t252 -50.5 t304.5 -126t261 -177t110.5 -189.5z" />
<glyph unicode="&#x62e;" horiz-adv-x="1357" d="M469 952q-31 0 -63 23q-31 25 -31 57q0 66 67 66q100 0 101 -56q0 -90 -74 -90zM1229 303q0 -57 -30 -94t-95.5 -74t-200.5 -80t-264 -82t-254 -88t-202 -119.5t-77 -158.5q0 -139 158 -221t371 -84t390 64.5t177 152.5q0 48 -54 68q-54 19 -54 48q0 10 9 20.5t25 10.5 q76 0 125.5 -57.5t49.5 -106.5q0 -74 -96.5 -145.5t-246 -114.5t-303.5 -43q-258 0 -457.5 117t-199.5 287q0 115 115.5 215t281.5 167.5t332 121t281.5 95.5t115.5 70q0 82 -101 171t-239.5 152.5t-274.5 104.5t-212 41q-154 0 -154 -123q0 -37 45.5 -128t45.5 -101 q0 -51 -64 -51q-35 0 -73 102.5t-38 153.5q0 109 71 180.5t169 71.5t252 -50.5t304.5 -126t261 -177t110.5 -189.5z" />
<glyph unicode="&#x62f;" horiz-adv-x="1134" d="M270 -184q-110 41 -110 88q4 10 19.5 16t25.5 -2l53 -33q180 -66 409.5 52.5t297.5 300.5q55 147 -28 277q-137 215 -484 241q-131 12 -240.5 -16t-120.5 -21q-47 14 -31 61q12 29 101 43q285 51 561 -51q174 -63 272 -217q104 -170 41 -342q-80 -209 -311 -340 q-244 -135 -455 -57z" />
<glyph unicode="&#x630;" horiz-adv-x="1144" d="M371 946q-31 0 -64 23q-31 25 -31 57q0 66 68 66q100 0 100 -56q1 -90 -73 -90zM270 -184q-110 41 -110 88q4 10 19.5 16t25.5 -2l53 -33q180 -66 409.5 52.5t297.5 300.5q55 147 -28 277q-137 215 -484 241q-131 12 -240.5 -16t-120.5 -21q-47 14 -31 61q12 29 101 43 q285 51 561 -51q174 -63 272 -217q104 -170 41 -342q-80 -209 -311 -340q-244 -135 -455 -57z" />
<glyph unicode="&#x631;" horiz-adv-x="370" d="M297 -41q12 -301 -113 -418q-39 -39 -112 -53q-31 -10 -54.5 -3t-19.5 29.5t21.5 32t34.5 5t32 2.5q94 35 127 144t10.5 263t-57.5 297t-80 298t-53 211t31.5 72.5t70.5 -48t82 -282.5t77 -506q3 -34 3 -44z" />
<glyph unicode="&#x632;" horiz-adv-x="372" d="M78 967q-31 0 -64 22q-31 25 -30 58q0 66 67 65q100 0 101 -55q0 -90 -74 -90zM297 -41q12 -301 -113 -418q-39 -39 -112 -53q-31 -10 -54.5 -3t-19.5 29.5t21.5 32t34.5 5t32 2.5q94 35 127 144t10.5 263t-57.5 297t-80 298t-53 211t31.5 72.5t70.5 -48t82 -282.5 t77 -506q3 -34 3 -44z" />
<glyph unicode="&#x633;" horiz-adv-x="2615" d="M1255 53q-1 415 -39 685q-4 32 -4 44l-2 11q0 51 46 51t55 -43q16 -106 18 -158q31 -193 182 -547q86 -188 134 -188q81 0 84 520l-15 324q0 50 47 50q25 0 37 -34.5t10 -60.5q-4 -123 66 -357q49 -182 108 -325q104 -250 173 -250t75 291q12 606 74 727q35 68 109 67 q25 0 55 -16q41 -18 47 -45q10 -27 -5 -36t-23.5 -9t-28.5 21t-37 22q-59 0 -84 -211l-2 -29q-9 -119 -15 -235l-18 -347q-14 -266 -141 -266q-102 0 -211 201q-74 143 -99.5 236.5t-54.5 215.5q0 -213 -10 -305q-31 -219 -129 -219q-150 0 -328 531q1 -39 9 -159 q12 -190 3 -344.5t-81 -305.5q-106 -223 -295 -328.5t-417 -19.5t-391 318t-157 478q4 144 61 250q25 49 64 74q4 4 8 4q-25 45 -16 67q37 98 180 103.5t313 -54.5t310 -126q229 -107 262 -164q4 -25 8 -37v-10q-8 -23 -51 -19t-100.5 43t-178.5 100.5t-266 120t-265 57.5 t-151 -85q-4 -10 -6 -28.5t-6 -24.5q-156 -248 27 -596q156 -295 385 -379q170 -61 320.5 17.5t240.5 242.5q117 217 116 438v51z" />
<glyph unicode="&#x634;" horiz-adv-x="2637" d="M1862 903q-31 0 -64 23q-31 25 -31 57q0 66 68 66q100 0 100 -56q1 -90 -73 -90zM1677 903q-29 0 -61.5 25t-32.5 55q0 66 68 66q102 0 102 -56q0 -90 -76 -90zM1761 1098q-29 0 -61 22q-33 27 -33 58q0 66 68 65q102 0 102 -55q0 -90 -76 -90zM1255 53q-1 415 -39 685 q-4 32 -4 44l-2 11q0 51 46 51t55 -43q16 -106 18 -158q31 -193 182 -547q86 -188 134 -188q81 0 84 520l-15 324q0 50 47 50q25 0 37 -34.5t10 -60.5q-4 -123 66 -357q49 -182 108 -325q104 -250 173 -250t75 291q12 606 74 727q35 68 109 67q25 0 55 -16q41 -18 47 -45 q10 -27 -5 -36t-23.5 -9t-28.5 21t-37 22q-59 0 -84 -211l-2 -29q-9 -119 -15 -235l-18 -347q-14 -266 -141 -266q-102 0 -211 201q-74 143 -99.5 236.5t-54.5 215.5q0 -213 -10 -305q-31 -219 -129 -219q-150 0 -328 531q1 -39 9 -159q12 -190 3 -344.5t-81 -305.5 q-106 -223 -295 -328.5t-417 -19.5t-391 318t-157 478q4 144 61 250q25 49 64 74q4 4 8 4q-25 45 -16 67q37 98 180 103.5t313 -54.5t310 -126q229 -107 262 -164q4 -25 8 -37v-10q-8 -23 -51 -19t-100.5 43t-178.5 100.5t-266 120t-265 57.5t-151 -85q-4 -10 -6 -28.5 t-6 -24.5q-156 -248 27 -596q156 -295 385 -379q170 -61 320.5 17.5t240.5 242.5q117 217 116 438v51z" />
<glyph unicode="&#x635;" horiz-adv-x="2574" d="M1415 -70q9 0 147 -8q221 -13 436 -4t308 98q106 113 48 252.5t-198.5 263t-295.5 187.5q-208 75 -348 -5q-165 -94 -176.5 -338.5t79.5 -445.5zM174 299.5q0 -12.5 -6 -20.5q-152 -248 29 -596q152 -293 385 -379q168 -61 319.5 18.5t236.5 236.5t107.5 310.5t-2 318.5 t-123.5 455q-6 12 -14 41t-14 41q-31 80 2 117t73 -22.5t99 -274.5q2 -8 7 -24.5t7 -24.5q63 255 263.5 319t443.5 -61q201 -102 342 -270.5t129 -327.5q-25 -320 -573 -332q-120 -3 -255 3.5t-166 6.5q31 -47 70 -97t39 -63q2 -55 -49 -57q-33 -2 -85 78t-81 143h-12 q-18 -143 -82 -278q-106 -223 -296 -328.5t-417 -17.5q-229 84 -392 316t-157 478q4 139 64 250q25 51 61 74q4 4 8 4q-25 45 -16 67q37 98 180 103.5t314 -54.5t311 -126q307 -143 271 -210q-21 -38 -91 -12q-29 8 -66.5 36t-125 76t-204 98.5t-223 80t-192.5 17 t-111 -79.5q-8 -20 -8 -32.5z" />
<glyph unicode="&#x636;" horiz-adv-x="2598" d="M1696 946q-31 0 -64 23q-31 25 -30 57q0 66 67 66q100 0 100 -56q1 -90 -73 -90zM1415 -70q9 0 147 -8q221 -13 436 -4t308 98q106 113 48 252.5t-198.5 263t-295.5 187.5q-208 75 -348 -5q-165 -94 -176.5 -338.5t79.5 -445.5zM174 299.5q0 -12.5 -6 -20.5 q-152 -248 29 -596q152 -293 385 -379q168 -61 319.5 18.5t236.5 236.5t107.5 310.5t-2 318.5t-123.5 455q-6 12 -14 41t-14 41q-31 80 2 117t73 -22.5t99 -274.5q2 -8 7 -24.5t7 -24.5q63 255 263.5 319t443.5 -61q201 -102 342 -270.5t129 -327.5q-25 -320 -573 -332 q-120 -3 -255 3.5t-166 6.5q31 -47 70 -97t39 -63q2 -55 -49 -57q-33 -2 -85 78t-81 143h-12q-18 -143 -82 -278q-106 -223 -296 -328.5t-417 -17.5q-229 84 -392 316t-157 478q4 139 64 250q25 51 61 74q4 4 8 4q-25 45 -16 67q37 98 180 103.5t314 -54.5t311 -126 q307 -143 271 -210q-21 -38 -91 -12q-29 8 -66.5 36t-125 76t-204 98.5t-223 80t-192.5 17t-111 -79.5q-8 -20 -8 -32.5z" />
<glyph unicode="&#x637;" horiz-adv-x="1466" d="M680 -86q86 0 202 5q237 10 330 99q106 113 47 252.5t-199 262t-296 186.5q-127 61 -266.5 27.5t-206.5 -166.5q-63 -156 -50.5 -331.5t78.5 -318.5q25 0 150 -8t211 -8zM369 -164q25 -37 67 -93t41 -67q4 -55 -47 -59q-37 0 -88 82q-45 66 -80 139q-111 8 -215 84 q-57 41 -29 43q10 2 25.5 -2t97 -18t78.5 -6q-201 418 -299 1038q-20 119 -28.5 227.5t38.5 118.5q35 8 60 -49q10 -27 13 -67q18 -208 32 -273q61 -397 125 -623q4 225 106 369q74 102 186 137q199 62 439 -61q201 -102 342 -271.5t129 -328.5q-17 -213 -260 -286 q-142 -42 -276 -45t-193.5 -1t-148 7t-115.5 5z" />
</font>
</defs>
</svg>
