<?xml version="1.0" standalone="no"?>
<!DOCTYPE svg PUBLIC "-//W3C//DTD SVG 1.1//EN" "http://www.w3.org/Graphics/SVG/1.1/DTD/svg11.dtd" >
<svg xmlns="http://www.w3.org/2000/svg" xmlns:xlink="http://www.w3.org/1999/xlink" version="1.1">
<metadata></metadata>
<defs>
<font id="kfgqpc_warsh_uthmanic_scripRg" horiz-adv-x="1595" >
<font-face units-per-em="2048" ascent="1638" descent="-410" />
<missing-glyph horiz-adv-x="450" />
<glyph unicode="&#xfedf;&#xfe82;" horiz-adv-x="1210" arabic-form="isolated" d="M729 115q51 4 109 8.5t100 16.5q-3 10 -12 31t-20 44t-22.5 44t-19.5 32q-35 -55 -69 -98t-66 -78zM858 451q34 52 60 144t42 208.5t20 249.5t-6 267q17 32 32 59.5t34 56.5q5 8 13 11t10 -11q7 -81 10.5 -156.5t2 -148.5t-7.5 -145.5t-18 -146.5q-13 -88 -31.5 -160 t-39 -129t-40 -99t-34.5 -70q12 -22 26.5 -49.5t28 -57.5t24.5 -60.5t15 -57.5q0 -42 -11 -81.5t-31 -77.5q-35 -7 -92 -14.5t-120 -14t-124 -10.5t-103 -4q-5 2 -4.5 19t4 39t8.5 43.5t10 33.5q5 14 19 14q68 4 87 23q13 13 36.5 39t50 59t51.5 68.5t40 67.5 q-49 83 -104.5 166t-115.5 161.5t-124.5 151t-131.5 133.5q-25 -13 -62 -13q-23 6 -53.5 19.5t-59 32.5t-49 42.5t-22.5 50.5q0 7 0.5 26t2 43.5t5 51t9.5 48.5t14.5 26t31.5 -12q68 -47 137 -110t135.5 -135t129 -150t117 -155t100 -150t78.5 -136zM514.094 1574.07 q2.85645 -1.84082 3.80859 -8.2832q0.952148 -6.44336 -2.85645 -13.8057q-30.4648 -57.9824 -85.2061 -92.0352t-119.003 -46.0176q-64.2617 -11.9639 -129 -3.2207q-64.7373 8.74316 -115.195 36.3535q-11.4238 9.2041 -12.376 0.920898 q-1.9043 -7.36328 -9.04395 -17.9473q-7.14062 -10.584 -15.709 -20.708t-17.1367 -17.0264q-8.56738 -6.90234 -12.376 -6.90234q-7.61621 0 -6.66406 11.5039q0.952148 11.5049 2.85547 20.708q1.9043 11.9648 7.14062 29.9111q5.23633 17.9473 12.376 36.3545 q7.14062 18.4062 16.1846 34.9727q9.04492 16.5664 18.5645 26.6904q7.61621 7.3623 21.8965 0.919922q45.6973 -24.8486 100.439 -38.1943q54.7412 -13.3447 111.863 -11.9639q57.1211 1.37988 113.291 18.8672q56.1689 17.4863 104.723 53.3799 q4.75977 3.68164 6.66406 5.52246q1.9043 1.83984 4.75977 0z" />
<glyph unicode="&#xfee0;&#xfe82;" horiz-adv-x="1270" arabic-form="final" d="M1023 1440q5 8 11.5 6t7.5 -17q11 -141 14.5 -279.5t-5.5 -281.5q-6 -86 -18.5 -162t-29.5 -140t-39.5 -115t-47.5 -85q34 -62 72 -102t81.5 -64t93.5 -33.5t107 -9.5h18q31 0 47 -24.5t16 -54t-16 -54t-47 -24.5h-18q-59 0 -104 9t-79 22.5t-58 29.5t-41 29 q-2 -16 -6.5 -31.5t-9.5 -28t-10 -20.5t-8 -9q-35 -8 -92.5 -15t-121.5 -12t-125 -8.5t-103 -3.5q-5 2 -4 18t5 37t10 42t11 33q5 14 19 14q34 2 50 8.5t21 10.5q8 7 24.5 23.5t37 38.5t42.5 47t42 48.5t35.5 44t22.5 33.5q-36 76 -92 160.5t-121.5 168t-136 161 t-136.5 139.5q-25 -13 -62 -13q-23 6 -53.5 19.5t-59 32.5t-49 42.5t-22.5 50.5q0 7 0.5 27t2 45.5t5 53t9.5 49.5t14.5 26.5t31.5 -12.5q80 -58 158 -132t150 -155t136.5 -164.5t117 -161t91.5 -144.5t61 -115q21 33 38.5 85.5t30 114.5t20 127.5t8.5 122.5q2 109 -3 218.5 t-13 212.5q2 5 19.5 35.5t49.5 85.5zM718 121q22 1 50 3t57.5 5t57 7t48.5 9q-3 13 -11.5 33.5t-19 42t-21.5 41.5t-18 32q-14 -21 -33 -46t-39 -49t-39 -45t-32 -33zM527.541 1626.81q2.93164 -1.96875 3.9082 -8.85742t-2.93066 -14.7607 q-31.2617 -61.9961 -87.4355 -98.4072q-56.1729 -36.4102 -122.116 -49.2031q-65.9424 -12.793 -132.373 -3.44434q-66.4316 9.34863 -118.209 38.8711q-11.7227 9.84082 -12.7002 0.983398q-1.95312 -7.87207 -9.28027 -19.1895q-7.32715 -11.3164 -16.1191 -22.1416 q-8.79297 -10.8242 -17.585 -18.2051q-8.79199 -7.37988 -12.7002 -7.37988q-7.81543 0 -6.83887 12.3008q0.977539 12.3008 2.93066 22.1416q1.9541 12.793 7.32715 31.9814q5.37305 19.1895 12.7002 38.8711t16.6084 37.3945q9.28027 17.7139 19.0498 28.5381 q7.81543 7.87305 22.4688 0.984375q46.8926 -26.5703 103.066 -40.8389q56.1738 -14.2695 114.789 -12.793q58.6162 1.47559 116.255 20.1738q57.6387 18.6973 107.462 57.0752q4.88477 3.93652 6.83887 5.90527q1.95312 1.96777 4.88379 0z" />
<glyph unicode="&#xfedf;&#xfe84;" horiz-adv-x="1236" arabic-form="isolated" d="M729 115q51 4 109 8.5t100 16.5q-3 10 -12 31t-20 44t-22.5 44t-19.5 32q-35 -55 -69 -98t-66 -78zM858 451q34 52 60 144t42 208.5t20 249.5t-6 267q17 32 32 59.5t34 56.5q5 8 13 11t10 -11q7 -81 10.5 -156.5t2 -148.5t-7.5 -145.5t-18 -146.5q-13 -88 -31.5 -160 t-39 -129t-40 -99t-34.5 -70q12 -22 26.5 -49.5t28 -57.5t24.5 -60.5t15 -57.5q0 -42 -11 -81.5t-31 -77.5q-35 -7 -92 -14.5t-120 -14t-124 -10.5t-103 -4q-5 2 -4.5 19t4 39t8.5 43.5t10 33.5q5 14 19 14q68 4 87 23q13 13 36.5 39t50 59t51.5 68.5t40 67.5 q-49 83 -104.5 166t-115.5 161.5t-124.5 151t-131.5 133.5q-25 -13 -62 -13q-23 6 -53.5 19.5t-59 32.5t-49 42.5t-22.5 50.5q0 7 0.5 26t2 43.5t5 51t9.5 48.5t14.5 26t31.5 -12q68 -47 137 -110t135.5 -135t129 -150t117 -155t100 -150t78.5 -136zM817.022 1564.67 q6.71973 3.74512 17.7578 8.89551q11.0391 5.14941 22.5576 11.2354q11.5195 6.08691 22.0781 12.1729t18.2383 11.7041q-21.1182 17.791 -37.4365 37.9219q-16.3184 20.1318 -29.7568 46.3486q-5.75879 12.1729 -3.35938 31.3672q2.39941 19.1953 11.999 34.1768 q5.75879 9.36328 23.0371 29.4951q17.2783 20.1309 42.2354 40.2627q24.958 20.1309 55.1943 35.5811q30.2373 15.4492 61.9141 15.4492q10.5586 0 21.1172 -7.02246q10.5596 -7.02246 18.7188 -16.8545q8.15918 -9.83105 13.918 -21.0674 q5.75977 -11.2363 7.67969 -20.5996q5.75879 -21.5361 0 -36.5176q-16.3184 -33.708 -25.917 -42.1348q-9.59961 -8.42676 -17.2783 -9.36328q-4.7998 0 -7.67969 4.68164t-4.7998 11.2354q-1.91895 6.55469 -3.35938 13.1094q-1.43945 6.55469 -2.39941 9.36328 q-4.7998 10.2998 -17.2783 17.79q-12.4785 7.49121 -25.917 7.49121q-45.1152 0 -84.4717 -32.7715q13.4385 -34.6455 42.7158 -62.7354q29.2764 -28.0898 67.6729 -33.708q48.9551 -5.61816 94.0703 3.27734q45.1152 8.89453 94.0703 20.1309q0 -1.87305 -3.83984 -16.3857 q-3.83984 -14.5137 -9.59863 -30.8994q-5.75977 -16.3857 -11.999 -29.4941q-6.23926 -13.1094 -10.0791 -13.1094q-40.3154 -3.74512 -81.5918 -11.7041q-41.2754 -7.95898 -87.3506 -21.0674q-48.9551 -13.1094 -96.9502 -35.5811q-47.9951 -22.4727 -91.1904 -43.0723 q-12.4785 -3.74512 -14.3984 7.49121q5.75977 19.6631 14.8789 39.7939q9.11914 20.1318 16.7979 35.1133z" />
<glyph unicode="&#xfee0;&#xfe84;" horiz-adv-x="1270" arabic-form="final" d="M1023 1440q5 8 11.5 6t7.5 -17q11 -141 14.5 -279.5t-5.5 -281.5q-6 -86 -18.5 -162t-29.5 -140t-39.5 -115t-47.5 -85q34 -62 72 -102t81.5 -64t93.5 -33.5t107 -9.5h18q31 0 47 -24.5t16 -54t-16 -54t-47 -24.5h-18q-59 0 -104 9t-79 22.5t-58 29.5t-41 29 q-2 -16 -6.5 -31.5t-9.5 -28t-10 -20.5t-8 -9q-35 -8 -92.5 -15t-121.5 -12t-125 -8.5t-103 -3.5q-5 2 -4 18t5 37t10 42t11 33q5 14 19 14q34 2 50 8.5t21 10.5q8 7 24.5 23.5t37 38.5t42.5 47t42 48.5t35.5 44t22.5 33.5q-36 76 -92 160.5t-121.5 168t-136 161 t-136.5 139.5q-25 -13 -62 -13q-23 6 -53.5 19.5t-59 32.5t-49 42.5t-22.5 50.5q0 7 0.5 27t2 45.5t5 53t9.5 49.5t14.5 26.5t31.5 -12.5q80 -58 158 -132t150 -155t136.5 -164.5t117 -161t91.5 -144.5t61 -115q21 33 38.5 85.5t30 114.5t20 127.5t8.5 122.5q2 109 -3 218.5 t-13 212.5q2 5 19.5 35.5t49.5 85.5zM718 121q22 1 50 3t57.5 5t57 7t48.5 9q-3 13 -11.5 33.5t-19 42t-21.5 41.5t-18 32q-14 -21 -33 -46t-39 -49t-39 -45t-32 -33zM827.022 1554.67q6.71973 3.74512 17.7578 8.89551q11.0391 5.14941 22.5576 11.2354 q11.5195 6.08691 22.0781 12.1729t18.2383 11.7041q-21.1182 17.791 -37.4365 37.9219q-16.3184 20.1318 -29.7568 46.3486q-5.75879 12.1729 -3.35938 31.3672q2.39941 19.1953 11.999 34.1768q5.75879 9.36328 23.0371 29.4951q17.2783 20.1309 42.2354 40.2627 q24.958 20.1309 55.1943 35.5811q30.2373 15.4492 61.9141 15.4492q10.5586 0 21.1172 -7.02246q10.5596 -7.02246 18.7188 -16.8545q8.15918 -9.83105 13.918 -21.0674q5.75977 -11.2363 7.67969 -20.5996q5.75879 -21.5361 0 -36.5176q-16.3184 -33.708 -25.917 -42.1348 q-9.59961 -8.42676 -17.2783 -9.36328q-4.7998 0 -7.67969 4.68164t-4.7998 11.2354q-1.91895 6.55469 -3.35938 13.1094q-1.43945 6.55469 -2.39941 9.36328q-4.7998 10.2998 -17.2783 17.79q-12.4785 7.49121 -25.917 7.49121q-45.1152 0 -84.4717 -32.7715 q13.4385 -34.6455 42.7158 -62.7354q29.2764 -28.0898 67.6729 -33.708q48.9551 -5.61816 94.0703 3.27734q45.1152 8.89453 94.0703 20.1309q0 -1.87305 -3.83984 -16.3857q-3.83984 -14.5137 -9.59863 -30.8994q-5.75977 -16.3857 -11.999 -29.4941 q-6.23926 -13.1094 -10.0791 -13.1094q-40.3154 -3.74512 -81.5918 -11.7041q-41.2754 -7.95898 -87.3506 -21.0674q-48.9551 -13.1094 -96.9502 -35.5811q-47.9951 -22.4727 -91.1904 -43.0723q-12.4785 -3.74512 -14.3984 7.49121q5.75977 19.6631 14.8789 39.7939 q9.11914 20.1318 16.7979 35.1133z" />
<glyph unicode="&#xfedf;&#xfe88;" horiz-adv-x="1213" arabic-form="isolated" d="M729 115q51 4 109 8.5t100 16.5q-3 10 -12 31t-20 44t-22.5 44t-19.5 32q-35 -55 -69 -98t-66 -78zM858 451q34 52 60 144t42 208.5t20 249.5t-6 267q17 32 32 59.5t34 56.5q5 8 13 11t10 -11q7 -81 10.5 -156.5t2 -148.5t-7.5 -145.5t-18 -146.5q-13 -88 -31.5 -160 t-39 -129t-40 -99t-34.5 -70q12 -22 26.5 -49.5t28 -57.5t24.5 -60.5t15 -57.5q0 -42 -11 -81.5t-31 -77.5q-35 -7 -92 -14.5t-120 -14t-124 -10.5t-103 -4q-5 2 -4.5 19t4 39t8.5 43.5t10 33.5q5 14 19 14q68 4 87 23q13 13 36.5 39t50 59t51.5 68.5t40 67.5 q-49 83 -104.5 166t-115.5 161.5t-124.5 151t-131.5 133.5q-25 -13 -62 -13q-23 6 -53.5 19.5t-59 32.5t-49 42.5t-22.5 50.5q0 7 0.5 26t2 43.5t5 51t9.5 48.5t14.5 26t31.5 -12q68 -47 137 -110t135.5 -135t129 -150t117 -155t100 -150t78.5 -136zM351.022 -351.331 q6.71973 3.74512 17.7578 8.89551q11.0391 5.14941 22.5576 11.2354q11.5195 6.08691 22.0781 12.1729t18.2383 11.7041q-21.1182 17.791 -37.4365 37.9219q-16.3184 20.1318 -29.7568 46.3486q-5.75879 12.1729 -3.35938 31.3672q2.39941 19.1953 11.999 34.1768 q5.75879 9.36328 23.0371 29.4951q17.2783 20.1309 42.2354 40.2627q24.958 20.1309 55.1943 35.5811q30.2373 15.4492 61.9141 15.4492q10.5586 0 21.1172 -7.02246q10.5596 -7.02246 18.7188 -16.8545q8.15918 -9.83105 13.918 -21.0674 q5.75977 -11.2363 7.67969 -20.5996q5.75879 -21.5361 0 -36.5176q-16.3184 -33.708 -25.917 -42.1348q-9.59961 -8.42676 -17.2783 -9.36328q-4.7998 0 -7.67969 4.68164t-4.7998 11.2354q-1.91895 6.55469 -3.35938 13.1094q-1.43945 6.55469 -2.39941 9.36328 q-4.7998 10.2998 -17.2783 17.79q-12.4785 7.49121 -25.917 7.49121q-45.1152 0 -84.4717 -32.7715q13.4385 -34.6455 42.7158 -62.7354q29.2764 -28.0898 67.6729 -33.708q48.9551 -5.61816 94.0703 3.27734q45.1152 8.89453 94.0703 20.1309q0 -1.87305 -3.83984 -16.3857 q-3.83984 -14.5137 -9.59863 -30.8994q-5.75977 -16.3857 -11.999 -29.4941q-6.23926 -13.1094 -10.0791 -13.1094q-40.3154 -3.74512 -81.5918 -11.7041q-41.2754 -7.95898 -87.3506 -21.0674q-48.9551 -13.1094 -96.9502 -35.5811q-47.9951 -22.4727 -91.1904 -43.0723 q-12.4785 -3.74512 -14.3984 7.49121q5.75977 19.6631 14.8789 39.7939q9.11914 20.1318 16.7979 35.1133z" />
<glyph unicode="&#xfee0;&#xfe88;" horiz-adv-x="1270" arabic-form="final" d="M1023 1440q5 8 11.5 6t7.5 -17q11 -141 14.5 -279.5t-5.5 -281.5q-6 -86 -18.5 -162t-29.5 -140t-39.5 -115t-47.5 -85q34 -62 72 -102t81.5 -64t93.5 -33.5t107 -9.5h18q31 0 47 -24.5t16 -54t-16 -54t-47 -24.5h-18q-59 0 -104 9t-79 22.5t-58 29.5t-41 29 q-2 -16 -6.5 -31.5t-9.5 -28t-10 -20.5t-8 -9q-35 -8 -92.5 -15t-121.5 -12t-125 -8.5t-103 -3.5q-5 2 -4 18t5 37t10 42t11 33q5 14 19 14q34 2 50 8.5t21 10.5q8 7 24.5 23.5t37 38.5t42.5 47t42 48.5t35.5 44t22.5 33.5q-36 76 -92 160.5t-121.5 168t-136 161 t-136.5 139.5q-25 -13 -62 -13q-23 6 -53.5 19.5t-59 32.5t-49 42.5t-22.5 50.5q0 7 0.5 27t2 45.5t5 53t9.5 49.5t14.5 26.5t31.5 -12.5q80 -58 158 -132t150 -155t136.5 -164.5t117 -161t91.5 -144.5t61 -115q21 33 38.5 85.5t30 114.5t20 127.5t8.5 122.5q2 109 -3 218.5 t-13 212.5q2 5 19.5 35.5t49.5 85.5zM718 121q22 1 50 3t57.5 5t57 7t48.5 9q-3 13 -11.5 33.5t-19 42t-21.5 41.5t-18 32q-14 -21 -33 -46t-39 -49t-39 -45t-32 -33zM361.022 -343.331q6.71973 3.74512 17.7578 8.89551q11.0391 5.14941 22.5576 11.2354 q11.5195 6.08691 22.0781 12.1729t18.2383 11.7041q-21.1182 17.791 -37.4365 37.9219q-16.3184 20.1318 -29.7568 46.3486q-5.75879 12.1729 -3.35938 31.3672q2.39941 19.1953 11.999 34.1768q5.75879 9.36328 23.0371 29.4951q17.2783 20.1309 42.2354 40.2627 q24.958 20.1309 55.1943 35.5811q30.2373 15.4492 61.9141 15.4492q10.5586 0 21.1172 -7.02246q10.5596 -7.02246 18.7188 -16.8545q8.15918 -9.83105 13.918 -21.0674q5.75977 -11.2363 7.67969 -20.5996q5.75879 -21.5361 0 -36.5176q-16.3184 -33.708 -25.917 -42.1348 q-9.59961 -8.42676 -17.2783 -9.36328q-4.7998 0 -7.67969 4.68164t-4.7998 11.2354q-1.91895 6.55469 -3.35938 13.1094q-1.43945 6.55469 -2.39941 9.36328q-4.7998 10.2998 -17.2783 17.79q-12.4785 7.49121 -25.917 7.49121q-45.1152 0 -84.4717 -32.7715 q13.4385 -34.6455 42.7158 -62.7354q29.2764 -28.0898 67.6729 -33.708q48.9551 -5.61816 94.0703 3.27734q45.1152 8.89453 94.0703 20.1309q0 -1.87305 -3.83984 -16.3857q-3.83984 -14.5137 -9.59863 -30.8994q-5.75977 -16.3857 -11.999 -29.4941 q-6.23926 -13.1094 -10.0791 -13.1094q-40.3154 -3.74512 -81.5918 -11.7041q-41.2754 -7.95898 -87.3506 -21.0674q-48.9551 -13.1094 -96.9502 -35.5811q-47.9951 -22.4727 -91.1904 -43.0723q-12.4785 -3.74512 -14.3984 7.49121q5.75977 19.6631 14.8789 39.7939 q9.11914 20.1318 16.7979 35.1133z" />
<glyph unicode="&#xfedf;&#xfe8e;" horiz-adv-x="1205" arabic-form="isolated" d="M729 115q51 4 109 8.5t100 16.5q-3 10 -12 31t-20 44t-22.5 44t-19.5 32q-35 -55 -69 -98t-66 -78zM858 451q34 52 60 144t42 208.5t20 249.5t-6 267q17 32 32 59.5t34 56.5q5 8 13 11t10 -11q7 -81 10.5 -156.5t2 -148.5t-7.5 -145.5t-18 -146.5q-13 -88 -31.5 -160 t-39 -129t-40 -99t-34.5 -70q12 -22 26.5 -49.5t28 -57.5t24.5 -60.5t15 -57.5q0 -42 -11 -81.5t-31 -77.5q-35 -7 -92 -14.5t-120 -14t-124 -10.5t-103 -4q-5 2 -4.5 19t4 39t8.5 43.5t10 33.5q5 14 19 14q68 4 87 23q13 13 36.5 39t50 59t51.5 68.5t40 67.5 q-49 83 -104.5 166t-115.5 161.5t-124.5 151t-131.5 133.5q-25 -13 -62 -13q-23 6 -53.5 19.5t-59 32.5t-49 42.5t-22.5 50.5q0 7 0.5 26t2 43.5t5 51t9.5 48.5t14.5 26t31.5 -12q68 -47 137 -110t135.5 -135t129 -150t117 -155t100 -150t78.5 -136z" />
<glyph unicode="&#xfee0;&#xfe8e;" horiz-adv-x="1270" arabic-form="final" d="M1023 1440q5 8 11.5 6t7.5 -17q11 -141 14.5 -279.5t-5.5 -281.5q-6 -86 -18.5 -162t-29.5 -140t-39.5 -115t-47.5 -85q34 -62 72 -102t81.5 -64t93.5 -33.5t107 -9.5h18q31 0 47 -24.5t16 -54t-16 -54t-47 -24.5h-18q-59 0 -104 9t-79 22.5t-58 29.5t-41 29 q-2 -16 -6.5 -31.5t-9.5 -28t-10 -20.5t-8 -9q-35 -8 -92.5 -15t-121.5 -12t-125 -8.5t-103 -3.5q-5 2 -4 18t5 37t10 42t11 33q5 14 19 14q34 2 50 8.5t21 10.5q8 7 24.5 23.5t37 38.5t42.5 47t42 48.5t35.5 44t22.5 33.5q-36 76 -92 160.5t-121.5 168t-136 161 t-136.5 139.5q-25 -13 -62 -13q-23 6 -53.5 19.5t-59 32.5t-49 42.5t-22.5 50.5q0 7 0.5 27t2 45.5t5 53t9.5 49.5t14.5 26.5t31.5 -12.5q80 -58 158 -132t150 -155t136.5 -164.5t117 -161t91.5 -144.5t61 -115q21 33 38.5 85.5t30 114.5t20 127.5t8.5 122.5q2 109 -3 218.5 t-13 212.5q2 5 19.5 35.5t49.5 85.5zM718 121q22 1 50 3t57.5 5t57 7t48.5 9q-3 13 -11.5 33.5t-19 42t-21.5 41.5t-18 32q-14 -21 -33 -46t-39 -49t-39 -45t-32 -33z" />
<glyph unicode="&#x651;&#x64b;" horiz-adv-x="0" d="M211 92q-21 -43 -48.5 -64.5t-72.5 -25.5q-37 -2 -58.5 16.5t-27.5 63.5q-2 20 2 41.5t12 40t19 32t22 17.5q13 2 2 -18q-5 -11 -8.5 -25.5t-4 -29t3 -26.5t11.5 -18q15 -10 32 -9.5t33.5 7t31.5 18t26 23.5q13 15 18 34t9 36q0 5 1.5 12.5t4.5 15t8 12.5t13 5 q4 0 6 -5.5t2.5 -12.5t0 -13.5t-0.5 -9.5q0 -29 8 -45.5t37 -22.5q16 -4 37.5 2.5t38.5 20.5q2 2 1 11t-3 19t-5 18.5t-4 10.5q-2 4 2.5 16.5t10.5 25.5t12 23.5t8 10.5q11 1 16.5 -15.5t7 -39.5t-0.5 -47t-6 -39q-11 -37 -32.5 -67t-62.5 -38q-37 -6 -61.5 5.5t-40.5 33.5z M396 434l-383 -142q-12 -4 -11 10l41 77q7 14 20 19l370 132q6 3 10.5 1t2.5 -8l-35 -75q-2 -8 -15 -14zM397 621l-383 -143q-12 -3 -11 10l42 78q7 14 19 19l370 133q6 2 10.5 0.5t2.5 -8.5l-35 -76q-1 -8 -15 -13z" />
<glyph unicode="&#x651;&#x64c;" horiz-adv-x="0" d="M296 612q5 6 12.5 6t10.5 -4q38 -70 37 -179q-5 -53 -51 -60q-43 -10 -102 -18t-152 -8l35 74q76 2 125 8t71 10q3 48 -23 110zM207 836q5 7 12.5 6.5t10.5 -4.5q38 -77 37 -174q-2 -26 -15 -43t-36 -21q-43 -10 -97 -17t-137 -8l35 73q39 1 67.5 3t49 4.5t34.5 5t25 4.5 q3 49 -23 110zM211 92q-21 -43 -48.5 -64.5t-72.5 -25.5q-37 -2 -58.5 16.5t-27.5 63.5q-2 20 2 41.5t12 40t19 32t22 17.5q13 2 2 -18q-5 -11 -8.5 -25.5t-4 -29t3 -26.5t11.5 -18q15 -10 32 -9.5t33.5 7t31.5 18t26 23.5q13 15 18 34t9 36q0 5 1.5 12.5t4.5 15t8 12.5 t13 5q4 0 6 -5.5t2.5 -12.5t0 -13.5t-0.5 -9.5q0 -29 8 -45.5t37 -22.5q16 -4 37.5 2.5t38.5 20.5q2 2 1 11t-3 19t-5 18.5t-4 10.5q-2 4 2.5 16.5t10.5 25.5t12 23.5t8 10.5q11 1 16.5 -15.5t7 -39.5t-0.5 -47t-6 -39q-11 -37 -32.5 -67t-62.5 -38q-37 -6 -61.5 5.5 t-40.5 33.5z" />
<glyph unicode="&#x651;&#x64e;" horiz-adv-x="0" d="M211 92q-21 -43 -48.5 -64.5t-72.5 -25.5q-37 -2 -58.5 16.5t-27.5 63.5q-2 20 2 41.5t12 40t19 32t22 17.5q13 2 2 -18q-5 -11 -8.5 -25.5t-4 -29t3 -26.5t11.5 -18q15 -10 32 -9.5t33.5 7t31.5 18t26 23.5q13 15 18 34t9 36q0 5 1.5 12.5t4.5 15t8 12.5t13 5 q4 0 6 -5.5t2.5 -12.5t0 -13.5t-0.5 -9.5q0 -29 8 -45.5t37 -22.5q16 -4 37.5 2.5t38.5 20.5q2 2 1 11t-3 19t-5 18.5t-4 10.5q-2 4 2.5 16.5t10.5 25.5t12 23.5t8 10.5q11 1 16.5 -15.5t7 -39.5t-0.5 -47t-6 -39q-11 -37 -32.5 -67t-62.5 -38q-37 -6 -61.5 5.5t-40.5 33.5z M398 458l-381 -151q-11 -3 -10 10l41 89q7 12 18 17l369 142q6 2 10 0t2 -8l-35 -87q-1 -7 -14 -12z" />
<glyph unicode="&#x651;&#x64f;" horiz-adv-x="0" d="M289 714q12 14 21 2q30 -60 44.5 -119t14.5 -126q-1 -64 -53 -78q-39 -11 -110.5 -24.5t-171.5 -19.5l28 90q88 5 148 17t81 19q0 49 -13 83t-33 70zM211 92q-21 -43 -48.5 -64.5t-72.5 -25.5q-37 -2 -58.5 16.5t-27.5 63.5q-2 20 2 41.5t12 40t19 32t22 17.5q13 2 2 -18 q-5 -11 -8.5 -25.5t-4 -29t3 -26.5t11.5 -18q15 -10 32 -9.5t33.5 7t31.5 18t26 23.5q13 15 18 34t9 36q0 5 1.5 12.5t4.5 15t8 12.5t13 5q4 0 6 -5.5t2.5 -12.5t0 -13.5t-0.5 -9.5q0 -29 8 -45.5t37 -22.5q16 -4 37.5 2.5t38.5 20.5q2 2 1 11t-3 19t-5 18.5t-4 10.5 q-2 4 2.5 16.5t10.5 25.5t12 23.5t8 10.5q11 1 16.5 -15.5t7 -39.5t-0.5 -47t-6 -39q-11 -37 -32.5 -67t-62.5 -38q-37 -6 -61.5 5.5t-40.5 33.5z" />
<glyph unicode="&#x651;&#x670;" horiz-adv-x="0" d="M211 92q-21 -43 -48.5 -64.5t-72.5 -25.5q-37 -2 -58.5 16.5t-27.5 63.5q-2 20 2 41.5t12 40t19 32t22 17.5q13 2 2 -18q-5 -11 -8.5 -25.5t-4 -29t3 -26.5t11.5 -18q15 -10 32 -9.5t33.5 7t31.5 18t26 23.5q13 15 18 34t9 36q0 5 1.5 12.5t4.5 15t8 12.5t13 5 q4 0 6 -5.5t2.5 -12.5t0 -13.5t-0.5 -9.5q0 -29 8 -45.5t37 -22.5q16 -4 37.5 2.5t38.5 20.5q2 2 1 11t-3 19t-5 18.5t-4 10.5q-2 4 2.5 16.5t10.5 25.5t12 23.5t8 10.5q11 1 16.5 -15.5t7 -39.5t-0.5 -47t-6 -39q-11 -37 -32.5 -67t-62.5 -38q-37 -6 -61.5 5.5t-40.5 33.5z M213.284 777.272q3.86035 0 9.65137 -8.78809q55.0098 -65.9141 78.1719 -138.857q23.1621 -72.9443 9.65039 -165.224q-4.8252 -21.0918 -12.0635 -46.1387q-7.2373 -25.0479 -16.4062 -46.5791q-9.16797 -21.5312 -20.749 -36.4717t-24.127 -14.9404 q-8.68652 0 -10.1338 7.03027q-1.44824 7.03125 0 17.5771q1.44727 10.5459 4.8252 21.9707q3.37793 11.4258 5.30859 20.2139q7.7207 36.9111 7.2373 76.8984q-0.482422 39.9883 -9.65039 80.415q-9.16895 40.4268 -27.9873 79.0957q-18.8193 38.6689 -48.7373 74.7021 q0 3.51465 7.23828 16.2588q7.23828 12.7432 16.4062 26.8047q9.16895 14.0615 18.3369 25.0469t13.0283 10.9854z" />
<glyph unicode="&#x670;&#x653;" horiz-adv-x="0" d="M233.143 465.295q3.92969 0 9.8252 -8.82617q56.0049 -66.2021 79.5859 -139.466q23.5811 -73.2627 9.8252 -165.945q-4.91211 -21.1846 -12.2812 -46.3418q-7.36914 -25.1562 -16.7031 -46.7822q-9.33496 -21.626 -21.125 -36.6318q-11.791 -15.0059 -24.5635 -15.0059 q-8.84277 0 -10.3174 7.06152q-1.47363 7.06152 0 17.6543q1.47461 10.5918 4.91309 22.0674q3.43848 11.4746 5.4043 20.3018q7.86035 37.0723 7.36914 77.2354q-0.491211 40.1621 -9.82617 80.7656q-9.33398 40.6045 -28.4932 79.4424q-19.1602 38.8389 -49.6191 75.0293 q0 3.53027 7.36914 16.3291t16.7041 26.9219q9.33398 14.123 18.668 25.1572q9.33398 11.0332 13.2646 11.0332zM503.547 729.924q2.79785 -1.84863 3.73047 -8.32129q0.932617 -6.47168 -2.79785 -13.8691q-29.8398 -58.251 -83.458 -92.4619t-116.562 -46.2314 q-62.9434 -12.0195 -126.354 -3.23633q-63.4092 8.78418 -112.832 36.5225q-11.1895 9.24609 -12.1221 0.924805q-1.86523 -7.39648 -8.8584 -18.0303q-6.99414 -10.6328 -15.3867 -20.8037t-16.7852 -17.1055q-8.3916 -6.93457 -12.1221 -6.93457 q-7.45996 0 -6.52734 11.5576t2.79688 20.8037q1.86523 12.0205 6.99414 30.0508t12.1221 36.5225q6.99414 18.4922 15.8525 35.1357q8.85938 16.6426 18.1836 26.8135q7.45996 7.39746 21.4473 0.924805q44.7598 -24.9648 98.3789 -38.3721 q53.6182 -13.4062 109.568 -12.0195q55.9492 1.38672 110.967 18.9541q55.0166 17.5684 102.574 53.6289q4.66211 3.69824 6.52734 5.54688q1.86523 1.84961 4.66211 0z" />
<glyph unicode="&#x650;&#x6e2;" horiz-adv-x="0" d="M432 -489q-2 0 -3 -0.5t-3 -0.5q-35 1 -68.5 1.5t-59 -6t-39 -22.5t-9.5 -47q1 -12 3 -34.5t3.5 -46.5t2 -45t-0.5 -31q-1 -9 -6.5 -14.5t-11.5 -6t-10.5 3.5t-4.5 13q0 31 -4 62t-9.5 57.5t-9.5 47t-4 29.5q-2 54 15.5 76.5t57.5 29.5q2 22 9 45t20.5 41t33.5 28.5 t48 7.5q21 -2 35.5 -15.5t24 -31t14 -35.5t4.5 -29q-1 -5 -4 -17.5t-7.5 -25.5t-9 -23.5t-7.5 -10.5zM626 -108q-106 -30 -202.5 -61t-190.5 -59q-17 -3 -9 11l44 74q5 10 15 14q28 10 74 24t100 30t111 32.5t108 31.5q9 2 11 0.5t-2 -9.5l-46 -76q-2 -4 -5.5 -7.5 t-7.5 -4.5zM391 -410q-5 13 -14.5 19.5t-20 6t-21 -7.5t-16.5 -21z" />
<glyph unicode="&#x655;&#x650;" horiz-adv-x="0" d="M185 -444q9 4 20 9.5t22.5 12t22.5 13t19 12.5q-23 19 -41 40.5t-31 53.5q-6 13 -3 28t12 28q16 23 36.5 47.5t44.5 45t52 33.5t59 13q12 0 22.5 -7.5t18.5 -18t14 -22.5t9 -22q6 -23 0 -39l-19 -32q-8 -23 -27 -23q-10 0 -12 13.5t-6 25.5q-8 16 -19.5 22.5t-25.5 6.5 q-50 0 -88 -35q14 -37 44.5 -67t70.5 -36q51 -6 98 3.5t98 19.5q0 -2 -4 -16.5t-10 -32t-12.5 -31.5t-10.5 -14q-42 -4 -85 -13.5t-91 -21.5q-49 -16 -100 -38.5t-96 -45.5q-10 0 -15 8q6 21 15.5 42.5t17.5 37.5zM530 -637l-379 -121q-11 -3 -10 10l41 85q4 9 18 14 l367 115q6 1 10 -1t2 -8l-35 -83q-1 -7 -14 -11z" />
<glyph unicode="&#x655;&#x656;" horiz-adv-x="0" d="M75 -352q9 4 20 9.5t22.5 12t22.5 13t19 12.5q-23 19 -41 40.5t-31 53.5q-6 13 -3 28t12 28q16 23 36.5 47.5t44.5 45t52 33.5t59 13q12 0 22.5 -7.5t18.5 -18t14 -22.5t9 -22q6 -23 0 -39l-19 -32q-8 -23 -27 -23q-10 0 -12 13.5t-6 25.5q-8 16 -19.5 22.5t-25.5 6.5 q-50 0 -88 -35q14 -37 44.5 -67t70.5 -36q51 -6 98 3.5t98 19.5q0 -2 -4 -16.5t-10 -32t-12.5 -31.5t-10.5 -14q-42 -4 -85 -13.5t-91 -21.5q-49 -16 -100 -38.5t-96 -45.5q-10 0 -15 8q6 21 15.5 42.5t17.5 37.5zM436 -520l-379 -105q-17 -6 -6 11l36 59q7 7 19 12l379 105 q8 2 9 0t-3 -11l-41 -61q-4 -6 -14 -10zM270 -739q-167 -54 -258.5 -83.5t-116.5 -37.5q-16 -6 -6 10l35 62q4 7 16 12l375 121q8 2 9 1t-3 -9l-37 -64l-6 -6t-8 -6z" />
<glyph unicode="&#x6dc;&#x64e;" horiz-adv-x="0" d="M890 -211q12 -9 29 -13t35 -3.5t34.5 5t26.5 13.5q24 12 39.5 34.5t31.5 55.5q9 10 18 7t9 -13q-4 -15 -8 -23t-8 -23q6 -6 21.5 -14t34 -14.5t36 -9.5t26.5 2q0 18 -7 37.5t-15 37.5q4 15 12 29t19 29q0 4 2 4t2 -2q14 -33 22 -68t-4 -69l-16 -48q-11 -26 -35 -32 q-12 -4 -30.5 -0.5t-37.5 11.5t-36 18t-25 18q-27 -39 -61.5 -54.5t-83.5 -13.5q4 -26 4 -54t-6 -56q-11 -42 -42 -73.5t-71.5 -52t-85.5 -30.5t-84 -10q-83 0 -135 45q-54 45 -56 125q0 45 17.5 90t46.5 82q4 6 9 1t1 -9q-10 -25 -20.5 -50.5t-14.5 -56.5t4.5 -58.5 t32.5 -49.5q33 -29 77.5 -35.5t86.5 -1.5q28 4 56 11.5t57 20.5q28 15 49.5 33.5t38.5 44.5q-2 49 -23.5 91t-46.5 85q4 19 11.5 33t13.5 35q6 6 8 0q12 -16 22.5 -32.5t18.5 -28.5zM1100.96 1104.31l-489.133 -169.811q-14.1221 -3.37305 -12.8389 11.2461l52.6367 100.087 q8.98633 13.4951 23.1084 19.1182l473.728 159.688q7.70312 2.24902 12.8379 0q5.13574 -2.24902 2.56738 -8.99609l-44.9326 -97.8379q-1.28418 -7.87207 -17.9736 -13.4951z" />
<glyph unicode="&#xfe91;&#xfef2;" horiz-adv-x="1890" d="M1622 106l124 -103q5 -4 5 -7t-4 -8l-83 -104q-8 -8 -17 -1l-124 102q-7 6 0 16l84 103q6 8 15 2zM1290 87q0 -72 -34 -129t-88 -100q-62 -50 -131 -89t-147.5 -65.5t-168.5 -39.5t-194 -10q-92 3 -174.5 30.5t-144.5 79.5t-98 128.5t-36 177.5q0 103 33 195t94 180 q4 6 9 6t9 -3.5t5.5 -9t-1.5 -11.5q-23 -44 -41 -91t-28.5 -94.5t-10.5 -94t13 -89.5q21 -69 63 -116t96.5 -75.5t116.5 -40.5t123 -12q99 0 183.5 9t158 28.5t140 51t129.5 75.5q24 17 32 28t8 13q0 10 -20 16t-52 11t-73 10.5t-83.5 15t-83.5 24.5t-73.5 38.5t-52 57.5 t-20.5 81q-1 32 14.5 75t42.5 88.5t64.5 90t80.5 79t90 56t93 21.5q36 0 65 -15t56.5 -38t56 -49t64 -49t81 -38t106.5 -15q21 0 45 2.5t47 7t42.5 11.5t30.5 16q8 7 13 13t2 14q-18 55 -50.5 113.5t-75.5 101.5q8 35 17.5 77.5t17.5 76.5q2 8 7.5 8.5t16.5 -10.5 q28 -27 52 -66.5t41.5 -83.5t27.5 -89.5t10 -84.5q0 -17 -2.5 -43t-7.5 -53.5t-12.5 -52t-18.5 -37.5q-36 -42 -94 -60.5t-122 -18.5q-66 0 -117.5 16t-92.5 39.5t-73.5 51t-60 51t-52 39.5t-50.5 16q-25 0 -55 -11t-61.5 -29t-61 -40.5t-52 -45.5t-36.5 -44t-14 -36 q0 -25 16.5 -45.5t43.5 -36.5t62 -28t72.5 -21t74 -14.5t67.5 -8.5q22 -2 45.5 -6t42.5 -13.5t31 -25.5t12 -42z" />
<glyph unicode="&#xfe97;&#xfef2;" horiz-adv-x="1890" d="M1290 87q0 -72 -34 -129t-88 -100q-62 -50 -131 -89t-147.5 -65.5t-168.5 -39.5t-194 -10q-92 3 -174.5 30.5t-144.5 79.5t-98 128.5t-36 177.5q0 103 33 195t94 180q4 6 9 6t9 -3.5t5.5 -9t-1.5 -11.5q-23 -44 -41 -91t-28.5 -94.5t-10.5 -94t13 -89.5q21 -69 63 -116 t96.5 -75.5t116.5 -40.5t123 -12q99 0 183.5 9t158 28.5t140 51t129.5 75.5q24 17 32 28t8 13q0 10 -20 16t-52 11t-73 10.5t-83.5 15t-83.5 24.5t-73.5 38.5t-52 57.5t-20.5 81q-1 32 14.5 75t42.5 88.5t64.5 90t80.5 79t90 56t93 21.5q36 0 65 -15t56.5 -38t56 -49t64 -49 t81 -38t106.5 -15q21 0 45 2.5t47 7t42.5 11.5t30.5 16q8 7 13 13t2 14q-18 55 -50.5 113.5t-75.5 101.5q8 35 17.5 77.5t17.5 76.5q2 8 7.5 8.5t16.5 -10.5q28 -27 52 -66.5t41.5 -83.5t27.5 -89.5t10 -84.5q0 -17 -2.5 -43t-7.5 -53.5t-12.5 -52t-18.5 -37.5 q-36 -42 -94 -60.5t-122 -18.5q-66 0 -117.5 16t-92.5 39.5t-73.5 51t-60 51t-52 39.5t-50.5 16q-25 0 -55 -11t-61.5 -29t-61 -40.5t-52 -45.5t-36.5 -44t-14 -36q0 -25 16.5 -45.5t43.5 -36.5t62 -28t72.5 -21t74 -14.5t67.5 -8.5q22 -2 45.5 -6t42.5 -13.5t31 -25.5 t12 -42zM1724 1150q-7 -10 -19 -1l-120 93l-77 -106q-4 -5 -8.5 -5.5t-7.5 1.5l-128 98q-4 3 -5 5t3 7l80 115q6 10 15 4l121 -92l82 105q4 5 6 5.5t6 -2.5l128 -106q5 -6 0 -14z" />
<glyph unicode="&#xfe9b;&#xfef2;" horiz-adv-x="1890" d="M1290 87q0 -72 -34 -129t-88 -100q-62 -50 -131 -89t-147.5 -65.5t-168.5 -39.5t-194 -10q-92 3 -174.5 30.5t-144.5 79.5t-98 128.5t-36 177.5q0 103 33 195t94 180q4 6 9 6t9 -3.5t5.5 -9t-1.5 -11.5q-23 -44 -41 -91t-28.5 -94.5t-10.5 -94t13 -89.5q21 -69 63 -116 t96.5 -75.5t116.5 -40.5t123 -12q99 0 183.5 9t158 28.5t140 51t129.5 75.5q24 17 32 28t8 13q0 10 -20 16t-52 11t-73 10.5t-83.5 15t-83.5 24.5t-73.5 38.5t-52 57.5t-20.5 81q-1 32 14.5 75t42.5 88.5t64.5 90t80.5 79t90 56t93 21.5q36 0 65 -15t56.5 -38t56 -49t64 -49 t81 -38t106.5 -15q21 0 45 2.5t47 7t42.5 11.5t30.5 16q8 7 13 13t2 14q-18 55 -50.5 113.5t-75.5 101.5q8 35 17.5 77.5t17.5 76.5q2 8 7.5 8.5t16.5 -10.5q28 -27 52 -66.5t41.5 -83.5t27.5 -89.5t10 -84.5q0 -17 -2.5 -43t-7.5 -53.5t-12.5 -52t-18.5 -37.5 q-36 -42 -94 -60.5t-122 -18.5q-66 0 -117.5 16t-92.5 39.5t-73.5 51t-60 51t-52 39.5t-50.5 16q-25 0 -55 -11t-61.5 -29t-61 -40.5t-52 -45.5t-36.5 -44t-14 -36q0 -25 16.5 -45.5t43.5 -36.5t62 -28t72.5 -21t74 -14.5t67.5 -8.5q22 -2 45.5 -6t42.5 -13.5t31 -25.5 t12 -42zM1724 1151q-6 -6 -10 -5t-9 4l-118 92l-76 -105q-4 -5 -8.5 -5.5t-7.5 1.5l-126 97q-4 3 -5 5t3 7l79 113q3 4 7 5.5t8 -1.5l119 -91l81 104q4 5 5.5 6t6.5 -3l126 -105q8 -5 0 -14zM1534 1573l123 -101q5 -4 4 -8t-3 -7l-82 -102q-6 -9 -17 -1l-123 100q-7 6 0 16 l83 101q6 8 15 2z" />
<glyph unicode="&#xfee7;&#xfef2;" horiz-adv-x="1890" d="M1584 1351l124 -103q5 -4 5 -7t-4 -8l-83 -104q-8 -8 -17 -1l-124 102q-7 6 0 16l84 103q6 8 15 2zM1290 87q0 -72 -34 -129t-88 -100q-62 -50 -131 -89t-147.5 -65.5t-168.5 -39.5t-194 -10q-92 3 -174.5 30.5t-144.5 79.5t-98 128.5t-36 177.5q0 103 33 195t94 180 q4 6 9 6t9 -3.5t5.5 -9t-1.5 -11.5q-23 -44 -41 -91t-28.5 -94.5t-10.5 -94t13 -89.5q21 -69 63 -116t96.5 -75.5t116.5 -40.5t123 -12q99 0 183.5 9t158 28.5t140 51t129.5 75.5q24 17 32 28t8 13q0 10 -20 16t-52 11t-73 10.5t-83.5 15t-83.5 24.5t-73.5 38.5t-52 57.5 t-20.5 81q-1 32 14.5 75t42.5 88.5t64.5 90t80.5 79t90 56t93 21.5q36 0 65 -15t56.5 -38t56 -49t64 -49t81 -38t106.5 -15q21 0 45 2.5t47 7t42.5 11.5t30.5 16q8 7 13 13t2 14q-18 55 -50.5 113.5t-75.5 101.5q8 35 17.5 77.5t17.5 76.5q2 8 7.5 8.5t16.5 -10.5 q28 -27 52 -66.5t41.5 -83.5t27.5 -89.5t10 -84.5q0 -17 -2.5 -43t-7.5 -53.5t-12.5 -52t-18.5 -37.5q-36 -42 -94 -60.5t-122 -18.5q-66 0 -117.5 16t-92.5 39.5t-73.5 51t-60 51t-52 39.5t-50.5 16q-25 0 -55 -11t-61.5 -29t-61 -40.5t-52 -45.5t-36.5 -44t-14 -36 q0 -25 16.5 -45.5t43.5 -36.5t62 -28t72.5 -21t74 -14.5t67.5 -8.5q22 -2 45.5 -6t42.5 -13.5t31 -25.5t12 -42z" />
<glyph unicode="&#xfef3;&#xfef2;" horiz-adv-x="1890" d="M1290 87q0 -72 -34 -129t-88 -100q-62 -50 -131 -89t-147.5 -65.5t-168.5 -39.5t-194 -10q-92 3 -174.5 30.5t-144.5 79.5t-98 128.5t-36 177.5q0 103 33 195t94 180q4 6 9 6t9 -3.5t5.5 -9t-1.5 -11.5q-23 -44 -41 -91t-28.5 -94.5t-10.5 -94t13 -89.5q21 -69 63 -116 t96.5 -75.5t116.5 -40.5t123 -12q99 0 183.5 9t158 28.5t140 51t129.5 75.5q24 17 32 28t8 13q0 10 -20 16t-52 11t-73 10.5t-83.5 15t-83.5 24.5t-73.5 38.5t-52 57.5t-20.5 81q-1 32 14.5 75t42.5 88.5t64.5 90t80.5 79t90 56t93 21.5q36 0 65 -15t56.5 -38t56 -49t64 -49 t81 -38t106.5 -15q21 0 45 2.5t47 7t42.5 11.5t30.5 16q8 7 13 13t2 14q-18 55 -50.5 113.5t-75.5 101.5q8 35 17.5 77.5t17.5 76.5q2 8 7.5 8.5t16.5 -10.5q28 -27 52 -66.5t41.5 -83.5t27.5 -89.5t10 -84.5q0 -17 -2.5 -43t-7.5 -53.5t-12.5 -52t-18.5 -37.5 q-36 -42 -94 -60.5t-122 -18.5q-66 0 -117.5 16t-92.5 39.5t-73.5 51t-60 51t-52 39.5t-50.5 16q-25 0 -55 -11t-61.5 -29t-61 -40.5t-52 -45.5t-36.5 -44t-14 -36q0 -25 16.5 -45.5t43.5 -36.5t62 -28t72.5 -21t74 -14.5t67.5 -8.5q22 -2 45.5 -6t42.5 -13.5t31 -25.5 t12 -42zM1780.95 -111.2q-6.57715 -9.39941 -17.8525 -0.939453l-112.749 87.4199l-72.3467 -99.6406q-3.75879 -4.69922 -7.98633 -5.16992q-4.22852 -0.469727 -7.04688 1.41016l-120.266 92.1201q-3.75879 2.82031 -4.69824 4.7002t2.81836 6.58008l75.166 108.101 q5.6377 9.39941 14.0938 3.75977l113.688 -86.4805l77.0459 98.7002q3.75781 4.7002 5.63672 5.16992q1.87988 0.470703 5.6377 -2.34961l120.266 -99.6406q4.69824 -5.63965 0 -13.1602z" />
<glyph unicode="&#xfe8b;&#xfef2;" horiz-adv-x="1890" d="M1290 87q0 -72 -34 -129t-88 -100q-62 -50 -131 -89t-147.5 -65.5t-168.5 -39.5t-194 -10q-92 3 -174.5 30.5t-144.5 79.5t-98 128.5t-36 177.5q0 103 33 195t94 180q4 6 9 6t9 -3.5t5.5 -9t-1.5 -11.5q-23 -44 -41 -91t-28.5 -94.5t-10.5 -94t13 -89.5q21 -69 63 -116 t96.5 -75.5t116.5 -40.5t123 -12q99 0 183.5 9t158 28.5t140 51t129.5 75.5q24 17 32 28t8 13q0 10 -20 16t-52 11t-73 10.5t-83.5 15t-83.5 24.5t-73.5 38.5t-52 57.5t-20.5 81q-1 32 14.5 75t42.5 88.5t64.5 90t80.5 79t90 56t93 21.5q36 0 65 -15t56.5 -38t56 -49t64 -49 t81 -38t106.5 -15q21 0 45 2.5t47 7t42.5 11.5t30.5 16q8 7 13 13t2 14q-18 55 -50.5 113.5t-75.5 101.5q8 35 17.5 77.5t17.5 76.5q2 8 7.5 8.5t16.5 -10.5q28 -27 52 -66.5t41.5 -83.5t27.5 -89.5t10 -84.5q0 -17 -2.5 -43t-7.5 -53.5t-12.5 -52t-18.5 -37.5 q-36 -42 -94 -60.5t-122 -18.5q-66 0 -117.5 16t-92.5 39.5t-73.5 51t-60 51t-52 39.5t-50.5 16q-25 0 -55 -11t-61.5 -29t-61 -40.5t-52 -45.5t-36.5 -44t-14 -36q0 -25 16.5 -45.5t43.5 -36.5t62 -28t72.5 -21t74 -14.5t67.5 -8.5q22 -2 45.5 -6t42.5 -13.5t31 -25.5 t12 -42zM1429 1165q7 4 18.5 9.5t23.5 12t23 13t19 12.5q-22 19 -39 40.5t-31 49.5q-6 13 -3.5 33.5t12.5 36.5q6 10 24 31.5t44 43t57.5 38t64.5 16.5q11 0 22 -7.5t19.5 -18t14.5 -22.5t8 -22q6 -23 0 -39q-17 -36 -27 -45t-18 -10q-5 0 -8 5t-5 12t-3.5 14t-2.5 10 q-5 11 -18 19t-27 8q-47 0 -88 -35q14 -37 44.5 -67t70.5 -36q51 -6 98 3.5t98 21.5q0 -2 -4 -17.5t-10 -33t-12.5 -31.5t-10.5 -14q-42 -4 -85 -12.5t-91 -22.5q-51 -14 -101 -38t-95 -46q-13 -4 -15 8q6 21 15.5 42.5t17.5 37.5z" />
<glyph unicode="&#xfe92;&#xfef2;" horiz-adv-x="1899" d="M1580 -213l124 -103q5 -4 5 -7t-4 -8l-83 -104q-8 -8 -17 -1l-124 102q-7 6 0 16l84 103q6 8 15 2zM1278 -228q0 -72 -34 -129t-88 -100q-62 -50 -131 -89t-147.5 -65.5t-168.5 -39.5t-194 -10q-92 3 -174.5 30.5t-144.5 79.5t-98 128.5t-36 177.5q0 103 33 195t94 180 q4 6 9 6t9 -3.5t5.5 -9t-1.5 -11.5q-23 -44 -41 -91t-28.5 -94.5t-10.5 -94t13 -89.5q21 -69 63 -116t96.5 -75.5t116.5 -40.5t123 -12q99 0 183.5 9t158 28.5t140 51t129.5 75.5q24 17 32 28t8 13q0 10 -20 16t-52 11t-73 10.5t-83.5 15t-83.5 24.5t-73.5 38.5t-52 57.5 t-20.5 81q-1 32 14.5 75t42.5 88.5t64.5 90t80.5 79t90 56t93 21.5q36 0 64 -15t52 -38t47 -49t50 -49t59.5 -38t76.5 -15q75 0 123.5 38.5t80.5 116.5q6 14 17 13t10 -20q-1 -31 7.5 -59t31 -49t61 -33.5t98.5 -12.5h19q30 0 44.5 -24.5t14.5 -54.5t-14.5 -54.5 t-44.5 -24.5h-19q-54 0 -93 9t-67 25.5t-47 40.5t-33 54q-24 -38 -48.5 -62t-50 -37.5t-51.5 -18.5t-52 -5q-50 0 -89 16t-71.5 39.5t-58.5 51t-50.5 51t-47.5 39.5t-49 16q-25 0 -55 -11t-61.5 -29t-61 -40.5t-52 -45.5t-36.5 -44t-14 -36q0 -25 16.5 -45.5t43.5 -36.5 t62 -28t72.5 -21t74 -14.5t67.5 -8.5q22 -2 45.5 -6t42.5 -13.5t31 -25.5t12 -42z" />
<glyph unicode="&#xfe98;&#xfef2;" horiz-adv-x="1899" d="M1278 -228q0 -72 -34 -129t-88 -100q-62 -50 -131 -89t-147.5 -65.5t-168.5 -39.5t-194 -10q-92 3 -174.5 30.5t-144.5 79.5t-98 128.5t-36 177.5q0 103 33 195t94 180q4 6 9 6t9 -3.5t5.5 -9t-1.5 -11.5q-23 -44 -41 -91t-28.5 -94.5t-10.5 -94t13 -89.5q21 -69 63 -116 t96.5 -75.5t116.5 -40.5t123 -12q99 0 183.5 9t158 28.5t140 51t129.5 75.5q24 17 32 28t8 13q0 10 -20 16t-52 11t-73 10.5t-83.5 15t-83.5 24.5t-73.5 38.5t-52 57.5t-20.5 81q-1 32 14.5 75t42.5 88.5t64.5 90t80.5 79t90 56t93 21.5q36 0 64 -15t52 -38t47 -49t50 -49 t59.5 -38t76.5 -15q75 0 123.5 38.5t80.5 116.5q6 14 17 13t10 -20q-1 -31 7.5 -59t31 -49t61 -33.5t98.5 -12.5h19q30 0 44.5 -24.5t14.5 -54.5t-14.5 -54.5t-44.5 -24.5h-19q-54 0 -93 9t-67 25.5t-47 40.5t-33 54q-24 -38 -48.5 -62t-50 -37.5t-51.5 -18.5t-52 -5 q-50 0 -89 16t-71.5 39.5t-58.5 51t-50.5 51t-47.5 39.5t-49 16q-25 0 -55 -11t-61.5 -29t-61 -40.5t-52 -45.5t-36.5 -44t-14 -36q0 -25 16.5 -45.5t43.5 -36.5t62 -28t72.5 -21t74 -14.5t67.5 -8.5q22 -2 45.5 -6t42.5 -13.5t31 -25.5t12 -42zM1748 556q-7 -10 -19 -1 l-120 93l-77 -106q-4 -5 -8.5 -5.5t-7.5 1.5l-128 98q-4 3 -5 5t3 7l80 115q6 10 15 4l121 -92l82 105q4 5 6 5.5t6 -2.5l128 -106q5 -6 0 -14z" />
<glyph unicode="&#xfe9c;&#xfef2;" horiz-adv-x="1899" d="M1278 -228q0 -72 -34 -129t-88 -100q-62 -50 -131 -89t-147.5 -65.5t-168.5 -39.5t-194 -10q-92 3 -174.5 30.5t-144.5 79.5t-98 128.5t-36 177.5q0 103 33 195t94 180q4 6 9 6t9 -3.5t5.5 -9t-1.5 -11.5q-23 -44 -41 -91t-28.5 -94.5t-10.5 -94t13 -89.5q21 -69 63 -116 t96.5 -75.5t116.5 -40.5t123 -12q99 0 183.5 9t158 28.5t140 51t129.5 75.5q24 17 32 28t8 13q0 10 -20 16t-52 11t-73 10.5t-83.5 15t-83.5 24.5t-73.5 38.5t-52 57.5t-20.5 81q-1 32 14.5 75t42.5 88.5t64.5 90t80.5 79t90 56t93 21.5q36 0 64 -15t52 -38t47 -49t50 -49 t59.5 -38t76.5 -15q75 0 123.5 38.5t80.5 116.5q6 14 17 13t10 -20q-1 -31 7.5 -59t31 -49t61 -33.5t98.5 -12.5h19q30 0 44.5 -24.5t14.5 -54.5t-14.5 -54.5t-44.5 -24.5h-19q-54 0 -93 9t-67 25.5t-47 40.5t-33 54q-24 -38 -48.5 -62t-50 -37.5t-51.5 -18.5t-52 -5 q-50 0 -89 16t-71.5 39.5t-58.5 51t-50.5 51t-47.5 39.5t-49 16q-25 0 -55 -11t-61.5 -29t-61 -40.5t-52 -45.5t-36.5 -44t-14 -36q0 -25 16.5 -45.5t43.5 -36.5t62 -28t72.5 -21t74 -14.5t67.5 -8.5q22 -2 45.5 -6t42.5 -13.5t31 -25.5t12 -42zM1742 553q-6 -6 -10 -5t-9 4 l-118 92l-76 -105q-4 -5 -8.5 -5.5t-7.5 1.5l-126 97q-4 3 -5 5t3 7l79 113q3 4 7 5.5t8 -1.5l119 -91l81 104q4 5 5.5 6t6.5 -3l126 -105q8 -5 0 -14zM1552 975l123 -101q5 -4 4 -8t-3 -7l-82 -102q-6 -9 -17 -1l-123 100q-7 6 0 16l83 101q6 8 15 2z" />
<glyph unicode="&#xfee8;&#xfef2;" horiz-adv-x="1899" d="M1635 796l124 -103q5 -4 5 -7t-4 -8l-83 -104q-8 -8 -17 -1l-124 102q-7 6 0 16l84 103q6 8 15 2zM1278 -228q0 -72 -34 -129t-88 -100q-62 -50 -131 -89t-147.5 -65.5t-168.5 -39.5t-194 -10q-92 3 -174.5 30.5t-144.5 79.5t-98 128.5t-36 177.5q0 103 33 195t94 180 q4 6 9 6t9 -3.5t5.5 -9t-1.5 -11.5q-23 -44 -41 -91t-28.5 -94.5t-10.5 -94t13 -89.5q21 -69 63 -116t96.5 -75.5t116.5 -40.5t123 -12q99 0 183.5 9t158 28.5t140 51t129.5 75.5q24 17 32 28t8 13q0 10 -20 16t-52 11t-73 10.5t-83.5 15t-83.5 24.5t-73.5 38.5t-52 57.5 t-20.5 81q-1 32 14.5 75t42.5 88.5t64.5 90t80.5 79t90 56t93 21.5q36 0 64 -15t52 -38t47 -49t50 -49t59.5 -38t76.5 -15q75 0 123.5 38.5t80.5 116.5q6 14 17 13t10 -20q-1 -31 7.5 -59t31 -49t61 -33.5t98.5 -12.5h19q30 0 44.5 -24.5t14.5 -54.5t-14.5 -54.5 t-44.5 -24.5h-19q-54 0 -93 9t-67 25.5t-47 40.5t-33 54q-24 -38 -48.5 -62t-50 -37.5t-51.5 -18.5t-52 -5q-50 0 -89 16t-71.5 39.5t-58.5 51t-50.5 51t-47.5 39.5t-49 16q-25 0 -55 -11t-61.5 -29t-61 -40.5t-52 -45.5t-36.5 -44t-14 -36q0 -25 16.5 -45.5t43.5 -36.5 t62 -28t72.5 -21t74 -14.5t67.5 -8.5q22 -2 45.5 -6t42.5 -13.5t31 -25.5t12 -42z" />
<glyph unicode="&#xfef4;&#xfef2;" horiz-adv-x="1899" d="M1278 -228q0 -72 -34 -129t-88 -100q-62 -50 -131 -89t-147.5 -65.5t-168.5 -39.5t-194 -10q-92 3 -174.5 30.5t-144.5 79.5t-98 128.5t-36 177.5q0 103 33 195t94 180q4 6 9 6t9 -3.5t5.5 -9t-1.5 -11.5q-23 -44 -41 -91t-28.5 -94.5t-10.5 -94t13 -89.5q21 -69 63 -116 t96.5 -75.5t116.5 -40.5t123 -12q99 0 183.5 9t158 28.5t140 51t129.5 75.5q24 17 32 28t8 13q0 10 -20 16t-52 11t-73 10.5t-83.5 15t-83.5 24.5t-73.5 38.5t-52 57.5t-20.5 81q-1 32 14.5 75t42.5 88.5t64.5 90t80.5 79t90 56t93 21.5q36 0 64 -15t52 -38t47 -49t50 -49 t59.5 -38t76.5 -15q75 0 123.5 38.5t80.5 116.5q6 14 17 13t10 -20q-1 -31 7.5 -59t31 -49t61 -33.5t98.5 -12.5h19q30 0 44.5 -24.5t14.5 -54.5t-14.5 -54.5t-44.5 -24.5h-19q-54 0 -93 9t-67 25.5t-47 40.5t-33 54q-24 -38 -48.5 -62t-50 -37.5t-51.5 -18.5t-52 -5 q-50 0 -89 16t-71.5 39.5t-58.5 51t-50.5 51t-47.5 39.5t-49 16q-25 0 -55 -11t-61.5 -29t-61 -40.5t-52 -45.5t-36.5 -44t-14 -36q0 -25 16.5 -45.5t43.5 -36.5t62 -28t72.5 -21t74 -14.5t67.5 -8.5q22 -2 45.5 -6t42.5 -13.5t31 -25.5t12 -42zM1758 -443q-7 -10 -19 -1 l-120 93l-77 -106q-4 -5 -8.5 -5.5t-7.5 1.5l-128 98q-4 3 -5 5t3 7l80 115q6 10 15 4l121 -92l82 105q4 5 6 5.5t6 -2.5l128 -106q5 -6 0 -14z" />
<glyph unicode="&#xfe8c;&#xfef2;" horiz-adv-x="1899" d="M1278 -228q0 -72 -34 -129t-88 -100q-62 -50 -131 -89t-147.5 -65.5t-168.5 -39.5t-194 -10q-92 3 -174.5 30.5t-144.5 79.5t-98 128.5t-36 177.5q0 103 33 195t94 180q4 6 9 6t9 -3.5t5.5 -9t-1.5 -11.5q-23 -44 -41 -91t-28.5 -94.5t-10.5 -94t13 -89.5q21 -69 63 -116 t96.5 -75.5t116.5 -40.5t123 -12q99 0 183.5 9t158 28.5t140 51t129.5 75.5q24 17 32 28t8 13q0 10 -20 16t-52 11t-73 10.5t-83.5 15t-83.5 24.5t-73.5 38.5t-52 57.5t-20.5 81q-1 32 14.5 75t42.5 88.5t64.5 90t80.5 79t90 56t93 21.5q36 0 64 -15t52 -38t47 -49t50 -49 t59.5 -38t76.5 -15q75 0 123.5 38.5t80.5 116.5q6 14 17 13t10 -20q-1 -31 7.5 -59t31 -49t61 -33.5t98.5 -12.5h19q30 0 44.5 -24.5t14.5 -54.5t-14.5 -54.5t-44.5 -24.5h-19q-54 0 -93 9t-67 25.5t-47 40.5t-33 54q-24 -38 -48.5 -62t-50 -37.5t-51.5 -18.5t-52 -5 q-50 0 -89 16t-71.5 39.5t-58.5 51t-50.5 51t-47.5 39.5t-49 16q-25 0 -55 -11t-61.5 -29t-61 -40.5t-52 -45.5t-36.5 -44t-14 -36q0 -25 16.5 -45.5t43.5 -36.5t62 -28t72.5 -21t74 -14.5t67.5 -8.5q22 -2 45.5 -6t42.5 -13.5t31 -25.5t12 -42zM1481.2 571.648 q6.08301 3.43555 16.0762 8.1582q9.99316 4.72363 20.4209 10.3066q10.4268 5.58203 19.9854 11.1641q9.55859 5.58301 16.5107 10.7354q-19.1172 16.3184 -33.8896 34.7832q-14.7725 18.4639 -26.9375 42.5117q-5.21387 11.1641 -3.04199 28.7705 q2.17285 17.6055 10.8623 31.3467q5.21387 8.58887 20.8555 27.0537q15.6406 18.4648 38.2334 36.9287q22.5928 18.4648 49.9658 32.6357q27.3721 14.1709 56.0469 14.1709q9.55859 0 19.1172 -6.44141t16.9453 -15.459q7.38574 -9.01758 12.5996 -19.3232t6.95117 -18.8945 q5.21387 -19.7529 0 -33.4941q-14.7715 -30.918 -23.4619 -38.6475q-8.68945 -7.72949 -15.6406 -8.58789q-4.34473 0 -6.95215 4.29395q-2.60645 4.29395 -4.34473 10.3066q-1.7373 6.01172 -3.04102 12.0234t-2.17285 8.58789q-4.34473 9.44727 -15.6406 16.3174 q-11.2969 6.87109 -23.4619 6.87109q-40.8408 0 -76.4688 -30.0596q12.166 -31.7764 38.6689 -57.541t61.2617 -30.918q44.3164 -5.15234 85.1572 3.00586q40.8418 8.15918 85.1582 18.4648q0 -1.7168 -3.47559 -15.0293q-3.47559 -13.3115 -8.68945 -28.3408 t-10.8623 -27.0537q-5.64844 -12.0234 -9.12402 -12.0234q-36.4961 -3.43457 -73.8613 -10.7354q-37.3652 -7.2998 -79.0752 -19.3232q-44.3164 -12.0234 -87.7646 -32.6357q-43.4482 -20.6113 -82.5508 -39.5059q-11.2969 -3.43457 -13.0342 6.87109 q5.21289 18.0352 13.4688 36.5q8.25488 18.4648 15.2061 32.2061z" />
<glyph unicode="&#xfe9f;&#xfef2;" horiz-adv-x="2719" d="M1999 42l124 -103q5 -4 5 -7t-4 -8l-83 -104q-8 -8 -17 -1l-124 102q-7 6 0 16l84 103q6 8 15 2zM1307 74q0 -72 -34 -129t-88 -100q-62 -50 -131 -89t-147.5 -65.5t-168.5 -39.5t-194 -10q-92 3 -174.5 30.5t-144.5 79.5t-98 128.5t-36 177.5q0 103 33 195t94 180 q4 6 9 6t9 -3.5t5.5 -9t-1.5 -11.5q-23 -44 -41.5 -91t-28.5 -94.5t-10 -94t13 -89.5q21 -69 63 -116t96.5 -75.5t116.5 -40.5t123 -12q99 0 183.5 9t158 28.5t140 51t129.5 75.5q24 17 32 28t8 13q0 10 -20 16t-52 11t-73 10.5t-83.5 15t-83.5 24.5t-73.5 38.5t-52 57.5 t-20.5 81q-1 32 14.5 75t43 88.5t64 90t78 79t84.5 56t83 21.5q38 0 68.5 -23.5t61 -58.5t65 -76.5t79.5 -76.5t104.5 -58.5t140.5 -23.5q67 0 132.5 22t126 54t114.5 68t98 64q-85 26 -166.5 47t-159.5 23q-54 1 -107 -17t-91 -58q-9 -8 -18.5 -4.5t-7.5 12.5 q12 56 32.5 100t51 74t71.5 44t94 10q53 -5 105 -18.5t105 -29.5t109.5 -32.5t118.5 -27.5q75 -14 171.5 -23.5t199.5 -4.5q11 0 8 -12q-14 -35 -31 -69t-31 -69q-42 10 -81 11.5t-75 1.5q-63 0 -126.5 -23.5t-128 -59t-129.5 -77t-131.5 -77t-134 -59t-136.5 -23.5 q-81 0 -145 24t-115.5 59.5t-91 77t-71.5 77t-57.5 59.5t-48.5 24q-37 0 -83 -24t-86.5 -57t-68 -68t-27.5 -57q0 -25 16.5 -45.5t43.5 -36.5t62 -28t72.5 -21t74 -14.5t67.5 -8.5q22 -2 45.5 -6t42.5 -13.5t31 -25.5t12 -42z" />
<glyph unicode="&#xfea3;&#xfef2;" horiz-adv-x="2719" d="M1307 74q0 -72 -34 -129t-88 -100q-62 -50 -131 -89t-147.5 -65.5t-168.5 -39.5t-194 -10q-92 3 -174.5 30.5t-144.5 79.5t-98 128.5t-36 177.5q0 103 33 195t94 180q4 6 9 6t9 -3.5t5.5 -9t-1.5 -11.5q-23 -44 -41.5 -91t-28.5 -94.5t-10 -94t13 -89.5q21 -69 63 -116 t96.5 -75.5t116.5 -40.5t123 -12q99 0 183.5 9t158 28.5t140 51t129.5 75.5q24 17 32 28t8 13q0 10 -20 16t-52 11t-73 10.5t-83.5 15t-83.5 24.5t-73.5 38.5t-52 57.5t-20.5 81q-1 32 14.5 75t43 88.5t64 90t78 79t84.5 56t83 21.5q38 0 68.5 -23.5t61 -58.5t65 -76.5 t79.5 -76.5t104.5 -58.5t140.5 -23.5q67 0 132.5 22t126 54t114.5 68t98 64q-85 26 -166.5 47t-159.5 23q-54 1 -107 -17t-91 -58q-9 -8 -18.5 -4.5t-7.5 12.5q12 56 32.5 100t51 74t71.5 44t94 10q53 -5 105 -18.5t105 -29.5t109.5 -32.5t118.5 -27.5q75 -14 171.5 -23.5 t199.5 -4.5q11 0 8 -12q-14 -35 -31 -69t-31 -69q-42 10 -81 11.5t-75 1.5q-63 0 -126.5 -23.5t-128 -59t-129.5 -77t-131.5 -77t-134 -59t-136.5 -23.5q-81 0 -145 24t-115.5 59.5t-91 77t-71.5 77t-57.5 59.5t-48.5 24q-37 0 -83 -24t-86.5 -57t-68 -68t-27.5 -57 q0 -25 16.5 -45.5t43.5 -36.5t62 -28t72.5 -21t74 -14.5t67.5 -8.5q22 -2 45.5 -6t42.5 -13.5t31 -25.5t12 -42z" />
<glyph unicode="&#xfea7;&#xfef2;" horiz-adv-x="2719" d="M1997 1233l124 -103q5 -4 5 -7t-4 -8l-83 -104q-8 -8 -17 -1l-124 102q-7 6 0 16l84 103q6 8 15 2zM1307 74q0 -72 -34 -129t-88 -100q-62 -50 -131 -89t-147.5 -65.5t-168.5 -39.5t-194 -10q-92 3 -174.5 30.5t-144.5 79.5t-98 128.5t-36 177.5q0 103 33 195t94 180 q4 6 9 6t9 -3.5t5.5 -9t-1.5 -11.5q-23 -44 -41.5 -91t-28.5 -94.5t-10 -94t13 -89.5q21 -69 63 -116t96.5 -75.5t116.5 -40.5t123 -12q99 0 183.5 9t158 28.5t140 51t129.5 75.5q24 17 32 28t8 13q0 10 -20 16t-52 11t-73 10.5t-83.5 15t-83.5 24.5t-73.5 38.5t-52 57.5 t-20.5 81q-1 32 14.5 75t43 88.5t64 90t78 79t84.5 56t83 21.5q38 0 68.5 -23.5t61 -58.5t65 -76.5t79.5 -76.5t104.5 -58.5t140.5 -23.5q67 0 132.5 22t126 54t114.5 68t98 64q-85 26 -166.5 47t-159.5 23q-54 1 -107 -17t-91 -58q-9 -8 -18.5 -4.5t-7.5 12.5 q12 56 32.5 100t51 74t71.5 44t94 10q53 -5 105 -18.5t105 -29.5t109.5 -32.5t118.5 -27.5q75 -14 171.5 -23.5t199.5 -4.5q11 0 8 -12q-14 -35 -31 -69t-31 -69q-42 10 -81 11.5t-75 1.5q-63 0 -126.5 -23.5t-128 -59t-129.5 -77t-131.5 -77t-134 -59t-136.5 -23.5 q-81 0 -145 24t-115.5 59.5t-91 77t-71.5 77t-57.5 59.5t-48.5 24q-37 0 -83 -24t-86.5 -57t-68 -68t-27.5 -57q0 -25 16.5 -45.5t43.5 -36.5t62 -28t72.5 -21t74 -14.5t67.5 -8.5q22 -2 45.5 -6t42.5 -13.5t31 -25.5t12 -42z" />
<glyph unicode="&#xfea0;&#xfef2;" horiz-adv-x="2759" d="M1999 -158l124 -103q5 -4 5 -7t-4 -8l-83 -104q-8 -8 -17 -1l-124 102q-7 6 0 16l84 103q6 8 15 2zM1307 -126q0 -72 -34 -129t-88 -100q-62 -50 -131 -89t-147.5 -65.5t-168.5 -39.5t-194 -10q-92 3 -174.5 30.5t-144.5 79.5t-98 128.5t-36 177.5q0 103 33 195t94 180 q4 6 9 6t9 -3.5t5.5 -9t-1.5 -11.5q-23 -44 -41.5 -91t-28.5 -94.5t-10 -94t13 -89.5q21 -69 63 -116t96.5 -75.5t116.5 -40.5t123 -12q99 0 183.5 9t158 28.5t140 51t129.5 75.5q24 17 32 28t8 13q0 10 -20 16t-52 11t-73 10.5t-83.5 15t-83.5 24.5t-73.5 38.5t-52 57.5 t-20.5 81q-1 32 14.5 75t43 88.5t64 90t78 79t84.5 56t83 21.5q38 0 68.5 -23.5t61 -58.5t65 -76.5t79.5 -76.5t104.5 -58.5t140.5 -23.5q67 0 132.5 22t126 54t114.5 68t98 64q-85 26 -166.5 47t-159.5 23q-54 1 -107 -17t-91 -58q-9 -8 -18.5 -4.5t-7.5 12.5 q12 56 32.5 100t51 74t71.5 44t94 10q53 -5 105 -18.5t105 -29.5t109.5 -32.5t118.5 -27.5q75 -14 171.5 -23.5t199.5 -4.5q11 0 8 -12q-14 -35 -31 -69t-31 -69q-18 2 -30 4t-23 3.5t-23 3t-30 2.5q-6 -41 5 -69t33.5 -46t54 -27.5t65.5 -14t68 -5t63 -0.5h18 q30 0 44.5 -24.5t14.5 -54t-14.5 -54t-44.5 -24.5h-18q-85 -1 -153 6.5t-114.5 39t-69.5 95t-17 175.5q-57 0 -117.5 -23.5t-123.5 -58.5t-128.5 -76t-132 -76t-134 -58.5t-135.5 -23.5q-81 0 -145 24t-115.5 59.5t-91 77t-71.5 77t-57.5 59.5t-48.5 24q-37 0 -83 -24 t-86.5 -57t-68 -68t-27.5 -57q0 -25 16.5 -45.5t43.5 -36.5t62 -28t72.5 -21t74 -14.5t67.5 -8.5q22 -2 45.5 -6t42.5 -13.5t31 -25.5t12 -42z" />
<glyph unicode="&#xfea4;&#xfef2;" horiz-adv-x="2759" d="M1307 -126q0 -72 -34 -129t-88 -100q-62 -50 -131 -89t-147.5 -65.5t-168.5 -39.5t-194 -10q-92 3 -174.5 30.5t-144.5 79.5t-98 128.5t-36 177.5q0 103 33 195t94 180q4 6 9 6t9 -3.5t5.5 -9t-1.5 -11.5q-23 -44 -41.5 -91t-28.5 -94.5t-10 -94t13 -89.5q21 -69 63 -116 t96.5 -75.5t116.5 -40.5t123 -12q99 0 183.5 9t158 28.5t140 51t129.5 75.5q24 17 32 28t8 13q0 10 -20 16t-52 11t-73 10.5t-83.5 15t-83.5 24.5t-73.5 38.5t-52 57.5t-20.5 81q-1 32 14.5 75t43 88.5t64 90t78 79t84.5 56t83 21.5q38 0 68.5 -23.5t61 -58.5t65 -76.5 t79.5 -76.5t104.5 -58.5t140.5 -23.5q67 0 132.5 22t126 54t114.5 68t98 64q-85 26 -166.5 47t-159.5 23q-54 1 -107 -17t-91 -58q-9 -8 -18.5 -4.5t-7.5 12.5q12 56 32.5 100t51 74t71.5 44t94 10q53 -5 105 -18.5t105 -29.5t109.5 -32.5t118.5 -27.5q75 -14 171.5 -23.5 t199.5 -4.5q11 0 8 -12q-14 -35 -31 -69t-31 -69q-18 2 -30 4t-23 3.5t-23 3t-30 2.5q-6 -41 5 -69t33.5 -46t54 -27.5t65.5 -14t68 -5t63 -0.5h18q30 0 44.5 -24.5t14.5 -54t-14.5 -54t-44.5 -24.5h-18q-85 -1 -153 6.5t-114.5 39t-69.5 95t-17 175.5q-57 0 -117.5 -23.5 t-123.5 -58.5t-128.5 -76t-132 -76t-134 -58.5t-135.5 -23.5q-81 0 -145 24t-115.5 59.5t-91 77t-71.5 77t-57.5 59.5t-48.5 24q-37 0 -83 -24t-86.5 -57t-68 -68t-27.5 -57q0 -25 16.5 -45.5t43.5 -36.5t62 -28t72.5 -21t74 -14.5t67.5 -8.5q22 -2 45.5 -6t42.5 -13.5 t31 -25.5t12 -42z" />
<glyph unicode="&#xfea8;&#xfef2;" horiz-adv-x="2759" d="M1997 1033l124 -103q5 -4 5 -7t-4 -8l-83 -104q-8 -8 -17 -1l-124 102q-7 6 0 16l84 103q6 8 15 2zM1307 -126q0 -72 -34 -129t-88 -100q-62 -50 -131 -89t-147.5 -65.5t-168.5 -39.5t-194 -10q-92 3 -174.5 30.5t-144.5 79.5t-98 128.5t-36 177.5q0 103 33 195t94 180 q4 6 9 6t9 -3.5t5.5 -9t-1.5 -11.5q-23 -44 -41.5 -91t-28.5 -94.5t-10 -94t13 -89.5q21 -69 63 -116t96.5 -75.5t116.5 -40.5t123 -12q99 0 183.5 9t158 28.5t140 51t129.5 75.5q24 17 32 28t8 13q0 10 -20 16t-52 11t-73 10.5t-83.5 15t-83.5 24.5t-73.5 38.5t-52 57.5 t-20.5 81q-1 32 14.5 75t43 88.5t64 90t78 79t84.5 56t83 21.5q38 0 68.5 -23.5t61 -58.5t65 -76.5t79.5 -76.5t104.5 -58.5t140.5 -23.5q67 0 132.5 22t126 54t114.5 68t98 64q-85 26 -166.5 47t-159.5 23q-54 1 -107 -17t-91 -58q-9 -8 -18.5 -4.5t-7.5 12.5 q12 56 32.5 100t51 74t71.5 44t94 10q53 -5 105 -18.5t105 -29.5t109.5 -32.5t118.5 -27.5q75 -14 171.5 -23.5t199.5 -4.5q11 0 8 -12q-14 -35 -31 -69t-31 -69q-18 2 -30 4t-23 3.5t-23 3t-30 2.5q-6 -41 5 -69t33.5 -46t54 -27.5t65.5 -14t68 -5t63 -0.5h18 q30 0 44.5 -24.5t14.5 -54t-14.5 -54t-44.5 -24.5h-18q-85 -1 -153 6.5t-114.5 39t-69.5 95t-17 175.5q-57 0 -117.5 -23.5t-123.5 -58.5t-128.5 -76t-132 -76t-134 -58.5t-135.5 -23.5q-81 0 -145 24t-115.5 59.5t-91 77t-71.5 77t-57.5 59.5t-48.5 24q-37 0 -83 -24 t-86.5 -57t-68 -68t-27.5 -57q0 -25 16.5 -45.5t43.5 -36.5t62 -28t72.5 -21t74 -14.5t67.5 -8.5q22 -2 45.5 -6t42.5 -13.5t31 -25.5t12 -42z" />
<glyph unicode="&#xfeb3;&#xfef2;" horiz-adv-x="2671" d="M1309 68q0 -72 -34 -129t-88 -100q-62 -50 -131 -89t-147.5 -65.5t-168.5 -39.5t-194 -10q-92 3 -174.5 30.5t-144.5 79.5t-98 128.5t-36 177.5q0 103 33 195t94 180q4 6 9 6t9 -3.5t5.5 -9t-1.5 -11.5q-23 -44 -41.5 -91t-28.5 -94.5t-10 -94t13 -89.5q21 -69 63 -116 t96.5 -75.5t116.5 -40.5t123 -12q99 0 183.5 9t158 28.5t140 51t129.5 75.5q24 17 32 28t8 13q0 10 -20 16t-52 11t-73 10.5t-83.5 15t-83.5 24.5t-73.5 38.5t-52 57.5t-20.5 81q0 32 16 75t43 88.5t63 90t77 79t84 56t84 21.5q39 0 71.5 -21t63 -52t62 -67.5t68 -67.5 t81 -52t102.5 -21q46 0 86.5 7.5t76.5 31t68.5 66t61.5 111.5q5 11 12 16.5t13.5 5.5t10.5 -6t2 -18q-8 -51 -22.5 -96t-32.5 -81q54 -12 113 -9.5t113.5 26t100 70t72.5 122.5q4 11 11.5 16.5t14.5 5.5t11 -6t1 -18q-6 -27 -13 -48.5t-17 -52.5q4 -18 32 -39.5t66 -37.5 t80 -21t75 10q0 37 -9.5 80.5t-25.5 80.5q12 30 27.5 63t33.5 62q6 11 13 4q12 -37 20 -77.5t11 -80t1 -75.5t-9 -63q-5 -18 -14 -42t-22.5 -46t-32.5 -39.5t-44 -23.5q-36 -9 -73 -3.5t-71.5 22t-64.5 42t-52 56.5q-42 -58 -98 -90t-116 -42.5t-119.5 -1t-107.5 34.5 q-29 -29 -79 -52.5t-122 -23.5q-63 0 -114 21.5t-93.5 54t-77.5 70.5t-65.5 70.5t-57.5 54t-54 21.5q-25 0 -54 -11t-57.5 -29t-55.5 -40.5t-47.5 -45.5t-33 -44t-12.5 -36q0 -25 16.5 -45.5t43.5 -36.5t62 -28t72.5 -21t74 -14.5t67.5 -8.5q22 -2 45.5 -6t42.5 -13.5 t31 -25.5t12 -42z" />
<glyph unicode="&#xfeb7;&#xfef2;" horiz-adv-x="2671" d="M1309 68q0 -72 -34 -129t-88 -100q-62 -50 -131 -89t-147.5 -65.5t-168.5 -39.5t-194 -10q-92 3 -174.5 30.5t-144.5 79.5t-98 128.5t-36 177.5q0 103 33 195t94 180q4 6 9 6t9 -3.5t5.5 -9t-1.5 -11.5q-23 -44 -41.5 -91t-28.5 -94.5t-10 -94t13 -89.5q21 -69 63 -116 t96.5 -75.5t116.5 -40.5t123 -12q99 0 183.5 9t158 28.5t140 51t129.5 75.5q24 17 32 28t8 13q0 10 -20 16t-52 11t-73 10.5t-83.5 15t-83.5 24.5t-73.5 38.5t-52 57.5t-20.5 81q0 32 16 75t43 88.5t63 90t77 79t84 56t84 21.5q39 0 71.5 -21t63 -52t62 -67.5t68 -67.5 t81 -52t102.5 -21q46 0 86.5 7.5t76.5 31t68.5 66t61.5 111.5q5 11 12 16.5t13.5 5.5t10.5 -6t2 -18q-8 -51 -22.5 -96t-32.5 -81q54 -12 113 -9.5t113.5 26t100 70t72.5 122.5q4 11 11.5 16.5t14.5 5.5t11 -6t1 -18q-6 -27 -13 -48.5t-17 -52.5q4 -18 32 -39.5t66 -37.5 t80 -21t75 10q0 37 -9.5 80.5t-25.5 80.5q12 30 27.5 63t33.5 62q6 11 13 4q12 -37 20 -77.5t11 -80t1 -75.5t-9 -63q-5 -18 -14 -42t-22.5 -46t-32.5 -39.5t-44 -23.5q-36 -9 -73 -3.5t-71.5 22t-64.5 42t-52 56.5q-42 -58 -98 -90t-116 -42.5t-119.5 -1t-107.5 34.5 q-29 -29 -79 -52.5t-122 -23.5q-63 0 -114 21.5t-93.5 54t-77.5 70.5t-65.5 70.5t-57.5 54t-54 21.5q-25 0 -54 -11t-57.5 -29t-55.5 -40.5t-47.5 -45.5t-33 -44t-12.5 -36q0 -25 16.5 -45.5t43.5 -36.5t62 -28t72.5 -21t74 -14.5t67.5 -8.5q22 -2 45.5 -6t42.5 -13.5 t31 -25.5t12 -42zM2336 896q-6 -6 -10 -5t-9 4l-118 92l-76 -105q-4 -5 -8.5 -5.5t-7.5 1.5l-126 97q-4 3 -5 5t3 7l79 113q3 4 7 5.5t8 -1.5l119 -91l81 104q4 5 5.5 6t6.5 -3l126 -105q8 -5 0 -14zM2146 1318l123 -101q5 -4 4 -8t-3 -7l-82 -102q-6 -9 -17 -1l-123 100 q-7 6 0 16l83 101q6 8 15 2z" />
<glyph unicode="&#xfeb4;&#xfef2;" horiz-adv-x="2831" d="M1310 -196q0 -72 -34 -129t-88 -100q-62 -50 -131 -89t-147.5 -65.5t-168.5 -39.5t-194 -10q-92 3 -174.5 30.5t-144.5 79.5t-98 128.5t-36 177.5q0 103 33 195t94 180q4 6 9 6t9 -3.5t5.5 -9t-1.5 -11.5q-23 -44 -41.5 -91t-28.5 -94.5t-10 -94t13 -89.5q21 -69 63 -116 t96.5 -75.5t116.5 -40.5t123 -12q99 0 183.5 9t158 28.5t140 51t129.5 75.5q24 17 32 28t8 13q0 10 -20 16t-52 11t-73 10.5t-83.5 15t-83.5 24.5t-73.5 38.5t-52 57.5t-20.5 81q-1 32 14.5 75t43 88.5t64 90t77.5 79t84 56t83 21.5q37 0 70 -21t64.5 -52t64.5 -68t70 -68 t80.5 -52t96.5 -21q40 0 79.5 6.5t77.5 29t73 65.5t66 116q5 11 12 16.5t13.5 5.5t10.5 -6t2 -18q-8 -51 -22.5 -96t-32.5 -81q21 -4 52 -7t67 -0.5t75 14t76 36t70.5 65t58.5 101.5q4 11 11.5 16.5t15 5.5t12 -6t2.5 -18q-5 -28 -15 -61t-18 -57q7 -19 32.5 -35.5 t56.5 -27.5t62 -15t49 2q15 4 28.5 23.5t25.5 47t21.5 59t16.5 60.5q3 13 9.5 19.5t13 6.5t11 -6t3.5 -16q-11 -100 45.5 -153t189.5 -53h19q31 0 46.5 -24.5t15.5 -54t-15.5 -54t-46.5 -24.5h-19q-71 0 -120.5 14t-83 36t-54.5 48.5t-35 51.5q-6 -15 -17 -37.5t-25.5 -42.5 t-32 -34.5t-35.5 -14.5q-65 0 -127 25t-100 73l-3 2q-42 -54 -97.5 -83t-114.5 -37.5t-116.5 1t-102.5 33.5q-42 -39 -94.5 -57.5t-106.5 -18.5q-62 0 -113 21.5t-93.5 54t-78 70.5t-66 70.5t-58 54t-53.5 21.5q-25 0 -54 -11t-57.5 -29t-55.5 -40.5t-47.5 -45.5t-33 -44 t-12.5 -36q0 -25 16.5 -45.5t43.5 -36.5t62 -28t72.5 -21t74 -14.5t67.5 -8.5q22 -2 45.5 -6t42.5 -13.5t31 -25.5t12 -42z" />
<glyph unicode="&#xfeb8;&#xfef2;" horiz-adv-x="2831" d="M1310 -196q0 -72 -34 -129t-88 -100q-62 -50 -131 -89t-147.5 -65.5t-168.5 -39.5t-194 -10q-92 3 -174.5 30.5t-144.5 79.5t-98 128.5t-36 177.5q0 103 33 195t94 180q4 6 9 6t9 -3.5t5.5 -9t-1.5 -11.5q-23 -44 -41.5 -91t-28.5 -94.5t-10 -94t13 -89.5q21 -69 63 -116 t96.5 -75.5t116.5 -40.5t123 -12q99 0 183.5 9t158 28.5t140 51t129.5 75.5q24 17 32 28t8 13q0 10 -20 16t-52 11t-73 10.5t-83.5 15t-83.5 24.5t-73.5 38.5t-52 57.5t-20.5 81q-1 32 14.5 75t43 88.5t64 90t77.5 79t84 56t83 21.5q37 0 70 -21t64.5 -52t64.5 -68t70 -68 t80.5 -52t96.5 -21q40 0 79.5 6.5t77.5 29t73 65.5t66 116q5 11 12 16.5t13.5 5.5t10.5 -6t2 -18q-8 -51 -22.5 -96t-32.5 -81q21 -4 52 -7t67 -0.5t75 14t76 36t70.5 65t58.5 101.5q4 11 11.5 16.5t15 5.5t12 -6t2.5 -18q-5 -28 -15 -61t-18 -57q7 -19 32.5 -35.5 t56.5 -27.5t62 -15t49 2q15 4 28.5 23.5t25.5 47t21.5 59t16.5 60.5q3 13 9.5 19.5t13 6.5t11 -6t3.5 -16q-11 -100 45.5 -153t189.5 -53h19q31 0 46.5 -24.5t15.5 -54t-15.5 -54t-46.5 -24.5h-19q-71 0 -120.5 14t-83 36t-54.5 48.5t-35 51.5q-6 -15 -17 -37.5t-25.5 -42.5 t-32 -34.5t-35.5 -14.5q-65 0 -127 25t-100 73l-3 2q-42 -54 -97.5 -83t-114.5 -37.5t-116.5 1t-102.5 33.5q-42 -39 -94.5 -57.5t-106.5 -18.5q-62 0 -113 21.5t-93.5 54t-78 70.5t-66 70.5t-58 54t-53.5 21.5q-25 0 -54 -11t-57.5 -29t-55.5 -40.5t-47.5 -45.5t-33 -44 t-12.5 -36q0 -25 16.5 -45.5t43.5 -36.5t62 -28t72.5 -21t74 -14.5t67.5 -8.5q22 -2 45.5 -6t42.5 -13.5t31 -25.5t12 -42zM2381 631q-6 -6 -10 -5t-9 4l-118 92l-76 -105q-4 -5 -8.5 -5.5t-7.5 1.5l-126 97q-4 3 -5 5t3 7l79 113q3 4 7 5.5t8 -1.5l119 -91l81 104 q4 5 5.5 6t6.5 -3l126 -105q8 -5 0 -14zM2191 1053l123 -101q5 -4 4 -8t-3 -7l-82 -102q-6 -9 -17 -1l-123 100q-7 6 0 16l83 101q6 8 15 2z" />
<glyph unicode="&#xfebb;&#xfef2;" horiz-adv-x="2970" d="M2130 422q47 -8 107 -8t125 7.5t131 21.5t125.5 35t109 48.5t81.5 60.5q-22 43 -62 72.5t-86.5 44.5t-95 15t-87.5 -15q-52 -20 -99 -50.5t-90.5 -68t-83 -79.5t-75.5 -84zM1308 72q0 -72 -34 -129t-88 -100q-62 -50 -140.5 -88t-164 -64t-172 -38t-164.5 -9 q-92 3 -174.5 30.5t-144.5 79.5t-98 128.5t-36 177.5q0 103 33 195t94 180q4 6 9 6t9 -3.5t5.5 -9t-1.5 -11.5q-22 -44 -40 -91.5t-28.5 -94.5t-11 -93.5t12.5 -89.5q21 -69 63 -116t96.5 -75.5t116.5 -40.5t123 -12q78 0 160 8.5t161.5 27t153 49t136.5 74.5q24 17 32 28 t8 13q0 14 -33.5 21t-84 14.5t-110 20t-110 36.5t-85 64t-35.5 103q-1 32 11.5 76t36 91.5t57 93.5t74 82.5t86.5 59t96 22.5q35 0 67 -19t64 -48t64.5 -62.5t68.5 -62.5t77.5 -48t91.5 -19q54 0 96 17t73 44t51.5 60.5t30.5 66.5q6 17 20 16t14 -23q0 -26 14.5 -55 t40.5 -55t62 -46t80 -27q47 59 98 116.5t106.5 110.5t117.5 100.5t132 86.5q30 17 71 22.5t85 0.5t87.5 -20t78 -39.5t56.5 -58t24 -74.5q-3 -93 -43 -161.5t-104 -117t-146.5 -78t-170.5 -44.5q-56 -9 -112.5 -12.5t-111 -2.5t-105 6t-94.5 13q-8 -12 -18 -34.5t-15 -37.5 q-10 -26 -29 -22q-9 2 -12 12.5t0 24.5q4 18 9.5 35t13.5 37q-54 20 -91.5 45.5t-70.5 69.5q-20 -34 -49.5 -59t-62.5 -41.5t-67 -24.5t-64 -8q-62 0 -112 20t-91 49.5t-75.5 64t-64.5 64t-58 49.5t-57 20q-25 0 -53.5 -12.5t-57 -32t-54.5 -44t-46.5 -49t-32.5 -46.5 t-12 -37q0 -25 16.5 -44.5t43.5 -34.5t62 -26t72.5 -18.5t74 -12.5t67.5 -8q22 -2 45.5 -8.5t42.5 -18.5t31 -30.5t12 -44.5z" />
<glyph unicode="&#xfebf;&#xfef2;" horiz-adv-x="2970" d="M2229 1205l124 -103q5 -4 5 -7t-4 -8l-83 -104q-8 -8 -17 -1l-124 102q-7 6 0 16l84 103q6 8 15 2zM2130 422q47 -8 107 -8t125 7.5t131 21.5t125.5 35t109 48.5t81.5 60.5q-22 43 -62 72.5t-86.5 44.5t-95 15t-87.5 -15q-52 -20 -99 -50.5t-90.5 -68t-83 -79.5 t-75.5 -84zM1308 72q0 -72 -34 -129t-88 -100q-62 -50 -140.5 -88t-164 -64t-172 -38t-164.5 -9q-92 3 -174.5 30.5t-144.5 79.5t-98 128.5t-36 177.5q0 103 33 195t94 180q4 6 9 6t9 -3.5t5.5 -9t-1.5 -11.5q-22 -44 -40 -91.5t-28.5 -94.5t-11 -93.5t12.5 -89.5 q21 -69 63 -116t96.5 -75.5t116.5 -40.5t123 -12q78 0 160 8.5t161.5 27t153 49t136.5 74.5q24 17 32 28t8 13q0 14 -33.5 21t-84 14.5t-110 20t-110 36.5t-85 64t-35.5 103q-1 32 11.5 76t36 91.5t57 93.5t74 82.5t86.5 59t96 22.5q35 0 67 -19t64 -48t64.5 -62.5 t68.5 -62.5t77.5 -48t91.5 -19q54 0 96 17t73 44t51.5 60.5t30.5 66.5q6 17 20 16t14 -23q0 -26 14.5 -55t40.5 -55t62 -46t80 -27q47 59 98 116.5t106.5 110.5t117.5 100.5t132 86.5q30 17 71 22.5t85 0.5t87.5 -20t78 -39.5t56.5 -58t24 -74.5q-3 -93 -43 -161.5 t-104 -117t-146.5 -78t-170.5 -44.5q-56 -9 -112.5 -12.5t-111 -2.5t-105 6t-94.5 13q-8 -12 -18 -34.5t-15 -37.5q-10 -26 -29 -22q-9 2 -12 12.5t0 24.5q4 18 9.5 35t13.5 37q-54 20 -91.5 45.5t-70.5 69.5q-20 -34 -49.5 -59t-62.5 -41.5t-67 -24.5t-64 -8q-62 0 -112 20 t-91 49.5t-75.5 64t-64.5 64t-58 49.5t-57 20q-25 0 -53.5 -12.5t-57 -32t-54.5 -44t-46.5 -49t-32.5 -46.5t-12 -37q0 -25 16.5 -44.5t43.5 -34.5t62 -26t72.5 -18.5t74 -12.5t67.5 -8q22 -2 45.5 -8.5t42.5 -18.5t31 -30.5t12 -44.5z" />
<glyph unicode="&#xfebc;&#xfef2;" horiz-adv-x="3021" d="M1313 -142q0 -72 -34 -129t-88 -100q-62 -50 -140.5 -88t-164 -64t-172 -38t-164.5 -9q-92 3 -174.5 30.5t-144.5 79.5t-98 128.5t-36 177.5q0 103 33 195t94 180q4 6 9 6t9 -3.5t5.5 -9t-1.5 -11.5q-22 -44 -40 -91.5t-28.5 -94.5t-11 -93.5t12.5 -89.5q21 -69 63 -116 t96.5 -75.5t116.5 -40.5t123 -12q78 0 160 8.5t161.5 27t153 49t136.5 74.5q24 17 32 28t8 13q0 14 -33.5 21t-84 14.5t-110 20t-110 36.5t-85 64t-35.5 103q-1 32 11.5 76t36 91.5t57 93.5t74 82.5t86.5 59t96 22.5q35 0 68 -19.5t66 -49t67.5 -64t72.5 -64t80.5 -49 t91.5 -19.5q51 0 89.5 14.5t67 39t48 57t33.5 68.5q3 8 8.5 12t11.5 3.5t10 -6t4 -16.5q0 -26 14.5 -55t40.5 -55t62 -46t80 -27q47 59 98 116.5t106.5 110.5t117.5 100.5t132 86.5q30 17 71 22.5t85 0.5t87.5 -20t78 -39.5t56.5 -58t24 -74.5q-3 -97 -44.5 -165.5 t-107.5 -117.5q67 -2 135 -2h135h18q33 0 48.5 -24.5t15.5 -54.5t-16.5 -54.5t-47.5 -24.5h-18q-30 0 -77.5 1t-105.5 2.5t-124 3.5t-134 5.5t-135.5 7.5t-127.5 9q-82 -5 -159.5 0t-141.5 17q-8 -12 -18 -34.5t-15 -37.5q-10 -26 -29 -22q-9 2 -12 12.5t0 24.5q4 18 9.5 35 t13.5 37q-54 20 -89.5 45.5t-68.5 69.5q-28 -37 -58 -61t-60 -38t-59 -19.5t-56 -5.5q-65 0 -116.5 20t-94.5 50.5t-78 66t-66 66t-59.5 50.5t-57.5 20q-25 0 -53.5 -12.5t-57 -32t-54.5 -44t-46.5 -49t-32.5 -46.5t-12 -37q0 -25 16.5 -44.5t43.5 -34.5t62 -26t72.5 -18.5 t74 -12.5t67.5 -8q22 -2 45.5 -8.5t42.5 -18.5t31 -30.5t12 -44.5zM2135 193q47 -8 107 -8t125 7.5t131 21.5t125.5 35t109 48.5t81.5 60.5q-22 43 -62 72.5t-86.5 44.5t-95 15t-87.5 -15q-52 -20 -99 -50.5t-90.5 -68t-83 -79.5t-75.5 -84z" />
<glyph unicode="&#xfec0;&#xfef2;" horiz-adv-x="3021" d="M2236 977l124 -103q5 -4 5 -7t-4 -8l-83 -104q-8 -8 -17 -1l-124 102q-7 6 0 16l84 103q6 8 15 2zM1313 -142q0 -72 -34 -129t-88 -100q-62 -50 -140.5 -88t-164 -64t-172 -38t-164.5 -9q-92 3 -174.5 30.5t-144.5 79.5t-98 128.5t-36 177.5q0 103 33 195t94 180q4 6 9 6 t9 -3.5t5.5 -9t-1.5 -11.5q-22 -44 -40 -91.5t-28.5 -94.5t-11 -93.5t12.5 -89.5q21 -69 63 -116t96.5 -75.5t116.5 -40.5t123 -12q78 0 160 8.5t161.5 27t153 49t136.5 74.5q24 17 32 28t8 13q0 14 -33.5 21t-84 14.5t-110 20t-110 36.5t-85 64t-35.5 103q-1 32 11.5 76 t36 91.5t57 93.5t74 82.5t86.5 59t96 22.5q35 0 68 -19.5t66 -49t67.5 -64t72.5 -64t80.5 -49t91.5 -19.5q51 0 89.5 14.5t67 39t48 57t33.5 68.5q3 8 8.5 12t11.5 3.5t10 -6t4 -16.5q0 -26 14.5 -55t40.5 -55t62 -46t80 -27q47 59 98 116.5t106.5 110.5t117.5 100.5 t132 86.5q30 17 71 22.5t85 0.5t87.5 -20t78 -39.5t56.5 -58t24 -74.5q-3 -97 -44.5 -165.5t-107.5 -117.5q67 -2 135 -2h135h18q33 0 48.5 -24.5t15.5 -54.5t-16.5 -54.5t-47.5 -24.5h-18q-30 0 -77.5 1t-105.5 2.5t-124 3.5t-134 5.5t-135.5 7.5t-127.5 9q-82 -5 -159.5 0 t-141.5 17q-8 -12 -18 -34.5t-15 -37.5q-10 -26 -29 -22q-9 2 -12 12.5t0 24.5q4 18 9.5 35t13.5 37q-54 20 -89.5 45.5t-68.5 69.5q-28 -37 -58 -61t-60 -38t-59 -19.5t-56 -5.5q-65 0 -116.5 20t-94.5 50.5t-78 66t-66 66t-59.5 50.5t-57.5 20q-25 0 -53.5 -12.5t-57 -32 t-54.5 -44t-46.5 -49t-32.5 -46.5t-12 -37q0 -25 16.5 -44.5t43.5 -34.5t62 -26t72.5 -18.5t74 -12.5t67.5 -8q22 -2 45.5 -8.5t42.5 -18.5t31 -30.5t12 -44.5zM2135 193q47 -8 107 -8t125 7.5t131 21.5t125.5 35t109 48.5t81.5 60.5q-22 43 -62 72.5t-86.5 44.5t-95 15 t-87.5 -15q-52 -20 -99 -50.5t-90.5 -68t-83 -79.5t-75.5 -84z" />
<glyph unicode="&#xfec3;&#xfef2;" horiz-adv-x="2514" d="M2449 632q-7 -81 -42 -142t-95 -95q-132 -75 -312.5 -104.5t-421.5 -29.5q-73 0 -128.5 20t-98.5 50t-76 65t-61 65t-52.5 50t-51.5 20q-37 0 -83 -24t-86.5 -57t-68 -68t-27.5 -57q0 -25 16.5 -44.5t43.5 -34.5t62 -26t72.5 -18.5t74 -12.5t67.5 -8q22 -2 45.5 -8.5 t42.5 -18.5t31 -30.5t12 -44.5q0 -72 -34 -129t-88 -100q-62 -50 -140.5 -88t-164 -64t-172 -38t-164.5 -9q-92 3 -174.5 30.5t-144.5 79.5t-98 128.5t-36 177.5q0 103 33 195t94 180q4 6 9 6t9 -3.5t5.5 -9t-1.5 -11.5q-23 -44 -41 -91t-28.5 -94.5t-10.5 -94t13 -89.5 q21 -69 63 -116t96.5 -75.5t116.5 -40.5t123 -12q78 0 160 8.5t161.5 27t153 49t136.5 74.5q24 17 32 28t8 13q0 14 -33.5 21t-84 14.5t-110 20t-110 36.5t-85 64t-35.5 103q-1 32 12.5 75t39 88.5t60.5 90t77 79t89.5 56t97.5 21.5q34 0 64 -19.5t59.5 -49t60.5 -64t67 -64 t79 -49t96 -19.5q42 36 85.5 73t80.5 67q14 32 17.5 84.5t0.5 117.5t-11.5 138t-19 145t-21.5 139t-19 120q-5 38 -15 76.5t-30 70.5q-3 7 -5 9.5t-3 4.5t0 5t4 11q17 29 31.5 59.5t28.5 56.5q4 8 9 10t7 -10q9 -24 18.5 -48.5t22 -47t29.5 -42t40 -33.5q-14 -24 -25 -41.5 t-18 -31.5t-10 -27.5t-1 -29.5q18 -79 30.5 -165.5t18 -175t2 -177t-17.5 -171.5q42 34 77 61.5t66.5 49.5t60.5 39t59 30q54 22 117 19t119.5 -24.5t97.5 -59t51 -85.5zM2353 542q-24 36 -60.5 61.5t-78.5 40.5t-85.5 18.5t-82.5 -4.5q-50 -11 -97.5 -34t-95 -55.5 t-96.5 -73t-101 -85.5q78 0 173.5 6t191.5 21t183.5 40.5t148.5 64.5z" />
<glyph unicode="&#xfec7;&#xfef2;" horiz-adv-x="2514" d="M2105 1239l124 -103q5 -4 5 -7t-4 -8l-83 -104q-8 -8 -17 -1l-124 102q-7 6 0 16l84 103q6 8 15 2zM2449 632q-7 -81 -42 -142t-95 -95q-132 -75 -312.5 -104.5t-421.5 -29.5q-73 0 -128.5 20t-98.5 50t-76 65t-61 65t-52.5 50t-51.5 20q-37 0 -83 -24t-86.5 -57t-68 -68 t-27.5 -57q0 -25 16.5 -44.5t43.5 -34.5t62 -26t72.5 -18.5t74 -12.5t67.5 -8q22 -2 45.5 -8.5t42.5 -18.5t31 -30.5t12 -44.5q0 -72 -34 -129t-88 -100q-62 -50 -140.5 -88t-164 -64t-172 -38t-164.5 -9q-92 3 -174.5 30.5t-144.5 79.5t-98 128.5t-36 177.5q0 103 33 195 t94 180q4 6 9 6t9 -3.5t5.5 -9t-1.5 -11.5q-23 -44 -41 -91t-28.5 -94.5t-10.5 -94t13 -89.5q21 -69 63 -116t96.5 -75.5t116.5 -40.5t123 -12q78 0 160 8.5t161.5 27t153 49t136.5 74.5q24 17 32 28t8 13q0 14 -33.5 21t-84 14.5t-110 20t-110 36.5t-85 64t-35.5 103 q-1 32 12.5 75t39 88.5t60.5 90t77 79t89.5 56t97.5 21.5q34 0 64 -19.5t59.5 -49t60.5 -64t67 -64t79 -49t96 -19.5q42 36 85.5 73t80.5 67q14 32 17.5 84.5t0.5 117.5t-11.5 138t-19 145t-21.5 139t-19 120q-5 38 -15 76.5t-30 70.5q-3 7 -5 9.5t-3 4.5t0 5t4 11 q17 29 31.5 59.5t28.5 56.5q4 8 9 10t7 -10q9 -24 18.5 -48.5t22 -47t29.5 -42t40 -33.5q-14 -24 -25 -41.5t-18 -31.5t-10 -27.5t-1 -29.5q18 -79 30.5 -165.5t18 -175t2 -177t-17.5 -171.5q42 34 77 61.5t66.5 49.5t60.5 39t59 30q54 22 117 19t119.5 -24.5t97.5 -59 t51 -85.5zM2353 542q-24 36 -60.5 61.5t-78.5 40.5t-85.5 18.5t-82.5 -4.5q-50 -11 -97.5 -34t-95 -55.5t-96.5 -73t-101 -85.5q78 0 173.5 6t191.5 21t183.5 40.5t148.5 64.5z" />
<glyph unicode="&#xfecb;&#xfef2;" horiz-adv-x="2503" d="M1949 476q63 12 126 29t124.5 35.5t121 37t114.5 33.5q5 2 6 -0.5t-1 -5.5q-15 -26 -26.5 -45.5t-22 -36.5t-21.5 -34.5t-24 -39.5q-59 -19 -130 -42t-146 -46.5t-150.5 -46t-142.5 -39.5t-121.5 -27.5t-88.5 -10.5q-68 0 -121.5 21.5t-96.5 53.5t-77 69t-62.5 69 t-53.5 53.5t-50 21.5q-37 0 -83 -24t-86.5 -57t-68 -68t-27.5 -57q0 -25 16.5 -44.5t43.5 -34.5t62 -26t72.5 -18.5t74 -12.5t67.5 -8q22 -2 45.5 -8.5t42.5 -18.5t31 -30.5t12 -44.5q0 -72 -34 -129t-88 -100q-62 -50 -140.5 -88t-164 -64t-172 -38t-164.5 -9 q-92 3 -174.5 30.5t-144.5 79.5t-98 128.5t-36 177.5q0 103 33 195t94 180q4 6 9 6t9 -3.5t5.5 -9t-1.5 -11.5q-23 -44 -41 -91t-28.5 -94.5t-10.5 -94t13 -89.5q21 -69 63 -116t96.5 -75.5t116.5 -40.5t123 -12q78 0 160 8.5t161.5 27t153 49t136.5 74.5q24 17 32 28t8 13 q0 14 -33.5 21t-84 14.5t-110 20t-110 36.5t-85 64t-35.5 103q-1 32 12.5 75t39 88.5t60.5 90t77 79t89.5 56t97.5 21.5q39 0 71.5 -20.5t62.5 -51.5t60 -67t64 -67t74.5 -51.5t92.5 -20.5q41 0 75.5 5t78.5 16q-24 13 -46.5 37t-41.5 54.5t-32 64.5t-18 67q-9 63 12 128 t61.5 120t96 94t115.5 50q76 9 137 -3t108.5 -37t82.5 -59.5t59 -70.5q4 -6 1.5 -11t-8 -8t-12.5 -3.5t-12 2.5q-32 18 -64 29.5t-65 17t-69 6.5t-76 -2q-39 -3 -79.5 -12t-77.5 -23t-68 -32t-49 -38q0 -18 7.5 -42t20 -50.5t30 -52t37.5 -46.5q21 -21 46 -42.5t49.5 -39 t46.5 -28.5t36 -11z" />
<glyph unicode="&#xfecf;&#xfef2;" horiz-adv-x="2503" d="M1831 1475l124 -103q5 -4 5 -7t-4 -8l-83 -104q-8 -8 -17 -1l-124 102q-7 6 0 16l84 103q6 8 15 2zM1949 476q63 12 126 29t124.5 35.5t121 37t114.5 33.5q5 2 6 -0.5t-1 -5.5q-15 -26 -26.5 -45.5t-22 -36.5t-21.5 -34.5t-24 -39.5q-59 -19 -130 -42t-146 -46.5 t-150.5 -46t-142.5 -39.5t-121.5 -27.5t-88.5 -10.5q-68 0 -121.5 21.5t-96.5 53.5t-77 69t-62.5 69t-53.5 53.5t-50 21.5q-37 0 -83 -24t-86.5 -57t-68 -68t-27.5 -57q0 -25 16.5 -44.5t43.5 -34.5t62 -26t72.5 -18.5t74 -12.5t67.5 -8q22 -2 45.5 -8.5t42.5 -18.5 t31 -30.5t12 -44.5q0 -72 -34 -129t-88 -100q-62 -50 -140.5 -88t-164 -64t-172 -38t-164.5 -9q-92 3 -174.5 30.5t-144.5 79.5t-98 128.5t-36 177.5q0 103 33 195t94 180q4 6 9 6t9 -3.5t5.5 -9t-1.5 -11.5q-23 -44 -41 -91t-28.5 -94.5t-10.5 -94t13 -89.5q21 -69 63 -116 t96.5 -75.5t116.5 -40.5t123 -12q78 0 160 8.5t161.5 27t153 49t136.5 74.5q24 17 32 28t8 13q0 14 -33.5 21t-84 14.5t-110 20t-110 36.5t-85 64t-35.5 103q-1 32 12.5 75t39 88.5t60.5 90t77 79t89.5 56t97.5 21.5q39 0 71.5 -20.5t62.5 -51.5t60 -67t64 -67t74.5 -51.5 t92.5 -20.5q41 0 75.5 5t78.5 16q-24 13 -46.5 37t-41.5 54.5t-32 64.5t-18 67q-9 63 12 128t61.5 120t96 94t115.5 50q76 9 137 -3t108.5 -37t82.5 -59.5t59 -70.5q4 -6 1.5 -11t-8 -8t-12.5 -3.5t-12 2.5q-32 18 -64 29.5t-65 17t-69 6.5t-76 -2q-39 -3 -79.5 -12 t-77.5 -23t-68 -32t-49 -38q0 -18 7.5 -42t20 -50.5t30 -52t37.5 -46.5q21 -21 46 -42.5t49.5 -39t46.5 -28.5t36 -11z" />
<glyph unicode="&#xfecc;&#xfef2;" horiz-adv-x="2331" d="M1837 416q22 -23 48 -44t50 -40q6 -5 17 -5t21 7q23 14 49.5 36.5t49.5 45.5q9 9 9.5 18.5t-13.5 14.5q-26 8 -60.5 11t-59.5 4q-26 0 -54.5 -3t-51.5 -9q-13 -4 -16 -12.5t11 -23.5zM1670 371q-9 2 -19 -1t-19 -8.5t-17 -10.5t-14 -7q-15 -5 -21 5.5t-6 29.5 q0 18 5 40.5t12.5 43.5t15.5 37.5t15 21.5q54 42 129.5 64.5t156.5 27t159 -8.5t137 -44q22 -12 34.5 -29t11.5 -32q0 -10 -4.5 -28.5t-11 -39t-15 -39t-16.5 -28.5q-32 -38 -64 -69t-77 -66q27 -22 59.5 -36t67.5 -22.5t71 -11.5t71 -3h18q31 0 46.5 -24.5t15.5 -54 t-15.5 -54t-46.5 -24.5h-18q-71 0 -128.5 8.5t-106 25.5t-90 43t-79.5 61q-88 -64 -175.5 -97t-189.5 -33q-69 0 -122 21.5t-95.5 53.5t-75 69t-60 69t-52 53.5t-49.5 21.5q-37 0 -83 -24t-86.5 -57t-68 -68t-27.5 -57q0 -25 16.5 -44.5t43.5 -34.5t62 -26t72.5 -18.5 t74 -12.5t67.5 -8q22 -2 45.5 -8.5t42.5 -18.5t31 -30.5t12 -44.5q0 -72 -34 -129t-88 -100q-62 -50 -140.5 -88t-164 -64t-172 -38t-164.5 -9q-92 3 -174.5 30.5t-144.5 79.5t-98 128.5t-36 177.5q0 103 33 195t94 180q4 6 9 6t9 -3.5t5.5 -9t-1.5 -11.5q-23 -44 -41 -91 t-28.5 -94.5t-10.5 -94t13 -89.5q21 -69 63 -116t96.5 -75.5t116.5 -40.5t123 -12q78 0 160 8.5t161.5 27t153 49t136.5 74.5q24 17 32 28t8 13q0 14 -33.5 21t-84 14.5t-110 20t-110 36.5t-85 64t-35.5 103q-1 32 12.5 75t39 88.5t60.5 90t77 79t89.5 56t97.5 21.5 q43 0 75.5 -20.5t61 -52t56.5 -67.5t61.5 -67.5t76.5 -52t102 -20.5q68 0 123.5 18t116.5 55q0 2 -0.5 5t-3.5 6q-13 13 -31.5 32t-38.5 37.5t-39.5 33.5t-33.5 19z" />
<glyph unicode="&#xfed0;&#xfef2;" horiz-adv-x="2331" d="M1873 1040l124 -103q5 -4 5 -7t-4 -8l-83 -104q-8 -8 -17 -1l-124 102q-7 6 0 16l84 103q6 8 15 2zM1837 416q22 -23 48 -44t50 -40q6 -5 17 -5t21 7q23 14 49.5 36.5t49.5 45.5q9 9 9.5 18.5t-13.5 14.5q-26 8 -60.5 11t-59.5 4q-26 0 -54.5 -3t-51.5 -9 q-13 -4 -16 -12.5t11 -23.5zM1670 371q-9 2 -19 -1t-19 -8.5t-17 -10.5t-14 -7q-15 -5 -21 5.5t-6 29.5q0 18 5 40.5t12.5 43.5t15.5 37.5t15 21.5q54 42 129.5 64.5t156.5 27t159 -8.5t137 -44q22 -12 34.5 -29t11.5 -32q0 -10 -4.5 -28.5t-11 -39t-15 -39t-16.5 -28.5 q-32 -38 -64 -69t-77 -66q27 -22 59.5 -36t67.5 -22.5t71 -11.5t71 -3h18q31 0 46.5 -24.5t15.5 -54t-15.5 -54t-46.5 -24.5h-18q-71 0 -128.5 8.5t-106 25.5t-90 43t-79.5 61q-88 -64 -175.5 -97t-189.5 -33q-69 0 -122 21.5t-95.5 53.5t-75 69t-60 69t-52 53.5t-49.5 21.5 q-37 0 -83 -24t-86.5 -57t-68 -68t-27.5 -57q0 -25 16.5 -44.5t43.5 -34.5t62 -26t72.5 -18.5t74 -12.5t67.5 -8q22 -2 45.5 -8.5t42.5 -18.5t31 -30.5t12 -44.5q0 -72 -34 -129t-88 -100q-62 -50 -140.5 -88t-164 -64t-172 -38t-164.5 -9q-92 3 -174.5 30.5t-144.5 79.5 t-98 128.5t-36 177.5q0 103 33 195t94 180q4 6 9 6t9 -3.5t5.5 -9t-1.5 -11.5q-23 -44 -41 -91t-28.5 -94.5t-10.5 -94t13 -89.5q21 -69 63 -116t96.5 -75.5t116.5 -40.5t123 -12q78 0 160 8.5t161.5 27t153 49t136.5 74.5q24 17 32 28t8 13q0 14 -33.5 21t-84 14.5t-110 20 t-110 36.5t-85 64t-35.5 103q-1 32 12.5 75t39 88.5t60.5 90t77 79t89.5 56t97.5 21.5q43 0 75.5 -20.5t61 -52t56.5 -67.5t61.5 -67.5t76.5 -52t102 -20.5q68 0 123.5 18t116.5 55q0 2 -0.5 5t-3.5 6q-13 13 -31.5 32t-38.5 37.5t-39.5 33.5t-33.5 19z" />
<glyph unicode="&#xfed3;&#xfef2;" horiz-adv-x="2009" d="M1310 72q0 -72 -34 -129t-88 -100q-62 -50 -131 -89t-147.5 -65.5t-168.5 -39.5t-194 -10q-92 3 -174.5 30.5t-144.5 79.5t-98 128.5t-36 177.5q0 103 33 195t94 180q4 6 9 6t9 -3.5t5.5 -9t-1.5 -11.5q-23 -44 -41 -91t-28.5 -94.5t-10.5 -94t13 -89.5q21 -69 63 -116 t96.5 -75.5t116.5 -40.5t123 -12q99 0 183.5 9t158 28.5t140 51t129.5 75.5q24 17 32 28t8 13q0 10 -20 16t-52 11t-73 10.5t-83.5 15t-83.5 24.5t-73.5 38.5t-52 57.5t-20.5 81q-1 32 14 75t42.5 88.5t64.5 90t80 79t90 56t93 21.5q38 0 69.5 -15.5t61 -38.5t59.5 -49.5 t65 -49.5t77 -38.5t96 -15.5q88 0 162 22t122 75q2 12 0 30t-6 36.5t-9.5 36t-10.5 29.5q-24 -48 -61 -79.5t-88 -31.5q-26 0 -49 9t-42.5 24.5t-33 37t-19.5 46.5q-6 28 -4 62.5t11.5 70t25.5 69.5t37.5 60t48 41.5t56.5 14.5q26 -1 51 -18t47 -44.5t41.5 -61.5t33.5 -69.5 t23 -68.5t11 -58q3 -48 0 -93t-14 -85t-31 -74t-51 -60q-24 -20 -54.5 -35.5t-62.5 -26t-64.5 -15.5t-62.5 -5q-68 0 -121.5 16t-96 40.5t-76.5 53t-63 53t-55 40.5t-52 16q-25 0 -55 -11t-61.5 -29t-61 -40.5t-52 -45.5t-36.5 -44t-14 -36q0 -25 16.5 -45.5t43.5 -36.5 t62 -28t72.5 -21t74 -14.5t67.5 -8.5q22 -2 45.5 -6t42.5 -13.5t31 -25.5t12 -42zM1786 780q-1 12 -11 26t-24 26t-29.5 20t-27.5 8q-13 0 -27 -8t-26 -20.5t-20 -27t-8 -26.5q12 -22 35.5 -33.5t50 -12t50.5 11.5t37 36zM1686 94q6 9 15 2l119 -99q3 -3 4.5 -6.5t-2.5 -8.5 l-80 -98q-8 -8 -17 -2l-119 98q-3 2 -4 6t4 10z" />
<glyph unicode="&#xfed7;&#xfef2;" horiz-adv-x="2009" d="M1310 72q0 -72 -34 -129t-88 -100q-62 -50 -131 -89t-147.5 -65.5t-168.5 -39.5t-194 -10q-92 3 -174.5 30.5t-144.5 79.5t-98 128.5t-36 177.5q0 103 33 195t94 180q4 6 9 6t9 -3.5t5.5 -9t-1.5 -11.5q-23 -44 -41 -91t-28.5 -94.5t-10.5 -94t13 -89.5q21 -69 63 -116 t96.5 -75.5t116.5 -40.5t123 -12q99 0 183.5 9t158 28.5t140 51t129.5 75.5q24 17 32 28t8 13q0 10 -20 16t-52 11t-73 10.5t-83.5 15t-83.5 24.5t-73.5 38.5t-52 57.5t-20.5 81q-1 32 14 75t42.5 88.5t64.5 90t80 79t90 56t93 21.5q38 0 69.5 -15.5t61 -38.5t59.5 -49.5 t65 -49.5t77 -38.5t96 -15.5q88 0 162 22t122 75q2 12 0 30t-6 36.5t-9.5 36t-10.5 29.5q-24 -48 -61 -79.5t-88 -31.5q-26 0 -49 9t-42.5 24.5t-33 37t-19.5 46.5q-6 28 -4 62.5t11.5 70t25.5 69.5t37.5 60t48 41.5t56.5 14.5q26 -1 51 -18t47 -44.5t41.5 -61.5t33.5 -69.5 t23 -68.5t11 -58q3 -48 0 -93t-14 -85t-31 -74t-51 -60q-24 -20 -54.5 -35.5t-62.5 -26t-64.5 -15.5t-62.5 -5q-68 0 -121.5 16t-96 40.5t-76.5 53t-63 53t-55 40.5t-52 16q-25 0 -55 -11t-61.5 -29t-61 -40.5t-52 -45.5t-36.5 -44t-14 -36q0 -25 16.5 -45.5t43.5 -36.5 t62 -28t72.5 -21t74 -14.5t67.5 -8.5q22 -2 45.5 -6t42.5 -13.5t31 -25.5t12 -42zM1786 780q-1 12 -11 26t-24 26t-29.5 20t-27.5 8q-13 0 -27 -8t-26 -20.5t-20 -27t-8 -26.5q12 -22 35.5 -33.5t50 -12t50.5 11.5t37 36zM1618 1426q6 9 15 2l119 -99q3 -3 4.5 -6.5 t-2.5 -8.5l-80 -98q-8 -8 -17 -2l-119 98q-3 2 -4 6t4 10z" />
<glyph unicode="&#xfed4;&#xfef2;" horiz-adv-x="2152" d="M1309 -194q0 -72 -34 -129t-88 -100q-62 -50 -131 -89t-147.5 -65.5t-168.5 -39.5t-194 -10q-92 3 -174.5 30.5t-144.5 79.5t-98 128.5t-36 177.5q0 103 33 195t94 180q4 6 9 6t9 -3.5t5.5 -9t-1.5 -11.5q-23 -44 -41 -91t-28.5 -94.5t-10.5 -94t13 -89.5q21 -69 63 -116 t96.5 -75.5t116.5 -40.5t123 -12q99 0 183.5 9t158 28.5t140 51t129.5 75.5q24 17 32 28t8 13q0 10 -20 16t-52 11t-73 10.5t-83.5 15t-83.5 24.5t-73.5 38.5t-52 57.5t-20.5 81q-1 32 13 75t39.5 88.5t60.5 90t76 79t86.5 56t92.5 21.5q36 0 67.5 -17.5t61 -43.5t59.5 -57 t63.5 -57t73 -43.5t88.5 -17.5q24 0 52 4.5t46 13.5q-14 17 -19.5 47t-3.5 57q3 69 35 133.5t78 114t97.5 78.5t93.5 26q41 -3 66.5 -35.5t37.5 -79t12 -98t-10 -92.5q-11 -43 -33 -80.5t-50 -70.5q32 -13 86.5 -20t115.5 -7h18q32 -2 48 -26.5t16 -53.5t-16 -53t-48 -24 h-18q-100 0 -190 19t-165 54q-36 -20 -72 -32.5t-68.5 -19.5t-60 -9.5t-46.5 -2.5q-60 0 -108.5 18t-89 45t-74.5 59t-63.5 59t-55.5 45t-52 18q-37 0 -83 -24t-86.5 -57t-68 -68t-27.5 -57q0 -25 16.5 -45.5t43.5 -36.5t62 -28t72.5 -21t74 -14.5t67.5 -8.5q22 -2 45.5 -6 t42.5 -13.5t31 -25.5t12 -42zM1965 344q2 28 -12 59.5t-31 56.5q-9 13 -24.5 18t-30.5 3q-17 -2 -42 -11.5t-49 -25t-44 -37t-27 -46.5q1 -25 14 -46t30.5 -37.5t35.5 -27t29 -14.5q11 2 34 13t47 26.5t44 33.5t26 35zM1766 -171q6 9 15 2l119 -99q3 -3 4.5 -6.5t-2.5 -8.5 l-80 -98q-8 -8 -17 -2l-119 98q-3 2 -4 6t4 10z" />
<glyph unicode="&#xfed8;&#xfef2;" horiz-adv-x="2152" d="M1309 -194q0 -72 -34 -129t-88 -100q-62 -50 -131 -89t-147.5 -65.5t-168.5 -39.5t-194 -10q-92 3 -174.5 30.5t-144.5 79.5t-98 128.5t-36 177.5q0 103 33 195t94 180q4 6 9 6t9 -3.5t5.5 -9t-1.5 -11.5q-23 -44 -41 -91t-28.5 -94.5t-10.5 -94t13 -89.5q21 -69 63 -116 t96.5 -75.5t116.5 -40.5t123 -12q99 0 183.5 9t158 28.5t140 51t129.5 75.5q24 17 32 28t8 13q0 10 -20 16t-52 11t-73 10.5t-83.5 15t-83.5 24.5t-73.5 38.5t-52 57.5t-20.5 81q-1 32 13 75t39.5 88.5t60.5 90t76 79t86.5 56t92.5 21.5q36 0 67.5 -17.5t61 -43.5t59.5 -57 t63.5 -57t73 -43.5t88.5 -17.5q24 0 52 4.5t46 13.5q-14 17 -19.5 47t-3.5 57q3 69 35 133.5t78 114t97.5 78.5t93.5 26q41 -3 66.5 -35.5t37.5 -79t12 -98t-10 -92.5q-11 -43 -33 -80.5t-50 -70.5q32 -13 86.5 -20t115.5 -7h18q32 -2 48 -26.5t16 -53.5t-16 -53t-48 -24 h-18q-100 0 -190 19t-165 54q-36 -20 -72 -32.5t-68.5 -19.5t-60 -9.5t-46.5 -2.5q-60 0 -108.5 18t-89 45t-74.5 59t-63.5 59t-55.5 45t-52 18q-37 0 -83 -24t-86.5 -57t-68 -68t-27.5 -57q0 -25 16.5 -45.5t43.5 -36.5t62 -28t72.5 -21t74 -14.5t67.5 -8.5q22 -2 45.5 -6 t42.5 -13.5t31 -25.5t12 -42zM1965 344q2 28 -12 59.5t-31 56.5q-9 13 -24.5 18t-30.5 3q-17 -2 -42 -11.5t-49 -25t-44 -37t-27 -46.5q1 -25 14 -46t30.5 -37.5t35.5 -27t29 -14.5q11 2 34 13t47 26.5t44 33.5t26 35zM1777 1069q6 9 15 2l119 -99q3 -3 4.5 -6.5t-2.5 -8.5 l-80 -98q-8 -8 -17 -2l-119 98q-3 2 -4 6t4 10z" />
<glyph unicode="&#xfedf;&#xfef2;" horiz-adv-x="1849" d="M1300 42q0 -72 -34 -129t-88 -100q-62 -50 -131 -89t-147.5 -65.5t-168.5 -39.5t-194 -10q-92 3 -174.5 30.5t-144.5 79.5t-98 128.5t-36 177.5q0 103 33 195t94 180q4 6 9 6t9 -3.5t5.5 -9t-1.5 -11.5q-23 -44 -41 -91t-28.5 -94.5t-10.5 -94t13 -89.5q21 -69 63 -116 t96.5 -75.5t116.5 -40.5t123 -12q99 0 183.5 9t158 28.5t140 51t129.5 75.5q24 17 32 28t8 13q0 10 -20 16t-52 11t-73 10.5t-83.5 15t-83.5 24.5t-73.5 38.5t-52 57.5t-20.5 81q-1 32 13.5 75t40.5 88.5t61.5 90t77.5 79t88 56t92 21.5q35 0 61.5 -16.5t50.5 -42t48 -54.5 t54.5 -54.5t69 -42t92.5 -16.5q30 0 59.5 6t54.5 16t43 23t24 28q-20 212 -52 420t-63 417q-6 42 -12.5 82.5t-29.5 78.5q-8 11 -9 14.5t5 15.5q17 29 31.5 59.5t28.5 55.5q3 9 8 11t8 -11q8 -24 18 -49t23.5 -49t31.5 -44.5t41 -34.5q-14 -24 -24.5 -41.5t-17.5 -32 t-10 -28t-1 -28.5q10 -96 24.5 -192.5t28 -192.5t24.5 -192t14 -193q0 -55 -12.5 -104.5t-38.5 -88.5q-38 -56 -93 -80.5t-114 -24.5q-58 0 -103 17.5t-80.5 43.5t-63.5 57t-52.5 57t-47.5 43.5t-48 17.5t-54.5 -11t-59.5 -29t-58 -40.5t-49.5 -45.5t-34.5 -44t-13 -36 q0 -25 16.5 -45.5t43.5 -36.5t62 -28t72.5 -21t74.5 -14.5t67 -8.5q22 -2 45.5 -6t42.5 -13.5t31 -25.5t12 -42z" />
<glyph unicode="&#xfee0;&#xfef2;" horiz-adv-x="2040" d="M1309 -121q0 -72 -34 -129t-88 -100q-62 -50 -131 -89t-147.5 -65.5t-168.5 -39.5t-194 -10q-92 3 -174.5 30.5t-144.5 79.5t-98 128.5t-36 177.5q0 103 33 195t94 180q4 6 9 6t9 -3.5t5.5 -9t-1.5 -11.5q-23 -44 -41 -91t-28.5 -94.5t-10.5 -94t13 -89.5q21 -69 63 -116 t96.5 -75.5t116.5 -40.5t123 -12q99 0 183.5 9t158 28.5t140 51t129.5 75.5q24 17 32 28t8 13q0 10 -20 16t-52 11t-73 10.5t-83.5 15t-83.5 24.5t-73.5 38.5t-52 57.5t-20.5 81q-1 32 13.5 75t40.5 88.5t62 90t77.5 79t87.5 56t93 21.5q35 0 61.5 -16.5t50.5 -42t48 -54.5 t54 -54.5t69 -42t92 -16.5q30 0 58.5 6t52.5 15.5t41 22.5t23 28q-18 114 -32.5 219.5t-27 210.5t-25 214t-26.5 231q-2 14 4 24l26 52t27 53q4 8 8 7.5t6 -7.5q5 -17 7.5 -49.5t9.5 -83.5q31 -248 56 -453.5t58 -373.5q11 -58 30 -97.5t50 -64t74.5 -35.5t103.5 -11h18 q32 0 48 -24.5t16 -54t-16 -54t-48 -24.5h-18q-63 0 -112.5 16.5t-87.5 45.5t-66 69.5t-47 88.5q-34 -68 -94 -99t-127 -31q-58 0 -103 17.5t-80.5 43.5t-63.5 57t-52.5 57t-47.5 43.5t-48 17.5t-54.5 -11t-59.5 -29t-58 -40.5t-49.5 -45.5t-34.5 -44t-13 -36 q0 -25 16.5 -45.5t43.5 -36.5t62 -28t72.5 -21t74 -14.5t67.5 -8.5q22 -2 45.5 -6t42.5 -13.5t31 -25.5t12 -42z" />
<glyph unicode="&#xfee3;&#xfef2;" horiz-adv-x="2252" d="M1310 72q0 -72 -34 -129t-88 -100q-62 -50 -131 -89t-147.5 -65.5t-168.5 -39.5t-194 -10q-92 3 -174.5 30.5t-144.5 79.5t-98 128.5t-36 177.5q0 103 33 195t94 180q4 6 9 6t9 -3.5t5.5 -9t-1.5 -11.5q-23 -44 -41 -91t-28.5 -94.5t-10.5 -94t13 -89.5q21 -69 63 -116 t96.5 -75.5t116.5 -40.5t123 -12q99 0 183.5 9t158 28.5t140 51t129.5 75.5q24 17 32 28t8 13q0 10 -20 16t-52 11t-73 10.5t-83.5 15t-83.5 24.5t-73.5 38.5t-52 57.5t-20.5 81q-1 32 13 75t39.5 88.5t61 90t77 79t87.5 56t92 21.5q34 0 65.5 -16t63 -40t62.5 -52t64.5 -52 t69.5 -40t77 -16q54 0 92.5 19t67.5 74q28 54 50 108t56 106q12 18 30.5 41t40.5 43.5t45.5 34t46.5 12.5q25 -1 49 -18t45.5 -44t39 -60.5t30.5 -67.5t19.5 -65.5t5.5 -54.5q-2 -21 -6 -44.5t-12.5 -44.5t-22 -38.5t-33.5 -26.5q-23 -8 -62 -5.5t-85.5 14t-95 32 t-90.5 49.5q-13 -26 -34.5 -64t-49.5 -73t-61.5 -60t-70.5 -25q-50 0 -93.5 16.5t-82.5 41.5t-73.5 54.5t-65.5 54.5t-59 41.5t-53 16.5q-37 0 -83 -24t-86.5 -57t-68 -68t-27.5 -57q0 -25 16.5 -45.5t43.5 -36.5t62 -28t72.5 -21t74 -14.5t67.5 -8.5q22 -2 45.5 -6 t42.5 -13.5t31 -25.5t12 -42zM2058 575q2 3 -3.5 16.5t-13.5 29.5t-16 30.5t-11 19.5q-9 12 -19.5 24.5t-22.5 22t-27 15.5t-33 5q-16 -1 -31.5 -9t-28.5 -20t-23 -26.5t-15 -29.5q51 -43 114 -60.5t130 -17.5z" />
<glyph unicode="&#xfee4;&#xfef2;" horiz-adv-x="2223" d="M1988 58q-4 -10 -9 -22t-10 -22.5t-10 -18.5t-10 -10q-22 -4 -53 -1.5t-65 11t-68 22.5t-61 33t-44 42t-18 49q-16 -26 -35 -48t-42.5 -39t-52 -26.5t-62.5 -9.5q-50 0 -93.5 20.5t-81 51.5t-70 67.5t-60.5 67.5t-52 51.5t-44 20.5q-15 0 -38.5 -12.5t-51 -32t-55.5 -44 t-50.5 -49t-36.5 -46.5t-14 -37q0 -25 17.5 -44.5t46 -34.5t65.5 -26t76 -18.5t77 -12.5t69 -8q22 -2 45.5 -8.5t42.5 -18.5t31 -30.5t12 -44.5q0 -72 -34 -129t-88 -100q-62 -50 -140.5 -88t-164 -64t-172 -38t-164.5 -9q-92 3 -174.5 30.5t-144.5 79.5t-98 128.5 t-36 177.5q0 103 33 195t94 180q4 6 9 6t9 -3.5t5.5 -9t-1.5 -11.5q-22 -44 -40 -91.5t-28.5 -94.5t-11 -93.5t12.5 -89.5q21 -69 63 -116t96.5 -75.5t116.5 -40.5t123 -12q78 0 160 8.5t161.5 27t153 49t136.5 74.5q24 17 32 28t8 13q0 10 -20.5 16.5t-53.5 12t-75.5 11.5 t-86.5 16t-86.5 25t-75.5 39t-53.5 58t-21.5 81q-1 32 11.5 76t35.5 91.5t55 93.5t70.5 82.5t81.5 59t88 22.5q37 0 69.5 -20t63 -50t61 -65.5t63 -65.5t69 -50t80.5 -20q29 0 52 4.5t44 16t42.5 31.5t47.5 50q17 20 36 42.5t38 41t38 31t37 12.5q19 0 41.5 -18t45 -42.5 t43 -49.5t34.5 -38q28 -27 56.5 -46t58.5 -30.5t63.5 -16.5t71.5 -5h18q31 0 47 -24.5t16 -54.5t-16 -54.5t-47 -24.5h-18q-82 0 -137.5 16t-97.5 42zM1707 228q24 -16 50 -29.5t50 -24t45.5 -16.5t36.5 -7q4 0 6.5 1.5t-2.5 7.5q-16 19 -28.5 39.5t-21.5 38.5t-15 32 t-10 22q-10 18 -26 15q-18 -4 -44 -21t-43 -40q-5 -7 -5.5 -10t7.5 -8z" />
<glyph unicode="&#xfeeb;&#xfef2;" horiz-adv-x="2375" d="M1309 56q0 -72 -34 -129t-88 -100q-62 -50 -131 -89t-147.5 -65.5t-168.5 -39.5t-194 -10q-92 3 -174.5 30.5t-144.5 79.5t-98 128.5t-36 177.5q0 103 33 195t94 180q4 6 9 6t9 -3.5t5.5 -9t-1.5 -11.5q-23 -44 -41 -91t-28.5 -94.5t-10.5 -94t13 -89.5q21 -69 63 -116 t96.5 -75.5t116.5 -40.5t123 -12q99 0 183.5 9t158 28.5t140 51t129.5 75.5q24 17 32 28t8 13q0 10 -20 16t-52 11t-73 10.5t-83.5 15t-83.5 24.5t-73.5 38.5t-52 57.5t-20.5 81q-1 32 13 75t39.5 88.5t61 90t77 79t87 56t92.5 21.5q36 0 67 -17.5t60.5 -43.5t59 -57t63 -57 t73 -43.5t88.5 -17.5q29 0 61.5 5t61.5 18q-34 42 -33.5 98.5t21.5 113.5t54 108t65 81q-9 8 -15.5 14t-14.5 15q-4 5 -5.5 7.5t0.5 8.5q5 22 8.5 39.5t6.5 33t7 30t10 31.5t22.5 21.5t29.5 -4.5q38 -24 87 -57t100.5 -72t101 -83.5t89 -92t65 -97.5t28.5 -100 q3 -33 -1.5 -67.5t-17.5 -65.5t-34.5 -57t-52.5 -43q-23 -13 -40.5 -14.5t-39.5 3.5q-51 14 -118.5 34.5t-133.5 42.5q-75 -60 -150 -84t-151 -24q-63 0 -114 18t-92.5 45t-75.5 59t-63 59t-55 45t-52 18q-37 0 -83 -24t-86.5 -57t-68 -68t-27.5 -57q0 -25 16.5 -45.5 t43.5 -36.5t62 -28t72.5 -21t74 -14.5t67.5 -8.5q22 -2 45.5 -6t42.5 -13.5t31 -25.5t12 -42zM1844 524q13 3 32 12.5t37 21t31.5 23t14.5 19.5q3 20 -7.5 46.5t-27.5 50.5t-38 41.5t-40 19.5q-17 -2 -39 -14.5t-42 -32t-35 -44t-18 -49.5q-2 -17 13 -32.5t37 -28t45 -21.5 t37 -12zM2230 452q2 17 -8 39.5t-27.5 46.5t-40 48.5t-45.5 46.5t-44 41t-35 31q-6 6 -9 3.5t-3 -9.5q6 -55 -4 -107t-36 -92q-9 -7 0 -10q22 -9 51.5 -19.5t61 -18.5t62.5 -12.5t55 -1.5q21 4 22 14z" />
<glyph unicode="&#xfeec;&#xfef2;" horiz-adv-x="2357" d="M1305 56q0 -67 -34 -126.5t-88 -102.5q-62 -50 -131 -89t-147.5 -65.5t-168.5 -39.5t-194 -10q-92 3 -174.5 30.5t-144.5 79.5t-98 128.5t-36 177.5q0 103 33 195t94 180q4 6 9 6t9 -3.5t5.5 -9t-1.5 -11.5q-23 -44 -41 -91t-28.5 -94.5t-10.5 -94t13 -89.5 q21 -69 63 -116t96.5 -75.5t116.5 -40.5t123 -12q99 0 183.5 9t158 28.5t140 51t129.5 75.5q24 17 32 28t8 13q0 10 -20 16t-52 11t-73 10.5t-83.5 15t-83.5 24.5t-73.5 38.5t-52 57.5t-20.5 81q-1 32 13 75t39.5 88.5t61 90t77 79t87 56t92.5 21.5q36 0 67 -17.5 t60.5 -43.5t59 -57t63 -57t73 -43.5t88.5 -17.5q29 0 61.5 5t61.5 18q-34 42 -33.5 98.5t21.5 113.5t54 108t65 81q-9 8 -15.5 14t-14.5 15q-4 5 -5.5 7.5t0.5 8.5q5 22 8.5 39.5t6.5 33t7 30t10 31.5t22.5 21.5t29.5 -4.5q38 -24 87 -57t100.5 -72t101 -83.5t89 -92 t65 -97.5t28.5 -100q3 -33 -1.5 -67.5t-17.5 -65.5t-34.5 -57t-52.5 -43q-23 -13 -40.5 -14.5t-39.5 3.5q0 -45 23 -71t59 -39.5t80.5 -17.5t86.5 -4h18q30 0 45 -24.5t15 -54.5t-15 -54.5t-45 -24.5h-18q-77 0 -138 14.5t-102 50t-61 95t-15 149.5q-43 13 -91 27.5 t-94 30.5q-75 -60 -150 -84t-151 -24q-63 0 -114 18t-92.5 45t-75.5 59t-63 59t-55 45t-52 18q-37 0 -83 -24t-86.5 -57t-68 -68t-27.5 -57q0 -25 16.5 -45.5t43.5 -36.5t62 -28t72.5 -21t74 -14.5t67.5 -8.5q22 -2 45.5 -6t42.5 -13.5t31 -25.5t12 -42zM1840 524 q13 3 32 12.5t37 21t31.5 23t14.5 19.5q3 20 -7.5 46.5t-27.5 50.5t-38 41.5t-40 19.5q-17 -2 -39 -14.5t-42 -32t-35 -44t-18 -49.5q-2 -17 13 -32.5t37 -28t45 -21.5t37 -12zM2226 452q2 17 -8 39.5t-27.5 46.5t-40 48.5t-45.5 46.5t-44 41t-35 31q-6 6 -9 3.5t-3 -9.5 q6 -55 -4 -107t-36 -92q-9 -7 0 -10q22 -9 51.5 -19.5t61 -18.5t62.5 -12.5t55 -1.5q21 4 22 14z" />
<glyph unicode="&#xfe92;&#xfeae;" horiz-adv-x="1305" d="M969 -70l124 -103q5 -4 5 -7t-4 -8l-83 -104q-8 -8 -17 -1l-124 102q-7 6 0 16l84 103q6 8 15 2zM512 340q0 6 4 8t14 -6q24 -18 46 -31.5t57 -13.5q66 0 124.5 22.5t105.5 63.5t79 98.5t44 126.5q4 23 16.5 26t16.5 -22q9 -57 22 -125.5t29 -128.5q24 -92 80 -146 t155 -54h19q31 0 47 -24.5t16 -54.5t-16 -54.5t-47 -24.5h-19q-274 0 -327 395q-17 -47 -48 -90t-70.5 -76.5t-85 -54.5t-90.5 -24q-6 -66 -18.5 -136t-31 -136t-43.5 -124.5t-56 -101.5q-25 -35 -59 -65.5t-74 -54.5t-84.5 -40t-90.5 -20q-106 -8 -188 2.5t-157 33.5 q-21 6 -26 14t-0.5 15.5t15.5 12t23 3.5q109 -10 208.5 12.5t187.5 64.5q72 34 127.5 87.5t95.5 121t66.5 146t41.5 162.5q-34 5 -62 14t-45 21q-10 7 -12.5 14t-1.5 21q2 33 5 64.5t7 58.5z" />
<glyph unicode="&#xfe98;&#xfeae;" horiz-adv-x="1305" d="M512 340q0 6 4 8t14 -6q24 -18 46 -31.5t57 -13.5q66 0 124.5 22.5t105.5 63.5t79 98.5t44 126.5q4 23 16.5 26t16.5 -22q9 -57 22 -125.5t29 -128.5q24 -92 80 -146t155 -54h19q31 0 47 -24.5t16 -54.5t-16 -54.5t-47 -24.5h-19q-274 0 -327 395q-17 -47 -48 -90 t-70.5 -76.5t-85 -54.5t-90.5 -24q-6 -66 -18.5 -136t-31 -136t-43.5 -124.5t-56 -101.5q-25 -35 -59 -65.5t-74 -54.5t-84.5 -40t-90.5 -20q-106 -8 -188 2.5t-157 33.5q-21 6 -26 14t-0.5 15.5t15.5 12t23 3.5q109 -10 208.5 12.5t187.5 64.5q72 34 127.5 87.5t95.5 121 t66.5 146t41.5 162.5q-34 5 -62 14t-45 21q-10 7 -12.5 14t-1.5 21q2 33 5 64.5t7 58.5zM1093 810q-7 -10 -19 -1l-120 93l-77 -106q-4 -5 -8.5 -5.5t-7.5 1.5l-128 98q-4 3 -5 5t3 7l80 115q6 10 15 4l121 -92l82 105q4 5 6 5.5t6 -2.5l128 -106q5 -6 0 -14z" />
<glyph unicode="&#xfe9c;&#xfeae;" horiz-adv-x="1305" d="M512 340q0 6 4 8t14 -6q24 -18 46 -31.5t57 -13.5q66 0 124.5 22.5t105.5 63.5t79 98.5t44 126.5q4 23 16.5 26t16.5 -22q9 -57 22 -125.5t29 -128.5q24 -92 80 -146t155 -54h19q31 0 47 -24.5t16 -54.5t-16 -54.5t-47 -24.5h-19q-274 0 -327 395q-17 -47 -48 -90 t-70.5 -76.5t-85 -54.5t-90.5 -24q-6 -66 -18.5 -136t-31 -136t-43.5 -124.5t-56 -101.5q-25 -35 -59 -65.5t-74 -54.5t-84.5 -40t-90.5 -20q-106 -8 -188 2.5t-157 33.5q-21 6 -26 14t-0.5 15.5t15.5 12t23 3.5q109 -10 208.5 12.5t187.5 64.5q72 34 127.5 87.5t95.5 121 t66.5 146t41.5 162.5q-34 5 -62 14t-45 21q-10 7 -12.5 14t-1.5 21q2 33 5 64.5t7 58.5zM1104 801q-6 -6 -10 -5t-9 4l-118 92l-76 -105q-4 -5 -8.5 -5.5t-7.5 1.5l-126 97q-4 3 -5 5t3 7l79 113q3 4 7 5.5t8 -1.5l119 -91l81 104q4 5 5.5 6t6.5 -3l126 -105q8 -5 0 -14z M914 1223l123 -101q5 -4 4 -8t-3 -7l-82 -102q-6 -9 -17 -1l-123 100q-7 6 0 16l83 101q6 8 15 2z" />
<glyph unicode="&#xfee8;&#xfeae;" horiz-adv-x="1305" d="M931 1059l124 -103q5 -4 5 -7t-4 -8l-83 -104q-8 -8 -17 -1l-124 102q-7 6 0 16l84 103q6 8 15 2zM512 340q0 6 4 8t14 -6q24 -18 46 -31.5t57 -13.5q66 0 124.5 22.5t105.5 63.5t79 98.5t44 126.5q4 23 16.5 26t16.5 -22q9 -57 22 -125.5t29 -128.5q24 -92 80 -146 t155 -54h19q31 0 47 -24.5t16 -54.5t-16 -54.5t-47 -24.5h-19q-274 0 -327 395q-17 -47 -48 -90t-70.5 -76.5t-85 -54.5t-90.5 -24q-6 -66 -18.5 -136t-31 -136t-43.5 -124.5t-56 -101.5q-25 -35 -59 -65.5t-74 -54.5t-84.5 -40t-90.5 -20q-106 -8 -188 2.5t-157 33.5 q-21 6 -26 14t-0.5 15.5t15.5 12t23 3.5q109 -10 208.5 12.5t187.5 64.5q72 34 127.5 87.5t95.5 121t66.5 146t41.5 162.5q-34 5 -62 14t-45 21q-10 7 -12.5 14t-1.5 21q2 33 5 64.5t7 58.5z" />
<glyph unicode="&#xfef4;&#xfeae;" horiz-adv-x="1305" d="M512 340q0 6 4 8t14 -6q24 -18 46 -31.5t57 -13.5q66 0 124.5 22.5t105.5 63.5t79 98.5t44 126.5q4 23 16.5 26t16.5 -22q9 -57 22 -125.5t29 -128.5q24 -92 80 -146t155 -54h19q31 0 47 -24.5t16 -54.5t-16 -54.5t-47 -24.5h-19q-274 0 -327 395q-17 -47 -48 -90 t-70.5 -76.5t-85 -54.5t-90.5 -24q-6 -66 -18.5 -136t-31 -136t-43.5 -124.5t-56 -101.5q-25 -35 -59 -65.5t-74 -54.5t-84.5 -40t-90.5 -20q-106 -8 -188 2.5t-157 33.5q-21 6 -26 14t-0.5 15.5t15.5 12t23 3.5q109 -10 208.5 12.5t187.5 64.5q72 34 127.5 87.5t95.5 121 t66.5 146t41.5 162.5q-34 5 -62 14t-45 21q-10 7 -12.5 14t-1.5 21q2 33 5 64.5t7 58.5zM1120 -331q-7 -10 -19 -1l-120 93l-77 -106q-4 -5 -8.5 -5.5t-7.5 1.5l-128 98q-4 3 -5 5t3 7l80 115q6 10 15 4l121 -92l82 105q4 5 6 5.5t6 -2.5l128 -106q5 -6 0 -14z" />
<glyph unicode="&#xfe8c;&#xfeae;" horiz-adv-x="1305" d="M512 340q0 6 4 8t14 -6q24 -18 46 -31.5t57 -13.5q66 0 124.5 22.5t105.5 63.5t79 98.5t44 126.5q4 23 16.5 26t16.5 -22q9 -57 22 -125.5t29 -128.5q24 -92 80 -146t155 -54h19q31 0 47 -24.5t16 -54.5t-16 -54.5t-47 -24.5h-19q-274 0 -327 395q-17 -47 -48 -90 t-70.5 -76.5t-85 -54.5t-90.5 -24q-6 -66 -18.5 -136t-31 -136t-43.5 -124.5t-56 -101.5q-25 -35 -59 -65.5t-74 -54.5t-84.5 -40t-90.5 -20q-106 -8 -188 2.5t-157 33.5q-21 6 -26 14t-0.5 15.5t15.5 12t23 3.5q109 -10 208.5 12.5t187.5 64.5q72 34 127.5 87.5t95.5 121 t66.5 146t41.5 162.5q-34 5 -62 14t-45 21q-10 7 -12.5 14t-1.5 21q2 33 5 64.5t7 58.5zM794 844q7 4 18.5 9.5t23.5 12t23 13t19 12.5q-22 19 -39 40.5t-31 49.5q-6 13 -3.5 33.5t12.5 36.5q6 10 24 31.5t44 43t57.5 38t64.5 16.5q11 0 22 -7.5t19.5 -18t14.5 -22.5t8 -22 q6 -23 0 -39q-17 -36 -27 -45t-18 -10q-5 0 -8 5t-5 12t-3.5 14t-2.5 10q-5 11 -18 19t-27 8q-47 0 -88 -35q14 -37 44.5 -67t70.5 -36q51 -6 98 3.5t98 21.5q0 -2 -4 -17.5t-10 -33t-12.5 -31.5t-10.5 -14q-42 -4 -85 -12.5t-91 -22.5q-51 -14 -101 -38t-95 -46 q-13 -4 -15 8q6 21 15.5 42.5t17.5 37.5z" />
<glyph unicode="&#xfe92;&#xfeb0;" horiz-adv-x="1305" d="M383 772l124 -103q5 -4 5 -7t-4 -8l-83 -104q-8 -8 -17 -1l-124 102q-7 6 0 16l84 103q6 8 15 2zM954 -70l124 -103q5 -4 5 -7t-4 -8l-83 -104q-8 -8 -17 -1l-124 102q-7 6 0 16l84 103q6 8 15 2zM512 340q0 6 4 8t14 -6q24 -18 46 -31.5t57 -13.5q66 0 124.5 22.5 t105.5 63.5t79 98.5t44 126.5q4 23 16.5 26t16.5 -22q9 -57 22 -125.5t29 -128.5q24 -92 80 -146t155 -54h19q31 0 47 -24.5t16 -54.5t-16 -54.5t-47 -24.5h-19q-274 0 -327 395q-17 -47 -48 -90t-70.5 -76.5t-85 -54.5t-90.5 -24q-6 -66 -18.5 -136t-31 -136t-43.5 -124.5 t-56 -101.5q-25 -35 -59 -65.5t-74 -54.5t-84.5 -40t-90.5 -20q-106 -8 -188 2.5t-157 33.5q-21 6 -26 14t-0.5 15.5t15.5 12t23 3.5q109 -10 208.5 12.5t187.5 64.5q72 34 127.5 87.5t95.5 121t66.5 146t41.5 162.5q-34 5 -62 14t-45 21q-10 7 -12.5 14t-1.5 21 q2 33 5 64.5t7 58.5z" />
<glyph unicode="&#xfe98;&#xfeb0;" horiz-adv-x="1305" d="M383 772l124 -103q5 -4 5 -7t-4 -8l-83 -104q-8 -8 -17 -1l-124 102q-7 6 0 16l84 103q6 8 15 2zM512 340q0 6 4 8t14 -6q24 -18 46 -31.5t57 -13.5q66 0 124.5 22.5t105.5 63.5t79 98.5t44 126.5q4 23 16.5 26t16.5 -22q9 -57 22 -125.5t29 -128.5q24 -92 80 -146 t155 -54h19q31 0 47 -24.5t16 -54.5t-16 -54.5t-47 -24.5h-19q-274 0 -327 395q-17 -47 -48 -90t-70.5 -76.5t-85 -54.5t-90.5 -24q-6 -66 -18.5 -136t-31 -136t-43.5 -124.5t-56 -101.5q-25 -35 -59 -65.5t-74 -54.5t-84.5 -40t-90.5 -20q-106 -8 -188 2.5t-157 33.5 q-21 6 -26 14t-0.5 15.5t15.5 12t23 3.5q109 -10 208.5 12.5t187.5 64.5q72 34 127.5 87.5t95.5 121t66.5 146t41.5 162.5q-34 5 -62 14t-45 21q-10 7 -12.5 14t-1.5 21q2 33 5 64.5t7 58.5zM1108 810q-7 -10 -19 -1l-120 93l-77 -106q-4 -5 -8.5 -5.5t-7.5 1.5l-128 98 q-4 3 -5 5t3 7l80 115q6 10 15 4l121 -92l82 105q4 5 6 5.5t6 -2.5l128 -106q5 -6 0 -14z" />
<glyph unicode="&#xfe9c;&#xfeb0;" horiz-adv-x="1305" d="M383 772l124 -103q5 -4 5 -7t-4 -8l-83 -104q-8 -8 -17 -1l-124 102q-7 6 0 16l84 103q6 8 15 2zM512 340q0 6 4 8t14 -6q24 -18 46 -31.5t57 -13.5q66 0 124.5 22.5t105.5 63.5t79 98.5t44 126.5q4 23 16.5 26t16.5 -22q9 -57 22 -125.5t29 -128.5q24 -92 80 -146 t155 -54h19q31 0 47 -24.5t16 -54.5t-16 -54.5t-47 -24.5h-19q-274 0 -327 395q-17 -47 -48 -90t-70.5 -76.5t-85 -54.5t-90.5 -24q-6 -66 -18.5 -136t-31 -136t-43.5 -124.5t-56 -101.5q-25 -35 -59 -65.5t-74 -54.5t-84.5 -40t-90.5 -20q-106 -8 -188 2.5t-157 33.5 q-21 6 -26 14t-0.5 15.5t15.5 12t23 3.5q109 -10 208.5 12.5t187.5 64.5q72 34 127.5 87.5t95.5 121t66.5 146t41.5 162.5q-34 5 -62 14t-45 21q-10 7 -12.5 14t-1.5 21q2 33 5 64.5t7 58.5zM1119 801q-6 -6 -10 -5t-9 4l-118 92l-76 -105q-4 -5 -8.5 -5.5t-7.5 1.5l-126 97 q-4 3 -5 5t3 7l79 113q3 4 7 5.5t8 -1.5l119 -91l81 104q4 5 5.5 6t6.5 -3l126 -105q8 -5 0 -14zM929 1223l123 -101q5 -4 4 -8t-3 -7l-82 -102q-6 -9 -17 -1l-123 100q-7 6 0 16l83 101q6 8 15 2z" />
<glyph unicode="&#xfee8;&#xfeb0;" horiz-adv-x="1305" d="M383 772l124 -103q5 -4 5 -7t-4 -8l-83 -104q-8 -8 -17 -1l-124 102q-7 6 0 16l84 103q6 8 15 2zM946 1059l124 -103q5 -4 5 -7t-4 -8l-83 -104q-8 -8 -17 -1l-124 102q-7 6 0 16l84 103q6 8 15 2zM512 340q0 6 4 8t14 -6q24 -18 46 -31.5t57 -13.5q66 0 124.5 22.5 t105.5 63.5t79 98.5t44 126.5q4 23 16.5 26t16.5 -22q9 -57 22 -125.5t29 -128.5q24 -92 80 -146t155 -54h19q31 0 47 -24.5t16 -54.5t-16 -54.5t-47 -24.5h-19q-274 0 -327 395q-17 -47 -48 -90t-70.5 -76.5t-85 -54.5t-90.5 -24q-6 -66 -18.5 -136t-31 -136t-43.5 -124.5 t-56 -101.5q-25 -35 -59 -65.5t-74 -54.5t-84.5 -40t-90.5 -20q-106 -8 -188 2.5t-157 33.5q-21 6 -26 14t-0.5 15.5t15.5 12t23 3.5q109 -10 208.5 12.5t187.5 64.5q72 34 127.5 87.5t95.5 121t66.5 146t41.5 162.5q-34 5 -62 14t-45 21q-10 7 -12.5 14t-1.5 21 q2 33 5 64.5t7 58.5z" />
<glyph unicode="&#xfef4;&#xfeb0;" horiz-adv-x="1305" d="M383 772l124 -103q5 -4 5 -7t-4 -8l-83 -104q-8 -8 -17 -1l-124 102q-7 6 0 16l84 103q6 8 15 2zM512 340q0 6 4 8t14 -6q24 -18 46 -31.5t57 -13.5q66 0 124.5 22.5t105.5 63.5t79 98.5t44 126.5q4 23 16.5 26t16.5 -22q9 -57 22 -125.5t29 -128.5q24 -92 80 -146 t155 -54h19q31 0 47 -24.5t16 -54.5t-16 -54.5t-47 -24.5h-19q-274 0 -327 395q-17 -47 -48 -90t-70.5 -76.5t-85 -54.5t-90.5 -24q-6 -66 -18.5 -136t-31 -136t-43.5 -124.5t-56 -101.5q-25 -35 -59 -65.5t-74 -54.5t-84.5 -40t-90.5 -20q-106 -8 -188 2.5t-157 33.5 q-21 6 -26 14t-0.5 15.5t15.5 12t23 3.5q109 -10 208.5 12.5t187.5 64.5q72 34 127.5 87.5t95.5 121t66.5 146t41.5 162.5q-34 5 -62 14t-45 21q-10 7 -12.5 14t-1.5 21q2 33 5 64.5t7 58.5zM1130 -332q-7 -10 -19 -1l-120 93l-77 -106q-4 -5 -8.5 -5.5t-7.5 1.5l-128 98 q-4 3 -5 5t3 7l80 115q6 10 15 4l121 -92l82 105q4 5 6 5.5t6 -2.5l128 -106q5 -6 0 -14z" />
<glyph unicode="&#xfe8c;&#xfeb0;" horiz-adv-x="1305" d="M383 772l124 -103q5 -4 5 -7t-4 -8l-83 -104q-8 -8 -17 -1l-124 102q-7 6 0 16l84 103q6 8 15 2zM512 340q0 6 4 8t14 -6q24 -18 46 -31.5t57 -13.5q66 0 124.5 22.5t105.5 63.5t79 98.5t44 126.5q4 23 16.5 26t16.5 -22q9 -57 22 -125.5t29 -128.5q24 -92 80 -146 t155 -54h19q31 0 47 -24.5t16 -54.5t-16 -54.5t-47 -24.5h-19q-274 0 -327 395q-17 -47 -48 -90t-70.5 -76.5t-85 -54.5t-90.5 -24q-6 -66 -18.5 -136t-31 -136t-43.5 -124.5t-56 -101.5q-25 -35 -59 -65.5t-74 -54.5t-84.5 -40t-90.5 -20q-106 -8 -188 2.5t-157 33.5 q-21 6 -26 14t-0.5 15.5t15.5 12t23 3.5q109 -10 208.5 12.5t187.5 64.5q72 34 127.5 87.5t95.5 121t66.5 146t41.5 162.5q-34 5 -62 14t-45 21q-10 7 -12.5 14t-1.5 21q2 33 5 64.5t7 58.5zM809 844q7 4 18.5 9.5t23.5 12t23 13t19 12.5q-22 19 -39 40.5t-31 49.5 q-6 13 -3.5 33.5t12.5 36.5q6 10 24 31.5t44 43t57.5 38t64.5 16.5q11 0 22 -7.5t19.5 -18t14.5 -22.5t8 -22q6 -23 0 -39q-17 -36 -27 -45t-18 -10q-5 0 -8 5t-5 12t-3.5 14t-2.5 10q-5 11 -18 19t-27 8q-47 0 -88 -35q14 -37 44.5 -67t70.5 -36q51 -6 98 3.5t98 21.5 q0 -2 -4 -17.5t-10 -33t-12.5 -31.5t-10.5 -14q-42 -4 -85 -12.5t-91 -22.5q-51 -14 -101 -38t-95 -46q-13 -4 -15 8q6 21 15.5 42.5t17.5 37.5z" />
<glyph unicode="&#xfe92;&#xfee6;" horiz-adv-x="1567" d="M1231 -45l124 -103q5 -4 5 -7t-4 -8l-83 -104q-8 -8 -17 -1l-124 102q-7 6 0 16l84 103q6 8 15 2zM874 530q5 11 9 10t10 -10q12 -18 24.5 -36.5t25.5 -34.5t25.5 -26.5t24.5 -12.5q46 -4 89.5 5.5t80.5 34t65.5 63.5t45.5 95q6 23 18.5 25t14.5 -20q8 -97 18 -182 t35.5 -148.5t74 -100t132.5 -36.5h16q22 0 36.5 -12t22 -29.5t7.5 -38t-7.5 -38t-22 -28.5t-36.5 -10h-16q-81 0 -137 32t-92 88t-55 131.5t-26 162.5q-15 -29 -39.5 -54t-55.5 -45t-66 -33.5t-70 -17.5q6 -54 6 -117t-8 -120q-10 -68 -39 -122.5t-72 -96.5t-97 -72.5 t-114 -50t-123 -28.5t-124 -9q-85 0 -155.5 25t-121 72.5t-78.5 116t-28 154.5q0 97 29.5 180.5t84.5 161.5q6 10 10.5 9.5t7 -5.5t4 -11.5t1.5 -8.5q-49 -94 -60.5 -188t17.5 -172q28 -78 102.5 -127.5t198.5 -49.5q69 0 140 10.5t137 34.5t123 64t98 100q3 46 -7.5 95.5 t-29.5 98t-45 95.5t-54 88z" />
<glyph unicode="&#xfe98;&#xfee6;" horiz-adv-x="1567" d="M874 530q5 11 9 10t10 -10q12 -18 24.5 -36.5t25.5 -34.5t25.5 -26.5t24.5 -12.5q46 -4 89.5 5.5t80.5 34t65.5 63.5t45.5 95q6 23 18.5 25t14.5 -20q8 -97 18 -182t35.5 -148.5t74 -100t132.5 -36.5h16q22 0 36.5 -12t22 -29.5t7.5 -38t-7.5 -38t-22 -28.5t-36.5 -10 h-16q-81 0 -137 32t-92 88t-55 131.5t-26 162.5q-15 -29 -39.5 -54t-55.5 -45t-66 -33.5t-70 -17.5q6 -54 6 -117t-8 -120q-10 -68 -39 -122.5t-72 -96.5t-97 -72.5t-114 -50t-123 -28.5t-124 -9q-85 0 -155.5 25t-121 72.5t-78.5 116t-28 154.5q0 97 29.5 180.5t84.5 161.5 q6 10 10.5 9.5t7 -5.5t4 -11.5t1.5 -8.5q-49 -94 -60.5 -188t17.5 -172q28 -78 102.5 -127.5t198.5 -49.5q69 0 140 10.5t137 34.5t123 64t98 100q3 46 -7.5 95.5t-29.5 98t-45 95.5t-54 88zM1385 822q-7 -10 -19 -1l-120 93l-77 -106q-4 -5 -8.5 -5.5t-7.5 1.5l-128 98 q-4 3 -5 5t3 7l80 115q6 10 15 4l121 -92l82 105q4 5 6 5.5t6 -2.5l128 -106q5 -6 0 -14z" />
<glyph unicode="&#xfe9c;&#xfee6;" horiz-adv-x="1567" d="M874 530q5 11 9 10t10 -10q12 -18 24.5 -36.5t25.5 -34.5t25.5 -26.5t24.5 -12.5q46 -4 89.5 5.5t80.5 34t65.5 63.5t45.5 95q6 23 18.5 25t14.5 -20q8 -97 18 -182t35.5 -148.5t74 -100t132.5 -36.5h16q22 0 36.5 -12t22 -29.5t7.5 -38t-7.5 -38t-22 -28.5t-36.5 -10 h-16q-81 0 -137 32t-92 88t-55 131.5t-26 162.5q-15 -29 -39.5 -54t-55.5 -45t-66 -33.5t-70 -17.5q6 -54 6 -117t-8 -120q-10 -68 -39 -122.5t-72 -96.5t-97 -72.5t-114 -50t-123 -28.5t-124 -9q-85 0 -155.5 25t-121 72.5t-78.5 116t-28 154.5q0 97 29.5 180.5t84.5 161.5 q6 10 10.5 9.5t7 -5.5t4 -11.5t1.5 -8.5q-49 -94 -60.5 -188t17.5 -172q28 -78 102.5 -127.5t198.5 -49.5q69 0 140 10.5t137 34.5t123 64t98 100q3 46 -7.5 95.5t-29.5 98t-45 95.5t-54 88zM1384 822q-6 -6 -10 -5t-9 4l-118 92l-76 -105q-4 -5 -8.5 -5.5t-7.5 1.5l-126 97 q-4 3 -5 5t3 7l79 113q3 4 7 5.5t8 -1.5l119 -91l81 104q4 5 5.5 6t6.5 -3l126 -105q8 -5 0 -14zM1194 1244l123 -101q5 -4 4 -8t-3 -7l-82 -102q-6 -9 -17 -1l-123 100q-7 6 0 16l83 101q6 8 15 2z" />
<glyph unicode="&#xfee8;&#xfee6;" horiz-adv-x="1567" d="M1223 1082l124 -103q5 -4 5 -7t-4 -8l-83 -104q-8 -8 -17 -1l-124 102q-7 6 0 16l84 103q6 8 15 2zM874 530q5 11 9 10t10 -10q12 -18 24.5 -36.5t25.5 -34.5t25.5 -26.5t24.5 -12.5q46 -4 89.5 5.5t80.5 34t65.5 63.5t45.5 95q6 23 18.5 25t14.5 -20q8 -97 18 -182 t35.5 -148.5t74 -100t132.5 -36.5h16q22 0 36.5 -12t22 -29.5t7.5 -38t-7.5 -38t-22 -28.5t-36.5 -10h-16q-81 0 -137 32t-92 88t-55 131.5t-26 162.5q-15 -29 -39.5 -54t-55.5 -45t-66 -33.5t-70 -17.5q6 -54 6 -117t-8 -120q-10 -68 -39 -122.5t-72 -96.5t-97 -72.5 t-114 -50t-123 -28.5t-124 -9q-85 0 -155.5 25t-121 72.5t-78.5 116t-28 154.5q0 97 29.5 180.5t84.5 161.5q6 10 10.5 9.5t7 -5.5t4 -11.5t1.5 -8.5q-49 -94 -60.5 -188t17.5 -172q28 -78 102.5 -127.5t198.5 -49.5q69 0 140 10.5t137 34.5t123 64t98 100q3 46 -7.5 95.5 t-29.5 98t-45 95.5t-54 88z" />
<glyph unicode="&#xfef4;&#xfee6;" horiz-adv-x="1567" d="M874 530q5 11 9 10t10 -10q12 -18 24.5 -36.5t25.5 -34.5t25.5 -26.5t24.5 -12.5q46 -4 89.5 5.5t80.5 34t65.5 63.5t45.5 95q6 23 18.5 25t14.5 -20q8 -97 18 -182t35.5 -148.5t74 -100t132.5 -36.5h16q22 0 36.5 -12t22 -29.5t7.5 -38t-7.5 -38t-22 -28.5t-36.5 -10 h-16q-81 0 -137 32t-92 88t-55 131.5t-26 162.5q-15 -29 -39.5 -54t-55.5 -45t-66 -33.5t-70 -17.5q6 -54 6 -117t-8 -120q-10 -68 -39 -122.5t-72 -96.5t-97 -72.5t-114 -50t-123 -28.5t-124 -9q-85 0 -155.5 25t-121 72.5t-78.5 116t-28 154.5q0 97 29.5 180.5t84.5 161.5 q6 10 10.5 9.5t7 -5.5t4 -11.5t1.5 -8.5q-49 -94 -60.5 -188t17.5 -172q28 -78 102.5 -127.5t198.5 -49.5q69 0 140 10.5t137 34.5t123 64t98 100q3 46 -7.5 95.5t-29.5 98t-45 95.5t-54 88zM1429 -328q-7 -10 -19 -1l-120 93l-77 -106q-4 -5 -8.5 -5.5t-7.5 1.5l-128 98 q-4 3 -5 5t3 7l80 115q6 10 15 4l121 -92l82 105q4 5 6 5.5t6 -2.5l128 -106q5 -6 0 -14z" />
<glyph unicode="&#xfe8c;&#xfee6;" horiz-adv-x="1567" d="M874 530q5 11 9 10t10 -10q12 -18 24.5 -36.5t25.5 -34.5t25.5 -26.5t24.5 -12.5q46 -4 89.5 5.5t80.5 34t65.5 63.5t45.5 95q6 23 18.5 25t14.5 -20q8 -97 18 -182t35.5 -148.5t74 -100t132.5 -36.5h16q22 0 36.5 -12t22 -29.5t7.5 -38t-7.5 -38t-22 -28.5t-36.5 -10 h-16q-81 0 -137 32t-92 88t-55 131.5t-26 162.5q-15 -29 -39.5 -54t-55.5 -45t-66 -33.5t-70 -17.5q6 -54 6 -117t-8 -120q-10 -68 -39 -122.5t-72 -96.5t-97 -72.5t-114 -50t-123 -28.5t-124 -9q-85 0 -155.5 25t-121 72.5t-78.5 116t-28 154.5q0 97 29.5 180.5t84.5 161.5 q6 10 10.5 9.5t7 -5.5t4 -11.5t1.5 -8.5q-49 -94 -60.5 -188t17.5 -172q28 -78 102.5 -127.5t198.5 -49.5q69 0 140 10.5t137 34.5t123 64t98 100q3 46 -7.5 95.5t-29.5 98t-45 95.5t-54 88zM1085 836q7 4 18.5 9.5t23.5 12t23 13t19 12.5q-22 19 -39 40.5t-31 49.5 q-6 13 -3.5 33.5t12.5 36.5q6 10 24 31.5t44 43t57.5 38t64.5 16.5q11 0 22 -7.5t19.5 -18t14.5 -22.5t8 -22q6 -23 0 -39q-17 -36 -27 -45t-18 -10q-5 0 -8 5t-5 12t-3.5 14t-2.5 10q-5 11 -18 19t-27 8q-47 0 -88 -35q14 -37 44.5 -67t70.5 -36q51 -6 98 3.5t98 21.5 q0 -2 -4 -17.5t-10 -33t-12.5 -31.5t-10.5 -14q-42 -4 -85 -12.5t-91 -22.5q-51 -14 -101 -38t-95 -46q-13 -4 -15 8q6 21 15.5 42.5t17.5 37.5z" />
<glyph unicode="&#xfeb3;&#xfeae;" horiz-adv-x="1932" d="M564 221q118 22 226.5 53t219.5 76q2 2 5 -0.5t2 -7.5q-1 -23 -2 -40t-1 -37q0 -35 20.5 -58t53.5 -35.5t73.5 -15.5t81 1t76.5 14t59 24q48 29 78 73t59 111q4 10 11.5 15.5t14.5 5.5t11 -6t1 -19q-5 -26 -12 -48t-18 -52q6 -19 32.5 -40.5t63.5 -37t78.5 -20.5t77.5 10 q0 38 -4 72.5t-20 73.5q12 30 27.5 63.5t33.5 62.5q7 10 12 2q26 -70 26.5 -140.5t-15.5 -139.5q-4 -18 -13 -42t-23 -46.5t-32.5 -40t-42.5 -23.5q-37 -9 -75.5 -3.5t-74 21.5t-66.5 41.5t-52 55.5q-25 -42 -64 -71.5t-87 -47.5q-40 -15 -82.5 -20.5t-83 -0.5t-76 21 t-61.5 44q-21 23 -34 56.5t-16 65.5q-42 -16 -79.5 -29t-74.5 -24t-75.5 -21t-81.5 -20q-29 -213 -102 -373q-52 -115 -134.5 -175t-200.5 -76q-38 -5 -86 -4t-96.5 7t-93 15.5t-74.5 21.5q-21 8 -26.5 17t-1.5 16t15 11.5t23 3.5q85 -9 167.5 -2t161.5 39q67 28 127 78 t109.5 114.5t87.5 140t62 154.5l-44 -11q-2 -1 -5 1.5t-2 6.5q5 32 13 63t13 63q1 4 5 8z" />
<glyph unicode="&#xfeb7;&#xfeae;" horiz-adv-x="1935" d="M564 221q118 22 226.5 53t219.5 76q2 2 5 -0.5t2 -7.5q-1 -23 -2 -40t-1 -37q0 -35 20.5 -58t53.5 -35.5t73.5 -15.5t81 1t76.5 14t59 24q48 29 78 73t59 111q4 10 11.5 15.5t14.5 5.5t11 -6t1 -19q-5 -26 -12 -48t-18 -52q6 -19 32.5 -40.5t63.5 -37t78.5 -20.5t77.5 10 q0 38 -4 72.5t-20 73.5q12 30 27.5 63.5t33.5 62.5q7 10 12 2q26 -70 26.5 -140.5t-15.5 -139.5q-4 -18 -13 -42t-23 -46.5t-32.5 -40t-42.5 -23.5q-37 -9 -75.5 -3.5t-74 21.5t-66.5 41.5t-52 55.5q-25 -42 -64 -71.5t-87 -47.5q-40 -15 -82.5 -20.5t-83 -0.5t-76 21 t-61.5 44q-21 23 -34 56.5t-16 65.5q-42 -16 -79.5 -29t-74.5 -24t-75.5 -21t-81.5 -20q-29 -213 -102 -373q-52 -115 -134.5 -175t-200.5 -76q-38 -5 -86 -4t-96.5 7t-93 15.5t-74.5 21.5q-21 8 -26.5 17t-1.5 16t15 11.5t23 3.5q85 -9 167.5 -2t161.5 39q67 28 127 78 t109.5 114.5t87.5 140t62 154.5l-44 -11q-2 -1 -5 1.5t-2 6.5q5 32 13 63t13 63q1 4 5 8zM1584 573q-6 -6 -10 -5t-9 4l-118 92l-76 -105q-4 -5 -8.5 -5.5t-7.5 1.5l-126 97q-4 3 -5 5t3 7l79 113q3 4 7 5.5t8 -1.5l119 -91l81 104q4 5 5.5 6t6.5 -3l126 -105q8 -5 0 -14z M1394 995l123 -101q5 -4 4 -8t-3 -7l-82 -102q-6 -9 -17 -1l-123 100q-7 6 0 16l83 101q6 8 15 2z" />
</font>
</defs>
</svg>
