<?xml version="1.0" standalone="no"?>
<!DOCTYPE svg PUBLIC "-//W3C//DTD SVG 1.1//EN" "http://www.w3.org/Graphics/SVG/1.1/DTD/svg11.dtd" >
<svg xmlns="http://www.w3.org/2000/svg" xmlns:xlink="http://www.w3.org/1999/xlink" version="1.1">
<metadata></metadata>
<defs>
<font id="kfgqpc_uthman_taha_naskhRg" horiz-adv-x="946" >
<font-face units-per-em="2048" ascent="1638" descent="-410" />
<missing-glyph horiz-adv-x="401" />
<glyph horiz-adv-x="0" />
<glyph horiz-adv-x="682" />
<glyph unicode=" "  horiz-adv-x="401" />
<glyph unicode="&#x09;" horiz-adv-x="401" />
<glyph unicode="&#xa0;" horiz-adv-x="401" />
<glyph unicode="!" horiz-adv-x="449" d="M115 979q0 29 4 57.5t15 51.5t30.5 37t50.5 14t51 -14t31 -37t15 -51.5t4 -57.5t-2.5 -56t-4.5 -46q-5 -37 -10 -66t-10.5 -54.5t-10.5 -49.5t-10 -52t-9 -61t-8 -75.5t-6.5 -97.5t-4.5 -127h-50q-2 72 -5 126.5t-7 97.5t-8 76t-8 61q-5 28 -10.5 52t-10.5 49.5t-10 54.5 t-9 66q-2 19 -4.5 46t-2.5 56zM129 132q0 38 26 64t64 26q18 0 34.5 -7t29 -19t20 -28.5t7.5 -35.5t-7.5 -35.5t-20 -29t-29 -19.5t-34.5 -7q-38 0 -64 26.5t-26 64.5z" />
<glyph unicode="&#x22;" horiz-adv-x="498" d="M88 1236.5q-2 23.5 1.5 45.5t15 38t36.5 16q24 0 35.5 -16t15 -38t2 -45.5t-3.5 -38.5q-11 -81 -19.5 -153.5t-10.5 -154.5h-38q-3 82 -11.5 154.5t-18.5 153.5q-2 15 -4 38.5zM317.5 1236.5q-1.5 23.5 2.5 45.5t15.5 38t35.5 16q25 0 36.5 -16t15 -38t1.5 -45.5 t-3 -38.5q-11 -81 -20 -153.5t-11 -154.5h-38q-2 82 -11 154.5t-20 153.5q-2 15 -3.5 38.5z" />
<glyph unicode="#" horiz-adv-x="1368" d="M106 485v100h227l83 382h-310v100h330l87 401h97l-84 -401h406l85 401h98l-84 -401h212v-100h-233l-81 -382h314v-100h-336l-86 -401h-98l85 401h-407l-85 -401h-98l85 401h-207zM433 585h406l82 382h-405z" />
<glyph unicode="$" horiz-adv-x="963" d="M76 335q0 26 19 44t47 18t46.5 -21t35.5 -52t37.5 -66t54.5 -63v555q-45 30 -84.5 62t-69 67t-46.5 74.5t-17 84.5q0 52 17.5 95.5t47.5 79t69 61t83 41.5v145h72v-125q17 3 35 5t36 0q15 0 30.5 -1t32.5 -4v125h74v-142q43 -13 83.5 -33t71 -45t49 -53.5t18.5 -58.5 q0 -27 -21.5 -47.5t-49.5 -20.5q-25 0 -43.5 14t-35 36t-33.5 48.5t-39 50.5v-432q54 -32 103 -68.5t86.5 -78.5t59.5 -91t22 -106q0 -61 -21.5 -113.5t-58.5 -94.5t-86.5 -72.5t-104.5 -46.5v-188h-74v172q-11 -2 -21.5 -2h-21.5q-23 0 -45.5 2t-45.5 7v-179h-72v198 q-50 16 -93.5 40t-76 53t-51.5 61.5t-19 64.5zM226 1099q0 -42 24 -77t66 -68v295q-45 -24 -67.5 -63t-22.5 -87zM388 156q30 -10 76 -10q15 0 29.5 2t28.5 5v467q-32 20 -66 41.5t-68 41.5v-547zM388 901q32 -20 65.5 -39.5t68.5 -39.5v441q-32 15 -79 15q-14 0 -28 -0.5 t-27 -2.5v-374zM596 180q58 28 97 79.5t39 123.5q0 54 -38 98.5t-98 89.5v-391z" />
<glyph unicode="%" horiz-adv-x="1482" d="M261 -30l860 1534h146l-861 -1534h-145zM413 1327q0 -28 11 -54t29.5 -44.5t44.5 -29.5t54 -11q29 0 54.5 11t44 29.5t29.5 44.5t11 54q0 29 -11 54.5t-29.5 44t-44 29.5t-54.5 11q-28 0 -54 -11t-44.5 -29.5t-29.5 -44t-11 -54.5zM836 136q0 -28 11 -54t29.5 -44.5 t44.5 -29.5t54 -11q29 0 54.5 11t44 29.5t29.5 44.5t11 54q0 29 -11 54.5t-29.5 44t-44 29.5t-54.5 11q-28 0 -54 -11t-44.5 -29.5t-29.5 -44t-11 -54.5z" />
<glyph unicode="&#x26;" horiz-adv-x="1493" d="M78 416q0 70 21 135.5t60.5 120t96 94.5t127.5 60q-57 48 -84.5 105t-30.5 114q-3 51 13 98.5t49.5 86t83 64t113.5 32.5q57 7 106.5 -7t87 -44.5t59 -75t21.5 -98.5q0 -44 -16.5 -82t-44 -70t-64.5 -57t-78 -43q39 -26 79 -63.5t80 -82.5t79.5 -96t77.5 -105 q66 91 125 187.5t110 193.5q9 16 3.5 24.5t-20.5 11.5t-37.5 3h-47.5v52h348v-52q-29 0 -58.5 -1.5t-54.5 -5.5t-43.5 -12t-25.5 -20q-21 -45 -49 -98.5t-61.5 -110t-71.5 -114.5t-78 -113q14 -20 34.5 -58t46.5 -79t56.5 -77.5t64.5 -54.5q25 -13 49 -11t47 12.5t45.5 25.5 t43.5 27l24 -45q-30 -22 -72 -50.5t-90 -47t-97.5 -19t-94.5 34.5q-38 31 -75.5 86.5t-79.5 136.5q-40 -50 -83 -93t-88.5 -76t-94.5 -54t-101 -27q-84 -8 -158.5 15t-130.5 68.5t-88.5 111t-32.5 143.5zM262 475q0 -62 24 -113.5t66 -87.5t97.5 -53t118.5 -10 q40 4 80.5 26.5t75 50t60.5 54t37 39.5q-40 59 -78 109.5t-81.5 97.5t-94.5 92t-116 93q-49 -17 -84.5 -47t-59 -69t-34.5 -85.5t-11 -96.5zM404 1054q0 -38 10.5 -69t28.5 -52.5t42.5 -31.5t52.5 -5q27 4 51 23t42 47.5t28.5 64.5t10.5 75q0 38 -10.5 69.5t-28.5 53t-42 31 t-51 3.5q-28 -5 -52.5 -24t-42.5 -47.5t-28.5 -64t-10.5 -73.5z" />
<glyph unicode="'" horiz-adv-x="362" d="M80.5 1300q-3.5 31 3.5 60.5t29 51t70 22.5q48 -1 70 -22.5t29 -51t3.5 -60.5t-7.5 -52q-23 -102 -39 -204q-9 -52 -15.5 -102.5t-10.5 -102.5h-60q-3 52 -9.5 102.5t-16.5 102.5l-39 204q-4 21 -7.5 52z" />
<glyph unicode="(" horiz-adv-x="571" d="M90 244q-2 189 82 368.5t255 328.5l41 -30q-125 -155 -183.5 -323t-56.5 -347q2 -172 60.5 -334.5t179.5 -312.5l-41 -27q-170 146 -252.5 318.5t-84.5 358.5z" />
<glyph unicode=")" horiz-adv-x="543" d="M79 -406q121 150 179.5 312.5t60.5 334.5q2 179 -56.5 347t-183.5 323l41 30q171 -149 255 -328.5t82 -368.5q-2 -186 -84.5 -358.5t-252.5 -318.5z" />
<glyph unicode="*" horiz-adv-x="680" d="M27 1101q0 21 8.5 31.5t20.5 15t25 4t21 -2.5q36 -8 77.5 -17t79.5 -13q2 8 4.5 14t5.5 12q-29 26 -65 47.5t-66 41.5q-8 5 -17.5 14t-15 21t-4 25.5t16.5 27.5q14 15 27.5 16.5t25 -4t20 -15.5t13.5 -17q21 -32 43 -68t46 -65q8 3 14.5 6.5t13.5 3.5q-4 40 -13 80.5 t-17 78.5q-2 8 -2.5 21t3.5 25t14.5 20.5t30.5 8.5q21 0 31.5 -8.5t15 -20.5t4 -25t-2.5 -21q-8 -38 -17.5 -78.5t-11.5 -80.5q5 0 12 -3.5l13 -6.5q24 29 46.5 65l42.5 68q5 7 13.5 17t20 15.5t25.5 4t29 -16.5q14 -14 15 -27.5t-4.5 -25.5t-14.5 -21t-16 -14 q-32 -20 -67.5 -41.5t-65.5 -47.5q5 -6 7 -12t5 -14q37 4 78.5 13t76.5 17q9 2 22.5 2.5t25.5 -4t21 -15t9 -31.5q0 -20 -9 -30.5t-21 -14.5t-25.5 -4t-22.5 1q-35 9 -76.5 18t-78.5 14q-3 -8 -5 -14.5t-7 -11.5q30 -26 65.5 -48t67.5 -41q7 -6 16 -15t15 -20.5t4.5 -25 t-15.5 -27.5q-15 -15 -29 -16.5t-25.5 4t-20 15t-13.5 17.5q-20 32 -42.5 66.5t-46.5 66.5q-6 -5 -13 -7.5t-12 -4.5q2 -38 11.5 -79t17.5 -78q2 -8 2.5 -21t-4 -25t-15 -21t-31.5 -9q-20 0 -30.5 9t-14.5 21t-3.5 25t2.5 21q8 37 17 78t13 79q-13 3 -28 12 q-24 -32 -46 -66.5t-43 -66.5q-5 -8 -14 -17.5t-20 -15t-24.5 -4t-27.5 16.5q-15 14 -16.5 27.5t4 25t15 20.5t17.5 15q30 19 66 41t65 48q-7 10 -10 26q-38 -5 -79.5 -14t-77.5 -18q-8 -1 -21 -1t-25 4t-20.5 14.5t-8.5 30.5zM299 1101q0 -15 11 -26.5t27 -11.5 q17 0 28.5 11.5t11.5 26.5q0 17 -11.5 28.5t-28.5 11.5q-16 0 -27 -11.5t-11 -28.5z" />
<glyph unicode="+" horiz-adv-x="919" d="M86 433v102h318v316h100v-316h316v-102h-316v-316h-100v316h-318z" />
<glyph unicode="," horiz-adv-x="438" d="M107.5 142.5q2.5 23.5 15.5 45.5t34 36q32 18 68 12.5t62 -31.5q25 -26 37 -59.5t13.5 -70t-5.5 -73t-20 -67.5q-23 -45 -56 -81t-78 -59q-20 -11 -38 -15t-24 7q-5 7 3 16t21 19q26 17 51 42.5t43 55.5q17 31 24.5 64t-3.5 67q-28 -15 -58 -12t-52 19q-23 15 -31.5 38 t-6 46.5z" />
<glyph unicode="-" d="M96 441v102h751v-102h-751z" />
<glyph unicode="." horiz-adv-x="400" d="M82 136q0 51 27 72t79 21q54 0 80 -21t26 -72q0 -52 -26 -74t-80 -22q-52 0 -79 22t-27 74z" />
<glyph unicode="/" horiz-adv-x="613" d="M67 -350l379 1574h77l-380 -1574h-76z" />
<glyph unicode="0" horiz-adv-x="1065" d="M92 782q0 78 0.5 162t11 164t34.5 152.5t71 127.5t121 88t184 35q112 2 188 -29t125 -85.5t74.5 -127.5t36.5 -154.5t12.5 -167t1.5 -165.5q0 -79 -1.5 -163.5t-12.5 -166t-36.5 -154.5t-74.5 -127.5t-125 -86t-188 -29.5q-110 2 -184 35t-121 88t-71 127.5t-34.5 152.5 t-11 163.5t-0.5 160.5zM238 782q0 -51 0.5 -112.5t7 -124t22.5 -122t47 -105.5t80.5 -74t122.5 -29q74 -1 124 26t82 72.5t49 105t24.5 123t8.5 126t1 114.5q0 54 -1 117.5t-8.5 127t-24.5 122.5t-49 104.5t-82 72.5t-124 26q-73 -1 -122.5 -29t-80.5 -74.5t-47 -105.5 t-22.5 -122t-7 -125t-0.5 -114z" />
<glyph unicode="1" horiz-adv-x="772" d="M106 1319q61 25 119 65t110 87t96.5 96t78.5 92q9 -1 25 -1h33t32.5 0.5t24.5 0.5v-1583h-193v1239q-72 -54 -150 -98.5t-163 -73.5q-3 37 -6 86.5t-7 89.5z" />
<glyph unicode="2" horiz-adv-x="1277" d="M147 100v176q0 3 25.5 29t67 66.5t96 92t111.5 106t113.5 108t103.5 98.5t79.5 77t42.5 44q42 53 69 108.5t38 109.5t7 104.5t-23 93.5q-29 67 -77 103t-104.5 46t-117 -3.5t-114 -46.5t-96 -83t-63.5 -112q-34 17 -67.5 34.5t-65.5 34.5q18 93 65.5 163.5t113.5 117.5 t144.5 70.5t158 22t154.5 -27.5t134 -78t96 -129.5t41 -181.5q2 -80 -20.5 -157t-62.5 -150t-92.5 -141.5t-110 -130.5t-116 -117.5t-110.5 -102.5t-92.5 -85t-62.5 -66h718l-51 -193h-932z" />
<glyph unicode="3" horiz-adv-x="1117" d="M115 377l151 98q30 -76 86 -122.5t121.5 -64.5t131 -9.5t115 42t73.5 90.5t6 136q-11 47 -43 93.5t-83 81t-120 50.5t-154 2l-2 174q91 -15 162 1.5t122 51t81.5 81.5t40.5 94q16 78 -6.5 134.5t-68.5 89.5t-106.5 41.5t-121.5 -9.5t-113.5 -63t-81.5 -120l-158 94 q40 94 110.5 160t154 100t173 35.5t168.5 -33t139 -106t85 -182.5q14 -64 7.5 -130.5t-32.5 -127.5t-72 -112.5t-110 -84.5q67 -35 113 -86t72 -111.5t33 -126.5t-5 -130q-16 -86 -55 -149t-93.5 -104.5t-121 -61.5t-136 -19.5t-139.5 20t-131.5 58t-111.5 95t-80 130.5z " />
<glyph unicode="4" horiz-adv-x="1343" d="M113 467l47 178l671 1008h160v-996h228l-48 -190h-180v-391h-186v391h-692zM324 657h481v703z" />
<glyph unicode="5" horiz-adv-x="1235" d="M140 377l181 82q36 -67 93 -108.5t121.5 -57t131 -5t121 47.5t90.5 100.5t41 153.5q4 66 -10.5 121t-43 97.5t-69.5 71t-90 40.5q-50 10 -105 6.5t-106 -14.5t-94 -27.5t-68 -32.5l-174 -6l133 821h780l-59 -197h-582l-71 -421q84 58 175 74t177 -1.5t163 -65.5 t133 -118.5t86.5 -159.5t24.5 -188q-5 -99 -39.5 -182.5t-89 -148.5t-125.5 -109t-150 -64t-160.5 -14.5t-157.5 40.5t-142.5 100t-114.5 165z" />
<glyph unicode="6" horiz-adv-x="1240" d="M123 887q4 160 36 299t96.5 242t165 163t241.5 62q85 1 151 -18t117 -57t90.5 -93.5t71.5 -126.5l-146 -96q-21 50 -51.5 87t-67 61t-76 35.5t-77.5 10.5q-70 0 -123.5 -21.5t-93.5 -58.5t-67 -86t-43.5 -103.5t-23.5 -111.5t-7 -110q32 44 75 70t85 40t78 18.5t54 6.5 q127 2 221.5 -42t156 -118t90 -170.5t24.5 -200.5q-3 -95 -35.5 -184.5t-94 -159t-152.5 -111.5t-210 -42q-112 0 -192 35t-135 95.5t-87.5 141t-49.5 171t-20.5 186t-0.5 186.5zM307 584q3 -65 27.5 -119t64.5 -94t93.5 -62t115.5 -22q67 0 122 22t95 62t63 94t26 119 q4 87 -22 147.5t-70.5 98t-102 54t-115.5 15.5q-58 -2 -113 -19.5t-97.5 -55t-66.5 -96.5t-20 -144z" />
<glyph unicode="7" horiz-adv-x="1246" d="M131 1440l43 207l922 2l-21 -195q-53 -122 -115 -240t-124 -234t-120 -230t-104 -227.5t-75 -227t-33 -227.5h-209q4 119 35.5 242.5t79.5 246.5t108.5 243.5t122 233t119.5 215.5t102 191h-731z" />
<glyph unicode="8" horiz-adv-x="1153" d="M98 463q-4 59 8 118.5t40.5 113.5t73.5 99.5t108 77.5q-57 31 -94.5 70.5t-59 84t-30 93.5t-7.5 99q1 90 32.5 169t87.5 138t132.5 93t167.5 34q94 0 172.5 -35.5t135 -96.5t87.5 -143t29 -174q-2 -48 -11 -95.5t-30.5 -90.5t-57.5 -80.5t-91 -65.5q65 -34 111 -82 t73.5 -104t38 -116.5t4.5 -120.5q-11 -92 -54.5 -164t-108 -121.5t-143.5 -74.5t-161 -23q-82 1 -160.5 28t-141.5 78t-104 124.5t-47 166.5zM299 535q-5 -45 8 -96t44.5 -94t82.5 -72t123 -31q73 2 125.5 31t85.5 72t47 94t10 96q-3 49 -25.5 96t-59 84t-84 59.5 t-99.5 22.5q-51 0 -96 -22.5t-79.5 -59.5t-56.5 -84t-26 -96zM315 1210q3 -49 22.5 -96t51.5 -84t75 -59.5t93 -22.5q52 0 97 22.5t78.5 59.5t54 84t24.5 96q4 45 -7.5 92t-42 86t-81 65t-123.5 30q-72 -4 -121 -30t-77.5 -65t-38.5 -86t-5 -92z" />
<glyph unicode="9" horiz-adv-x="1240" d="M132 1157q3 95 35.5 184.5t94 159t152.5 111.5t210 42q111 0 191.5 -35t135.5 -95.5t87.5 -141t49 -171t20.5 -186t1 -186.5q-3 -107 -18 -204.5t-43.5 -182.5t-71 -154.5t-101.5 -119t-135 -77t-170 -28.5q-84 -2 -150.5 17.5t-118 57.5t-91 93.5t-70.5 126.5l146 96 q21 -50 51.5 -87t67 -61t76 -35.5t77.5 -10.5q70 0 123.5 21.5t93.5 58.5t67 86t43.5 103.5t23.5 111.5t7 110q-32 -44 -75 -70t-85 -40t-78 -19t-54 -6q-127 -2 -221.5 42t-156 118t-90.5 170.5t-24 200.5zM318 1142q-5 -87 21 -147.5t71 -98t102.5 -54t115.5 -15.5t113 19 t97.5 55.5t66.5 97t20 143.5q-3 64 -27.5 118.5t-64.5 94.5t-94 62t-115 22q-67 0 -122 -22t-95 -62t-63 -94.5t-26 -118.5z" />
<glyph unicode=":" horiz-adv-x="515" d="M154 142q0 21 8 39.5t22 32.5t32.5 22t39.5 8q22 0 41 -8t33 -22t22 -32.5t8 -39.5t-8 -39.5t-22 -32.5t-33 -22t-41 -8q-21 0 -39.5 8t-32.5 22t-22 32.5t-8 39.5zM154 712q0 21 8 39.5t22 32.5t32.5 22t39.5 8q22 0 41 -8t33 -22t22 -32.5t8 -39.5t-8 -39.5t-22 -32.5 t-33 -22t-41 -8q-21 0 -39.5 8t-32.5 22t-22 32.5t-8 39.5z" />
<glyph unicode=";" horiz-adv-x="532" d="M118 224q0 -28 13.5 -53.5t40.5 -40.5q28 -17 63 -17t66 21q16 -39 11.5 -78.5t-21.5 -76.5q-17 -36 -44 -68.5t-55 -56.5q-13 -13 -21 -23.5t-2 -17.5q8 -12 28.5 -5.5t42.5 20.5q48 32 83 78t55 100q12 37 16.5 80t-1.5 85t-23.5 80t-48.5 64q-33 28 -76 30t-79 -21 q-24 -18 -36 -45t-12 -55zM157 864q0 22 8.5 42t23.5 35t35 23.5t43 8.5t43.5 -8.5t35.5 -23.5t23.5 -35t8.5 -42q0 -23 -8.5 -43t-23.5 -35t-35.5 -23.5t-43.5 -8.5t-43 8.5t-35 23.5t-23.5 35t-8.5 43z" />
<glyph unicode="&#x3c;" horiz-adv-x="1366" d="M141 685v175l1046 453v-132l-938 -408l938 -407v-132z" />
<glyph unicode="=" d="M98 330v105h751v-105h-751zM98 539v102h751v-102h-751z" />
<glyph unicode="&#x3e;" horiz-adv-x="1366" d="M141 234v132l938 407l-938 408v132l1046 -453v-175z" />
<glyph unicode="[" horiz-adv-x="678" d="M93 -203v1545h463v-114h-296v-1317h297v-114h-464z" />
<glyph unicode="]" horiz-adv-x="678" d="M93 1227v114h464v-1545h-463v114h296v1317h-297z" />
<glyph unicode="_" horiz-adv-x="1268" d="M75 29q0 50 10.5 98.5t28 94t41 89t49.5 82.5q4 6 8.5 5t8.5 -5.5t5.5 -10.5t-0.5 -10q-35 -69 -58.5 -145.5t-18.5 -154.5q4 -74 36.5 -125.5t82.5 -83.5t111 -46.5t123 -15.5q63 -1 120.5 8.5t112.5 27t109 42t108 53.5q15 8 40.5 24.5t50 35t43 36t20.5 28.5 q-2 11 -16 19.5t-39 18.5q-15 6 -43.5 11.5t-62.5 9.5t-70 8t-67.5 6t-54 3.5t-29.5 1.5q0 8 4 25.5t11 36.5t16.5 35.5t20.5 22.5q25 10 64.5 26.5t78 38t67 47.5t31.5 55q2 18 -1 35t-9 34t-13.5 32.5t-14.5 30.5q-23 -55 -64.5 -85.5t-90.5 -30.5q-27 0 -51.5 13.5 t-42.5 35t-28.5 48.5t-10.5 54q0 22 5.5 51.5t16 61t26 61.5t35 53.5t43 38t50.5 14.5q37 0 72 -29.5t63.5 -70.5t48.5 -85.5t27 -74.5q10 -43 13.5 -89t-2.5 -92t-23 -91.5t-49 -87.5q84 -15 124.5 -57.5t36.5 -108.5q-4 -61 -38 -117t-87.5 -104.5t-123 -88.5t-144.5 -69 t-151.5 -44.5t-143.5 -15.5q-90 0 -166 23t-131.5 70.5t-86.5 120.5t-31 172zM323 -613q-1 2 3 7l80 115q4 6 7 7t8 -3l121 -92l82 105q4 5 6 5.5t6 -2.5l128 -106q5 -6 0 -14l-76 -107q-4 -5 -9 -5t-10 4l-120 93l-77 -106q-4 -5 -8.5 -5.5t-7.5 1.5l-128 98q-4 3 -5 5z M612 1114l74 102q6 14 16 4l121 -88l74 107q6 10 14 2l127 -91q6 -6 0 -16l-69 -102q-11 -8 -19 -2l-121 86l-71 -103q-4 -4 -8.5 -5t-8.5 -1l-127 94q-10 5 -2 13zM766 645q8 -23 27.5 -37.5t44 -19.5t49.5 1t43 24q3 2 5 7.5t-1 16.5q-8 16 -20 29.5t-27 26.5 q-35 26 -70 23q-22 -5 -34.5 -27.5t-16.5 -43.5z" />
<glyph unicode="{" horiz-adv-x="790" d="M103 457v65q64 7 106 28t66.5 52.5t34 71.5t9.5 85t-7 92.5t-16 93.5q-11 57 -3 114.5t31 110t59.5 98t84.5 79.5t104.5 53.5t119.5 20.5v-55q-68 -14 -114 -37.5t-74.5 -55t-41.5 -69.5t-16 -80t2 -87.5t13 -91.5q13 -73 3 -145.5t-41.5 -134.5t-84 -108.5t-122.5 -67.5 q70 -21 122.5 -67.5t84 -108.5t41.5 -134.5t-3 -144.5q-8 -47 -13 -92t-2 -87t16 -80t41.5 -69.5t74.5 -55t114 -37.5v-55q-63 1 -119.5 20.5t-104.5 53.5t-84.5 79.5t-59.5 98t-31 110t3 114.5q9 46 16 93.5t7 92.5t-9.5 85t-34 71.5t-66.5 52.5t-106 28z" />
<glyph unicode="}" horiz-adv-x="797" d="M103 -387q68 14 114 37.5t74.5 55t41.5 69.5t16 80t-2 87t-13 92q-13 72 -3 144.5t41.5 134.5t83.5 108.5t123 67.5q-71 21 -123 67.5t-83.5 108.5t-41.5 134.5t3 145.5q8 46 13 91.5t2 87.5t-16 80t-41.5 69.5t-74.5 55t-114 37.5v55q94 -1 174 -43.5t134.5 -110 t79 -152t8.5 -170.5q-9 -46 -16 -93.5t-7 -92.5t9.5 -85t34 -71.5t66 -52.5t106.5 -28v-65q-64 -7 -106 -28t-66.5 -52.5t-34 -71.5t-9.5 -85t7 -92.5t16 -93.5q16 -86 -8.5 -170.5t-79 -152t-134.5 -110t-174 -43.5v55z" />
<glyph unicode="&#xab;" horiz-adv-x="578" d="M79 586q0 115 35.5 224t104.5 206l46 -17q-42 -97 -62.5 -200.5t-20.5 -212.5t20.5 -213.5t62.5 -201.5l-46 -15q-69 94 -104.5 204.5t-35.5 225.5zM286 584q0 115 35.5 224t104.5 206l46 -17q-42 -97 -62.5 -200.5t-20.5 -212.5t20.5 -213.5t62.5 -201.5l-46 -15 q-69 94 -104.5 204.5t-35.5 225.5z" />
<glyph unicode="&#xad;" d="M96 441v102h751v-102h-751z" />
<glyph unicode="&#xb0;" horiz-adv-x="466" d="M53 980q0 40 14.5 75.5t39.5 61.5t58.5 41.5t71.5 15.5t72 -15.5t59 -41.5t39.5 -61.5t14.5 -75.5t-14.5 -75t-39.5 -61.5t-59 -41.5t-72 -15t-71.5 15t-58.5 41.5t-39.5 61.5t-14.5 75zM119 980q0 -26 9 -48t25 -39t37.5 -26.5t46.5 -9.5t46.5 9.5t37.5 26.5t25.5 39 t9.5 48t-9.5 48.5t-25.5 39.5t-37.5 26.5t-46.5 9.5t-46.5 -9.5t-37.5 -26.5t-25 -39.5t-9 -48.5z" />
<glyph unicode="&#xb6;" horiz-adv-x="1039" d="M16.5 1163.5q0.5 75.5 30.5 148t89.5 129t148.5 91t207 34.5h380h143v-97h-143v-1677h-98v1677h-186v-1677h-96v969q-120 0 -209 34.5t-148.5 91t-89 129t-29 148z" />
<glyph unicode="&#xb7;" horiz-adv-x="532" d="M169 791q0 51 27 72.5t69 21.5q45 0 71 -21.5t26 -72.5q0 -52 -26 -74t-71 -22q-42 0 -69 22t-27 74z" />
<glyph unicode="&#xbb;" horiz-adv-x="585" d="M109 169q42 97 62.5 201.5t20.5 213.5t-20.5 212.5t-62.5 200.5l46 17q69 -97 104.5 -206t35.5 -224t-35.5 -225.5t-104.5 -204.5zM316 171q42 97 62.5 201.5t20.5 213.5t-20.5 212.5t-62.5 200.5l46 17q69 -97 104.5 -206t35.5 -224t-35.5 -225.5t-104.5 -204.5z" />
<glyph unicode="&#xd7;" horiz-adv-x="1094" d="M93 853l109 110l339 -339l337 336l107 -107l-337 -336l337 -337l-110 -109l-336 336l-337 -336l-107 107l337 337z" />
<glyph unicode="&#xf7;" horiz-adv-x="1081" d="M96 431v102h891v-102h-891zM439 198q0 21 8 40t21.5 33t32.5 22t40 8t40 -8t33 -22t22 -33t8 -40t-8 -40t-22 -32.5t-33 -21.5t-40 -8q-43 0 -72.5 29.5t-29.5 72.5zM439 765q0 21 8 40t21.5 33t32.5 22t40 8t40 -8t33 -22t22 -33t8 -40t-8 -40t-22 -32.5t-33 -21.5 t-40 -8q-43 0 -72.5 29.5t-29.5 72.5z" />
<glyph unicode="&#x2000;" horiz-adv-x="833" />
<glyph unicode="&#x2001;" horiz-adv-x="1667" />
<glyph unicode="&#x2002;" horiz-adv-x="833" />
<glyph unicode="&#x2003;" horiz-adv-x="1667" />
<glyph unicode="&#x2004;" horiz-adv-x="555" />
<glyph unicode="&#x2005;" horiz-adv-x="416" />
<glyph unicode="&#x2006;" horiz-adv-x="277" />
<glyph unicode="&#x2007;" horiz-adv-x="277" />
<glyph unicode="&#x2008;" horiz-adv-x="208" />
<glyph unicode="&#x2009;" horiz-adv-x="333" />
<glyph unicode="&#x200a;" horiz-adv-x="92" />
<glyph unicode="&#x2010;" d="M96 441v102h751v-102h-751z" />
<glyph unicode="&#x2011;" d="M96 441v102h751v-102h-751z" />
<glyph unicode="&#x2012;" d="M96 441v102h751v-102h-751z" />
<glyph unicode="&#x2013;" horiz-adv-x="1219" d="M96 441v102h1024v-102h-1024z" />
<glyph unicode="&#x2014;" horiz-adv-x="2243" d="M96 441v102h2048v-102h-2048z" />
<glyph unicode="&#x2018;" horiz-adv-x="438" d="M89 1213.5q4 39.5 15 74.5q19 51 51 93t77 71q20 13 38.5 19.5t26.5 -5.5q6 -6 -1.5 -16t-19.5 -22q-26 -22 -50.5 -52t-40.5 -63q-16 -34 -20 -70.5t10 -72.5q29 20 61.5 19.5t58.5 -16.5q25 -14 37.5 -37.5t12.5 -49t-11.5 -50.5t-33.5 -42q-33 -21 -72.5 -19t-70.5 28 q-29 24 -45.5 58.5t-21.5 73.5t-1 78.5z" />
<glyph unicode="&#x2019;" horiz-adv-x="424" d="M86 1361.5q0 25.5 11.5 50.5t33.5 42q33 21 72.5 19t70.5 -28q29 -24 45.5 -58.5t21.5 -73.5t1 -79t-15 -74q-19 -51 -51 -93t-77 -71q-20 -13 -38.5 -19.5t-26.5 5.5q-6 6 1.5 16t19.5 22q26 22 50.5 52t40.5 63q16 34 20 70.5t-10 72.5q-29 -20 -61.5 -19.5t-58.5 16.5 q-25 14 -37.5 37.5t-12.5 49z" />
<glyph unicode="&#x201c;" horiz-adv-x="832" d="M89 1213.5q4 39.5 15 74.5q19 51 51 93t77 71q20 13 38.5 19.5t26.5 -5.5q6 -6 -1.5 -16t-19.5 -22q-26 -22 -50.5 -52t-40.5 -63q-16 -34 -20 -70.5t10 -72.5q29 20 61.5 19.5t58.5 -16.5q25 -14 37.5 -37.5t12.5 -49t-11.5 -50.5t-33.5 -42q-33 -21 -72.5 -19t-70.5 28 q-29 24 -45.5 58.5t-21.5 73.5t-1 78.5zM499 1213.5q4 39.5 15 74.5q19 51 51 93t77 71q20 13 38.5 19.5t26.5 -5.5q6 -6 -1.5 -16t-19.5 -22q-26 -22 -50.5 -52t-40.5 -63q-16 -34 -20 -70.5t10 -72.5q29 20 61.5 19.5t58.5 -16.5q25 -14 37.5 -37.5t12.5 -49t-11.5 -50.5 t-33.5 -42q-33 -21 -72.5 -19t-70.5 28q-29 24 -45.5 58.5t-21.5 73.5t-1 78.5z" />
<glyph unicode="&#x201d;" horiz-adv-x="827" d="M65 1363.5q0 25.5 11.5 50.5t33.5 42q33 21 72.5 19t70.5 -28q29 -24 45.5 -58.5t21.5 -73.5t1 -78.5t-15 -74.5q-19 -51 -51 -93t-77 -71q-20 -13 -38.5 -19.5t-26.5 5.5q-6 6 1.5 16t19.5 22q26 22 50.5 52t40.5 63q16 34 20 70.5t-10 72.5q-29 -20 -61.5 -19.5 t-58.5 16.5q-25 14 -37.5 37.5t-12.5 49zM475 1363.5q0 25.5 11.5 50.5t33.5 42q33 21 72.5 19t70.5 -28q29 -24 45.5 -58.5t21.5 -73.5t1 -78.5t-15 -74.5q-19 -51 -51 -93t-77 -71q-20 -13 -38.5 -19.5t-26.5 5.5q-6 6 1.5 16t19.5 22q26 22 50.5 52t40.5 63 q16 34 20 70.5t-10 72.5q-29 -20 -61.5 -19.5t-58.5 16.5q-25 14 -37.5 37.5t-12.5 49z" />
<glyph unicode="&#x202f;" horiz-adv-x="333" />
<glyph unicode="&#x2039;" horiz-adv-x="484" d="M71 577l309 381l30 -12l-194 -369l194 -369l-30 -12z" />
<glyph unicode="&#x203a;" horiz-adv-x="469" d="M71 208l194 369l-194 369l30 12l309 -381l-309 -381z" />
<glyph unicode="&#x205f;" horiz-adv-x="416" />
<glyph unicode="&#x25fc;" horiz-adv-x="500" d="M0 0z" />
</font>
</defs>
</svg>
