<svg xmlns="http://www.w3.org/2000/svg" xmlns:xlink="http://www.w3.org/1999/xlink" version="1.1"><metadata/><defs><font id="vip_hakm_regularvip_hakm" horiz-adv-x="1320"><font-face ascent="1638" descent="-410" units-per-em="2048"/><glyph horiz-adv-x="1282"/><glyph horiz-adv-x="1278"/><glyph horiz-adv-x="1278"/><glyph horiz-adv-x="400"/><glyph horiz-adv-x="400"/><glyph horiz-adv-x="400"/><glyph d="M160 102q0 44 27 73t69 29t68 -29t26 -73t-26 -73t-68 -29t-69 29t-27 73zM204 642v964h104v-964h-104z" horiz-adv-x="510" unicode="!"/><glyph d="M160 1276v330h102v-330h-102zM328 1276v330h102v-330h-102z" horiz-adv-x="590" unicode="&quot;"/><glyph d="M160 0l186 556h-156v100h188l112 338h-162v100h196l170 512h104l-168 -512h450l170 512h106l-170 -512h170v-100h-202l-112 -338h176v-100h-210l-184 -556h-106l184 556h-452l-182 -556h-108zM484 656h454l110 338h-452z" horiz-adv-x="1516" unicode="#"/><glyph d="M160 306l84 60l30 -44q46 -68 112 -106t196 -44v604q-166 48 -244 102q-146 94 -146 268t102 269t288 105v86h104v-88q188 -22 306 -192l28 -42l-84 -58l-28 40q-88 128 -222 150v-562q176 -48 256 -100q144 -100 144 -278t-111 -285t-289 -121v-70h-104v70 q-142 6 -232 51t-160 143zM294 1156q0 -128 100 -194q62 -40 188 -78v534q-288 -18 -288 -262zM686 174q138 12 218 93t80 208t-100 193q-64 42 -198 80v-574z" horiz-adv-x="1246" unicode="$"/><glyph d="M160 1313q0 113 76 193t184 80t184 -80t76 -192q0 -74 -34 -138t-95 -100t-131 -36q-108 0 -184 80t-76 193zM174 0l926 1606h114l-928 -1606h-112zM260 1313q0 -71 47 -123t113 -52t114 52t48 123t-48 123t-114 52t-113 -52t-47 -123zM720 273q0 113 76 194t183 81 t184 -81t77 -194t-77 -193t-184 -80t-183 80t-76 193zM818 274q0 -72 47 -124t103 -52t93 24q81 53 81 138q0 86 -47 138t-115 52t-115 -52t-47 -124z" horiz-adv-x="1400" unicode="%"/><glyph d="M188 326q-28 188 110 366q90 114 234 198q-22 44 -38 90q-164 416 20 562q80 64 220 64t231 -76t113 -192q22 -138 -60 -266q-84 -136 -250 -188q-54 -20 -102 -42q160 -300 378 -540l8 12q154 218 154 608h100q0 -419 -170 -666q-10 -14 -22 -28q166 -158 268 -188 l-30 -96q-132 40 -306 210q-166 -154 -408 -154q-186 0 -305 91t-145 235zM288 342q20 -110 113 -176t237 -66q204 0 338 126q-229 251 -400 572q-124 -72 -200 -168q-110 -142 -88 -288zM575 1462q-136 -133 47 -528q56 24 116 46q130 42 193 142q86 137 27 259 q-59 123 -228 123q-112 0 -155 -42z" horiz-adv-x="1542" unicode="&amp;"/><glyph d="M160 1326q28 28 51 96t23 132v48h102v-48q0 -84 -32 -172t-68 -124z" horiz-adv-x="496" unicode="'"/><glyph d="M160 672q0 378 130 648q68 138 158 212t190 74v-100q-66 0 -134 -58t-124 -174q-120 -248 -120 -603t120 -603q56 -112 124 -172t134 -60v-100q-100 0 -190 75t-158 215q-130 268 -130 646z" horiz-adv-x="798" unicode="("/><glyph d="M160 -164q70 0 138 60t120 172q122 248 122 603t-122 603q-52 116 -120 174t-138 58v100q102 0 192 -74t156 -212q132 -270 132 -648t-132 -646q-66 -140 -156 -215t-192 -75v100z" horiz-adv-x="800" unicode=")"/><glyph d="M160 1126v100h312l-242 320l78 60l264 -348l262 348l80 -60l-244 -320h312v-100h-312l244 -320l-80 -60l-262 348l-264 -348l-78 60l242 320h-312z" horiz-adv-x="1142" unicode="*"/><glyph d="M160 556v102h452v552h102v-552h452v-102h-452v-554h-102v554h-452z" horiz-adv-x="1326" unicode="+"/><glyph d="M160 -206q56 28 80 100q10 30 10 66v174h102v-174q0 -126 -76 -206q-38 -40 -80 -54z" horiz-adv-x="512" unicode=","/><glyph d="M160 556v102h562v-102h-562z" horiz-adv-x="882" unicode="-"/><glyph d="M160 104q0 44 26 73t68 29t69 -29t27 -73t-27 -73t-69 -29t-68 29t-26 73z" horiz-adv-x="510" unicode="."/><glyph d="M160 0l532 1606h108l-532 -1606h-108z" horiz-adv-x="960" unicode="/"/><glyph d="M160 803q0 235 35 399t156 284t306 120t306 -120t155 -284t34 -399t-34 -399t-155 -284t-306 -120t-306 120t-156 284t-35 399zM262 803q0 -225 28 -367q42 -168 154 -262q86 -72 224 -72t231 99t123 238t30 364t-30 365t-123 238t-243 98t-242 -98t-124 -236 q-28 -142 -28 -367z" horiz-adv-x="1312" unicode="0"/><glyph d="M160 1186v102h54q20 0 69 34t108 97t93 116t34 71h102v-1606h-102v1408q-98 -113 -176 -166q-74 -56 -128 -56h-54z" horiz-adv-x="780" unicode="1"/><glyph d="M160 0v52q0 284 148 480q80 103 193 190q39 30 108 78t100 73q112 90 157 161q44 71 44 176q-4 80 -42 152q-80 142 -272 142q-146 0 -254 -82q-56 -42 -80 -82l-88 52q32 54 102 108q138 106 320 106q254 0 362 -198q54 -96 56 -194v-2q0 -168 -112 -298 q-62 -74 -230 -194l-75 -54q-95 -68 -128 -104t-67 -76q-125 -147 -140 -384h742v-102h-844z" horiz-adv-x="1174" unicode="2"/><glyph d="M160 1352l28 44q32 56 102 110q136 106 322 106t306 -125t120 -292t-134 -277q-42 -36 -98 -64q92 -32 160 -90q142 -120 142 -300t-124 -312q-136 -140 -336 -140t-350 116q-76 58 -110 118l88 54q28 -48 88 -92q120 -92 282 -92t261 104t99 240t-106 226 q-130 110 -402 110l2 102q222 0 338 98q96 80 96 204q0 78 -38 148t-113 116t-156 46t-141 -18t-95 -40t-65 -50t-38 -40l-40 -64z" horiz-adv-x="1268" unicode="3"/><glyph d="M160 588v102l718 916h100v-916h186v-102h-186v-588h-102v588h-716zM290 690h586v748z" horiz-adv-x="1324" unicode="4"/><glyph d="M160 348l96 40l20 -48q44 -108 137 -173t200 -65t193 55t136 147t50 200q0 166 -109 285t-265 119t-266 -122l-36 -36l-102 4l34 852h752v-102h-652l-26 -602q132 106 296 106q198 0 337 -147t139 -355t-139 -357t-337 -149q-142 0 -262 82t-174 220z" horiz-adv-x="1254" unicode="5"/><glyph d="M160 898q0 166 18 272q34 200 132 304q122 128 346 128q112 0 211 -55t165 -149l30 -42l-84 -60l-30 44q-52 76 -129 118t-163 42q-180 0 -267 -91t-109 -226t-22 -235v-142q146 204 378 204q196 0 333 -149t137 -357t-138 -356q-136 -152 -332 -152t-334 152 q-72 78 -106 191t-34 333zM266 503q0 -109 50 -202t134 -148t186 -55q152 0 260 119t108 287q0 108 -49 202t-134 148t-186 54t-185 -54t-134 -148t-50 -203z" horiz-adv-x="1266" unicode="6"/><glyph d="M160 1504v102h1018l-2 -98q-180 -238 -368 -552q-376 -626 -376 -956h-102q0 200 124 494q183 445 596 1010h-890z" horiz-adv-x="1338" unicode="7"/><glyph d="M160 452q0 188 138 320q54 50 120 82q-218 127 -218 350q0 168 128 285t306 117t306 -117t128 -285q0 -223 -218 -350q64 -32 116 -82q142 -132 142 -320t-140 -320t-335 -132t-335 132q-138 132 -138 320zM262 452q0 -144 108 -247t262 -103t263 103t109 247t-109 247 t-263 103t-262 -103t-108 -247zM302 1204q0 -124 98 -212t235 -88t234 88t97 212t-97 212t-234 88t-235 -88t-98 -212z" horiz-adv-x="1268" unicode="8"/><glyph d="M160 1096q0 208 137 357t332 149t335 -150q72 -80 106 -191t34 -335l2 -224q0 -138 -9 -200q-25 -169 -55 -243q-30 -73 -86 -133q-124 -130 -346 -130q-114 0 -213 55t-165 151l-28 42l84 58l28 -44q54 -76 131 -118t163 -42q180 0 267 92t109 227t22 235v142 q-22 -30 -44 -56q-140 -150 -335 -150t-333 150q-136 150 -136 358zM262 1094q0 -166 107 -285t260 -119t260 119t107 286t-107 286t-259 119q-100 0 -185 -54t-134 -148t-49 -204z" horiz-adv-x="1266" unicode="9"/><glyph d="M160 104q0 44 26 73t68 29t69 -29t27 -73t-27 -73t-69 -29t-68 29t-26 73zM160 904q0 44 26 73t68 29t69 -29t27 -73t-27 -71t-69 -27t-68 27t-26 71z" horiz-adv-x="510" unicode=":"/><glyph d="M160 -206q56 28 80 100q10 30 10 66v174h102v-174q0 -126 -76 -206q-38 -40 -80 -54zM206 904q0 44 27 73t69 29t68 -29t26 -73t-26 -71t-69 -27t-69 27t-26 71z" horiz-adv-x="556" unicode=";"/><glyph d="M160 596v62l994 596l52 -86l-902 -540l902 -542l-52 -86z" horiz-adv-x="1366" unicode="&lt;"/><glyph d="M160 328v102h1008v-102h-1008zM160 800v102h1008v-102h-1008z" horiz-adv-x="1328" unicode="="/><glyph d="M160 86l900 542l-900 540l50 86l994 -596v-62l-994 -596z" horiz-adv-x="1364" unicode="&gt;"/><glyph d="M160 1358l28 42q68 98 165 152t207 54q232 0 345 -106t113 -292t-92 -298q-54 -68 -184 -132q-54 -26 -78 -43q-60 -42 -60 -117v-48h-98v48q0 112 58 162t119 80t83 43t57 43q97 83 97 276q0 284 -360 284q-84 0 -160 -42t-130 -120l-28 -44zM476 99q0 43 26 71t67 28 t67 -28t26 -71t-26 -71t-68 -28t-67 28t-25 71z" horiz-adv-x="1178" unicode="?"/><glyph d="M160 617q0 205 66 393q68 180 190 322t284 220t343 78t343 -78t284 -220t188 -326t66 -390q0 -100 -27 -201q-63 -236 -167 -337q-82 -80 -181 -80t-144 56t-49 130q-146 -146 -347 -146t-348 170t-147 406t145 406t359 170q213 0 360 -172q66 -74 102 -170l68 334 l100 -20l-188 -928q-14 -70 12 -102t81 -32t106 51t88 136t56 177t19 152q0 186 -61 355t-166 291t-249 194t-304 72q-212 0 -392 -122t-284 -332t-104 -457t104 -457t284 -332t392 -122q142 0 272 54q80 36 152 90l40 32l62 -82l-40 -30q-82 -62 -172 -104 q-152 -62 -323 -62t-333 78t-284 220t-190 322q-66 188 -66 393zM616 614q0 -196 118 -335t285 -139t284 139t117 335t-117 335t-284 139t-285 -139t-118 -335z" horiz-adv-x="2084" unicode="@"/><glyph d="M160 0l560 1606h96l560 -1606h-108l-214 618q-56 -26 -148 -26h-304q-114 0 -158 -88l-176 -504h-108zM502 676q48 16 100 16h304q84 0 112 24l-250 720z" horiz-adv-x="1536" unicode="A"/><glyph d="M160 0v1606h664q166 0 285 -119t119 -287q0 -110 -56 -203t-148 -147q64 -32 118 -84q130 -130 130 -316t-130 -318q-138 -132 -318 -132h-664zM262 102h562q140 0 243 102t103 245t-103 245t-243 102l-478 2q-46 0 -84 14v-710zM262 958q5 -58 84 -58h478q124 0 212 88 t88 213t-88 214t-212 89h-562v-546z" horiz-adv-x="1432" unicode="B"/><glyph d="M160 804q0 330 186 562q189 240 478 240q146 0 282 -86t226 -232l28 -44l-88 -54l-28 44q-169 270 -442 270q-138 0 -265 -94t-201 -255t-74 -352t74 -351t201 -255t265 -95q275 0 442 272l28 42l88 -54l-28 -44q-90 -146 -226 -232t-282 -86q-285 0 -475 237 q-189 237 -189 567z" horiz-adv-x="1520" unicode="C"/><glyph d="M160 2v1604h474q132 0 251 -63t209 -175q184 -232 184 -562t-184 -564q-90 -112 -209 -177t-251 -65h-2zM262 104l372 -2q220 0 381 206t161 500q0 140 -43 269t-116 223t-174 149t-209 55h-372v-1400z" horiz-adv-x="1438" unicode="D"/><glyph d="M160 0v1606h956v-102h-854v-620q38 14 84 14h770v-102h-770q-84 0 -84 -64v-630h854v-102h-956z" horiz-adv-x="1276" unicode="E"/><glyph d="M160 0v1606h1008v-102h-906v-620q32 12 70 14h678v-102h-664q-46 0 -66 -21t-18 -47v-728h-102z" horiz-adv-x="1328" unicode="F"/><glyph d="M160 804q0 330 186 562q189 240 479 240q149 0 291 -93t230 -251l-90 -52q-76 138 -195 216t-259 78t-266 -94t-200 -255t-74 -352t74 -351t200 -255t274 -95q88 0 179 51t166 134t127 204t62 253h-614v102h666q20 0 36 -14t16 -36q0 -156 -53 -301t-145 -255 q-198 -240 -448 -240q-126 0 -246 64t-210 176q-186 234 -186 564z" horiz-adv-x="1608" unicode="G"/><glyph d="M160 0v1606h102v-752q70 44 162 44h512q120 0 162 84v624h102v-1606h-102v838q-66 -40 -152 -42h-522q-84 0 -132 -48q-20 -16 -30 -36v-712h-102z" horiz-adv-x="1360" unicode="H"/><glyph d="M160 0v1606h102v-1606h-102z" horiz-adv-x="422" unicode="I"/><glyph d="M160 0v102q148 0 274 94t200 254t74 352v804h102v-804q0 -330 -186 -564q-90 -110 -209 -174t-255 -64z" horiz-adv-x="970" unicode="J"/><glyph d="M160 0v1606h102v-696q16 28 46 52l690 644h150l-774 -722q-30 -24 -30 -48q0 -20 22 -40l864 -796h-152l-776 718q-24 18 -40 44v-762h-102z" horiz-adv-x="1390" unicode="K"/><glyph d="M160 0v1606h102v-1504h906v-102h-1008z" horiz-adv-x="1328" unicode="L"/><glyph d="M160 0v1606h104l532 -1456l532 1456h106v-1606h-102v1318l-482 -1318h-108l-480 1318v-1318h-102z" horiz-adv-x="1594" unicode="M"/><glyph d="M160 0v1606h108l818 -1500v1500h102v-1606h-160l-766 1406v-1406h-102z" horiz-adv-x="1348" unicode="N"/><glyph d="M160 804q0 330 186 562q90 114 210 177t255 63t255 -63t208 -177q188 -232 188 -562t-188 -564q-88 -112 -208 -176t-255 -64t-255 64t-210 176q-186 234 -186 564zM262 803q0 -191 74 -351t200 -255t274 -95t275 95t201 255t74 351t-74 352t-201 255t-275 94t-274 -94 t-200 -255t-74 -352z" horiz-adv-x="1622" unicode="O"/><glyph d="M160 0v1606h664q108 0 201 -55t147 -148t54 -205q0 -166 -118 -284t-286 -118h-476q-79 0 -84 -62v-734h-102zM262 884q34 12 76 14h484q124 0 212 89t88 214t-88 214t-212 89h-560v-620z" horiz-adv-x="1386" unicode="P"/><glyph d="M160 804q0 330 186 562q90 114 210 177t255 63t255 -63t208 -177q188 -232 188 -562q0 -382 -248 -630q39 -58 100 -77q16 -5 24 -5h10l6 -102h-6q-128 0 -212 116q-154 -106 -307 -106q-290 0 -480 237q-189 237 -189 567zM262 803q0 -191 74 -351t200 -255t274 -95 t275 95t201 255t74 351t-74 352t-201 255t-275 94t-274 -94t-200 -255t-74 -352z" horiz-adv-x="1622" unicode="Q"/><glyph d="M160 0v1606h662q110 0 203 -54t147 -148t54 -222t-94 -240t-234 -138q20 -26 36 -56l330 -748h-112l-314 710q-27 45 -49 59q-47 27 -59 27h-384q-79 0 -84 -62v-734h-102zM262 884q34 12 76 14h484q124 0 212 89t88 213t-88 214t-212 90h-560v-620z" horiz-adv-x="1424" unicode="R"/><glyph d="M160 252l82 62l32 -42q32 -38 62 -65q119 -107 403 -107q213 0 334 95t121 257q0 108 -70 171q-70 64 -229 111q-61 18 -239 62t-272 98q-190 109 -190 301q0 191 128 297q142 114 418 114q130 0 245 -56t195 -158l32 -40l-80 -62l-34 42q-64 84 -159 129t-199 45 q-442 0 -442 -302q0 -115 74 -180t229 -109q61 -17 159 -43q258 -62 351 -117t141 -127t48 -172q0 -206 -146 -324q-150 -132 -392 -132t-363 52t-207 162z" horiz-adv-x="1460" unicode="S"/><glyph d="M160 1504v102h1186v-102h-556v-1504h-102v1504h-528z" horiz-adv-x="1506" unicode="T"/><glyph d="M160 508v1098h102v-1098q0 -168 119 -286t286 -118t285 118t118 286v1098h102v-1098q0 -210 -149 -358t-358 -148t-357 148t-148 358z" horiz-adv-x="1332" unicode="U"/><glyph d="M160 1606h110l506 -1450l504 1450h110l-560 -1606h-108z" horiz-adv-x="1550" unicode="V"/><glyph d="M160 1606h104l498 -1426l346 1276h70l346 -1276l498 1426h104l-560 -1606h-92l-330 1210l-330 -1210h-92z" horiz-adv-x="2286" unicode="W"/><glyph d="M160 0l596 804l-596 802h124l534 -720l534 720h124l-596 -802l596 -804h-124l-534 722l-534 -722h-124z" horiz-adv-x="1636" unicode="X"/><glyph d="M160 1606h126l544 -734l546 734h124l-588 -792q-32 -82 -32 -178v-636h-100v636q0 96 -32 178z" horiz-adv-x="1660" unicode="Y"/><glyph d="M160 0v84l1126 1420h-1084v102h1230v-84l-1124 -1420h1084v-102h-1232z" horiz-adv-x="1592" unicode="Z"/><glyph d="M160 -282v1888h248v-102h-146v-1684h146v-102h-248z" horiz-adv-x="568" unicode="["/><glyph d="M160 1606h110l532 -1606h-108z" horiz-adv-x="962" unicode="\"/><glyph d="M160 -180h146v1684h-146v102h248v-1888h-248v102z" horiz-adv-x="568" unicode="]"/><glyph d="M160 1332l392 274l360 -276l-60 -80l-302 230l-332 -232z" horiz-adv-x="1072" unicode="^"/><glyph d="M160 0v102h1006v-102h-1006z" horiz-adv-x="1326" unicode="_"/><glyph d="M160 1534l76 68q36 -36 68 -124t32 -172v-48h-102v48q0 95 -48 187q-16 31 -26 41z" horiz-adv-x="496" unicode="`"/><glyph d="M160 347q0 147 126 247t298 100h254q66 0 66 78v68q0 100 -88 172t-214 72q-80 0 -149 -32t-109 -86l-32 -42l-84 62l32 40q56 74 146 117t196 43q166 0 285 -100t119 -246v-494q0 -146 -125 -246t-297 -100t-298 100t-126 247zM264 347q0 -97 92 -171t228 -74t228 74 t92 170v258q-30 -12 -64 -12h-256q-136 0 -228 -74t-92 -171z" horiz-adv-x="1166" unicode="a"/><glyph d="M160 0v1606h102v-378q0 -62 84 -62h84q242 0 412 -171t170 -412t-170 -412t-412 -171h-270zM262 102h168q200 0 340 141t140 339q0 132 -64 242t-174 175t-242 65h-82q-48 0 -86 14v-976z" horiz-adv-x="1172" unicode="b"/><glyph d="M160 593q0 243 142 416q68 83 159 130t193 47q222 0 340 -160l32 -40l-82 -62l-32 42q-61 85 -180 110q-38 8 -78 8q-162 0 -277 -142t-115 -349t115 -349t277 -142q80 0 149 32t109 88l32 40l82 -60l-32 -42q-71 -99 -205 -140q-65 -20 -151 -20t-177 47t-161 129 q-140 174 -140 417z" horiz-adv-x="1186" unicode="c"/><glyph d="M160 583q0 241 171 412t409 171h84q84 0 84 60v380h104v-1606h-272q-238 0 -409 171t-171 412zM262 582q0 -96 38 -185t102 -154t153 -103t185 -38h168v976q-36 -14 -84 -14h-84q-198 0 -338 -142t-140 -340z" horiz-adv-x="1172" unicode="d"/><glyph d="M160 593q0 243 144 418t350 175q168 0 271 -83t103 -208t-114 -214t-308 -89h-278q-45 0 -56 -39q-6 -21 -6 -27l2 -18v-2q24 -169 134 -288q50 -54 117 -85t135 -31q192 0 280 120l30 40l82 -60l-30 -42q-120 -160 -362 -160q-208 0 -351 175t-143 418zM268 684 q30 10 52 10h286q158 0 246 70q74 56 74 133t-71 132t-206 55t-245 -114t-136 -286z" horiz-adv-x="1206" unicode="e"/><glyph d="M160 0v1156q0 184 122 318q124 132 300 132h50v-102h-50q-130 0 -222 -97t-98 -235q38 14 84 14h236v-102h-236q-84 0 -84 -66v-1018h-102z" horiz-adv-x="792" unicode="f"/><glyph d="M160 610q0 240 170 411t410 171h272v-1254q0 -146 -120 -247t-284 -101q-104 0 -194 42t-148 118l-30 42l80 62l32 -42q42 -56 111 -87t149 -31q124 0 212 71t88 173v28q-5 62 -84 62h-84q-240 0 -410 171t-170 411zM262 609q0 -199 140 -339t338 -140h84q48 0 84 -14 v974h-168q-198 0 -338 -141t-140 -340z" horiz-adv-x="1172" unicode="g"/><glyph d="M160 0v1606h102v-350q0 -50 21 -68t41 -18h258q176 0 299 -133t123 -319v-718h-102v718q0 96 -43 176t-117 127t-160 47h-254q-34 0 -66 12v-1080h-102z" horiz-adv-x="1164" unicode="h"/><glyph d="M160 0v1186h102v-1186h-102zM160 1474v28q0 32 31 46q9 4 22 4t31 -11t18 -39v-28q0 -22 -15 -37t-36 -15t-36 15t-15 37z" horiz-adv-x="422" unicode="i"/><glyph d="M160 -306h52q132 0 226 102t94 246v1196h102v-1196q0 -186 -123 -319t-299 -133h-52v104zM532 1474v28q0 27 18 39q18 11 32 11t33 -11t19 -39v-28q0 -22 -16 -37t-36 -15t-35 15t-15 37z" horiz-adv-x="794" unicode="j"/><glyph d="M160 0v1606h102v-946l664 526h166l-612 -486q24 -16 42 -36l572 -664h-138l-512 596q-26 26 -41 27t-29 -7l-112 -88v-528h-102z" horiz-adv-x="1254" unicode="k"/><glyph d="M160 0v1606h102v-1606h-102z" horiz-adv-x="422" unicode="l"/><glyph d="M160 0v734q0 186 122 320q124 132 300 132t298 -132q44 -48 72 -104q126 236 372 236q176 0 298 -133t122 -319v-734h-102v734q0 146 -93 248t-226 102t-226 -102t-93 -248v-734h-102v734q0 96 -43 176t-117 127t-160 47q-134 0 -227 -102t-93 -248v-734h-102z" horiz-adv-x="1904" unicode="m"/><glyph d="M160 0v734q0 186 122 320q124 132 300 132t299 -133t123 -319v-734h-102v734q0 96 -43 176t-117 127t-160 47q-134 0 -227 -102t-93 -248v-734h-102z" horiz-adv-x="1164" unicode="n"/><glyph d="M160 593q0 243 146 417q155 176 366 176t366 -176q148 -174 148 -417t-149 -417t-365 -174q-215 0 -364 174q-148 174 -148 417zM262 594q0 -132 55 -245t149 -179t192 -66q182 0 303 143t121 347t-120 347t-289 143t-290 -143t-121 -347z" horiz-adv-x="1346" unicode="o"/><glyph d="M160 -410v1606h270q242 0 412 -171t170 -411t-170 -411t-412 -171h-84q-65 0 -80 -41q-4 -11 -4 -19v-382h-102zM262 120q38 14 86 14h82q132 0 242 64t174 175t64 241q0 200 -141 340t-339 140h-168v-974z" horiz-adv-x="1172" unicode="p"/><glyph d="M160 614q0 240 171 411t409 171h272v-1606h-104v380q0 62 -84 62h-84q-238 0 -409 171t-171 411zM262 614q0 -198 140 -339t338 -141h84q48 0 84 -14v974h-168q-198 0 -338 -141t-140 -339z" horiz-adv-x="1172" unicode="q"/><glyph d="M160 0v734q0 186 122 320q124 132 300 132v-102q-158 0 -258 -143q-62 -89 -62 -207v-734h-102z" horiz-adv-x="742" unicode="r"/><glyph d="M160 202l82 60l32 -40q42 -58 108 -89t204 -31t219 64t81 164t-82 152q-60 34 -234 78t-246 88q-134 82 -134 226t98 228t296 84t320 -160l32 -40l-80 -64l-34 42q-92 120 -238 120q-292 0 -292 -202q0 -96 86 -146q60 -36 234 -81t244 -85q132 -82 132 -231t-106 -244 t-280 -95t-261 39t-149 121z" horiz-adv-x="1148" unicode="s"/><glyph d="M160 454v1152h102v-456q38 14 86 14h236v-102h-236q-81 0 -86 -64v-544q0 -146 94 -249t228 -103v-102q-178 0 -301 133t-123 321z" horiz-adv-x="744" unicode="t"/><glyph d="M160 454v732h102v-732q0 -146 93 -249t226 -103t227 103t94 249v732h102v-732q0 -188 -123 -321t-299 -133t-299 133t-123 321z" horiz-adv-x="1164" unicode="u"/><glyph d="M160 1186h110l380 -1022l382 1022h108l-440 -1186h-98z" horiz-adv-x="1300" unicode="v"/><glyph d="M160 1186h110l376 -1010l268 868h98l270 -868l376 1010h110l-442 -1186h-96l-266 856l-264 -856h-98z" horiz-adv-x="1928" unicode="w"/><glyph d="M160 0l428 594l-428 592h124l366 -508l368 508h122l-428 -592l430 -594h-124l-368 508l-366 -508h-124z" horiz-adv-x="1302" unicode="x"/><glyph d="M160 1186h108l358 -962q12 -38 26 -86l392 1048h104l-490 -1312q-44 -126 -147 -205t-233 -79h-50v100h50q96 0 175 59t111 157h2q12 54 12 105t-44 177z" horiz-adv-x="1308" unicode="y"/><glyph d="M160 0v84l794 1000h-754v102h900v-84l-794 -1000h754v-102h-900z" horiz-adv-x="1260" unicode="z"/><glyph d="M160 616v120h88q78 4 119 38q82 68 89 378q4 224 38 306q62 152 248 148h60v-118h-62q-64 2 -93 -18t-49 -69t-25 -292t-69 -353q-28 -48 -68 -80q130 -98 137 -434q5 -242 31 -302q14 -38 43 -57t93 -19l62 2v-120h-68q-180 0 -240 148q-34 82 -38 279t-26 285t-63 121 t-119 37h-88z" horiz-adv-x="962" unicode="{"/><glyph d="M160 -278v1884h102v-1884h-102z" horiz-adv-x="422" unicode="|"/><glyph d="M160 -134l62 -2q83 0 115 37q13 15 23 39q24 60 29 302q7 340 139 434q-42 32 -70 80q-64 110 -69 353t-24 292t-49 69t-94 18h-62v118h60q186 4 248 -148q34 -82 38 -258t15 -255t37 -125t62 -64t94 -20h88v-120h-88q-78 -4 -119 -37q-78 -63 -89 -377q-4 -226 -38 -308 q-60 -148 -240 -148h-68v120z" horiz-adv-x="962" unicode="}"/><glyph d="M160 614l22 46q78 170 182 194q68 14 127 -17t121 -79t86 -66t60 -33t62 -9q72 16 144 174l22 46l92 -44l-20 -46q-46 -102 -100 -156q-73 -78 -158 -78q-86 0 -212 99q-66 51 -89 68q-70 51 -111 41q-56 -14 -114 -138l-22 -46z" horiz-adv-x="1238" unicode="~"/><glyph d="M160 1497q0 37 12 60q26 49 75 49t76 -29t27 -73t-27 -71t-69 -27t-68 27t-26 64zM202 0v966h104v-966h-104z" horiz-adv-x="510" unicode="¡"/><glyph d="M160 592v2q0 242 137 407t315 183v108h102v-110q182 -22 282 -156l30 -40l-82 -62l-30 42q-40 54 -109 86t-149 32q-162 0 -278 -143t-116 -347v-2q0 -202 116 -346t278 -144q80 0 149 32t109 88l30 40l82 -60l-30 -42q-100 -132 -282 -156v-110h-102v108 q-177 18 -310 174q-142 174 -142 416z" horiz-adv-x="1186" unicode="¢"/><glyph d="M160 0v100q44 0 75 21q112 76 123 579h-162v104h162q0 653 267 758q81 32 189 32t204 -88t154 -234l-94 -38q-50 120 -122 189t-154 69q-160 0 -234 -108q-108 -154 -108 -580h454v-104h-454q-9 -439 -106 -596h844v-104h-1038z" horiz-adv-x="1358" unicode="£"/><glyph d="M160 1156l70 72l144 -144q120 114 277 114t277 -112l140 142l74 -72l-152 -150q76 -116 76 -259t-74 -257l150 -148l-74 -74l-138 142q-120 -116 -280 -116t-278 116l-140 -142l-70 74l146 148q-74 114 -74 257t74 257zM338 746q0 -146 92 -248t221 -102t221 102t92 248 t-92 248t-222 102q-84 0 -156 -47t-114 -128t-42 -175z" horiz-adv-x="1302" unicode="¤"/><glyph d="M160 1546l80 60l546 -734l546 734l80 -60l-544 -730q-12 -32 -20 -66h330v-100h-342v-124h342v-102h-342v-424h-100v424h-346v102h346v124h-346v100h334q-8 34 -18 66z" horiz-adv-x="1572" unicode="¥"/><glyph d="M160 0v424h102v-424h-102zM160 712v894h102v-894h-102z" horiz-adv-x="422" unicode="¦"/><glyph d="M160 196l84 58l30 -42q38 -54 91 -82t169 -28t183 59t67 161q0 60 -30 97t-92 61q-28 0 -179 55t-179 75q-114 76 -114 212t82 212q46 44 116 66q-100 76 -100 206t86 210t260 80q111 0 202 -70q44 -34 76 -84l32 -40l-84 -60l-32 42q-76 110 -194 110q-244 0 -244 -186 q0 -88 61 -127t201 -81q156 -42 220 -84q114 -76 114 -215t-90 -227q-38 -38 -92 -62q82 -74 82 -202t-93 -219t-245 -91t-229 39t-129 115zM292 828q0 -86 59 -126t173 -72t154 -46q98 10 152 67t54 146t-60 128t-145 62t-101 29h-44q-134 0 -192 -58q-50 -44 -50 -130z" horiz-adv-x="1146" unicode="§"/><glyph horiz-adv-x="352" unicode="¨"/><glyph d="M160 500v700h100v100h100v100h600v-100h100v-100h100v-700h-100v-100h-100v-100h-600v100h-100v100h-100zM260 600h100v-100h100v-100h400v100h100v100h100v500h-100v100h-100v100h-400v-100h-100v-100h-100v-500zM460 600v500h100v100h300v-100h-200v-100h-100v-300h100 v-100h200v-100h-300v100h-100z" unicode="©"/><glyph d="M160 400v200h700v-200h-700zM160 800v300h100v100h400v200h-300v-100h-200v100h100v100h500v-100h100v-700h-100v100h-100v-100h-400v100h-100zM260 900h100v-100h300v300h-300v-100h-100v-100z" horiz-adv-x="1020" unicode="ª"/><glyph d="M160 594l362 356v-144l-216 -212l214 -210l2 -146zM480 592l360 358v-144l-214 -212l214 -212v-144z" horiz-adv-x="1000" unicode="«"/><glyph d="M160 266v2q0 28 8 44q16 54 52 58h24q0 2 32 2l108 -2h58q70 -2 100 -36q24 -17 28 -74q-8 -64 -10 -94q-2 -40 -110 -46v38q0 38 6 102z" horiz-adv-x="730" unicode="¬"/><glyph d="M160 556v102h562v-102h-562z" horiz-adv-x="882" unicode="­"/><glyph d="M160 700v600h100v100h100v100h600v-100h100v-100h100v-600h-100v-100h-100v-100h-600v100h-100v100h-100zM260 800h100v-100h100v-100h400v100h100v100h100v400h-100v100h-100v100h-400v-100h-100v-100h-100v-400zM460 700v600h300v-100h-200v-200h200v-100h-200v-200 h-100zM760 700v200h100v-200h-100zM760 1000v200h100v-200h-100z" unicode="®"/><glyph d="M160 586v2q0 34 8 42q16 56 52 58q0 2 11 2h45l342 -4q117 0 154 14h2v-10q0 -24 6 -44l8 -46q0 -14 -38 -18t-180 -4h-36q-206 0 -374 8z" horiz-adv-x="948" unicode="¯"/><glyph horiz-adv-x="288" unicode="°"/><glyph d="M160 -4v102h1006v-102h-1006zM160 556v102h452v552h102v-552h452v-102h-452v-354h-102v354h-452z" horiz-adv-x="1326" unicode="±"/><glyph horiz-adv-x="384" unicode="²"/><glyph horiz-adv-x="386" unicode="³"/><glyph d="M160 568q26 48 106 160l28 36l52 -32q-3 -5 6 -18l76 -44q-6 -20 -22 -48l-82 -126q-10 -16 -23 -22t-48 19t-53 47l-18 18z" horiz-adv-x="588" unicode="´"/><glyph horiz-adv-x="544" unicode="µ"/><glyph horiz-adv-x="570" unicode="¶"/><glyph horiz-adv-x="196" unicode="·"/><glyph horiz-adv-x="456" unicode="¸"/><glyph horiz-adv-x="270" unicode="¹"/><glyph horiz-adv-x="388" unicode="º"/><glyph d="M160 382l214 212l-214 212l2 144l360 -358l-360 -354zM482 238v146l212 210l-212 212v144l358 -356z" horiz-adv-x="1000" unicode="»"/><glyph d="M160 100v200h100v200h100v200h100v200h100v100h100v200h100v200h100v200h100v100h100v-200h-100v-200h-100v-200h-100v-200h-100v-100h-100v-200h-100v-200h-100v-200h-100v-100h-100zM160 1000v100h100v400h-100v100h100v100h200v-600h100v-100h-400zM660 300v200h100 v200h100v100h200v-400h100v-100h-100v-200h-100v200h-300zM860 400h100v200h-100v-200z" unicode="¼"/><glyph d="M160 100v200h100v200h100v200h100v200h100v100h100v200h100v200h100v200h100v100h100v-200h-100v-200h-100v-200h-100v-200h-100v-100h-100v-200h-100v-200h-100v-200h-100v-100h-100zM160 1000v100h100v400h-100v100h100v100h200v-600h100v-100h-400zM660 100v300h100 v100h200v200h-100v-100h-200v100h100v100h300v-100h100v-200h-100v-100h-200v-200h300v-100h-500z" unicode="½"/><glyph d="M160 1100v100h200v-100h100v200h-100v100h100v200h-100v-100h-200v100h100v100h300v-100h100v-200h-100v-100h100v-200h-100v-100h-300v100h-100zM260 100v200h100v200h100v200h100v200h100v100h100v200h100v200h100v200h100v100h100v-200h-100v-200h-100v-200h-100v-200 h-100v-100h-100v-200h-100v-200h-100v-200h-100v-100h-100zM660 300v200h100v200h100v100h200v-400h100v-100h-100v-200h-100v200h-300zM860 400h100v200h-100v-200z" unicode="¾"/><glyph d="M160 399q0 185 92 299q54 66 186 130q52 26 77 44q59 42 59 116v50h98v-50q0 -113 -64 -166t-118 -78q-54 -26 -77 -39t-58 -43q-95 -81 -95 -276q0 -284 360 -284q84 0 160 42t128 120l28 42l82 -58l-28 -40q-68 -98 -165 -153t-205 -55q-234 0 -352 114 q-108 100 -108 285zM518 1509q0 43 25 70t67 27t68 -27t26 -70t-27 -71t-68 -28t-66 28t-25 71z" horiz-adv-x="1178" unicode="¿"/><glyph d="M160 570v100h986v-100h-986zM552 93q0 49 26 77t68 28t67 -28t25 -71t-25 -71t-60 -28t-56 14q-45 30 -45 79zM552 1123q0 43 26 71t68 28t67 -28t25 -71t-25 -71t-67 -28t-68 28t-26 71z" horiz-adv-x="1306" unicode="÷"/><glyph d="M160 1426l286 198l286 -198l-58 -84l-226 152l-228 -152z" horiz-adv-x="892" unicode="ˆ"/><glyph d="M160 366q62 68 102 100l46 40q10 10 18 10h18l4 -2q2 -2 62 -58l44 -40l46 40q60 56 62 58l4 2q12 0 38 -22l16 -16l6 -4q-24 -30 -104 -102l-44 -38q-14 -10 -20 -10h-20l-88 82q-16 13 -20 16l-108 -98h-4q-12 0 -36 22z" horiz-adv-x="786" unicode="˜"/><glyph horiz-adv-x="850"/><glyph horiz-adv-x="1700"/><glyph horiz-adv-x="850"/><glyph horiz-adv-x="1700"/><glyph horiz-adv-x="566"/><glyph horiz-adv-x="425"/><glyph horiz-adv-x="283"/><glyph horiz-adv-x="283"/><glyph horiz-adv-x="212"/><glyph horiz-adv-x="340"/><glyph horiz-adv-x="94"/><glyph d="M160 556v102h562v-102h-562z" horiz-adv-x="882" unicode="‐"/><glyph d="M160 556v102h562v-102h-562z" horiz-adv-x="882" unicode="‑"/><glyph d="M160 556v102h562v-102h-562z" horiz-adv-x="882" unicode="‒"/><glyph horiz-adv-x="594" unicode="–"/><glyph horiz-adv-x="762" unicode="—"/><glyph d="M160 900v400h100v100h100v-200h100v-300h-300zM360 1400v100h100v-100h-100z" horiz-adv-x="620" unicode="‘"/><glyph d="M160 900v100h100v-100h-100zM160 1200v300h300v-400h-100v-100h-100v200h-100z" horiz-adv-x="620" unicode="’"/><glyph d="M160 100v100h100v100h100v200h200v-200h-100v-100h-100v-100h-200z" horiz-adv-x="720" unicode="‚"/><glyph d="M160 900v400h100v100h100v-200h100v-300h-300zM360 1400v100h100v-100h-100zM660 900v400h100v100h100v-200h100v-300h-300zM860 1400v100h100v-100h-100z" horiz-adv-x="1120" unicode="“"/><glyph d="M160 900v100h100v-100h-100zM160 1200v300h300v-400h-100v-100h-100v200h-100zM660 900v100h100v-100h-100zM660 1200v300h300v-400h-100v-100h-100v200h-100z" horiz-adv-x="1120" unicode="”"/><glyph d="M160 100v100h100v100h100v200h200v-200h-100v-100h-100v-100h-200zM560 100v100h100v100h100v200h200v-200h-100v-100h-100v-100h-200z" horiz-adv-x="1120" unicode="„"/><glyph d="M160 700v300h100v100h400v-100h100v-300h-100v-100h-400v100h-100z" horiz-adv-x="920" unicode="•"/><glyph horiz-adv-x="340"/><glyph d="M160 592l360 358v-144l-214 -212l214 -212v-144z" horiz-adv-x="680" unicode="‹"/><glyph d="M160 382l214 212l-214 212l2 144l360 -358l-360 -354z" horiz-adv-x="682" unicode="›"/><glyph horiz-adv-x="425"/><glyph d="M160 1400v100h600v-100h100v-100h-100v-400h-100v500h-200v-500h-100v500h-200zM860 1200v100h100v-100h-100zM960 1300v100h100v100h100v-600h-100v400h-100z" unicode="™"/><glyph d="M0 0v1185h1185v-1185h-1185z" horiz-adv-x="1185" unicode="◼"/></font>
</defs>
</svg>
