<?xml version="1.0" standalone="no"?>
<!DOCTYPE svg PUBLIC "-//W3C//DTD SVG 1.1//EN" "http://www.w3.org/Graphics/SVG/1.1/DTD/svg11.dtd" >
<svg xmlns="http://www.w3.org/2000/svg" xmlns:xlink="http://www.w3.org/1999/xlink" version="1.1">
<metadata></metadata>
<defs>
<font id="vip_hakm_thinvip_hakm" horiz-adv-x="0" >
<font-face units-per-em="2048" ascent="1638" descent="-410" />
<missing-glyph horiz-adv-x="400" />
<glyph unicode="&#xfedf;&#xfee0;&#xfeea;" horiz-adv-x="2374" arabic-form="isolated" d="M1636 1852h8q26 4 41 21t15 39v132l24 2v-134q0 -28 -20 -54t-56 -30h-10q-26 0 -78 32v-30q-24 -32 -60 -36h-12q-28 0 -52 20q-30 20 -34 52v50l24 2v-48q4 -26 24 -38q14 -14 38 -14h8q26 2 42 23t16 39v96l20 2v-74q13 -52 62 -52zM1554 2066v100l20 2v-102h-20z M742 20q-234 0 -398 165t-164 398t164 398t398 165h250v-1062h538v1502h64v-1502h536v1502h64v-1566h-1452zM930 84v996h-188q-206 0 -353 -147t-147 -354t145 -351t343 -144h200z" />
<glyph unicode="&#xfedf;&#xfe82;" horiz-adv-x="1414" arabic-form="isolated" d="M600 1690q27 0 45 -13l41 -31q44 -40 66 -40h4q32 6 60 74l8 16l30 -16l-8 -18q-34 -84 -78 -96h-16q-30 0 -80 42t-70 42h-4q-26 -4 -48 -56l-8 -18l-30 16l8 20q28 68 66 78h14zM1170 84v1502h64v-1566h-1054v64h990zM640 228v1106h62v-1106h-62z" />
<glyph unicode="&#xfee0;&#xfe82;" horiz-adv-x="1512" arabic-form="final" d="M600 1690q27 0 45 -13l41 -31q44 -40 66 -40h4q32 6 60 74l8 16l30 -16l-8 -18q-34 -84 -78 -96h-16q-30 0 -80 42t-70 42h-4q-26 -4 -48 -56l-8 -18l-30 16l8 20q28 68 66 78h14zM640 228v1106h62v-1106h-62zM1170 84v1502h64v-1502h282v-64h-1336v64h990z" />
<glyph unicode="&#xfedf;&#xfe84;" horiz-adv-x="1414" arabic-form="isolated" d="M640 228v1106h62v-1106h-62zM554 1704q0 50 39 89t91 39t90 -34l-12 -38q-4 2 -6 4q-30 30 -69 30t-67 -28t-28 -67t27 -66t61 -29h112v-48h-252v48h52q-38 50 -38 100zM1170 84v1502h64v-1566h-1054v64h990z" />
<glyph unicode="&#xfee0;&#xfe84;" horiz-adv-x="1512" arabic-form="final" d="M640 228v1106h62v-1106h-62zM554 1704q0 50 39 89t91 39t90 -34l-12 -38q-4 2 -6 4q-30 30 -69 30t-67 -28t-28 -67t27 -66t61 -29h112v-48h-252v48h52q-38 50 -38 100zM1170 84v1502h64v-1502h282v-64h-1336v64h990z" />
<glyph unicode="&#xfedf;&#xfe88;" horiz-adv-x="1414" arabic-form="isolated" d="M640 228v1106h62v-1106h-62zM1170 84v1502h64v-1566h-1054v64h990zM536 -188v48h254v-48h-114q-32 -2 -59 -29t-27 -65t28 -66t66 -28t64 26q2 0 12 8l12 -38q-40 -34 -91 -34t-90 39t-39 88t40 99h-56z" />
<glyph unicode="&#xfee0;&#xfe88;" horiz-adv-x="1512" arabic-form="final" d="M640 228v1106h62v-1106h-62zM536 -188v48h254v-48h-114q-32 -2 -59 -29t-27 -65t28 -66t66 -28t64 26q2 0 12 8l12 -38q-40 -34 -91 -34t-90 39t-39 88t40 99h-56zM1170 84v1502h64v-1502h282v-64h-1336v64h990z" />
<glyph unicode="&#xfedf;&#xfe8e;" horiz-adv-x="1414" arabic-form="isolated" d="M640 228v1106h62v-1106h-62zM1170 84v1502h64v-1566h-1054v64h990z" />
<glyph unicode="&#xfee0;&#xfe8e;" horiz-adv-x="1512" arabic-form="final" d="M640 228v1106h62v-1106h-62zM1170 84v1502h64v-1502h282v-64h-1336v64h990z" />
<glyph unicode="&#xfe8e;&#x64b;" horiz-adv-x="520" d="M366 2028l-318 -102l-8 22l320 102zM382 1886l-320 -100l-6 20l318 102zM242 84h282v-64h-344v1566h62v-1502z" />
<glyph unicode="&#x627;&#x64b;" horiz-adv-x="422" d="M370 2028l-318 -102l-8 22l320 102zM386 1886l-320 -100l-6 20l318 102zM180 20v1566h62v-1566h-62z" />
<glyph unicode="&#x671;" horiz-adv-x="520" arabic-form="final" d="M72 1808v256h24v-98q68 68 124 68t99 -42t43 -102v-104h-322v22h32zM96 1808h242v82q0 50 -36 86t-77 36t-68 -17q-61 -38 -61 -105v-82zM242 84h282v-64h-344v1566h62v-1502z" />
<glyph unicode="&#x67e;" horiz-adv-x="1804" arabic-form="final" d="M1122 -322v102h84v-102h-84zM1036 -518v-102h-80v102h80zM782 -322v102h84v-102h-84zM1462 84v1062h64v-1062h282v-64h-856q-313 4 -538 180q-108 88 -171 203t-63 243v318h62v-318q0 -232 213 -397t509 -165h498z" />
<glyph unicode="&#x67e;" horiz-adv-x="600" arabic-form="initial" d="M248 -518v-102h-78v102h78zM336 -322v102h84v-102h-84zM-4 -322v102h84v-102h-84zM292 1146h62v-1126h-342v64h280v1062z" />
<glyph unicode="&#x67e;" horiz-adv-x="618" arabic-form="medial" d="M438 -322v102h84v-102h-84zM352 -518v-102h-80v102h80zM276 84v1062h64v-1062h282v-64h-626v64h280zM98 -322v102h84v-102h-84z" />
<glyph unicode="&#x6a4;" horiz-adv-x="2350" arabic-form="final" d="M1640 1480v-104h-78v104h78zM1980 1480v-104h-78v104h78zM1730 1674v104h80v-104h-80zM1262 583q0 233 164 398t398 165h250v-1062h280v-64h-1402q-313 4 -538 180q-108 88 -171 203t-63 243v318h62v-318q0 -232 213 -397t509 -165h590q-92 66 -128 102 q-164 164 -164 397zM2012 1080h-188q-206 0 -353 -147t-147 -354t148 -353q120 -120 284 -142h256v996z" />
<glyph unicode="&#x6a4;" horiz-adv-x="1248" arabic-form="initial" d="M986 1480v-104h-78v104h78zM646 1480v-104h-78v104h78zM736 1674v104h80v-104h-80zM256 583q0 233 164 398t396 165h252v-1126h-1072v64h552q-92 66 -128 102q-164 164 -164 397zM1004 84v996h-188q-206 0 -352 -147t-146 -354t146 -353q120 -120 286 -142h254z" />
<glyph unicode="&#x6a4;" horiz-adv-x="1342" arabic-form="medial" d="M646 1480v-104h-78v104h78zM986 1480v-104h-78v104h78zM-4 20v64h552q-92 66 -128 102q-164 164 -164 397t164 398t396 165h252v-1062h278v-64h-1350zM736 1674v104h80v-104h-80zM1004 84v996h-188q-206 0 -352 -147t-146 -354t146 -353q120 -120 286 -142h254z" />
<glyph unicode="&#x686;" horiz-adv-x="1674" arabic-form="final" d="M1060 -322v102h84v-102h-84zM974 -518v-102h-80v102h80zM720 -322v102h84v-102h-84zM1396 188q0 -104 82 -104h200v-64h-1040q-174 0 -251 -41q-97 -52 -131 -165q-12 -52 -12 -100q0 -106 68 -196q98 -130 310 -186l88 -22l-10 -60l-94 26q-248 66 -356 224 q-70 101 -70 220q0 56 16 108q24 98 85 152t153 78q84 26 272 26h652q-24 60 -24 104v430q0 206 -148 352t-353 146t-353 -146t-148 -352v-54h-62v54q0 230 165 395t398 165t398 -165t165 -395v-430z" />
<glyph unicode="&#x686;" horiz-adv-x="1634" arabic-form="initial" d="M1332 188v430q0 206 -148 352t-353 146t-353 -146t-148 -352v-54h-62v54q0 230 165 395t398 165t398 -165t165 -395v-430q0 -58 26 -84l22 -20h12v-64h-1458v64h1360q-24 60 -24 104zM832 -518v-102h-78v102h78zM920 -322v102h84v-102h-84zM580 -322v102h84v-102h-84z " />
<glyph unicode="&#x686;" horiz-adv-x="1672" arabic-form="medial" d="M920 -322v102h84v-102h-84zM832 -518v-102h-78v102h78zM1394 188q0 -104 82 -104h200v-64h-1680v64h1360q-24 60 -24 104v430q0 206 -148 352t-353 146t-353 -146t-148 -352v-54h-62v54q0 230 165 395t398 165t398 -165t165 -395v-430zM580 -322v102h84v-102h-84z" />
<glyph unicode="&#x698;" horiz-adv-x="756" arabic-form="final" d="M598 1378v102h80v-102h-80zM258 1378v102h80v-102h-80zM428 1676v102h78v-102h-78zM438 -90v1236h62v-1062h260v-64h-260v-110q0 -136 -112 -232q-100 -80 -208 -90v62q86 10 172 80t86 180z" />
<glyph unicode="&#x6a9;" horiz-adv-x="2064" arabic-form="final" d="M1726 84v288q0 206 -146 350t-344 148h-276v112l636 576l-6 -90l-590 -536h236q226 -4 389 -166t163 -394v-288h280v-64h-1116q-313 4 -538 180q-108 88 -171 203t-63 243v318h62v-318q0 -232 213 -397t509 -165h762z" />
<glyph unicode="&#x6a9;" horiz-adv-x="1284" arabic-form="initial" d="M1104 372v-352h-1108v64h1046v288q0 206 -146 350t-344 148h-276v110l636 578l-6 -90l-590 -536h236q226 -4 389 -166t163 -394z" />
<glyph unicode="&#x6a9;" horiz-adv-x="1380" arabic-form="medial" d="M-4 20v64h1046v288q0 206 -146 350t-344 148h-276v112l636 576l-6 -90l-590 -536h236q226 -4 389 -166t163 -394v-288h280v-64h-1388z" />
<glyph unicode="&#x6af;" horiz-adv-x="2064" arabic-form="final" d="M1726 84v288q0 206 -146 350t-344 148h-276v112l636 576l-6 -90l-590 -536h236q226 -4 389 -166t163 -394v-288h280v-64h-1116q-313 4 -538 180q-108 88 -171 203t-63 243v318h62v-318q0 -232 213 -397t509 -165h762zM1426 1698l-6 -90l-542 -492l-64 24z" />
<glyph unicode="&#x6af;" horiz-adv-x="1284" arabic-form="initial" d="M742 1698l-6 -90l-542 -492l-64 24zM1104 372v-352h-1108v64h1046v288q0 206 -146 350t-344 148h-276v110l636 578l-6 -90l-590 -536h236q226 -4 389 -166t163 -394z" />
<glyph unicode="&#x6af;" horiz-adv-x="1380" arabic-form="medial" d="M742 1698l-6 -90l-542 -492l-64 24zM-4 20v64h1046v288q0 206 -146 350t-344 148h-276v112l636 576l-6 -90l-590 -536h236q226 -4 389 -166t163 -394v-288h280v-64h-1388z" />
<glyph unicode="&#x6c1;" horiz-adv-x="1172" arabic-form="final" d="M742 20q-234 0 -398 165t-164 398t164 398t398 165h250v-1126h-250zM930 84v996h-188q-206 0 -353 -147t-147 -354t145 -351t343 -144h200z" />
<glyph unicode="&#x6c1;" horiz-adv-x="1458" arabic-form="initial" d="M936 422q0 152 -103 246t-208 94t-209 -94t-104 -246t104 -246q88 -82 208 -92q120 10 216 98t96 240zM-4 20v64h438q-54 42 -60 46q-124 110 -124 291t122 292t252 111t252 -111t122 -292t-120 -289l-64 -48h402v538q0 206 -147 352t-353 146t-340 -132l-44 44 q150 150 383 150t398 -165t165 -395v-602h-1282z" />
<glyph unicode="&#x6c1;" horiz-adv-x="1556" arabic-form="medial" d="M-4 20v64h438q-54 42 -60 46q-124 110 -124 291t122 292t252 111t252 -111t122 -292t-120 -289l-64 -48h402v538q0 206 -147 352t-353 146t-340 -132l-44 44q150 150 383 150t398 -165t165 -395v-538h282v-64h-1564zM936 422q0 152 -103 246t-208 94t-209 -94t-104 -246 t104 -246q88 -82 208 -92q120 10 216 98t96 240z" />
<glyph unicode="&#x6be;" horiz-adv-x="1270" arabic-form="final" />
<glyph unicode="&#x6be;" horiz-adv-x="1248" arabic-form="initial" d="M742 20q-234 0 -398 165t-164 398t164 398t398 165h250v-1062h260v-64h-510zM930 84v996h-188q-206 0 -353 -147t-147 -354t145 -351t343 -144h200z" />
<glyph unicode="&#x6cc;" horiz-adv-x="2220" arabic-form="final" d="M1882 20v694q0 102 -45 186t-124 134t-171 50h-116v-1064h-474q-313 4 -538 180q-108 88 -171 203t-63 243v318h62v-318q0 -232 213 -397t509 -165h398v1062h180q168 0 285 -127t117 -305v-630h280v-64h-342z" />
<glyph unicode="&#x6cc;" horiz-adv-x="638" arabic-form="initial" d="M40 -322v102h78v-102h-78zM380 -322v102h78v-102h-78zM276 1146h62v-1126h-342v64h280v1062z" />
<glyph unicode="&#x6cc;" horiz-adv-x="618" arabic-form="medial" d="M98 -322v102h80v-102h-80zM438 -322v102h80v-102h-80zM340 84h282v-64h-626v64h280v1062h64v-1062z" />
<glyph unicode="&#xfc5e;" horiz-adv-x="362" arabic-form="isolated" d="M-94 1652q45 18 67 18q47 0 57 -52l8 -36q4 -18 18 -32q16 -8 32 -8t52 16l42 16q-56 44 -67 77t-11 61t14 60q26 56 82 80q26 10 53 10t55 -12q54 -24 76 -80q8 -28 8 -56q0 -74 -62 -120q-32 -26 -150 -44l-32 -14q-38 -16 -62 -16t-35 6t-22 16t-17 49.5t-26 54.5h-14 q-10 0 -58 -16zM254 1840q-24 0 -48 -10q-50 -18 -68 -68q-12 -28 -12 -52t8 -44q26 -80 106 -80q26 0 50 10q50 20 68 68q12 28 12 50t-6 46q-18 48 -64 70q-22 10 -46 10zM254 1270h8q26 2 41 20t15 40v130l24 4v-134q0 -28 -20 -54t-56 -30h-10q-26 0 -78 32v-32 q-29 -36 -64.5 -36t-62.5 21t-31 51v50l24 2v-48q8 -50 62 -50h8q26 2 44 22q14 22 14 40v96l20 2v-74q12 -52 62 -52z" />
<glyph unicode="&#xfc5f;" horiz-adv-x="362" arabic-form="isolated" d="M350 1438l-318 -102l-8 22l320 102zM366 1296l-320 -100l-6 20l318 102zM254 1570h8q26 2 41 20t15 40v130l24 4v-134q0 -28 -20 -54t-56 -30h-10q-26 0 -78 32v-32q-29 -36 -64.5 -36t-62.5 21t-31 51v50l24 2v-48q8 -50 62 -50h8q26 2 44 22q14 22 14 40v96l20 2v-74 q12 -52 62 -52z" />
<glyph unicode="&#xfc60;" horiz-adv-x="362" arabic-form="isolated" d="M346 1576l-320 -100l-6 20l318 102zM254 1270h8q26 2 41 20t15 40v130l24 4v-134q0 -28 -20 -54t-56 -30h-10q-26 0 -78 32v-32q-29 -36 -64.5 -36t-62.5 21t-31 51v50l24 2v-48q8 -50 62 -50h8q26 2 44 22q14 22 14 40v96l20 2v-74q12 -52 62 -52z" />
<glyph unicode="&#xfc61;" horiz-adv-x="362" arabic-form="isolated" d="M76 1703q0 63 42 107t101 44t100 -44t41 -96q0 -116 -96 -154l-232 -74l-8 24l152 48q-50 32 -58 40q-42 42 -42 105zM217 1832q-51 0 -85 -38t-34 -90t34 -91t85 -39t89 38q34 40 34 92t-34 90q-38 38 -89 38zM254 1270h8q26 2 41 20t15 40v130l24 4v-134q0 -28 -20 -54 t-56 -30h-10q-26 0 -78 32v-32q-29 -36 -64.5 -36t-62.5 21t-31 51v50l24 2v-48q8 -50 62 -50h8q26 2 44 22q14 22 14 40v96l20 2v-74q12 -52 62 -52z" />
<glyph unicode="&#xfc62;" horiz-adv-x="362" arabic-form="isolated" d="M350 1438l-318 -102l-8 22l320 102zM254 1570h8q26 2 41 20t15 40v130l24 4v-134q0 -28 -20 -54t-56 -30h-10q-26 0 -78 32v-32q-29 -36 -64.5 -36t-62.5 21t-31 51v50l24 2v-48q8 -50 62 -50h8q26 2 44 22q14 22 14 40v96l20 2v-74q12 -52 62 -52z" />
<glyph unicode="&#x622;" horiz-adv-x="520" arabic-form="final" d="M128 1900q27 0 45 -13l41 -31q44 -40 66 -40h4q32 6 60 74l8 16l30 -16l-8 -18q-34 -84 -78 -96h-16q-30 0 -80 42t-70 42h-4q-26 -4 -48 -56l-8 -18l-30 16l8 20q28 68 66 78h14zM242 84h282v-64h-344v1566h62v-1502z" />
<glyph unicode="&#x623;" horiz-adv-x="520" arabic-form="final" d="M96 1914q0 50 39 89t90 39t91 -34l-12 -38q-8 4 -10 6q-28 28 -66 28t-66 -28t-28 -67t27 -66t59 -29h114v-48h-254v48h54q-38 50 -38 100zM242 84h282v-64h-344v1566h62v-1502z" />
<glyph unicode="&#x624;" horiz-adv-x="1248" arabic-form="final" d="M322 1454q0 50 39 89t91 39t90 -34l-12 -38q-4 2 -6 4q-30 30 -69 30t-67 -28t-28 -67t27 -66t61 -29h112v-48h-252v48h52q-38 50 -38 100zM992 20v-110q0 -136 -112 -232q-116 -94 -272 -94q-100 0 -186 40t-140 112l-18 24l50 38l18 -24q102 -128 276 -128 q134 0 228 77t94 187v110h-188q-234 0 -398 165t-164 398t164 398t398 165h250v-1062h260v-64h-260zM930 84v996h-188q-206 0 -353 -147t-147 -354t145 -351t343 -144h200z" />
<glyph unicode="&#x625;" horiz-adv-x="520" arabic-form="final" d="M180 -186v48h252v-48h-112q-34 -2 -61 -29t-27 -66t28 -67t67 -28t69 30q2 2 6 4l12 -38q-38 -34 -90 -34t-91 39t-39 89t38 100h-52zM242 84h282v-64h-344v1566h62v-1502z" />
<glyph unicode="&#x626;" horiz-adv-x="2220" arabic-form="final" d="M196 1454q0 50 39 89t90 39t91 -34l-12 -38q-8 4 -10 6q-28 28 -66 28t-66 -28t-28 -67t27 -66t59 -29h114v-48h-254v48h54q-38 50 -38 100zM1882 20v694q0 102 -45 186t-124 134t-171 50h-116v-1064h-474q-313 4 -538 180q-108 88 -171 203t-63 243v318h62v-318 q0 -232 213 -397t509 -165h398v1062h180q168 0 285 -127t117 -305v-630h280v-64h-342z" />
<glyph unicode="&#x626;" horiz-adv-x="520" arabic-form="initial" d="M98 1454q0 50 39 89t90 39t91 -34l-12 -38q-8 4 -10 6q-28 28 -66 28t-66 -28t-28 -67t27 -66t59 -29h114v-48h-254v48h54q-38 50 -38 100zM276 1146h64v-1126h-344v64h280v1062z" />
<glyph unicode="&#x626;" horiz-adv-x="618" arabic-form="medial" d="M188 1454q0 50 39 89t90 39t91 -34l-12 -38q-8 4 -10 6q-28 28 -66 28t-66 -28t-28 -67t27 -66t59 -29h114v-48h-254v48h54q-38 50 -38 100zM340 84h282v-64h-626v64h280v1062h64v-1062z" />
<glyph unicode="&#x627;" horiz-adv-x="520" arabic-form="final" d="M242 84h282v-64h-344v1566h62v-1502z" />
<glyph unicode="&#x628;" horiz-adv-x="1804" arabic-form="final" d="M932 -324v102h78v-102h-78zM1462 84v1062h64v-1062h282v-64h-856q-313 4 -538 180q-108 88 -171 203t-63 243v318h62v-318q0 -232 213 -397t509 -165h498z" />
<glyph unicode="&#x628;" horiz-adv-x="518" arabic-form="initial" d="M260 -322v102h78v-102h-78zM276 1146h62v-1126h-342v64h280v1062z" />
<glyph unicode="&#x628;" horiz-adv-x="618" arabic-form="medial" d="M268 -324v102h78v-102h-78zM340 84h282v-64h-626v64h280v1062h64v-1062z" />
<glyph unicode="&#x629;" horiz-adv-x="1248" arabic-form="final" d="M874 1378v102h80v-102h-80zM534 1378v102h80v-102h-80zM742 20q-234 0 -398 165t-164 398t164 398t398 165h250v-1062h260v-64h-510zM930 84v996h-188q-206 0 -353 -147t-147 -354t145 -351t343 -144h200z" />
<glyph unicode="&#x62a;" horiz-adv-x="1804" arabic-form="final" d="M1024 1378v102h80v-102h-80zM704 1378v102h80v-102h-80zM1462 84v1062h64v-1062h282v-64h-856q-313 4 -538 180q-108 88 -171 203t-63 243v318h62v-318q0 -232 213 -397t509 -165h498z" />
<glyph unicode="&#x62a;" horiz-adv-x="698" arabic-form="initial" d="M98 1378v102h80v-102h-80zM438 1378v102h80v-102h-80zM276 1146h62v-1126h-342v64h280v1062z" />
<glyph unicode="&#x62a;" horiz-adv-x="618" arabic-form="medial" d="M98 1378v102h80v-102h-80zM438 1378v102h80v-102h-80zM340 84h282v-64h-626v64h280v1062h64v-1062z" />
<glyph unicode="&#x62b;" horiz-adv-x="1804" arabic-form="final" d="M1024 1378v102h80v-102h-80zM684 1378v102h80v-102h-80zM1462 84v1062h64v-1062h282v-64h-856q-313 4 -538 180q-108 88 -171 203t-63 243v318h62v-318q0 -232 213 -397t509 -165h498zM854 1676v102h78v-102h-78z" />
<glyph unicode="&#x62b;" horiz-adv-x="696" arabic-form="initial" d="M98 1376v104h78v-104h-78zM438 1376v104h78v-104h-78zM266 1674v104h80v-104h-80zM276 1146h62v-1126h-342v64h280v1062z" />
<glyph unicode="&#x62b;" horiz-adv-x="618" arabic-form="medial" d="M98 1378v102h80v-102h-80zM438 1378v102h80v-102h-80zM268 1676v102h78v-102h-78zM340 84h282v-64h-626v64h280v1062h64v-1062z" />
<glyph unicode="&#x62c;" horiz-adv-x="1674" arabic-form="final" d="M1396 188q0 -104 82 -104h200v-64h-1040q-174 0 -251 -41q-97 -52 -131 -165q-12 -52 -12 -100q0 -106 68 -196q98 -130 310 -186l88 -22l-10 -60l-94 26q-248 66 -356 224q-70 101 -70 220q0 56 16 108q24 98 85 152t153 78q84 26 272 26h652q-24 60 -24 104v430 q0 206 -148 352t-353 146t-353 -146t-148 -352v-54h-62v54q0 230 165 395t398 165t398 -165t165 -395v-430zM772 -322v102h78v-102h-78z" />
<glyph unicode="&#x62c;" horiz-adv-x="1634" arabic-form="initial" d="M770 -322v102h78v-102h-78zM1332 188v430q0 206 -148 352t-353 146t-353 -146t-148 -352v-54h-62v54q0 230 165 395t398 165t398 -165t165 -395v-430q0 -58 26 -84l22 -20h12v-64h-1458v64h1360q-24 60 -24 104z" />
<glyph unicode="&#x62c;" horiz-adv-x="1672" arabic-form="medial" d="M1394 188q0 -104 82 -104h200v-64h-1680v64h1360q-24 60 -24 104v430q0 206 -148 352t-353 146t-353 -146t-148 -352v-54h-62v54q0 230 165 395t398 165t398 -165t165 -395v-430zM770 -322v102h78v-102h-78z" />
<glyph unicode="&#x62d;" horiz-adv-x="1674" arabic-form="final" d="M1396 188q0 -104 82 -104h200v-64h-1040q-174 0 -251 -41q-97 -52 -131 -165q-12 -52 -12 -100q0 -106 68 -196q98 -130 310 -186l88 -22l-10 -60l-94 26q-248 66 -356 224q-70 101 -70 220q0 56 16 108q24 98 85 152t153 78q84 26 272 26h652q-24 60 -24 104v430 q0 206 -148 352t-353 146t-353 -146t-148 -352v-54h-62v54q0 230 165 395t398 165t398 -165t165 -395v-430z" />
<glyph unicode="&#x62d;" horiz-adv-x="1634" arabic-form="initial" d="M1332 188v430q0 206 -148 352t-353 146t-353 -146t-148 -352v-54h-62v54q0 230 165 395t398 165t398 -165t165 -395v-430q0 -58 26 -84l22 -20h12v-64h-1458v64h1360q-24 60 -24 104z" />
<glyph unicode="&#x62d;" horiz-adv-x="1672" arabic-form="medial" d="M1394 188q0 -104 82 -104h200v-64h-1680v64h1360q-24 60 -24 104v430q0 206 -148 352t-353 146t-353 -146t-148 -352v-54h-62v54q0 230 165 395t398 165t398 -165t165 -395v-430z" />
<glyph unicode="&#x62e;" horiz-adv-x="1674" arabic-form="final" d="M788 1386v102h80v-102h-80zM1396 188q0 -104 82 -104h200v-64h-1040q-174 0 -251 -41q-97 -52 -131 -165q-12 -52 -12 -100q0 -106 68 -196q98 -130 310 -186l88 -22l-10 -60l-94 26q-248 66 -356 224q-70 101 -70 220q0 56 16 108q24 98 85 152t153 78q84 26 272 26h652 q-24 60 -24 104v430q0 206 -148 352t-353 146t-353 -146t-148 -352v-54h-62v54q0 230 165 395t398 165t398 -165t165 -395v-430z" />
<glyph unicode="&#x62e;" horiz-adv-x="1634" arabic-form="initial" d="M1332 188v430q0 206 -148 352t-353 146t-353 -146t-148 -352v-54h-62v54q0 230 165 395t398 165t398 -165t165 -395v-430q0 -58 26 -84l22 -20h12v-64h-1458v64h1360q-24 60 -24 104zM786 1386v102h80v-102h-80z" />
<glyph unicode="&#x62e;" horiz-adv-x="1672" arabic-form="medial" d="M1394 188q0 -104 82 -104h200v-64h-1680v64h1360q-24 60 -24 104v430q0 206 -148 352t-353 146t-353 -146t-148 -352v-54h-62v54q0 230 165 395t398 165t398 -165t165 -395v-430zM786 1386v102h80v-102h-80z" />
<glyph unicode="&#x62f;" horiz-adv-x="1240" arabic-form="final" d="M180 20v64h720v538q0 206 -147 352t-333 146v62q212 0 377 -165t165 -395v-538h282v-64h-1064z" />
<glyph unicode="&#x630;" horiz-adv-x="1240" arabic-form="final" d="M180 20v64h720v538q0 206 -147 352t-333 146v62q212 0 377 -165t165 -395v-538h282v-64h-1064zM514 1378v102h80v-102h-80z" />
<glyph unicode="&#x631;" horiz-adv-x="756" arabic-form="final" d="M438 -90v1236h62v-1062h260v-64h-260v-110q0 -136 -112 -232q-100 -80 -208 -90v62q86 10 172 80t86 180z" />
<glyph unicode="&#x632;" horiz-adv-x="756" arabic-form="final" d="M434 1368v102h80v-102h-80zM438 -90v1236h62v-1062h260v-64h-260v-110q0 -136 -112 -232q-100 -80 -208 -90v62q86 10 172 80t86 180z" />
<glyph unicode="&#x633;" horiz-adv-x="2664" arabic-form="final" d="M1242 1142h64v-1058h478v1058h62v-1058h480v1062h62v-1062h280v-64h-1362v-350h-354q-313 4 -538 180q-108 88 -171 203t-63 243v318h62v-318q0 -232 213 -397t509 -165h278v1408z" />
<glyph unicode="&#x633;" horiz-adv-x="1602" arabic-form="initial" d="M276 84v1058h64v-1058h478v1058h62v-1058h480v1058h62v-1122h-1426v64h280z" />
<glyph unicode="&#x633;" horiz-adv-x="1698" arabic-form="medial" d="M-4 20v64h280v1058h64v-1058h478v1058h62v-1058h480v1062h62v-1062h280v-64h-1706z" />
<glyph unicode="&#x634;" horiz-adv-x="2664" arabic-form="final" d="M1606 1338v102h78v-102h-78zM1946 1338v102h78v-102h-78zM1242 1142h64v-1058h478v1058h62v-1058h480v1062h62v-1062h280v-64h-1362v-350h-354q-313 4 -538 180q-108 88 -171 203t-63 243v318h62v-318q0 -232 213 -397t509 -165h278v1408zM1774 1656v102h80v-102h-80z " />
<glyph unicode="&#x634;" horiz-adv-x="1602" arabic-form="initial" d="M640 1378v102h78v-102h-78zM980 1378v102h78v-102h-78zM808 1676v102h80v-102h-80zM276 84v1058h64v-1058h478v1058h62v-1058h480v1058h62v-1122h-1426v64h280z" />
<glyph unicode="&#x634;" horiz-adv-x="1698" arabic-form="medial" d="M980 1338v102h78v-102h-78zM640 1338v102h78v-102h-78zM-4 20v64h280v1058h64v-1058h478v1058h62v-1058h480v1062h62v-1062h280v-64h-1706zM808 1636v102h80v-102h-80z" />
<glyph unicode="&#x635;" horiz-adv-x="2644" arabic-form="final" d="M1242 1178h62v-292q66 90 104 128q164 164 397 164t398 -164t165 -398v-532h280v-64h-1342v-350h-354q-313 4 -538 180q-108 88 -171 203t-63 243v318h62v-318q0 -232 213 -397t509 -165h278v1444zM1306 84h1000v532q0 208 -147 354t-353 146q-138 0 -252 -67t-178 -174 t-70 -227v-564z" />
<glyph unicode="&#x635;" horiz-adv-x="1580" arabic-form="initial" d="M336 84h1002v532q0 208 -147 354t-353 146q-138 0 -252 -67t-182 -181t-68 -252v-532zM192 84q82 0 82 102v992h62v-292q66 90 104 128q164 164 397 164t398 -164t165 -398v-596h-1404v64h196z" />
<glyph unicode="&#x635;" horiz-adv-x="1676" arabic-form="medial" d="M192 84q82 0 82 102v992h62v-292q66 90 104 128q164 164 397 164t398 -164t165 -398v-532h280v-64h-1684v64h196zM336 84h1002v532q0 208 -147 354t-353 146q-138 0 -252 -67t-182 -181t-68 -252v-532z" />
<glyph unicode="&#x636;" horiz-adv-x="2644" arabic-form="final" d="M1242 1178h62v-292q66 90 104 128q164 164 397 164t398 -164t165 -398v-532h280v-64h-1342v-350h-354q-313 4 -538 180q-108 88 -171 203t-63 243v318h62v-318q0 -232 213 -397t509 -165h278v1444zM1306 84h1000v532q0 208 -147 354t-353 146q-138 0 -252 -67t-178 -174 t-70 -227v-564zM1774 1378v102h80v-102h-80z" />
<glyph unicode="&#x636;" horiz-adv-x="1580" arabic-form="initial" d="M806 1378v102h80v-102h-80zM336 84h1002v532q0 208 -147 354t-353 146q-138 0 -252 -67t-182 -181t-68 -252v-532zM192 84q82 0 82 102v992h62v-292q66 90 104 128q164 164 397 164t398 -164t165 -398v-596h-1404v64h196z" />
<glyph unicode="&#x636;" horiz-adv-x="1676" arabic-form="medial" d="M806 1378v102h80v-102h-80zM192 84q82 0 82 102v992h62v-292q66 90 104 128q164 164 397 164t398 -164t165 -398v-532h280v-64h-1684v64h196zM336 84h1002v532q0 208 -147 354t-353 146q-138 0 -252 -67t-182 -181t-68 -252v-532z" />
<glyph unicode="&#x637;" horiz-adv-x="1730" arabic-form="final" d="M246 84q82 0 82 102v1400h62v-700q66 90 104 128q164 164 397 164t398 -164t165 -398v-532h280v-64h-1554v64h66zM390 84h1002v532q0 208 -147 354t-353 146q-138 0 -252 -67t-182 -181t-68 -252v-532z" />
<glyph unicode="&#x637;" horiz-adv-x="1580" arabic-form="initial" d="M336 84h1002v532q0 208 -147 354t-353 146q-138 0 -252 -67t-182 -181t-68 -252v-532zM192 84q82 0 82 102v1400h62v-700q66 90 104 128q164 164 397 164t398 -164t165 -398v-596h-1404v64h196z" />
<glyph unicode="&#x637;" horiz-adv-x="1676" arabic-form="medial" d="M192 84q82 0 82 102v1400h62v-700q66 90 104 128q164 164 397 164t398 -164t165 -398v-532h280v-64h-1684v64h196zM336 84h1002v532q0 208 -147 354t-353 146q-138 0 -252 -67t-182 -181t-68 -252v-532z" />
<glyph unicode="&#x638;" horiz-adv-x="1730" arabic-form="final" d="M860 1378v102h80v-102h-80zM246 84q82 0 82 102v1400h62v-700q66 90 104 128q164 164 397 164t398 -164t165 -398v-532h280v-64h-1554v64h66zM390 84h1002v532q0 208 -147 354t-353 146q-138 0 -252 -67t-182 -181t-68 -252v-532z" />
<glyph unicode="&#x638;" horiz-adv-x="1580" arabic-form="initial" d="M806 1378v102h80v-102h-80zM336 84h1002v532q0 208 -147 354t-353 146q-138 0 -252 -67t-182 -181t-68 -252v-532zM192 84q82 0 82 102v1400h62v-700q66 90 104 128q164 164 397 164t398 -164t165 -398v-596h-1404v64h196z" />
<glyph unicode="&#x638;" horiz-adv-x="1676" arabic-form="medial" d="M806 1378v102h80v-102h-80zM192 84q82 0 82 102v1400h62v-700q66 90 104 128q164 164 397 164t398 -164t165 -398v-532h280v-64h-1684v64h196zM336 84h1002v532q0 208 -147 354t-353 146q-138 0 -252 -67t-182 -181t-68 -252v-532z" />
<glyph unicode="&#x639;" horiz-adv-x="1522" arabic-form="final" d="M638 20q-174 0 -251 -41q-97 -52 -131 -165q-12 -52 -12 -100q0 -106 68 -196q98 -130 310 -186l88 -22l-10 -60l-94 26q-248 66 -356 224q-70 101 -70 220q0 56 16 108q24 98 85 152q94 83 269 98h66q-86 70 -124 108q-166 164 -166 397t165 398t385 165t366 -128 l-8 -76q-142 142 -347 142t-352 -148t-147 -353t140 -346t322 -153h676v-64h-888z" />
<glyph unicode="&#x639;" horiz-adv-x="1452" arabic-form="initial" d="M833 1084q-205 0 -352 -148t-147 -353t140 -346t322 -153h476v-64h-1276v64h570q-92 66 -128 102q-166 164 -166 397t165 398t385 165t366 -128l-8 -76q-142 142 -347 142z" />
<glyph unicode="&#x639;" horiz-adv-x="1466" arabic-form="medial" d="M1470 84v-64h-1474v64h570q-92 66 -128 102q-166 164 -166 397t165 398t385 165t366 -128l-8 -76q-142 142 -347 142t-352 -148t-147 -353t140 -346t322 -153h674z" />
<glyph unicode="&#x63a;" horiz-adv-x="1522" arabic-form="final" d="M638 20q-174 0 -251 -41q-97 -52 -131 -165q-12 -52 -12 -100q0 -106 68 -196q98 -130 310 -186l88 -22l-10 -60l-94 26q-248 66 -356 224q-70 101 -70 220q0 56 16 108q24 98 85 152q94 83 269 98h66q-86 70 -124 108q-166 164 -166 397t165 398t385 165t366 -128 l-8 -76q-142 142 -347 142t-352 -148t-147 -353t140 -346t322 -153h676v-64h-888zM842 1378v102h80v-102h-80z" />
<glyph unicode="&#x63a;" horiz-adv-x="1452" arabic-form="initial" d="M833 1084q-205 0 -352 -148t-147 -353t140 -346t322 -153h476v-64h-1276v64h570q-92 66 -128 102q-166 164 -166 397t165 398t385 165t366 -128l-8 -76q-142 142 -347 142zM788 1378v102h80v-102h-80z" />
<glyph unicode="&#x63a;" horiz-adv-x="1466" arabic-form="medial" d="M788 1378v102h80v-102h-80zM1470 84v-64h-1474v64h570q-92 66 -128 102q-166 164 -166 397t165 398t385 165t366 -128l-8 -76q-142 142 -347 142t-352 -148t-147 -353t140 -346t322 -153h674z" />
<glyph unicode="&#x641;" horiz-adv-x="2350" arabic-form="final" d="M1262 583q0 233 164 398t398 165h250v-1062h280v-64h-1402q-313 4 -538 180q-108 88 -171 203t-63 243v318h62v-318q0 -232 213 -397t509 -165h590q-92 66 -128 102q-164 164 -164 397zM1724 1376v104h80v-104h-80zM2012 1080h-188q-206 0 -353 -147t-147 -354t148 -353 q120 -120 284 -142h256v996z" />
<glyph unicode="&#x641;" horiz-adv-x="1248" arabic-form="initial" d="M718 1376v104h78v-104h-78zM256 583q0 233 164 398t396 165h252v-1126h-1072v64h552q-92 66 -128 102q-164 164 -164 397zM1004 84v996h-188q-206 0 -352 -147t-146 -354t146 -353q120 -120 286 -142h254z" />
<glyph unicode="&#x641;" horiz-adv-x="1342" arabic-form="medial" d="M-4 20v64h552q-92 66 -128 102q-164 164 -164 397t164 398t396 165h252v-1062h278v-64h-1350zM1004 1080h-188q-206 0 -352 -147t-146 -354t146 -353q120 -120 286 -142h254v996zM718 1376v104h78v-104h-78z" />
<glyph unicode="&#x642;" horiz-adv-x="1760" arabic-form="final" d="M1024 1376v104h80v-104h-80zM1364 1376v104h80v-104h-80zM1442 20h-188q-232 0 -396 165t-164 398t164 398t396 165h252v-1062h258v-64h-258v-350h-554q-313 4 -538 180q-108 88 -171 203t-63 243v318h62v-318q0 -232 213 -397t509 -165h478v286zM1442 1080h-188 q-206 0 -352 -147t-146 -354t144 -351t344 -144h198v996z" />
<glyph unicode="&#x642;" horiz-adv-x="1248" arabic-form="initial" d="M568 1376v104h78v-104h-78zM908 1376v104h78v-104h-78zM256 583q0 233 164 398t396 165h252v-1126h-1072v64h552q-92 66 -128 102q-164 164 -164 397zM1004 84v996h-188q-206 0 -352 -147t-146 -354t146 -353q120 -120 286 -142h254z" />
<glyph unicode="&#x642;" horiz-adv-x="1342" arabic-form="medial" d="M568 1376v104h78v-104h-78zM-4 20v64h552q-92 66 -128 102q-164 164 -164 397t164 398t396 165h252v-1062h278v-64h-1350zM1004 1080h-188q-206 0 -352 -147t-146 -354t146 -353q120 -120 286 -142h254v996zM908 1376v104h78v-104h-78z" />
<glyph unicode="&#x643;" horiz-adv-x="1804" arabic-form="final" d="M792 1134q0 50 39 89t90 39t91 -34l-12 -38q-8 4 -10 6q-28 28 -66 28t-66 -28t-28 -67t27 -66t59 -29h114v-48h-254v48h54q-38 50 -38 100zM1462 84v1502h64v-1502h282v-64h-856q-313 4 -538 180q-108 88 -171 203t-63 243v318h62v-318q0 -232 213 -397t509 -165h498z " />
<glyph unicode="&#x643;" horiz-adv-x="1284" arabic-form="initial" d="M1104 372v-352h-1108v64h1046v288q0 206 -146 350t-344 148h-276v112l636 576l-6 -90l-590 -536h236q226 -4 389 -166t163 -394z" />
<glyph unicode="&#x643;" horiz-adv-x="1380" arabic-form="medial" d="M-4 20v64h1046v288q0 206 -146 350t-344 148h-276v112l636 576l-6 -90l-590 -536h236q226 -4 389 -166t163 -394v-288h280v-64h-1388z" />
<glyph unicode="&#x644;" horiz-adv-x="1460" arabic-form="final" d="M1142 1586h64v-1502h258v-64h-258v-350h-254q-313 4 -538 180q-108 88 -171 203t-63 243v318h62v-318q0 -232 213 -397t509 -165h178v1852z" />
<glyph unicode="&#x644;" horiz-adv-x="520" arabic-form="initial" d="M276 1586h64v-1566h-344v64h280v1502z" />
<glyph unicode="&#x644;" horiz-adv-x="618" arabic-form="medial" d="M340 84h282v-64h-626v64h280v1502h64v-1502z" />
<glyph unicode="&#x645;" horiz-adv-x="1826" arabic-form="final" d="M562 474q0 104 38 226q-114 -6 -188 -54q-80 -48 -125 -132t-45 -186v-652h-62v652q0 178 117 305t285 127h44q91 168 236 240q92 46 193 46t192 -45t157 -123q144 -170 144 -390t-130 -404h412v-64h-474q-139 -118 -300 -118q-102 0 -194 46q-56 26 -102 66l-90 102 q-108 152 -108 358zM1055 984q-179 0 -305 -149t-126 -361q0 -136 58 -254t157 -187t201 -69q193 0 319.5 150.5t126.5 361t-126 359.5t-305 149z" />
<glyph unicode="&#x645;" horiz-adv-x="1442" arabic-form="initial" d="M770 -98q-169 0 -302 118h-472v64h410q-130 184 -130 404t144 389t350 169q100 0 191 -45t157 -123q144 -170 144 -405t-144 -403q-66 -80 -157 -124t-191 -44zM763 -36q184 0 310.5 150.5t126.5 361t-126 359.5t-305 149t-305 -149t-126 -361q0 -136 57 -253t155 -185 l34 -22q86 -50 179 -50z" />
<glyph unicode="&#x645;" horiz-adv-x="1540" arabic-form="medial" d="M-4 20v64h410q-130 184 -130 404t144 389t350 169q100 0 191 -45t157 -123q144 -170 144 -390t-130 -404h412v-64h-474q-139 -118 -304 -118t-298 118h-472zM769 984q-179 0 -305 -149t-126 -361q0 -136 58 -254t157 -187t201 -69q193 0 319.5 150.5t126.5 361 t-126 359.5t-305 149z" />
<glyph unicode="&#x646;" horiz-adv-x="1460" arabic-form="final" d="M662 1378v102h80v-102h-80zM1142 1146h64v-1062h258v-64h-258v-350h-254q-313 4 -538 180q-108 88 -171 203t-63 243v318h62v-318q0 -232 213 -397t509 -165h178v1412z" />
<glyph unicode="&#x646;" horiz-adv-x="528" arabic-form="initial" d="M268 1368v102h80v-102h-80zM276 1146h64v-1126h-344v64h280v1062z" />
<glyph unicode="&#x646;" horiz-adv-x="618" arabic-form="medial" d="M268 1372v104h80v-104h-80zM340 84h282v-64h-626v64h280v1062h64v-1062z" />
<glyph unicode="&#x647;" horiz-adv-x="1248" arabic-form="final" d="M742 20q-234 0 -398 165t-164 398t164 398t398 165h250v-1062h260v-64h-510zM930 84v996h-188q-206 0 -353 -147t-147 -354t145 -351t343 -144h200z" />
<glyph unicode="&#x647;" horiz-adv-x="1458" arabic-form="initial" d="M936 422q0 152 -103 246t-208 94t-209 -94t-104 -246t104 -246q88 -82 208 -92q120 10 216 98t96 240zM-4 20v64h438q-54 42 -60 46q-124 110 -124 291t122 292t252 111t252 -111t122 -292t-120 -289l-64 -48h402v538q0 206 -147 352t-353 146t-340 -132l-44 44 q150 150 383 150t398 -165t165 -395v-602h-1282z" />
<glyph unicode="&#x647;" horiz-adv-x="1556" arabic-form="medial" d="M-4 20v64h438q-54 42 -60 46q-124 110 -124 291t122 292t252 111t252 -111t122 -292t-120 -289l-64 -48h402v538q0 206 -147 352t-353 146t-340 -132l-44 44q150 150 383 150t398 -165t165 -395v-538h282v-64h-1564zM936 422q0 152 -103 246t-208 94t-209 -94t-104 -246 t104 -246q88 -82 208 -92q120 10 216 98t96 240z" />
<glyph unicode="&#x648;" horiz-adv-x="1248" arabic-form="final" d="M992 20v-110q0 -136 -112 -232q-116 -94 -272 -94q-100 0 -186 40t-140 112l-18 24l50 38l18 -24q102 -128 276 -128q134 0 228 77t94 187v110h-188q-234 0 -398 165t-164 398t164 398t398 165h250v-1062h260v-64h-260zM930 84v996h-188q-206 0 -353 -147t-147 -354 t145 -351t343 -144h200z" />
<glyph unicode="&#x649;" horiz-adv-x="2220" arabic-form="final" d="M1882 20v694q0 102 -45 186t-124 134t-171 50h-116v-1064h-474q-313 4 -538 180q-108 88 -171 203t-63 243v318h62v-318q0 -232 213 -397t509 -165h398v1062h180q168 0 285 -127t117 -305v-630h280v-64h-342z" />
<glyph unicode="&#x64a;" horiz-adv-x="2220" arabic-form="final" d="M864 -322v102h78v-102h-78zM1882 20v694q0 102 -45 186t-124 134t-171 50h-116v-1064h-474q-313 4 -538 180q-108 88 -171 203t-63 243v318h62v-318q0 -232 213 -397t509 -165h398v1062h180q168 0 285 -127t117 -305v-630h280v-64h-342zM1204 -322v102h78v-102h-78z" />
<glyph unicode="&#x64a;" horiz-adv-x="638" arabic-form="initial" d="M40 -322v102h78v-102h-78zM380 -322v102h78v-102h-78zM276 1146h62v-1126h-342v64h280v1062z" />
<glyph unicode="&#x64a;" horiz-adv-x="618" arabic-form="medial" d="M98 -322v102h80v-102h-80zM438 -322v102h80v-102h-80zM340 84h282v-64h-626v64h280v1062h64v-1062z" />
<glyph unicode="&#xd;" horiz-adv-x="1282" />
<glyph unicode=" "  horiz-adv-x="400" />
<glyph unicode="&#x09;" horiz-adv-x="400" />
<glyph unicode="&#xa0;" horiz-adv-x="400" />
<glyph unicode="!" horiz-adv-x="510" d="M256 184q34 0 54 -23t20 -59t-20 -59t-54 -23t-55 23t-21 59t21 59t55 23zM224 662v924h64v-924h-64z" />
<glyph unicode="&#x22;" horiz-adv-x="590" d="M348 1296v290h62v-290h-62zM180 1296v290h62v-290h-62z" />
<glyph unicode="#" horiz-adv-x="1516" d="M952 636l124 378h-494l-126 -378h496zM1336 1074v-60h-196l-126 -378h184v-60h-204l-184 -556h-64l184 556h-494l-182 -556h-66l186 556h-164v60h182l126 378h-170v60h190l170 512h62l-168 -512h492l170 512h64l-170 -512h178z" />
<glyph unicode="$" horiz-adv-x="1246" d="M1004 476q0 136 -110 208q-66 44 -228 90v-622q168 14 253 101t85 223zM274 1156q0 -138 110 -210q64 -42 218 -88v582q-328 -22 -328 -284zM212 1156q0 322 390 346v84h64v-86q196 -22 310 -186l16 -24l-52 -36l-16 24q-92 134 -258 162v-602q188 -50 258 -97 q142 -95 142 -263t-108 -276q-102 -98 -292 -114v-68h-64v70q-156 6 -242 49t-154 137l-18 26l50 36l20 -28q48 -72 118 -112t226 -46v640q-178 50 -252 102q-138 88 -138 262z" />
<glyph unicode="%" horiz-adv-x="1400" d="M967 78q63 0 105 27q90 58 90 167q0 82 -53 140t-129 58t-129 -58t-53 -138t53 -138t116 -58zM979 528q99 0 170 -75t71 -180t-71 -179t-170 -74t-169 74t-70 179t70 180t169 75zM420 1508q-74 0 -127 -58t-53 -137t53 -137t127 -58t128 58t54 137t-54 137t-128 58z M420 1060q-100 0 -170 74t-70 179t70 179t170 74t170 -74t70 -161t-32 -146t-88 -92t-120 -33zM1112 1586h68l-906 -1566h-66z" />
<glyph unicode="&#x26;" horiz-adv-x="1542" d="M730 1524q-120 0 -168 -47t-60 -117q-24 -160 110 -452q74 32 132 54q138 44 205 150q93 147 26 279q-66 133 -245 133zM638 80q212 0 366 144q-239 262 -420 602q-146 -84 -224 -184q-116 -148 -92 -304q22 -118 121 -188t249 -70zM638 20q-180 0 -293 87t-137 223 q-26 178 106 350q88 110 244 202q-30 60 -46 104q-92 234 -70 382q14 104 87 161t205 57t218 -71t107 -191t-59 -246t-238 -176q-56 -20 -124 -50q168 -317 408 -582q18 26 22 32q158 224 158 600h60q0 -184 -46 -367t-154 -309q182 -171 270 -200l-18 -58q-108 34 -292 214 q-174 -162 -408 -162z" />
<glyph unicode="'" horiz-adv-x="496" d="M254 1582h62v-28q0 -80 -26 -152t-42 -96l-12 -20l-46 40q-4 -2 9 18t34 81t21 129v28z" />
<glyph unicode="(" horiz-adv-x="798" d="M618 -244q-72 0 -158 71t-152 207q-128 264 -128 638t128 640q66 134 152 204t158 70v-60q-54 0 -126 -62t-130 -182q-122 -252 -122 -611t122 -611q58 -116 130 -180t126 -64v-60z" />
<glyph unicode=")" horiz-adv-x="800" d="M180 -244v60q58 0 130 64t126 180q124 252 124 611t-124 611q-54 120 -126 182t-130 62v60q74 0 160 -70t150 -204q130 -266 130 -640t-130 -638q-64 -136 -150 -207t-160 -71z" />
<glyph unicode="*" horiz-adv-x="1142" d="M962 1206v-60h-332l256 -336l-48 -36l-266 354l-268 -354l-46 36l254 336h-332v60h332l-254 336l46 36l268 -354l266 354l48 -36l-256 -336h332z" />
<glyph unicode="+" horiz-adv-x="1326" d="M1146 638v-62h-452v-554h-62v554h-452v62h452v552h62v-552h452z" />
<glyph unicode="," horiz-adv-x="512" d="M270 -40v154h62v-154q0 -118 -70 -192q-36 -36 -54 -42l-22 59q48 30 73 103q11 32 11 72zM186 -215q-2 -1 -7 -4t-39 -19v144z" />
<glyph unicode="-" horiz-adv-x="882" d="M180 576v62h522v-62h-522z" />
<glyph unicode="." horiz-adv-x="510" d="M254 186q34 0 55 -23t21 -59t-21 -59t-55 -23t-54 23t-20 59t20 59t54 23z" />
<glyph unicode="/" horiz-adv-x="960" d="M254 20h-66l518 1566h66z" />
<glyph unicode="0" horiz-adv-x="1312" d="M656 1524q-158 0 -255 -103t-131 -247q-28 -144 -28 -371t28 -371q41 -171 162 -274q89 -76 236 -76q146 0 244 104t129 247t31 370t-30 371q-32 144 -130 247t-256 103zM657 20q-177 0 -293 115t-150 275t-34 393t34 393t150 275t293 115t293 -115t149 -275t33 -393 t-33 -393t-149 -275t-293 -115z" />
<glyph unicode="1" horiz-adv-x="780" d="M600 20h-62v1442q-60 -70 -104 -116t-108 -93t-112 -47h-34v62h34q26 0 79 36t113 101t94 121q38 56 38 60h62v-1566z" />
<glyph unicode="2" horiz-adv-x="1174" d="M984 20h-804v32q0 278 144 468q95 124 295 263t255 228q56 89 56 199q-4 86 -44 162q-86 152 -290 152q-152 0 -266 -86q-60 -44 -74 -70l-54 32q20 32 86 84q132 102 308 102q242 0 344 -188q52 -92 54 -184v-2q0 -160 -108 -286q-60 -72 -226 -190l-75 -54 q-95 -69 -129 -105q-34 -37 -69 -78q-51 -60 -93 -155q-42 -96 -54 -262h744v-62z" />
<glyph unicode="3" horiz-adv-x="1268" d="M647 32q-193 0 -337 112q-72 56 -96 96l56 32q18 -34 82 -80q126 -96 295 -96t274 110t105 255t-114 241q-134 114 -394 114l2 62q210 0 330 102q104 86 104 220q0 84 -40 158t-120 123t-165 49t-148 -19q-98 -30 -152 -79t-69 -78l-18 -28l-54 32l18 28q30 52 96 104 q130 102 309 102t293 -119t114 -277t-126 -262q-42 -36 -138 -84q134 -46 200 -102q134 -114 134 -285t-118 -297q-130 -134 -323 -134z" />
<glyph unicode="4" horiz-adv-x="1324" d="M896 670v826l-648 -826h648zM1144 670v-62h-186v-588h-62v588h-716v76l708 902h70v-916h186z" />
<glyph unicode="5" horiz-adv-x="1254" d="M1074 506q0 -200 -133 -343t-323 -143q-136 0 -251 79t-167 211l-12 28l58 24l12 -30q46 -114 144 -182t211 -68t204 58t143 154t52 210q0 174 -115 299t-279 125t-280 -128l-30 -30l-74 4l34 812h712v-62h-652l-28 -666q82 66 153 98t165 32q190 0 323 -141t133 -341z " />
<glyph unicode="6" horiz-adv-x="1266" d="M636 78q160 0 274 125t114 301q0 112 -51 211t-141 156t-197 57t-196 -57t-141 -156t-52 -213t52 -211t141 -155t197 -58zM656 1582q106 0 201 -53t159 -143l18 -26l-50 -36l-20 28q-54 80 -135 124t-173 44q-188 0 -280 -96t-115 -235t-23 -240v-205q56 78 78 102 q132 144 320 144t319 -143t131 -343t-132 -342q-130 -146 -318 -146t-320 146q-68 74 -101 183t-33 327l-2 226q0 167 18 269q18 103 47 171q102 244 411 244z" />
<glyph unicode="7" horiz-adv-x="1338" d="M412 20h-62q0 176 109 437t281 543q146 246 350 524h-910v62h978l-2 -72q-176 -232 -366 -548q-378 -630 -378 -946z" />
<glyph unicode="8" horiz-adv-x="1268" d="M632 82q162 0 277 109t115 261t-115 261t-277 109t-276 -109t-114 -261t114 -261t276 -109zM282 1204q0 -132 104 -226t249 -94t248 94t103 226t-103 226t-248 94t-249 -94t-104 -226zM1088 452q0 -180 -134 -306t-321 -126t-321 126q-132 126 -132 306t132 306 q52 48 148 94q-78 46 -116 80q-124 110 -124 271t122 272t292 111t292 -111t122 -272t-122 -269q-40 -36 -118 -82q280 -137 280 -400z" />
<glyph unicode="9" horiz-adv-x="1266" d="M630 1520q-106 0 -196 -57t-141 -156t-51 -213q0 -174 113 -299t274 -125t274 125t113 300t-113 300t-273 125zM610 78q188 0 280 97t120 253q18 122 18 223v205q-58 -80 -78 -104q-134 -144 -321 -144t-319 144q-130 144 -130 344t131 343t318 143t321 -144 q68 -76 101 -183t33 -329l2 -224q0 -138 -9 -198q-25 -165 -44 -214q-108 -274 -423 -274q-108 0 -203 53t-159 145l-16 24l50 36l18 -28q56 -80 137 -124t173 -44z" />
<glyph unicode=":" horiz-adv-x="510" d="M254 826q-34 0 -54 21t-20 57t20 59t54 23t55 -23t21 -59t-21 -57t-55 -21zM254 186q34 0 55 -23t21 -59t-21 -59t-55 -23t-54 23t-20 59t20 59t54 23z" />
<glyph unicode=";" horiz-adv-x="556" d="M270 -40v154h62v-154q0 -118 -70 -192q-36 -36 -54 -42l-22 59q48 30 73 103q11 32 11 72zM302 986q34 0 54 -23t20 -59t-20 -57t-55 -21t-55 21t-20 57t21 59t55 23zM186 -215q-2 -1 -7 -4t-39 -19v144z" />
<glyph unicode="&#x3c;" horiz-adv-x="1366" d="M1148 28l-968 580v38l968 580l30 -52l-912 -546l912 -548z" />
<glyph unicode="=" horiz-adv-x="1328" d="M180 348v62h968v-62h-968zM180 820v62h968v-62h-968z" />
<glyph unicode="&#x3e;" horiz-adv-x="1364" d="M218 28l-30 52l910 548l-910 548l30 50l966 -580v-38z" />
<glyph unicode="?" horiz-adv-x="1178" d="M560 1586q224 0 331 -100t107 -278t-88 -286q-50 -64 -141 -108t-117 -63q-68 -50 -68 -133v-28h-58v28q0 102 52 147t114 76t85 45t60 46q103 89 103 290q0 304 -380 304q-90 0 -170 -44t-136 -126l-18 -28l-48 36l16 24q66 94 159 146t197 52zM569 178q33 0 53 -22 t20 -57t-20 -57t-54 -22t-53 22t-19 57t20 57t53 22z" />
<glyph unicode="@" horiz-adv-x="2084" d="M1019 120q177 0 299 145t122 349t-122 349t-299 145t-300 -145t-123 -349t123 -349t300 -145zM1904 616q0 -94 -26 -195t-54 -161q-44 -106 -114 -174t-160 -68t-130 50t-46 162q-92 -92 -174 -132t-182 -40q-204 0 -344 164t-140 392t140 390q137 166 344 166t344 -166 q64 -70 124 -228l78 382l60 -12l-184 -908q-16 -80 22 -124q26 -34 90 -34t119 55t95 151q38 80 57 174t19 156q0 190 -62 362t-170 297t-256 199t-312 74q-218 0 -403 -125t-291 -340t-106 -466t106 -466t291 -340t414 -125t425 148l24 20l38 -50l-24 -18 q-80 -60 -168 -102q-148 -60 -315 -60t-325 76t-277 215t-187 315q-64 186 -64 387t64 387q68 176 187 315t277 215t335 76t335 -76t274 -216q122 -138 188 -314q64 -186 64 -388z" />
<glyph unicode="A" horiz-adv-x="1536" d="M602 672h304q92 0 136 38l-274 786l-298 -852q84 28 132 28zM906 612h-304q-65 0 -101 -22q-61 -37 -75 -78l-172 -492h-66l546 1566h68l546 -1566h-66l-216 626q-72 -34 -160 -34z" />
<glyph unicode="B" horiz-adv-x="1432" d="M824 82q148 0 257 108t109 259t-109 259t-257 108l-478 2q-42 0 -104 22v-758h582zM346 880h478q132 0 226 94t94 227t-94 228t-226 95h-582v-566q5 -78 104 -78zM1208 1200q0 -220 -226 -352q94 -46 146 -96q124 -124 124 -302t-124 -304q-132 -126 -304 -126h-644v1566 h644q158 0 271 -113t113 -273z" />
<glyph unicode="C" horiz-adv-x="1520" d="M823 20q-276 0 -460 230q-183 230 -183 553t182 551q86 110 202 168q118 64 259 64t277 -84q128 -82 216 -224l16 -28l-54 -32l-18 26q-82 132 -198 206t-260 74t-276 -97t-208 -263t-76 -361t76 -359t208 -263t276 -99q285 0 458 282l18 24l54 -32l-16 -28 q-88 -142 -216 -224q-136 -84 -277 -84z" />
<glyph unicode="D" horiz-adv-x="1438" d="M1196 808q0 144 -44 276t-119 229t-180 154t-219 57h-392v-1440l392 -2q230 0 396 213t166 513zM634 20h-2l-452 2v1564h454q126 0 242 -61t202 -169q180 -226 180 -548q0 -324 -180 -554q-88 -108 -202 -171t-242 -63z" />
<glyph unicode="E" horiz-adv-x="1276" d="M1096 20h-916v1566h916v-62h-854v-668q62 22 104 22h750v-62h-750q-56 0 -80 -25t-24 -59v-650h854v-62z" />
<glyph unicode="F" horiz-adv-x="1328" d="M990 878v-62h-644q-54 0 -80 -27t-24 -61v-708h-62v1566h968v-62h-906v-668q56 20 90 22h658z" />
<glyph unicode="G" horiz-adv-x="1608" d="M180 803q0 323 182 551q186 232 462 232q144 0 281 -90t213 -226l-54 -32q-68 124 -192 205t-270 81t-277 -98t-207 -263t-76 -360t76 -359t207 -263t285 -99q94 0 188 53t172 139q173 191 196 490h-616v62h646q12 0 22 -9t10 -21q0 -152 -52 -294t-142 -250 q-194 -232 -433 -232q-121 0 -236 62t-203 170q-182 228 -182 551z" />
<glyph unicode="H" horiz-adv-x="1360" d="M1180 20h-62v854q-92 -56 -172 -58h-522q-92 0 -146 -54q-22 -18 -36 -46v-696h-62v1566h62v-768q96 60 182 60h512q92 0 150 52q18 20 32 48v608h62v-1566z" />
<glyph unicode="I" horiz-adv-x="422" d="M180 20v1566h62v-1566h-62z" />
<glyph unicode="J" horiz-adv-x="970" d="M180 20v62q134 0 265 98t207 262t76 360v784h62v-784q0 -324 -182 -552q-86 -106 -202 -168t-226 -62z" />
<glyph unicode="K" horiz-adv-x="1390" d="M242 20h-62v1566h62v-752q52 90 80 112l684 640h92l-738 -686q-73 -62 -8 -118l826 -762h-92l-772 714q-20 16 -72 98v-812z" />
<glyph unicode="L" horiz-adv-x="1328" d="M242 82h906v-62h-968v1566h62v-1504z" />
<glyph unicode="M" horiz-adv-x="1594" d="M1414 1586v-1566h-62v1410l-516 -1410h-80l-514 1412v-1412h-62v1566h70l546 -1494l546 1494h72z" />
<glyph unicode="N" horiz-adv-x="1348" d="M1106 1586h62v-1566h-128l-798 1464v-1464h-62v1566h76l850 -1558v1558z" />
<glyph unicode="O" horiz-adv-x="1622" d="M810 1524q-154 0 -285 -98t-207 -263t-76 -360t76 -359t207 -263t285 -99t286 99t208 263t76 359t-76 361t-208 263t-286 97zM810 20q-130 0 -245 62t-203 170q-182 228 -182 551t182 551q88 110 203 171t245 61t246 -61t202 -171q184 -228 184 -550t-184 -552 q-86 -108 -202 -170t-246 -62z" />
<glyph unicode="P" horiz-adv-x="1386" d="M822 878q132 0 226 95t94 228t-94 228t-226 95h-580v-668q58 20 96 22h484zM346 816q-99 0 -104 -82v-714h-62v1566h644q102 0 191 -52t140 -141t51 -195q0 -158 -112 -270t-272 -112h-476z" />
<glyph unicode="Q" horiz-adv-x="1622" d="M810 82q154 0 286 99t208 263t76 359t-76 361t-208 263t-286 97t-285 -98t-207 -263t-76 -360t76 -359t207 -263t285 -99zM180 803q0 323 182 551q88 110 203 171t245 61t246 -61t202 -171q184 -228 184 -550q0 -374 -254 -628q56 -87 142 -104l2 -62l-68 16 q-66 30 -124 108q-164 -114 -312 -114q-277 0 -462 230q-186 230 -186 553z" />
<glyph unicode="R" horiz-adv-x="1424" d="M822 878q132 0 226 95t94 227t-94 228t-226 96h-580v-668q58 20 96 22h484zM346 816q-99 0 -104 -82v-714h-62v1566h642q104 0 193 -51t140 -141t51 -211t-89 -228t-255 -137q40 -50 54 -78l318 -720h-68l-310 700q-30 50 -55 65q-51 31 -71 31h-384z" />
<glyph unicode="S" horiz-adv-x="1460" d="M760 20q-236 0 -353 50t-199 156l-20 22l50 38l20 -26q34 -40 65 -68q123 -112 415 -112q220 0 348 100t128 274t-185 252q-116 48 -330 100q-213 52 -304 105t-135 117q-46 76 -46 176q0 172 120 272q138 110 406 110q126 0 237 -54t187 -152l20 -24l-48 -38l-22 26 q-68 88 -167 135t-207 47q-248 0 -355 -88t-107 -222t76 -203q76 -68 241 -117q61 -18 161 -44q254 -60 344 -113t135 -121t45 -163q0 -197 -138 -307q-146 -128 -382 -128z" />
<glyph unicode="T" horiz-adv-x="1506" d="M1326 1586v-62h-556v-1504h-62v1504h-528v62h1146z" />
<glyph unicode="U" horiz-adv-x="1332" d="M665 22q-201 0 -343 142t-142 344v1078h62v-1078q0 -176 125 -300t300 -124t299 124t124 300v1078h62v-1078q0 -202 -143 -344t-344 -142z" />
<glyph unicode="V" horiz-adv-x="1550" d="M736 20l-548 1566h68l520 -1490l518 1490h68l-546 -1566h-80z" />
<glyph unicode="W" horiz-adv-x="2286" d="M2036 1586h62l-546 -1566h-62l-346 1266l-346 -1266h-62l-548 1566h62l514 -1474l360 1324h38l360 -1324z" />
<glyph unicode="X" horiz-adv-x="1636" d="M1436 1586l-580 -782l580 -784h-74l-544 736l-544 -736h-74l580 784l-580 782h74l544 -734l544 734h74z" />
<glyph unicode="Y" horiz-adv-x="1660" d="M860 636v-616h-60v616q0 100 -34 188l-566 762h76l554 -748l556 748h74l-566 -762q-34 -88 -34 -188z" />
<glyph unicode="Z" horiz-adv-x="1592" d="M1372 82v-62h-1192v58l1148 1446h-1106v62h1190v-58l-1146 -1446h1106z" />
<glyph unicode="[" horiz-adv-x="568" d="M388 -262h-208v1848h208v-62h-146v-1724h146v-62z" />
<glyph unicode="\" horiz-adv-x="962" d="M708 20l-520 1566h68l518 -1566h-66z" />
<glyph unicode="]" horiz-adv-x="568" d="M180 -262v62h146v1724h-146v62h208v-1848h-208z" />
<glyph unicode="^" horiz-adv-x="1072" d="M224 1276l-36 52l364 254l332 -256l-36 -48l-298 226z" />
<glyph unicode="_" horiz-adv-x="1326" d="M180 20v62h966v-62h-966z" />
<glyph unicode="`" horiz-adv-x="496" d="M254 1278v28q0 76 -19 124t-31 72t-18 32t4 0l46 40q2 -4 15 -24t39 -92t26 -152v-28h-62zM236 1574z" />
<glyph unicode="a" horiz-adv-x="1166" d="M584 612q-144 0 -242 -79t-98 -186t98 -186t241 -79t242 79t99 185v288q-54 -22 -84 -22h-256zM986 346q0 -136 -118 -231t-283 -95t-285 95t-120 232t120 232t284 95h254q38 0 62 24t24 74v68q0 110 -94 187t-228 77q-84 0 -158 -34t-116 -92l-20 -26l-52 38l20 24 q54 70 139 111t187 41q158 0 272 -94q112 -96 112 -232v-494z" />
<glyph unicode="b" horiz-adv-x="1172" d="M242 82h188q208 0 354 147t146 353q0 138 -67 252t-181 182t-252 68h-82q-44 0 -106 22v-1024zM430 20h-250v1566h62v-358q0 -34 25 -58t79 -24h84q234 0 398 -165t164 -398t-164 -398t-398 -165z" />
<glyph unicode="c" horiz-adv-x="1186" d="M316 188q-136 170 -136 405t138 404t343 169t317 -152l20 -24l-50 -38l-20 26q-92 126 -269 126t-297 -148t-120 -363t120 -363t292 -148q84 0 158 34t116 94l20 24l50 -36l-20 -26q-108 -152 -340 -152q-82 0 -169 45t-153 123z" />
<glyph unicode="d" horiz-adv-x="1172" d="M824 1084h-84q-206 0 -352 -148t-146 -354q0 -100 40 -193t106 -160t159 -107t193 -40h188v1026q-60 -24 -104 -24zM180 583q0 233 165 398t395 165h84q58 0 86 26q18 27 18 54v360h64v-1566h-252q-230 0 -395 165t-165 398z" />
<glyph unicode="e" horiz-adv-x="1206" d="M320 674h286q164 0 252 68t88 155t-78 147t-220 60t-257 -119t-147 -331q60 20 76 20zM246 525q0 -7 2 -17v-4q24 -175 140 -300q52 -56 123 -89t143 -33q202 0 296 128l18 24l50 -36l-18 -26q-114 -152 -346 -152q-198 0 -338 170q-94 114 -124 270q-12 50 -12 132 q0 236 138 405t336 169q160 0 257 -78t97 -193t-107 -199t-295 -84h-278q-66 0 -80 -70q-2 -10 -2 -17z" />
<glyph unicode="f" horiz-adv-x="792" d="M582 1586h30v-62h-30q-138 0 -236 -103t-106 -279q64 24 106 24h216v-62h-216q-56 0 -80 -26t-24 -60v-998h-62v1136q0 176 116 304q118 126 286 126z" />
<glyph unicode="g" horiz-adv-x="1172" d="M824 110q44 0 104 -24v1024h-188q-206 0 -352 -147t-146 -354t146 -353t352 -146h84zM740 48q-232 0 -396 165t-164 397t164 397t396 165h252v-1234q0 -136 -114 -232t-270 -96q-100 0 -186 40t-140 112l-18 26l48 38l20 -26q46 -60 119 -93t157 -33q132 0 226 76t94 188 v28q-5 82 -104 82h-84z" />
<glyph unicode="h" horiz-adv-x="1164" d="M984 718v-698h-62v698q0 102 -45 186t-124 134t-171 50h-254q-30 0 -86 20v-1088h-62v1566h62v-330q0 -81 56 -101q14 -5 26 -5h258q168 0 285 -127t117 -305z" />
<glyph unicode="i" horiz-adv-x="422" d="M212 1532q8 0 19 -6t11 -24v-28q0 -14 -9 -23t-22 -9t-22 9t-9 23v28q0 30 32 30zM180 20v1146h62v-1146h-62z" />
<glyph unicode="j" horiz-adv-x="794" d="M552 42v1176h62v-1176q0 -178 -117 -305t-285 -127h-32v64h32q140 0 240 108t100 260zM582 1532q32 0 32 -30v-28q0 -14 -10 -23t-22 -9t-21 9t-9 23v28q0 17 11 24q11 6 19 6z" />
<glyph unicode="k" horiz-adv-x="1254" d="M242 20h-62v1566h62v-968l690 548h102l-588 -468q44 -30 60 -48l544 -630h-84l-508 590l-2 2q-41 52 -94 20l-120 -94v-518z" />
<glyph unicode="l" horiz-adv-x="422" d="M180 20v1566h62v-1566h-62z" />
<glyph unicode="m" horiz-adv-x="1904" d="M1724 734v-714h-62v714q0 154 -99 262t-240 108t-240 -108t-99 -262v-714h-62v714q0 102 -45 186t-124 134t-171 50q-142 0 -241 -108t-99 -262v-714h-62v714q0 178 116 306q118 126 286 126t284 -126q42 -46 86 -134q46 88 86 134q116 126 285 126t285 -127t116 -305z " />
<glyph unicode="n" horiz-adv-x="1164" d="M984 20h-62v714q0 102 -45 186t-124 134t-171 50q-142 0 -241 -108t-99 -262v-714h-62v714q0 178 116 306q118 126 286 126t285 -127t117 -305v-714z" />
<glyph unicode="o" horiz-adv-x="1346" d="M673 1104q-179 0 -305 -149t-126 -361q0 -136 57 -254t156 -187t202 -69q191 0 318 149t127 361t-125 361t-304 149zM180 593q0 235 143 404t349 169t350 -169t144 -404t-144 -401q-141 -170 -349 -170t-351 168q-142 168 -142 403z" />
<glyph unicode="p" horiz-adv-x="1172" d="M348 114h82q138 0 252 67t181 182t67 251q0 208 -147 354t-353 146h-188v-1022q62 22 106 22zM992 614q0 -232 -164 -397t-398 -165h-84q-54 0 -79 -23t-25 -57v-362h-62v1566h250q234 0 398 -165t164 -397z" />
<glyph unicode="q" horiz-adv-x="1172" d="M928 1114h-188q-206 0 -352 -147t-146 -353t146 -353t352 -147h84q44 0 104 -24v1024zM740 1176h252v-1566h-64v360q0 32 -23 57t-81 25h-84q-230 0 -395 165t-165 397t165 397t395 165z" />
<glyph unicode="r" horiz-adv-x="742" d="M242 20h-62v714q0 178 116 306q118 126 266 126v-62q-36 0 -88 -18q-96 -33 -164 -131t-68 -221v-714z" />
<glyph unicode="s" horiz-adv-x="1148" d="M968 338q0 -138 -100 -228t-268 -90t-251 37t-141 115l-20 26l50 36l20 -24q44 -62 115 -95t214 -33t231 69t88 179t-92 170q-62 34 -232 80q-178 42 -248 86q-124 76 -124 209t92 212t282 79q121 0 220 -70q48 -34 84 -82l20 -24l-48 -40l-22 26q-98 128 -254 128 q-312 0 -312 -222q0 -108 96 -164q62 -36 236 -81t242 -85q122 -76 122 -214z" />
<glyph unicode="t" horiz-adv-x="744" d="M242 454q0 -154 100 -263t222 -109v-62q-150 0 -267 127t-117 307v1132h62v-464q62 22 106 22h216v-62h-216q-56 0 -80 -25t-26 -59v-544z" />
<glyph unicode="u" horiz-adv-x="1164" d="M582 20q-168 0 -285 127t-117 307v712h62v-712q0 -154 99 -263t240 -109t241 109t100 263v712h62v-712q0 -180 -117 -307t-285 -127z" />
<glyph unicode="v" horiz-adv-x="1300" d="M686 20h-70l-428 1146h68l394 -1060l396 1060h66z" />
<glyph unicode="w" horiz-adv-x="1928" d="M1312 20h-68l-280 904l-278 -904h-70l-428 1146h68l392 -1052l280 910h70l282 -910l392 1052h68z" />
<glyph unicode="x" horiz-adv-x="1302" d="M1100 1166l-412 -572l414 -574h-74l-378 522l-376 -522h-74l412 574l-412 572h74l376 -522l378 522h72z" />
<glyph unicode="y" horiz-adv-x="1308" d="M278 -390h-30v60h30q102 0 187 63t113 153h4l8 32q8 24 8 91t-46 185l-364 972h66l354 -948q10 -38 42 -144l408 1092h62l-480 -1286q-42 -120 -140 -195t-222 -75z" />
<glyph unicode="z" horiz-adv-x="1260" d="M1040 20h-860v58l816 1026h-776v62h860v-58l-816 -1026h776v-62z" />
<glyph unicode="{" horiz-adv-x="962" d="M734 -234q-166 0 -222 136q-32 78 -36 274t-27 289t-69 130t-132 41h-68v80h68q86 4 132 42q88 73 96 394q4 220 36 298q58 140 230 136h40v-78h-42q-118 3 -154 -86q-28 -66 -33 -308t-67 -348q-26 -44 -82 -90q56 -44 82 -90q62 -108 67 -349t33 -305q16 -44 50 -66 t104 -22l42 2v-80h-48z" />
<glyph unicode="|" horiz-adv-x="422" d="M180 -258v1844h62v-1844h-62z" />
<glyph unicode="}" horiz-adv-x="962" d="M228 -234h-48v80l42 -2q122 0 156 88q26 64 31 305t67 349q26 46 86 90q-60 46 -86 90q-62 106 -67 348t-26 296t-56 77t-105 21h-42v78h40q172 4 230 -136q32 -78 36 -253t15 -256t40 -132t69 -71t104 -22h68v-80h-68q-86 -4 -132 -41t-68 -130t-27 -289t-37 -274 q-56 -136 -222 -136z" />
<glyph unicode="~" horiz-adv-x="1238" d="M598 662q-64 50 -88 68q-76 57 -126 44q-66 -16 -128 -150l-14 -28l-56 28l14 28q74 160 168 182q62 12 116 -16t116 -76t87 -67t65 -35t72 -10q82 18 158 186l14 28l56 -28l-12 -28q-44 -98 -96 -150q-67 -72 -145 -72t-201 96z" />
<glyph unicode="&#xa1;" horiz-adv-x="510" d="M254 1426q-34 0 -54 21t-20 52t10 49q21 38 60 38q38 0 59 -23t21 -59t-21 -57t-55 -21zM222 20v926h64v-926h-64z" />
<glyph unicode="&#xa2;" horiz-adv-x="1186" d="M694 -86h-62v106q-189 21 -314 168q-138 170 -138 404v2q0 234 131 393t321 179v106h62v-108q192 -22 286 -150l18 -24l-50 -38l-18 26q-42 58 -116 92t-158 34q-172 0 -293 -149t-121 -361v-2q0 -210 121 -360t293 -150q84 0 158 34t116 94l18 24l50 -36l-18 -26 q-94 -126 -286 -150v-108z" />
<glyph unicode="&#xa3;" horiz-adv-x="1358" d="M1178 20h-998v60q30 0 66 24q121 80 132 616h-162v64h162q0 254 30 407q56 287 234 357q68 26 170 26t194 -84t140 -206l-58 -24q-44 106 -120 179t-164 73q-173 0 -252 -116q-112 -160 -112 -612h454v-64h-454q-8 -392 -74 -552q-14 -28 -48 -84h860v-64z" />
<glyph unicode="&#xa4;" horiz-adv-x="1302" d="M651 376q137 0 235 108t98 262t-98 262t-236 108q-90 0 -167 -50t-121 -136t-44 -184q0 -154 98 -262t235 -108zM1046 747q0 -137 -80 -259l148 -146l-46 -46l-138 142q-128 -124 -280 -124t-278 124l-140 -142l-42 46l144 146q-80 122 -80 259t80 259l-146 150l42 44 l144 -144q128 122 277 122t277 -120l140 142l46 -44l-150 -148q82 -124 82 -261z" />
<glyph unicode="&#xa5;" horiz-adv-x="1572" d="M1158 730v-60h-342v-164h342v-62h-342v-424h-60v424h-346v62h346v164h-346v60h340q-14 60 -26 96l-536 716l48 36l550 -740l550 740l48 -36l-534 -716q-14 -36 -28 -96h336z" />
<glyph unicode="&#xa6;" horiz-adv-x="422" d="M242 404v-384h-62v384h62zM180 732v854h62v-854h-62z" />
<glyph unicode="&#xa7;" horiz-adv-x="1146" d="M904 798q0 98 -66 141t-152 67t-104 30h-48q-142 0 -206 -64q-56 -48 -56 -144t65 -140t180 -77t159 -47q110 10 169 73t59 161zM966 800q0 -130 -84 -212q-36 -36 -114 -70q98 -88 98 -208t-87 -205t-233 -85t-218 37t-122 109l-18 26l52 34l18 -26q40 -58 98 -88 t180 -30t195 64t73 176q0 68 -34 109t-104 69q-6 0 -149 43t-201 83q-106 70 -106 197t76 197q42 40 144 72q-122 94 -122 215t80 195t246 74q103 0 190 -66q42 -32 72 -80l20 -24l-52 -36l-20 26q-82 118 -217 118t-196 -57t-61 -152t67 -138t209 -87q154 -40 214 -80 q106 -70 106 -200z" />
<glyph unicode="&#xa8;" horiz-adv-x="352" />
<glyph unicode="&#xa9;" horiz-adv-x="1320" d="M840 1180v-60h-200v-100h-100v-340h100v-100h200v-60h-260v100h-100v460h100v100h260zM940 420v-100h-560v100h-100v100h-100v660h100v100h100v100h560v-100h100v-100h100v-660h-100v-100h-100zM440 380h440v100h100v100h100v540h-100v100h-100v100h-440v-100h-100v-100 h-100v-540h100v-100h100v-100z" />
<glyph unicode="&#xaa;" horiz-adv-x="1020" d="M280 1380v100h460v-100h100v-660h-60v100h-100v300h-340v-100h-100v-140h100v-100h300v-60h-360v100h-100v260h100v100h400v240h-340v-100h-160v60h100zM840 580v-160h-660v160h660zM640 780v40h40v-40h-40z" />
<glyph unicode="&#xab;" horiz-adv-x="1000" d="M820 286l-312 306l312 310v-88l-222 -220l222 -220v-88zM502 286l-314 308l314 308v-88l-224 -220l222 -218z" />
<glyph unicode="&#xac;" horiz-adv-x="730" d="M470 158q0 38 8 122l-296 6l4 12v6q14 44 54 48q0 -2 12 -1t24 1l108 -2h58q60 -2 86 -30q19 -15 22 -60q-8 -62 -10 -92q-2 -24 -70 -26v16zM180 268v18h2q-2 -12 -2 -18z" />
<glyph unicode="&#xad;" horiz-adv-x="882" d="M180 576v62h522v-62h-522z" />
<glyph unicode="&#xae;" horiz-adv-x="1320" d="M940 620v-100h-560v100h-100v100h-100v560h100v100h100v100h560v-100h100v-100h100v-560h-100v-100h-100zM440 580h440v100h100v100h100v440h-100v100h-100v100h-440v-100h-100v-100h-100v-440h100v-100h100v-100zM780 880h60v-160h-60v160zM780 1180h60v-160h-60v160z M740 1280v-60h-200v-240h200v-60h-200v-200h-60v560h260z" />
<glyph unicode="&#xaf;" horiz-adv-x="948" d="M618 666q98 0 136 9q1 -17 6 -33l8 -43q-2 5 -29 2t-169 -3h-36q-204 0 -351 8l3 10v4q14 46 54 50h36zM180 588v18h3q-3 -6 -3 -18zM768 599v-1v1zM754 680h22q-8 -2 -22 -5v5z" />
<glyph unicode="&#xb0;" horiz-adv-x="288" />
<glyph unicode="&#xb1;" horiz-adv-x="1326" d="M180 16v62h966v-62h-966zM180 576v62h452v552h62v-552h452v-62h-452v-354h-62v354h-452z" />
<glyph unicode="&#xb2;" horiz-adv-x="384" />
<glyph unicode="&#xb3;" horiz-adv-x="386" />
<glyph unicode="&#xb4;" horiz-adv-x="588" d="M194 574l-6 4q14 28 94 138l16 22l22 -14q2 4 6 -5t12 -19l66 -40q0 -2 -16 -28l-80 -126q-8 -10 -13 -12t-34 18t-47 42z" />
<glyph unicode="&#xb5;" horiz-adv-x="544" />
<glyph unicode="&#xb6;" horiz-adv-x="570" />
<glyph unicode="&#xb7;" horiz-adv-x="196" />
<glyph unicode="&#xb8;" horiz-adv-x="456" />
<glyph unicode="&#xb9;" horiz-adv-x="270" />
<glyph unicode="&#xba;" horiz-adv-x="388" />
<glyph unicode="&#xbb;" horiz-adv-x="1000" d="M182 286l-2 88l222 220l-222 220l2 88l312 -310zM502 286v90l220 218l-220 220v88l310 -308z" />
<glyph unicode="&#xbc;" horiz-adv-x="1320" d="M980 1580v100h60v-160h-100v-200h-100v-200h-100v-200h-100v-100h-100v-200h-100v-200h-100v-200h-100v-100h-60v160h100v200h100v200h100v200h100v100h100v200h100v200h100v200h100zM980 380v240h-140v-240h140zM1040 380h100v-60h-100v-200h-60v200h-300v160h100v200 h100v100h160v-400zM280 1520h-100v60h100v100h160v-600h100v-60h-360v60h100v440z" />
<glyph unicode="&#xbd;" horiz-adv-x="1320" d="M980 1580v100h60v-160h-100v-200h-100v-200h-100v-200h-100v-100h-100v-200h-100v-200h-100v-200h-100v-100h-60v160h100v200h100v200h100v200h100v100h100v200h100v200h100v200h100zM680 620v60h100v100h260v-100h100v-160h-100v-100h-200v-240h300v-60h-460v260h100 v100h200v240h-140v-100h-160zM280 1520h-100v60h100v100h160v-600h100v-60h-360v60h100v440z" />
<glyph unicode="&#xbe;" horiz-adv-x="1320" d="M1080 1580v100h60v-160h-100v-200h-100v-200h-100v-200h-100v-100h-100v-200h-100v-200h-100v-200h-100v-100h-60v160h100v200h100v200h100v200h100v100h100v200h100v200h100v200h100zM980 380v240h-140v-240h140zM1040 380h100v-60h-100v-200h-60v200h-300v160h100v200 h100v100h160v-400zM540 1580h100v-160h-100v-140h100v-160h-100v-100h-260v100h-100v60h160v-100h140v240h-100v60h100v240h-140v-100h-160v60h100v100h260v-100z" />
<glyph unicode="&#xbf;" horiz-adv-x="1178" d="M180 399q0 177 88 287q50 62 178 124q54 26 82 46q66 47 66 132v30h58v-30q0 -105 -58 -152t-113 -74q-55 -26 -79 -40t-61 -46t-54 -68q-47 -100 -47 -222q0 -304 380 -304q90 0 170 44t134 126l18 26l48 -34l-16 -24q-66 -94 -159 -147t-195 -53q-226 0 -338 108 q-102 94 -102 271zM538 1508q0 78 74 78q32 0 52 -21t20 -56t-21 -57t-54 -22t-52 22t-19 56z" />
<glyph unicode="&#xf7;" horiz-adv-x="1306" d="M646 1044q-34 0 -54 22t-20 57t20 57t54 22t53 -22t19 -57t-19 -57t-53 -22zM180 590v60h946v-60h-946zM646 178q34 0 53 -22t19 -57t-19 -57t-47 -22t-44 11q-36 25 -36 64t20 61t54 22z" />
<glyph unicode="&#x2c6;" horiz-adv-x="892" d="M448 1518l-222 -148l-38 52l256 176l-8 8l268 -186l-36 -50z" />
<glyph unicode="&#x2c7;" horiz-adv-x="892" d="M668 1596l36 -50l-268 -186l8 8l-256 176l38 52l222 -146z" />
<glyph unicode="&#x2c9;" horiz-adv-x="542" />
<glyph unicode="&#x2d8;" horiz-adv-x="316" />
<glyph unicode="&#x2d9;" horiz-adv-x="198" />
<glyph unicode="&#x2da;" horiz-adv-x="288" />
<glyph unicode="&#x2db;" horiz-adv-x="500" d="M284 152q32 0 34 -3t2 -21v-24l-6 -52q-4 -25 -3 -30l-75 6q-20 0 -26 -12q-4 -4 -2 2l-28 2v26l4 116q24 54 32 100q2 -14 -30 -122q66 12 98 12zM311 22q0 -2 1 0h-1z" />
<glyph unicode="&#x2dc;" horiz-adv-x="786" d="M218 344q-6 0 -30 24q48 52 86 82l48 42l2 2q1 -2 6 -8l5 5q5 -7 23 -25q0 7 -1 12l97 -88l117 105l19 -15l18 -18l-12 8q-8 -12 -88 -82l-42 -38l-8 -6h-13l-81 78q-12 8 -16 12l-20 14l-86 -78q0 -26 -24 -26zM571 495l-1 1l4 2zM357 478l-21 20l4 -2q14 0 17 -18z M335 496q-3 0 0 -5q3 5 0 5zM324 494l2 2q-3 0 -2 -2zM442 344h3h-3zM446 344q12 -1 12 -12z" />
<glyph unicode="&#x2dd;" horiz-adv-x="836" d="M442 574q-20 14 0 14q12 22 90 128l16 22l26 -18q6 -12 16 -22l62 -38q0 -2 -16 -28l-78 -120q-6 -6 -6 -10q-6 -6 -10 -8t-31 17t-49 43zM194 574l-6 4q14 28 94 138l16 22l22 -14q2 4 6 -5t12 -19l66 -40q0 -2 -16 -28l-80 -126q-8 -10 -13 -12t-34 18t-47 42z" />
<glyph unicode="&#x60c;" horiz-adv-x="512" d="M180 260v154h62v-154q0 -112 63 -158q19 -14 27 -20q6 -4 -6 2l-24 -58q-16 6 -52 42q-70 74 -70 192z" />
<glyph unicode="&#x61b;" horiz-adv-x="552" d="M256 120q-34 0 -55 22t-21 58t21 58t56 22t54 -22t19 -58t-20 -58t-54 -22zM288 1146v-154h-62v154q0 116 70 190q36 38 52 44l20 -62q-80 -57 -80 -172z" />
<glyph unicode="&#x61f;" horiz-adv-x="1178" d="M620 1586q102 0 195 -52t159 -146l16 -24l-48 -36l-18 26q-54 84 -134 128t-170 44q-380 0 -380 -304q0 -203 101 -290q46 -39 111 -73q66 -33 88 -47t53 -41q59 -51 59 -153v-28h-58v28q0 86 -67 133q-27 19 -81 45q-128 62 -178 126q-88 108 -88 286t107 278t333 100z M684 99q0 -35 -20 -57t-54 -22t-53 22t-19 57t19 57t52 22t54 -22t21 -57z" />
<glyph unicode="&#x621;" horiz-adv-x="1082" d="M250 406q0 -134 107 -223t323 -101v2h222v-64h-722v64h208q-64 46 -76 56q-124 104 -124 262t108 274q120 122 298 122t292 -88l-40 -48q-123 74 -238.5 74t-195.5 -49t-121 -123t-41 -158z" />
<glyph unicode="&#x622;" horiz-adv-x="422" d="M134 1900q27 0 45 -13l41 -31q44 -40 66 -40h4q32 6 60 74l8 16l30 -16l-8 -18q-34 -84 -78 -96h-16q-30 0 -80 42t-70 42h-4q-26 -4 -48 -56l-8 -18l-30 16l8 20q28 68 66 78h14zM180 20v1566h62v-1566h-62z" />
<glyph unicode="&#x623;" horiz-adv-x="422" d="M116 1914q0 50 39 89t90 39t91 -34l-12 -38q-8 4 -10 6q-28 28 -66 28t-66 -28t-28 -67t27 -66t59 -29h114v-48h-254v48h54q-38 50 -38 100zM180 20v1566h62v-1566h-62z" />
<glyph unicode="&#x624;" horiz-adv-x="1172" d="M322 1454q0 50 39 89t91 39t90 -34l-12 -38q-4 2 -6 4q-30 30 -69 30t-67 -28t-28 -67t27 -66t61 -29h112v-48h-252v48h52q-38 50 -38 100zM992 -90q0 -136 -112 -232q-116 -94 -272 -94q-100 0 -186 40t-140 112l-18 24l50 38l18 -24q102 -128 276 -128q134 0 228 77 t94 187v110h-188q-234 0 -398 165t-164 398t164 398t398 165h250v-1236zM930 84v996h-188q-206 0 -353 -147t-147 -354t145 -351t343 -144h200z" />
<glyph unicode="&#x625;" horiz-adv-x="422" d="M80 -188v48h254v-48h-114q-32 -2 -59 -29t-27 -65t28 -66t66 -28t64 26q2 0 12 8l12 -38q-40 -34 -91 -34t-90 39t-39 88t40 99h-56zM242 1586v-1566h-62v1566h62z" />
<glyph unicode="&#x626;" horiz-adv-x="1606" d="M332 1324q0 50 39 89t90 39t91 -34l-12 -38q-8 4 -10 6q-28 28 -66 28t-66 -28t-28 -67t27 -66t59 -29h114v-48h-254v48h54q-38 50 -38 100zM1362 652h-528v178q0 168 123 282t269 120v-62q-70 -4 -150 -47t-130 -122t-50 -171v-116h530v-694h-474q-313 4 -538 180 q-108 88 -171 203t-63 243v318h62v-318q0 -232 213 -397t509 -165h398v568z" />
<glyph unicode="&#x627;" horiz-adv-x="422" d="M180 20v1566h62v-1566h-62z" />
<glyph unicode="&#x628;" horiz-adv-x="1706" d="M932 -324v102h78v-102h-78zM1462 84v1062h64v-1126h-574q-313 4 -538 180q-108 88 -171 203t-63 243v318h62v-318q0 -232 213 -397t509 -165h498z" />
<glyph unicode="&#x629;" horiz-adv-x="1172" d="M874 1378v102h80v-102h-80zM534 1378v102h80v-102h-80zM742 20q-234 0 -398 165t-164 398t164 398t398 165h250v-1126h-250zM930 84v996h-188q-206 0 -353 -147t-147 -354t145 -351t343 -144h200z" />
<glyph unicode="&#x62a;" horiz-adv-x="1706" d="M1024 1378v102h80v-102h-80zM684 1378v102h80v-102h-80zM1462 84v1062h64v-1126h-574q-313 4 -538 180q-108 88 -171 203t-63 243v318h62v-318q0 -232 213 -397t509 -165h498z" />
<glyph unicode="&#x62b;" horiz-adv-x="1706" d="M1024 1378v102h80v-102h-80zM684 1378v102h80v-102h-80zM1462 84v1062h64v-1126h-574q-313 4 -538 180q-108 88 -171 203t-63 243v318h62v-318q0 -232 213 -397t509 -165h498zM854 1676v102h78v-102h-78z" />
<glyph unicode="&#x62c;" horiz-adv-x="1638" d="M638 20q-174 0 -251 -41q-97 -52 -131 -165q-12 -52 -12 -100q0 -106 68 -196q98 -130 310 -186l88 -22l-10 -60l-94 26q-248 66 -356 224q-70 101 -70 220q0 56 16 108q24 98 85 152t153 78q84 26 272 26h652q-24 60 -24 104v430q0 206 -148 352t-353 146t-353 -146 t-148 -352v-54h-62v54q0 230 165 395t398 165t398 -165t165 -395v-430q0 -58 26 -84l22 -20h12v-64h-818zM772 -322v102h78v-102h-78z" />
<glyph unicode="&#x62d;" horiz-adv-x="1638" d="M638 20q-174 0 -251 -41q-97 -52 -131 -165q-12 -52 -12 -100q0 -106 68 -196q98 -130 310 -186l88 -22l-10 -60l-94 26q-248 66 -356 224q-70 101 -70 220q0 56 16 108q24 98 85 152t153 78q84 26 272 26h652q-24 60 -24 104v430q0 206 -148 352t-353 146t-353 -146 t-148 -352v-54h-62v54q0 230 165 395t398 165t398 -165t165 -395v-430q0 -58 26 -84l22 -20h12v-64h-818z" />
<glyph unicode="&#x62e;" horiz-adv-x="1638" d="M638 20q-174 0 -251 -41q-97 -52 -131 -165q-12 -52 -12 -100q0 -106 68 -196q98 -130 310 -186l88 -22l-10 -60l-94 26q-248 66 -356 224q-70 101 -70 220q0 56 16 108q24 98 85 152t153 78q84 26 272 26h652q-24 60 -24 104v430q0 206 -148 352t-353 146t-353 -146 t-148 -352v-54h-62v54q0 230 165 395t398 165t398 -165t165 -395v-430q0 -58 26 -84l22 -20h12v-64h-818zM788 1386v102h80v-102h-80z" />
<glyph unicode="&#x62f;" horiz-adv-x="1142" d="M180 20v64h720v538q0 206 -147 352t-333 146v62q212 0 377 -165t165 -395v-602h-782z" />
<glyph unicode="&#x630;" horiz-adv-x="1142" d="M514 1378v102h80v-102h-80zM180 20v64h720v538q0 206 -147 352t-333 146v62q212 0 377 -165t165 -395v-602h-782z" />
<glyph unicode="&#x631;" horiz-adv-x="680" d="M438 -90v1236h62v-1236q0 -136 -112 -232q-100 -80 -208 -90v62q86 10 172 80t86 180z" />
<glyph unicode="&#x632;" horiz-adv-x="694" d="M434 1368v102h80v-102h-80zM438 -90v1236h62v-1236q0 -136 -112 -232q-100 -80 -208 -90v62q86 10 172 80t86 180z" />
<glyph unicode="&#x633;" horiz-adv-x="2568" d="M1242 1142h64v-1058h478v1058h62v-1058h480v1062h62v-1126h-1082v-350h-354q-313 4 -538 180q-108 88 -171 203t-63 243v318h62v-318q0 -232 213 -397t509 -165h278v1408z" />
<glyph unicode="&#x634;" horiz-adv-x="2568" d="M1612 1378v102h78v-102h-78zM1952 1378v102h78v-102h-78zM1780 1676v102h80v-102h-80zM1242 1142h64v-1058h478v1058h62v-1058h480v1062h62v-1126h-1082v-350h-354q-313 4 -538 180q-108 88 -171 203t-63 243v318h62v-318q0 -232 213 -397t509 -165h278v1408z" />
<glyph unicode="&#x635;" horiz-adv-x="2548" d="M1242 1178h62v-292q66 90 104 128q164 164 397 164t398 -164t165 -398v-596h-1062v-350h-354q-313 4 -538 180q-108 88 -171 203t-63 243v318h62v-318q0 -232 213 -397t509 -165h278v1444zM1306 84h1000v532q0 208 -147 354t-353 146q-138 0 -252 -67t-178 -174t-70 -227 v-564z" />
<glyph unicode="&#x636;" horiz-adv-x="2548" d="M1242 1178h62v-292q66 90 104 128q164 164 397 164t398 -164t165 -398v-596h-1062v-350h-354q-313 4 -538 180q-108 88 -171 203t-63 243v318h62v-318q0 -232 213 -397t509 -165h278v1444zM1306 84h1000v532q0 208 -147 354t-353 146q-138 0 -252 -67t-178 -174t-70 -227 v-564zM1774 1378v102h80v-102h-80z" />
<glyph unicode="&#x637;" horiz-adv-x="1634" d="M246 84q82 0 82 102v1400h62v-700q66 90 104 128q164 164 397 164t398 -164t165 -398v-596h-1274v64h66zM390 84h1002v532q0 208 -147 354t-353 146q-138 0 -252 -67t-182 -181t-68 -252v-532z" />
<glyph unicode="&#x638;" horiz-adv-x="1634" d="M860 1378v102h80v-102h-80zM246 84q82 0 82 102v1400h62v-700q66 90 104 128q164 164 397 164t398 -164t165 -398v-596h-1274v64h66zM390 84h1002v532q0 208 -147 354t-353 146q-138 0 -252 -67t-182 -181t-68 -252v-532z" />
<glyph unicode="&#x639;" horiz-adv-x="1506" d="M326 583q0 233 165 398t385 165t366 -128l-8 -76q-142 142 -347 142t-352 -148t-147 -353t140 -346t322 -153h476v-64h-688q-174 0 -251 -41q-97 -52 -131 -165q-12 -52 -12 -100q0 -106 68 -196q98 -130 310 -186l88 -22l-10 -60l-94 26q-248 66 -356 224 q-70 101 -70 220q0 56 16 108q24 98 85 152q94 83 269 98h66q-86 70 -124 108q-166 164 -166 397z" />
<glyph unicode="&#x63a;" horiz-adv-x="1506" d="M326 583q0 233 165 398t385 165t366 -128l-8 -76q-142 142 -347 142t-352 -148t-147 -353t140 -346t322 -153h476v-64h-688q-174 0 -251 -41q-97 -52 -131 -165q-12 -52 -12 -100q0 -106 68 -196q98 -130 310 -186l88 -22l-10 -60l-94 26q-248 66 -356 224 q-70 101 -70 220q0 56 16 108q24 98 85 152q94 83 269 98h66q-86 70 -124 108q-166 164 -166 397zM842 1378v102h80v-102h-80z" />
<glyph unicode="&#x640;" horiz-adv-x="270" d="M280 20h-290v64h290v-64z" />
<glyph unicode="&#x641;" horiz-adv-x="2254" d="M1262 583q0 233 164 398t398 165h250v-1126h-1122q-313 4 -538 180q-108 88 -171 203t-63 243v318h62v-318q0 -232 213 -397t509 -165h590q-92 66 -128 102q-164 164 -164 397zM1724 1376v104h80v-104h-80zM2012 1080h-188q-206 0 -353 -147t-147 -354t148 -353 q120 -120 284 -142h256v996z" />
<glyph unicode="&#x642;" horiz-adv-x="1686" d="M1024 1376v104h80v-104h-80zM1364 1376v104h80v-104h-80zM1442 20h-188q-232 0 -396 165t-164 398t164 398t396 165h252v-1476h-554q-313 4 -538 180q-108 88 -171 203t-63 243v318h62v-318q0 -232 213 -397t509 -165h478v286zM1442 1080h-188q-206 0 -352 -147 t-146 -354t144 -351t344 -144h198v996z" />
<glyph unicode="&#x643;" horiz-adv-x="1706" d="M792 1134q0 50 39 89t90 39t91 -34l-12 -38q-8 4 -10 6q-28 28 -66 28t-66 -28t-28 -67t27 -66t59 -29h114v-48h-254v48h54q-38 50 -38 100zM1462 84v1502h64v-1566h-574q-313 4 -538 180q-108 88 -171 203t-63 243v318h62v-318q0 -232 213 -397t509 -165h498z" />
<glyph unicode="&#x644;" horiz-adv-x="1386" d="M1142 1586h64v-1916h-254q-313 4 -538 180q-108 88 -171 203t-63 243v318h62v-318q0 -232 213 -397t509 -165h178v1852z" />
<glyph unicode="&#x645;" horiz-adv-x="1728" d="M1055 1166q101 0 192 -45t157 -123q144 -170 144 -390t-108 -372l-90 -102q-134 -112 -294 -112q-102 0 -194 46q-56 26 -102 66l-90 102q-108 152 -108 358q0 104 38 226q-114 -6 -188 -54q-80 -48 -125 -132t-45 -186v-772h-62v772q0 178 117 305t285 127h44 q36 66 80 116q145 170 349 170zM1055 1104q-179 0 -305 -149t-126 -361q0 -136 58 -254t157 -187t201 -69q193 0 319.5 150.5t126.5 361t-126 359.5t-305 149z" />
<glyph unicode="&#x646;" horiz-adv-x="1386" d="M662 1378v102h80v-102h-80zM1142 1146h64v-1476h-254q-313 4 -538 180q-108 88 -171 203t-63 243v318h62v-318q0 -232 213 -397t509 -165h178v1412z" />
<glyph unicode="&#x647;" horiz-adv-x="1172" d="M742 20q-234 0 -398 165t-164 398t164 398t398 165h250v-1126h-250zM930 84v996h-188q-206 0 -353 -147t-147 -354t145 -351t343 -144h200z" />
<glyph unicode="&#x648;" horiz-adv-x="1172" d="M992 -90q0 -136 -112 -232q-116 -94 -272 -94q-100 0 -186 40t-140 112l-18 24l50 38l18 -24q102 -128 276 -128q134 0 228 77t94 187v110h-188q-234 0 -398 165t-164 398t164 398t398 165h250v-1236zM930 84v996h-188q-206 0 -353 -147t-147 -354t145 -351t343 -144h200 z" />
<glyph unicode="&#x649;" horiz-adv-x="1606" d="M1362 652h-528v178q0 168 123 282t269 120v-62q-70 -4 -150 -47t-130 -122t-50 -171v-116h530v-694h-474q-313 4 -538 180q-108 88 -171 203t-63 243v318h62v-318q0 -232 213 -397t509 -165h398v568z" />
<glyph unicode="&#x64a;" horiz-adv-x="1606" d="M864 -322v102h78v-102h-78zM1204 -322v102h78v-102h-78zM1362 652h-528v178q0 168 123 282t269 120v-62q-70 -4 -150 -47t-130 -122t-50 -171v-116h530v-694h-474q-313 4 -538 180q-108 88 -171 203t-63 243v318h62v-318q0 -232 213 -397t509 -165h398v568z" />
<glyph unicode="&#x64b;" horiz-adv-x="390" d="M350 1468l-318 -102l-8 22l320 102zM366 1326l-320 -100l-6 20l318 102z" />
<glyph unicode="&#x64c;" horiz-adv-x="532" d="M26 1342q45 18 67 18q47 0 57 -52l8 -36q4 -18 18 -32q16 -8 32 -8t52 16l42 16q-56 44 -67 77t-11 61t14 60q26 56 82 80q26 10 53 10t55 -12q54 -24 76 -80q8 -28 8 -56q0 -74 -62 -120q-32 -26 -150 -44l-32 -14q-38 -16 -62 -16t-35 6t-22 16t-17 49.5t-26 54.5h-14 q-10 0 -58 -16zM374 1530q-24 0 -48 -10q-50 -18 -68 -68q-12 -28 -12 -52t8 -44q26 -80 106 -80q26 0 50 10q50 20 68 68q12 28 12 50t-6 46q-18 48 -64 70q-22 10 -46 10z" />
<glyph unicode="&#x64d;" horiz-adv-x="390" d="M350 -48l-318 -102l-8 22l320 102zM366 -190l-320 -100l-6 20l318 102z" />
<glyph unicode="&#x64e;" horiz-adv-x="390" d="M366 1326l-320 -100l-6 20l318 102z" />
<glyph unicode="&#x64f;" horiz-adv-x="380" d="M76 1433q0 63 42 107t101 44t100 -44t41 -96q0 -116 -96 -154l-232 -74l-8 24l152 48q-50 32 -58 40q-42 42 -42 105zM217 1562q-51 0 -85 -38t-34 -90t34 -91t85 -39t89 38q34 40 34 92t-34 90q-38 38 -89 38z" />
<glyph unicode="&#x650;" horiz-adv-x="390" d="M350 -48l-318 -102l-8 22l320 102z" />
<glyph unicode="&#x651;" horiz-adv-x="362" d="M254 1270h8q26 2 41 20t15 40v130l24 4v-134q0 -28 -20 -54t-56 -30h-10q-26 0 -78 32v-32q-29 -36 -64.5 -36t-62.5 21t-31 51v50l24 2v-48q8 -50 62 -50h8q26 2 44 22q14 22 14 40v96l20 2v-74q12 -52 62 -52z" />
<glyph unicode="&#x652;" horiz-adv-x="324" d="M42 1364q0 -52 34 -91t86 -39t87 39t35 91t-36 90t-87 38t-85 -38t-34 -90zM20 1365q0 63 42 106t100 43t100 -43t42 -96t-18 -87t-52 -54t-82 -20t-90 44t-42 107z" />
<glyph unicode="&#x653;" horiz-adv-x="304" />
<glyph unicode="&#x654;" horiz-adv-x="280" />
<glyph unicode="&#x655;" horiz-adv-x="280" />
<glyph unicode="&#x660;" horiz-adv-x="510" d="M254 686q34 0 55 -23t21 -59t-21 -59t-55 -23t-54 23t-20 59t20 59t54 23z" />
<glyph unicode="&#x661;" horiz-adv-x="422" d="M180 20v1566h62v-1566h-62z" />
<glyph unicode="&#x662;" horiz-adv-x="1164" d="M242 20h-62v1566h62v-332q0 -154 99 -262t241 -108q92 0 171 50t124 134t45 186v332h62v-332q0 -180 -117 -307t-285 -127t-286 128q-10 10 -54 64v-992z" />
<glyph unicode="&#x663;" horiz-adv-x="1270" d="M244 20h-64v1566h64v-702q112 0 191 50t124 134t45 186v332h62v-332q0 -180 -124 -312q0 -2 -16 -18q88 -40 171 -40t162 50t124 134t45 186v332h62v-332q0 -180 -117 -307t-285 -127q-112 0 -212 64q-100 -64 -232 -64v-800z" />
<glyph unicode="&#x664;" horiz-adv-x="1268" d="M622 32q-194 0 -318 130t-124 301t136 285q66 56 200 102q-96 48 -138 84q-126 104 -126 262t108 274q120 122 298 122t310 -102q66 -52 96 -104l16 -28l-52 -32l-16 28q-6 8 -14 21t-40 42q-125 113 -286 113q-116 0 -196 -49t-121 -123t-41 -158q0 -134 113 -228 t321 -94l2 -62q-260 0 -392 -114q-114 -96 -114 -241t105 -255t274 -110t295 96q64 46 82 80l56 -32q-24 -40 -96 -96q-144 -112 -338 -112z" />
<glyph unicode="&#x665;" horiz-adv-x="1346" d="M673 1314q-179 0 -305 -149t-126 -361q0 -136 57 -254t156 -187t202 -69q191 0 318 149t127 361t-125 361t-304 149zM180 803q0 235 143 404t349 169t350 -169t144 -404t-144 -401q-141 -170 -349 -170t-351 168q-142 168 -142 403z" />
<glyph unicode="&#x666;" horiz-adv-x="1274" d="M1032 1524h-852v62h914v-1566h-62v1504z" />
<glyph unicode="&#x667;" horiz-adv-x="1550" d="M736 20l-548 1566h68l520 -1490l518 1490h68l-546 -1566h-80z" />
<glyph unicode="&#x668;" horiz-adv-x="1550" d="M816 1586l546 -1566h-68l-518 1490l-520 -1490h-68l548 1566h80z" />
<glyph unicode="&#x669;" horiz-adv-x="1172" d="M928 1524h-188q-206 0 -352 -147t-146 -353t146 -353t352 -147h84q44 0 104 -24v1024zM740 1586h252v-1566h-64v360q0 32 -23 57t-81 25h-84q-230 0 -395 165t-165 397t165 397t395 165z" />
<glyph unicode="&#x66a;" horiz-adv-x="1400" d="M967 78q63 0 105 27q90 58 90 167q0 82 -53 140t-129 58t-129 -58t-53 -138t53 -138t116 -58zM979 528q99 0 170 -75t71 -180t-71 -179t-170 -74t-169 74t-70 179t70 180t169 75zM420 1508q-74 0 -127 -58t-53 -137t53 -137t127 -58t128 58t54 137t-54 137t-128 58z M420 1060q-100 0 -170 74t-70 179t70 179t170 74t170 -74t70 -161t-32 -146t-88 -92t-120 -33zM1112 1586h68l-906 -1566h-66z" />
<glyph unicode="&#x66b;" horiz-adv-x="512" d="M270 262v154h62v-154q0 -118 -70 -192q-36 -36 -54 -42l-22 58l-4 -2q88 66 88 178z" />
<glyph unicode="&#x66c;" horiz-adv-x="512" d="M180 260v154h62v-154q0 -112 63 -158q19 -14 27 -20q6 -4 -6 2l-24 -58q-16 6 -52 42q-70 74 -70 192z" />
<glyph unicode="&#x66d;" horiz-adv-x="704" d="M414 248q0 -2 -12 -14q14 -20 24 -30l50 -48l4 -6q0 -16 -36 -32l-38 -14q-18 -4 -23 -4t-9 6l-16 20l-8 18q0 16 -10 16l-18 46l-42 -54q-22 -22 -34 -24t-28 14q-6 10 -12 22l-14 48q-4 6 -2 8l26 14q2 2 10 2l82 46q-114 10 -120 30q-6 14 15 47t31 44l20 -31 q6 -14 42 -36q16 42 25 57l21 43l9 17l9 -9q4 -12 6 -12q0 -8 22 -8l40 -9q0 -4 -3 -8t-11 -17l-38 -70l94 46q28 8 34 8l16 -8q2 0 2 -2l-6 -34l-2 -26v-6q-24 -12 -36 -14l-24 -6q-16 0 -40 -14v-16zM428 415v5q2 -4 2 -6zM348 458h6l-3 -5l-7 7q2 -2 4 -2zM228 410 q6 -4 14 0q-4 -3 -8 -7zM228 410l-4 4z" />
<glyph unicode="&#x670;" />
<glyph unicode="&#x671;" horiz-adv-x="422" d="M92 1808v256h24v-98q68 68 124 68t99 -42t43 -102v-104h-322v22h32zM116 1808h242v82q0 50 -36 86t-77 36t-68 -17q-61 -38 -61 -105v-82zM180 20v1566h62v-1566h-62z" />
<glyph unicode="&#x67e;" horiz-adv-x="858" d="M598 1378v102h80v-102h-80zM258 1378v102h80v-102h-80zM428 1676v102h78v-102h-78zM438 -90v1236h62v-1236q0 -136 -112 -232q-100 -80 -208 -90v62q86 10 172 80t86 180z" />
<glyph unicode="&#x686;" horiz-adv-x="1638" d="M1112 -322v102h84v-102h-84zM1026 -518v-102h-80v102h80zM772 -322v102h84v-102h-84zM638 20q-174 0 -251 -41q-97 -52 -131 -165q-12 -52 -12 -100q0 -106 68 -196q98 -130 310 -186l88 -22l-10 -60l-94 26q-248 66 -356 224q-70 101 -70 220q0 56 16 108q24 98 85 152 t153 78q84 26 272 26h652q-24 60 -24 104v430q0 206 -148 352t-353 146t-353 -146t-148 -352v-54h-62v54q0 230 165 395t398 165t398 -165t165 -395v-430q0 -58 26 -84l22 -20h12v-64h-818z" />
<glyph unicode="&#x698;" horiz-adv-x="1706" d="M1122 -322v102h84v-102h-84zM1036 -518v-102h-80v102h80zM782 -322v102h84v-102h-84zM1462 84v1062h64v-1126h-574q-313 4 -538 180q-108 88 -171 203t-63 243v318h62v-318q0 -232 213 -397t509 -165h498z" />
<glyph unicode="&#x6a4;" horiz-adv-x="2254" d="M1640 1480v-104h-78v104h78zM1980 1480v-104h-78v104h78zM1730 1674v104h80v-104h-80zM1262 583q0 233 164 398t398 165h250v-1126h-1122q-313 4 -538 180q-108 88 -171 203t-63 243v318h62v-318q0 -232 213 -397t509 -165h590q-92 66 -128 102q-164 164 -164 397z M2012 1080h-188q-206 0 -353 -147t-147 -354t148 -353q120 -120 284 -142h256v996z" />
<glyph unicode="&#x6a9;" horiz-adv-x="1968" d="M1726 84v288q0 206 -146 350t-344 148h-276v112l636 576l-6 -90l-590 -536h236q226 -4 389 -166t163 -394v-352h-836q-313 4 -538 180q-108 88 -171 203t-63 243v318h62v-318q0 -232 213 -397t509 -165h762z" />
<glyph unicode="&#x6af;" horiz-adv-x="1968" d="M1726 84v288q0 206 -146 350t-344 148h-276v112l636 576l-6 -90l-590 -536h236q226 -4 389 -166t163 -394v-352h-836q-313 4 -538 180q-108 88 -171 203t-63 243v318h62v-318q0 -232 213 -397t509 -165h762zM1426 1698l-6 -90l-542 -492l-64 24z" />
<glyph unicode="&#x6c1;" />
<glyph unicode="&#x6cc;" horiz-adv-x="1606" d="M1362 652h-528v178q0 168 123 282t269 120v-62q-70 -4 -150 -47t-130 -122t-50 -171v-116h530v-694h-474q-313 4 -538 180q-108 88 -171 203t-63 243v318h62v-318q0 -232 213 -397t509 -165h398v568z" />
<glyph unicode="&#x6f0;" horiz-adv-x="510" d="M254 686q34 0 55 -23t21 -59t-21 -59t-55 -23t-54 23t-20 59t20 59t54 23z" />
<glyph unicode="&#x6f1;" horiz-adv-x="422" d="M180 20v1566h62v-1566h-62z" />
<glyph unicode="&#x6f2;" horiz-adv-x="1164" d="M242 20h-62v1566h62v-332q0 -154 99 -262t241 -108q92 0 171 50t124 134t45 186v332h62v-332q0 -180 -117 -307t-285 -127t-286 128q-10 10 -54 64v-992z" />
<glyph unicode="&#x6f3;" horiz-adv-x="1270" d="M244 20h-64v1566h64v-702q112 0 191 50t124 134t45 186v332h62v-332q0 -180 -124 -312q0 -2 -16 -18q88 -40 171 -40t162 50t124 134t45 186v332h62v-332q0 -180 -117 -307t-285 -127q-112 0 -212 64q-100 -64 -232 -64v-800z" />
<glyph unicode="&#x6f4;" horiz-adv-x="1164" d="M984 1254q0 -180 -117 -307t-285 -127t-286 128q-10 10 -54 64v-992h-62v1566h62v-332q0 -154 99 -262t241 -108q92 0 171 50t124 134t45 186v248q-176 0 -265 -68t-117 -168l-66 2q6 22 28 66q115 246 420 246v6h62v-332z" />
<glyph unicode="&#x6f5;" horiz-adv-x="1346" d="M1102 804q0 212 -125 361t-304 149t-305 -149t-126 -361q0 -136 57 -254t157 -186q20 -14 52 -32q112 92 136 206h84q18 -86 88 -162q10 -12 32 -38q160 96 221 269q33 93 33 197zM180 803q0 235 143 404t349 169t350 -169t144 -404t-144 -401q-68 -82 -160 -126l2 2 q-16 -10 -18 -10q-34 30 -74 64q-40 44 -86 132q-44 -88 -84 -130t-87 -73q-118 50 -193 139q-142 168 -142 403zM510 258q2 2 5 3l7 -3h-12zM500 258h10l-10 -6v6z" />
<glyph unicode="&#x6f6;" horiz-adv-x="1256" d="M244 1390q0 -147 83 -248q59 -72 129 -93t136 -21t156 52t140 156l106 316l8 30h66l-100 -310q-8 -30 -22 -60l-394 -1192h-68l348 1044q-58 -42 -66 -46q-96 -54 -173 -54t-139 20q-158 50 -232 206q-42 90 -42 172t24 156l20 64h64l-26 -84q-18 -60 -18 -108z" />
<glyph unicode="&#x6f7;" horiz-adv-x="1550" d="M736 20l-548 1566h68l520 -1490l518 1490h68l-546 -1566h-80z" />
<glyph unicode="&#x6f8;" horiz-adv-x="1550" d="M816 1586l546 -1566h-68l-518 1490l-520 -1490h-68l548 1566h80z" />
<glyph unicode="&#x6f9;" horiz-adv-x="1172" d="M928 1524h-188q-206 0 -352 -147t-146 -353t146 -353t352 -147h84q44 0 104 -24v1024zM740 1586h252v-1566h-64v360q0 32 -23 57t-81 25h-84q-230 0 -395 165t-165 397t165 397t395 165z" />
<glyph unicode="&#x2000;" horiz-adv-x="1084" />
<glyph unicode="&#x2001;" horiz-adv-x="2168" />
<glyph unicode="&#x2002;" horiz-adv-x="1084" />
<glyph unicode="&#x2003;" horiz-adv-x="2168" />
<glyph unicode="&#x2004;" horiz-adv-x="722" />
<glyph unicode="&#x2005;" horiz-adv-x="542" />
<glyph unicode="&#x2006;" horiz-adv-x="361" />
<glyph unicode="&#x2007;" horiz-adv-x="361" />
<glyph unicode="&#x2008;" horiz-adv-x="271" />
<glyph unicode="&#x2009;" horiz-adv-x="433" />
<glyph unicode="&#x200a;" horiz-adv-x="120" />
<glyph unicode="&#x2010;" horiz-adv-x="882" d="M180 576v62h522v-62h-522z" />
<glyph unicode="&#x2011;" horiz-adv-x="882" d="M180 576v62h522v-62h-522z" />
<glyph unicode="&#x2012;" horiz-adv-x="882" d="M180 576v62h522v-62h-522z" />
<glyph unicode="&#x2013;" horiz-adv-x="594" />
<glyph unicode="&#x2014;" horiz-adv-x="762" />
<glyph unicode="&#x2018;" horiz-adv-x="620" d="M340 1180h100v-260h-260v360h100v100h60v-200zM440 1480v-60h-60v60h60z" />
<glyph unicode="&#x2019;" horiz-adv-x="620" d="M280 1220h-100v260h260v-360h-100v-100h-60v200zM180 920v60h60v-60h-60z" />
<glyph unicode="&#x201a;" horiz-adv-x="720" d="M380 280v200h160v-160h-100v-100h-100v-100h-160v60h100v100h100z" />
<glyph unicode="&#x201c;" horiz-adv-x="1120" d="M940 1480v-60h-60v60h60zM340 1180h100v-260h-260v360h100v100h60v-200zM840 1180h100v-260h-260v360h100v100h60v-200zM440 1480v-60h-60v60h60z" />
<glyph unicode="&#x201d;" horiz-adv-x="1120" d="M180 920v60h60v-60h-60zM780 1220h-100v260h260v-360h-100v-100h-60v200zM280 1220h-100v260h260v-360h-100v-100h-60v200zM680 920v60h60v-60h-60z" />
<glyph unicode="&#x201e;" horiz-adv-x="1120" d="M380 280v200h160v-160h-100v-100h-100v-100h-160v60h100v100h100zM780 280v200h160v-160h-100v-100h-100v-100h-160v60h100v100h100z" />
<glyph unicode="&#x2022;" horiz-adv-x="920" d="M280 980v100h360v-100h100v-260h-100v-100h-360v100h-100v260h100z" />
<glyph unicode="&#x202f;" horiz-adv-x="433" />
<glyph unicode="&#x2039;" horiz-adv-x="680" d="M500 286l-312 306l312 310v-88l-222 -220l222 -220v-88z" />
<glyph unicode="&#x203a;" horiz-adv-x="682" d="M182 286l-2 88l222 220l-222 220l2 88l312 -310z" />
<glyph unicode="&#x2044;" horiz-adv-x="960" d="M254 20h-66l518 1566h66z" />
<glyph unicode="&#x205f;" horiz-adv-x="542" />
<glyph unicode="&#x2122;" horiz-adv-x="1320" d="M380 1420h-200v60h460v-60h-200v-500h-60v500zM1080 1380v100h60v-560h-60v400h-100v60h100zM740 1320v-400h-60v560h60v-100h100v-60h-100zM940 1280v-60h-60v60h60z" />
<glyph unicode="&#x2212;" horiz-adv-x="706" d="M182 222q11 64 14 64l134 -2q76 -2 110 -2l78 5v21q0 -6 1 -16t3 -32l4 -36v-12q0 4 -9 2t-105 -2h-22q-142 0 -208 6v4z" />
<glyph unicode="&#x2215;" horiz-adv-x="960" d="M254 20h-66l518 1566h66z" />
<glyph unicode="&#x2219;" horiz-adv-x="196" />
<glyph unicode="&#x2248;" horiz-adv-x="1238" d="M402 576q-12 0 -20 -2q-64 -16 -126 -150l-14 -28l-56 28l14 28q86 186 200 186q48 0 93 -24t107 -72t87 -67t59 -33t53 -14t27 2q80 18 156 186l14 28l56 -28l-12 -28q-44 -98 -96 -150q-67 -72 -151 -72q-72 0 -195 96q-64 50 -107 82q-42 32 -89 32zM598 862 q-64 50 -107 82t-89 32q-12 0 -20 -2q-64 -16 -126 -150l-14 -28l-56 28l14 28q86 186 200 186q48 0 93 -24t107 -72t87 -67t59 -33t53 -14t27 2q80 18 156 186l14 28l56 -28l-12 -28q-44 -98 -96 -150q-67 -72 -145 -72t-201 96z" />
<glyph unicode="&#x2264;" horiz-adv-x="820" d="M180 -98v78h460v-78h-460zM280 520h-100v60h100v100h100v100h100v100h100v100h60v-160h-100v-100h-100v-100h-100v-140h100v-100h100v-100h100v-160h-60v100h-100v100h-100v100h-100v100z" />
<glyph unicode="&#x2265;" horiz-adv-x="820" d="M180 -98v78h460v-78h-460zM540 420h-100v-100h-100v-100h-100v-100h-60v160h100v100h100v100h100v140h-100v100h-100v100h-100v160h60v-100h100v-100h100v-100h100v-100h100v-60h-100v-100z" />
<glyph unicode="&#x25fc;" horiz-adv-x="1165" d="M0 1165h1165v-1165h-1165v1165z" />
<glyph horiz-adv-x="366" />
<glyph horiz-adv-x="366" />
<glyph horiz-adv-x="584" />
<glyph horiz-adv-x="1874" />
<glyph />
<glyph />
<glyph horiz-adv-x="362" d="M320 1718l-318 -102l-8 22l320 102zM336 1576l-320 -100l-6 20l318 102zM254 1270h8q26 2 41 20t15 40v130l24 4v-134q0 -28 -20 -54t-56 -30h-10q-26 0 -78 32v-32q-29 -36 -64.5 -36t-62.5 21t-31 51v50l24 2v-48q8 -50 62 -50h8q26 2 44 22q14 22 14 40v96l20 2v-74 q12 -52 62 -52z" />
<glyph horiz-adv-x="270" />
<glyph horiz-adv-x="1134" />
<glyph />
<glyph />
<glyph />
<glyph />
<glyph />
<glyph />
<glyph horiz-adv-x="1272" />
<glyph />
<glyph />
<glyph />
<glyph />
<glyph />
<glyph horiz-adv-x="626" />
<glyph horiz-adv-x="248" />
<glyph horiz-adv-x="674" />
<glyph />
<glyph />
<glyph />
</font>
</defs>
</svg>
