<?xml version="1.0" standalone="no"?>
<!DOCTYPE svg PUBLIC "-//W3C//DTD SVG 1.1//EN" "http://www.w3.org/Graphics/SVG/1.1/DTD/svg11.dtd" >
<svg xmlns="http://www.w3.org/2000/svg" xmlns:xlink="http://www.w3.org/1999/xlink" version="1.1">
<metadata></metadata>
<defs>
<font id="vip_hakm_regularvip_hakm" horiz-adv-x="0" >
<font-face units-per-em="2048" ascent="1638" descent="-410" />
<missing-glyph horiz-adv-x="400" />
<glyph unicode="&#xfedf;&#xfee0;&#xfeea;" horiz-adv-x="2374" arabic-form="isolated" d="M1636 1872h6q18 2 28 14t10 26v150l64 6v-156q0 -34 -25 -66t-69 -38h-12q-32 0 -58 16q0 -4 -6 -8q-28 -36 -72 -42h-14q-36 0 -64 24q-36 24 -42 66v70l64 6v-68q2 -16 16 -24q10 -10 26 -10h6q18 2 30 16q10 14 10 26v114l60 6v-94q4 -14 16 -24t26 -10zM1534 2046 v138l60 6v-144h-60zM742 0q-242 0 -412 171t-170 412t170 412t412 171h270v-1062h498v1502h104v-1502h496v1502h104v-1606h-1472zM910 104v956h-168q-198 0 -339 -141t-141 -340t139 -337t329 -138h180z" />
<glyph unicode="&#xfedf;&#xfe82;" horiz-adv-x="1414" arabic-form="isolated" d="M600 1710q35 0 54.5 -15t43.5 -33q40 -36 54 -36h2q20 4 44 62l16 36l66 -36l-16 -34q-38 -92 -94 -108h-18q-38 0 -88 42t-62 42h-2q-14 -2 -32 -44l-16 -38l-66 36l16 36q32 78 82 90h16zM1150 104v1502h104v-1606h-1094v104h990zM620 208v1146h102v-1146h-102z" />
<glyph unicode="&#xfee0;&#xfe82;" horiz-adv-x="1526" arabic-form="final" d="M600 1710q35 0 54.5 -15t43.5 -33q40 -36 54 -36h2q20 4 44 62l16 36l66 -36l-16 -34q-38 -92 -94 -108h-18q-38 0 -88 42t-62 42h-2q-14 -2 -32 -44l-16 -38l-66 36l16 36q32 78 82 90h16zM620 208v1146h102v-1146h-102zM1150 104v1502h104v-1502h282v-104h-1376v104 h990z" />
<glyph unicode="&#xfedf;&#xfe84;" horiz-adv-x="1414" arabic-form="isolated" d="M620 208v1146h102v-1146h-102zM534 1705q0 57 45 102t105 45t114 -48l-26 -74q-30 18 -42 31t-43 13t-53 -22t-22 -53t21 -52t47 -23h132v-88h-292v88h32q-18 24 -18 81zM1150 104v1502h104v-1606h-1094v104h990z" />
<glyph unicode="&#xfee0;&#xfe84;" horiz-adv-x="1526" arabic-form="final" d="M620 208v1146h102v-1146h-102zM534 1705q0 57 45 102t105 45t114 -48l-26 -74q-30 18 -42 31t-43 13t-53 -22t-22 -53t21 -52t47 -23h132v-88h-292v88h32q-18 24 -18 81zM1150 104v1502h104v-1502h282v-104h-1376v104h990z" />
<glyph unicode="&#xfedf;&#xfe88;" horiz-adv-x="1414" arabic-form="isolated" d="M620 208v1146h102v-1146h-102zM1150 104v1502h104v-1606h-1094v104h990zM516 -208v88h294v-88h-134q-24 -2 -45 -23t-21 -51t22 -52t52 -22t52 22q4 2 34 22l26 -74q-56 -48 -115 -48t-104 45t-45 102t18 79h-34z" />
<glyph unicode="&#xfee0;&#xfe88;" horiz-adv-x="1526" arabic-form="final" d="M620 208v1146h102v-1146h-102zM516 -208v88h294v-88h-134q-24 -2 -45 -23t-21 -51t22 -52t52 -22t52 22q4 2 34 22l26 -74q-56 -48 -115 -48t-104 45t-45 102t18 79h-34zM1150 104v1502h104v-1502h282v-104h-1376v104h990z" />
<glyph unicode="&#xfedf;&#xfe8e;" horiz-adv-x="1414" arabic-form="isolated" d="M620 208v1146h102v-1146h-102zM1150 104v1502h104v-1606h-1094v104h990z" />
<glyph unicode="&#xfee0;&#xfe8e;" horiz-adv-x="1526" arabic-form="final" d="M620 208v1146h102v-1146h-102zM1150 104v1502h104v-1502h282v-104h-1376v104h990z" />
<glyph unicode="&#xfe8e;&#x64b;" horiz-adv-x="534" d="M394 2014l-356 -114l-18 62l358 114zM410 1872l-358 -112l-16 60l356 114zM262 104h282v-104h-384v1606h102v-1502z" />
<glyph unicode="&#x627;&#x64b;" horiz-adv-x="422" d="M394 2014l-356 -114l-18 62l358 114zM410 1872l-358 -112l-16 60l356 114zM160 0v1606h102v-1606h-102z" />
<glyph unicode="&#x671;" horiz-adv-x="534" arabic-form="final" d="M72 1828v256h64v-70q40 40 104 40t113 -48t49 -116v-124h-362v62h32zM136 1828h202v62q0 42 -30 72t-64 30t-57 -14q-51 -31 -51 -88v-62zM262 104h282v-104h-384v1606h102v-1502z" />
<glyph unicode="&#x67e;" horiz-adv-x="1818" arabic-form="final" d="M1102 -342v142h124v-142h-124zM1056 -498v-142h-120v142h120zM762 -342v142h124v-142h-124zM1442 104v1062h104v-1062h282v-104h-876q-322 4 -550 185q-112 89 -177 208t-65 253v338h102v-338q0 -222 206 -382t496 -160h478z" />
<glyph unicode="&#x67e;" horiz-adv-x="614" arabic-form="initial" d="M282 -498v-142h-118v142h118zM330 -342v142h124v-142h-124zM-10 -342v142h124v-142h-124zM286 1166h102v-1166h-382v104h280v1062z" />
<glyph unicode="&#x67e;" horiz-adv-x="646" arabic-form="medial" d="M432 -342v142h124v-142h-124zM386 -498v-142h-120v142h120zM270 104v1062h104v-1062h282v-104h-666v104h280zM92 -342v142h124v-142h-124z" />
<glyph unicode="&#x6a4;" horiz-adv-x="2364" arabic-form="final" d="M1660 1500v-144h-118v144h118zM2000 1500v-144h-118v144h118zM1710 1654v144h120v-144h-120zM1242 583q0 241 170 412t412 171h270v-1062h280v-104h-1422q-322 4 -550 185q-112 89 -177 208t-65 253v338h102v-338q0 -222 206 -382t496 -160h528q-42 30 -80 68 q-170 170 -170 411zM1992 1060h-168q-198 0 -339 -141t-141 -340t142 -339q116 -116 272 -136h234v956z" />
<glyph unicode="&#x6a4;" horiz-adv-x="1262" arabic-form="initial" d="M1020 1500v-144h-118v144h118zM680 1500v-144h-118v144h118zM730 1654v144h120v-144h-120zM250 583q0 241 170 412t410 171h272v-1166h-1112v104h510q-42 30 -80 68q-170 170 -170 411zM998 104v956h-168q-198 0 -338 -141t-140 -340t140 -339q116 -116 274 -136h232z " />
<glyph unicode="&#x6a4;" horiz-adv-x="1370" arabic-form="medial" d="M680 1500v-144h-118v144h118zM1020 1500v-144h-118v144h118zM-10 0v104h510q-42 30 -80 68q-170 170 -170 411t170 412t410 171h272v-1062h278v-104h-1390zM730 1654v144h120v-144h-120zM998 104v956h-168q-198 0 -338 -141t-140 -340t140 -339q116 -116 274 -136h232z " />
<glyph unicode="&#x686;" horiz-adv-x="1688" arabic-form="final" d="M1040 -342v142h124v-142h-124zM994 -498v-142h-120v142h120zM700 -342v142h124v-142h-124zM1416 188q0 -84 62 -84h220v-104h-1060q-168 0 -250 -43t-112 -149q-12 -48 -12 -94q0 -100 64 -184q94 -124 298 -178l106 -26l-16 -102l-116 32q-254 68 -366 232 q-74 104 -74 232q0 58 16 114q48 189 252 244q88 26 278 26h622q-14 36 -14 84v430q0 198 -142 338t-339 140t-339 -140t-142 -338v-74h-102v74q0 238 171 409t412 171t412 -171t171 -409v-430z" />
<glyph unicode="&#x686;" horiz-adv-x="1650" arabic-form="initial" d="M866 -498v-142h-118v142h118zM914 -342v142h124v-142h-124zM574 -342v142h124v-142h-124zM1326 188v430q0 198 -142 338t-339 140t-339 -140t-142 -338v-74h-102v74q0 238 171 409t412 171t412 -171t171 -409v-430q0 -82 60 -84v-104h-1498v104h1350q-14 36 -14 84z" />
<glyph unicode="&#x686;" horiz-adv-x="1700" arabic-form="medial" d="M914 -342v142h124v-142h-124zM866 -498v-142h-118v142h118zM1428 188q0 -84 62 -84h220v-104h-1720v104h1350q-14 36 -14 84v430q0 198 -142 338t-339 140t-339 -140t-142 -338v-74h-102v74q0 238 171 409t412 171t412 -171t171 -409v-430zM574 -342v142h124v-142h-124z " />
<glyph unicode="&#x698;" horiz-adv-x="610" arabic-form="final" d="M418 1358v142h120v-142h-120zM78 1358v142h120v-142h-120zM248 1656v142h118v-142h-118zM258 -90v1256h102v-1062h260v-104h-260v-90q0 -146 -120 -248q-104 -84 -240 -96v102q98 12 178 77t80 165z" />
<glyph unicode="&#x6a9;" horiz-adv-x="2078" arabic-form="final" d="M1706 104v268q0 198 -140 336t-330 142h-296v140l678 616l-8 -148l-558 -506h184q234 -4 403 -172t169 -408v-268h280v-104h-1136q-322 4 -550 185q-112 89 -177 208t-65 253v338h102v-338q0 -222 206 -382t496 -160h742z" />
<glyph unicode="&#x6a9;" horiz-adv-x="1298" arabic-form="initial" d="M1138 372v-372h-1148v104h1046v268q0 198 -140 336t-330 142h-296v140l678 616l-8 -148l-558 -506h184q234 -4 403 -172t169 -408z" />
<glyph unicode="&#x6a9;" horiz-adv-x="1408" arabic-form="medial" d="M-10 0v104h1046v268q0 198 -140 336t-330 142h-296v140l678 616l-8 -148l-558 -506h184q234 -4 403 -172t169 -408v-268h280v-104h-1428z" />
<glyph unicode="&#x6af;" horiz-adv-x="2078" arabic-form="final" d="M1706 104v268q0 198 -140 336t-330 142h-296v140l678 616l-8 -148l-558 -506h184q234 -4 403 -172t169 -408v-268h280v-104h-1136q-322 4 -550 185q-112 89 -177 208t-65 253v338h102v-338q0 -222 206 -382t496 -160h742zM1448 1746l-8 -148l-558 -506l-106 42z" />
<glyph unicode="&#x6af;" horiz-adv-x="1298" arabic-form="initial" d="M778 1746l-8 -148l-558 -506l-106 42zM1138 372v-372h-1148v104h1046v268q0 198 -140 336t-330 142h-296v140l678 616l-8 -148l-558 -506h184q234 -4 403 -172t169 -408z" />
<glyph unicode="&#x6af;" horiz-adv-x="1408" arabic-form="medial" d="M778 1746l-8 -148l-558 -506l-106 42zM-10 0v104h1046v268q0 198 -140 336t-330 142h-296v140l678 616l-8 -148l-558 -506h184q234 -4 403 -172t169 -408v-268h280v-104h-1428z" />
<glyph unicode="&#x6c1;" horiz-adv-x="1172" arabic-form="final" d="M742 0q-242 0 -412 171t-170 412t170 412t412 171h270v-1166h-270zM910 104v956h-168q-198 0 -339 -141t-141 -340t139 -337t329 -138h180z" />
<glyph unicode="&#x6c1;" horiz-adv-x="1472" arabic-form="initial" d="M930 422q0 144 -97 232t-194 88t-195 -88t-98 -232t98 -232q82 -76 194 -86q112 10 202 92t90 226zM638 844q138 0 266 -117t128 -316t-144 -307h322v518q0 198 -141 338t-339 140t-340 -140l-72 72q170 170 411 170t412 -171t171 -409v-622h-1322v104h398q-8 6 -14 12 q-130 116 -130 305t128 306t266 117z" />
<glyph unicode="&#x6c1;" horiz-adv-x="1584" arabic-form="medial" d="M638 844q138 0 266 -117t128 -316t-144 -307h322v518q0 198 -141 338t-339 140t-340 -140l-72 72q170 170 411 170t412 -171t171 -409v-518h282v-104h-1604v104h398q-8 6 -14 12q-130 116 -130 305t128 306t266 117zM930 422q0 144 -97 232t-194 88t-195 -88t-98 -232 t98 -232q82 -76 194 -86q112 10 202 92t90 226z" />
<glyph unicode="&#x6be;" horiz-adv-x="1270" arabic-form="final" />
<glyph unicode="&#x6be;" horiz-adv-x="1262" arabic-form="initial" d="M742 0q-242 0 -412 171t-170 412t170 412t412 171h270v-1062h260v-104h-530zM910 104v956h-168q-198 0 -339 -141t-141 -340t139 -337t329 -138h180z" />
<glyph unicode="&#x6cc;" horiz-adv-x="2234" arabic-form="final" d="M1862 0v714q0 96 -43 176t-117 127t-160 47h-96v-1064h-494q-322 4 -550 185q-112 89 -177 208t-65 253v338h102v-338q0 -222 206 -382t496 -160h378v1062h200q176 0 299 -133t123 -319v-610h280v-104h-382z" />
<glyph unicode="&#x6cc;" horiz-adv-x="652" arabic-form="initial" d="M34 -342v142h118v-142h-118zM374 -342v142h118v-142h-118zM270 1166h102v-1166h-382v104h280v1062z" />
<glyph unicode="&#x6cc;" horiz-adv-x="646" arabic-form="medial" d="M92 -342v142h120v-142h-120zM432 -342v142h120v-142h-120zM374 104h282v-104h-666v104h280v1062h104v-1062z" />
<glyph unicode="&#xfc5e;" horiz-adv-x="362" arabic-form="isolated" d="M84 1708q0 36 16 72q28 64 92 90q30 12 61 12t63 -14q62 -26 86 -92q10 -30 10 -62t-17 -70t-53 -66t-156 -48l-30 -12q-42 -18 -70 -18t-40 6q-43 22 -50.5 66t-17.5 54h-6q-12 0 -38 -10l-30 -12l-24 58l28 12q38 16 67 16q53 0 75 -66l8 -38q2 -12 10 -20 q8 -4 18.5 -4t55.5 18q-58 47 -58 128zM146 1710q0 -71 58 -98q16 -6 37 -6t41 8q68 29 68 104q0 16 -6 36q-23 66 -90 66q-20 0 -40 -8q-42 -16 -58 -58q-10 -24 -10 -44zM254 1290h6q18 2 28 14t10 26v148l64 8v-156q0 -34 -25 -66t-69 -38h-12q-32 0 -58 16q0 -4 -6 -10 q-35 -42 -78.5 -42t-71.5 24q-36 26 -42 66v70l64 6v-68q5 -32 42 -32h6q40 4 40 42v114l60 6v-94q8 -34 42 -34z" />
<glyph unicode="&#xfc5f;" horiz-adv-x="362" arabic-form="isolated" d="M374 1424l-356 -114l-18 62l358 114zM390 1282l-358 -112l-16 60l356 114zM254 1590h6q18 2 28 14t10 26v148l64 8v-156q0 -34 -25 -66t-69 -38h-12q-32 0 -58 16q0 -4 -6 -10q-35 -42 -78.5 -42t-71.5 24q-36 26 -42 66v70l64 6v-68q5 -32 42 -32h6q40 4 40 42v114l60 6 v-94q8 -34 42 -34z" />
<glyph unicode="&#xfc60;" horiz-adv-x="362" arabic-form="isolated" d="M370 1562l-358 -112l-16 60l356 114zM254 1290h6q18 2 28 14t10 26v148l64 8v-156q0 -34 -25 -66t-69 -38h-12q-32 0 -58 16q0 -4 -6 -10q-35 -42 -78.5 -42t-71.5 24q-36 26 -42 66v70l64 6v-68q5 -32 42 -32h6q40 4 40 42v114l60 6v-94q8 -34 42 -34z" />
<glyph unicode="&#xfc61;" horiz-adv-x="362" arabic-form="isolated" d="M56 1703q0 71 48 121t115 50t114 -50t47 -108q0 -115 -78 -160q-20 -10 -32 -14l-252 -82l-18 64l128 40q-16 10 -24 20q-48 48 -48 119zM218 1812q-42 0 -71 -32t-29 -76t29 -77t71 -33t74 32q28 34 28 78t-28 76q-32 32 -74 32zM254 1290h6q18 2 28 14t10 26v148l64 8 v-156q0 -34 -25 -66t-69 -38h-12q-32 0 -58 16q0 -4 -6 -10q-35 -42 -78.5 -42t-71.5 24q-36 26 -42 66v70l64 6v-68q5 -32 42 -32h6q40 4 40 42v114l60 6v-94q8 -34 42 -34z" />
<glyph unicode="&#xfc62;" horiz-adv-x="362" arabic-form="isolated" d="M374 1424l-356 -114l-18 62l358 114zM254 1590h6q18 2 28 14t10 26v148l64 8v-156q0 -34 -25 -66t-69 -38h-12q-32 0 -58 16q0 -4 -6 -10q-35 -42 -78.5 -42t-71.5 24q-36 26 -42 66v70l64 6v-68q5 -32 42 -32h6q40 4 40 42v114l60 6v-94q8 -34 42 -34z" />
<glyph unicode="&#x622;" horiz-adv-x="534" arabic-form="final" d="M134 1920q35 0 54.5 -15t43.5 -33q40 -36 54 -36h2q20 4 44 62l16 36l66 -36l-16 -34q-38 -92 -94 -108h-18q-38 0 -88 42t-62 42h-2q-14 -2 -32 -44l-16 -38l-66 36l16 36q32 78 82 90h16zM262 104h282v-104h-384v1606h102v-1502z" />
<glyph unicode="&#x623;" horiz-adv-x="534" arabic-form="final" d="M96 1915q0 57 45 102t104 45t115 -48l-26 -74q-30 18 -43 31t-43 13t-52 -22t-22 -53t21 -52t45 -23h134v-88h-294v88h34q-18 24 -18 81zM262 104h282v-104h-384v1606h102v-1502z" />
<glyph unicode="&#x624;" horiz-adv-x="1262" arabic-form="final" d="M302 1455q0 57 45 102t105 45t114 -48l-26 -74q-30 18 -42 31t-43 13t-53 -22t-22 -53t21 -52t47 -23h132v-88h-292v88h32q-18 24 -18 81zM1012 0v-90q0 -146 -120 -246t-284 -100q-104 0 -194 42t-148 118l-30 40l82 62l30 -40q94 -120 260 -120q126 0 214 72t88 172v90 h-168q-242 0 -412 171t-170 412t170 412t412 171h270v-1062h260v-104h-260zM910 104v956h-168q-198 0 -339 -141t-141 -340t139 -337t329 -138h180z" />
<glyph unicode="&#x625;" horiz-adv-x="534" arabic-form="final" d="M120 -206v88h292v-88h-132q-26 -2 -47 -23t-21 -52t22 -53t53 -22t43 13t42 31l26 -74q-54 -48 -114 -48t-105 45t-45 102t18 81h-32zM262 104h282v-104h-384v1606h102v-1502z" />
<glyph unicode="&#x626;" horiz-adv-x="2234" arabic-form="final" d="M176 1455q0 57 45 102t104 45t115 -48l-26 -74q-30 18 -43 31t-43 13t-52 -22t-22 -53t21 -52t45 -23h134v-88h-294v88h34q-18 24 -18 81zM1862 0v714q0 96 -43 176t-117 127t-160 47h-96v-1064h-494q-322 4 -550 185q-112 89 -177 208t-65 253v338h102v-338 q0 -222 206 -382t496 -160h378v1062h200q176 0 299 -133t123 -319v-610h280v-104h-382z" />
<glyph unicode="&#x626;" horiz-adv-x="534" arabic-form="initial" d="M92 1455q0 57 45 102t104 45t115 -48l-26 -74q-30 18 -43 31t-43 13t-52 -22t-22 -53t21 -52t45 -23h134v-88h-294v88h34q-18 24 -18 81zM270 1166h104v-1166h-384v104h280v1062z" />
<glyph unicode="&#x626;" horiz-adv-x="646" arabic-form="medial" d="M182 1455q0 57 45 102t104 45t115 -48l-26 -74q-30 18 -43 31t-43 13t-52 -22t-22 -53t21 -52t45 -23h134v-88h-294v88h34q-18 24 -18 81zM374 104h282v-104h-666v104h280v1062h104v-1062z" />
<glyph unicode="&#x627;" horiz-adv-x="534" arabic-form="final" d="M262 104h282v-104h-384v1606h102v-1502z" />
<glyph unicode="&#x628;" horiz-adv-x="1818" arabic-form="final" d="M912 -344v142h118v-142h-118zM1442 104v1062h104v-1062h282v-104h-876q-322 4 -550 185q-112 89 -177 208t-65 253v338h102v-338q0 -222 206 -382t496 -160h478z" />
<glyph unicode="&#x628;" horiz-adv-x="532" arabic-form="initial" d="M254 -342v142h118v-142h-118zM270 1166h102v-1166h-382v104h280v1062z" />
<glyph unicode="&#x628;" horiz-adv-x="646" arabic-form="medial" d="M262 -344v142h118v-142h-118zM374 104h282v-104h-666v104h280v1062h104v-1062z" />
<glyph unicode="&#x629;" horiz-adv-x="1262" arabic-form="final" d="M854 1358v142h120v-142h-120zM514 1358v142h120v-142h-120zM742 0q-242 0 -412 171t-170 412t170 412t412 171h270v-1062h260v-104h-530zM910 104v956h-168q-198 0 -339 -141t-141 -340t139 -337t329 -138h180z" />
<glyph unicode="&#x62a;" horiz-adv-x="1818" arabic-form="final" d="M1004 1358v142h120v-142h-120zM684 1358v142h120v-142h-120zM1442 104v1062h104v-1062h282v-104h-876q-322 4 -550 185q-112 89 -177 208t-65 253v338h102v-338q0 -222 206 -382t496 -160h478z" />
<glyph unicode="&#x62a;" horiz-adv-x="712" arabic-form="initial" d="M92 1358v142h120v-142h-120zM432 1358v142h120v-142h-120zM270 1166h102v-1166h-382v104h280v1062z" />
<glyph unicode="&#x62a;" horiz-adv-x="646" arabic-form="medial" d="M92 1358v142h120v-142h-120zM432 1358v142h120v-142h-120zM374 104h282v-104h-666v104h280v1062h104v-1062z" />
<glyph unicode="&#x62b;" horiz-adv-x="1818" arabic-form="final" d="M1004 1358v142h120v-142h-120zM664 1358v142h120v-142h-120zM1442 104v1062h104v-1062h282v-104h-876q-322 4 -550 185q-112 89 -177 208t-65 253v338h102v-338q0 -222 206 -382t496 -160h478zM834 1656v142h118v-142h-118z" />
<glyph unicode="&#x62b;" horiz-adv-x="710" arabic-form="initial" d="M92 1356v144h118v-144h-118zM432 1356v144h118v-144h-118zM260 1654v144h120v-144h-120zM270 1166h102v-1166h-382v104h280v1062z" />
<glyph unicode="&#x62b;" horiz-adv-x="646" arabic-form="medial" d="M92 1358v142h120v-142h-120zM432 1358v142h120v-142h-120zM262 1656v142h118v-142h-118zM374 104h282v-104h-666v104h280v1062h104v-1062z" />
<glyph unicode="&#x62c;" horiz-adv-x="1688" arabic-form="final" d="M1416 188q0 -84 62 -84h220v-104h-1060q-168 0 -250 -43t-112 -149q-12 -48 -12 -94q0 -100 64 -184q94 -124 298 -178l106 -26l-16 -102l-116 32q-254 68 -366 232q-74 104 -74 232q0 58 16 114q48 189 252 244q88 26 278 26h622q-14 36 -14 84v430q0 198 -142 338 t-339 140t-339 -140t-142 -338v-74h-102v74q0 238 171 409t412 171t412 -171t171 -409v-430zM752 -342v142h118v-142h-118z" />
<glyph unicode="&#x62c;" horiz-adv-x="1650" arabic-form="initial" d="M764 -342v142h118v-142h-118zM1326 188v430q0 198 -142 338t-339 140t-339 -140t-142 -338v-74h-102v74q0 238 171 409t412 171t412 -171t171 -409v-430q0 -82 60 -84v-104h-1498v104h1350q-14 36 -14 84z" />
<glyph unicode="&#x62c;" horiz-adv-x="1700" arabic-form="medial" d="M1428 188q0 -84 62 -84h220v-104h-1720v104h1350q-14 36 -14 84v430q0 198 -142 338t-339 140t-339 -140t-142 -338v-74h-102v74q0 238 171 409t412 171t412 -171t171 -409v-430zM764 -342v142h118v-142h-118z" />
<glyph unicode="&#x62d;" horiz-adv-x="1688" arabic-form="final" d="M1416 188q0 -84 62 -84h220v-104h-1060q-168 0 -250 -43t-112 -149q-12 -48 -12 -94q0 -100 64 -184q94 -124 298 -178l106 -26l-16 -102l-116 32q-254 68 -366 232q-74 104 -74 232q0 58 16 114q48 189 252 244q88 26 278 26h622q-14 36 -14 84v430q0 198 -142 338 t-339 140t-339 -140t-142 -338v-74h-102v74q0 238 171 409t412 171t412 -171t171 -409v-430z" />
<glyph unicode="&#x62d;" horiz-adv-x="1650" arabic-form="initial" d="M1326 188v430q0 198 -142 338t-339 140t-339 -140t-142 -338v-74h-102v74q0 238 171 409t412 171t412 -171t171 -409v-430q0 -82 60 -84v-104h-1498v104h1350q-14 36 -14 84z" />
<glyph unicode="&#x62d;" horiz-adv-x="1700" arabic-form="medial" d="M1428 188q0 -84 62 -84h220v-104h-1720v104h1350q-14 36 -14 84v430q0 198 -142 338t-339 140t-339 -140t-142 -338v-74h-102v74q0 238 171 409t412 171t412 -171t171 -409v-430z" />
<glyph unicode="&#x62e;" horiz-adv-x="1688" arabic-form="final" d="M768 1366v142h120v-142h-120zM1416 188q0 -84 62 -84h220v-104h-1060q-168 0 -250 -43t-112 -149q-12 -48 -12 -94q0 -100 64 -184q94 -124 298 -178l106 -26l-16 -102l-116 32q-254 68 -366 232q-74 104 -74 232q0 58 16 114q48 189 252 244q88 26 278 26h622 q-14 36 -14 84v430q0 198 -142 338t-339 140t-339 -140t-142 -338v-74h-102v74q0 238 171 409t412 171t412 -171t171 -409v-430z" />
<glyph unicode="&#x62e;" horiz-adv-x="1650" arabic-form="initial" d="M780 1366v142h120v-142h-120zM1326 618q0 198 -142 338t-339 140t-339 -140t-142 -338v-74h-102v74q0 238 171 409t412 171t412 -171t171 -409v-430q0 -82 60 -84v-104h-1498v104h1350q-14 36 -14 84v430z" />
<glyph unicode="&#x62e;" horiz-adv-x="1700" arabic-form="medial" d="M1428 188q0 -84 62 -84h220v-104h-1720v104h1350q-14 36 -14 84v430q0 198 -142 338t-339 140t-339 -140t-142 -338v-74h-102v74q0 238 171 409t412 171t412 -171t171 -409v-430zM780 1366v142h120v-142h-120z" />
<glyph unicode="&#x62f;" horiz-adv-x="1254" arabic-form="final" d="M160 0v104h720v518q0 198 -141 338t-339 140v102q240 0 411 -171t171 -409v-518h282v-104h-1104z" />
<glyph unicode="&#x630;" horiz-adv-x="1254" arabic-form="final" d="M160 0v104h720v518q0 198 -141 338t-339 140v102q240 0 411 -171t171 -409v-518h282v-104h-1104zM494 1358v142h120v-142h-120z" />
<glyph unicode="&#x631;" horiz-adv-x="610" arabic-form="final" d="M258 -90v1256h102v-1062h260v-104h-260v-90q0 -146 -120 -248q-104 -84 -240 -96v102q98 12 178 77t80 165z" />
<glyph unicode="&#x632;" horiz-adv-x="610" arabic-form="final" d="M254 1348v142h120v-142h-120zM258 -90v1256h102v-1062h260v-104h-260v-90q0 -146 -120 -248q-104 -84 -240 -96v102q98 12 178 77t80 165z" />
<glyph unicode="&#x633;" horiz-adv-x="2678" arabic-form="final" d="M1222 1162h104v-1058h438v1058h102v-1058h440v1062h102v-1062h280v-104h-1362v-350h-374q-322 4 -550 185q-112 89 -177 208t-65 253v338h102v-338q0 -222 206 -382t496 -160h258v1408z" />
<glyph unicode="&#x633;" horiz-adv-x="1616" arabic-form="initial" d="M270 104v1058h104v-1058h438v1058h102v-1058h440v1058h102v-1162h-1466v104h280z" />
<glyph unicode="&#x633;" horiz-adv-x="1726" arabic-form="medial" d="M-10 0v104h280v1058h104v-1058h438v1058h102v-1058h440v1062h102v-1062h280v-104h-1746z" />
<glyph unicode="&#x634;" horiz-adv-x="2678" arabic-form="final" d="M1586 1318v142h118v-142h-118zM1926 1318v142h118v-142h-118zM1222 1162h104v-1058h438v1058h102v-1058h440v1062h102v-1062h280v-104h-1362v-350h-374q-322 4 -550 185q-112 89 -177 208t-65 253v338h102v-338q0 -222 206 -382t496 -160h258v1408zM1754 1636v142h120 v-142h-120z" />
<glyph unicode="&#x634;" horiz-adv-x="1616" arabic-form="initial" d="M634 1358v142h118v-142h-118zM974 1358v142h118v-142h-118zM802 1656v142h120v-142h-120zM270 104v1058h104v-1058h438v1058h102v-1058h440v1058h102v-1162h-1466v104h280z" />
<glyph unicode="&#x634;" horiz-adv-x="1726" arabic-form="medial" d="M974 1318v142h118v-142h-118zM634 1318v142h118v-142h-118zM-10 0v104h280v1058h104v-1058h438v1058h102v-1058h440v1062h102v-1062h280v-104h-1746zM802 1616v142h120v-142h-120z" />
<glyph unicode="&#x635;" horiz-adv-x="2658" arabic-form="final" d="M1222 1198h102v-250q30 42 70 80q170 170 411 170t412 -170t171 -412v-512h280v-104h-1342v-350h-374q-322 4 -550 185q-112 89 -177 208t-65 253v338h102v-338q0 -222 206 -382t496 -160h258v1444zM1326 104h960v512q0 200 -141 340t-339 140q-132 0 -242 -64t-171 -167 t-67 -217v-544z" />
<glyph unicode="&#x635;" horiz-adv-x="1594" arabic-form="initial" d="M370 104h962v512q0 200 -141 340t-339 140q-132 0 -242 -64t-175 -174t-65 -242v-512zM206 104q62 0 62 82v1012h102v-250q30 42 70 80q170 170 411 170t412 -170t171 -412v-616h-1444v104h216z" />
<glyph unicode="&#x635;" horiz-adv-x="1704" arabic-form="medial" d="M206 104q62 0 62 82v1012h102v-250q30 42 70 80q170 170 411 170t412 -170t171 -412v-512h280v-104h-1724v104h216zM370 104h962v512q0 200 -141 340t-339 140q-132 0 -242 -64t-175 -174t-65 -242v-512z" />
<glyph unicode="&#x636;" horiz-adv-x="2658" arabic-form="final" d="M1222 1198h102v-250q30 42 70 80q170 170 411 170t412 -170t171 -412v-512h280v-104h-1342v-350h-374q-322 4 -550 185q-112 89 -177 208t-65 253v338h102v-338q0 -222 206 -382t496 -160h258v1444zM1326 104h960v512q0 200 -141 340t-339 140q-132 0 -242 -64t-171 -167 t-67 -217v-544zM1754 1358v142h120v-142h-120z" />
<glyph unicode="&#x636;" horiz-adv-x="1594" arabic-form="initial" d="M800 1358v142h120v-142h-120zM370 104h962v512q0 200 -141 340t-339 140q-132 0 -242 -64t-175 -174t-65 -242v-512zM206 104q62 0 62 82v1012h102v-250q30 42 70 80q170 170 411 170t412 -170t171 -412v-616h-1444v104h216z" />
<glyph unicode="&#x636;" horiz-adv-x="1704" arabic-form="medial" d="M800 1358v142h120v-142h-120zM206 104q62 0 62 82v1012h102v-250q30 42 70 80q170 170 411 170t412 -170t171 -412v-512h280v-104h-1724v104h216zM370 104h962v512q0 200 -141 340t-339 140q-132 0 -242 -64t-175 -174t-65 -242v-512z" />
<glyph unicode="&#x637;" horiz-adv-x="1744" arabic-form="final" d="M246 104q62 0 62 82v1420h102v-658q30 42 70 80q170 170 411 170t412 -170t171 -412v-512h280v-104h-1594v104h86zM410 104h962v512q0 200 -141 340t-339 140q-132 0 -242 -64t-175 -174t-65 -242v-512z" />
<glyph unicode="&#x637;" horiz-adv-x="1594" arabic-form="initial" d="M370 104h962v512q0 200 -141 340t-339 140q-132 0 -242 -64t-175 -174t-65 -242v-512zM206 104q62 0 62 82v1420h102v-658q30 42 70 80q170 170 411 170t412 -170t171 -412v-616h-1444v104h216z" />
<glyph unicode="&#x637;" horiz-adv-x="1704" arabic-form="medial" d="M206 104q62 0 62 82v1420h102v-658q30 42 70 80q170 170 411 170t412 -170t171 -412v-512h280v-104h-1724v104h216zM370 104h962v512q0 200 -141 340t-339 140q-132 0 -242 -64t-175 -174t-65 -242v-512z" />
<glyph unicode="&#x638;" horiz-adv-x="1744" arabic-form="final" d="M840 1358v142h120v-142h-120zM246 104q62 0 62 82v1420h102v-658q30 42 70 80q170 170 411 170t412 -170t171 -412v-512h280v-104h-1594v104h86zM410 104h962v512q0 200 -141 340t-339 140q-132 0 -242 -64t-175 -174t-65 -242v-512z" />
<glyph unicode="&#x638;" horiz-adv-x="1594" arabic-form="initial" d="M800 1358v142h120v-142h-120zM370 104h962v512q0 200 -141 340t-339 140q-132 0 -242 -64t-175 -174t-65 -242v-512zM206 104q62 0 62 82v1420h102v-658q30 42 70 80q170 170 411 170t412 -170t171 -412v-616h-1444v104h216z" />
<glyph unicode="&#x638;" horiz-adv-x="1704" arabic-form="medial" d="M800 1358v142h120v-142h-120zM206 104q62 0 62 82v1420h102v-658q30 42 70 80q170 170 411 170t412 -170t171 -412v-512h280v-104h-1724v104h216zM370 104h962v512q0 200 -141 340t-339 140q-132 0 -242 -64t-175 -174t-65 -242v-512z" />
<glyph unicode="&#x639;" horiz-adv-x="1536" arabic-form="final" d="M638 0q-168 0 -250 -43t-112 -149q-12 -48 -12 -94q0 -100 64 -184q94 -124 298 -178l106 -26l-16 -102l-116 32q-254 68 -366 232q-74 104 -74 232q0 58 16 114q61 239 374 264h10q-44 36 -82 74q-172 170 -172 411t171 412t399 171t388 -140l-14 -128q-12 12 -24 26 q-142 140 -339 140t-338 -142t-141 -339t134 -332t308 -147h696v-104h-908z" />
<glyph unicode="&#x639;" horiz-adv-x="1466" arabic-form="initial" d="M847 1064q-197 0 -338 -142t-141 -339t134 -332t308 -147h496v-104h-1316v104h528q-42 30 -80 68q-172 170 -172 411t171 412t399 171t388 -140l-14 -128q-12 12 -24 26q-142 140 -339 140z" />
<glyph unicode="&#x639;" horiz-adv-x="1494" arabic-form="medial" d="M-10 0v104h528q-42 30 -80 68q-172 170 -172 411t171 412t399 171t388 -140l-14 -128q-12 12 -24 26q-142 140 -339 140t-338 -142t-141 -339t134 -332t308 -147h694v-104h-1514z" />
<glyph unicode="&#x63a;" horiz-adv-x="1536" arabic-form="final" d="M638 0q-168 0 -250 -43t-112 -149q-12 -48 -12 -94q0 -100 64 -184q94 -124 298 -178l106 -26l-16 -102l-116 32q-254 68 -366 232q-74 104 -74 232q0 58 16 114q61 239 374 264h10q-44 36 -82 74q-172 170 -172 411t171 412t399 171t388 -140l-14 -128q-12 12 -24 26 q-142 140 -339 140t-338 -142t-141 -339t134 -332t308 -147h696v-104h-908zM822 1358v142h120v-142h-120z" />
<glyph unicode="&#x63a;" horiz-adv-x="1466" arabic-form="initial" d="M782 1358v142h120v-142h-120zM847 1064q-197 0 -338 -142t-141 -339t134 -332t308 -147h496v-104h-1316v104h528q-42 30 -80 68q-172 170 -172 411t171 412t399 171t388 -140l-14 -128q-12 12 -24 26q-142 140 -339 140z" />
<glyph unicode="&#x63a;" horiz-adv-x="1494" arabic-form="medial" d="M782 1358v142h120v-142h-120zM1504 104v-104h-1514v104h528q-42 30 -80 68q-172 170 -172 411t171 412t399 171t388 -140l-14 -128q-12 12 -24 26q-142 140 -339 140t-338 -142t-141 -339t134 -332t308 -147h694z" />
<glyph unicode="&#x641;" horiz-adv-x="2364" arabic-form="final" d="M1242 583q0 241 170 412t412 171h270v-1062h280v-104h-1422q-322 4 -550 185q-112 89 -177 208t-65 253v338h102v-338q0 -222 206 -382t496 -160h528q-42 30 -80 68q-170 170 -170 411zM1704 1356v144h120v-144h-120zM1992 1060h-168q-198 0 -339 -141t-141 -340 t142 -339q116 -116 272 -136h234v956z" />
<glyph unicode="&#x641;" horiz-adv-x="1262" arabic-form="initial" d="M712 1356v144h118v-144h-118zM250 583q0 241 170 412t410 171h272v-1166h-1112v104h510q-42 30 -80 68q-170 170 -170 411zM998 104v956h-168q-198 0 -338 -141t-140 -340t140 -339q116 -116 274 -136h232z" />
<glyph unicode="&#x641;" horiz-adv-x="1370" arabic-form="medial" d="M-10 0v104h510q-42 30 -80 68q-170 170 -170 411t170 412t410 171h272v-1062h278v-104h-1390zM998 1060h-168q-198 0 -338 -141t-140 -340t140 -339q116 -116 274 -136h232v956zM712 1356v144h118v-144h-118z" />
<glyph unicode="&#x642;" horiz-adv-x="1774" arabic-form="final" d="M1004 1356v144h120v-144h-120zM1344 1356v144h120v-144h-120zM1422 0h-168q-240 0 -410 171t-170 412t170 412t410 171h272v-1062h258v-104h-258v-350h-574q-322 4 -550 185q-112 89 -177 208t-65 253v338h102v-338q0 -222 206 -382t496 -160h458v246zM1422 1060h-168 q-198 0 -338 -141t-140 -340t138 -337t330 -138h178v956z" />
<glyph unicode="&#x642;" horiz-adv-x="1262" arabic-form="initial" d="M562 1356v144h118v-144h-118zM902 1356v144h118v-144h-118zM250 583q0 241 170 412t410 171h272v-1166h-1112v104h510q-42 30 -80 68q-170 170 -170 411zM998 104v956h-168q-198 0 -338 -141t-140 -340t140 -339q116 -116 274 -136h232z" />
<glyph unicode="&#x642;" horiz-adv-x="1370" arabic-form="medial" d="M562 1356v144h118v-144h-118zM-10 0v104h510q-42 30 -80 68q-170 170 -170 411t170 412t410 171h272v-1062h278v-104h-1390zM998 1060h-168q-198 0 -338 -141t-140 -340t140 -339q116 -116 274 -136h232v956zM902 1356v144h118v-144h-118z" />
<glyph unicode="&#x643;" horiz-adv-x="1818" arabic-form="final" d="M772 1135q0 57 45 102t104 45t115 -48l-26 -74q-30 18 -43 31t-43 13t-52 -22t-22 -53t21 -52t45 -23h134v-88h-294v88h34q-18 24 -18 81zM1442 104v1502h104v-1502h282v-104h-876q-322 4 -550 185q-112 89 -177 208t-65 253v338h102v-338q0 -222 206 -382t496 -160h478z " />
<glyph unicode="&#x643;" horiz-adv-x="1298" arabic-form="initial" d="M1138 372v-372h-1148v104h1046v268q0 198 -140 336t-330 142h-296v140l678 616l-8 -148l-558 -506h184q234 -4 403 -172t169 -408z" />
<glyph unicode="&#x643;" horiz-adv-x="1408" arabic-form="medial" d="M-10 0v104h1046v268q0 198 -140 336t-330 142h-296v140l678 616l-8 -148l-558 -506h184q234 -4 403 -172t169 -408v-268h280v-104h-1428z" />
<glyph unicode="&#x644;" horiz-adv-x="1474" arabic-form="final" d="M1122 1606h104v-1502h258v-104h-258v-350h-274q-322 4 -550 185q-112 89 -177 208t-65 253v338h102v-338q0 -222 206 -382t496 -160h158v1852z" />
<glyph unicode="&#x644;" horiz-adv-x="534" arabic-form="initial" d="M270 1606h104v-1606h-384v104h280v1502z" />
<glyph unicode="&#x644;" horiz-adv-x="646" arabic-form="medial" d="M374 104h282v-104h-666v104h280v1502h104v-1502z" />
<glyph unicode="&#x645;" horiz-adv-x="1840" arabic-form="final" d="M542 474q0 108 30 204q-80 -4 -152 -49t-115 -125t-43 -176v-672h-102v672q0 186 123 319t299 133h32q90 163 240 238q96 48 201 48t200 -47t165 -129q148 -174 148 -401t-112 -385h394v-104h-486q-140 -118 -309 -118t-309 118l-92 104q-112 158 -112 370zM1055 964 q-169 0 -290 -143t-121 -347q0 -132 56 -245t150 -179t191 -66q184 0 304.5 144.5t120.5 347t-121 345.5t-290 143z" />
<glyph unicode="&#x645;" horiz-adv-x="1456" arabic-form="initial" d="M784 -118q-170 0 -310 118h-484v104h392q-112 158 -112 385t148 401q155 176 366 176q104 0 199 -47t165 -129q148 -174 148 -417t-148 -415q-70 -84 -165 -130t-199 -46zM778 -16q175 0 295.5 144.5t120.5 347t-121 345.5t-290 143t-290 -143t-121 -347q0 -132 55 -244 t147 -178l34 -20q82 -48 170 -48z" />
<glyph unicode="&#x645;" horiz-adv-x="1568" arabic-form="medial" d="M783 -118q-169 0 -309 118h-484v104h392q-112 158 -112 385t148 401q155 176 366 176q104 0 199 -47t165 -129q148 -174 148 -401t-112 -385h394v-104h-486q-140 -118 -309 -118zM783 964q-169 0 -290 -143t-121 -347q0 -132 56 -245t150 -179t191 -66q184 0 304.5 144.5 t120.5 347t-121 345.5t-290 143z" />
<glyph unicode="&#x646;" horiz-adv-x="1474" arabic-form="final" d="M642 1358v142h120v-142h-120zM1122 1166h104v-1062h258v-104h-258v-350h-274q-322 4 -550 185q-112 89 -177 208t-65 253v338h102v-338q0 -222 206 -382t496 -160h158v1412z" />
<glyph unicode="&#x646;" horiz-adv-x="542" arabic-form="initial" d="M262 1348v142h120v-142h-120zM270 1166h104v-1166h-384v104h280v1062z" />
<glyph unicode="&#x646;" horiz-adv-x="646" arabic-form="medial" d="M262 1352v144h120v-144h-120zM374 104h282v-104h-666v104h280v1062h104v-1062z" />
<glyph unicode="&#x647;" horiz-adv-x="1262" arabic-form="final" d="M742 0q-242 0 -412 171t-170 412t170 412t412 171h270v-1062h260v-104h-530zM910 104v956h-168q-198 0 -339 -141t-141 -340t139 -337t329 -138h180z" />
<glyph unicode="&#x647;" horiz-adv-x="1472" arabic-form="initial" d="M930 422q0 144 -97 232t-194 88t-195 -88t-98 -232t98 -232q82 -76 194 -86q112 10 202 92t90 226zM638 844q138 0 266 -117t128 -316t-144 -307h322v518q0 198 -141 338t-339 140t-340 -140l-72 72q170 170 411 170t412 -171t171 -409v-622h-1322v104h398q-8 6 -14 12 q-130 116 -130 305t128 306t266 117z" />
<glyph unicode="&#x647;" horiz-adv-x="1584" arabic-form="medial" d="M638 844q138 0 266 -117t128 -316t-144 -307h322v518q0 198 -141 338t-339 140t-340 -140l-72 72q170 170 411 170t412 -171t171 -409v-518h282v-104h-1604v104h398q-8 6 -14 12q-130 116 -130 305t128 306t266 117zM930 422q0 144 -97 232t-194 88t-195 -88t-98 -232 t98 -232q82 -76 194 -86q112 10 202 92t90 226z" />
<glyph unicode="&#x648;" horiz-adv-x="1262" arabic-form="final" d="M1012 0v-90q0 -146 -120 -246t-284 -100q-104 0 -194 42t-148 118l-30 40l82 62l30 -40q94 -120 260 -120q126 0 214 72t88 172v90h-168q-242 0 -412 171t-170 412t170 412t412 171h270v-1062h260v-104h-260zM910 104v956h-168q-198 0 -339 -141t-141 -340t139 -337 t329 -138h180z" />
<glyph unicode="&#x649;" horiz-adv-x="2234" arabic-form="final" d="M1862 0v714q0 96 -43 176t-117 127t-160 47h-96v-1064h-494q-322 4 -550 185q-112 89 -177 208t-65 253v338h102v-338q0 -222 206 -382t496 -160h378v1062h200q176 0 299 -133t123 -319v-610h280v-104h-382z" />
<glyph unicode="&#x64a;" horiz-adv-x="2234" arabic-form="final" d="M844 -342v142h118v-142h-118zM1862 0v714q0 96 -43 176t-117 127t-160 47h-96v-1064h-494q-322 4 -550 185q-112 89 -177 208t-65 253v338h102v-338q0 -222 206 -382t496 -160h378v1062h200q176 0 299 -133t123 -319v-610h280v-104h-382zM1184 -342v142h118v-142h-118z " />
<glyph unicode="&#x64a;" horiz-adv-x="652" arabic-form="initial" d="M34 -342v142h118v-142h-118zM374 -342v142h118v-142h-118zM270 1166h102v-1166h-382v104h280v1062z" />
<glyph unicode="&#x64a;" horiz-adv-x="646" arabic-form="medial" d="M92 -342v142h120v-142h-120zM432 -342v142h120v-142h-120zM374 104h282v-104h-666v104h280v1062h104v-1062z" />
<glyph unicode="&#xd;" horiz-adv-x="1282" />
<glyph unicode=" "  horiz-adv-x="400" />
<glyph unicode="&#x09;" horiz-adv-x="400" />
<glyph unicode="&#xa0;" horiz-adv-x="400" />
<glyph unicode="!" horiz-adv-x="510" d="M256 204q42 0 68 -29t26 -73t-26 -73t-68 -29t-69 29t-27 73t27 73t69 29zM204 642v964h104v-964h-104z" />
<glyph unicode="&#x22;" horiz-adv-x="590" d="M328 1276v330h102v-330h-102zM160 1276v330h102v-330h-102z" />
<glyph unicode="#" horiz-adv-x="1516" d="M938 656l110 338h-452l-112 -338h454zM1356 1094v-100h-202l-112 -338h176v-100h-210l-184 -556h-106l184 556h-452l-182 -556h-108l186 556h-156v100h188l112 338h-162v100h196l170 512h104l-168 -512h450l170 512h106l-170 -512h170z" />
<glyph unicode="$" horiz-adv-x="1246" d="M984 475q0 127 -100 193q-64 42 -198 80v-574q138 12 218 93t80 208zM294 1156q0 -128 100 -194q62 -40 188 -78v534q-288 -18 -288 -262zM975 191q-111 -107 -289 -121v-70h-104v70q-142 6 -232 51t-160 143l-30 42l84 60l30 -44q46 -68 112 -106t196 -44v604 q-166 48 -244 102q-146 94 -146 268t102 269t288 105v86h104v-88q188 -22 306 -192l28 -42l-84 -58l-28 40q-88 128 -222 150v-562q176 -48 256 -100q144 -100 144 -278t-111 -285z" />
<glyph unicode="%" horiz-adv-x="1400" d="M968 98q56 0 93 24q81 53 81 138q0 86 -47 138t-115 52t-115 -52t-47 -124t47 -124t103 -52zM979 548q107 0 184 -81t77 -194t-77 -193t-184 -80t-183 80t-76 193t76 194t183 81zM420 1488q-66 0 -113 -52t-47 -123t47 -123t113 -52t114 52t48 123t-48 123t-114 52z M420 1040q-108 0 -184 80t-76 193t76 193t184 80t184 -80t76 -192q0 -74 -34 -138t-95 -100t-131 -36zM1100 1606h114l-928 -1606h-112z" />
<glyph unicode="&#x26;" horiz-adv-x="1542" d="M730 1504q-112 0 -155 -42q-136 -133 47 -528q56 24 116 46q130 42 193 142q86 137 27 259q-59 123 -228 123zM638 100q204 0 338 126q-229 251 -400 572q-124 -72 -200 -168q-110 -142 -88 -288q20 -110 113 -176t237 -66zM638 0q-186 0 -305 91t-145 235 q-28 188 110 366q90 114 234 198q-22 44 -38 90q-164 416 20 562q80 64 220 64t231 -76t113 -192q22 -138 -60 -266q-84 -136 -250 -188q-54 -20 -102 -42q160 -300 378 -540l8 12q154 218 154 608h100q0 -419 -170 -666q-10 -14 -22 -28q166 -158 268 -188l-30 -96 q-132 40 -306 210q-166 -154 -408 -154z" />
<glyph unicode="'" horiz-adv-x="496" d="M234 1602h102v-48q0 -84 -32 -172t-68 -124l-76 68q28 28 51 96t23 132v48z" />
<glyph unicode="(" horiz-adv-x="798" d="M638 -264q-100 0 -190 75t-158 215q-130 268 -130 646t130 648q68 138 158 212t190 74v-100q-66 0 -134 -58t-124 -174q-120 -248 -120 -603t120 -603q56 -112 124 -172t134 -60v-100z" />
<glyph unicode=")" horiz-adv-x="800" d="M160 -264v100q70 0 138 60t120 172q122 248 122 603t-122 603q-52 116 -120 174t-138 58v100q102 0 192 -74t156 -212q132 -270 132 -648t-132 -646q-66 -140 -156 -215t-192 -75z" />
<glyph unicode="*" horiz-adv-x="1142" d="M982 1226v-100h-312l244 -320l-80 -60l-262 348l-264 -348l-78 60l242 320h-312v100h312l-242 320l78 60l264 -348l262 348l80 -60l-244 -320h312z" />
<glyph unicode="+" horiz-adv-x="1326" d="M1166 658v-102h-452v-554h-102v554h-452v102h452v552h102v-552h452z" />
<glyph unicode="," horiz-adv-x="512" d="M250 -40v174h102v-174q0 -126 -76 -206q-38 -40 -80 -54l-36 94q56 28 80 100q10 30 10 66z" />
<glyph unicode="-" horiz-adv-x="882" d="M160 556v102h562v-102h-562z" />
<glyph unicode="." horiz-adv-x="510" d="M254 206q42 0 69 -29t27 -73t-27 -73t-69 -29t-68 29t-26 73t26 73t68 29z" />
<glyph unicode="/" horiz-adv-x="960" d="M268 0h-108l532 1606h108z" />
<glyph unicode="0" horiz-adv-x="1312" d="M656 1504q-150 0 -242 -98t-124 -236q-28 -142 -28 -367t28 -367q42 -168 154 -262q86 -72 224 -72t231 99t123 238t30 364t-30 365t-123 238t-243 98zM657 0q-185 0 -306 120t-156 284t-35 399t35 399t156 284t306 120t306 -120t155 -284t34 -399t-34 -399t-155 -284 t-306 -120z" />
<glyph unicode="1" horiz-adv-x="780" d="M620 0h-102v1408q-98 -113 -176 -166q-74 -56 -128 -56h-54v102h54q20 0 69 34t108 97t93 116t34 71h102v-1606z" />
<glyph unicode="2" horiz-adv-x="1174" d="M1004 0h-844v52q0 284 148 480q80 103 193 190q39 30 108 78t100 73q112 90 157 161q44 71 44 176q-4 80 -42 152q-80 142 -272 142q-146 0 -254 -82q-56 -42 -80 -82l-88 52q32 54 102 108q138 106 320 106q254 0 362 -198q54 -96 56 -194v-2q0 -168 -112 -298 q-62 -74 -230 -194l-75 -54q-95 -68 -128 -104t-67 -76q-125 -147 -140 -384h742v-102z" />
<glyph unicode="3" horiz-adv-x="1268" d="M648 12q-200 0 -350 116q-76 58 -110 118l88 54q28 -48 88 -92q120 -92 282 -92t261 104t99 240t-106 226q-130 110 -402 110l2 102q222 0 338 98q96 80 96 204q0 78 -38 148t-113 116t-156 46t-141 -18t-95 -40t-65 -50t-38 -40l-40 -64l-88 54l28 44q32 56 102 110 q136 106 322 106t306 -125t120 -292t-134 -277q-42 -36 -98 -64q92 -32 160 -90q142 -120 142 -300t-124 -312q-136 -140 -336 -140z" />
<glyph unicode="4" horiz-adv-x="1324" d="M876 690v748l-586 -748h586zM1164 690v-102h-186v-588h-102v588h-716v102l718 916h100v-916h186z" />
<glyph unicode="5" horiz-adv-x="1254" d="M618 1008q198 0 337 -147t139 -355t-139 -357t-337 -149q-142 0 -262 82t-174 220l-22 46l96 40l20 -48q44 -108 137 -173t200 -65t193 55t136 147t50 200q0 166 -109 285t-265 119t-266 -122l-36 -36l-102 4l34 852h752v-102h-652l-26 -602q132 106 296 106z" />
<glyph unicode="6" horiz-adv-x="1266" d="M636 98q152 0 260 119t108 287q0 108 -49 202t-134 148t-186 54t-185 -54t-134 -148t-50 -203t50 -202t134 -148t186 -55zM1106 504q0 -208 -138 -356q-136 -152 -332 -152t-334 152q-72 78 -106 191t-34 333l-2 226q0 166 18 272q34 200 132 304q122 128 346 128 q112 0 211 -55t165 -149l30 -42l-84 -60l-30 44q-52 76 -129 118t-163 42q-180 0 -267 -91t-109 -226t-22 -235v-142q146 204 378 204q196 0 333 -149t137 -357z" />
<glyph unicode="7" horiz-adv-x="1338" d="M432 0h-102q0 200 124 494q183 445 596 1010h-890v102h1018l-2 -98q-180 -238 -368 -552q-376 -626 -376 -956z" />
<glyph unicode="8" horiz-adv-x="1268" d="M632 102q154 0 263 103t109 247t-109 247t-263 103t-262 -103t-108 -247t108 -247t262 -103zM302 1204q0 -124 98 -212t235 -88t234 88t97 212t-97 212t-234 88t-235 -88t-98 -212zM1068 1204q0 -223 -218 -350q64 -32 116 -82q142 -132 142 -320t-140 -320t-335 -132 t-335 132q-138 132 -138 320t138 320q54 50 120 82q-218 127 -218 350q0 168 128 285t306 117t306 -117t128 -285z" />
<glyph unicode="9" horiz-adv-x="1266" d="M630 1500q-100 0 -185 -54t-134 -148t-49 -204q0 -166 107 -285t260 -119t260 119t107 286t-107 286t-259 119zM610 -4q-114 0 -213 55t-165 151l-28 42l84 58l28 -44q54 -76 131 -118t163 -42q180 0 267 92t109 227t22 235v142q-22 -30 -44 -56q-140 -150 -335 -150 t-333 150q-136 150 -136 358t137 357t332 149t335 -150q72 -80 106 -191t34 -335l2 -224q0 -138 -9 -200q-25 -169 -55 -243q-30 -73 -86 -133q-124 -130 -346 -130z" />
<glyph unicode=":" horiz-adv-x="510" d="M254 806q-42 0 -68 27t-26 71t26 73t68 29t69 -29t27 -73t-27 -71t-69 -27zM254 206q42 0 69 -29t27 -73t-27 -73t-69 -29t-68 29t-26 73t26 73t68 29z" />
<glyph unicode=";" horiz-adv-x="556" d="M250 -40v174h102v-174q0 -126 -76 -206q-38 -40 -80 -54l-36 94q56 28 80 100q10 30 10 66zM302 1006q42 0 68 -29t26 -73t-26 -71t-69 -27t-69 27t-26 71t27 73t69 29z" />
<glyph unicode="&#x3c;" horiz-adv-x="1366" d="M1154 0l-994 596v62l994 596l52 -86l-902 -540l902 -542z" />
<glyph unicode="=" horiz-adv-x="1328" d="M160 328v102h1008v-102h-1008zM160 800v102h1008v-102h-1008z" />
<glyph unicode="&#x3e;" horiz-adv-x="1364" d="M210 0l-50 86l900 542l-900 540l50 86l994 -596v-62z" />
<glyph unicode="?" horiz-adv-x="1178" d="M560 1606q232 0 345 -106t113 -292t-92 -298q-54 -68 -184 -132q-54 -26 -78 -43q-60 -42 -60 -117v-48h-98v48q0 112 58 162t119 80t83 43t57 43q97 83 97 276q0 284 -360 284q-84 0 -160 -42t-130 -120l-28 -44l-82 58l28 42q68 98 165 152t207 54zM569 198 q41 0 67 -28t26 -71t-26 -71t-68 -28t-67 28t-25 71t26 71t67 28z" />
<glyph unicode="@" horiz-adv-x="2084" d="M1019 140q167 0 284 139t117 335t-117 335t-284 139t-285 -139t-118 -335t118 -335t285 -139zM661 208q-147 170 -147 406t145 406t359 170q213 0 360 -172q66 -74 102 -170l68 334l100 -20l-188 -928q-14 -70 12 -102t81 -32t106 51t88 136t56 177t19 152q0 186 -61 355 t-166 291t-249 194t-304 72q-212 0 -392 -122t-284 -332t-104 -457t104 -457t284 -332t392 -122q142 0 272 54q80 36 152 90l40 32l62 -82l-40 -30q-82 -62 -172 -104q-152 -62 -323 -62t-333 78t-284 220t-190 322q-66 188 -66 393t66 393q68 180 190 322t284 220t343 78 t343 -78t284 -220t188 -326t66 -390q0 -100 -27 -201q-63 -236 -167 -337q-82 -80 -181 -80t-144 56t-49 130q-146 -146 -347 -146t-348 170z" />
<glyph unicode="A" horiz-adv-x="1536" d="M602 692h304q84 0 112 24l-250 720l-266 -760q48 16 100 16zM906 592h-304q-114 0 -158 -88l-176 -504h-108l560 1606h96l560 -1606h-108l-214 618q-56 -26 -148 -26z" />
<glyph unicode="B" horiz-adv-x="1432" d="M824 102q140 0 243 102t103 245t-103 245t-243 102l-478 2q-46 0 -84 14v-710h562zM824 900q124 0 212 88t88 213t-88 214t-212 89h-562v-546q5 -58 84 -58h478zM1272 450q0 -186 -130 -318q-138 -132 -318 -132h-664v1606h664q166 0 285 -119t119 -287q0 -110 -56 -203 t-148 -147q64 -32 118 -84q130 -130 130 -316z" />
<glyph unicode="C" horiz-adv-x="1520" d="M824 0q-285 0 -475 237q-189 237 -189 567t186 562q189 240 478 240q146 0 282 -86t226 -232l28 -44l-88 -54l-28 44q-169 270 -442 270q-138 0 -265 -94t-201 -255t-74 -352t74 -351t201 -255t265 -95q275 0 442 272l28 42l88 -54l-28 -44q-90 -146 -226 -232t-282 -86z " />
<glyph unicode="D" horiz-adv-x="1438" d="M1176 808q0 140 -43 269t-116 223t-174 149t-209 55h-372v-1400l372 -2q220 0 381 206t161 500zM634 0h-2l-472 2v1604h474q132 0 251 -63t209 -175q184 -232 184 -562t-184 -564q-90 -112 -209 -177t-251 -65z" />
<glyph unicode="E" horiz-adv-x="1276" d="M346 796q-84 0 -84 -64v-630h854v-102h-956v1606h956v-102h-854v-620q38 14 84 14h770v-102h-770z" />
<glyph unicode="F" horiz-adv-x="1328" d="M1010 898v-102h-664q-46 0 -66 -21t-18 -47v-728h-102v1606h1008v-102h-906v-620q32 12 70 14h678z" />
<glyph unicode="G" horiz-adv-x="1608" d="M160 804q0 330 186 562q189 240 479 240q149 0 291 -93t230 -251l-90 -52q-76 138 -195 216t-259 78t-266 -94t-200 -255t-74 -352t74 -351t200 -255t274 -95q88 0 179 51t166 134t127 204t62 253h-614v102h666q20 0 36 -14t16 -36q0 -156 -53 -301t-145 -255 q-198 -240 -448 -240q-126 0 -246 64t-210 176q-186 234 -186 564z" />
<glyph unicode="H" horiz-adv-x="1360" d="M936 898q120 0 162 84v624h102v-1606h-102v838q-66 -40 -152 -42h-522q-84 0 -132 -48q-20 -16 -30 -36v-712h-102v1606h102v-752q70 44 162 44h512z" />
<glyph unicode="I" horiz-adv-x="422" d="M160 0v1606h102v-1606h-102z" />
<glyph unicode="J" horiz-adv-x="970" d="M160 0v102q148 0 274 94t200 254t74 352v804h102v-804q0 -330 -186 -564q-90 -110 -209 -174t-255 -64z" />
<glyph unicode="K" horiz-adv-x="1390" d="M262 0h-102v1606h102v-696q16 28 46 52l690 644h150l-774 -722q-55 -45 -8 -88l864 -796h-152l-776 718q-24 18 -40 44v-762z" />
<glyph unicode="L" horiz-adv-x="1328" d="M262 102h906v-102h-1008v1606h102v-1504z" />
<glyph unicode="M" horiz-adv-x="1594" d="M1434 1606v-1606h-102v1318l-482 -1318h-108l-480 1318v-1318h-102v1606h104l532 -1456l532 1456h106z" />
<glyph unicode="N" horiz-adv-x="1348" d="M1086 1606h102v-1606h-160l-766 1406v-1406h-102v1606h108l818 -1500v1500z" />
<glyph unicode="O" horiz-adv-x="1622" d="M810 1504q-148 0 -274 -94t-200 -255t-74 -352t74 -351t200 -255t274 -95t275 95t201 255t74 351t-74 352t-201 255t-275 94zM811 0q-135 0 -255 64t-210 176q-186 234 -186 564t186 562q90 114 210 177t255 63t255 -63t208 -177q188 -232 188 -562t-188 -564 q-88 -112 -208 -176t-255 -64z" />
<glyph unicode="P" horiz-adv-x="1386" d="M822 898q124 0 212 89t88 214t-88 214t-212 89h-560v-620q34 12 76 14h484zM346 796q-79 0 -84 -62v-734h-102v1606h664q108 0 201 -55t147 -148t54 -205q0 -166 -118 -284t-286 -118h-476z" />
<glyph unicode="Q" horiz-adv-x="1622" d="M810 102q148 0 275 95t201 255t74 351t-74 352t-201 255t-275 94t-274 -94t-200 -255t-74 -352t74 -351t200 -255t274 -95zM1462 804q0 -382 -248 -630q39 -58 100 -77q16 -5 24 -5h10l6 -102h-6q-128 0 -212 116q-154 -106 -307 -106q-290 0 -480 237q-189 237 -189 567 t186 562q90 114 210 177t255 63t255 -63t208 -177q188 -232 188 -562z" />
<glyph unicode="R" horiz-adv-x="1424" d="M822 898q124 0 212 89t88 213t-88 214t-212 90h-560v-620q34 12 76 14h484zM346 796q-79 0 -84 -62v-734h-102v1606h662q110 0 203 -54t147 -148t54 -222t-94 -240t-234 -138q20 -26 36 -56l330 -748h-112l-314 710q-27 45 -49 59q-47 27 -59 27h-384z" />
<glyph unicode="S" horiz-adv-x="1460" d="M740 1506q-442 0 -442 -302q0 -115 74 -180t229 -109q61 -17 159 -43q258 -62 351 -117t141 -127t48 -172q0 -206 -146 -324q-150 -132 -392 -132t-363 52t-207 162l-32 38l82 62l32 -42q32 -38 62 -65q119 -107 403 -107q213 0 334 95t121 257q0 108 -70 171 q-70 64 -229 111q-61 18 -239 62t-272 98q-190 109 -190 301q0 191 128 297q142 114 418 114q130 0 245 -56t195 -158l32 -40l-80 -62l-34 42q-64 84 -159 129t-199 45z" />
<glyph unicode="T" horiz-adv-x="1506" d="M1346 1606v-102h-556v-1504h-102v1504h-528v102h1186z" />
<glyph unicode="U" horiz-adv-x="1332" d="M665 2q-209 0 -357 148t-148 358v1098h102v-1098q0 -168 119 -286t286 -118t285 118t118 286v1098h102v-1098q0 -210 -149 -358t-358 -148z" />
<glyph unicode="V" horiz-adv-x="1550" d="M722 0l-562 1606h110l506 -1450l504 1450h110l-560 -1606h-108z" />
<glyph unicode="W" horiz-adv-x="2286" d="M2022 1606h104l-560 -1606h-92l-330 1210l-330 -1210h-92l-562 1606h104l498 -1426l346 1276h70l346 -1276z" />
<glyph unicode="X" horiz-adv-x="1636" d="M1476 1606l-596 -802l596 -804h-124l-534 722l-534 -722h-124l596 804l-596 802h124l534 -720l534 720h124z" />
<glyph unicode="Y" horiz-adv-x="1660" d="M880 636v-636h-100v636q0 96 -32 178l-588 792h126l544 -734l546 734h124l-588 -792q-32 -82 -32 -178z" />
<glyph unicode="Z" horiz-adv-x="1592" d="M1392 102v-102h-1232v84l1126 1420h-1084v102h1230v-84l-1124 -1420h1084z" />
<glyph unicode="[" horiz-adv-x="568" d="M408 -282h-248v1888h248v-102h-146v-1684h146v-102z" />
<glyph unicode="\" horiz-adv-x="962" d="M694 0l-534 1606h110l532 -1606h-108z" />
<glyph unicode="]" horiz-adv-x="568" d="M160 -282v102h146v1684h-146v102h248v-1888h-248z" />
<glyph unicode="^" horiz-adv-x="1072" d="M218 1248l-58 84l392 274l360 -276l-60 -80l-302 230z" />
<glyph unicode="_" horiz-adv-x="1326" d="M160 0v102h1006v-102h-1006z" />
<glyph unicode="`" horiz-adv-x="496" d="M234 1258v48q0 95 -48 187q-16 31 -26 41l76 68q36 -36 68 -124t32 -172v-48h-102z" />
<glyph unicode="a" horiz-adv-x="1166" d="M584 592q-136 0 -228 -74t-92 -171t92 -171t228 -74t228 74t92 170v258q-30 -12 -64 -12h-256zM838 694q66 0 66 78v68q0 100 -88 172t-214 72q-80 0 -149 -32t-109 -86l-32 -42l-84 62l32 40q56 74 146 117t196 43q166 0 285 -100t119 -246v-494q0 -146 -125 -246 t-297 -100t-298 100t-126 247t126 247t298 100h254z" />
<glyph unicode="b" horiz-adv-x="1172" d="M262 102h168q200 0 340 141t140 339q0 132 -64 242t-174 175t-242 65h-82q-48 0 -86 14v-976zM262 1228q0 -62 84 -62h84q242 0 412 -171t170 -412t-170 -412t-412 -171h-270v1606h102v-378z" />
<glyph unicode="c" horiz-adv-x="1186" d="M638 0q-86 0 -177 47t-161 129q-140 174 -140 417t142 416q68 83 159 130t193 47q222 0 340 -160l32 -40l-82 -62l-32 42q-61 85 -180 110q-38 8 -78 8q-162 0 -277 -142t-115 -349t115 -349t277 -142q80 0 149 32t109 88l32 40l82 -60l-32 -42q-71 -99 -205 -140 q-65 -20 -151 -20z" />
<glyph unicode="d" horiz-adv-x="1172" d="M824 1064h-84q-198 0 -338 -142t-140 -340q0 -96 38 -185t102 -154t153 -103t185 -38h168v976q-36 -14 -84 -14zM160 583q0 241 171 412t409 171h84q84 0 84 60v380h104v-1606h-272q-238 0 -409 171t-171 412z" />
<glyph unicode="e" horiz-adv-x="1206" d="M320 694h286q158 0 246 70q74 56 74 133t-71 132t-206 55t-245 -114t-136 -286q30 10 52 10zM654 102q192 0 280 120l30 40l82 -60l-30 -42q-120 -160 -362 -160q-208 0 -351 175t-143 418t144 418t350 175q168 0 271 -83t103 -208t-114 -214t-308 -89h-278 q-45 0 -56 -39q-6 -21 -6 -27l2 -18v-2q24 -169 134 -288q50 -54 117 -85t135 -31z" />
<glyph unicode="f" horiz-adv-x="792" d="M346 1084q-84 0 -84 -66v-1018h-102v1156q0 184 122 318q124 132 300 132h50v-102h-50q-130 0 -222 -97t-98 -235q38 14 84 14h236v-102h-236z" />
<glyph unicode="g" horiz-adv-x="1172" d="M824 130q48 0 84 -14v974h-168q-198 0 -338 -141t-140 -340t140 -339t338 -140h84zM740 28q-240 0 -410 171t-170 411t170 411t410 171h272v-1254q0 -146 -120 -247t-284 -101q-104 0 -194 42t-148 118l-30 42l80 62l32 -42q42 -56 111 -87t149 -31q124 0 212 71t88 173 v28q-5 62 -84 62h-84z" />
<glyph unicode="h" horiz-adv-x="1164" d="M1004 718v-718h-102v718q0 96 -43 176t-117 127t-160 47h-254q-34 0 -66 12v-1080h-102v1606h102v-350q0 -50 21 -68t41 -18h258q176 0 299 -133t123 -319z" />
<glyph unicode="i" horiz-adv-x="422" d="M213 1552q13 0 31 -11t18 -39v-28q0 -22 -15 -37t-36 -15t-36 15t-15 37v28q0 32 31 46q9 4 22 4zM160 0v1186h102v-1186h-102z" />
<glyph unicode="j" horiz-adv-x="794" d="M532 42v1196h102v-1196q0 -186 -123 -319t-299 -133h-52v104h52q132 0 226 102t94 246zM582 1552q14 0 33 -11t19 -39v-28q0 -22 -16 -37t-36 -15t-35 15t-15 37v28q0 27 18 39q18 11 32 11z" />
<glyph unicode="k" horiz-adv-x="1254" d="M262 0h-102v1606h102v-946l664 526h166l-612 -486q24 -16 42 -36l572 -664h-138l-512 596q-26 26 -41 27t-29 -7l-112 -88v-528z" />
<glyph unicode="l" horiz-adv-x="422" d="M160 0v1606h102v-1606h-102z" />
<glyph unicode="m" horiz-adv-x="1904" d="M1744 734v-734h-102v734q0 146 -93 248t-226 102t-226 -102t-93 -248v-734h-102v734q0 96 -43 176t-117 127t-160 47q-134 0 -227 -102t-93 -248v-734h-102v734q0 186 122 320q124 132 300 132t298 -132q44 -48 72 -104q126 236 372 236q176 0 298 -133t122 -319z" />
<glyph unicode="n" horiz-adv-x="1164" d="M1004 0h-102v734q0 96 -43 176t-117 127t-160 47q-134 0 -227 -102t-93 -248v-734h-102v734q0 186 122 320q124 132 300 132t299 -133t123 -319v-734z" />
<glyph unicode="o" horiz-adv-x="1346" d="M673 1084q-169 0 -290 -143t-121 -347q0 -132 55 -245t149 -179t192 -66q182 0 303 143t121 347t-120 347t-289 143zM160 593q0 243 146 417q155 176 366 176t366 -176q148 -174 148 -417t-149 -417t-365 -174q-215 0 -364 174q-148 174 -148 417z" />
<glyph unicode="p" horiz-adv-x="1172" d="M348 134h82q132 0 242 64t174 175t64 241q0 200 -141 340t-339 140h-168v-974q38 14 86 14zM1012 614q0 -240 -170 -411t-412 -171h-84q-65 0 -80 -41q-4 -11 -4 -19v-382h-102v1606h270q242 0 412 -171t170 -411z" />
<glyph unicode="q" horiz-adv-x="1172" d="M908 1094h-168q-198 0 -338 -141t-140 -339t140 -339t338 -141h84q48 0 84 -14v974zM908 -30q0 62 -84 62h-84q-238 0 -409 171t-171 411t171 411t409 171h272v-1606h-104v380z" />
<glyph unicode="r" horiz-adv-x="742" d="M262 0h-102v734q0 186 122 320q124 132 300 132v-102q-158 0 -258 -143q-62 -89 -62 -207v-734z" />
<glyph unicode="s" horiz-adv-x="1148" d="M988 339q0 -149 -106 -244t-280 -95t-261 39t-149 121l-32 42l82 60l32 -40q42 -58 108 -89t204 -31t219 64t81 164t-82 152q-60 34 -234 78t-246 88q-134 82 -134 226t98 228t296 84t320 -160l32 -40l-80 -64l-34 42q-92 120 -238 120q-292 0 -292 -202q0 -96 86 -146 q60 -36 234 -81t244 -85q132 -82 132 -231z" />
<glyph unicode="t" horiz-adv-x="744" d="M348 1062q-81 0 -86 -64v-544q0 -146 94 -249t228 -103v-102q-178 0 -301 133t-123 321v1152h102v-456q38 14 86 14h236v-102h-236z" />
<glyph unicode="u" horiz-adv-x="1164" d="M582 0q-176 0 -299 133t-123 321v732h102v-732q0 -146 93 -249t226 -103t227 103t94 249v732h102v-732q0 -188 -123 -321t-299 -133z" />
<glyph unicode="v" horiz-adv-x="1300" d="M700 0h-98l-442 1186h110l380 -1022l382 1022h108z" />
<glyph unicode="w" horiz-adv-x="1928" d="M1326 0h-96l-266 856l-264 -856h-98l-442 1186h110l376 -1010l268 868h98l270 -868l376 1010h110z" />
<glyph unicode="x" horiz-adv-x="1302" d="M1140 1186l-428 -592l430 -594h-124l-368 508l-366 -508h-124l428 594l-428 592h124l366 -508l368 508h122z" />
<glyph unicode="y" horiz-adv-x="1308" d="M566 -94q12 54 12 105t-44 177l-374 998h108l358 -962q12 -38 26 -86l392 1048h104l-490 -1312q-44 -126 -147 -205t-233 -79h-50v100h50q96 0 175 59t111 157h2z" />
<glyph unicode="z" horiz-adv-x="1260" d="M1060 0h-900v84l794 1000h-754v102h900v-84l-794 -1000h754v-102z" />
<glyph unicode="{" horiz-adv-x="962" d="M734 -254q-180 0 -240 148q-34 82 -38 279t-26 285t-63 121t-119 37h-88v120h88q78 4 119 38q82 68 89 378q4 224 38 306q62 152 248 148h60v-118h-62q-64 2 -93 -18t-49 -69t-25 -292t-69 -353q-28 -48 -68 -80q130 -98 137 -434q5 -242 31 -302q14 -38 43 -57t93 -19 l62 2v-120h-68z" />
<glyph unicode="|" horiz-adv-x="422" d="M160 -278v1884h102v-1884h-102z" />
<glyph unicode="}" horiz-adv-x="962" d="M228 -254h-68v120l62 -2q83 0 115 37q13 15 23 39q24 60 29 302q7 340 139 434q-42 32 -70 80q-64 110 -69 353t-24 292t-49 69t-94 18h-62v118h60q186 4 248 -148q34 -82 38 -258t15 -255t37 -125t62 -64t94 -20h88v-120h-88q-78 -4 -119 -37q-78 -63 -89 -377 q-4 -226 -38 -308q-60 -148 -240 -148z" />
<glyph unicode="~" horiz-adv-x="1238" d="M588 645q-66 51 -89 68q-70 51 -111 41q-56 -14 -114 -138l-22 -46l-92 44l22 46q78 170 182 194q68 14 127 -17t121 -79t86 -66t60 -33t62 -9q72 16 144 174l22 46l92 -44l-20 -46q-46 -102 -100 -156q-73 -78 -158 -78q-86 0 -212 99z" />
<glyph unicode="&#xa1;" horiz-adv-x="510" d="M254 1406q-42 0 -68 27t-26 64t12 60q26 49 75 49t76 -29t27 -73t-27 -71t-69 -27zM202 0v966h104v-966h-104z" />
<glyph unicode="&#xa2;" horiz-adv-x="1186" d="M714 -106h-102v108q-177 18 -310 174q-142 174 -142 416v2q0 242 137 407t315 183v108h102v-110q182 -22 282 -156l30 -40l-82 -62l-30 42q-40 54 -109 86t-149 32q-162 0 -278 -143t-116 -347v-2q0 -202 116 -346t278 -144q80 0 149 32t109 88l30 40l82 -60l-30 -42 q-100 -132 -282 -156v-110z" />
<glyph unicode="&#xa3;" horiz-adv-x="1358" d="M1198 104v-104h-1038v100q44 0 75 21q112 76 123 579h-162v104h162q0 653 267 758q81 32 189 32t204 -88t154 -234l-94 -38q-50 120 -122 189t-154 69q-160 0 -234 -108q-108 -154 -108 -580h454v-104h-454q-9 -439 -106 -596h844z" />
<glyph unicode="&#xa4;" horiz-adv-x="1302" d="M651 396q129 0 221 102t92 248t-92 248t-222 102q-84 0 -156 -47t-114 -128t-42 -175q0 -146 92 -248t221 -102zM1066 747q0 -143 -74 -257l150 -148l-74 -74l-138 142q-120 -116 -280 -116t-278 116l-140 -142l-70 74l146 148q-74 114 -74 257t74 257l-148 152l70 72 l144 -144q120 114 277 114t277 -112l140 142l74 -72l-152 -150q76 -116 76 -259z" />
<glyph unicode="&#xa5;" horiz-adv-x="1572" d="M1178 750v-100h-342v-124h342v-102h-342v-424h-100v424h-346v102h346v124h-346v100h334q-8 34 -18 66l-546 730l80 60l546 -734l546 734l80 -60l-544 -730q-12 -32 -20 -66h330z" />
<glyph unicode="&#xa6;" horiz-adv-x="422" d="M262 424v-424h-102v424h102zM160 712v894h102v-894h-102z" />
<glyph unicode="&#xa7;" horiz-adv-x="1146" d="M884 797q0 89 -60 128t-145 62t-101 29h-44q-134 0 -192 -58q-50 -44 -50 -130t59 -126t173 -72t154 -46q98 10 152 67t54 146zM634 1494q-244 0 -244 -186q0 -88 61 -127t201 -81q156 -42 220 -84q114 -76 114 -215t-90 -227q-38 -38 -92 -62q82 -74 82 -202t-93 -219 t-245 -91t-229 39t-129 115l-30 42l84 58l30 -42q38 -54 91 -82t169 -28t183 59t67 161q0 60 -30 97t-92 61q-28 0 -179 55t-179 75q-114 76 -114 212t82 212q46 44 116 66q-100 76 -100 206t86 210t260 80q111 0 202 -70q44 -34 76 -84l32 -40l-84 -60l-32 42 q-76 110 -194 110z" />
<glyph unicode="&#xa8;" horiz-adv-x="352" />
<glyph unicode="&#xa9;" horiz-adv-x="1320" d="M560 1200h300v-100h-200v-100h-100v-300h100v-100h200v-100h-300v100h-100v500h100v100zM1060 400h-100v-100h-600v100h-100v100h-100v700h100v100h100v100h600v-100h100v-100h100v-700h-100v-100zM460 500v-100h400v100h100v100h100v500h-100v100h-100v100h-400v-100 h-100v-100h-100v-500h100v-100h100z" />
<glyph unicode="&#xaa;" horiz-adv-x="1020" d="M160 1400h100v100h500v-100h100v-700h-100v100h-100v-100h-400v100h-100v300h100v100h400v200h-300v-100h-200v100zM360 800h300v300h-300v-100h-100v-100h100v-100zM160 600h700v-200h-700v200z" />
<glyph unicode="&#xab;" horiz-adv-x="1000" d="M840 238l-360 354l360 358v-144l-214 -212l214 -212v-144zM522 238l-362 356l362 356v-144l-216 -212l214 -210z" />
<glyph unicode="&#xac;" horiz-adv-x="730" d="M160 268q0 28 8 44q16 54 52 58h24q0 2 32 2l108 -2h58q70 -2 100 -36q24 -17 28 -74q-8 -64 -10 -94q-2 -40 -110 -46v38q0 38 6 102l-296 6v2z" />
<glyph unicode="&#xad;" horiz-adv-x="882" d="M160 556v102h562v-102h-562z" />
<glyph unicode="&#xae;" horiz-adv-x="1320" d="M1060 600h-100v-100h-600v100h-100v100h-100v600h100v100h100v100h600v-100h100v-100h100v-600h-100v-100zM860 700h100v100h100v400h-100v100h-100v100h-400v-100h-100v-100h-100v-400h100v-100h100v-100h400v100zM860 700h-100v200h100v-200zM760 1200h100v-200h-100 v200zM760 1200h-200v-200h200v-100h-200v-200h-100v600h300v-100z" />
<glyph unicode="&#xaf;" horiz-adv-x="948" d="M618 686q117 0 154 14h2v-10q0 -24 6 -44l8 -46q0 -14 -38 -18t-180 -4h-36q-206 0 -374 8v2q0 34 8 42q16 56 52 58q0 2 11 2h45z" />
<glyph unicode="&#xb0;" horiz-adv-x="288" />
<glyph unicode="&#xb1;" horiz-adv-x="1326" d="M160 -4v102h1006v-102h-1006zM160 556v102h452v552h102v-552h452v-102h-452v-354h-102v354h-452z" />
<glyph unicode="&#xb2;" horiz-adv-x="384" />
<glyph unicode="&#xb3;" horiz-adv-x="386" />
<glyph unicode="&#xb4;" horiz-adv-x="588" d="M200 540l-18 18l-22 10q26 48 106 160l28 36l52 -32q-3 -5 6 -18l76 -44q-6 -20 -22 -48l-82 -126q-10 -16 -23 -22t-48 19t-53 47z" />
<glyph unicode="&#xb5;" horiz-adv-x="544" />
<glyph unicode="&#xb6;" horiz-adv-x="570" />
<glyph unicode="&#xb7;" horiz-adv-x="196" />
<glyph unicode="&#xb8;" horiz-adv-x="456" />
<glyph unicode="&#xb9;" horiz-adv-x="270" />
<glyph unicode="&#xba;" horiz-adv-x="388" />
<glyph unicode="&#xbb;" horiz-adv-x="1000" d="M162 238l-2 144l214 212l-214 212l2 144l360 -358zM482 238v146l212 210l-212 212v144l358 -356z" />
<glyph unicode="&#xbc;" horiz-adv-x="1320" d="M860 1600h100v100h100v-200h-100v-200h-100v-200h-100v-200h-100v-100h-100v-200h-100v-200h-100v-200h-100v-100h-100v200h100v200h100v200h100v200h100v100h100v200h100v200h100v200zM860 400h100v200h-100v-200zM1060 800v-400h100v-100h-100v-200h-100v200h-300v200 h100v200h100v100h200zM260 1100v400h-100v100h100v100h200v-600h100v-100h-400v100h100z" />
<glyph unicode="&#xbd;" horiz-adv-x="1320" d="M860 1600h100v100h100v-200h-100v-200h-100v-200h-100v-200h-100v-100h-100v-200h-100v-200h-100v-200h-100v-100h-100v200h100v200h100v200h100v200h100v100h100v200h100v200h100v200zM860 600h-200v100h100v100h300v-100h100v-200h-100v-100h-200v-200h300v-100h-500 v300h100v100h200v200h-100v-100zM260 1100v400h-100v100h100v100h200v-600h100v-100h-400v100h100z" />
<glyph unicode="&#xbe;" horiz-adv-x="1320" d="M960 1600h100v100h100v-200h-100v-200h-100v-200h-100v-200h-100v-100h-100v-200h-100v-200h-100v-200h-100v-100h-100v200h100v200h100v200h100v200h100v100h100v200h100v200h100v200zM860 400h100v200h-100v-200zM1060 800v-400h100v-100h-100v-200h-100v200h-300v200 h100v200h100v100h200zM560 1700v-100h100v-200h-100v-100h100v-200h-100v-100h-300v100h-100v100h200v-100h100v200h-100v100h100v200h-100v-100h-200v100h100v100h300z" />
<glyph unicode="&#xbf;" horiz-adv-x="1178" d="M160 399q0 185 92 299q54 66 186 130q52 26 77 44q59 42 59 116v50h98v-50q0 -113 -64 -166t-118 -78q-54 -26 -77 -39t-58 -43q-95 -81 -95 -276q0 -284 360 -284q84 0 160 42t128 120l28 42l82 -58l-28 -40q-68 -98 -165 -153t-205 -55q-234 0 -352 114 q-108 100 -108 285zM609 1410q-41 0 -66 28t-25 71t25 70t67 27t68 -27t26 -70t-27 -71t-68 -28z" />
<glyph unicode="&#xf7;" horiz-adv-x="1306" d="M646 1024q-42 0 -68 28t-26 71t26 71t68 28t67 -28t25 -71t-25 -71t-67 -28zM160 570v100h986v-100h-986zM646 198q42 0 67 -28t25 -71t-25 -71t-60 -28t-56 14q-45 30 -45 79t26 77t68 28z" />
<glyph unicode="&#x2c6;" horiz-adv-x="892" d="M448 1494l-228 -152l-60 84l286 198l286 -198l-58 -84z" />
<glyph unicode="&#x2c7;" horiz-adv-x="892" d="M674 1624l58 -84l-284 -196l-2 -2l-286 198l60 84l228 -150z" />
<glyph unicode="&#x2c9;" horiz-adv-x="542" />
<glyph unicode="&#x2d8;" horiz-adv-x="316" />
<glyph unicode="&#x2d9;" horiz-adv-x="198" />
<glyph unicode="&#x2da;" horiz-adv-x="288" />
<glyph unicode="&#x2db;" horiz-adv-x="500" d="M289 172q39 0 45 -11t6 -33v-26l-6 -52q-6 -40 -12 -50l-86 8q-10 0 -16 -12l-60 6v44l4 120q96 226 72 96q2 -16 -22 -96q36 6 75 6z" />
<glyph unicode="&#x2dc;" horiz-adv-x="786" d="M308 506q10 10 18 10h18l4 -2q2 -2 62 -58l44 -40l46 40q60 56 62 58l4 2q12 0 38 -22l16 -16l6 -4q-24 -30 -104 -102l-44 -38q-14 -10 -20 -10h-20l-88 82q-16 13 -20 16l-108 -98h-4q-12 0 -36 22l-22 20q62 68 102 100z" />
<glyph unicode="&#x2dd;" horiz-adv-x="836" d="M448 540l-18 18q-14 10 -22 10q30 52 108 160l26 36l52 -32q0 -10 8 -18l74 -44q-6 -20 -22 -48l-80 -122q-2 -2 -8 -11t-17 -15t-45 17t-56 49zM200 540l-18 18l-22 10q26 48 106 160l28 36l52 -32q-3 -5 6 -18l76 -44q-6 -20 -22 -48l-82 -126q-10 -16 -23 -22t-48 19 t-53 47z" />
<glyph unicode="&#x60c;" horiz-adv-x="512" d="M262 260q0 -121 90 -166l-38 -94q-40 14 -78 54q-76 80 -76 206v174h102v-174z" />
<glyph unicode="&#x61b;" horiz-adv-x="552" d="M256 100q-42 0 -69 28t-27 72t27 72t70 28t68 -28t25 -72t-26 -72t-68 -28zM308 1146v-174h-102v174q0 124 76 204q38 42 80 56l30 -96q-84 -56 -84 -164z" />
<glyph unicode="&#x61f;" horiz-adv-x="1178" d="M620 1606q108 0 205 -54t165 -152l28 -42l-82 -58l-28 44q-52 78 -128 120t-160 42q-360 0 -360 -284q0 -195 95 -276q43 -37 108 -70q65 -32 88 -47t57 -44q64 -55 64 -167v-48h-98v48q0 77 -59 117q-25 17 -77 43q-132 64 -186 132q-92 112 -92 298t113 292t347 106z M704 99q0 -43 -26 -71t-68 -28t-67 28t-25 71t25 71t66 28t68 -28t27 -71z" />
<glyph unicode="&#x621;" horiz-adv-x="1082" d="M270 406q0 -124 101 -208t289 -94h262v-104h-762v104h166q-158 113 -158 288.5t114 297.5q126 128 311 128t323 -106l-66 -76q-131 80 -241.5 80t-186.5 -46t-114 -116t-38 -148z" />
<glyph unicode="&#x622;" horiz-adv-x="422" d="M134 1920q35 0 54.5 -15t43.5 -33q40 -36 54 -36h2q20 4 44 62l16 36l66 -36l-16 -34q-38 -92 -94 -108h-18q-38 0 -88 42t-62 42h-2q-14 -2 -32 -44l-16 -38l-66 36l16 36q32 78 82 90h16zM160 0v1606h102v-1606h-102z" />
<glyph unicode="&#x623;" horiz-adv-x="422" d="M96 1915q0 57 45 102t104 45t115 -48l-26 -74q-30 18 -43 31t-43 13t-52 -22t-22 -53t21 -52t45 -23h134v-88h-294v88h34q-18 24 -18 81zM160 0v1606h102v-1606h-102z" />
<glyph unicode="&#x624;" horiz-adv-x="1172" d="M302 1455q0 57 45 102t105 45t114 -48l-26 -74q-30 18 -42 31t-43 13t-53 -22t-22 -53t21 -52t47 -23h132v-88h-292v88h32q-18 24 -18 81zM1012 -90q0 -146 -120 -246t-284 -100q-104 0 -194 42t-148 118l-30 40l82 62l30 -40q94 -120 260 -120q126 0 214 72t88 172v90 h-168q-242 0 -412 171t-170 412t170 412t412 171h270v-1256zM910 104v956h-168q-198 0 -339 -141t-141 -340t139 -337t329 -138h180z" />
<glyph unicode="&#x625;" horiz-adv-x="422" d="M60 -208v88h294v-88h-134q-24 -2 -45 -23t-21 -51t22 -52t52 -22t52 22q4 2 34 22l26 -74q-56 -48 -115 -48t-104 45t-45 102t18 79h-34zM262 1606v-1606h-102v1606h102z" />
<glyph unicode="&#x626;" horiz-adv-x="1606" d="M312 1325q0 57 45 102t104 45t115 -48l-26 -74q-30 18 -43 31t-43 13t-52 -22t-22 -53t21 -52t45 -23h134v-88h-294v88h34q-18 24 -18 81zM1342 632h-528v198q0 176 129 296t303 126v-102q-84 -4 -160 -45t-123 -115t-47 -160v-96h530v-734h-494q-322 4 -550 185 q-112 89 -177 208t-65 253v338h102v-338q0 -222 206 -382t496 -160h378v528z" />
<glyph unicode="&#x627;" horiz-adv-x="422" d="M160 0v1606h102v-1606h-102z" />
<glyph unicode="&#x628;" horiz-adv-x="1706" d="M912 -344v142h118v-142h-118zM1442 104v1062h104v-1166h-594q-322 4 -550 185q-112 89 -177 208t-65 253v338h102v-338q0 -222 206 -382t496 -160h478z" />
<glyph unicode="&#x629;" horiz-adv-x="1172" d="M854 1358v142h120v-142h-120zM514 1358v142h120v-142h-120zM742 0q-242 0 -412 171t-170 412t170 412t412 171h270v-1166h-270zM910 104v956h-168q-198 0 -339 -141t-141 -340t139 -337t329 -138h180z" />
<glyph unicode="&#x62a;" horiz-adv-x="1706" d="M1004 1358v142h120v-142h-120zM664 1358v142h120v-142h-120zM1442 104v1062h104v-1166h-594q-322 4 -550 185q-112 89 -177 208t-65 253v338h102v-338q0 -222 206 -382t496 -160h478z" />
<glyph unicode="&#x62b;" horiz-adv-x="1706" d="M1004 1358v142h120v-142h-120zM664 1358v142h120v-142h-120zM1442 104v1062h104v-1166h-594q-322 4 -550 185q-112 89 -177 208t-65 253v338h102v-338q0 -222 206 -382t496 -160h478zM834 1656v142h118v-142h-118z" />
<glyph unicode="&#x62c;" horiz-adv-x="1638" d="M638 0q-168 0 -250 -43t-112 -149q-12 -48 -12 -94q0 -100 64 -184q94 -124 298 -178l106 -26l-16 -102l-116 32q-254 68 -366 232q-74 104 -74 232q0 58 16 114q48 189 252 244q88 26 278 26h622q-14 36 -14 84v430q0 198 -142 338t-339 140t-339 -140t-142 -338v-74 h-102v74q0 238 171 409t412 171t412 -171t171 -409v-430q0 -82 60 -84v-104h-838zM752 -342v142h118v-142h-118z" />
<glyph unicode="&#x62d;" horiz-adv-x="1638" d="M638 0q-168 0 -250 -43t-112 -149q-12 -48 -12 -94q0 -100 64 -184q94 -124 298 -178l106 -26l-16 -102l-116 32q-254 68 -366 232q-74 104 -74 232q0 58 16 114q48 189 252 244q88 26 278 26h622q-14 36 -14 84v430q0 198 -142 338t-339 140t-339 -140t-142 -338v-74 h-102v74q0 238 171 409t412 171t412 -171t171 -409v-430q0 -82 60 -84v-104h-838z" />
<glyph unicode="&#x62e;" horiz-adv-x="1638" d="M768 1366v142h120v-142h-120zM638 0q-168 0 -250 -43t-112 -149q-12 -48 -12 -94q0 -100 64 -184q94 -124 298 -178l106 -26l-16 -102l-116 32q-254 68 -366 232q-74 104 -74 232q0 58 16 114q48 189 252 244q88 26 278 26h622q-14 36 -14 84v430q0 198 -142 338 t-339 140t-339 -140t-142 -338v-74h-102v74q0 238 171 409t412 171t412 -171t171 -409v-430q0 -82 60 -84v-104h-838z" />
<glyph unicode="&#x62f;" horiz-adv-x="1142" d="M160 0v104h720v518q0 198 -141 338t-339 140v102q240 0 411 -171t171 -409v-622h-822z" />
<glyph unicode="&#x630;" horiz-adv-x="1142" d="M494 1358v142h120v-142h-120zM160 0v104h720v518q0 198 -141 338t-339 140v102q240 0 411 -171t171 -409v-622h-822z" />
<glyph unicode="&#x631;" horiz-adv-x="680" d="M418 -90v1256h102v-1256q0 -146 -120 -248q-104 -84 -240 -96v102q98 12 178 77t80 165z" />
<glyph unicode="&#x632;" horiz-adv-x="694" d="M414 1348v142h120v-142h-120zM418 -90v1256h102v-1256q0 -146 -120 -248q-104 -84 -240 -96v102q98 12 178 77t80 165z" />
<glyph unicode="&#x633;" horiz-adv-x="2568" d="M1222 1162h104v-1058h438v1058h102v-1058h440v1062h102v-1166h-1082v-350h-374q-322 4 -550 185q-112 89 -177 208t-65 253v338h102v-338q0 -222 206 -382t496 -160h258v1408z" />
<glyph unicode="&#x634;" horiz-adv-x="2568" d="M1592 1358v142h118v-142h-118zM1932 1358v142h118v-142h-118zM1760 1656v142h120v-142h-120zM1222 1162h104v-1058h438v1058h102v-1058h440v1062h102v-1166h-1082v-350h-374q-322 4 -550 185q-112 89 -177 208t-65 253v338h102v-338q0 -222 206 -382t496 -160h258v1408z " />
<glyph unicode="&#x635;" horiz-adv-x="2548" d="M1222 1198h102v-250q30 42 70 80q170 170 411 170t412 -170t171 -412v-616h-1062v-350h-374q-322 4 -550 185q-112 89 -177 208t-65 253v338h102v-338q0 -222 206 -382t496 -160h258v1444zM1326 104h960v512q0 200 -141 340t-339 140q-132 0 -242 -64t-171 -167t-67 -217 v-544z" />
<glyph unicode="&#x636;" horiz-adv-x="2548" d="M1222 1198h102v-250q30 42 70 80q170 170 411 170t412 -170t171 -412v-616h-1062v-350h-374q-322 4 -550 185q-112 89 -177 208t-65 253v338h102v-338q0 -222 206 -382t496 -160h258v1444zM1326 104h960v512q0 200 -141 340t-339 140q-132 0 -242 -64t-171 -167t-67 -217 v-544zM1754 1358v142h120v-142h-120z" />
<glyph unicode="&#x637;" horiz-adv-x="1634" d="M246 104q62 0 62 82v1420h102v-658q30 42 70 80q170 170 411 170t412 -170t171 -412v-616h-1314v104h86zM410 104h962v512q0 200 -141 340t-339 140q-132 0 -242 -64t-175 -174t-65 -242v-512z" />
<glyph unicode="&#x638;" horiz-adv-x="1634" d="M840 1358v142h120v-142h-120zM246 104q62 0 62 82v1420h102v-658q30 42 70 80q170 170 411 170t412 -170t171 -412v-616h-1314v104h86zM410 104h962v512q0 200 -141 340t-339 140q-132 0 -242 -64t-175 -174t-65 -242v-512z" />
<glyph unicode="&#x639;" horiz-adv-x="1506" d="M306 583q0 241 171 412t399 171t388 -140l-14 -128q-12 12 -24 26q-142 140 -339 140t-338 -142t-141 -339t134 -332t308 -147h496v-104h-708q-168 0 -250 -43t-112 -149q-12 -48 -12 -94q0 -100 64 -184q94 -124 298 -178l106 -26l-16 -102l-116 32q-254 68 -366 232 q-74 104 -74 232q0 58 16 114q61 239 374 264h10q-44 36 -82 74q-172 170 -172 411z" />
<glyph unicode="&#x63a;" horiz-adv-x="1506" d="M306 583q0 241 171 412t399 171t388 -140l-14 -128q-12 12 -24 26q-142 140 -339 140t-338 -142t-141 -339t134 -332t308 -147h496v-104h-708q-168 0 -250 -43t-112 -149q-12 -48 -12 -94q0 -100 64 -184q94 -124 298 -178l106 -26l-16 -102l-116 32q-254 68 -366 232 q-74 104 -74 232q0 58 16 114q61 239 374 264h10q-44 36 -82 74q-172 170 -172 411zM822 1358v142h120v-142h-120z" />
<glyph unicode="&#x640;" horiz-adv-x="270" d="M300 0h-330v104h330v-104z" />
<glyph unicode="&#x641;" horiz-adv-x="2254" d="M1242 583q0 241 170 412t412 171h270v-1166h-1142q-322 4 -550 185q-112 89 -177 208t-65 253v338h102v-338q0 -222 206 -382t496 -160h528q-42 30 -80 68q-170 170 -170 411zM1704 1356v144h120v-144h-120zM1992 1060h-168q-198 0 -339 -141t-141 -340t142 -339 q116 -116 272 -136h234v956z" />
<glyph unicode="&#x642;" horiz-adv-x="1686" d="M1004 1356v144h120v-144h-120zM1344 1356v144h120v-144h-120zM1422 0h-168q-240 0 -410 171t-170 412t170 412t410 171h272v-1516h-574q-322 4 -550 185q-112 89 -177 208t-65 253v338h102v-338q0 -222 206 -382t496 -160h458v246zM1422 1060h-168q-198 0 -338 -141 t-140 -340t138 -337t330 -138h178v956z" />
<glyph unicode="&#x643;" horiz-adv-x="1706" d="M772 1135q0 57 45 102t104 45t115 -48l-26 -74q-30 18 -43 31t-43 13t-52 -22t-22 -53t21 -52t45 -23h134v-88h-294v88h34q-18 24 -18 81zM1442 104v1502h104v-1606h-594q-322 4 -550 185q-112 89 -177 208t-65 253v338h102v-338q0 -222 206 -382t496 -160h478z" />
<glyph unicode="&#x644;" horiz-adv-x="1386" d="M1122 1606h104v-1956h-274q-322 4 -550 185q-112 89 -177 208t-65 253v338h102v-338q0 -222 206 -382t496 -160h158v1852z" />
<glyph unicode="&#x645;" horiz-adv-x="1728" d="M1055 1186q105 0 200 -47t165 -129q148 -174 148 -401t-112 -385l-92 -104q-140 -118 -309 -118t-309 118l-92 104q-112 158 -112 370q0 108 30 204q-80 -4 -152 -49t-115 -125t-43 -176v-792h-102v792q0 186 123 319t299 133h32q32 58 76 110q155 176 365 176z M1055 1084q-169 0 -290 -143t-121 -347q0 -132 56 -245t150 -179t191 -66q184 0 304.5 144.5t120.5 347t-121 345.5t-290 143z" />
<glyph unicode="&#x646;" horiz-adv-x="1386" d="M642 1358v142h120v-142h-120zM1122 1166h104v-1516h-274q-322 4 -550 185q-112 89 -177 208t-65 253v338h102v-338q0 -222 206 -382t496 -160h158v1412z" />
<glyph unicode="&#x647;" horiz-adv-x="1172" d="M742 0q-242 0 -412 171t-170 412t170 412t412 171h270v-1166h-270zM910 104v956h-168q-198 0 -339 -141t-141 -340t139 -337t329 -138h180z" />
<glyph unicode="&#x648;" horiz-adv-x="1172" d="M1012 -90q0 -146 -120 -246t-284 -100q-104 0 -194 42t-148 118l-30 40l82 62l30 -40q94 -120 260 -120q126 0 214 72t88 172v90h-168q-242 0 -412 171t-170 412t170 412t412 171h270v-1256zM910 104v956h-168q-198 0 -339 -141t-141 -340t139 -337t329 -138h180z" />
<glyph unicode="&#x649;" horiz-adv-x="1606" d="M1342 632h-528v198q0 176 129 296t303 126v-102q-84 -4 -160 -45t-123 -115t-47 -160v-96h530v-734h-494q-322 4 -550 185q-112 89 -177 208t-65 253v338h102v-338q0 -222 206 -382t496 -160h378v528z" />
<glyph unicode="&#x64a;" horiz-adv-x="1606" d="M844 -342v142h118v-142h-118zM1184 -342v142h118v-142h-118zM1342 632h-528v198q0 176 129 296t303 126v-102q-84 -4 -160 -45t-123 -115t-47 -160v-96h530v-734h-494q-322 4 -550 185q-112 89 -177 208t-65 253v338h102v-338q0 -222 206 -382t496 -160h378v528z" />
<glyph unicode="&#x64b;" horiz-adv-x="390" d="M374 1454l-356 -114l-18 62l358 114zM390 1312l-358 -112l-16 60l356 114z" />
<glyph unicode="&#x64c;" horiz-adv-x="532" d="M204 1398q0 36 16 72q28 64 92 90q30 12 61 12t63 -14q62 -26 86 -92q10 -30 10 -62t-17 -70t-53 -66t-156 -48l-30 -12q-42 -18 -70 -18t-40 6q-43 22 -50.5 66t-17.5 54h-6q-12 0 -38 -10l-30 -12l-24 58l28 12q38 16 67 16q53 0 75 -66l8 -38q2 -12 10 -20 q8 -4 18.5 -4t55.5 18q-58 47 -58 128zM374 1510q-20 0 -40 -8q-42 -16 -58 -58q-10 -24 -10 -44q0 -71 58 -98q16 -6 37 -6t41 8q68 29 68 104q0 16 -6 36q-23 66 -90 66z" />
<glyph unicode="&#x64d;" horiz-adv-x="390" d="M374 -62l-356 -114l-18 62l358 114zM390 -204l-358 -112l-16 60l356 114z" />
<glyph unicode="&#x64e;" horiz-adv-x="390" d="M390 1312l-358 -112l-16 60l356 114z" />
<glyph unicode="&#x64f;" horiz-adv-x="380" d="M56 1433q0 71 48 121t115 50t114 -50t47 -108q0 -115 -78 -160q-20 -10 -32 -14l-252 -82l-18 64l128 40q-16 10 -24 20q-48 48 -48 119zM218 1542q-42 0 -71 -32t-29 -76t29 -77t71 -33t74 32q28 34 28 78t-28 76q-32 32 -74 32z" />
<glyph unicode="&#x650;" horiz-adv-x="390" d="M374 -62l-356 -114l-18 62l358 114z" />
<glyph unicode="&#x651;" horiz-adv-x="362" d="M254 1290h6q18 2 28 14t10 26v148l64 8v-156q0 -34 -25 -66t-69 -38h-12q-32 0 -58 16q0 -4 -6 -10q-35 -42 -78.5 -42t-71.5 24q-36 26 -42 66v70l64 6v-68q5 -32 42 -32h6q40 4 40 42v114l60 6v-94q8 -34 42 -34z" />
<glyph unicode="&#x652;" horiz-adv-x="324" d="M62 1364q0 -44 29 -77t71 -33t72 33t30 77t-30 76t-72 32t-71 -32t-29 -76zM0 1365q0 71 48 120t114 49t114 -49t48 -108q0 -113 -80 -161q-38 -22 -93 -22t-103 50t-48 121z" />
<glyph unicode="&#x653;" horiz-adv-x="304" />
<glyph unicode="&#x654;" horiz-adv-x="280" />
<glyph unicode="&#x655;" horiz-adv-x="280" />
<glyph unicode="&#x660;" horiz-adv-x="510" d="M254 706q42 0 69 -29t27 -73t-27 -73t-69 -29t-68 29t-26 73t26 73t68 29z" />
<glyph unicode="&#x661;" horiz-adv-x="422" d="M160 0v1606h102v-1606h-102z" />
<glyph unicode="&#x662;" horiz-adv-x="1164" d="M1004 1254q0 -188 -123 -321t-306 -133t-313 156v-956h-102v1606h102v-352q0 -146 93 -248t227 -102q86 0 160 47t117 127t43 176v352h102v-352z" />
<glyph unicode="&#x663;" horiz-adv-x="1270" d="M264 0h-104v1606h104v-702q86 0 160 47t117 127t43 176v352h102v-352q0 -188 -124 -320q0 -2 -2 -4q58 -26 136 -26t152 47t117 127t43 176v352h102v-352q0 -188 -123 -321t-299 -133q-118 0 -212 60q-94 -60 -212 -60v-800z" />
<glyph unicode="&#x664;" horiz-adv-x="1268" d="M621 12q-201 0 -331 136t-130 316t144 300q68 58 160 90q-56 28 -98 64q-134 110 -134 277t114 289q126 128 311 128t323 -106q70 -54 102 -110l26 -44l-88 -54l-26 46l-12 18q-8 12 -38 40q-116 108 -271 108q-111 0 -187 -46t-114 -116t-38 -148q0 -124 96 -204 q118 -98 338 -98l2 -102q-272 0 -400 -110q-106 -90 -106 -226t99 -240t261 -104t282 92q60 44 88 92l88 -54q-34 -60 -110 -118q-150 -116 -351 -116z" />
<glyph unicode="&#x665;" horiz-adv-x="1346" d="M673 1294q-169 0 -290 -143t-121 -347q0 -132 55 -245t149 -179t192 -66q182 0 303 143t121 347t-120 347t-289 143zM160 803q0 243 146 417q155 176 366 176t366 -176q148 -174 148 -417t-149 -417t-365 -174q-215 0 -364 174q-148 174 -148 417z" />
<glyph unicode="&#x666;" horiz-adv-x="1274" d="M1012 1504h-852v102h954v-1606h-102v1504z" />
<glyph unicode="&#x667;" horiz-adv-x="1550" d="M722 0l-562 1606h110l506 -1450l504 1450h110l-560 -1606h-108z" />
<glyph unicode="&#x668;" horiz-adv-x="1550" d="M830 1606l560 -1606h-110l-504 1450l-506 -1450h-110l562 1606h108z" />
<glyph unicode="&#x669;" horiz-adv-x="1172" d="M908 1504h-168q-198 0 -338 -141t-140 -339t140 -339t338 -141h84q48 0 84 -14v974zM908 380q0 62 -84 62h-84q-238 0 -409 171t-171 411t171 411t409 171h272v-1606h-104v380z" />
<glyph unicode="&#x66a;" horiz-adv-x="1400" d="M968 98q56 0 93 24q81 53 81 138q0 86 -47 138t-115 52t-115 -52t-47 -124t47 -124t103 -52zM979 548q107 0 184 -81t77 -194t-77 -193t-184 -80t-183 80t-76 193t76 194t183 81zM420 1488q-66 0 -113 -52t-47 -123t47 -123t113 -52t114 52t48 123t-48 123t-114 52z M420 1040q-108 0 -184 80t-76 193t76 193t184 80t184 -80t76 -192q0 -74 -34 -138t-95 -100t-131 -36zM1100 1606h114l-928 -1606h-112z" />
<glyph unicode="&#x66b;" horiz-adv-x="512" d="M250 262v174h102v-174q0 -126 -76 -206q-38 -40 -80 -54l-36 94q56 28 80 100q10 30 10 66z" />
<glyph unicode="&#x66c;" horiz-adv-x="512" d="M262 260q0 -121 90 -166l-38 -94q-40 14 -78 54q-76 80 -76 206v174h102v-174z" />
<glyph unicode="&#x66d;" horiz-adv-x="704" d="M500 146q0 -24 -48 -46l-40 -16q-42 -8 -54 10l-16 22l-12 22q0 2 -4 7t-10 21l-20 -26q-6 -8 -8 -10l-16 -14q-34 -22 -70 14q-8 12 -14 26l-16 50q-6 18 -4 21t10 9l26 14q4 4 16 6l22 12q-62 6 -72 36q-10 24 28 84q33 57 42 38l12 -14l20 -30q4 -10 14 -16 q8 20 16 34t22 46l14 24q6 8 11 8t29 -24q3 -10 12 -10l46 -10q8 -4 11 -15t-2 -18t-21 -35l38 18q32 10 40 10t26 -11t14 -25l-6 -30l-2 -24q0 -14 -8 -22q-22 -15 -44 -18l-26 -6q-12 0 -22 -6v-2q2 -10 -6 -18q4 -6 12 -14l52 -50q8 -12 8 -22z" />
<glyph unicode="&#x670;" />
<glyph unicode="&#x671;" horiz-adv-x="422" d="M72 1828v256h64v-70q40 40 104 40t113 -48t49 -116v-124h-362v62h32zM136 1828h202v62q0 42 -30 72t-64 30t-57 -14q-51 -31 -51 -88v-62zM160 0v1606h102v-1606h-102z" />
<glyph unicode="&#x67e;" horiz-adv-x="858" d="M578 1358v142h120v-142h-120zM238 1358v142h120v-142h-120zM408 1656v142h118v-142h-118zM418 -90v1256h102v-1256q0 -146 -120 -248q-104 -84 -240 -96v102q98 12 178 77t80 165z" />
<glyph unicode="&#x686;" horiz-adv-x="1638" d="M1092 -342v142h124v-142h-124zM1046 -498v-142h-120v142h120zM752 -342v142h124v-142h-124zM638 0q-168 0 -250 -43t-112 -149q-12 -48 -12 -94q0 -100 64 -184q94 -124 298 -178l106 -26l-16 -102l-116 32q-254 68 -366 232q-74 104 -74 232q0 58 16 114q48 189 252 244 q88 26 278 26h622q-14 36 -14 84v430q0 198 -142 338t-339 140t-339 -140t-142 -338v-74h-102v74q0 238 171 409t412 171t412 -171t171 -409v-430q0 -82 60 -84v-104h-838z" />
<glyph unicode="&#x698;" horiz-adv-x="1706" d="M1102 -342v142h124v-142h-124zM1056 -498v-142h-120v142h120zM762 -342v142h124v-142h-124zM1442 104v1062h104v-1166h-594q-322 4 -550 185q-112 89 -177 208t-65 253v338h102v-338q0 -222 206 -382t496 -160h478z" />
<glyph unicode="&#x6a4;" horiz-adv-x="2254" d="M1660 1500v-144h-118v144h118zM2000 1500v-144h-118v144h118zM1710 1654v144h120v-144h-120zM1242 583q0 241 170 412t412 171h270v-1166h-1142q-322 4 -550 185q-112 89 -177 208t-65 253v338h102v-338q0 -222 206 -382t496 -160h528q-42 30 -80 68q-170 170 -170 411z M1992 1060h-168q-198 0 -339 -141t-141 -340t142 -339q116 -116 272 -136h234v956z" />
<glyph unicode="&#x6a9;" horiz-adv-x="1968" d="M1706 104v268q0 198 -140 336t-330 142h-296v140l678 616l-8 -148l-558 -506h184q234 -4 403 -172t169 -408v-372h-856q-322 4 -550 185q-112 89 -177 208t-65 253v338h102v-338q0 -222 206 -382t496 -160h742z" />
<glyph unicode="&#x6af;" horiz-adv-x="1968" d="M1706 104v268q0 198 -140 336t-330 142h-296v140l678 616l-8 -148l-558 -506h184q234 -4 403 -172t169 -408v-372h-856q-322 4 -550 185q-112 89 -177 208t-65 253v338h102v-338q0 -222 206 -382t496 -160h742zM1448 1746l-8 -148l-558 -506l-106 42z" />
<glyph unicode="&#x6c1;" />
<glyph unicode="&#x6cc;" horiz-adv-x="1606" d="M1342 632h-528v198q0 176 129 296t303 126v-102q-84 -4 -160 -45t-123 -115t-47 -160v-96h530v-734h-494q-322 4 -550 185q-112 89 -177 208t-65 253v338h102v-338q0 -222 206 -382t496 -160h378v528z" />
<glyph unicode="&#x6f0;" horiz-adv-x="510" d="M254 706q42 0 69 -29t27 -73t-27 -73t-69 -29t-68 29t-26 73t26 73t68 29z" />
<glyph unicode="&#x6f1;" horiz-adv-x="422" d="M160 0v1606h102v-1606h-102z" />
<glyph unicode="&#x6f2;" horiz-adv-x="1164" d="M1004 1254q0 -188 -123 -321t-306 -133t-313 156v-956h-102v1606h102v-352q0 -146 93 -248t227 -102q86 0 160 47t117 127t43 176v352h102v-352z" />
<glyph unicode="&#x6f3;" horiz-adv-x="1270" d="M264 0h-104v1606h104v-702q86 0 160 47t117 127t43 176v352h102v-352q0 -188 -124 -320q0 -2 -2 -4q58 -26 136 -26t152 47t117 127t43 176v352h102v-352q0 -188 -123 -321t-299 -133q-118 0 -212 60q-94 -60 -212 -60v-800z" />
<glyph unicode="&#x6f4;" horiz-adv-x="1164" d="M1004 1254q0 -188 -123 -321t-306 -133t-313 156v-956h-102v1606h102v-352q0 -146 93 -248t227 -102q86 0 160 47t117 127t43 176v228q-278 0 -348 -236l-106 2q46 164 166 258t288 94v6h102v-352z" />
<glyph unicode="&#x6f5;" horiz-adv-x="1346" d="M1082 804q0 204 -120 347t-289 143t-290 -143t-121 -347q0 -132 55 -245t149 -179l40 -24q97 79 122 202h116q20 -96 86 -168q12 -14 22 -26q140 86 198 250q32 90 32 190zM520 238h-2q-36 16 -48 22q-92 44 -164 128q-146 172 -146 415t146 417q155 176 366 176 t366 -176q148 -174 148 -417t-148 -415q-72 -84 -164 -128q-7 -7 -32 -14q-44 36 -84 72q-42 46 -72 102q-57 -115 -166 -180v-2z" />
<glyph unicode="&#x6f6;" horiz-adv-x="1256" d="M264 1389q0 -141 84 -241t226 -100q78 0 163 49t133 147l118 358h108l-108 -336q-10 -32 -24 -62l-398 -1204h-110l336 1010q-8 -6 -18 -10q-98 -56 -180 -56q-277 0 -390 238q-44 94 -44 180t24 162l26 78h106l-34 -110q-18 -58 -18 -103z" />
<glyph unicode="&#x6f7;" horiz-adv-x="1550" d="M722 0l-562 1606h110l506 -1450l504 1450h110l-560 -1606h-108z" />
<glyph unicode="&#x6f8;" horiz-adv-x="1550" d="M830 1606l560 -1606h-110l-504 1450l-506 -1450h-110l562 1606h108z" />
<glyph unicode="&#x6f9;" horiz-adv-x="1172" d="M908 1504h-168q-198 0 -338 -141t-140 -339t140 -339t338 -141h84q48 0 84 -14v974zM908 380q0 62 -84 62h-84q-238 0 -409 171t-171 411t171 411t409 171h272v-1606h-104v380z" />
<glyph unicode="&#x2000;" horiz-adv-x="1095" />
<glyph unicode="&#x2001;" horiz-adv-x="2190" />
<glyph unicode="&#x2002;" horiz-adv-x="1095" />
<glyph unicode="&#x2003;" horiz-adv-x="2190" />
<glyph unicode="&#x2004;" horiz-adv-x="730" />
<glyph unicode="&#x2005;" horiz-adv-x="547" />
<glyph unicode="&#x2006;" horiz-adv-x="365" />
<glyph unicode="&#x2007;" horiz-adv-x="365" />
<glyph unicode="&#x2008;" horiz-adv-x="273" />
<glyph unicode="&#x2009;" horiz-adv-x="438" />
<glyph unicode="&#x200a;" horiz-adv-x="121" />
<glyph unicode="&#x2010;" horiz-adv-x="882" d="M160 556v102h562v-102h-562z" />
<glyph unicode="&#x2011;" horiz-adv-x="882" d="M160 556v102h562v-102h-562z" />
<glyph unicode="&#x2012;" horiz-adv-x="882" d="M160 556v102h562v-102h-562z" />
<glyph unicode="&#x2013;" horiz-adv-x="594" />
<glyph unicode="&#x2014;" horiz-adv-x="762" />
<glyph unicode="&#x2018;" horiz-adv-x="620" d="M360 1400v-200h100v-300h-300v400h100v100h100zM360 1400v100h100v-100h-100z" />
<glyph unicode="&#x2019;" horiz-adv-x="620" d="M260 1000v200h-100v300h300v-400h-100v-100h-100zM260 1000v-100h-100v100h100z" />
<glyph unicode="&#x201a;" horiz-adv-x="720" d="M260 300h100v200h200v-200h-100v-100h-100v-100h-200v100h100v100z" />
<glyph unicode="&#x201c;" horiz-adv-x="1120" d="M860 1400v100h100v-100h-100zM860 1400v-200h100v-300h-300v400h100v100h100zM360 1400v-200h100v-300h-300v400h100v100h100zM360 1400v100h100v-100h-100z" />
<glyph unicode="&#x201d;" horiz-adv-x="1120" d="M260 1000v-100h-100v100h100zM260 1000v200h-100v300h300v-400h-100v-100h-100zM760 1000v200h-100v300h300v-400h-100v-100h-100zM760 1000v-100h-100v100h100z" />
<glyph unicode="&#x201e;" horiz-adv-x="1120" d="M660 300h100v200h200v-200h-100v-100h-100v-100h-200v100h100v100zM360 300v200h200v-200h-100v-100h-100v-100h-200v100h100v100h100z" />
<glyph unicode="&#x2022;" horiz-adv-x="920" d="M160 1000h100v100h400v-100h100v-300h-100v-100h-400v100h-100v300z" />
<glyph unicode="&#x202f;" horiz-adv-x="438" />
<glyph unicode="&#x2039;" horiz-adv-x="680" d="M520 238l-360 354l360 358v-144l-214 -212l214 -212v-144z" />
<glyph unicode="&#x203a;" horiz-adv-x="682" d="M162 238l-2 144l214 212l-214 212l2 144l360 -358z" />
<glyph unicode="&#x2044;" horiz-adv-x="960" d="M268 0h-108l532 1606h108z" />
<glyph unicode="&#x205f;" horiz-adv-x="547" />
<glyph unicode="&#x2122;" horiz-adv-x="1320" d="M360 900v500h-200v100h600v-100h100v-100h-100v-400h-100v500h-200v-500h-100zM960 1300v100h100v100h100v-600h-100v400h-100zM960 1300v-100h-100v100h100z" />
<glyph unicode="&#x2212;" horiz-adv-x="706" d="M458 302q52 0 80 16v-10q0 -8 4 -46l2 -30q2 0 2 -8v-12q0 -14 -24 -16q-10 -4 -110 -4h-22q-142 0 -230 8l2 24q2 12 8 45t24 37l136 -2q76 -2 128 -2z" />
<glyph unicode="&#x2215;" horiz-adv-x="960" d="M268 0h-108l532 1606h108z" />
<glyph unicode="&#x2219;" horiz-adv-x="196" />
<glyph unicode="&#x2248;" horiz-adv-x="1238" d="M407 556q-13 0 -19 -2q-56 -14 -114 -138l-22 -46l-92 44l22 46q91 198 218 198q52 0 101 -26t111 -74t103 -79t91 -31q8 0 14 2q72 16 144 174l22 46l92 -44l-20 -46q-46 -102 -100 -156q-73 -78 -166 -78q-78 0 -194 90q-115 90 -146 105q-32 15 -45 15zM598 836 q-115 90 -146 105q-32 15 -45 15t-19 -2q-56 -14 -114 -138l-22 -46l-92 44l22 46q91 198 218 198q52 0 101 -26t111 -74t103 -79t91 -31q8 0 14 2q72 16 144 174l22 46l92 -44l-20 -46q-46 -102 -100 -156q-73 -78 -158 -78q-87 0 -202 90z" />
<glyph unicode="&#x2264;" horiz-adv-x="820" d="M160 -118v118h500v-118h-500zM260 400v100h-100v100h100v100h100v100h100v100h100v100h100v-200h-100v-100h-100v-100h-100v-100h100v-100h100v-100h100v-200h-100v100h-100v100h-100v100h-100z" />
<glyph unicode="&#x2265;" horiz-adv-x="820" d="M160 -118v118h500v-118h-500zM560 500v-100h-100v-100h-100v-100h-100v-100h-100v200h100v100h100v100h100v100h-100v100h-100v100h-100v200h100v-100h100v-100h100v-100h100v-100h100v-100h-100z" />
<glyph unicode="&#x25fc;" horiz-adv-x="1185" d="M0 1185h1185v-1185h-1185v1185z" />
<glyph horiz-adv-x="366" />
<glyph horiz-adv-x="366" />
<glyph horiz-adv-x="584" />
<glyph horiz-adv-x="1874" />
<glyph />
<glyph />
<glyph horiz-adv-x="362" d="M344 1704l-356 -114l-18 62l358 114zM360 1562l-358 -112l-16 60l356 114zM254 1290h6q18 2 28 14t10 26v148l64 8v-156q0 -34 -25 -66t-69 -38h-12q-32 0 -58 16q0 -4 -6 -10q-35 -42 -78.5 -42t-71.5 24q-36 26 -42 66v70l64 6v-68q5 -32 42 -32h6q40 4 40 42v114l60 6 v-94q8 -34 42 -34z" />
<glyph horiz-adv-x="270" />
<glyph horiz-adv-x="1134" />
<glyph />
<glyph />
<glyph />
<glyph />
<glyph />
<glyph />
<glyph horiz-adv-x="1272" />
<glyph />
<glyph />
<glyph />
<glyph />
<glyph />
<glyph horiz-adv-x="626" />
<glyph horiz-adv-x="248" />
<glyph horiz-adv-x="674" />
<glyph />
<glyph />
<glyph />
</font>
</defs>
</svg>
