<?xml version="1.0" standalone="no"?>
<!DOCTYPE svg PUBLIC "-//W3C//DTD SVG 1.1//EN" "http://www.w3.org/Graphics/SVG/1.1/DTD/svg11.dtd" >
<svg xmlns="http://www.w3.org/2000/svg" xmlns:xlink="http://www.w3.org/1999/xlink" version="1.1">
<metadata></metadata>
<defs>
<font id="vip_hakm_boldvip_hakm" horiz-adv-x="1320" >
<font-face units-per-em="2048" ascent="1638" descent="-410" />
<missing-glyph horiz-adv-x="400" />
<glyph unicode="&#xd;" horiz-adv-x="1282" />
<glyph horiz-adv-x="1278" />
<glyph horiz-adv-x="1278" />
<glyph unicode=" "  horiz-adv-x="400" />
<glyph unicode="&#x09;" horiz-adv-x="400" />
<glyph unicode="&#xa0;" horiz-adv-x="400" />
<glyph unicode="!" horiz-adv-x="510" d="M140 102q0 52 33 87t83 35t82 -35t32 -87t-32 -87t-82 -35t-83 35t-33 87zM184 622v1004h144v-1004h-144z" />
<glyph unicode="&#x22;" horiz-adv-x="590" d="M140 1256v370h142v-370h-142zM308 1256v370h142v-370h-142z" />
<glyph unicode="#" horiz-adv-x="1516" d="M132 -20l186 556h-148v140h194l98 298h-154v140h202l170 512h146l-168 -512h408l170 512h148l-170 -512h162v-140h-208l-98 -298h168v-140h-216l-184 -556h-148l184 556h-410l-182 -556h-150zM512 676h412l96 298h-410z" />
<glyph unicode="$" horiz-adv-x="1246" d="M132 310l118 84l40 -60q44 -64 106 -100t166 -42v568q-154 46 -230 97q-160 107 -160 289t108 283t282 109v88h144v-90q180 -22 302 -198l40 -60l-116 -80l-40 56q-84 122 -186 138v-522q164 -46 248 -100q152 -107 152 -285q0 -95 -30 -171q-28 -82 -90 -140 q-114 -110 -280 -122v-72h-144v70q-128 6 -222 53t-166 149zM314 1156q0 -118 90 -178q60 -38 158 -68v486q-248 -14 -248 -240zM706 196q108 10 183 85t75 193t-90 178q-62 40 -168 70v-526z" />
<glyph unicode="%" horiz-adv-x="1400" d="M140 -20l948 1646h160l-950 -1646h-158zM140 1313q0 121 82 207t198 86t198 -86t82 -206q0 -78 -36 -147t-102 -108t-142 -39q-116 0 -198 86t-82 207zM280 1313q0 -63 41 -109t99 -46t100 46t42 109t-42 109t-100 46t-99 -46t-41 -109zM700 273q0 121 82 208t197 87 t198 -87t83 -208t-83 -207t-198 -86t-197 86t-82 207zM838 274q0 -64 41 -110t90 -46t81 21t52 57t20 89t-41 99t-101 46t-101 -46t-41 -110z" />
<glyph unicode="&#x26;" horiz-adv-x="1542" d="M168 322q-30 198 114 382q92 118 224 194q-14 28 -30 76q-169 427 26 584q84 68 232 68t244 -81t120 -203q22 -146 -64 -280q-86 -142 -260 -196q-52 -20 -80 -34q54 -100 150 -243t198 -255q144 212 144 608h140q0 -454 -184 -712q148 -143 266 -176l-42 -134 q-156 46 -320 206q-158 -146 -408 -146q-192 0 -317 95t-153 247zM308 346q18 -102 105 -164t225 -62q196 0 310 108q-116 126 -219 279t-161 263q-102 -60 -176 -152q-104 -136 -84 -272zM542 1352q-24 -148 90 -392q38 16 100 38q122 40 181 134q79 126 27 239t-210 113 q-104 0 -142 -37t-46 -95z" />
<glyph unicode="'" horiz-adv-x="496" d="M130 1326q24 22 35 38t30 73t19 117v68h142v-68q0 -88 -28 -166t-46 -104t-46 -54z" />
<glyph unicode="(" horiz-adv-x="798" d="M140 672q0 382 139 668t379 286v-140q-154 0 -260 -220q-118 -244 -118 -595t118 -595q110 -220 260 -220v-140q-239 0 -386 302q-132 272 -132 654z" />
<glyph unicode=")" horiz-adv-x="800" d="M140 -144q158 0 260 220q120 244 120 595t-120 595q-98 220 -260 220v140q243 0 386 -298q134 -274 134 -656t-134 -654q-143 -302 -386 -302v140z" />
<glyph unicode="*" horiz-adv-x="1142" d="M140 1106v140h292l-230 304l110 84l260 -342l258 342l112 -84l-232 -304h292v-140h-292l232 -304l-112 -84l-258 342l-260 -342l-110 84l230 304h-292z" />
<glyph unicode="+" horiz-adv-x="1326" d="M140 536v142h452v552h142v-552h452v-142h-452v-554h-142v554h-452z" />
<glyph unicode="," horiz-adv-x="512" d="M160 -183q41 20 61 83q9 28 9 60v194h142v-194q0 -134 -82 -220q-40 -44 -106 -66l-4 12v140z" />
<glyph unicode="-" horiz-adv-x="882" d="M140 536v142h602v-142h-602z" />
<glyph unicode="." horiz-adv-x="510" d="M140 104q0 52 32 87t82 35t83 -35t33 -87t-33 -87t-83 -35t-82 35t-32 87z" />
<glyph unicode="/" horiz-adv-x="960" d="M132 -20l546 1646h150l-546 -1646h-150z" />
<glyph unicode="0" horiz-adv-x="1312" d="M140 803q0 237 36 405t162 293t319 125t319 -125t166 -307q30 -154 30 -391t-30 -391q-40 -182 -166 -307t-319 -125t-319 125t-162 293t-36 405zM282 803q0 -223 28 -363q62 -237 235 -299q53 -19 113 -19q140 0 228 94t117 229t29 358t-29 359t-117 229t-230 93 t-229 -93t-116 -229t-29 -359z" />
<glyph unicode="1" horiz-adv-x="780" d="M140 1166v142h74q14 0 59 32t103 93q122 128 122 193h142v-1646h-142v1374q8 10 -16 -16q-64 -70 -128 -112q-80 -60 -140 -60h-74z" />
<glyph unicode="2" horiz-adv-x="1174" d="M140 -20v72q0 290 152 492q90 114 196 194q40 30 109 78t99 73q115 96 143 140q51 80 51 181q-4 74 -40 142q-74 132 -254 132q-140 0 -242 -78q-52 -40 -86 -94l-122 72q44 76 118 132q144 110 332 110q266 0 380 -208q56 -100 58 -204v-2q0 -176 -116 -310 q-64 -76 -234 -198l-75 -54q-94 -68 -127 -103q-32 -35 -65 -74q-50 -60 -89 -152q-39 -93 -44 -199h740v-142h-884z" />
<glyph unicode="3" horiz-adv-x="1268" d="M132 1346l38 60q34 60 108 116q142 110 335 110t319 -131t126 -307t-142 -292q-42 -36 -58 -44q50 -18 120 -78q150 -126 150 -315t-130 -327q-142 -146 -349 -146t-363 120q-80 60 -124 140l120 76q38 -62 94 -104q114 -88 269 -88t248 98t93 225t-98 211 q-126 106 -410 106l2 142q234 0 346 94q88 74 88 188q0 72 -36 138t-106 109t-147 43t-134 -17t-90 -38t-61 -48t-36 -38t-12 -15l-38 -64z" />
<glyph unicode="4" horiz-adv-x="1324" d="M140 568v128l728 930h130v-916h186v-142h-186v-588h-142v588h-716zM332 710h524v670z" />
<glyph unicode="5" horiz-adv-x="1254" d="M132 358l134 56l28 -66q42 -102 130 -164t189 -62t182 52t129 140t48 190q0 158 -103 271t-251 113t-252 -116l-42 -42l-130 4l34 892h792v-142h-652l-24 -538q18 14 95 48t179 34q206 0 351 -153t145 -369t-145 -371t-351 -155q-148 0 -273 85t-181 229z" />
<glyph unicode="6" horiz-adv-x="1266" d="M140 898q0 164 18 274t36 150q50 111 102 166q128 134 360 134q118 0 221 -57t171 -155l42 -58l-118 -84l-40 60q-50 72 -123 112t-153 40q-172 0 -254 -86t-103 -217t-21 -291v-18q-16 -22 10 6q144 156 348 156t347 -155t143 -371t-144 -370q-142 -158 -346 -158 t-348 158q-76 82 -111 199t-35 339zM286 504q0 -104 48 -193t127 -141t175 -52q144 0 246 113t102 273q0 104 -47 193t-127 140t-175 51t-174 -51t-127 -140t-48 -193z" />
<glyph unicode="7" horiz-adv-x="1338" d="M140 1484v142h1058l-2 -124q-184 -244 -370 -556q-374 -622 -374 -966h-142q0 224 126 522q96 236 257 502t317 480h-870z" />
<glyph unicode="8" horiz-adv-x="1268" d="M140 452q0 196 144 334q56 52 92 70q-18 10 -60 48q-136 122 -136 299t134 300t320 123t320 -123t134 -300t-134 -301q-44 -36 -62 -46q34 -18 88 -70q148 -138 148 -334t-146 -334t-349 -138t-349 138q-144 138 -144 334zM282 452q0 -136 102 -233t248 -97t249 97 t103 233t-103 233t-249 97t-248 -97t-102 -233zM322 1204q0 -116 92 -198t221 -82t220 82t91 198t-91 198t-220 82t-221 -82t-92 -198z" />
<glyph unicode="9" horiz-adv-x="1266" d="M140 1096q0 216 143 371t346 155t349 -156q76 -84 111 -199t35 -341l2 -224q0 -140 -9 -203q-25 -173 -57 -250q-33 -77 -90 -137q-130 -136 -360 -136q-120 0 -223 57t-171 157l-40 60l118 80l38 -60q52 -72 125 -112t153 -40q172 0 254 87t103 218t21 289v20 q14 20 -10 -8q-146 -156 -349 -156t-347 156q-142 156 -142 372zM282 1094q0 -158 101 -271t246 -113t246 113t101 272t-101 272t-245 113q-94 0 -174 -51t-127 -140t-47 -195z" />
<glyph unicode=":" horiz-adv-x="510" d="M140 104q0 52 32 87t82 35t83 -35t33 -87t-33 -87t-83 -35t-82 35t-32 87zM140 904q0 52 32 87t82 35t83 -35t33 -87t-33 -85t-83 -33t-82 33t-32 85z" />
<glyph unicode=";" horiz-adv-x="556" d="M160 -183q41 20 61 83q9 28 9 60v194h142v-194q0 -134 -82 -220q-40 -44 -106 -66l-4 12v140zM186 904q0 52 33 87t83 35t82 -35t32 -87t-32 -85t-83 -33t-83 33t-32 85z" />
<glyph unicode="&#x3c;" horiz-adv-x="1366" d="M140 584v86l1020 612l74 -120l-892 -534l892 -536l-74 -120z" />
<glyph unicode="=" horiz-adv-x="1328" d="M140 308v142h1048v-142h-1048zM140 780v142h1048v-142h-1048z" />
<glyph unicode="&#x3e;" horiz-adv-x="1364" d="M132 92l890 536l-890 532l70 122l1022 -612v-86l-1022 -612z" />
<glyph unicode="?" horiz-adv-x="1178" d="M132 1352l40 60q70 102 171 158t217 56q240 0 359 -112t119 -306t-96 -310q-58 -72 -192 -138q-52 -26 -74 -41q-52 -35 -52 -101v-68h-138v68q0 123 65 178q65 54 139 88q136 74 168 134q42 79 42 204q0 264 -340 264q-78 0 -150 -40t-124 -114l-38 -60zM456 99 q0 51 32 85t81 34t81 -34t32 -85t-32 -85t-82 -34t-81 34t-31 85z" />
<glyph unicode="@" horiz-adv-x="2084" d="M140 617q0 209 68 396t192 333q126 144 292 224t351 80t351 -80t291 -225t192 -332t67 -382t-84 -387q-48 -114 -126 -190t-186 -76t-166 72q-42 52 -44 88q-32 -32 -122 -76t-198 -44q-215 0 -376 178q-148 174 -148 418t148 418q157 178 376 178t376 -178 q68 -78 80 -112l58 286l96 -19q-113 163 -272 242q-158 79 -314 79q-206 0 -381 -119t-277 -324t-102 -448t102 -448t277 -324t381 -119q138 0 264 52q78 36 148 88l56 44l86 -114l-56 -42q-84 -64 -176 -106q-156 -64 -331 -64t-341 80t-292 224q-124 146 -192 333t-68 396 zM636 614q0 -188 113 -321t270 -133t269 133t112 321t-112 321t-269 133t-270 -133t-113 -321zM1480 230q-22 -110 74 -110q46 0 93 47t82 129t54 172t19 148q0 284 -139 517z" />
<glyph unicode="A" horiz-adv-x="1536" d="M132 -20l574 1646h124l574 -1646h-150l-212 610q-40 -18 -136 -18h-304q-60 0 -85 -18t-36 -31t-14 -19t-5 -8l-180 -516h-150zM534 708q12 4 68 4h304q76 0 88 10l-226 654z" />
<glyph unicode="B" horiz-adv-x="1432" d="M140 -20v1646h684q174 0 299 -125t125 -301q0 -116 -59 -213t-123 -135q34 -18 90 -72q136 -136 136 -330t-136 -332q-91 -87 -212 -121q-60 -17 -120 -17h-684zM282 122h542q132 0 229 96t97 231t-97 231t-229 96l-478 2q-50 0 -64 6v-662zM282 958q5 -38 64 -38h478 q116 0 198 82t82 199t-82 200t-198 83h-542v-526z" />
<glyph unicode="C" horiz-adv-x="1520" d="M140 805q0 337 190 573q198 248 495 248q151 0 291 -89t232 -239l40 -60l-122 -76l-38 62q-164 260 -426 260q-132 0 -254 -91t-194 -247t-72 -343t72 -343t194 -247t254 -91q264 0 426 262l38 60l122 -76l-40 -60q-92 -150 -232 -239t-291 -89q-294 0 -495 248 q-190 240 -190 577z" />
<glyph unicode="D" horiz-adv-x="1438" d="M140 -18v1644h494q138 0 260 -65t216 -181q188 -238 188 -575t-188 -575q-92 -116 -210 -182q-130 -68 -266 -68h-2zM282 124l352 -2q210 0 362 196q160 202 160 490q0 136 -42 262t-113 217t-168 144t-199 53h-352v-1360z" />
<glyph unicode="E" horiz-adv-x="1276" d="M140 -20v1646h996v-142h-854v-572q14 6 64 6h790v-142h-790q-64 0 -64 -44v-610h854v-142h-996z" />
<glyph unicode="F" horiz-adv-x="1328" d="M140 -20v1646h1048v-142h-906v-572q8 4 50 6h698v-142h-684q-38 0 -52 -15t-12 -33v-748h-142z" />
<glyph unicode="G" horiz-adv-x="1608" d="M140 805q0 337 190 573q193 248 496 248q154 0 304 -100q144 -92 244 -272l-126 -72q-167 302 -446 302q-134 0 -255 -90t-193 -247t-72 -344t72 -343t193 -247t263 -91q82 0 170 49t160 129t123 198t59 226h-612v142h686q28 0 50 -19t22 -51q0 -160 -58 -312 q-50 -144 -144 -256q-202 -248 -463 -248q-131 0 -256 66t-217 182q-190 240 -190 577z" />
<glyph unicode="H" horiz-adv-x="1360" d="M140 -20v1646h142v-736q44 28 142 28h512q108 0 142 68v640h142v-1646h-142v822q-40 -24 -132 -26h-522q-76 0 -118 -42q-18 -14 -24 -26v-728h-142z" />
<glyph unicode="I" horiz-adv-x="422" d="M140 -20v1646h142v-1646h-142z" />
<glyph unicode="J" horiz-adv-x="970" d="M140 -20v142q162 0 283 90t193 246t72 344v824h142v-824q0 -336 -190 -576q-203 -246 -500 -246z" />
<glyph unicode="K" horiz-adv-x="1390" d="M140 -20v1646h142v-640q-20 -34 12 -8l696 648h208l-810 -758q-26 -20 -25 -31t17 -27l902 -830h-212l-780 722q-28 20 -8 -10v-712h-142z" />
<glyph unicode="L" horiz-adv-x="1328" d="M140 -20v1646h142v-1504h906v-142h-1048z" />
<glyph unicode="M" horiz-adv-x="1594" d="M140 -20v1646h138l518 -1418l518 1418h140v-1646h-142v1226l-448 -1226h-136l-446 1224v-1224h-142z" />
<glyph unicode="N" horiz-adv-x="1348" d="M140 -20v1646h140l786 -1442v1442h142v-1646h-192l-734 1348v-1348h-142z" />
<glyph unicode="O" horiz-adv-x="1622" d="M140 805q0 337 190 573q92 118 217 183t265 65t264 -65t214 -183q192 -236 192 -574t-192 -576q-90 -116 -214 -182t-264 -66t-265 66t-217 182q-190 240 -190 577zM282 803q0 -187 72 -343t193 -247t263 -91t264 91t194 247t72 343t-72 343t-194 247t-264 91t-263 -90 t-193 -247t-72 -344z" />
<glyph unicode="P" horiz-adv-x="1386" d="M140 -20v1646h684q114 0 211 -58t154 -155t57 -215q0 -174 -124 -298t-300 -124h-476q-40 0 -51 -13t-13 -29v-754h-142zM282 912q10 4 56 6h484q116 0 198 83t82 200t-82 200t-198 83h-540v-572z" />
<glyph unicode="Q" horiz-adv-x="1622" d="M140 805q0 337 190 573q92 118 217 183t265 65t264 -65t214 -183q192 -236 192 -574t-192 -576q-30 -36 -50 -56q32 -42 80 -56q14 -4 18 -4h28l10 -142h-28q-50 0 -114 27t-102 81q-18 -12 -54 -30q-126 -68 -266 -68t-265 66t-217 182q-190 240 -190 577zM282 803 q0 -187 72 -343t193 -247t263 -91t264 91t194 247t72 343t-72 343t-194 247t-264 91t-263 -90t-193 -247t-72 -344z" />
<glyph unicode="R" horiz-adv-x="1424" d="M140 -20v1646h682q116 0 213 -57t154 -155t57 -233t-99 -252t-213 -139q0 -2 18 -34l342 -776h-156l-318 720q-23 41 -43 53q-21 11 -31 17t-12 6h-388q-40 0 -51 -13t-13 -29v-754h-142zM282 912q10 4 56 6h484q116 0 198 83t82 199t-82 200t-198 84h-540v-572z" />
<glyph unicode="S" horiz-adv-x="1460" d="M132 256l114 86l44 -58q63 -76 125 -106q119 -58 325 -58t320 90t114 242q0 101 -69 162t-216 101q-61 17 -157 41q-262 66 -359 121q-199 113 -199 316t141 318t425 115q134 0 253 -58t203 -164l44 -56l-112 -86l-46 58q-60 80 -151 123t-191 43q-422 0 -422 -282 q0 -107 70 -168q32 -28 95 -57t124 -45t157 -42q262 -64 364 -122q192 -119 192 -318q0 -210 -154 -336q-154 -136 -426 -136q-224 0 -349 54t-215 168z" />
<glyph unicode="T" horiz-adv-x="1506" d="M140 1484v142h1226v-142h-556v-1504h-142v1504h-528z" />
<glyph unicode="U" horiz-adv-x="1332" d="M140 508v1118h142v-1118q0 -160 113 -272t272 -112t271 112t112 272v1118h142v-1118q0 -218 -155 -372t-372 -154t-371 154t-154 372z" />
<glyph unicode="V" horiz-adv-x="1550" d="M132 1626h152l492 -1410l490 1410h152l-574 -1646h-136z" />
<glyph unicode="W" horiz-adv-x="2286" d="M132 1626h146l482 -1378l332 1228h102l332 -1228l482 1378h146l-574 -1646h-122l-314 1154l-314 -1154h-122z" />
<glyph unicode="X" horiz-adv-x="1636" d="M120 -20l612 824l-612 822h174l524 -706l524 706h174l-612 -822l612 -824h-174l-524 708l-524 -708h-174z" />
<glyph unicode="Y" horiz-adv-x="1660" d="M120 1626h176l534 -720l536 720h174l-610 -822q-30 -76 -30 -168v-656h-140v656q0 92 -30 168z" />
<glyph unicode="Z" horiz-adv-x="1592" d="M140 -20v110l1104 1394h-1062v142h1270v-110l-1102 -1394h1062v-142h-1272z" />
<glyph unicode="[" horiz-adv-x="568" d="M140 -302v1928h288v-142h-146v-1644h146v-142h-288z" />
<glyph unicode="\" horiz-adv-x="962" d="M132 1626h152l546 -1646h-150z" />
<glyph unicode="]" horiz-adv-x="568" d="M140 -160h146v1644h-146v142h288v-1928h-288v142z" />
<glyph unicode="^" horiz-adv-x="1072" d="M132 1338l420 292l388 -296l-84 -112l-306 234l-338 -236z" />
<glyph unicode="_" horiz-adv-x="1326" d="M140 -20v142h1046v-142h-1046z" />
<glyph unicode="`" horiz-adv-x="496" d="M130 1534l106 96q28 -28 46 -54t46 -104t28 -166v-68h-142v68q0 113 -62 206q-4 6 -22 22z" />
<glyph unicode="a" horiz-adv-x="1166" d="M140 347q0 157 138 265q126 102 306 102h254q46 0 46 58v68q0 90 -82 157t-200 67q-76 0 -140 -30t-102 -80l-44 -58l-116 86l44 56q58 78 153 123t205 45q174 0 299 -105t125 -261v-494q0 -156 -132 -261t-311 -105t-305 102q-138 108 -138 265zM284 347q0 -87 86 -156 t215 -69t214 69t85 155v228q-6 -2 -44 -2h-256q-128 0 -214 -69t-86 -156z" />
<glyph unicode="b" horiz-adv-x="1172" d="M140 -20v1646h142v-398q0 -42 64 -42h84q250 0 426 -177t176 -426t-176 -426t-426 -177h-290zM282 122h148q192 0 326 135t134 325q0 126 -61 232t-167 168t-232 62h-82q-52 0 -66 6v-928z" />
<glyph unicode="c" horiz-adv-x="1186" d="M140 593q0 251 147 429q71 86 166 135t201 49q232 0 356 -168l44 -56l-114 -86l-44 58q-53 76 -168 102q-36 8 -74 8q-152 0 -262 -136t-110 -335t110 -335t262 -136q76 0 140 30t102 82l44 56l114 -84l-44 -58q-75 -103 -215 -147q-67 -21 -157 -21t-185 49t-169 135 q-144 178 -144 429z" />
<glyph unicode="d" horiz-adv-x="1172" d="M140 583q0 249 177 426t423 177h84q64 0 64 40v400h144v-1646h-292q-246 0 -423 177t-177 426zM282 583q0 -189 134 -326q62 -63 147 -99t177 -36h148v926q-12 -4 -64 -4h-84q-190 0 -324 -136t-134 -325z" />
<glyph unicode="e" horiz-adv-x="1206" d="M140 595q0 249 144 425q156 186 370 186q176 0 285 -88t109 -223t-121 -229t-321 -94h-278q-33 0 -37 -26q-1 -6 -3 -12t-2 -8q19 -174 125 -289q107 -115 243 -115q182 0 264 112l42 56l114 -84l-42 -58q-126 -168 -378 -168q-218 0 -366 183t-148 432zM291 711 q17 3 29 3h286q152 0 234 66q66 50 66 117t-64 117t-192 50t-233 -109t-125 -241q-18 -6 -1 -3z" />
<glyph unicode="f" horiz-adv-x="792" d="M140 -20v1176q0 192 128 332q130 138 314 138h70v-142h-70q-122 0 -208 -91t-90 -191q12 4 62 4h256v-142h-256q-64 0 -64 -46v-1038h-142z" />
<glyph unicode="g" horiz-adv-x="1172" d="M140 610q0 248 176 425t424 177h292v-1274q0 -156 -126 -262t-298 -106q-108 0 -202 44t-156 124l-42 58l112 86l44 -58q80 -110 264 -110q96 0 178 66t82 158v28q-5 42 -64 42h-84q-248 0 -424 177t-176 425zM282 609q0 -191 134 -325t324 -134h84q52 0 64 -4v924h-148 q-190 0 -324 -135t-134 -326z" />
<glyph unicode="h" horiz-adv-x="1164" d="M140 -20v1646h142v-370q0 -42 15 -54t27 -12h258q184 0 313 -139t129 -333v-738h-142v738q0 90 -41 166t-110 120t-149 44h-254q-38 0 -46 4v-1072h-142z" />
<glyph unicode="i" horiz-adv-x="422" d="M140 -20v1226h142v-1226h-142zM140 1474v28q0 44 43 64q13 6 31 6t33 -10q35 -23 35 -60v-28q0 -30 -21 -51t-50 -21t-50 21t-21 51z" />
<glyph unicode="j" horiz-adv-x="794" d="M140 -286h72q124 0 212 96t88 232v1216h142v-1216q0 -194 -129 -333t-313 -139h-72v144zM512 1474v28q0 37 35 60q15 10 35 10t36 -10q36 -22 36 -60v-28q0 -30 -22 -51t-50 -21t-49 21t-21 51z" />
<glyph unicode="k" horiz-adv-x="1254" d="M140 -20v1646h142v-924l638 504h230l-636 -504q4 -2 24 -24l600 -698h-192l-516 602q-20 20 -28 21t-16 -3l-104 -82v-538h-142z" />
<glyph unicode="l" horiz-adv-x="422" d="M140 -20v1646h142v-1646h-142z" />
<glyph unicode="m" horiz-adv-x="1904" d="M140 -20v754q0 194 128 334q130 138 314 138t312 -138q46 -50 58 -74q14 24 58 74q128 138 313 138t313 -139t128 -333v-754h-142v754q0 138 -87 234t-212 96t-212 -96t-87 -234v-754h-142v754q0 90 -41 166t-110 120t-149 44q-126 0 -213 -96t-87 -234v-754h-142z" />
<glyph unicode="n" horiz-adv-x="1164" d="M140 -20v754q0 194 128 334q130 138 314 138t313 -139t129 -333v-754h-142v754q0 90 -41 166t-110 120t-149 44q-126 0 -213 -96t-87 -234v-754h-142z" />
<glyph unicode="o" horiz-adv-x="1346" d="M140 593q0 251 150 431q165 182 382 182t382 -182q152 -180 152 -431t-152 -429q-161 -182 -383 -182t-377 180q-154 180 -154 431zM282 594q0 -128 53 -236t142 -171t182 -63q173 0 288 137t115 333t-115 333t-274 137t-275 -137t-116 -333z" />
<glyph unicode="p" horiz-adv-x="1172" d="M140 -430v1646h290q250 0 426 -177t176 -425t-176 -425t-426 -177h-84q-49 0 -61 -29q-3 -7 -3 -11v-402h-142zM282 148q14 6 66 6h82q126 0 232 61t167 168t61 231q0 192 -135 326t-325 134h-148v-926z" />
<glyph unicode="q" horiz-adv-x="1172" d="M140 614q0 248 177 425t423 177h292v-1646h-144v400q0 42 -64 42h-84q-246 0 -423 177t-177 425zM282 614q0 -190 134 -325t324 -135h84q52 0 64 -4v924h-148q-190 0 -324 -135t-134 -325z" />
<glyph unicode="r" horiz-adv-x="742" d="M140 -20v754q0 194 128 334q130 138 334 138v-142q-168 0 -262 -134q-58 -83 -58 -196v-754h-142z" />
<glyph unicode="s" horiz-adv-x="1148" d="M132 206l114 84l44 -56q40 -54 101 -83t194 -29t207 59t74 149t-65 129t-239 83t-248 88q-144 88 -144 243t104 244t310 89t336 -168l44 -56l-112 -88l-46 58q-86 112 -222 112q-272 0 -272 -182q0 -84 76 -128q58 -36 222 -76q184 -50 256 -90q142 -88 142 -248 t-110 -256q-114 -104 -294 -104t-271 41t-157 127z" />
<glyph unicode="t" horiz-adv-x="744" d="M140 454v1172h142v-448q14 6 66 6h256v-142h-256q-61 0 -66 -44v-544q0 -138 88 -235t234 -97v-142q-206 0 -335 139t-129 335z" />
<glyph unicode="u" horiz-adv-x="1164" d="M140 454v752h142v-752q0 -138 87 -235t212 -97t213 97t88 235v752h142v-752q0 -196 -129 -335t-313 -139t-313 139t-129 335z" />
<glyph unicode="v" horiz-adv-x="1300" d="M132 1206h152l366 -984l368 984h150l-454 -1226h-126z" />
<glyph unicode="w" horiz-adv-x="1928" d="M132 1206h152l360 -968l256 826h126l258 -826l360 968h152l-456 -1226h-124l-252 808l-250 -808h-126z" />
<glyph unicode="x" horiz-adv-x="1302" d="M120 -20l444 614l-444 612h174l356 -494l358 494h172l-444 -612l446 -614h-174l-358 494l-356 -494h-174z" />
<glyph unicode="y" horiz-adv-x="1308" d="M132 1206h150l372 -1004l376 1004h146l-500 -1338q-46 -132 -154 -215t-244 -83h-70v140h70q90 0 163 55t109 161v4q8 20 8 67t-42 185z" />
<glyph unicode="z" horiz-adv-x="1260" d="M140 -20v110l772 974h-732v142h940v-110l-772 -974h732v-142h-940z" />
<glyph unicode="{" horiz-adv-x="962" d="M140 596v160h108q70 4 106 34q75 62 80 326q6 264 42 350q66 164 266 160h80v-158h-82q-58 2 -82 -14t-42 -61t-23 -289t-71 -358q-30 -52 -54 -70q24 -16 54 -70q66 -116 71 -359t29 -299q12 -32 36 -48t82 -16l82 2v-160h-88q-194 0 -258 160q-36 86 -40 284t-25 281 t-57 112t-106 33h-108z" />
<glyph unicode="|" horiz-adv-x="422" d="M140 -298v1924h142v-1924h-142z" />
<glyph unicode="}" horiz-adv-x="962" d="M140 -114l82 -2q75 0 100 30q10 12 26 51t21 282t71 359q30 54 54 70q-24 18 -54 70q-66 114 -71 358t-22 288t-42 61t-83 15h-82v158h80q200 4 266 -160q36 -86 40 -263t15 -254t34 -118t55 -57t84 -18h108v-160h-108q-70 -4 -106 -33q-71 -57 -82 -361 q-4 -230 -40 -316q-64 -160 -258 -160h-88v160z" />
<glyph unicode="~" horiz-adv-x="1238" d="M134 604l30 64q133 292 356 178q42 -24 104 -72t85 -65q68 -51 107 -39q62 14 130 162l30 64l128 -60l-28 -64q-48 -106 -104 -162q-79 -84 -181 -84q-33 0 -82 21t-79 42t-75 56t-67 51q-62 45 -102 36q-40 -10 -94 -124l-30 -64z" />
<glyph unicode="&#xa1;" horiz-adv-x="510" d="M140 1495q0 43 14 71q30 60 90 60t93 -35t33 -87t-33 -85t-83 -33t-82 33t-32 76zM182 -20v1006h144v-1006h-144z" />
<glyph unicode="&#xa2;" horiz-adv-x="1186" d="M140 592v2q0 250 146 426q74 88 158 132t148 50v110h142v-112q172 -22 278 -162l42 -56l-114 -86l-42 58q-38 50 -102 80t-140 30q-152 0 -263 -137t-111 -333v-2q0 -194 111 -332t263 -138q76 0 140 30t102 82l42 56l114 -84l-42 -58q-106 -138 -278 -162v-112h-142v110 q-64 6 -148 50t-158 130q-146 178 -146 428z" />
<glyph unicode="&#xa3;" horiz-adv-x="1358" d="M140 -20v140q58 0 84 18t48 72q58 138 66 470h-162v144h162q0 443 130 632q64 90 149 124t199 34t214 -92t168 -262l-130 -52q-110 264 -268 264q-76 0 -127 -23q-193 -87 -193 -625h454v-144h-454q-8 -360 -78 -528l-12 -28h828v-144h-1078z" />
<glyph unicode="&#xa4;" horiz-adv-x="1302" d="M132 1156l98 100l144 -144q112 106 277 106t277 -104l140 142l102 -100l-154 -152q70 -108 70 -257t-68 -255l152 -150l-102 -102l-138 142q-112 -108 -280 -108t-278 108l-140 -142l-98 102l148 150q-68 106 -68 255t68 255zM358 746q0 -138 86 -234t207 -96t207 96 t86 234t-86 234t-208 96q-78 0 -145 -44t-107 -120t-40 -166z" />
<glyph unicode="&#xa5;" horiz-adv-x="1572" d="M132 1550l112 84l542 -728l542 728l112 -84l-554 -744q-10 -28 -12 -36h324v-140h-342v-84h342v-142h-342v-424h-140v424h-346v142h346v84h-346v140h328q-2 8 -10 36z" />
<glyph unicode="&#xa6;" horiz-adv-x="422" d="M140 -20v464h142v-464h-142zM140 692v934h142v-934h-142z" />
<glyph unicode="&#xa7;" horiz-adv-x="1146" d="M132 200l116 82l42 -58q36 -50 84 -76t158 -26t171 54t61 149t-106 135q-21 0 -178 56q-158 56 -188 78q-122 82 -122 227t88 227q50 48 88 60q-78 58 -78 197t92 225t274 86q119 0 214 -74q46 -36 80 -88l44 -56l-116 -84l-44 58q-70 102 -178 102q-224 0 -224 -166 q0 -78 55 -113t203 -77t216 -86q122 -82 122 -230t-96 -242q-40 -40 -70 -54q66 -60 66 -196t-99 -233t-257 -97t-240 41t-136 121zM312 830q0 -78 53 -114t193 -72q86 -26 122 -40q86 10 135 61t49 131t-54 115t-138 57t-98 28h-40q-222 0 -222 -166z" />
<glyph unicode="&#xa8;" horiz-adv-x="352" />
<glyph unicode="&#xa9;" d="M140 480v740h100v100h100v100h640v-100h100v-100h100v-740h-100v-100h-100v-100h-640v100h-100v100h-100zM280 620h100v-100h100v-100h360v60h-300v100h-100v540h100v100h300v60h-360v-100h-100v-100h-100v-460zM580 720h100v-100h200v-100h60v100h100v460h-100v100h-60 v-100h-200v-100h-100v-260z" />
<glyph unicode="&#xaa;" horiz-adv-x="1020" d="M140 380v240h740v-240h-740zM140 780v340h100v100h400v160h-260v-100h-240v140h100v100h540v-100h100v-740h-140v100h-60v-100h-440v100h-100zM280 920h100v-100h260v260h-260v-100h-100v-60z" />
<glyph unicode="&#xab;" horiz-adv-x="1000" d="M132 594l410 404v-200l-208 -204l206 -202l2 -202zM452 592l408 406v-200l-206 -204l206 -204v-200z" />
<glyph unicode="&#xac;" horiz-adv-x="730" d="M140 246v22q0 20 3 32q21 83 57 88q0 4 76 4l108 -2h58q80 -2 114 -42q18 -12 22 -32q10 -22 12 -56q-8 -66 -10 -96q-2 -56 -150 -66v60q0 38 4 82z" />
<glyph unicode="&#xad;" horiz-adv-x="882" d="M140 536v142h602v-142h-602z" />
<glyph unicode="&#xae;" d="M140 680v640h100v100h100v100h640v-100h100v-100h100v-640h-100v-100h-100v-100h-640v100h-100v100h-100zM280 820h100v-100h60v560h-60v-100h-100v-360zM480 620h360v60h-100v200h-160v-200h-100v-60zM480 1320h300v-100h100v-240h-100v-60h100v-200h60v100h100v360 h-100v100h-100v100h-360v-60zM580 1020h160v160h-160v-160z" />
<glyph unicode="&#xaf;" horiz-adv-x="948" d="M140 566v22q0 24 6 36q0 12 4 16q18 66 50 66q0 4 21 4h55l342 -4q48 0 50 2h38q46 6 62 12h26v-30q0 -22 6 -40l8 -48q0 -34 -48 -39t-190 -5h-36q-206 0 -394 8z" />
<glyph unicode="&#xb0;" horiz-adv-x="288" />
<glyph unicode="&#xb1;" horiz-adv-x="1326" d="M140 -24v142h1046v-142h-1046zM140 536v142h452v552h142v-552h452v-142h-452v-354h-142v354h-452z" />
<glyph unicode="&#xb2;" horiz-adv-x="384" />
<glyph unicode="&#xb3;" horiz-adv-x="386" />
<glyph unicode="&#xb4;" horiz-adv-x="588" d="M132 558q38 68 118 182l40 50l82 -50q-5 -10 -7 -9q1 -2 1 -3l86 -48q-12 -38 -28 -68l-84 -126q-12 -22 -28 -28q-26 -14 -67 16t-59 52l-16 16z" />
<glyph unicode="&#xb5;" horiz-adv-x="544" />
<glyph unicode="&#xb6;" horiz-adv-x="570" />
<glyph unicode="&#xb7;" horiz-adv-x="196" />
<glyph unicode="&#xb8;" horiz-adv-x="456" />
<glyph unicode="&#xb9;" horiz-adv-x="270" />
<glyph unicode="&#xba;" horiz-adv-x="388" />
<glyph unicode="&#xbb;" horiz-adv-x="1000" d="M140 390l206 204l-206 204l2 200l408 -406l-408 -402zM462 190v202l204 202l-204 204v200l406 -404z" />
<glyph unicode="&#xbc;" d="M140 80v240h100v200h100v200h100v200h100v60h-400v140h100v360h-100v140h100v100h240v-600h100v-100h60v200h100v200h100v200h100v100h140v-240h-100v-200h-100v-200h-100v-200h-100v-100h-100v-200h-100v-200h-100v-200h-100v-100h-140zM640 280v240h100v200h100v100 h240v-400h100v-140h-100v-200h-140v200h-300zM880 420h60v160h-60v-160z" />
<glyph unicode="&#xbd;" d="M140 80v240h100v200h100v200h100v200h100v60h-400v140h100v360h-100v140h100v100h240v-600h100v-100h60v200h100v200h100v200h100v100h140v-240h-100v-200h-100v-200h-100v-200h-100v-100h-100v-200h-100v-200h-100v-200h-100v-100h-140zM640 80v340h100v100h200v160h-60 v-100h-240v140h100v100h340v-100h100v-240h-100v-100h-200v-160h300v-140h-540z" />
<glyph unicode="&#xbe;" d="M140 1080v140h240v-100h60v160h-100v140h100v160h-60v-100h-240v140h100v100h340v-100h100v-240h-100v-60h100v-240h-100v-100h-340v100h-100zM240 80v240h100v200h100v200h100v200h100v100h100v200h100v200h100v200h100v100h140v-240h-100v-200h-100v-200h-100v-200 h-100v-100h-100v-200h-100v-200h-100v-200h-100v-100h-140zM640 280v240h100v200h100v100h240v-400h100v-140h-100v-200h-140v200h-300zM880 420h60v160h-60v-160z" />
<glyph unicode="&#xbf;" horiz-adv-x="1178" d="M140 399q0 193 96 311q58 70 194 136q50 26 72 42q52 38 52 100v70h138v-70q0 -122 -70 -180q-67 -56 -122 -82q-54 -26 -76 -38t-55 -40q-89 -76 -89 -262q0 -264 340 -264q78 0 150 40t122 114l38 58l116 -82l-40 -56q-70 -102 -171 -159t-215 -57q-242 0 -366 120 q-114 106 -114 299zM498 1509q0 51 31 84t81 33t82 -33t32 -84t-33 -85t-82 -34t-80 34t-31 85z" />
<glyph unicode="&#xf7;" horiz-adv-x="1306" d="M140 550v140h1026v-140h-1026zM532 91q0 59 32 93t82 34t81 -34t31 -85t-31 -85t-73 -34t-68 17q-54 35 -54 94zM532 1123q0 51 32 85t82 34t81 -34t31 -85t-31 -85t-81 -34t-82 34t-32 85z" />
<glyph unicode="&#x2c6;" horiz-adv-x="892" d="M132 1430l316 220l12 -12l300 -206l-80 -118l-232 156l-234 -156z" />
<glyph unicode="&#x2dc;" horiz-adv-x="786" d="M132 364q76 84 118 118l44 38q16 16 28 16h26l12 -6q4 -4 64 -60l30 -28l32 28q60 56 64 60l12 6q28 0 70 -42l24 -16q-40 -48 -120 -122l-46 -38q-20 -14 -32 -14h-16q-24 0 -24 12l-82 74l-5 5l-129 -117q0 26 16 26q-20 0 -50 28zM318 562q21 -21 19 -25q-2 1 -5 2 q0 -2 -2 -3q-4 1 -1 4q-11 6 -11 22z" />
<glyph unicode="&#x2000;" horiz-adv-x="860" />
<glyph unicode="&#x2001;" horiz-adv-x="1720" />
<glyph unicode="&#x2002;" horiz-adv-x="860" />
<glyph unicode="&#x2003;" horiz-adv-x="1720" />
<glyph unicode="&#x2004;" horiz-adv-x="573" />
<glyph unicode="&#x2005;" horiz-adv-x="430" />
<glyph unicode="&#x2006;" horiz-adv-x="286" />
<glyph unicode="&#x2007;" horiz-adv-x="286" />
<glyph unicode="&#x2008;" horiz-adv-x="215" />
<glyph unicode="&#x2009;" horiz-adv-x="344" />
<glyph unicode="&#x200a;" horiz-adv-x="95" />
<glyph unicode="&#x2010;" horiz-adv-x="882" d="M140 536v142h602v-142h-602z" />
<glyph unicode="&#x2011;" horiz-adv-x="882" d="M140 536v142h602v-142h-602z" />
<glyph unicode="&#x2012;" horiz-adv-x="882" d="M140 536v142h602v-142h-602z" />
<glyph unicode="&#x2013;" horiz-adv-x="594" />
<glyph unicode="&#x2014;" horiz-adv-x="762" />
<glyph unicode="&#x2018;" horiz-adv-x="620" d="M140 880v440h100v100h100v100h140v-140h-100v-160h100v-340h-340z" />
<glyph unicode="&#x2019;" horiz-adv-x="620" d="M140 880v140h100v160h-100v340h340v-440h-100v-100h-100v-100h-140z" />
<glyph unicode="&#x201a;" horiz-adv-x="720" d="M140 80v140h100v100h100v200h240v-240h-100v-100h-100v-100h-240z" />
<glyph unicode="&#x201c;" horiz-adv-x="1120" d="M140 880v440h100v100h100v100h140v-140h-100v-160h100v-340h-340zM640 880v440h100v100h100v100h140v-140h-100v-160h100v-340h-340z" />
<glyph unicode="&#x201d;" horiz-adv-x="1120" d="M140 880v140h100v160h-100v340h340v-440h-100v-100h-100v-100h-140zM640 880v140h100v160h-100v340h340v-440h-100v-100h-100v-100h-140z" />
<glyph unicode="&#x201e;" horiz-adv-x="1120" d="M140 80v140h100v100h100v200h240v-240h-100v-100h-100v-100h-240zM180 120h160v100h100v100h100v160h-160v-200h-100v-100h-100v-60zM540 80v140h100v100h100v200h240v-240h-100v-100h-100v-100h-240z" />
<glyph unicode="&#x2022;" horiz-adv-x="920" d="M140 680v340h100v100h440v-100h100v-340h-100v-100h-440v100h-100z" />
<glyph unicode="&#x202f;" horiz-adv-x="344" />
<glyph unicode="&#x2039;" horiz-adv-x="680" d="M132 592l408 406v-200l-206 -204l206 -204v-200z" />
<glyph unicode="&#x203a;" horiz-adv-x="682" d="M140 390l206 204l-206 204l2 200l408 -406l-408 -402z" />
<glyph unicode="&#x205f;" horiz-adv-x="430" />
<glyph unicode="&#x2122;" d="M140 1380v140h640v-100h100v-100h60v100h100v100h140v-640h-140v400h-60v-100h-140v100h-60v-400h-140v500h-160v-500h-140v500h-200z" />
<glyph unicode="&#x25fc;" horiz-adv-x="1205" d="M0 0v1205h1205v-1205h-1205z" />
</font>
</defs>
</svg>
