<?xml version="1.0" standalone="no"?>
<!DOCTYPE svg PUBLIC "-//W3C//DTD SVG 1.1//EN" "http://www.w3.org/Graphics/SVG/1.1/DTD/svg11.dtd" >
<svg xmlns="http://www.w3.org/2000/svg" xmlns:xlink="http://www.w3.org/1999/xlink" version="1.1">
<metadata></metadata>
<defs>
<font id="vip_timthin" horiz-adv-x="1283" >
<font-face units-per-em="2048" ascent="1638" descent="-410" />
<missing-glyph horiz-adv-x="501" />
<glyph unicode="&#xfedf;&#xfe82;" horiz-adv-x="1106" arabic-form="isolated" d="M512 1279q33 0 63 42q33 38 46 67q0 -68 -60 -126q-29 -19 -49 -19t-31 3q-38 16 -69 86q-34 41 -74 41t-74 -41l-14 -32q0 58 42 86q24 20 54 20l23 -4q39 -11 59 -44q40 -79 84 -79zM160 10v62h315v1q409 0 409 420v674h-80v62h142v-736q0 -469 -466 -482v-1h-320z M452 1133v-923h-62v923h62z" />
<glyph unicode="&#xfee0;&#xfe82;" horiz-adv-x="1371" arabic-form="final" d="M479 1279q33 0 64 42q33 38 46 67q0 -68 -60 -126q-31 -19 -51 -19t-31 3q-37 16 -67 86q-36 41 -74 41t-75 -41l-13 -30q0 56 42 84q23 20 53 20l23 -4q39 -11 58 -44q40 -79 85 -79zM452 1133v-923h-62v923h62zM887 1168h-79v62h141v-737q0 -420 409 -420v-1h73v-62 h-78v1q-332 11 -435 267q-103 -256 -434 -267v-1h-324v62h317v1q410 0 410 420v675z" />
<glyph unicode="&#xfedf;&#xfe84;" horiz-adv-x="1106" arabic-form="isolated" d="M293 1252v42h70q-39 48 -39 94q0 196 255 198v-32q-206 -3 -206 -166q0 -75 78 -94h128v-42h-286zM160 10v62h315v1q409 0 409 420v674h-80v62h142v-736q0 -469 -466 -482v-1h-320zM452 1133v-923h-62v923h62z" />
<glyph unicode="&#xfee0;&#xfe84;" horiz-adv-x="1371" arabic-form="final" d="M293 1252v42h70q-39 48 -39 94q0 196 255 198v-32q-206 -3 -206 -166q0 -75 78 -94h128v-42h-286zM452 1133v-923h-62v923h62zM887 1168h-79v62h141v-737q0 -420 409 -420v-1h73v-62h-78v1q-332 11 -435 267q-103 -256 -434 -267v-1h-324v62h317v1q410 0 410 420v675z " />
<glyph unicode="&#xfedf;&#xfe88;" horiz-adv-x="1106" arabic-form="isolated" d="M265 -412v41h71q-40 47 -40 95q0 194 255 197v-33q-206 -2 -206 -164q0 -75 78 -95h128v-41h-286zM160 10v62h315v1q409 0 409 420v674h-80v62h142v-736q0 -469 -466 -482v-1h-320zM452 1133v-923h-62v923h62z" />
<glyph unicode="&#xfee0;&#xfe88;" horiz-adv-x="1371" arabic-form="final" d="M265 -412v41h71q-40 47 -40 95q0 194 255 197v-33q-206 -2 -206 -164q0 -75 78 -95h128v-41h-286zM452 1133v-923h-62v923h62zM887 1168h-79v62h141v-737q0 -420 409 -420v-1h73v-62h-78v1q-332 11 -435 267q-103 -256 -434 -267v-1h-324v62h317v1q410 0 410 420v675z " />
<glyph unicode="&#xfedf;&#xfe8e;" horiz-adv-x="1106" arabic-form="isolated" d="M160 10v62h315v1q409 0 409 420v674h-80v62h142v-736q0 -469 -466 -482v-1h-320zM452 1133v-923h-62v923h62z" />
<glyph unicode="&#xfee0;&#xfe8e;" horiz-adv-x="1371" arabic-form="final" d="M452 1133v-923h-62v923h62zM887 1168h-79v62h141v-737q0 -420 409 -420v-1h73v-62h-78v1q-332 11 -435 267q-103 -256 -434 -267v-1h-324v62h317v1q410 0 410 420v675z" />
<glyph unicode="&#xfe8e;&#x64b;" horiz-adv-x="563" d="M11 1348l334 124v-60l-334 -126v62zM11 1519l334 124v-60l-334 -126v62zM155 1167v-674q0 -420 409 -420v-1h72v-62h-77v1q-466 13 -466 482v736h142v-62h-80z" />
<glyph unicode="&#x627;&#x64b;" horiz-adv-x="604" d="M120 1348l334 124v-60l-334 -126v62zM120 1519l334 124v-60l-334 -126v62zM316 1229v-1219h-62v1219h62z" />
<glyph unicode="&#x671;" horiz-adv-x="689" arabic-form="final" d="M160 1323v40h33v311h40q20 -74 101 -69q141 0 141 -141v-141h-315zM233 1363h202v101q0 101 -101 101t-101 -101v-101zM268 1167v-674q0 -420 410 -420v-1h71v-62h-77v1q-466 13 -466 482v736h143v-62h-81z" />
<glyph unicode="&#x67e;" horiz-adv-x="1688" arabic-form="final" d="M512 -181q0 30 20.5 49.5t48 19.5t50 -19.5t22.5 -47.5t-20 -53q-25 -20 -52.5 -20t-48 20.5t-20.5 50.5zM793 -181q0 30 20.5 49.5t48 19.5t50 -19.5t22.5 -47.5t-20 -53q-25 -20 -52.5 -20t-48 20.5t-20.5 50.5zM645 -400q0 29 20.5 49.5t49 20.5t50 -21t21.5 -47.5 t-20 -51.5q-25 -20 -52.5 -20t-48 20.5t-20.5 49.5zM794 72v1q409 0 409 420v419h-79v62h141v-481q0 -420 410 -420v-1h73v-62h-79v1q-332 11 -435 267q-103 -256 -434 -267v-1h-174v1q-466 13 -466 482v481h142v-62h-80v-419q0 -420 409 -420v-1h163z" />
<glyph unicode="&#x67e;" horiz-adv-x="643" arabic-form="initial" d="M52 -181q0 30 20.5 49.5t48 19.5t50 -19.5t22.5 -47.5t-20 -53q-25 -20 -52.5 -20t-48 20.5t-20.5 50.5zM333 -181q0 30 20.5 49.5t48 19.5t50 -19.5t22.5 -47.5t-20 -53q-25 -20 -52.5 -20t-48 20.5t-20.5 50.5zM185 -400q0 29 20.5 49.5t49 20.5t50 -21t21.5 -47.5 t-20 -51.5q-25 -20 -52.5 -20t-48 20.5t-20.5 49.5zM342 912v62h141v-481q0 -469 -464 -482v-1h-79v62h72v1q409 0 409 420v419h-79z" />
<glyph unicode="&#x67e;" horiz-adv-x="846" arabic-form="medial" d="M212 -181q0 30 20.5 49.5t48 19.5t50 -19.5t22.5 -47.5t-20 -53q-25 -20 -52.5 -20t-48 20.5t-20.5 50.5zM493 -181q0 30 20.5 49.5t48 19.5t50 -19.5t22.5 -47.5t-20 -53q-25 -20 -52.5 -20t-48 20.5t-20.5 50.5zM345 -400q0 29 20.5 49.5t49 20.5t50 -21t21.5 -47.5 t-20 -51.5q-25 -20 -52.5 -20t-48 20.5t-20.5 49.5zM391 912h-79v62h141v-902h483v-62h-1026v62h481v840z" />
<glyph unicode="&#x6a4;" horiz-adv-x="2276" arabic-form="final" d="M1463 1164q0 -28 -22.5 -47.5t-50 -19.5t-48 19.5t-20.5 49t20.5 50.5t48 21t52.5 -20q20 -25 20 -53zM1744 1164q0 -28 -22.5 -47.5t-50 -19.5t-48 19.5t-20.5 49t20.5 50.5t48 21t52.5 -20q20 -25 20 -53zM1596 1383q0 -27 -21.5 -47.5t-50 -20.5t-49 20t-20.5 49.5 t20.5 50t48 20.5t52.5 -20q20 -25 20 -52zM1048 72v420q0 481 481.5 481t481.5 -481v-420h325v-62h-1710v1q-466 13 -466 482v317h142v-61h-80v-256q0 -420 409 -420v-1h417zM1110 72h839v420q0 419 -419.5 419t-419.5 -419v-420z" />
<glyph unicode="&#x6a4;" horiz-adv-x="1395" arabic-form="initial" d="M693 1160q0 -28 -22.5 -47.5t-50 -19.5t-48 19.5t-20.5 49t20.5 50.5t48 21t52.5 -20q20 -25 20 -53zM974 1160q0 -28 -22.5 -47.5t-50 -19.5t-48 19.5t-20.5 49t20.5 50.5t48 21t52.5 -20q20 -25 20 -53zM826 1379q0 -27 -21.5 -47.5t-50 -20.5t-49 20t-20.5 49.5 t20.5 50t48 20.5t52.5 -20q20 -25 20 -52zM-60 72h332v420q0 481 481.5 481t481.5 -481v-482h-1295v62zM334 72h839v420q0 419 -419.5 419t-419.5 -419v-420z" />
<glyph unicode="&#x6a4;" horiz-adv-x="1440" arabic-form="medial" d="M643 1160q0 -28 -22.5 -47.5t-50 -19.5t-48 19.5t-20.5 49t20.5 50.5t48 21t52.5 -20q20 -25 20 -53zM924 1160q0 -28 -22.5 -47.5t-50 -19.5t-48 19.5t-20.5 49t20.5 50.5t48 21t52.5 -20q20 -25 20 -53zM776 1379q0 -27 -21.5 -47.5t-50 -20.5t-49 20t-20.5 49.5 t20.5 50t48 20.5t52.5 -20q20 -25 20 -52zM-90 10v62h332v420q0 481 481.5 481t481.5 -481v-420h325v-62h-1620zM304 72h839v420q0 419 -419.5 419t-419.5 -419v-420z" />
<glyph unicode="&#x686;" horiz-adv-x="1232" arabic-form="final" d="M792 -181q0 30 20.5 49.5t48 19.5t50 -19.5t22.5 -47.5t-20 -53q-25 -20 -52.5 -20t-48 20.5t-20.5 50.5zM1073 -181q0 30 20.5 49.5t48 19.5t50 -19.5t22.5 -47.5t-20 -53q-25 -20 -52.5 -20t-48 20.5t-20.5 50.5zM925 -400q0 29 20.5 49.5t49 20.5t50 -21t21.5 -47.5 t-20 -51.5q-25 -20 -52.5 -20t-48 20.5t-20.5 49.5zM897 72v420q0 419 -419 419h-154v62h154q481 0 481 -481v-420h333v-62h-1069q0 -184 420 -184h88v-62h-88q-482 0 -482 246h-1v62h737z" />
<glyph unicode="&#x686;" horiz-adv-x="1145" arabic-form="initial" d="M192 -181q0 30 20.5 49.5t48 19.5t50 -19.5t22.5 -47.5t-20 -53q-25 -20 -52.5 -20t-48 20.5t-20.5 50.5zM473 -181q0 30 20.5 49.5t48 19.5t50 -19.5t22.5 -47.5t-20 -53q-25 -20 -52.5 -20t-48 20.5t-20.5 50.5zM325 -400q0 29 20.5 49.5t49 20.5t50 -21t21.5 -47.5 t-20 -51.5q-25 -20 -52.5 -20t-48 20.5t-20.5 49.5zM841 72v420q0 419 -419 419h-154v62h154q481 0 481 -481v-420h82v-62h-1045v62h901z" />
<glyph unicode="&#x686;" horiz-adv-x="1116" arabic-form="medial" d="M212 -181q0 30 20.5 49.5t48 19.5t50 -19.5t22.5 -47.5t-20 -53q-25 -20 -52.5 -20t-48 20.5t-20.5 50.5zM493 -181q0 30 20.5 49.5t48 19.5t50 -19.5t22.5 -47.5t-20 -53q-25 -20 -52.5 -20t-48 20.5t-20.5 50.5zM345 -400q0 29 20.5 49.5t49 20.5t50 -21t21.5 -47.5 t-20 -51.5q-25 -20 -52.5 -20t-48 20.5t-20.5 49.5zM-90 10v62h901v420q0 419 -419 419h-154v62h154q481 0 481 -481v-420h333v-62h-1296z" />
<glyph unicode="&#x698;" horiz-adv-x="890" arabic-form="final" d="M533 1164q0 -28 -22.5 -47.5t-50 -19.5t-48 19.5t-20.5 49t20.5 50.5t48 21t52.5 -20q20 -25 20 -53zM814 1164q0 -28 -22.5 -47.5t-50 -19.5t-48 19.5t-20.5 49t20.5 50.5t48 21t52.5 -20q20 -25 20 -53zM666 1383q0 -27 -21.5 -47.5t-50 -20.5t-49 20t-20.5 49.5 t20.5 50t48 20.5t52.5 -20q20 -25 20 -52zM583 973h62v-901h305v-62h-305q0 -246 -481 -246h-154v62h154q419 0 419 174v973z" />
<glyph unicode="&#x6a9;" horiz-adv-x="1717" arabic-form="final" d="M623 10v1q-463 14 -463 482v225h142v-62h-80v-163q0 -420 409 -420v-1h778v289q0 420 -419 420h-160l-56 49l415 416l44 -43l-361 -361h118q481 0 481 -481v-289h318v-62h-1166z" />
<glyph unicode="&#x6a9;" horiz-adv-x="991" arabic-form="initial" d="M410 842q481 0 481 -481v-351h-963v62h901v289q0 420 -419 420h-160l-56 49l415 416l44 -43l-361 -361h118z" />
<glyph unicode="&#x6a9;" horiz-adv-x="1137" arabic-form="medial" d="M-72 10v62h901v289q0 420 -419 420h-160l-56 49l415 416l44 -43l-361 -361h118q481 0 481 -481v-289h318v-62h-1281z" />
<glyph unicode="&#x6af;" horiz-adv-x="1717" arabic-form="final" d="M623 10v1q-463 14 -463 482v225h142v-62h-80v-163q0 -420 409 -420v-1h778v289q0 420 -419 420h-160l-56 49l415 416l44 -43l-361 -361h118q481 0 481 -481v-289h318v-62h-1166zM1077 1321l43 -42l-380 -375l-50 35z" />
<glyph unicode="&#x6af;" horiz-adv-x="991" arabic-form="initial" d="M497 1321l43 -42l-380 -375l-50 35zM410 842q481 0 481 -481v-351h-963v62h901v289q0 420 -419 420h-160l-56 49l415 416l44 -43l-361 -361h118z" />
<glyph unicode="&#x6af;" horiz-adv-x="1137" arabic-form="medial" d="M497 1321l43 -42l-380 -375l-50 35zM-72 10v62h901v289q0 420 -419 420h-160l-56 49l415 416l44 -43l-361 -361h118q481 0 481 -481v-289h318v-62h-1281z" />
<glyph unicode="&#x6c1;" arabic-form="final" d="M641 10q-481 0 -481 482t481 481h482v-963h-482zM1061 72v839h-420q-419 1 -419 -419t419 -420h420z" />
<glyph unicode="&#x6c1;" horiz-adv-x="1568" arabic-form="initial" d="M-72 72h1059q419 0 419 420q0 254 -253 337q-258 0 -258 -174v-481h-62v481q0 256 -258 256q-253 -84 -253 -419v-318h-62v318q0 401 318 481q236 0 283 -182q51 100 289 100q318 -80 318 -399q0 -482 -481 -482h-1059v62z" />
<glyph unicode="&#x6c1;" horiz-adv-x="1876" arabic-form="medial" d="M987 10h-1059v62h1059q400 0 417 384v27h2q0 263 -253 346q-258 0 -258 -174v-481h-62v481q0 256 -258 256q-253 -84 -253 -419v-318h-62v318q0 401 318 481q236 0 283 -182q51 100 289 100q318 -80 318 -399v-36q17 -383 407 -383v-1h73v-62h-78v1q-331 11 -433 263 q-108 -264 -450 -264z" />
<glyph unicode="&#x6be;" horiz-adv-x="1271" arabic-form="final" d="M573 10q-481 0 -481 482t481 481h482v-901h288v-62h-770zM993 72v839h-420q-419 1 -419 -419t419 -420h420z" />
<glyph unicode="&#x6be;" horiz-adv-x="1271" arabic-form="initial" d="M573 10q-481 0 -481 482t481 481h482v-901h288v-62h-770zM993 72v839h-420q-419 1 -419 -419t419 -420h420z" />
<glyph unicode="&#x6cc;" horiz-adv-x="1520" arabic-form="final" d="M1307 492q0 419 -184 419v-419q1 -482 -481 -482t-482 482v481h161l6 -62h-105v-419q0 -420 420 -420t419 420v409l1 72h71q236 0 236 -481v-420h211v-62h-273v482z" />
<glyph unicode="&#x6cc;" horiz-adv-x="572" arabic-form="initial" d="M42 -181q0 30 20.5 49.5t48 19.5t50 -19.5t22.5 -47.5t-20 -53q-25 -20 -52.5 -20t-48 20.5t-20.5 50.5zM323 -181q0 30 20.5 49.5t48 19.5t50 -19.5t22.5 -47.5t-20 -53q-25 -20 -52.5 -20t-48 20.5t-20.5 50.5zM330 912v62h141v-481q0 -469 -464 -482v-1h-79v62h72v1 q409 0 409 420v419h-79z" />
<glyph unicode="&#x6cc;" horiz-adv-x="906" arabic-form="medial" d="M242 -181q0 30 20.5 49.5t48 19.5t50 -19.5t22.5 -47.5t-20 -53q-25 -20 -52.5 -20t-48 20.5t-20.5 50.5zM523 -181q0 30 20.5 49.5t48 19.5t50 -19.5t22.5 -47.5t-20 -53q-25 -20 -52.5 -20t-48 20.5t-20.5 50.5zM421 912h-79v62h141v-902h483v-62h-1026v62h481v840z " />
<glyph unicode="&#xfc5e;" horiz-adv-x="500" arabic-form="isolated" d="M472 1414v-71q0 -136 -120 -136q-63 0 -108 53q-42 -83 -121 -83q-113 0 -113 136v40h58v-26q0 -49 16 -71t55 -22q76 0 76 79v78h51v-48q0 -79 68 -79q45 0 62 23t17 71v56h59zM431 1635q0 53 -65 53t-65 -59q0 -46 54 -83q76 23 76 89zM244 1519q30 0 58 12 q-58 56 -58 105q0 102 123 102t123 -95q0 -77 -68 -128t-162 -51t-151 50l-29 24l-65 -54v76l70 65q73 -106 159 -106z" />
<glyph unicode="&#xfc5f;" horiz-adv-x="482" arabic-form="isolated" d="M472 1858v-115q0 -136 -120 -136q-64 0 -108 53q-43 -83 -121 -83q-113 0 -113 136v85h58v-71q0 -50 16 -72t55 -22q76 0 76 80v123h51v-93q0 -79 68 -79q45 0 62 23t17 70v101h59zM73 1247l334 124v-60l-334 -126v62zM73 1418l334 124v-60l-334 -126v62z" />
<glyph unicode="&#xfc60;" horiz-adv-x="482" arabic-form="isolated" d="M472 1415v-71q0 -136 -120 -136q-63 0 -108 53q-42 -83 -121 -83q-113 0 -113 136v40h58v-26q0 -49 16 -71t55 -22q76 0 76 79v78h51v-48q0 -79 68 -79q45 0 62 23t17 71v56h59zM73 1538l334 49v-61l-334 -50v62z" />
<glyph unicode="&#xfc61;" horiz-adv-x="482" arabic-form="isolated" d="M472 1415v-71q0 -136 -120 -136q-63 0 -108 53q-42 -83 -121 -83q-113 0 -113 136v40h58v-26q0 -49 16 -71t55 -22q76 0 76 79v78h51v-48q0 -79 68 -79q45 0 62 23t17 71v56h59zM394 1639q0 50 -65.5 50t-65.5 -55q0 -42 47 -88q84 33 84 93zM170.5 1520q61.5 0 90.5 12 q-55 61 -55 109t34.5 73t90.5 25t88.5 -26.5t32.5 -65.5q0 -67 -76.5 -124.5t-178 -57.5t-151.5 34v66q63 -45 124.5 -45z" />
<glyph unicode="&#xfc62;" horiz-adv-x="482" arabic-form="isolated" d="M472 1682v-115q0 -136 -120 -136q-64 0 -108 53q-43 -83 -121 -83q-113 0 -113 136v85h58v-71q0 -50 16 -72t55 -22q76 0 76 80v123h51v-93q0 -79 68 -79q45 0 62 23t17 70v101h59zM73 1242l334 124v-60l-334 -126v62z" />
<glyph unicode="&#xfdf2;" horiz-adv-x="3060" arabic-form="isolated" d="M1445 72v1q410 0 410 420v675h-81v62h143v-737q0 -420 409 -420v-1h102v1q410 0 410 420v674h-81v62h143v-736q0 -469 -466 -482v-1h-115v1q-330 11 -433 267q-105 -256 -435 -267v-1h-810q-481 0 -481 482t481 481h482v-901h322zM1061 72v839h-420q-419 1 -419 -419 t419 -420h420z" />
<glyph unicode="&#x622;" horiz-adv-x="775" arabic-form="final" d="M421 1375q33 0 65.5 39.5t45.5 69.5q0 -68 -60 -126q-31 -21 -50.5 -21t-29.5 4q-38 16 -69 86q-35 41 -74.5 41t-74.5 -41l-14 -31q0 57 42 86q23 18 54 18l22 -2q40 -12 60 -45q39 -78 83 -78zM352 1167v-674q0 -420 410 -420v-1h73v-62h-79v1q-466 13 -466 482v736 h143v-62h-81z" />
<glyph unicode="&#x623;" horiz-adv-x="717" arabic-form="final" d="M160 1334v42h70q-39 48 -39 93q0 197 255 199v-32q-206 -3 -206 -167q0 -74 78 -93h128v-42h-286zM296 1167v-674q0 -420 410 -420v-1h71v-62h-78v1q-465 13 -465 482v736h141v-62h-79z" />
<glyph unicode="&#x624;" horiz-adv-x="1368" arabic-form="final" d="M353 1090v42h71q-40 47 -40 93q0 196 255 199v-33q-206 -2 -206 -166q0 -73 78 -93h128v-42h-286zM1123 10q0 -246 -482 -246h-153v62h153q420 0 420 184h-420q-481 0 -481 482t481 481h482v-901h305v-62h-305zM1061 72v839h-420q-419 1 -419 -419t419 -420h420z" />
<glyph unicode="&#x625;" horiz-adv-x="643" arabic-form="final" d="M200 -412v41h70q-40 47 -40 95q0 194 256 197v-33q-207 -2 -207 -164q0 -75 79 -95h128v-41h-286zM222 1167v-674q0 -420 409 -420v-1h72v-62h-77v1q-466 13 -466 482v736h142v-62h-80z" />
<glyph unicode="&#x626;" horiz-adv-x="1520" arabic-form="final" d="M183 1090v42h71q-40 47 -40 93q0 196 255 199v-33q-206 -2 -206 -166q0 -73 78 -93h128v-42h-286zM1307 492q0 419 -184 419v-419q1 -482 -481 -482t-482 482v481h161l6 -62h-105v-419q0 -420 420 -420t419 420v409l1 72h71q236 0 236 -481v-420h211v-62h-273v482z" />
<glyph unicode="&#x626;" horiz-adv-x="643" arabic-form="initial" d="M182 1090v42h72q-40 47 -40 93q0 196 255 199v-33q-206 -2 -206 -166q0 -73 77 -93h129v-42h-287zM342 912v62h141v-481q0 -469 -464 -482v-1h-79v62h72v1q409 0 409 420v419h-79z" />
<glyph unicode="&#x626;" horiz-adv-x="846" arabic-form="medial" d="M391 912h-79v62h141v-902h483v-62h-1026v62h481v840zM234 1090v42h72q-40 47 -40 93q0 196 255 199v-33q-206 -2 -206 -166q0 -73 77 -93h129v-42h-287z" />
<glyph unicode="&#x627;" horiz-adv-x="643" arabic-form="final" d="M222 1167v-674q0 -420 409 -420v-1h72v-62h-77v1q-466 13 -466 482v736h142v-62h-80z" />
<glyph unicode="&#x628;" horiz-adv-x="1688" arabic-form="final" d="M794 72v1q409 0 409 420v419h-79v62h141v-481q0 -420 410 -420v-1h73v-62h-79v1q-332 11 -435 267q-103 -256 -434 -267v-1h-174v1q-466 13 -466 482v481h142v-62h-80v-419q0 -420 409 -420v-1h163zM712 -260q-27 0 -47.5 19.5t-20.5 49.5t20.5 50.5t47.5 20.5t52 -20 q20 -25 20 -52.5t-20 -47.5q-25 -20 -52 -20z" />
<glyph unicode="&#x628;" horiz-adv-x="643" arabic-form="initial" d="M164 -190.5q0 29.5 20.5 50t48 20.5t52.5 -20q20 -25 20 -52.5t-20 -47.5q-25 -20 -52.5 -20t-45.5 20q-23 20 -23 49.5zM342 912v62h141v-481q0 -469 -464 -482v-1h-79v62h72v1q409 0 409 420v419h-79z" />
<glyph unicode="&#x628;" horiz-adv-x="846" arabic-form="medial" d="M391 912h-79v62h141v-902h483v-62h-1026v62h481v840zM416 -260q-27 0 -47.5 19.5t-20.5 49.5t20.5 50.5t47.5 20.5t52 -20q20 -25 20 -52.5t-20 -47.5q-25 -20 -52 -20z" />
<glyph unicode="&#x629;" horiz-adv-x="1351" arabic-form="final" d="M683 1164q0 -28 -22.5 -47.5t-50 -19.5t-48 19.5t-20.5 49t20.5 50.5t48 21t52.5 -20q20 -25 20 -53zM964 1164q0 -28 -22.5 -47.5t-50 -19.5t-48 19.5t-20.5 49t20.5 50.5t48 21t52.5 -20q20 -25 20 -53zM641 10q-481 0 -481 481.5t481 481.5h482v-901h288v-62h-770z M1061 72v839h-420q-419 0 -419 -419.5t419 -419.5h420z" />
<glyph unicode="&#x62a;" horiz-adv-x="1688" arabic-form="final" d="M633 1164q0 -28 -22.5 -47.5t-50 -19.5t-48 19.5t-20.5 49t20.5 50.5t48 21t52.5 -20q20 -25 20 -53zM914 1164q0 -28 -22.5 -47.5t-50 -19.5t-48 19.5t-20.5 49t20.5 50.5t48 21t52.5 -20q20 -25 20 -53zM794 72v1q409 0 409 420v419h-79v62h141v-481q0 -420 410 -420 v-1h73v-62h-79v1q-332 11 -435 267q-103 -256 -434 -267v-1h-174v1q-466 13 -466 482v481h142v-62h-80v-419q0 -420 409 -420v-1h163z" />
<glyph unicode="&#x62a;" horiz-adv-x="643" arabic-form="initial" d="M213 1164q0 -28 -22.5 -47.5t-50 -19.5t-48 19.5t-20.5 49t20.5 50.5t48 21t52.5 -20q20 -25 20 -53zM494 1164q0 -28 -22.5 -47.5t-50 -19.5t-48 19.5t-20.5 49t20.5 50.5t48 21t52.5 -20q20 -25 20 -53zM342 912v62h141v-481q0 -469 -464 -482v-1h-79v62h72v1 q409 0 409 420v419h-79z" />
<glyph unicode="&#x62a;" horiz-adv-x="846" arabic-form="medial" d="M313 1164q0 -28 -22.5 -47.5t-50 -19.5t-48 19.5t-20.5 49t20.5 50.5t48 21t52.5 -20q20 -25 20 -53zM594 1164q0 -28 -22.5 -47.5t-50 -19.5t-48 19.5t-20.5 49t20.5 50.5t48 21t52.5 -20q20 -25 20 -53zM391 912h-79v62h141v-902h483v-62h-1026v62h481v840z" />
<glyph unicode="&#x62b;" horiz-adv-x="1688" arabic-form="final" d="M633 1164q0 -28 -22.5 -47.5t-50 -19.5t-48 19.5t-20.5 49t20.5 50.5t48 21t52.5 -20q20 -25 20 -53zM914 1164q0 -28 -22.5 -47.5t-50 -19.5t-48 19.5t-20.5 49t20.5 50.5t48 21t52.5 -20q20 -25 20 -53zM766 1383q0 -27 -21.5 -47.5t-50 -20.5t-49 20t-20.5 49.5 t20.5 50t48 20.5t52.5 -20q20 -25 20 -52zM794 72v1q409 0 409 420v419h-79v62h141v-481q0 -420 410 -420v-1h73v-62h-79v1q-332 11 -435 267q-103 -256 -434 -267v-1h-174v1q-466 13 -466 482v481h142v-62h-80v-419q0 -420 409 -420v-1h163z" />
<glyph unicode="&#x62b;" horiz-adv-x="643" arabic-form="initial" d="M213 1164q0 -28 -22.5 -47.5t-50 -19.5t-48 19.5t-20.5 49t20.5 50.5t48 21t52.5 -20q20 -25 20 -53zM494 1164q0 -28 -22.5 -47.5t-50 -19.5t-48 19.5t-20.5 49t20.5 50.5t48 21t52.5 -20q20 -25 20 -53zM346 1383q0 -27 -21.5 -47.5t-50 -20.5t-49 20t-20.5 49.5 t20.5 50t48 20.5t52.5 -20q20 -25 20 -52zM342 912v62h141v-481q0 -469 -464 -482v-1h-79v62h72v1q409 0 409 420v419h-79z" />
<glyph unicode="&#x62b;" horiz-adv-x="846" arabic-form="medial" d="M313 1164q0 -28 -22.5 -47.5t-50 -19.5t-48 19.5t-20.5 49t20.5 50.5t48 21t52.5 -20q20 -25 20 -53zM594 1164q0 -28 -22.5 -47.5t-50 -19.5t-48 19.5t-20.5 49t20.5 50.5t48 21t52.5 -20q20 -25 20 -53zM446 1383q0 -27 -21.5 -47.5t-50 -20.5t-49 20t-20.5 49.5 t20.5 50t48 20.5t52.5 -20q20 -25 20 -52zM391 912h-79v62h141v-902h483v-62h-1026v62h481v840z" />
<glyph unicode="&#x62c;" horiz-adv-x="1232" arabic-form="final" d="M160 10v62h737v420q0 419 -419 419h-154v62h154q481 0 481 -481v-420h333v-62h-1069q0 -184 420 -184h88v-62h-88q-482 0 -482 246h-1zM908.5 -272q-27.5 0 -48 19.5t-20.5 49.5t20.5 50.5t48 20.5t52.5 -20q20 -25 20 -52.5t-20 -47.5q-25 -20 -52.5 -20z" />
<glyph unicode="&#x62c;" horiz-adv-x="1145" arabic-form="initial" d="M411.5 -259q-26.5 0 -47.5 20t-21 49.5t21 50.5t47.5 21t51.5 -20q20 -25 20 -53t-20 -48q-25 -20 -51.5 -20zM841 72v420q0 419 -419 419h-154v62h154q481 0 481 -481v-420h82v-62h-1045v62h901z" />
<glyph unicode="&#x62c;" horiz-adv-x="1116" arabic-form="medial" d="M-90 10v62h901v420q0 419 -419 419h-154v62h154q481 0 481 -481v-420h333v-62h-1296zM381.5 -259q-26.5 0 -47.5 20t-21 49.5t21 50.5t47.5 21t51.5 -20q20 -25 20 -53t-20 -48q-25 -20 -51.5 -20z" />
<glyph unicode="&#x62d;" horiz-adv-x="1232" arabic-form="final" d="M897 72v420q0 419 -419 419h-154v62h154q481 0 481 -481v-420h333v-62h-1069q0 -184 420 -184h88v-62h-88q-482 0 -482 246h-1v62h737z" />
<glyph unicode="&#x62d;" horiz-adv-x="1145" arabic-form="initial" d="M841 72v420q0 419 -419 419h-154v62h154q481 0 481 -481v-420h82v-62h-1045v62h901z" />
<glyph unicode="&#x62d;" horiz-adv-x="1116" arabic-form="medial" d="M-90 10v62h901v420q0 419 -419 419h-154v62h154q481 0 481 -481v-420h333v-62h-1296z" />
<glyph unicode="&#x62e;" horiz-adv-x="1232" arabic-form="final" d="M504 1166q0 29 21 50t47.5 21t51.5 -20q20 -25 20 -53t-22.5 -47.5t-49 -19.5t-47.5 20t-21 49zM160 10v62h737v420q0 419 -419 419h-154v62h154q481 0 481 -481v-420h333v-62h-1069q0 -184 420 -184h88v-62h-88q-482 0 -482 246h-1z" />
<glyph unicode="&#x62e;" horiz-adv-x="1145" arabic-form="initial" d="M523 1164q0 -28 -22.5 -47.5t-49.5 -19.5t-47.5 19.5t-20.5 49t20.5 50.5t47.5 21t52 -20q20 -25 20 -53zM-60 10v62h901v420q0 419 -419 419h-154v62h154q481 0 481 -481v-420h82v-62h-1045z" />
<glyph unicode="&#x62e;" horiz-adv-x="1116" arabic-form="medial" d="M-90 10v62h901v420q0 419 -419 419h-154v62h154q481 0 481 -481v-420h333v-62h-1296zM493 1164q0 -28 -22.5 -47.5t-49.5 -19.5t-47.5 19.5t-20.5 49t20.5 50.5t47.5 21t52 -20q20 -25 20 -53z" />
<glyph unicode="&#x62f;" horiz-adv-x="1232" arabic-form="final" d="M160 10v62h737v420q0 419 -419 419h-154v62h154q481 0 481 -481v-420h333v-62h-1132z" />
<glyph unicode="&#x630;" horiz-adv-x="1232" arabic-form="final" d="M160 10v62h737v420q0 419 -419 419h-154v62h154q481 0 481 -481v-420h333v-62h-1132zM579 1164q0 -28 -22.5 -47.5t-49.5 -19.5t-47.5 19.5t-20.5 49t20.5 50.5t47.5 21t52 -20q20 -25 20 -53z" />
<glyph unicode="&#x631;" horiz-adv-x="890" arabic-form="final" d="M583 973h62v-901h305v-62h-305q0 -246 -481 -246h-154v62h154q419 0 419 174v973z" />
<glyph unicode="&#x632;" horiz-adv-x="890" arabic-form="final" d="M688 1164q0 -28 -22.5 -47.5t-49.5 -19.5t-47.5 19.5t-20.5 49t20.5 50.5t47.5 21t52 -20q20 -25 20 -53zM583 973h62v-901h305v-62h-305q0 -246 -481 -246h-154v62h154q419 0 419 174v973z" />
<glyph unicode="&#x633;" horiz-adv-x="2445" arabic-form="final" d="M1123 72h364v840h-80v62h142v-901l413 -1v840h-80v62h142v-897l481 -5v-62h-77v1l-1347 -1q-105 -239 -440 -239q-481 0 -481 481v218h62v-218q0 -419 420 -419t419 419v660h-81v62h143v-902z" />
<glyph unicode="&#x633;" horiz-adv-x="1395" arabic-form="initial" d="M697 72v840h-80v62h141v-901q412 8 415 415v424h-81v62h143v-486q-3 -464 -466 -477v-1h-829v62h332v840h-81v62h143v-902h363z" />
<glyph unicode="&#x633;" horiz-adv-x="1596" arabic-form="medial" d="M-90 10v62h332v840h-81v62h143v-902h363v840h-80v62h141v-901h415v839h-81v62h143v-902h481v-62h-1776z" />
<glyph unicode="&#x634;" horiz-adv-x="2445" arabic-form="final" d="M1413 1164q0 -28 -22.5 -47.5t-50 -19.5t-48 19.5t-20.5 49t20.5 50.5t48 21t52.5 -20q20 -25 20 -53zM1694 1164q0 -28 -22.5 -47.5t-50 -19.5t-48 19.5t-20.5 49t20.5 50.5t48 21t52.5 -20q20 -25 20 -53zM1546 1383q0 -27 -21.5 -47.5t-50 -20.5t-49 20t-20.5 49.5 t20.5 50t48 20.5t52.5 -20q20 -25 20 -52zM1123 72h364v840h-80v62h142v-901l413 -1v840h-80v62h142v-897l481 -5v-62h-77v1l-1347 -1q-105 -239 -440 -239q-481 0 -481 481v218h62v-218q0 -419 419.5 -419t419.5 419v660h-81v62h143v-902z" />
<glyph unicode="&#x634;" horiz-adv-x="1395" arabic-form="initial" d="M613 1164q0 -28 -22.5 -47.5t-50 -19.5t-48 19.5t-20.5 49t20.5 50.5t48 21t52.5 -20q20 -25 20 -53zM894 1164q0 -28 -22.5 -47.5t-50 -19.5t-48 19.5t-20.5 49t20.5 50.5t48 21t52.5 -20q20 -25 20 -53zM746 1383q0 -27 -21.5 -47.5t-50 -20.5t-49 20t-20.5 49.5 t20.5 50t48 20.5t52.5 -20q20 -25 20 -52zM697 72v840h-80v62h141v-901q412 8 415 415v424h-81v62h143v-486q-3 -464 -466 -477v-1h-829v62h332v840h-81v62h143v-902h363z" />
<glyph unicode="&#x634;" horiz-adv-x="1596" arabic-form="medial" d="M593 1164q0 -28 -22.5 -47.5t-50 -19.5t-48 19.5t-20.5 49t20.5 50.5t48 21t52.5 -20q20 -25 20 -53zM874 1164q0 -28 -22.5 -47.5t-50 -19.5t-48 19.5t-20.5 49t20.5 50.5t48 21t52.5 -20q20 -25 20 -53zM726 1383q0 -27 -21.5 -47.5t-50 -20.5t-49 20t-20.5 49.5 t20.5 50t48 20.5t52.5 -20q20 -25 20 -52zM-90 10v62h332v840h-81v62h143v-902h363v840h-80v62h141v-901h415v839h-81v62h143v-902h481v-62h-1776z" />
<glyph unicode="&#x635;" horiz-adv-x="2290" arabic-form="final" d="M1061 972h62v-192q133 193 420 193q481 0 481 -481v-420h326v-62h-1269q-105 -239 -440 -239q-481 0 -481 481v218h62v-218q0 -419 420 -419t419 419v720zM1123 72h839v420q0 419 -420 419t-419 -419v-420z" />
<glyph unicode="&#x635;" horiz-adv-x="1395" arabic-form="initial" d="M-60 10v62h332v897h62v-189q132 193 419 193q482 0 482 -481v-482h-1295zM334 72h839v420q1 419 -419 419t-420 -419v-420z" />
<glyph unicode="&#x635;" horiz-adv-x="1440" arabic-form="medial" d="M-90 10v62h332v900h62v-192q132 193 419 193q482 0 482 -481v-420h325v-62h-1620zM304 72h839v420q1 419 -419 419t-420 -419v-420z" />
<glyph unicode="&#x636;" horiz-adv-x="2290" arabic-form="final" d="M1061 972h62v-192q133 193 420 193q481 0 481 -481v-420h326v-62h-1269q-105 -239 -440 -239q-481 0 -481 481v218h62v-218q0 -419 419.5 -419t419.5 419v720zM1123 72h839v420q0 419 -419.5 419t-419.5 -419v-420zM1254 1166q0 29 21 50t48.5 21t52.5 -20 q18 -24 18 -52.5t-18 -47.5q-25 -20 -52.5 -20t-48.5 20t-21 49z" />
<glyph unicode="&#x636;" horiz-adv-x="1395" arabic-form="initial" d="M605 1164q0 -28 -22.5 -47.5t-49.5 -19.5t-47.5 19.5t-20.5 49t20.5 50.5t47.5 21t52 -20q20 -25 20 -53zM753 973q482 0 482 -481v-482h-1295v62h332v897h62v-189q132 193 419 193zM334 72h839v420q0 419 -419.5 419t-419.5 -419v-420z" />
<glyph unicode="&#x636;" horiz-adv-x="1440" arabic-form="medial" d="M-90 10v62h332v900h62v-192q132 193 419 193q482 0 482 -481v-420h325v-62h-1620zM575 1164q0 -28 -22.5 -47.5t-49.5 -19.5t-47.5 19.5t-20.5 49t20.5 50.5t47.5 21t52 -20q20 -25 20 -53zM304 72h839v420q0 419 -419.5 419t-419.5 -419v-420z" />
<glyph unicode="&#x637;" horiz-adv-x="1524" arabic-form="final" d="M160 10v62h134v1157h62v-449q133 193 420 193q481 0 481 -481v-420h327v-62h-1424zM356 72h839v420q1 419 -419 419t-420 -419v-420z" />
<glyph unicode="&#x637;" horiz-adv-x="1395" arabic-form="initial" d="M-60 10v62h332v1157h62v-449q132 193 419 193q482 0 482 -481v-482h-1295zM334 72h839v420q1 419 -419 419t-420 -419v-420z" />
<glyph unicode="&#x637;" horiz-adv-x="1440" arabic-form="medial" d="M-90 10v62h332v1157h62v-449q132 193 419 193q482 0 482 -481v-420h325v-62h-1620zM304 72h839v420q1 419 -419 419t-420 -419v-420z" />
<glyph unicode="&#x638;" horiz-adv-x="1524" arabic-form="final" d="M160 10v62h134v1157h62v-449q133 193 420 193q481 0 481 -481v-420h327v-62h-1424zM556.5 1097q-27.5 0 -48 19.5t-20.5 49t20.5 50.5t48 21t52.5 -20q19 -24 19 -52.5t-19 -47.5q-25 -20 -52.5 -20zM356 72h839v420q0 419 -419.5 419t-419.5 -419v-420z" />
<glyph unicode="&#x638;" horiz-adv-x="1395" arabic-form="initial" d="M605 1164q0 -28 -22.5 -47.5t-49.5 -19.5t-47.5 19.5t-20.5 49t20.5 50.5t47.5 21t52 -20q20 -25 20 -53zM753 973q482 0 482 -481v-482h-1295v62h332v1157h62v-449q132 193 419 193zM334 72h839v420q0 419 -419.5 419t-419.5 -419v-420z" />
<glyph unicode="&#x638;" horiz-adv-x="1440" arabic-form="medial" d="M-90 10v62h332v1157h62v-449q132 193 419 193q482 0 482 -481v-420h325v-62h-1620zM575 1164q0 -28 -22.5 -47.5t-49.5 -19.5t-47.5 19.5t-20.5 49t20.5 50.5t47.5 21t52 -20q20 -25 20 -53zM304 72h839v420q0 419 -419.5 419t-419.5 -419v-420z" />
<glyph unicode="&#x639;" horiz-adv-x="1556" arabic-form="final" d="M1616 72v-62h-1393q0 -184 420 -184h88v-62h-88q-482 0 -482 246h-1v62h233v420q0 481 481 481q267 0 379 -137l-49 -48q-97 123 -330 123q-419 0 -419 -419v-420h1161z" />
<glyph unicode="&#x639;" horiz-adv-x="1395" arabic-form="initial" d="M1235 10h-1295v62h332v420q0 481 481 481q266 0 378 -137l-48 -48q-97 123 -330 123q-419 0 -419 -419v-420h901v-62z" />
<glyph unicode="&#x639;" horiz-adv-x="1374" arabic-form="medial" d="M-90 10v62h332v420q0 481 481 481q266 0 378 -137l-48 -48q-97 123 -330 123q-419 0 -419 -419v-420h1160v-62h-1554z" />
<glyph unicode="&#x63a;" horiz-adv-x="1556" arabic-form="final" d="M1616 72v-62h-1393q0 -184 420 -184h88v-62h-88q-482 0 -482 246h-1v62h233v420q0 481 481 481q267 0 379 -137l-49 -48q-97 123 -330 123q-419 0 -419 -419v-420h1161zM940 1164q0 -28 -22.5 -47.5t-50 -19.5t-48 19.5t-20.5 49t20.5 50.5t48 21t52.5 -20q20 -25 20 -53 z" />
<glyph unicode="&#x63a;" horiz-adv-x="1395" arabic-form="initial" d="M677 1166q0 29 21 50t48.5 21t52.5 -20q18 -24 18 -52.5t-18 -47.5q-25 -20 -52.5 -20t-48.5 20t-21 49zM1235 10h-1295v62h332v420q0 481 481 481q266 0 378 -137l-48 -48q-97 123 -330 123q-419 0 -419 -419v-420h901v-62z" />
<glyph unicode="&#x63a;" horiz-adv-x="1374" arabic-form="medial" d="M-90 10v62h332v420q0 481 481 481q266 0 378 -137l-48 -48q-97 123 -330 123q-419 0 -419 -419v-420h1160v-62h-1554zM647 1166q0 29 21 50t48.5 21t52.5 -20q18 -24 18 -52.5t-18 -47.5q-25 -20 -52.5 -20t-48.5 20t-21 49z" />
<glyph unicode="&#x641;" horiz-adv-x="2276" arabic-form="final" d="M1048 72v420q0 481 481.5 481t481.5 -481v-420h325v-62h-1710v1q-466 13 -466 482v317h142v-61h-80v-256q0 -420 409 -420v-1h417zM1455 1166q0 29 21.5 50t48.5 21t52 -20q20 -25 20 -53t-22.5 -47.5t-49.5 -19.5t-48.5 20t-21.5 49zM1110 72h839v420q0 419 -419.5 419 t-419.5 -419v-420z" />
<glyph unicode="&#x641;" horiz-adv-x="1395" arabic-form="initial" d="M820 1164q0 -28 -22.5 -47.5t-50 -19.5t-48 19.5t-20.5 49t20.5 50.5t48 21t52.5 -20q20 -25 20 -53zM-60 72h332v420q0 481 481.5 481t481.5 -481v-482h-1295v62zM334 72h839v420q0 419 -419.5 419t-419.5 -419v-420z" />
<glyph unicode="&#x641;" horiz-adv-x="1440" arabic-form="medial" d="M-90 10v62h332v420q0 481 481.5 481t481.5 -481v-420h325v-62h-1620zM304 72h839v420q0 419 -419.5 419t-419.5 -419v-420zM790 1164q0 -28 -22.5 -47.5t-50 -19.5t-48 19.5t-20.5 49t20.5 50.5t48 21t52.5 -20q20 -25 20 -53z" />
<glyph unicode="&#x642;" horiz-adv-x="1949" arabic-form="final" d="M1136 1164q0 -28 -22.5 -47.5t-50 -19.5t-48 19.5t-20.5 49t20.5 50.5t48 21t52.5 -20q20 -25 20 -53zM1417 1164q0 -28 -22.5 -47.5t-50 -19.5t-48 19.5t-20.5 49t20.5 50.5t48 21t52.5 -20q20 -25 20 -53zM721 72v420q0 481 481.5 481t481.5 -481v-420h325v-62h-1383v1 q-466 13 -466 482v317h142v-61h-80v-256q0 -420 409 -420v-1h90zM1622 72v420q0 419 -420 419t-420 -419v-420h840z" />
<glyph unicode="&#x642;" horiz-adv-x="1395" arabic-form="initial" d="M693 1164q0 -28 -22.5 -47.5t-50 -19.5t-48 19.5t-20.5 49t20.5 50.5t48 21t52.5 -20q20 -25 20 -53zM974 1164q0 -28 -22.5 -47.5t-50 -19.5t-48 19.5t-20.5 49t20.5 50.5t48 21t52.5 -20q20 -25 20 -53zM-60 72h332v420q0 481 481.5 481t481.5 -481v-482h-1295v62z M334 72h839v420q0 419 -419.5 419t-419.5 -419v-420z" />
<glyph unicode="&#x642;" horiz-adv-x="1440" arabic-form="medial" d="M673 1164q0 -28 -22.5 -47.5t-50 -19.5t-48 19.5t-20.5 49t20.5 50.5t48 21t52.5 -20q20 -25 20 -53zM954 1164q0 -28 -22.5 -47.5t-50 -19.5t-48 19.5t-20.5 49t20.5 50.5t48 21t52.5 -20q20 -25 20 -53zM-90 10v62h332v420q0 481 481.5 481t481.5 -481v-420h325v-62 h-1620zM304 72h839v420q0 419 -419.5 419t-419.5 -419v-420z" />
<glyph unicode="&#x643;" horiz-adv-x="1682" arabic-form="final" d="M535 673v50h78q-43 46 -43 104q0 220 289 223v-39q-233 -3 -233 -184q0 -81 86 -104h147v-50h-324zM790 72v1q409 0 409 420v675h-80v62h142v-737q0 -420 410 -420v-1h71v-62h-78v1q-331 11 -434 267q-104 -256 -435 -267v-1h-169v1q-466 13 -466 482v317h142v-61h-80 v-256q0 -420 409 -420v-1h159z" />
<glyph unicode="&#x643;" horiz-adv-x="1063" arabic-form="initial" d="M422 842q481 0 481 -481v-351h-963v62h901v289q0 420 -419 420h-160l-56 49l415 416l44 -43l-361 -361h118z" />
<glyph unicode="&#x643;" horiz-adv-x="1101" arabic-form="medial" d="M-90 10v62h901v289q0 420 -419 420h-160l-56 49l415 416l44 -43l-361 -361h118q481 0 481 -481v-289h318v-62h-1281z" />
<glyph unicode="&#x644;" horiz-adv-x="1407" arabic-form="final" d="M1123 72h344l-1 -62h-385q-105 -239 -440 -239q-481 0 -481 481v218h62v-218q0 -419 420 -419t419 419v918h-81v62h143v-1160z" />
<glyph unicode="&#x644;" horiz-adv-x="643" arabic-form="initial" d="M342 1167v62h141v-736q0 -469 -464 -482v-1h-79v62h72v1q409 0 409 420v674h-79z" />
<glyph unicode="&#x644;" horiz-adv-x="846" arabic-form="medial" d="M391 1168h-79v62h141v-1158h483v-62h-1026v62h481v1096z" />
<glyph unicode="&#x645;" horiz-adv-x="1621" arabic-form="final" d="M1294 72v420q0 419 -420 419t-419 -419v-420h839zM393 72v420q-1 481 481 481t482 -481v-420h325v-62h-1458q0 -184 420 -184h88v-62h-88q-482 0 -482 246h-1v62h233z" />
<glyph unicode="&#x645;" horiz-adv-x="1395" arabic-form="initial" d="M-60 72h332v420q0 481 482 481t481 -481v-482h-1295v62zM334 72h839v420q1 419 -419 419t-420 -419v-420z" />
<glyph unicode="&#x645;" horiz-adv-x="1440" arabic-form="medial" d="M-90 10v62h332v420q0 481 482 481t481 -481v-420h325v-62h-1620zM304 72h839v420q1 419 -419 419t-420 -419v-420z" />
<glyph unicode="&#x646;" horiz-adv-x="1407" arabic-form="final" d="M606 763q-27 0 -48.5 19.5t-21.5 49t21.5 50.5t48 21t51.5 -20q21 -26 21 -54t-20 -47q-25 -19 -52 -19zM1123 72h344l-1 -62h-385q-105 -239 -440 -239q-481 0 -481 481v218h62v-218q0 -419 419.5 -419t419.5 419v495h-81v62h143v-737z" />
<glyph unicode="&#x646;" horiz-adv-x="643" arabic-form="initial" d="M474 1164q0 -28 -22.5 -47.5t-50 -19.5t-48 19.5t-20.5 49t20.5 50.5t48 21t52.5 -20q20 -25 20 -53zM342 912v62h141v-481q0 -469 -464 -482v-1h-79v62h72v1q409 0 409 420v419h-79z" />
<glyph unicode="&#x646;" horiz-adv-x="846" arabic-form="medial" d="M391 912h-79v62h141v-902h483v-62h-1026v62h481v840zM444 1164q0 -28 -22.5 -47.5t-50 -19.5t-48 19.5t-20.5 49t20.5 50.5t48 21t52.5 -20q20 -25 20 -53z" />
<glyph unicode="&#x647;" horiz-adv-x="1351" arabic-form="final" d="M641 10q-481 0 -481 482t481 481h482v-901h288v-62h-770zM1061 72v839h-420q-419 1 -419 -419t419 -420h420z" />
<glyph unicode="&#x647;" horiz-adv-x="1640" arabic-form="initial" d="M-60 72h1059q419 0 419 420q0 254 -253 337q-258 0 -258 -174v-481h-62v481q0 256 -258 256q-253 -84 -253 -419v-318h-62v318q0 401 318 481q236 0 283 -182q51 100 289 100q318 -80 318 -399q0 -482 -481 -482h-1059v62z" />
<glyph unicode="&#x647;" horiz-adv-x="1840" arabic-form="medial" d="M969 10h-1059v62h1059q400 0 417 384v27h2q0 263 -253 346q-258 0 -258 -174v-481h-62v481q0 256 -258 256q-253 -84 -253 -419v-318h-62v318q0 401 318 481q236 0 283 -182q51 100 289 100q318 -80 318 -399v-36q17 -383 407 -383v-1h73v-62h-78v1q-331 11 -433 263 q-108 -264 -450 -264z" />
<glyph unicode="&#x648;" horiz-adv-x="1368" arabic-form="final" d="M1123 10q0 -246 -482 -246h-153v62h153q420 0 420 184h-420q-481 0 -481 482t481 481h482v-901h305v-62h-305zM1061 72v839h-420q-419 1 -419 -419t419 -420h420z" />
<glyph unicode="&#x649;" horiz-adv-x="1520" arabic-form="final" d="M1307 492q0 419 -184 419v-419q1 -482 -481 -482t-482 482v481h161l6 -62h-105v-419q0 -420 420 -420t419 420v409l1 72h71q236 0 236 -481v-420h211v-62h-273v482z" />
<glyph unicode="&#x64a;" horiz-adv-x="1520" arabic-form="final" d="M573 -191q0 -28 -22.5 -47.5t-50 -19.5t-48 19.5t-20.5 49t20.5 50.5t48 21t52.5 -20q20 -25 20 -53zM854 -191q0 -28 -22.5 -47.5t-50 -19.5t-48 19.5t-20.5 49t20.5 50.5t48 21t52.5 -20q20 -25 20 -53zM1307 492q0 419 -184 419v-419q0 -482 -481.5 -482t-481.5 482 v481h161l6 -62h-105v-419q0 -420 419.5 -420t419.5 420v409l1 72h71q236 0 236 -481v-420h211v-62h-273v482z" />
<glyph unicode="&#x64a;" horiz-adv-x="643" arabic-form="initial" d="M193 -191q0 -28 -22.5 -47.5t-50 -19.5t-48 19.5t-20.5 49t20.5 50.5t48 21t52.5 -20q20 -25 20 -53zM474 -191q0 -28 -22.5 -47.5t-50 -19.5t-48 19.5t-20.5 49t20.5 50.5t48 21t52.5 -20q20 -25 20 -53zM342 912v62h141v-481q0 -469 -464 -482v-1h-79v62h72v1 q409 0 409 420v419h-79z" />
<glyph unicode="&#x64a;" horiz-adv-x="846" arabic-form="medial" d="M343 -191q0 -28 -22.5 -47.5t-50 -19.5t-48 19.5t-20.5 49t20.5 50.5t48 21t52.5 -20q20 -25 20 -53zM624 -191q0 -28 -22.5 -47.5t-50 -19.5t-48 19.5t-20.5 49t20.5 50.5t48 21t52.5 -20q20 -25 20 -53zM391 912h-79v62h141v-902h483v-62h-1026v62h481v840z" />
<glyph unicode="&#xd;" horiz-adv-x="4097" />
<glyph unicode=" "  horiz-adv-x="501" />
<glyph unicode="&#x09;" horiz-adv-x="501" />
<glyph unicode="&#xa0;" horiz-adv-x="501" />
<glyph unicode="!" horiz-adv-x="382" d="M222 72v-62h-62v62h62zM222 1219v-963h-62v963h62z" />
<glyph unicode="&#x22;" horiz-adv-x="734" d="M406 1147q0 72 74 72t94 -73q-3 -176 -141 -222q55 55 55 151q-82 0 -82 72zM160 1147q0 72 74 72t94 -73q-2 -176 -141 -222q55 55 55 151q-82 0 -82 72z" />
<glyph unicode="#" horiz-adv-x="1201" d="M386 911v-593h429v593h-429zM324 1219h62v-246h429v246h62v-246h164v-62h-164v-593h164v-62h-164v-246h-62v246h-429v-246h-62v246h-164v62h164v593h-164v62h164v246z" />
<glyph unicode="$" d="M667 583v-511q314 13 394 254q0 257 -256 257h-138zM456 645h149v512q-303 -19 -383 -254q0 -258 234 -258zM667 645h138q318 0 318 -316q-77 -304 -456 -319v-164h-62v165q-370 18 -442 307h62q77 -227 380 -246v511h-149q-296 0 -296 317q75 300 445 318v165h62v-164 q379 -16 453 -308h-62q-77 233 -391 246v-512z" />
<glyph unicode="%" d="M713 246q0 -174 174 -174t174 174t-174 174t-174 -174zM652 246q0 236 236 236t235 -236q1 -236 -235 -236t-236 236zM222 983q0 -174 174 -174t174 174t-174 174t-174 -174zM396 1219q236 0 236 -236t-236 -236t-236 236t236 236zM1113 1219l-886 -1209h-57l886 1209h57 z" />
<glyph unicode="&#x26;" d="M222 328q0 -256 338 -256t337 256q0 298 -173 337h-329q-173 -29 -173 -337zM815 901q1 256 -255 256t-256 -256q0 -144 90 -174h331q90 41 90 174zM560 10q-400 0 -400 320t182 358q-100 55 -100 213q0 318 318 318t317 -318q0 -103 -45 -174h209v-62h-185 q103 -99 103 -337q0 -159 -119 -256h283v-62h-563z" />
<glyph unicode="'" horiz-adv-x="488" d="M160 1147q0 72 74 72t94 -73q-2 -176 -141 -222q55 55 55 151q-82 0 -82 72z" />
<glyph unicode="(" horiz-adv-x="873" d="M642 10q-482 0 -482 482v245q0 482 482 482h71v-62h-71q-420 0 -420 -420v-245q0 -420 420 -420h71v-62h-71z" />
<glyph unicode=")" horiz-adv-x="873" d="M160 10v62h72q420 0 420 420v245q0 420 -420 420h-72v62h72q481 0 481 -482v-245q0 -482 -481 -482h-72z" />
<glyph unicode="*" horiz-adv-x="1077" d="M160 948v46h278l-219 108l30 47l218 -109l-109 218l47 31l108 -216v274h46v-286l114 227l47 -30l-108 -214l212 105l34 -47l-218 -108h277v-46h-284l224 -114l-33 -47l-209 105l105 -209l-47 -34l-114 226v-285h-46v275l-108 -215l-47 33l105 212l-214 -108l-31 47 l225 114h-283z" />
<glyph unicode="+" horiz-adv-x="1201" d="M160 645h410v410h62v-410h409v-62h-409v-409h-62v409h-410v62z" />
<glyph unicode="," horiz-adv-x="488" d="M160 246q0 72 74 72t94 -73q-2 -177 -141 -222q55 55 55 151q-82 0 -82 72z" />
<glyph unicode="-" horiz-adv-x="464" d="M304 82q0 -26 -20 -51q-22 -21 -52 -21t-51 21t-21 51t21 52q25 20 51 20t52 -20q20 -26 20 -52z" />
<glyph unicode="." horiz-adv-x="464" d="M304 82q0 -26 -20 -51q-22 -21 -52 -21t-51 21t-21 51t21 52q25 20 51 20t52 -20q20 -26 20 -52z" />
<glyph unicode="/" d="M1113 1219l-886 -1209h-57l886 1209h57z" />
<glyph unicode="0" d="M1123 492q1 -482 -481 -482t-482 482v245q0 482 482 482t481 -482v-245zM642 1157q-420 0 -420 -420v-245q0 -203 109 -316l587 910q-110 71 -276 71zM642 72q419 0 419 420v245q0 204 -106 316l-589 -909q106 -72 276 -72z" />
<glyph unicode="1" d="M1123 10h-963v62h451v1089l-451 -164v61l443 161h69v-1147h451v-62z" />
<glyph unicode="2" d="M160 747q0 472 482 472t481 -482q0 -322 -906 -665h906v-62h-963v105q901 370 901 622q1 420 -419 420t-420 -410h-62z" />
<glyph unicode="3" d="M642 1219q402 0 481 -319q0 -237 -195 -286q195 -49 195 -285q-79 -319 -481 -319t-479 308h62q81 -246 417 -246t419 254q0 198 -172 257h-401v62h401q172 55 172 258q-83 254 -419 254t-417 -246h-62q77 308 479 308z" />
<glyph unicode="4" d="M979 318v839h-144l-613 -609v-230h757zM1041 1219v-901h82v-62h-82v-246h-62v246h-819v313l649 650h232z" />
<glyph unicode="5" d="M222 482q0 -410 420 -410t419 420q0 420 -419 419h-482v308h963v-62h-901v-184h420q481 1 481 -481q1 -482 -481 -482t-482 472h62z" />
<glyph unicode="6" d="M642 72q420 0 419 420q1 420 -419 419q-420 1 -420 -419t420 -420zM642 973q481 1 481 -481q1 -482 -481 -482t-482 482v245q0 482 482 482h317v-62h-317q-390 0 -422 -365q180 181 422 181z" />
<glyph unicode="7" d="M160 1157v62h963v-111q-470 -199 -491 -1098h-62q0 885 523 1147h-933z" />
<glyph unicode="8" d="M642 1157q-334 0 -379 -254q-9 -46 -9 -84q0 -151 141 -174h493q141 31 141 178q0 36 -9 80q-44 254 -378 254zM642 72q336 0 419 254q0 218 -173 257h-493q-173 -27 -173 -257q84 -254 420 -254zM642 10q-402 0 -482 319q0 238 196 281q-162 43 -162 213q0 36 7 77 q41 319 441 319t440 -319q7 -41 7 -76q0 -169 -162 -208q196 -49 196 -287q-79 -319 -481 -319z" />
<glyph unicode="9" d="M642 1157q-420 1 -420 -419t420 -420t419 420q1 420 -419 419zM642 256q-482 0 -482 482t482 481q482 0 481 -482v-245q0 -482 -481 -482h-236v62h236q389 0 421 365q-180 -181 -421 -181z" />
<glyph unicode=":" horiz-adv-x="464" d="M304 820q0 -26 -20 -51q-22 -22 -52 -22q-30 -1 -50 21q-22 22 -22 52t21 51q25 20 51 20t52 -20q20 -25 20 -51zM304 410q0 -26 -20 -51q-22 -21 -52 -21t-51 21t-21 51t21 51q25 21 51 21t52 -21q20 -25 20 -51z" />
<glyph unicode=";" horiz-adv-x="488" d="M160 246q0 72 74 72t94 -73q-2 -177 -141 -222q55 55 55 151q-82 0 -82 72zM304 820q0 -26 -20 -51q-22 -22 -52 -22q-30 -1 -50 21q-22 22 -22 52t21 51q25 20 51 20t52 -20q20 -25 20 -51z" />
<glyph unicode="&#x3c;" horiz-adv-x="1201" d="M160 579v70l881 400v-60l-833 -375l833 -374v-60z" />
<glyph unicode="=" horiz-adv-x="1201" d="M160 809h881v-62h-881v62zM160 482h881v-62h-881v62z" />
<glyph unicode="&#x3e;" horiz-adv-x="1201" d="M160 180v60l833 374l-833 375v60l881 -400v-70z" />
<glyph unicode="?" d="M632 72v-62h-62v62h62zM642 1219q402 0 481 -401q0 -316 -491 -378v-184h-62v227q491 58 491 337q-83 337 -419 337t-418 -328h-62q78 390 480 390z" />
<glyph unicode="@" d="M1123 72v-62h-481q-482 0 -482 482v245q0 482 482 482t481 -482v-399h-481q-236 0 -236 235v82q0 236 236 236h236v-491h183v337q1 420 -419 420t-420 -420v-245q0 -420 420 -420h481zM816 829h-174q-174 0 -174 -174v-82q0 -173 174 -173h174v429z" />
<glyph unicode="A" d="M1061 563v174q1 420 -419 420t-420 -420v-174h839zM222 10h-62v727q0 482 482 482t481 -482v-727h-62v492h-839v-492z" />
<glyph unicode="B" d="M222 72h420q356 0 419 284q0 227 -338 227h-501v-511zM222 645h501q254 0 286 174q-31 338 -367 338h-420v-512zM160 10v1209h482q400 0 429 -399q-29 -155 -231 -208q283 -48 283 -255q-79 -347 -481 -347h-482z" />
<glyph unicode="C" horiz-adv-x="1257" d="M642 10q-482 0 -482 482v245q0 482 482 482q402 0 455 -308h-62q-57 246 -393 246q-420 0 -420 -420v-245q0 -420 420 -420q336 0 393 246h62q-53 -308 -455 -308z" />
<glyph unicode="D" d="M642 72q419 0 419 420v245q0 420 -419 420h-420v-1085h420zM160 10v1209h482q481 0 481 -482v-245q0 -482 -481 -482h-482z" />
<glyph unicode="E" d="M1123 10h-963v1209h963v-62h-901v-512h737v-62h-737v-511h901v-62z" />
<glyph unicode="F" d="M160 10v1209h963v-62h-901v-512h737v-62h-737v-573h-62z" />
<glyph unicode="G" d="M1123 410q1 -400 -481 -400t-482 482v245q0 482 482 482q402 0 455 -308h-62q-57 246 -393 246q-420 0 -420 -420v-245q0 -420 420 -420t419 338v92h-328v61h390v-153z" />
<glyph unicode="H" d="M222 10h-62v1209h62v-574h839v574h62v-1209h-62v573h-839v-573z" />
<glyph unicode="I" horiz-adv-x="382" d="M222 1219v-1209h-62v1209h62z" />
<glyph unicode="J" d="M1061 1219h62v-727q1 -482 -481 -482t-482 472h62q0 -410 420 -410t419 420v727z" />
<glyph unicode="K" horiz-adv-x="1268" d="M222 10h-62v1209h62v-574h178l627 574h81l-645 -608l645 -601h-86l-622 573h-178v-573z" />
<glyph unicode="L" d="M222 72h901v-62h-963v1209h62v-1147z" />
<glyph unicode="M" d="M222 10h-62v1209h67l415 -558l414 558h67v-1209h-62v1113l-419 -558l-420 559v-1114z" />
<glyph unicode="N" d="M222 10h-62v1209h67l834 -1126v1126h62v-1209h-67l-834 1127v-1127z" />
<glyph unicode="O" d="M1061 737q1 420 -419 420t-420 -420v-245q0 -420 420 -420t419 420v245zM1123 492q1 -482 -481 -482t-482 482v245q0 482 482 482t481 -482v-245z" />
<glyph unicode="P" d="M642 318q419 0 419 420t-419 419h-420v-839h420zM160 10v1209h482q481 1 481 -481t-481 -482h-420v-246h-62z" />
<glyph unicode="Q" d="M642 10q-482 0 -482 482v245q0 482 482 482t481 -482v-245q0 -267 -151 -389l87 -175h-84l-66 134q-113 -52 -267 -52zM1061 492v245q1 420 -419 420t-420 -420v-245q0 -420 420 -420q135 0 238 51l-59 113h83l37 -72q120 114 120 328z" />
<glyph unicode="R" d="M642 318q419 0 419 420t-419 419h-420v-839h420zM160 10v1209h482q481 1 481 -481t-517 -482l409 -246h-102l-408 246h-283v-246h-62z" />
<glyph unicode="S" d="M642 1157q-336 0 -420 -254q0 -258 234 -258h349q318 0 318 -316q-79 -319 -481 -319t-479 308h62q81 -246 417 -246t419 254q0 257 -256 257h-349q-296 0 -296 317q80 319 482 319t478 -308h-62q-80 246 -416 246z" />
<glyph unicode="T" d="M160 1157v62h963v-62h-451v-1147h-61v1147h-451z" />
<glyph unicode="U" d="M1123 492q1 -482 -481 -482t-482 482v727h62v-727q0 -420 420 -420t419 420v727h62v-727z" />
<glyph unicode="V" d="M160 1219h62v-692l420 -426l419 412v706h62v-723l-481 -482l-482 482v723z" />
<glyph unicode="W" horiz-adv-x="2184" d="M642 10q-482 0 -482 482v727h62v-727q0 -420 420 -420t419 420v481h62v-481q-1 -420 419 -420t420 420v727h62v-727q0 -482 -481 -482q-343 0 -451 267q-108 -267 -450 -267z" />
<glyph unicode="X" d="M222 1065q0 -420 420 -420t419 420v154h62v-154q0 -342 -267 -451q267 -108 267 -450v-154h-62v154q1 419 -419 419t-420 -419v-154h-62v154q0 342 267 450q-267 109 -267 451v154h62v-154z" />
<glyph unicode="Y" d="M160 1219h62v-482q0 -419 420 -419t419 419v482h62v-482q0 -459 -451 -480v-247h-61v247q-451 21 -451 480v482z" />
<glyph unicode="Z" d="M160 1157v62h963v-105l-913 -1042h913v-62h-963v110l913 1037h-913z" />
<glyph unicode="[" horiz-adv-x="873" d="M160 10v1209h553v-62h-491v-1085h491v-62h-553z" />
<glyph unicode="\" d="M227 1219l886 -1209h-57l-886 1209h57z" />
<glyph unicode="]" horiz-adv-x="873" d="M160 10v62h492v1085h-492v62h553v-1209h-553z" />
<glyph unicode="^" horiz-adv-x="1201" d="M566 1219h70l397 -636h-59l-373 583l-374 -583h-59z" />
<glyph unicode="_" horiz-adv-x="1201" d="M160 72h881v-62h-881v62z" />
<glyph unicode="`" horiz-adv-x="667" d="M263 1219l234 -308h-96l-231 308h93z" />
<glyph unicode="a" d="M642 72q420 0 419 420q1 420 -419 419q-420 1 -420 -419t420 -420zM642 10q-482 0 -482 482t482 481q322 0 419 -197v197h62v-963h-62v197q-97 -197 -419 -197z" />
<glyph unicode="b" d="M222 911v-839h420q419 0 419 420t-419 419h-420zM222 1219v-246h420q481 1 481 -481t-481 -482h-482v1209h62z" />
<glyph unicode="c" horiz-adv-x="1257" d="M642 10q-482 0 -482 482t482 481q402 0 455 -308h-62q-57 246 -393 246q-420 1 -420 -419t420 -420q336 0 393 246h62q-53 -308 -455 -308z" />
<glyph unicode="d" d="M642 911q-420 1 -420 -419t420 -420h419v839h-419zM1123 1219v-1209h-481q-482 0 -482 482t482 481h419v246h62z" />
<glyph unicode="e" d="M1061 318v174q1 419 -419 419t-420 -419q0 -85 27 -174h812zM642 10q-482 0 -482 482t482 481q482 0 481 -481v-236h-850q74 -184 369 -184h317v-62h-317z" />
<glyph unicode="f" horiz-adv-x="1037" d="M324 10v901h-164v62h164q0 246 481 246h72v-62h-72q-419 0 -419 -184h409v-62h-409v-901h-62z" />
<glyph unicode="g" d="M1123 0q0 -236 -481 -236h-154v62h154q419 0 419 184h-419q-482 0 -482 482t482 481h481v-973zM1061 72v839h-419q-420 1 -420 -419t420 -420h419z" />
<glyph unicode="h" d="M222 10h-62v1209h62v-246h420q481 0 481 -481v-482h-62v482q0 419 -419 419h-420v-901z" />
<glyph unicode="i" horiz-adv-x="382" d="M222 1219v-62h-62v62h62zM222 973v-963h-62v963h62z" />
<glyph unicode="j" horiz-adv-x="792" d="M632 1219v-62h-62v62h62zM632 0q0 -236 -472 -236v62q410 0 410 174v973h62v-973z" />
<glyph unicode="k" horiz-adv-x="1265" d="M222 10h-62v1209h62v-737h177l627 491h79l-644 -527l640 -436h-98l-604 410h-177v-410z" />
<glyph unicode="l" horiz-adv-x="792" d="M160 1219h62v-727q0 -420 410 -420v-62q-472 0 -472 482v727z" />
<glyph unicode="m" horiz-adv-x="2184" d="M1061 492q0 419 -420 419q-299 -38 -419 -195v-706h-62v963h62v-189q97 158 420 189q342 0 450 -267q108 267 451 267q481 0 481 -481v-482h-62v482q0 419 -420 419t-419 -419v-482h-62v482z" />
<glyph unicode="n" d="M222 10h-62v963h62v-189q97 158 420 189q481 0 481 -481v-482h-62v482q0 419 -420 419q-299 -38 -419 -195v-706z" />
<glyph unicode="o" d="M1061 492q1 420 -419 419q-420 1 -420 -419t420 -420t419 420zM642 10q-482 0 -482 482t482 481q482 1 481 -481q1 -482 -481 -482z" />
<glyph unicode="p" d="M642 72q419 0 419 420t-419 419h-420v-839h420zM160 -236v1209h482q481 1 481 -481t-481 -482h-420v-246h-62z" />
<glyph unicode="q" d="M1061 -236v246h-419q-482 0 -482 482t482 481h481v-1209h-62zM1061 72v839h-419q-420 1 -420 -419t420 -420h419z" />
<glyph unicode="r" d="M222 10h-62v963h62v-163q97 141 420 163q481 0 481 -471h-62q0 409 -420 409q-334 -38 -419 -195v-706z" />
<glyph unicode="s" d="M642 916q-336 0 -420 -259q0 -131 234 -131h349q318 0 318 -197q-80 -319 -481 -319t-438 226h62q40 -164 376 -164t419 254q0 138 -256 138h-349q-296 0 -296 190q80 324 482 324t446 -231h-62q-48 169 -384 169z" />
<glyph unicode="t" horiz-adv-x="1037" d="M805 10q-481 0 -481 482v419h-164v62h164v246h62v-246h409v-62h-409v-419q0 -420 419 -420h72v-62h-72z" />
<glyph unicode="u" d="M1123 492q1 -482 -481 -482t-482 482v481h62v-481q0 -420 420 -420t419 420v481h62v-481z" />
<glyph unicode="v" d="M160 973h62v-446l420 -426l419 412v460h62v-477l-481 -482l-482 482v477z" />
<glyph unicode="w" horiz-adv-x="2184" d="M642 10q-482 0 -482 482v481h62v-481q0 -420 420 -420t419 420v317h62v-317q-1 -420 419 -420t420 420v481h62v-481q0 -482 -481 -482q-343 0 -451 267q-108 -267 -450 -267z" />
<glyph unicode="x" d="M160 973h68l414 -414l413 414h68v-23l-456 -457l456 -452v-31h-68l-413 424l-414 -424h-68v31l455 451l-455 458v23z" />
<glyph unicode="y" d="M222 973v-481q0 -420 420 -420h419v901h62v-973q0 -236 -481 -236h-154v62h154q419 0 419 184h-419q-482 0 -482 482v481h62z" />
<glyph unicode="z" d="M160 911v62h963v-104l-918 -797h918v-62h-963v109l918 792h-918z" />
<glyph unicode="{" horiz-adv-x="955" d="M795 10q-471 0 -471 482q0 89 -134 125q134 32 134 120q0 482 471 482v-62q-409 0 -409 -420q0 -73 -94 -118q94 -52 94 -127q0 -420 409 -420v-62z" />
<glyph unicode="|" horiz-adv-x="382" d="M222 1219v-1209h-62v1209h62z" />
<glyph unicode="}" horiz-adv-x="955" d="M160 72q410 0 410 420q0 75 94 127q-94 45 -94 118q0 420 -410 420v62q472 0 472 -482q0 -88 133 -120q-133 -36 -133 -125q0 -482 -472 -482v62z" />
<glyph unicode="~" d="M634 650q170 -291 342 -84q86 86 147 210q0 -224 -160 -358q-127 -79 -213 -40q-103 41 -182 201q-172 172 -344 0l-64 -127q0 197 108 265q108 67 208 39q102 -28 158 -106z" />
<glyph unicode="&#xa1;" horiz-adv-x="382" d="M160 1157v62h62v-62h-62zM160 10v963h62v-963h-62z" />
<glyph unicode="&#xa2;" horiz-adv-x="1259" d="M222 492q0 -307 237 -394l312 804l-129 9q-420 0 -420 -419zM642 72q336 0 393 246h62q-53 -308 -455 -308q-29 0 -152 14l-101 -260h-60l105 275q-274 93 -274 453q0 481 482 481q109 0 151 -13l101 259h60l-105 -273q211 -73 248 -281h-62q-36 162 -210 221l-313 -802 q66 -12 130 -12z" />
<glyph unicode="&#xa3;" horiz-adv-x="1037" d="M795 72v-62h-635v62h164v839h-164v62h164q0 246 481 246h72v-62h-72q-419 0 -419 -184h409v-62h-409v-839h409z" />
<glyph unicode="&#xa4;" horiz-adv-x="937" d="M472 807q-98 0 -170 -69q-70 -76 -70 -174t70 -172t169 -73q100 0 170 72q69 75 69 173t-69 174q-71 69 -169 69zM749 564q0 -94 -58 -168l82 -85l-43 -44l-84 84q-82 -61 -174 -61t-172 61l-91 -91l-45 45l91 91q-59 76 -59 170t60 176l-92 90l45 45l91 -93 q78 60 173 60t171 -60l86 85l43 -43l-84 -86q60 -82 60 -176z" />
<glyph unicode="&#xa5;" d="M160 1219h62v-158l416 -420l423 420v158h62v-197l-465 -459h383v-61h-369v-184h369v-62h-369v-246h-61v246h-369v62h369v184h-369v61h383l-465 465v191z" />
<glyph unicode="&#xa6;" horiz-adv-x="382" d="M222 482v-472h-62v472h62zM222 1219v-472h-62v472h62z" />
<glyph unicode="&#xa7;" horiz-adv-x="1119" d="M242 780q64 -215 234 -298h165l262 -46q-90 228 -259 311h-165zM559 1157q-254 0 -308 -209q-32 -139 227 -139h162q319 -161 319 -480q-80 -319 -399 -319q-297 0 -395 226h62q105 -164 345 -164t289 172q38 176 -219 176h-161q-299 161 -321 480q80 319 401 319 t394 -226h-62q-80 164 -334 164z" />
<glyph unicode="&#xa8;" horiz-adv-x="792" d="M632 1148q0 -26 -21 -50q-21 -23 -51 -23q-30 -1 -51 21t-21 52t21 51q25 20 51 20t51 -20q21 -25 21 -51zM304 1148q0 -26 -20 -52q-22 -21 -52 -21t-51 21q-21 22 -21 52t21 51q25 20 51 20t52 -20q20 -25 20 -51z" />
<glyph unicode="&#xa9;" d="M877 482q1 -226 -235 -226t-236 236v245q0 236 236 236t235 -226h-62q1 164 -173 164t-174 -174v-245q0 -174 174 -174t173 164h62zM1061 737q1 420 -419 420t-420 -420v-245q0 -420 420 -420t419 420v245zM1123 492q1 -482 -481 -482t-482 482v245q0 482 482 482 t481 -482v-245z" />
<glyph unicode="&#xaa;" horiz-adv-x="918" d="M459 627q268 0 268 268t-268 268t-268 -268t268 -268zM460 596q-300 0 -300 299t300 299q200 0 267 -134v134h31v-598h-31v137q-67 -137 -267 -137z" />
<glyph unicode="&#xab;" horiz-adv-x="1201" d="M570 578v72l471 394v-78l-415 -352l415 -344v-85zM160 578v72l472 394v-78l-416 -352l416 -344v-85z" />
<glyph unicode="&#xac;" horiz-adv-x="1201" d="M160 1219h881v-308h-62v246h-819v62z" />
<glyph unicode="&#xad;" horiz-adv-x="464" d="M304 82q0 -26 -20 -51q-22 -21 -52 -21t-51 21t-21 51t21 52q25 20 51 20t52 -20q20 -26 20 -52z" />
<glyph unicode="&#xae;" d="M642 482q173 0 173 173v82q0 174 -173 174h-174v-429h174zM406 256v717h236q235 0 235 -236v-82q0 -235 -268 -235l245 -164h-83l-208 164h-95v-164h-62zM1061 737q1 420 -419 420t-420 -420v-245q0 -420 420 -420t419 420v245zM1123 492q1 -482 -481 -482t-482 482v245 q0 482 482 482t481 -482v-245z" />
<glyph unicode="&#xaf;" horiz-adv-x="1201" d="M1041 1219v-62h-881v62h881z" />
<glyph unicode="&#xb0;" horiz-adv-x="792" d="M222 983q0 -174 174 -174t174 174t-174 174t-174 -174zM396 1219q236 0 236 -236t-236 -236t-236 236t236 236z" />
<glyph unicode="&#xb1;" horiz-adv-x="1201" d="M160 72h881v-62h-881v62zM160 645h410v410h62v-410h409v-62h-409v-409h-62v409h-410v62z" />
<glyph unicode="&#xb2;" horiz-adv-x="628" d="M160 1157v62h154q154 0 154 -150l-237 -260h237v-62h-308v68l246 246q0 96 -92 96h-154z" />
<glyph unicode="&#xb3;" horiz-adv-x="628" d="M160 1219h154q154 0 154 -154q0 -31 -96 -84q96 -37 96 -80q0 -154 -154 -154h-154v62h154q92 0 92 92q0 55 -51 51l-113 -5v66h118q46 0 46 52q0 92 -92 92h-154v62z" />
<glyph unicode="&#xb4;" horiz-adv-x="667" d="M497 1219l-230 -308h-97l235 308h92z" />
<glyph unicode="&#xb5;" d="M642 10q-286 0 -420 194v-440h-62v1209h62v-481q0 -420 420 -420t419 420v481h62v-963h-62v194q-133 -194 -419 -194z" />
<glyph unicode="&#xb6;" d="M468 10h-62v737q-246 0 -246 236t236 236h727v-62h-164v-1147h-62v1147h-429v-1147z" />
<glyph unicode="&#xb7;" horiz-adv-x="390" d="M230 645v-68h-70v68h70z" />
<glyph unicode="&#xb8;" horiz-adv-x="628" d="M222 19v-81h92q154 0 154 -154t-154 -154q-78 0 -140 62h140q92 0 92 92t-92 92h-154v143h62z" />
<glyph unicode="&#xb9;" horiz-adv-x="628" d="M160 1219h185v-410h123v-62h-308v62h123v348h-123v62z" />
<glyph unicode="&#xba;" horiz-adv-x="628" d="M222 901q0 -92 92 -92t92 92v164q0 92 -92 92t-92 -92v-164zM160 1065q0 154 154 154t154 -154v-164q0 -154 -154 -154t-154 154v164z" />
<glyph unicode="&#xbb;" horiz-adv-x="1201" d="M160 185v85l416 344l-416 352v78l472 -394v-72zM570 185v85l415 344l-415 352v78l471 -394v-72z" />
<glyph unicode="&#xbc;" d="M160 1219h185v-410h123v-62h-308v62h123v348h-123v62zM815 420v62h154q154 0 154 -150l-237 -260h237v-62h-308v68l246 246q0 96 -92 96h-154zM1113 1219l-886 -1209h-57l886 1209h57z" />
<glyph unicode="&#xbd;" d="M815 482h62v-246h184v246h62v-472h-62v164h-246v308zM160 1219h185v-410h123v-62h-308v62h123v348h-123v62zM1113 1219l-886 -1209h-57l886 1209h57z" />
<glyph unicode="&#xbe;" d="M815 482h62v-246h184v246h62v-472h-62v164h-246v308zM160 1219h154q154 0 154 -154q0 -31 -96 -84q96 -37 96 -80q0 -154 -154 -154h-154v62h154q92 0 92 92q0 55 -51 51l-113 -5v66h118q46 0 46 52q0 92 -92 92h-154v62zM1113 1219l-886 -1209h-57l886 1209h57z" />
<glyph unicode="&#xbf;" d="M652 1157v62h61v-62h-61zM642 10q-402 0 -482 401q0 316 492 377v185h61v-227q-491 -56 -491 -337q84 -337 420 -337t417 328h62q-77 -390 -479 -390z" />
<glyph unicode="&#xf7;" horiz-adv-x="1201" d="M632 318v-62h-62v62h62zM632 973v-62h-62v62h62zM160 645h881v-62h-881v62z" />
<glyph unicode="&#x2c6;" horiz-adv-x="688" d="M435 1069l-92 107l-88 -107h-84l136 163h72l138 -163h-82z" />
<glyph unicode="&#x2c7;" horiz-adv-x="688" d="M517 1232l-138 -163h-72l-136 163h84l88 -108l92 108h82z" />
<glyph unicode="&#x2c9;" horiz-adv-x="1201" d="M1041 1219v-62h-881v62h881z" />
<glyph unicode="&#x2d8;" horiz-adv-x="704" />
<glyph unicode="&#x2d9;" horiz-adv-x="382" d="M222 1219v-62h-62v62h62z" />
<glyph unicode="&#x2da;" horiz-adv-x="585" d="M187 1086q-1 -105 105 -105t106 105t-106 105t-105 -105zM292 1219q132 0 133 -133q-1 -133 -133 -133t-132 133t132 133z" />
<glyph unicode="&#x2db;" horiz-adv-x="488" d="M328 82q0 -72 -74 -72t-94 73q3 176 141 222q-55 -55 -55 -151q82 0 82 -72z" />
<glyph unicode="&#x2dc;" horiz-adv-x="762" d="M374 1159q83 -148 169 -40q40 45 59 82q0 -80 -73 -145q-52 -34 -95 -18t-84 93q-85 86 -170 0l-20 -40q0 69 48 99t94 16q45 -13 72 -47z" />
<glyph unicode="&#x2dd;" horiz-adv-x="734" d="M246 1075q0 -96 55 -151q-138 46 -141 222q20 73 94 73t74 -72t-82 -72zM492 1075q0 -96 55 -151q-139 46 -141 222q20 73 94 73t74 -72t-82 -72z" />
<glyph unicode="&#x60c;" horiz-adv-x="488" d="M328 82q0 -72 -74 -72t-94 73q3 176 141 222q-55 -55 -55 -151q82 0 82 -72z" />
<glyph unicode="&#x61b;" horiz-adv-x="488" d="M328 655q0 -72 -74 -72t-94 73q3 177 141 222q-55 -55 -55 -151q82 0 82 -72zM258 10q-30 0 -52 22t-22 50q0 30 22 52q25 20 51 20t51 -20q20 -26 20 -52t-20 -51q-20 -21 -50 -21z" />
<glyph unicode="&#x61f;" d="M713 72v-62h-61v62h61zM642 1157q-336 0 -420 -337q0 -279 491 -337v-227h-61v184q-492 62 -492 378q80 401 482 401t479 -390h-62q-81 328 -417 328z" />
<glyph unicode="&#x621;" horiz-adv-x="1352" d="M1192 10h-1032v62h101v321q0 481 482 481q267 0 378 -137l-47 -47q-97 123 -331 123q-420 0 -420 -420v-321h869v-62z" />
<glyph unicode="&#x622;" horiz-adv-x="692" d="M421 1375q33 0 65.5 39.5t45.5 69.5q0 -68 -60 -126q-31 -21 -50.5 -21t-29.5 4q-38 16 -69 86q-35 41 -74.5 41t-74.5 -41l-14 -31q0 57 42 86q23 18 54 18l22 -2q40 -12 60 -45q39 -78 83 -78zM352 1229v-1219h-62v1219h62z" />
<glyph unicode="&#x623;" horiz-adv-x="606" d="M160 1334v42h70q-39 48 -39 93q0 197 255 199v-32q-206 -3 -206 -167q0 -74 78 -93h128v-42h-286zM328 1229v-1219h-62v1219h62z" />
<glyph unicode="&#x624;" d="M353 1090v42h71q-40 47 -40 93q0 196 255 199v-33q-206 -2 -206 -166q0 -73 78 -93h128v-42h-286zM1123 0q0 -236 -482 -236h-153v62h153q420 0 420 184h-420q-481 0 -481 482t481 481h482v-973zM1061 72v839h-420q-419 1 -419 -419t419 -420h420z" />
<glyph unicode="&#x625;" horiz-adv-x="606" d="M160 -412v41h71q-40 47 -40 95q0 194 255 197v-33q-206 -2 -206 -164q0 -75 78 -95h128v-41h-286zM329 1229v-1219h-62v1219h62z" />
<glyph unicode="&#x626;" horiz-adv-x="1529" d="M183 1090v42h71q-40 47 -40 93q0 196 255 199v-33q-206 -2 -206 -166q0 -73 78 -93h128v-42h-286zM1307 502q0 409 -184 409v-419q1 -482 -481 -482t-482 482v481h161l6 -62h-105v-419q0 -420 420 -420t419 420v409l1 72h71q236 0 236 -471h-62z" />
<glyph unicode="&#x627;" horiz-adv-x="382" d="M222 1229v-1219h-62v1219h62z" />
<glyph unicode="&#x628;" horiz-adv-x="1421" d="M790 72v1q409 0 409 420v419h-80v62h142v-481q0 -469 -466 -482v-1h-169v1q-466 13 -466 482v481h142v-62h-80v-419q0 -420 409 -420v-1h159zM698.5 -260q-27.5 0 -48 20t-20.5 49.5t20.5 50t48 20.5t52.5 -20q20 -25 20 -52.5t-20 -47.5q-25 -20 -52.5 -20z" />
<glyph unicode="&#x629;" d="M683 1164q0 -28 -22.5 -47.5t-50 -19.5t-48 19.5t-20.5 49t20.5 50.5t48 21t52.5 -20q20 -25 20 -53zM964 1164q0 -28 -22.5 -47.5t-50 -19.5t-48 19.5t-20.5 49t20.5 50.5t48 21t52.5 -20q20 -25 20 -53zM641 10q-481 0 -481 481.5t481 481.5h482v-963h-482zM1061 72 v839h-420q-419 0 -419 -419.5t419 -419.5h420z" />
<glyph unicode="&#x62a;" horiz-adv-x="1421" d="M633 1164q0 -28 -22.5 -47.5t-50 -19.5t-48 19.5t-20.5 49t20.5 50.5t48 21t52.5 -20q20 -25 20 -53zM914 1164q0 -28 -22.5 -47.5t-50 -19.5t-48 19.5t-20.5 49t20.5 50.5t48 21t52.5 -20q20 -25 20 -53zM790 72v1q409 0 409 420v419h-80v62h142v-481q0 -469 -466 -482 v-1h-169v1q-466 13 -466 482v481h142v-62h-80v-419q0 -420 409 -420v-1h159z" />
<glyph unicode="&#x62b;" horiz-adv-x="1421" d="M633 1164q0 -28 -22.5 -47.5t-50 -19.5t-48 19.5t-20.5 49t20.5 50.5t48 21t52.5 -20q20 -25 20 -53zM914 1164q0 -28 -22.5 -47.5t-50 -19.5t-48 19.5t-20.5 49t20.5 50.5t48 21t52.5 -20q20 -25 20 -53zM766 1383q0 -27 -21.5 -47.5t-50 -20.5t-49 20t-20.5 49.5 t20.5 50t48 20.5t52.5 -20q20 -25 20 -52zM790 72v1q409 0 409 420v419h-80v62h142v-481q0 -469 -466 -482v-1h-169v1q-466 13 -466 482v481h142v-62h-80v-419q0 -420 409 -420v-1h159z" />
<glyph unicode="&#x62c;" horiz-adv-x="1206" d="M160 10v62h737v420q0 419 -419 419h-154v62h154q481 0 481 -481v-420h87v-62h-823q0 -184 420 -184h88v-62h-88q-482 0 -482 246h-1zM908.5 -272q-27.5 0 -48 19.5t-20.5 49.5t20.5 50.5t48 20.5t52.5 -20q20 -25 20 -52.5t-20 -47.5q-25 -20 -52.5 -20z" />
<glyph unicode="&#x62d;" horiz-adv-x="1206" d="M160 10v62h737v420q0 419 -419 419h-154v62h154q481 0 481 -481v-420h87v-62h-823q0 -184 420 -184h88v-62h-88q-482 0 -482 246h-1z" />
<glyph unicode="&#x62e;" horiz-adv-x="1206" d="M504 1166q0 29 21 50t47.5 21t51.5 -20q20 -25 20 -53t-22.5 -47.5t-49 -19.5t-47.5 20t-21 49zM160 10v62h737v420q0 419 -419 419h-154v62h154q481 0 481 -481v-420h87v-62h-823q0 -184 420 -184h88v-62h-88q-482 0 -482 246h-1z" />
<glyph unicode="&#x62f;" horiz-adv-x="1119" d="M160 10v62h737v420q0 419 -419 419h-154v62h154q481 0 481 -481v-482h-799z" />
<glyph unicode="&#x630;" horiz-adv-x="1119" d="M160 10v62h737v420q0 419 -419 419h-154v62h154q481 0 481 -481v-482h-799zM579 1164q0 -28 -22.5 -47.5t-49.5 -19.5t-47.5 19.5t-20.5 49t20.5 50.5t47.5 21t52 -20q20 -25 20 -53z" />
<glyph unicode="&#x631;" horiz-adv-x="805" d="M583 973h62v-973q0 -236 -481 -236h-154v62h154q419 0 419 174v973z" />
<glyph unicode="&#x632;" horiz-adv-x="848" d="M688 1164q0 -28 -22.5 -47.5t-49.5 -19.5t-47.5 19.5t-20.5 49t20.5 50.5t47.5 21t52 -20q20 -25 20 -53zM583 973h62v-973q0 -236 -481 -236h-154v62h154q419 0 419 174v973z" />
<glyph unicode="&#x633;" horiz-adv-x="2184" d="M1487 72v840h-80v62h142v-901q411 8 413 415v424h-80v62h142v-486q-2 -464 -466 -477v-1h-477q-105 -239 -440 -239q-481 0 -481 481v218h62v-218q0 -419 420 -419t419 419v660h-81v62h143v-902h364z" />
<glyph unicode="&#x634;" horiz-adv-x="2184" d="M1423 1164q0 -28 -22.5 -47.5t-50 -19.5t-48 19.5t-20.5 49t20.5 50.5t48 21t52.5 -20q20 -25 20 -53zM1704 1164q0 -28 -22.5 -47.5t-50 -19.5t-48 19.5t-20.5 49t20.5 50.5t48 21t52.5 -20q20 -25 20 -53zM1556 1383q0 -27 -21.5 -47.5t-50 -20.5t-49 20t-20.5 49.5 t20.5 50t48 20.5t52.5 -20q20 -25 20 -52zM1487 72v840h-80v62h142v-901q411 8 413 415v424h-80v62h142v-486q-2 -464 -466 -477v-1h-477q-105 -239 -440 -239q-481 0 -481 481v218h62v-218q0 -419 419.5 -419t419.5 419v660h-81v62h143v-902h364z" />
<glyph unicode="&#x635;" horiz-adv-x="2184" d="M1061 972h62v-192q133 193 420 193q481 0 481 -481v-482h-943q-105 -239 -440 -239q-481 0 -481 481v218h62v-218q0 -419 420 -419t419 419v720zM1123 72h839v420q0 419 -420 419t-419 -419v-420z" />
<glyph unicode="&#x636;" horiz-adv-x="2184" d="M1061 972h62v-192q133 193 420 193q481 0 481 -481v-482h-943q-105 -239 -440 -239q-481 0 -481 481v218h62v-218q0 -419 419.5 -419t419.5 419v720zM1254 1166q0 29 21 50t48.5 21t52.5 -20q18 -24 18 -52.5t-18 -47.5q-25 -20 -52.5 -20t-48.5 20t-21 49zM1123 72h839 v420q0 419 -419.5 419t-419.5 -419v-420z" />
<glyph unicode="&#x637;" horiz-adv-x="1417" d="M160 10v62h134v1157h62v-449q133 193 420 193q481 0 481 -481v-482h-1097zM356 72h839v420q1 419 -419 419t-420 -419v-420z" />
<glyph unicode="&#x638;" horiz-adv-x="1417" d="M160 10v62h134v1157h62v-449q133 193 420 193q481 0 481 -481v-482h-1097zM556.5 1097q-27.5 0 -48 19.5t-20.5 49t20.5 50.5t48 21t52.5 -20q19 -24 19 -52.5t-19 -47.5q-25 -20 -52.5 -20zM356 72h839v420q0 419 -419.5 419t-419.5 -419v-420z" />
<glyph unicode="&#x639;" horiz-adv-x="1448" d="M1288 72v-62h-1065q0 -184 420 -184h88v-62h-88q-482 0 -482 246h-1v62h233v420q0 481 481 481q267 0 379 -137l-49 -48q-97 123 -330 123q-419 0 -419 -419v-420h833z" />
<glyph unicode="&#x63a;" horiz-adv-x="1448" d="M1288 72v-62h-1065q0 -184 420 -184h88v-62h-88q-482 0 -482 246h-1v62h233v420q0 481 481 481q267 0 379 -137l-49 -48q-97 123 -330 123q-419 0 -419 -419v-420h833zM940 1164q0 -28 -22.5 -47.5t-50 -19.5t-48 19.5t-20.5 49t20.5 50.5t48 21t52.5 -20q20 -25 20 -53z " />
<glyph unicode="&#x640;" horiz-adv-x="67" d="M138 10h-210v62h210v-62z" />
<glyph unicode="&#x641;" horiz-adv-x="2171" d="M1048 72v420q0 481 481.5 481t481.5 -481v-482h-1385v1q-466 13 -466 482v317h142v-61h-80v-256q0 -420 409 -420v-1h417zM1455 1166q0 29 21.5 50t48.5 21t52 -20q20 -25 20 -53t-22.5 -47.5t-49.5 -19.5t-48.5 20t-21.5 49zM1110 72h839v420q0 419 -419.5 419 t-419.5 -419v-420z" />
<glyph unicode="&#x642;" horiz-adv-x="1844" d="M1123 1164q0 -28 -22.5 -47.5t-50 -19.5t-48 19.5t-20.5 49t20.5 50.5t48 21t52.5 -20q20 -25 20 -53zM1404 1164q0 -28 -22.5 -47.5t-50 -19.5t-48 19.5t-20.5 49t20.5 50.5t48 21t52.5 -20q20 -25 20 -53zM721 72v420q0 481 481.5 481t481.5 -481v-482h-1058v1 q-466 13 -466 482v317h142v-61h-80v-256q0 -420 409 -420v-1h90zM1622 72v420q0 419 -420 419t-420 -419v-420h840z" />
<glyph unicode="&#x643;" horiz-adv-x="1405" d="M626 10v1q-466 13 -466 482v317h142v-61h-80v-256q0 -420 409 -420v-1h142v1q410 0 410 420v674h-81v62h143v-736q0 -469 -466 -482v-1h-153zM535 673v50h78q-43 46 -43 104q0 220 289 223v-39q-233 -3 -233 -184q0 -81 86 -104h147v-50h-324z" />
<glyph unicode="&#x644;" horiz-adv-x="1277" d="M222 252q0 -417 414 -419q419 2 419 420v914h-81v62h143v-976q0 -467 -456 -482h-20q-481 0 -481 481v218h62v-218z" />
<glyph unicode="&#x645;" horiz-adv-x="1516" d="M393 72v420q-1 481 481 481t482 -481v-482h-1133q0 -184 420 -184h88v-62h-88q-482 0 -482 246h-1v62h233zM1294 72v420q0 419 -420 419t-419 -419v-420h839z" />
<glyph unicode="&#x646;" horiz-adv-x="1277" d="M606 763q-27 0 -48.5 19.5t-21.5 49t21.5 50.5t48 21t51.5 -20q21 -26 21 -54t-20 -47q-25 -19 -52 -19zM222 252q0 -417 414 -419q419 2 419 420v494h-81v62h143v-556q0 -467 -456 -482h-20q-481 0 -481 481v218h62v-218z" />
<glyph unicode="&#x647;" d="M641 10q-481 0 -481 482t481 481h482v-963h-482zM1061 72v839h-420q-419 1 -419 -419t419 -420h420z" />
<glyph unicode="&#x648;" d="M1123 0q0 -236 -482 -236h-153v62h153q420 0 420 184h-420q-481 0 -481 482t481 481h482v-973zM1061 72v839h-420q-419 1 -419 -419t419 -420h420z" />
<glyph unicode="&#x649;" horiz-adv-x="1529" d="M1307 502q0 409 -184 409v-419q1 -482 -481 -482t-482 482v481h161l6 -62h-105v-419q0 -420 420 -420t419 420v409l1 72h71q236 0 236 -471h-62z" />
<glyph unicode="&#x64a;" horiz-adv-x="1529" d="M573 -191q0 -28 -22.5 -47.5t-50 -19.5t-48 19.5t-20.5 49t20.5 50.5t48 21t52.5 -20q20 -25 20 -53zM854 -191q0 -28 -22.5 -47.5t-50 -19.5t-48 19.5t-20.5 49t20.5 50.5t48 21t52.5 -20q20 -25 20 -53zM1307 502q0 409 -184 409v-419q0 -482 -481.5 -482t-481.5 482 v481h161l6 -62h-105v-419q0 -420 419.5 -420t419.5 420v409l1 72h71q236 0 236 -471h-62z" />
<glyph unicode="&#x64b;" horiz-adv-x="354" d="M10 1248l334 124v-60l-334 -126v62zM10 1419l334 124v-60l-334 -126v62z" />
<glyph unicode="&#x64c;" horiz-adv-x="531" d="M462 1375.5q0 69.5 -65 69.5t-65 -70q0 -47 50 -113q80 44 80 113.5zM272 1234q25 0 59 12q-56 78 -56 133.5t34.5 87t90.5 31.5t88.5 -30.5t32.5 -79.5q0 -87 -73 -148.5t-161.5 -61.5t-146.5 50l-29 24l-61 -49l-36 43l103 93q79 -105 155 -105z" />
<glyph unicode="&#x64d;" horiz-adv-x="354" d="M10 -418l334 124v-60l-334 -127v63zM10 -248l334 125v-61l-334 -126v62z" />
<glyph unicode="&#x64e;" horiz-adv-x="354" d="M10 1248l334 124v-60l-334 -126v62z" />
<glyph unicode="&#x64f;" horiz-adv-x="444" d="M376 1378.5q0 66.5 -65.5 66.5t-65.5 -70q0 -47 45 -108q86 45 86 111.5zM148 1234q48 0 94 15q-54 73 -54 129.5t35 88t91 31.5t88 -31.5t32 -78.5q0 -77 -83 -143.5t-180.5 -66.5t-156.5 42l33 47q53 -33 101 -33z" />
<glyph unicode="&#x650;" horiz-adv-x="354" d="M10 -248l334 125v-61l-334 -126v62z" />
<glyph unicode="&#x651;" horiz-adv-x="482" d="M472 1459v-115q0 -136 -120 -136q-64 0 -108 53q-43 -83 -121 -83q-113 0 -113 136v85h58v-71q0 -50 16 -72t55 -22q76 0 76 80v123h51v-93q0 -79 68 -79q45 0 62 23t17 70v101h59z" />
<glyph unicode="&#x652;" horiz-adv-x="333" d="M164.5 1424q-40.5 0 -67 -25t-26.5 -68q0 -93 94 -93q40 0 66.5 25.5t26.5 68t-26.5 67.5t-67 25zM164.5 1182q-71.5 0 -113 40t-41.5 109t41.5 108.5t112 39.5t115 -39.5t44.5 -107t-43.5 -109t-115 -41.5z" />
<glyph unicode="&#x653;" horiz-adv-x="392" d="M271 1375q33 -1 65 39t46 70q0 -68 -60 -126q-30 -21 -50 -21t-30 4q-38 16 -69 86q-35 41 -75 41t-74 -41l-14 -31q0 57 42 86q23 18 54 18l22 -2q40 -12 60 -45q39 -78 83 -78z" />
<glyph unicode="&#x654;" horiz-adv-x="306" d="M10 1334v42h70q-39 48 -39 93q0 197 255 199v-32q-206 -3 -206 -167q0 -74 78 -93h128v-42h-286z" />
<glyph unicode="&#x655;" horiz-adv-x="306" d="M10 -412v41h71q-40 47 -40 95q0 194 255 197v-33q-206 -2 -206 -164q0 -75 78 -95h128v-41h-286z" />
<glyph unicode="&#x656;" horiz-adv-x="72" d="M10 1370h52v-192h-52v192z" />
<glyph unicode="&#x660;" horiz-adv-x="463" d="M303 590q0 -26 -20 -51q-21 -21 -50 -21t-51 22t-22 51q0 30 22 51q26 20 52 20t49 -20q20 -26 20 -52z" />
<glyph unicode="&#x661;" horiz-adv-x="382" d="M222 1235v-1225h-62v1225h62z" />
<glyph unicode="&#x662;" horiz-adv-x="890" d="M222 11h-62v726q0 482 481 482h89v-62h-89q-389 0 -419 -338v-808z" />
<glyph unicode="&#x663;" horiz-adv-x="982" d="M222 790h242v425h62v-425h234v442h62v-504h-600v-717h-62v1221h62v-442z" />
<glyph unicode="&#x664;" horiz-adv-x="914" d="M631 1219v-62q-325 0 -409 -254q0 -203 171 -258h320v-62h-320q-171 -59 -171 -257q84 -254 419 -254q90 0 98 3l13 -58l-111 -7q-401 0 -481 319q0 236 194 285q-194 49 -194 286q80 319 471 319z" />
<glyph unicode="&#x665;" d="M1061 622q1 420 -419 420t-420 -420t420 -420t419 420zM642 141q-482 -1 -482 481t482 482t481 -482q1 -482 -481 -481z" />
<glyph unicode="&#x666;" horiz-adv-x="1005" d="M363 1157h-203v62h203q482 0 482 -482v-726h-62v808q-30 338 -420 338z" />
<glyph unicode="&#x667;" horiz-adv-x="870" d="M435 162l213 1050l60 -10l-240 -1187h-66l-240 1187l60 10z" />
<glyph unicode="&#x668;" horiz-adv-x="870" d="M222 17l-60 10l240 1187h66l240 -1187l-60 -10l-213 1049z" />
<glyph unicode="&#x669;" horiz-adv-x="972" d="M750 553v610h-109q-419 0 -419 -305t419 -305h109zM750 9v482h-109q-481 0 -481 367t481 367h171v-1216h-62z" />
<glyph unicode="&#x66a;" d="M713 246q0 -174 174 -174t174 174t-174 174t-174 -174zM652 246q0 236 236 236t235 -236q1 -236 -235 -236t-236 236zM222 983q0 -174 174 -174t174 174t-174 174t-174 -174zM396 1219q236 0 236 -236t-236 -236t-236 236t236 236zM1113 1219l-886 -1209h-57l886 1209h57 z" />
<glyph unicode="&#x66b;" horiz-adv-x="488" d="M160 246q0 72 74 72t94 -73q-2 -177 -141 -222q55 55 55 151q-82 0 -82 72z" />
<glyph unicode="&#x66c;" horiz-adv-x="488" d="M328 82q0 -72 -74 -72t-94 73q3 176 141 222q-55 -55 -55 -151q82 0 82 -72z" />
<glyph unicode="&#x66d;" d="M160 583v62h416l-167 334l65 43l168 -335l167 333l65 -41l-167 -334h416v-62h-416l167 -334l-65 -46l-167 335l-168 -334l-65 45l167 334h-416z" />
<glyph unicode="&#x670;" horiz-adv-x="1065" />
<glyph unicode="&#x671;" horiz-adv-x="635" d="M160 1323v40h33v311h40q20 -74 101 -69q141 0 141 -141v-141h-315zM233 1363h202v101q0 101 -101 101t-101 -101v-101zM345 1229v-1219h-62v1219h62z" />
<glyph unicode="&#x67e;" horiz-adv-x="1421" d="M512 -181q0 30 20.5 49.5t48 19.5t50 -19.5t22.5 -47.5t-20 -53q-25 -20 -52.5 -20t-48 20.5t-20.5 50.5zM793 -181q0 30 20.5 49.5t48 19.5t50 -19.5t22.5 -47.5t-20 -53q-25 -20 -52.5 -20t-48 20.5t-20.5 50.5zM645 -400q0 29 20.5 49.5t49 20.5t50 -21t21.5 -47.5 t-20 -51.5q-25 -20 -52.5 -20t-48 20.5t-20.5 49.5zM790 72v1q409 0 409 420v419h-80v62h142v-481q0 -469 -466 -482v-1h-169v1q-466 13 -466 482v481h142v-62h-80v-419q0 -420 409 -420v-1h159z" />
<glyph unicode="&#x686;" horiz-adv-x="1119" d="M856 -151.5q0 19.5 14.5 34t35.5 14.5t34.5 -14t13.5 -35t-14.5 -35t-34 -14t-34.5 15t-15 34.5zM799 -152q0 -21 -14 -35t-33.5 -14t-34 15t-14.5 34.5t14 34t34.5 14.5t34 -14t13.5 -35zM774 -297.5q0 19.5 14.5 34t35.5 14.5t34.5 -13.5t13.5 -35t-14 -35.5t-34 -14 t-35 15t-15 34.5zM897 72v420q0 419 -419 419h-154v62h154q481 0 481 -481v-482h-736q0 -184 410 -184v-62q-472 0 -472 246h-1v62h737z" />
<glyph unicode="&#x698;" horiz-adv-x="835" d="M492 1164q0 -28 -22.5 -47.5t-50 -19.5t-48 19.5t-20.5 49t20.5 50.5t48 21t52.5 -20q20 -25 20 -53zM773 1164q0 -28 -22.5 -47.5t-50 -19.5t-48 19.5t-20.5 49t20.5 50.5t48 21t52.5 -20q20 -25 20 -53zM625 1383q0 -27 -21.5 -47.5t-50 -20.5t-49 20t-20.5 49.5 t20.5 50t48 20.5t52.5 -20q20 -25 20 -52zM583 973h62v-973q0 -236 -481 -236h-154v62h154q419 0 419 174v973z" />
<glyph unicode="&#x6a4;" horiz-adv-x="2171" d="M1453 1164q0 -28 -22.5 -47.5t-50 -19.5t-48 19.5t-20.5 49t20.5 50.5t48 21t52.5 -20q20 -25 20 -53zM1734 1164q0 -28 -22.5 -47.5t-50 -19.5t-48 19.5t-20.5 49t20.5 50.5t48 21t52.5 -20q20 -25 20 -53zM1586 1383q0 -27 -21.5 -47.5t-50 -20.5t-49 20t-20.5 49.5 t20.5 50t48 20.5t52.5 -20q20 -25 20 -52zM1048 72v420q0 481 481.5 481t481.5 -481v-482h-1385v1q-466 13 -466 482v317h142v-61h-80v-256q0 -420 409 -420v-1h417zM1110 72h839v420q0 419 -419.5 419t-419.5 -419v-420z" />
<glyph unicode="&#x6a9;" horiz-adv-x="1631" d="M1409 72v289q0 420 -419 420h-160l-56 49l415 416l44 -43l-361 -361h118q481 0 481 -481v-351h-848v1q-463 14 -463 482v225h142v-62h-80v-163q0 -420 409 -420v-1h778z" />
<glyph unicode="&#x6af;" horiz-adv-x="1631" d="M1409 72v289q0 420 -419 420h-160l-56 49l415 416l44 -43l-361 -361h118q481 0 481 -481v-351h-848v1q-463 14 -463 482v225h142v-62h-80v-163q0 -420 409 -420v-1h778zM1077 1321l43 -42l-380 -375l-50 35z" />
<glyph unicode="&#x6c1;" horiz-adv-x="1271" d="M573 10q-481 0 -481 482t481 481h482v-901h288v-62h-770zM993 72v839h-420q-419 1 -419 -419t419 -420h420z" />
<glyph unicode="&#x6cc;" horiz-adv-x="1529" d="M1307 502q0 409 -184 409v-419q1 -482 -481 -482t-482 482v481h161l6 -62h-105v-419q0 -420 420 -420t419 420v409l1 72h71q236 0 236 -471h-62z" />
<glyph unicode="&#x6f0;" horiz-adv-x="463" d="M303 590q0 -26 -20 -51q-21 -21 -50 -21t-51 22t-22 51q0 30 22 51q26 20 52 20t49 -20q20 -26 20 -52z" />
<glyph unicode="&#x6f1;" horiz-adv-x="382" d="M222 1235v-1225h-62v1225h62z" />
<glyph unicode="&#x6f2;" horiz-adv-x="890" d="M222 11h-62v726q0 482 481 482h89v-62h-89q-389 0 -419 -338v-808z" />
<glyph unicode="&#x6f3;" horiz-adv-x="982" d="M222 790h242v425h62v-425h234v442h62v-504h-600v-717h-62v1221h62v-442z" />
<glyph unicode="&#x6f4;" horiz-adv-x="914" d="M631 1219v-62q-325 0 -409 -254q0 -203 171 -258h320v-62h-320q-171 -59 -171 -257q84 -254 419 -254q90 0 98 3l13 -58l-111 -7q-401 0 -481 319q0 236 194 285q-194 49 -194 286q80 319 471 319z" />
<glyph unicode="&#x6f5;" d="M1061 622q1 420 -419 420t-420 -420t420 -420t419 420zM642 141q-482 -1 -482 481t482 482t481 -482q1 -482 -481 -481z" />
<glyph unicode="&#x6f6;" horiz-adv-x="1005" d="M363 1157h-203v62h203q482 0 482 -482v-726h-62v808q-30 338 -420 338z" />
<glyph unicode="&#x6f7;" horiz-adv-x="870" d="M435 162l213 1050l60 -10l-240 -1187h-66l-240 1187l60 10z" />
<glyph unicode="&#x6f8;" horiz-adv-x="870" d="M222 17l-60 10l240 1187h66l240 -1187l-60 -10l-213 1049z" />
<glyph unicode="&#x6f9;" horiz-adv-x="972" d="M750 553v610h-109q-419 0 -419 -305t419 -305h109zM750 9v482h-109q-481 0 -481 367t481 367h171v-1216h-62z" />
<glyph unicode="&#x2000;" horiz-adv-x="1147" />
<glyph unicode="&#x2001;" horiz-adv-x="2294" />
<glyph unicode="&#x2002;" horiz-adv-x="1147" />
<glyph unicode="&#x2003;" horiz-adv-x="2294" />
<glyph unicode="&#x2004;" horiz-adv-x="764" />
<glyph unicode="&#x2005;" horiz-adv-x="573" />
<glyph unicode="&#x2006;" horiz-adv-x="382" />
<glyph unicode="&#x2007;" horiz-adv-x="382" />
<glyph unicode="&#x2008;" horiz-adv-x="286" />
<glyph unicode="&#x2009;" horiz-adv-x="458" />
<glyph unicode="&#x200a;" horiz-adv-x="127" />
<glyph unicode="&#x2010;" horiz-adv-x="464" d="M304 82q0 -26 -20 -51q-22 -21 -52 -21t-51 21t-21 51t21 52q25 20 51 20t52 -20q20 -26 20 -52z" />
<glyph unicode="&#x2011;" horiz-adv-x="464" d="M304 82q0 -26 -20 -51q-22 -21 -52 -21t-51 21t-21 51t21 52q25 20 51 20t52 -20q20 -26 20 -52z" />
<glyph unicode="&#x2012;" horiz-adv-x="464" d="M304 82q0 -26 -20 -51q-22 -21 -52 -21t-51 21t-21 51t21 52q25 20 51 20t52 -20q20 -26 20 -52z" />
<glyph unicode="&#x2013;" horiz-adv-x="1201" d="M160 645h881v-62h-881v62z" />
<glyph unicode="&#x2014;" d="M160 645h963v-62h-963v62z" />
<glyph unicode="&#x2018;" horiz-adv-x="488" d="M328 1147q0 -72 -74 -72t-94 73q3 176 141 222q-55 -55 -55 -151q82 0 82 -72z" />
<glyph unicode="&#x2019;" horiz-adv-x="488" d="M160 1147q0 72 74 72t94 -73q-2 -176 -141 -222q55 55 55 151q-82 0 -82 72z" />
<glyph unicode="&#x201a;" horiz-adv-x="488" d="M160 246q0 72 74 72t94 -73q-2 -177 -141 -222q55 55 55 151q-82 0 -82 72z" />
<glyph unicode="&#x201c;" horiz-adv-x="816" d="M656 1147q0 -72 -74 -72t-94 73q2 176 141 222q-55 -55 -55 -151q82 0 82 -72zM328 1147q0 -72 -74 -72t-94 73q3 176 141 222q-55 -55 -55 -151q82 0 82 -72z" />
<glyph unicode="&#x201d;" horiz-adv-x="816" d="M488 1147q0 72 74 72t94 -73q-3 -176 -141 -222q55 55 55 151q-82 0 -82 72zM160 1147q0 72 74 72t94 -73q-2 -176 -141 -222q55 55 55 151q-82 0 -82 72z" />
<glyph unicode="&#x201e;" horiz-adv-x="816" d="M488 246q0 72 74 72t94 -73q-3 -177 -141 -222q55 55 55 151q-82 0 -82 72zM160 246q0 72 74 72t94 -73q-2 -177 -141 -222q55 55 55 151q-82 0 -82 72z" />
<glyph unicode="&#x2022;" horiz-adv-x="710" d="M550 614q0 -82 -56 -138t-139 -56t-139 56t-56 138t56 138t138 57q81 0 140 -56q56 -58 56 -139z" />
<glyph unicode="&#x202f;" horiz-adv-x="458" />
<glyph unicode="&#x2039;" horiz-adv-x="792" d="M160 578v72l472 394v-78l-416 -352l416 -344v-85z" />
<glyph unicode="&#x203a;" horiz-adv-x="792" d="M160 185v85l416 344l-416 352v78l472 -394v-72z" />
<glyph unicode="&#x2044;" d="M1113 1219l-886 -1209h-57l886 1209h57z" />
<glyph unicode="&#x205f;" horiz-adv-x="573" />
<glyph unicode="&#x2122;" horiz-adv-x="1063" d="M562 773h-10v446h15l160 -216l160 216h16v-446h-11v433l-165 -219l-165 221v-435zM160 1208v11h352v-11h-171v-435h-11v435h-170z" />
<glyph unicode="&#x2212;" d="M160 645h963v-62h-963v62z" />
<glyph unicode="&#x2215;" d="M1113 1219l-886 -1209h-57l886 1209h57z" />
<glyph unicode="&#x2219;" horiz-adv-x="390" d="M230 645v-68h-70v68h70z" />
<glyph unicode="&#x2248;" d="M634 487q171 -292 342 -84q85 85 147 209q0 -224 -160 -358q-128 -79 -212 -40q-105 41 -183 202q-172 171 -344 0l-64 -128q0 197 108 265q108 67 208 39q102 -28 158 -105zM634 814q171 -291 342 -84q85 86 147 210q0 -225 -160 -359q-128 -78 -212 -40 q-105 42 -183 202q-172 172 -344 0l-64 -128q0 198 108 266q108 67 208 39q102 -28 158 -106z" />
<glyph unicode="&#x2264;" horiz-adv-x="851" d="M160 137h531v-62h-531v62zM160 578v72l472 394v-78l-416 -352l416 -344v-85z" />
<glyph unicode="&#x2265;" horiz-adv-x="851" d="M691 75h-531v62h531v-62zM219 185v85l416 344l-416 352v78l472 -394v-72z" />
<glyph unicode="&#x25fc;" horiz-adv-x="975" d="M0 975h975v-975h-975v975z" />
<glyph horiz-adv-x="1361" />
<glyph horiz-adv-x="1743" />
<glyph horiz-adv-x="1338" />
<glyph horiz-adv-x="3060" d="M1798 1590v111h56l1 -111h-57zM1814 1472l-6 43l56 7l6 -52l7 -54l46 7l-11 105l59 9l19 -166l-268 -30l-17 163l55 7l13 -106l47 4zM1445 72v1q410 0 410 420v675h-81v62h143v-737q0 -420 409 -420v-1h102v1q410 0 410 420v674h-81v62h143v-736q0 -469 -466 -482v-1 h-115v1q-330 11 -433 267q-105 -256 -435 -267v-1h-810q-481 0 -481 482t481 481h482v-901h322zM1061 72v839h-420q-419 1 -419 -419t419 -420h420z" />
<glyph horiz-adv-x="838" />
<glyph horiz-adv-x="849" />
<glyph horiz-adv-x="482" d="M73 1568l334 124v-60l-334 -126v62zM73 1739l334 124v-60l-334 -126v62zM472 1459v-115q0 -136 -120 -136q-64 0 -108 53q-43 -83 -121 -83q-113 0 -113 136v85h58v-71q0 -50 16 -72t55 -22q76 0 76 80v123h51v-93q0 -79 68 -79q45 0 62 23t17 70v101h59z" />
<glyph horiz-adv-x="482" d="M472 1412v-68q0 -137 -120 -137q-62 0 -107 53q-43 -83 -121 -83q-114 0 -114 137v38h59v-25q0 -44 14 -68t56 -24q76 0 76 79v77h52v-47q0 -80 67 -80q45 0 62.5 23t17.5 70v55h58zM215 1660h52v-192h-52v192z" />
<glyph horiz-adv-x="0" />
<glyph horiz-adv-x="0" />
<glyph horiz-adv-x="0" />
<glyph horiz-adv-x="0" />
<glyph horiz-adv-x="335" />
<glyph horiz-adv-x="0" />
<glyph horiz-adv-x="1628" />
<glyph horiz-adv-x="0" />
<glyph horiz-adv-x="0" />
<glyph horiz-adv-x="0" />
<glyph horiz-adv-x="0" />
<glyph horiz-adv-x="0" />
<glyph horiz-adv-x="801" />
<glyph horiz-adv-x="317" />
<glyph horiz-adv-x="1839" />
<glyph horiz-adv-x="2240" />
<glyph horiz-adv-x="0" />
<glyph horiz-adv-x="0" />
<glyph horiz-adv-x="0" />
<glyph horiz-adv-x="0" />
<glyph horiz-adv-x="0" />
<glyph horiz-adv-x="0" />
<glyph horiz-adv-x="0" />
<glyph horiz-adv-x="1746" />
<glyph horiz-adv-x="1229" />
<glyph horiz-adv-x="1701" />
<glyph horiz-adv-x="3287" />
<glyph horiz-adv-x="4795" />
<glyph horiz-adv-x="2488" />
<glyph horiz-adv-x="6131" />
<glyph horiz-adv-x="4349" />
<glyph horiz-adv-x="6788" />
<glyph horiz-adv-x="1426" />
<glyph horiz-adv-x="2304" />
<glyph horiz-adv-x="2278" />
<glyph horiz-adv-x="1609" />
<glyph horiz-adv-x="1609" />
<glyph horiz-adv-x="1746" />
<glyph horiz-adv-x="0" />
<glyph horiz-adv-x="0" />
<glyph horiz-adv-x="0" />
<glyph horiz-adv-x="0" />
<glyph horiz-adv-x="0" />
<glyph horiz-adv-x="0" />
<glyph horiz-adv-x="0" />
<glyph horiz-adv-x="0" />
<glyph horiz-adv-x="0" />
<glyph horiz-adv-x="0" />
<glyph horiz-adv-x="0" />
<glyph horiz-adv-x="0" />
<glyph horiz-adv-x="0" />
<glyph horiz-adv-x="0" />
<glyph horiz-adv-x="0" />
<glyph horiz-adv-x="0" />
<glyph horiz-adv-x="0" />
<glyph horiz-adv-x="0" />
<glyph horiz-adv-x="0" />
<glyph horiz-adv-x="0" />
<glyph horiz-adv-x="0" />
<glyph horiz-adv-x="0" />
<glyph horiz-adv-x="0" />
<glyph horiz-adv-x="0" />
<glyph horiz-adv-x="0" />
<glyph horiz-adv-x="0" />
<glyph horiz-adv-x="0" />
<glyph horiz-adv-x="0" />
<glyph horiz-adv-x="0" />
</font>
</defs>
</svg>
