<svg xmlns="http://www.w3.org/2000/svg" xmlns:xlink="http://www.w3.org/1999/xlink" version="1.1"><metadata/><defs><font id="shorooq_yaraaregular" horiz-adv-x="447"><font-face ascent="1536" descent="-512" units-per-em="2048"/><glyph horiz-adv-x="0"/><glyph horiz-adv-x="682"/><glyph horiz-adv-x="508"/><glyph horiz-adv-x="508"/><glyph horiz-adv-x="508"/><glyph d="M69 87q0 39 28 67q29 27 68 27q39 1 66 -27t27 -67t-27 -67t-67 -28t-67 28q-28 28 -28 67zM76 1076q0 202 88 203q88 -1 88 -203t-34 -452t-54 -250t-54 250t-34 452z" horiz-adv-x="328" unicode="!"/><glyph d="M96 1204v218h172v-218l-42 -248h-88zM406 1204v218h172v-218l-43 -248h-87z" horiz-adv-x="672" unicode="&quot;"/><glyph d="M141 390v119h186l68 349h-254v121h279l83 403h120l-82 -403h314l82 403h121l-83 -403h160v-121h-185l-69 -349h254v-119h-279l-82 -405h-120l83 405h-316l-82 -405h-119l82 405h-161zM446 509h316l68 349h-314z" horiz-adv-x="1277" unicode="#"/><glyph d="M53 47v142q122 -72 254 -75v465q-252 198 -252 370q0 100 66 178t186 95v60h92v-52q109 -2 222 -57v-136q-108 65 -222 66v-400q250 -187 250 -403q0 -112 -65 -196t-185 -115v-190h-92v179q-158 15 -254 69zM188 960q0 -88 119 -183v317q-119 -46 -119 -134zM399 129 q122 62 122 171t-122 205v-376z" horiz-adv-x="705" unicode="$"/><glyph d="M34 949q0 329 166 329t166 -329t-166 -329t-166 329zM138 950q0 -246 62 -246t62 246t-62 247q-62 -1 -62 -247zM195 -51l645 1333h96l-642 -1333h-99zM774 322q0 329 166 329t165 -329q1 -329 -165 -329t-166 329zM878 322q0 -246 62 -246t61 246q1 246 -61 247 q-62 -1 -62 -247z" horiz-adv-x="1140" unicode="%"/><glyph d="M55 357q0 220 194 393q-73 162 -73 270t66 184t157 77q90 1 150 -65t60 -162q0 -158 -189 -325l129 -305h19q34 137 41 208h126q-15 -188 -105 -383l117 -257h-155l-52 121q-106 -121 -215 -121t-189 106t-81 259zM200 379q0 -109 40 -175t108 -67q68 0 133 108l-171 380 q-110 -137 -110 -246zM305 1030q0 -68 59 -184q124 123 124 209q0 118 -89 118q-40 0 -67 -37q-27 -38 -27 -106z" horiz-adv-x="778" unicode="&amp;"/><glyph d="M83 377q0 464 254 871h63q-178 -298 -178 -872t178 -870h-63q-254 407 -254 871z" horiz-adv-x="416" unicode="("/><glyph d="M16 -494q178 296 178 870t-178 872h63q254 -407 254 -871t-254 -871h-63z" horiz-adv-x="416" unicode=")"/><glyph d="M63 1123q0 51 53 51t176 -109q-52 -7 -95 -7q-134 0 -134 65zM145 867q0 52 162 150q-39 -202 -104 -202q-58 0 -58 52zM279 1279q-1 55 53 55t54 -55t-54 -183q-53 127 -53 183zM292 1065q4 1 8 1l-2 -6q-3 3 -6 5zM299 1063q11 22 34 27q22 -4 35 -26q0 -22 -13 -42 q-21 -7 -42 0q-17 18 -14 41zM307 1017q1 4 1 7q5 -2 6 -3q-3 -2 -7 -4zM330 1090l2 6q2 -6 1 -6h-3zM353 1020q1 2 6 4q1 -5 2 -9q-4 2 -8 5zM361 1015q161 -99 161 -147q0 -20 -18 -36t-40 -17q-68 0 -103 200zM368 1066q3 -1 6 -1q-6 -6 -6 1zM374 1065q121 109 176 109 q54 0 54 -51q0 -65 -136 -65q-44 0 -94 7z" horiz-adv-x="665" unicode="*"/><glyph d="M198 621v139h373v373h139v-373h374v-139h-374v-373h-139v373h-373z" horiz-adv-x="1283" unicode="+"/><glyph d="M45 69q0 41 26 70q27 29 71 29t77 -44q32 -44 32 -116q0 -183 -179 -260q64 94 52 228q-79 18 -79 93z" horiz-adv-x="326" unicode=","/><glyph d="M59 383v141h327v-141h-327z" unicode="-"/><glyph d="M69 87q0 39 28 67q29 27 68 27q39 1 66 -27t27 -67t-27 -67t-67 -28t-67 28q-28 28 -28 67z" horiz-adv-x="328" unicode="."/><glyph d="M20 -8l358 1276h116l-359 -1276h-115z" horiz-adv-x="514" unicode="/"/><glyph d="M75 633q-1 648 267 648t268 -649q0 -367 -79 -521q-63 -126 -190 -126q-266 0 -266 648zM223 632q-1 -516 119 -516t120 516q0 263 -19 368q-26 152 -100 152q-79 0 -105 -162q-15 -100 -15 -358z" horiz-adv-x="688" unicode="0"/><glyph d="M284 10v1259h145v-1259h-145z" horiz-adv-x="716" unicode="1"/><glyph d="M69 10v12q337 556 337 882q0 100 -47 162t-115 62t-148 -36v148q91 42 175 42q132 0 208 -94t76 -254q0 -236 -278 -781h304v-143h-512z" horiz-adv-x="690" unicode="2"/><glyph d="M94 20v140q67 -34 140 -34q74 0 122 66t48 176q0 215 -166 237v145q151 22 151 196q1 90 -43 144t-109 53q-65 0 -114 -28v138q56 28 137 28q118 -1 198 -89t80 -219q0 -185 -209 -293q224 -78 224 -327q-1 -152 -89 -260t-215 -108q-64 0 -155 35z" horiz-adv-x="694" unicode="3"/><glyph d="M55 361v134l344 787h136v-826h70v-95h-70v-351h-145v351h-335zM143 456h247v533h-21z" horiz-adv-x="687" unicode="4"/><glyph d="M106 17v134q65 -25 118 -25q96 0 151 68t55 184t-59 180t-162 65q-49 0 -57 -4v648h386v-129h-245v-398q285 -34 285 -355q0 -171 -92 -285t-231 -115q-76 0 -149 32z" horiz-adv-x="693" unicode="5"/><glyph d="M100 416q0 237 116 472l185 379h142l-248 -509q58 16 88 16q101 0 165 -104t64 -278q0 -175 -74 -291t-178 -116t-172 85q-88 109 -88 346zM248 380q0 -254 108 -254t108 280q0 227 -108 227q-108 1 -108 -253z" horiz-adv-x="690" unicode="6"/><glyph d="M94 1138v129h501l-265 -1280l-135 31l228 1120h-329z" horiz-adv-x="689" unicode="7"/><glyph d="M79 353q0 211 155 309q-140 108 -140 280t90 265q72 74 162 74t168 -88q78 -87 79 -255q0 -168 -139 -276q155 -101 155 -304q0 -171 -73 -272q-72 -101 -192 -101q-120 1 -192 101t-73 267zM227 358q0 -100 31 -166q32 -66 86 -66t85 66t31 166q0 223 -116 223 t-117 -223zM243 930q0 -210 98 -209q98 -1 98 209t-98 210t-98 -210z" horiz-adv-x="689" unicode="8"/><glyph d="M100 879q0 175 75 289t185 114t181 -107t71 -331t-114 -460l-178 -374h-141l239 498q-67 -14 -87 -14q-101 0 -166 106t-65 279zM248 864q0 -229 108 -229t108 253t-108 253t-108 -277z" horiz-adv-x="690" unicode="9"/><glyph d="M69 87q0 39 28 67q29 27 68 27q39 1 66 -27t27 -67t-27 -67t-67 -28t-67 28q-28 28 -28 67zM69 766q0 38 28 66q27 28 67 28t67 -28t27 -66t-27 -66t-67 -28t-67 28q-28 28 -28 66z" horiz-adv-x="328" unicode=":"/><glyph d="M45 69q0 41 26 70q27 29 71 29t77 -44q32 -44 32 -116q0 -183 -179 -260q64 94 52 228q-79 18 -79 93zM68 750q0 38 28 66t67 28t67 -27q27 -29 27 -67t-27 -67q-28 -27 -67 -27t-67 28t-28 66z" horiz-adv-x="326" unicode=";"/><glyph d="M198 621v143l888 376v-147l-737 -300l737 -300v-147z" horiz-adv-x="1283" unicode="&lt;"/><glyph d="M198 428v139h886v-139h-886zM198 841v139h886v-139h-886z" horiz-adv-x="1283" unicode="="/><glyph d="M198 246v147l737 300l-737 300v147l888 -376v-143z" horiz-adv-x="1283" unicode="&gt;"/><glyph d="M56 -8q0 106 107 106q102 0 102 -106t-102 -105q-107 -1 -107 105zM74 557q20 143 152 143h141q84 0 83 91q-5 175 -128 239q-37 19 -203 19l3 133q38 6 81 6q358 0 384 -479q7 -141 -183 -141h-185q-35 -177 -8 -345l-99 -6q-38 205 -38 340z" horiz-adv-x="681" unicode="?"/><glyph d="M235 406q0 326 170 559q210 286 602 286q321 0 506 -210q165 -189 165 -473t-187 -461q-152 -146 -307 -146q-105 0 -141 121q-121 -121 -240 -121t-201 109t-82 309t109 375q115 190 281 190q120 0 227 -155l20 122h161l-115 -728q-13 -85 43 -85q82 0 174 107 q117 141 117 377q1 236 -143 383t-387 147q-281 0 -456 -191t-175 -495t170 -486t442 -182t492 174h188q-98 -126 -284 -218t-388 -93q-326 -1 -544 229t-217 556zM707 296q0 -208 139 -207q56 0 112 54q118 118 118 475q0 184 -133 184q-110 0 -175 -158q-61 -140 -61 -348 z" horiz-adv-x="1956" unicode="@"/><glyph d="M14 10l237 1267h154l236 -1267h-139l-46 283h-253l-50 -283h-139zM224 427h207l-94 555h-20z" horiz-adv-x="655" unicode="A"/><glyph d="M120 10v1259h185h3q143 0 233 -91q91 -92 91 -215q0 -169 -177 -277q206 -96 206 -317q-1 -147 -97 -253t-299 -106h-145zM265 143h39q212 0 212 221q0 94 -52 162t-160 68h-39v-451zM265 727h25q90 1 144 57q53 55 53 149q0 203 -197 203h-25v-409z" horiz-adv-x="729" unicode="B"/><glyph d="M65 622q1 300 85 482q84 181 252 181h2q77 0 166 -62v-137q-67 66 -155 66q-111 0 -158 -138q-40 -116 -40 -377v-11q0 -253 45 -376q46 -126 159 -126q74 0 164 81v-146q-85 -67 -185 -67q-159 0 -247 165t-88 465z" horiz-adv-x="623" unicode="C"/><glyph d="M112 10v1259h172q429 0 429 -628q0 -355 -138 -512q-102 -119 -268 -119h-195zM257 143h35q150 1 212 115t63 382q-1 268 -61 382t-210 114h-39v-993z" horiz-adv-x="791" unicode="D"/><glyph d="M118 10v1259h435v-133h-290v-403h266v-133h-266v-457h306v-133h-451z" horiz-adv-x="692" unicode="E"/><glyph d="M118 10v1259h378v-133h-233v-401h218v-133h-218v-592h-145z" horiz-adv-x="617" unicode="F"/><glyph d="M69 633q0 303 107 477t285 175q106 0 235 -87v-149q-128 113 -227 113q-255 0 -255 -519t270 -519q20 0 67 9v410h-113v133h258v-613q-113 -71 -215 -71q-189 0 -301 169q-111 168 -111 467v5z" horiz-adv-x="789" unicode="G"/><glyph d="M120 10v1259h145v-563h263v563h144v-1259h-144v563h-263v-563h-145z" horiz-adv-x="794" unicode="H"/><glyph d="M114 10v1259h145v-1259h-145z" horiz-adv-x="374" unicode="I"/><glyph d="M-67 -268q26 -2 48 -2q72 0 99 22q36 29 36 150v1340h145v-1313q0 -332 -242 -332q-33 0 -71 6z" horiz-adv-x="380" unicode="J"/><glyph d="M122 10v1259h145v-1259h-145zM292 649l179 620h146l-198 -599l247 -660h-149z" horiz-adv-x="660" unicode="K"/><glyph d="M120 10v1259h145v-1126h316v-133h-461z" horiz-adv-x="588" unicode="L"/><glyph d="M114 10v1259h125l196 -486l197 486h125v-1259h-141l9 919l-17 17l-164 -428h-17l-163 426l-19 -14l10 -920h-141z" horiz-adv-x="871" unicode="M"/><glyph d="M120 10v1259h117l283 -789h22v789h130v-1259h-116l-284 797h-21v-797h-131z" horiz-adv-x="794" unicode="N"/><glyph d="M71 618q0 284 77 461q89 206 251 206t252 -191q85 -176 85 -474t-103 -473q-93 -155 -233 -155t-231 163q-98 179 -98 463zM223 638q0 -514 183 -514q86 0 132 136t46 378q0 514 -180 514t-181 -514z" horiz-adv-x="806" unicode="O"/><glyph d="M126 10v1259h164h4q167 0 268 -89q102 -90 103 -255q0 -165 -93 -259t-257 -95h-44v-561h-145zM271 704h39q211 0 211 230q0 202 -241 202h-9v-432z" horiz-adv-x="709" unicode="P"/><glyph d="M71 622q0 270 85 458t250 188q142 0 236 -173t94 -473q0 -474 -233 -620q103 -132 174 -132q40 0 68 28l14 -8l-98 -151q-163 21 -322 246q-268 103 -268 637zM223 622q0 -514 183 -514q178 0 178 514t-180 514t-181 -514z" horiz-adv-x="800" unicode="Q"/><glyph d="M120 10v1259h127q175 0 261 -113q67 -88 67 -231q0 -177 -139 -274q109 -79 181 -390l57 -251h-152l-48 213q-47 204 -82 275q-41 84 -111 84q-8 0 -16 -1v-571h-145zM265 716h17q148 0 148 208t-165 212v-420z" horiz-adv-x="685" unicode="R"/><glyph d="M57 995q0 132 70 211t181 79q61 0 127 -30v-132q-57 33 -105 33q-134 0 -134 -132q0 -96 138 -352t138 -390t-70 -212t-185 -78q-80 0 -153 46v141q58 -58 124 -58h3q64 0 103 39t39 92q0 95 -138 353t-138 390z" horiz-adv-x="525" unicode="S"/><glyph d="M20 1136v133h539v-133h-197v-1126h-145v1126h-197z" horiz-adv-x="582" unicode="T"/><glyph d="M110 315v953h145v-951q1 -193 131 -193t130 185v959h144v-940q0 -179 -100 -270q-76 -66 -184 -66t-187 90t-79 233z" horiz-adv-x="771" unicode="U"/><glyph d="M18 1268h151l117 -862h22l118 862h152l-231 -1276h-97z" horiz-adv-x="596" unicode="V"/><glyph d="M20 1268h151l152 -859h20l173 859h102l163 -879h20l161 879h151l-269 -1276h-97l-172 856h-21l-168 -856h-96z" horiz-adv-x="1133" unicode="W"/><glyph d="M16 10l221 670l-190 589h154l113 -423h20l115 423h153l-188 -589l221 -670h-154l-147 475h-19l-144 -475h-155z" horiz-adv-x="651" unicode="X"/><glyph d="M14 1269h147l112 -502h19l117 502h148l-200 -684v-575h-145v575z" horiz-adv-x="574" unicode="Y"/><glyph d="M32 10l295 1126h-263v133h439l-294 -1126h297v-133h-474z" horiz-adv-x="540" unicode="Z"/><glyph d="M163 -473v1711h311v-121h-181v-1469h181v-121h-311z" horiz-adv-x="489" unicode="["/><glyph d="M20 1268h115l359 -1276h-116z" horiz-adv-x="514" unicode="\"/><glyph d="M14 -352h182v1469h-182v121h311v-1711h-311v121z" horiz-adv-x="489" unicode="]"/><glyph d="M53 700l322 729h124l320 -729h-150l-233 576l-231 -576h-152z" horiz-adv-x="874" unicode="^"/><glyph d="M-12 -171h961v-75h-961v75z" horiz-adv-x="936" unicode="_"/><glyph d="M65 194q1 88 67 157q66 68 257 179v87q0 121 -97 121t-205 -123v141q111 104 205 104t160 -56t66 -162v-479q0 -60 33 -60q17 0 49 29v-85q-64 -57 -106 -57q-76 0 -105 119q-91 -124 -161 -124q-70 1 -116 61q-47 60 -47 148zM193 220q0 -113 83 -113q68 0 113 105v239 q-196 -118 -196 -231z" horiz-adv-x="622" unicode="a"/><glyph d="M94 9v1259h130v-475h19q41 68 127 68t148 -89q81 -112 81 -336v-6q0 -219 -69 -326q-70 -108 -166 -108q-69 0 -140 80v-67h-130zM224 207q44 -90 111 -90q130 1 130 311t-140 310q-60 0 -101 -86v-445z" horiz-adv-x="668" unicode="b"/><glyph d="M71 420q1 192 83 316t212 124q62 0 124 -28v-128q-55 34 -102 34q-86 0 -135 -86t-49 -230q0 -143 53 -229t147 -86q53 0 99 37v-117q-66 -42 -137 -42h-2q-128 0 -210 121q-83 122 -83 314z" horiz-adv-x="524" unicode="c"/><glyph d="M65 417q0 198 66 321t171 123q70 0 143 -88v495h128v-1259h-128v66h-20q-51 -79 -137 -79t-154 112t-69 309zM198 432q0 -306 131 -307q73 0 116 88v433q-35 92 -109 92q-138 0 -138 -306z" horiz-adv-x="667" unicode="d"/><glyph d="M69 422q0 212 61 324q58 114 164 114t169 -121q50 -88 50 -322v-18h-314q0 -296 161 -296q85 0 135 65v-114q-73 -69 -164 -69q-123 0 -193 112q-69 111 -69 319v6zM197 490h186q0 260 -96 260q-90 0 -90 -260z" horiz-adv-x="589" unicode="e"/><glyph d="M45 728v110h67v145q0 303 274 303h5v-104q-150 0 -150 -208v-136h82v-110h-82v-718h-129v718h-67z" horiz-adv-x="340" unicode="f"/><glyph d="M40 -266q0 140 161 208q-111 50 -111 128t129 131q-141 97 -141 293q0 141 62 226t179 85h279v-110h-120q55 -91 55 -231t-85 -225q-48 -49 -140 -63q-91 -14 -91 -73q0 -61 131 -88q130 -27 189 -86t59 -170t-78 -181t-200 -70t-202 65q-76 66 -76 161zM156 -247 q0 -63 44 -101t115 -38t118 40t47 98q0 60 -50 102t-120 43q-69 0 -112 -40q-42 -41 -42 -104zM194 492q0 -220 114 -220q109 0 109 220t-109 220q-114 0 -114 -220z" horiz-adv-x="621" unicode="g"/><glyph d="M104 10v1259h130v-515h19q63 107 141 107t132 -56t54 -173v-622h-129v604q0 133 -89 133q-72 0 -128 -107v-630h-130z" horiz-adv-x="670" unicode="h"/><glyph d="M90 1210q0 32 22 54t54 22t54 -22t22 -54t-22 -54t-54 -22t-54 22t-22 54zM101 10v828h130v-828h-130z" horiz-adv-x="330" unicode="i"/><glyph d="M-10 -354q50 9 72 53t22 145v962h129v-899q0 -168 -19 -225q-51 -144 -204 -160v124zM67 1178q0 32 22 55q23 21 54 21t53 -22t23 -54q-1 -32 -23 -54t-54 -22t-53 22q-22 22 -22 54z" horiz-adv-x="305" unicode="j"/><glyph d="M98 10v1259h130v-1259h-130zM264 437l207 401h134l-219 -392l248 -436h-144z" horiz-adv-x="638" unicode="k"/><glyph d="M90 10v1259h130v-1259h-130z" horiz-adv-x="312" unicode="l"/><glyph d="M98 10v828h130v-92h19q63 106 157 106t167 -136q95 136 173 136t129 -60t51 -180v-602h-129v593q0 136 -91 136q-65 0 -129 -106v-623h-128v591q0 138 -93 138q-62 0 -126 -108v-621h-130z" horiz-adv-x="1008" unicode="m"/><glyph d="M100 10v828h130v-92h19q64 106 146 106q81 0 131 -62t50 -179v-601h-129v597q0 132 -91 132q-71 0 -126 -109v-620h-130z" horiz-adv-x="670" unicode="n"/><glyph d="M67 421v6q0 203 69 317q70 116 188 116t186 -116t69 -323q-1 -206 -69 -321t-186 -115t-188 115q-69 113 -69 315v6zM200 422q0 -315 123 -315h1h1q122 0 122 310v5.5v4.5q0 311 -123 311q-124 0 -124 -316z" horiz-adv-x="647" unicode="o"/><glyph d="M100 -479v1285h130v-61h18q48 75 123 75q99 0 167 -125q67 -123 67 -310v-5q0 -190 -67 -308q-64 -117 -167 -117q-67 0 -123 75h-18v-509h-130zM230 161q56 -84 112 -84q129 1 129 311t-142 310q-66 0 -99 -83v-454z" horiz-adv-x="668" unicode="p"/><glyph d="M65 390v6q0 198 65 310q66 114 168 114q78 0 126 -76h21v62h128v-1285h-128v507h-21q-46 -73 -124 -73q-100 1 -168 117q-67 114 -67 312v6zM198 388q0 -310 142 -311q67 0 105 92v435q-43 94 -114 94q-133 0 -133 -310z" horiz-adv-x="667" unicode="q"/><glyph d="M104 10v828h130v-229h21q45 155 73 199t71 44t72 -20l-11 -131q-20 14 -56 14q-82 0 -133 -155q-37 -112 -37 -223v-327h-130z" horiz-adv-x="465" unicode="r"/><glyph d="M57 49v134q70 -76 138 -76q85 0 85 83q0 60 -107 220t-107 252t49 144q49 54 123 54t134 -49v-116q-58 48 -118 48q-69 0 -69 -72q1 -55 111 -212t110 -257t-55 -158t-135 -59q-80 0 -159 64z" horiz-adv-x="466" unicode="s"/><glyph d="M32 726q100 120 227 324v-214h140v-110h-140v-494q0 -125 70 -125q29 0 70 18v-110q-71 -30 -123 -30q-147 0 -147 180v561h-97zM259 1050v5h3q-2 -2 -3 -5z" horiz-adv-x="421" unicode="t"/><glyph d="M88 229v608h130v-597q0 -130 90 -130q84 0 127 108v619h129v-828h-129v92h-20q-61 -105 -142 -105t-133 59t-52 174z" horiz-adv-x="670" unicode="u"/><glyph d="M14 837h129l124 -485h19l124 485h129l-250 -847h-27z" horiz-adv-x="553" unicode="v"/><glyph d="M12 837h130l107 -456h21l126 456h41l126 -456h20l107 456h131l-225 -847h-26l-143 509h-21l-143 -509h-26z" horiz-adv-x="833" unicode="w"/><glyph d="M30 10l191 423l-191 405h135l124 -286l117 286h131l-179 -405l200 -423h-135l-135 309l-123 -309h-135z" horiz-adv-x="591" unicode="x"/><glyph d="M16 806h134l138 -443h18l124 443h127l-361 -1296h-130l171 607z" horiz-adv-x="574" unicode="y"/><glyph d="M28 10l265 718h-244v110h421l-268 -718h279v-110h-453z" horiz-adv-x="518" unicode="z"/><glyph d="M59 313v133q104 6 149 78t45 239v144q1 201 63 281t212 80h53v-122h-19q-104 0 -138 -42t-33 -165v-136q0 -189 -41 -279t-172 -144q130 -54 172 -144t41 -279v-137q0 -123 33 -165t138 -42h19v-121h-53q-150 0 -212 80t-63 281v144q-1 167 -45 239t-149 77z" horiz-adv-x="626" unicode="{"/><glyph d="M460 -502v1895h130v-1895h-130z" horiz-adv-x="1049" unicode="|"/><glyph d="M47 -387h17q105 -1 139 41t34 166v137q-1 189 41 279t172 144q-131 54 -172 144t-41 279v136q0 125 -33 166t-138 41h-19v122h54q147 0 211 -79t64 -282v-144q0 -169 44 -241t149 -76v-133q-105 -5 -149 -76t-44 -240v-144q0 -203 -64 -282t-211 -79h-54v121z" horiz-adv-x="626" unicode="}"/><glyph d="M131 617v108q139 112 264 112q89 1 245 -75t222 -76q124 0 260 120v-109q-135 -114 -242 -114q-106 -1 -262 75t-223 76q-125 0 -264 -117z" horiz-adv-x="1253" unicode="~"/><glyph d="M59 383v141h327v-141h-327z" unicode="­"/><glyph horiz-adv-x="714"/><glyph horiz-adv-x="1429"/><glyph horiz-adv-x="714"/><glyph horiz-adv-x="1429"/><glyph horiz-adv-x="476"/><glyph horiz-adv-x="357"/><glyph horiz-adv-x="238"/><glyph horiz-adv-x="238"/><glyph horiz-adv-x="178"/><glyph horiz-adv-x="285"/><glyph horiz-adv-x="79"/><glyph d="M59 383v141h327v-141h-327z" unicode="‐"/><glyph d="M59 383v141h327v-141h-327z" unicode="‑"/><glyph d="M59 383v141h327v-141h-327z" unicode="‒"/><glyph d="M59 383v141h1024v-141h-1024z" horiz-adv-x="1144" unicode="–"/><glyph d="M59 383v141h2048v-141h-2048z" horiz-adv-x="2168" unicode="—"/><glyph d="M65 1082q0 182 179 259v-1q-63 -91 -52 -226q79 -18 79 -94q0 -42 -27 -70t-71 -29q-44 0 -76 44t-32 117z" horiz-adv-x="326" unicode="‘"/><glyph d="M55 1247q0 41 26 70q27 28 72 28q45 1 77 -43t31 -117q0 -183 -179 -260v1q64 91 52 227q-79 18 -79 94z" horiz-adv-x="326" unicode="’"/><glyph horiz-adv-x="285"/><glyph horiz-adv-x="357"/><glyph d="M0 0v840h840v-840h-840z" horiz-adv-x="840" unicode="◼"/></font>
</defs>
</svg>
