<?xml version="1.0" standalone="no"?>
<!DOCTYPE svg PUBLIC "-//W3C//DTD SVG 1.1//EN" "http://www.w3.org/Graphics/SVG/1.1/DTD/svg11.dtd" >
<svg xmlns="http://www.w3.org/2000/svg" xmlns:xlink="http://www.w3.org/1999/xlink" version="1.1">
<metadata></metadata>
<defs>
<font id="shorooq_yaraaregular" horiz-adv-x="0" >
<font-face units-per-em="2048" ascent="1536" descent="-512" />
<missing-glyph horiz-adv-x="508" />
<glyph unicode="&#xfedf;&#xfee0;&#xfeea;" horiz-adv-x="1552" arabic-form="isolated" d="M784 1497l261 34l6 -41l-261 -33zM871 1231h14v1q28 1 28 68v73h34v-73q0 -71 41 -69q39 1 39 68v101h35l-1 -100q0 -48 -19 -77t-48 -29t-64 32q-33 -30 -45 -31v-1h-13q-36 0 -55.5 28.5t-19.5 77.5v99h35v-100q0 -68 39 -68zM221 326q-68 0 -121 50q-50 50 -50 115 q0 165 178 298q57 42 215 110v31h123v-607h-1q1 -169 128 -181q4 -1 20 -1h16q149 0 149 177v770h131l1 -770q0 -177 144 -177h68q148 0 148 178v946h131l1 -944q-1 -137 -40 -197q-73 -111 -240 -114h-68q-124 0 -211 80q-87 -80 -209 -80l-2 1l-19 -1q-167 2 -240 114 q-39 60 -40 197v26q-73 -21 -212 -21zM191 537q0 -80 95 -80h157v316q-74 -32 -133 -73q-119 -83 -119 -163z" />
<glyph unicode="&#xfedf;&#xfe82;" horiz-adv-x="796" arabic-form="isolated" d="M318 1248v-43l2 -2q-54 -13 -130 4.5t-134 1.5v47q51 18 137 -6q68 -11 96.5 -6t28.5 4zM614 319v946h131l1 -944q-1 -137 -40 -197q-73 -111 -240 -114h-135q-129 2 -128 168q40 -37 131 -38l7 3q127 51 52 193l-282 704l123 52l282 -701q47 -116 30 -191 q-2 -12 -15 -52q83 60 83 171zM56 1256v1l-1 -1h1z" />
<glyph unicode="&#xfee0;&#xfe82;" horiz-adv-x="917" arabic-form="final" d="M318 1261v-43l2 -2q-50 -14 -128 4t-136 2v47q51 18 137 -6q68 -11 96.5 -6t28.5 4zM614 319v946h131l1 -944q10 -181 146 -179h35v-132h-35q-124 0 -211 80q-78 -78 -215 -80h-135q-129 2 -128 168q40 -37 131 -38l7 3q128 51 43 193l-281 703l131 53l282 -701 q47 -116 30 -191q-2 -12 -15 -52q83 60 83 171zM56 1269v1l-1 -1h1z" />
<glyph unicode="&#xfedf;&#xfe84;" horiz-adv-x="833" arabic-form="isolated" d="M321 1224h78v-40h-275v39h66q-103 76 -26.5 157.5t211.5 16.5v-37q-142 57 -184 -23q-36 -67 79 -104q24 -9 51 -9zM688 319v946h131l1 -944q-1 -137 -40 -197q-73 -111 -240 -114h-135q-130 1 -128 168q40 -37 131 -38l7 3q127 51 52 193l-282 704l123 52l282 -701 q47 -116 30 -191q-2 -12 -15 -52q83 60 83 171z" />
<glyph unicode="&#xfee0;&#xfe84;" horiz-adv-x="953" arabic-form="final" d="M321 1232h78v-40h-275v39h66q-103 76 -26.5 157.5t211.5 16.5v-37q-142 57 -184 -23q-36 -67 79 -104q24 -9 51 -9zM687 319v946h131l1 -944q10 -181 146 -179h35v-132h-35q-122 0 -211 80q-78 -78 -215 -80h-135q-130 1 -128 168q40 -37 131 -38l7 3q128 51 43 193 l-281 703l131 53l282 -701q47 -116 30 -191q-2 -12 -15 -52q83 60 83 171z" />
<glyph unicode="&#xfedf;&#xfe88;" horiz-adv-x="735" arabic-form="isolated" d="M441 -301h78v-40h-275v39h66q-102 76 -26 158q79 80 211 16v-37q-142 57 -184 -23q-36 -67 79 -104q24 -9 51 -9zM553 319v946h131l1 -944q-1 -137 -40 -197q-73 -111 -240 -114h-135q-129 2 -128 168q40 -37 131 -38l7 3q127 51 52 193l-282 704l123 52l282 -701 q47 -116 30 -191q-2 -12 -15 -52q83 60 83 171z" />
<glyph unicode="&#xfee0;&#xfe88;" horiz-adv-x="864" arabic-form="final" d="M477 -302h78v-40h-275v39h66q-102 76 -26 158q79 80 211 16v-37q-142 57 -184 -23q-36 -67 79 -104q24 -9 51 -9zM561 319v946h131l1 -944q10 -181 146 -179h35v-132h-35q-122 0 -211 80q-78 -78 -215 -80h-135q-129 2 -128 168q40 -37 131 -38l7 3q128 51 43 193 l-281 703l131 53l282 -701q47 -116 30 -191q-2 -12 -15 -52q83 60 83 171z" />
<glyph unicode="&#xfedf;&#xfe8e;" horiz-adv-x="735" arabic-form="isolated" d="M553 319v946h131l1 -944q-1 -137 -40 -197q-73 -111 -240 -114h-135q-129 2 -128 168q40 -37 131 -38l7 3q127 51 52 193l-282 704l123 52l282 -701q47 -116 30 -191q-2 -12 -15 -52q83 60 83 171z" />
<glyph unicode="&#xfee0;&#xfe8e;" horiz-adv-x="864" arabic-form="final" d="M561 319v946h131l1 -944q10 -181 146 -179h35v-132h-35q-122 0 -211 80q-78 -78 -215 -80h-135q-129 2 -128 168q40 -37 131 -38l7 3q128 51 43 193l-281 703l131 53l282 -701q47 -116 30 -191q-2 -12 -15 -52q83 60 83 171z" />
<glyph unicode="&#x622;" horiz-adv-x="399" arabic-form="final" d="M318 1401v-43l2 -2q-50 -14 -128 4t-136 2v47q51 18 137 -6q68 -11 96.5 -6t28.5 4zM235 1266v-947q0 -167 148 -177h33v-132h-33q-167 6 -239 114q-40 60 -40 197l-2 945h133zM56 1409v1l-1 -1h1z" />
<glyph unicode="&#x623;" horiz-adv-x="447" arabic-form="final" d="M321 1394h78v-40h-275v39h66q-103 76 -26.5 157.5t211.5 16.5v-37q-142 57 -184 -23q-36 -67 79 -104q24 -9 51 -9zM319 1266v-947q0 -167 148 -177h33v-132h-33q-169 2 -241 114q-38 60 -38 197l-2 945h133z" />
<glyph unicode="&#x624;" horiz-adv-x="737" arabic-form="final" d="M354 814h78v-40h-275v39h66q-103 76 -26.5 157.5t211.5 16.5v-37q-142 57 -184 -23q-36 -67 79 -104q24 -9 51 -9zM444 380q0 98 -115 98q-139 0 -139 -159q-14 -174 254 -180v241zM757 10h-181q-18 -163 -128 -249q-136 -109 -303 -112q-47 0 -95 8v135q171 -44 304 62 q55 43 82 156q-385 0 -386 337q0 271 371 271q65 0 116 -51t51 -122q-1 -133 -4 -303h173v-132z" />
<glyph unicode="&#x625;" horiz-adv-x="392" arabic-form="final" d="M320 -272h78v-40h-275v39h66q-102 76 -26 158q79 80 211 16v-37q-142 57 -184 -23q-34 -67 79 -104q24 -9 51 -9zM260 1266v-947q0 -167 148 -177h33v-132h-33q-168 6 -240 114q-40 60 -39 197l-2 945h133z" />
<glyph unicode="&#x626;" horiz-adv-x="1089" arabic-form="final" d="M321 293h78v-40h-275v39h66q-103 76 -26.5 157.5t211.5 16.5v-37q-142 57 -184 -23q-36 -67 79 -104q24 -9 51 -9zM1138 10h-69q0 -150 -116.5 -271.5t-340.5 -121.5t-341 152q-62 80 -81 232q-10 78 -6 141h111q-10 -62 14.5 -161.5t104.5 -166t192 -66.5q169 0 248 66 t85 196q-145 4 -201 129l65 132q51 -129 201 -129h134v-132z" />
<glyph unicode="&#x626;" horiz-adv-x="556" arabic-form="initial" d="M452 618v-297q0 -137 -40 -197q-74 -112 -239 -114h-183v132h183q147 -2 147 177v299h132zM428 749h78v-40h-275v39h66q-103 76 -26.5 157.5t211.5 16.5v-37q-142 57 -184 -23q-36 -67 79 -104q24 -9 51 -9z" />
<glyph unicode="&#x626;" horiz-adv-x="593" arabic-form="medial" d="M-10 10v132h153q149 -4 149 176v297h133v-297q0 -178 143 -176h35v-132h-35q-121 0 -210 80q-89 -80 -211 -80h-157zM413 752h78v-40h-275v39h66q-103 76 -26.5 157.5t211.5 16.5v-37q-142 57 -184 -23q-36 -67 79 -104q24 -9 51 -9z" />
<glyph unicode="&#x627;" horiz-adv-x="354" arabic-form="final" d="M183 1266v-947q0 -167 148 -177h33v-132h-33q-167 6 -239 114q-40 60 -40 197l-2 945h133z" />
<glyph unicode="&#x628;" horiz-adv-x="1479" arabic-form="final" d="M50 299q0 318 389 318v-130q-259 0 -259 -167q0 -180 179 -178h677q149 11 149 177v297h132v-297q0 -167 148 -177h31v-132h-35q-122 0 -211 80q-93 -83 -211 -80h-593q-274 1 -335 86t-61 203zM796 -229q0 -95 -95 -95t-95 95t95 95t95 -95z" />
<glyph unicode="&#x628;" horiz-adv-x="502" arabic-form="initial" d="M452 618v-297q0 -137 -40 -197q-74 -112 -239 -114h-183v132h183q147 -2 147 177v299h132zM268 -231q0 -95 -95 -95t-95 95t95 95t95 -95z" />
<glyph unicode="&#x628;" horiz-adv-x="593" arabic-form="medial" d="M-10 10v132h153q149 -4 149 176v297h133v-297q0 -178 143 -176h35v-132h-35q-121 0 -210 80q-89 -80 -211 -80h-157zM343 -232q0 -95 -95 -95t-95 95t95 95t95 -95z" />
<glyph unicode="&#x629;" horiz-adv-x="729" arabic-form="final" d="M517 907q0 -95 -95 -95t-95 95t95 95t95 -95zM305 907q0 -95 -95 -95t-95 95t95 95t95 -95zM739 10h-296v28q-71 -25 -222 -25q-68 0 -121 50q-50 50 -50 115q0 165 178 298q57 42 215 110v31h123v-475h173v-132zM191 222q0 -80 95 -80h157v316q-74 -32 -133 -73 q-119 -83 -119 -163z" />
<glyph unicode="&#x62a;" horiz-adv-x="1479" arabic-form="final" d="M50 299q0 318 389 318v-130q-259 0 -259 -167q0 -180 179 -178h677q149 11 149 177v297h132v-297q0 -167 148 -177h31v-132h-35q-122 0 -211 80q-93 -83 -211 -80h-593q-274 1 -335 86t-61 203zM970 907q0 -95 -95 -95t-95 95t95 95t95 -95zM758 907q0 -95 -95 -95 t-95 95t95 95t95 -95z" />
<glyph unicode="&#x62a;" horiz-adv-x="504" arabic-form="initial" d="M454 618v-297q0 -137 -40 -197q-74 -112 -239 -114h-183v132h183q147 -2 147 177v299h132zM482 907q0 -95 -95 -95t-95 95t95 95t95 -95zM270 907q0 -95 -95 -95t-95 95t95 95t95 -95z" />
<glyph unicode="&#x62a;" horiz-adv-x="593" arabic-form="medial" d="M-10 10v132h153q149 -4 149 176v297h133v-297q0 -178 143 -176h35v-132h-35q-121 0 -210 80q-89 -80 -211 -80h-157zM561 907q0 -95 -95 -95t-95 95t95 95t95 -95zM349 907q0 -95 -95 -95t-95 95t95 95t95 -95z" />
<glyph unicode="&#x62b;" horiz-adv-x="1486" arabic-form="final" d="M868 991q0 -95 -95 -95t-95 95t95 95t95 -95zM974 791q0 -95 -95 -95t-95 95t95 95t95 -95zM766 791q0 -95 -95 -95t-95 95t95 95t95 -95zM50 299q0 318 389 318v-130q-259 0 -259 -167q0 -180 179 -178h677q149 11 149 177v297h132v-297q0 -167 148 -177h31v-132h-35 q-122 0 -211 80q-93 -83 -211 -80h-593q-274 1 -335 86t-61 203z" />
<glyph unicode="&#x62b;" horiz-adv-x="564" arabic-form="initial" d="M406 1098q0 -95 -95 -95t-95 95t95 95t95 -95zM512 898q0 -95 -95 -95t-95 95t95 95t95 -95zM304 898q0 -95 -95 -95t-95 95t95 95t95 -95zM433 618v-297q0 -137 -40 -197q-74 -112 -239 -114h-168v132h168q147 -2 147 177v299h132z" />
<glyph unicode="&#x62b;" horiz-adv-x="609" arabic-form="medial" d="M444 1098q0 -95 -95 -95t-95 95t95 95t95 -95zM550 898q0 -95 -95 -95t-95 95t95 95t95 -95zM342 898q0 -95 -95 -95t-95 95t95 95t95 -95zM-10 10v132h169q149 -4 149 176v297h133v-297q0 -178 143 -176h35v-132h-35q-121 0 -210 80q-89 -80 -211 -80h-173z" />
<glyph unicode="&#x62c;" horiz-adv-x="1195" arabic-form="final" d="M670 -284q0 -95 -95 -95t-95 95t95 95t95 -95zM207 -223q0 -238 349 -473v-132q-194 64 -343.5 263t-134.5 411q26 292 797 296q-275 278 -276 279q-80 65 -162 71t-219 -83l-78 94q181 124 325 113t270 -143l346 -331h137v-132l-642 -1q-369 0 -369 -232z" />
<glyph unicode="&#x62c;" horiz-adv-x="1005" arabic-form="initial" d="M509 -267q0 -95 -95 -95t-95 95t95 95t95 -95zM-10 10v132h777q-275 278 -276 279q-80 65 -162 71t-219 -83l-77 94q181 124 324.5 113t269.5 -143l328 -338l-17 -125h-948z" />
<glyph unicode="&#x62c;" horiz-adv-x="1101" arabic-form="medial" d="M505 -237q0 -95 -95 -95t-95 95t95 95t95 -95zM1111 142v-132h-1121v132h777q-275 278 -276 279q-80 65 -162 71t-219 -83l-77 94q181 124 324.5 113t269.5 -143l346 -331h138z" />
<glyph unicode="&#x62d;" horiz-adv-x="1195" arabic-form="final" d="M207 -223q0 -238 349 -473v-132q-194 64 -343.5 263t-134.5 411q26 292 797 296q-275 278 -276 279q-80 65 -162 71t-219 -83l-78 94q181 124 325 113t270 -143l346 -331h137v-132l-642 -1q-369 0 -369 -232z" />
<glyph unicode="&#x62d;" horiz-adv-x="1005" arabic-form="initial" d="M-10 10v132h777q-275 278 -276 279q-80 65 -162 71t-219 -83l-77 94q181 124 324.5 113t269.5 -143l328 -338l-17 -125h-948z" />
<glyph unicode="&#x62d;" horiz-adv-x="1101" arabic-form="medial" d="M1111 142v-132h-1121v132h777q-275 278 -276 279q-80 65 -162 71t-219 -83l-77 94q181 124 324.5 113t269.5 -143l346 -331h138z" />
<glyph unicode="&#x62e;" horiz-adv-x="1195" arabic-form="final" d="M524 908q0 -95 -95 -95t-95 95t95 95t95 -95zM207 -223q0 -238 349 -473v-132q-194 64 -343.5 263t-134.5 411q26 292 797 296q-275 278 -276 279q-80 65 -162 71t-219 -83l-78 94q181 124 325 113t270 -143l346 -331h137v-132l-642 -1q-369 0 -369 -232z" />
<glyph unicode="&#x62e;" horiz-adv-x="1005" arabic-form="initial" d="M420 908q0 -95 -95 -95t-95 95t95 95t95 -95zM-10 10v132h777q-275 278 -276 279q-80 65 -162 71t-219 -83l-77 94q181 124 324.5 113t269.5 -143l328 -338l-17 -125h-948z" />
<glyph unicode="&#x62e;" horiz-adv-x="1101" arabic-form="medial" d="M415 908q0 -95 -95 -95t-95 95t95 95t95 -95zM1111 142v-132h-1121v132h777q-275 278 -276 279q-80 65 -162 71t-219 -83l-77 94q181 124 324.5 113t269.5 -143l346 -331h138z" />
<glyph unicode="&#x62f;" horiz-adv-x="961" arabic-form="final" d="M344 488h-259v130h263q259 0 365 -145q55 -76 78 -331h180v-132h-921v132h606q-28 238 -100 292t-212 54z" />
<glyph unicode="&#x630;" horiz-adv-x="961" arabic-form="final" d="M461 908q0 -95 -95 -95t-95 95t95 95t95 -95zM344 488h-259v130h263q259 0 365 -145q55 -76 78 -331h180v-132h-921v132h606q-28 238 -100 292t-212 54z" />
<glyph unicode="&#x631;" horiz-adv-x="525" arabic-form="final" d="M535 142v-132h-33q-78 2 -153 33q-57 -395 -400 -394v132q232 18 259 243q9 78 9 158l-2 435h140l1 -299q2 -178 144 -176h35z" />
<glyph unicode="&#x632;" horiz-adv-x="525" arabic-form="final" d="M350 912q0 -95 -95 -95t-95 95t95 95t95 -95zM535 142v-132h-33q-78 2 -153 33q-57 -395 -400 -394v132q232 18 259 243q9 78 9 158l-2 435h140l1 -299q2 -178 144 -176h35z" />
<glyph unicode="&#x633;" horiz-adv-x="1754" arabic-form="final" d="M1730 10q-124 0 -210 79q-79 -79 -158.5 -79t-162.5 80q-83 -80 -164 -80q-40 0 -96 32q-7 -28 -12 -42q-31 -116 -117 -184q-138 -108 -304 -112q-176 0 -316 112t-140 373h124q-12 -171 104 -270q90 -75 212 -83.5t225 73.5q102 83 102 239v468h130v-298 q0 -174 95 -172q92 2 92 172v298h132v-298q0 -174 96 -172q91 1 91 171v299h133v-298q0 -178 144 -176h34v-132h-34z" />
<glyph unicode="&#x633;" horiz-adv-x="1016" arabic-form="initial" d="M196 321v297h132v-297q0 -175 95 -173q92 2 92 173v297h132v-297q0 -175 96 -173q90 2 91 171v299h132l-1 -296q0 -138 -46 -208q-69 -104 -180 -104q-74 0 -159 82q-85 -82 -159.5 -82t-159.5 82q-89 -82 -211 -82h-60v132h57q149 -2 149 179z" />
<glyph unicode="&#x633;" horiz-adv-x="1135" arabic-form="medial" d="M196 318v297h132v-297q0 -174 95 -172q92 2 92 172v297h132v-297q0 -175 96 -173q90 2 91 172v298h133v-297q0 -178 143 -176h35v-132h-35q-129 0 -209 78q-79 -78 -158.5 -78t-162.5 80q-83 -80 -159.5 -80t-159.5 80q-87 -80 -211 -80h-60v132h57q149 -2 149 176z" />
<glyph unicode="&#x634;" horiz-adv-x="1754" arabic-form="final" d="M1380 906q0 -95 -95 -95t-95 95t95 95t95 -95zM1168 906q0 -95 -95 -95t-95 95t95 95t95 -95zM1272 1105q0 -95 -95 -95t-95 95t95 95t95 -95zM1730 10q-124 0 -210 79q-79 -79 -158.5 -79t-162.5 80q-83 -80 -164 -80q-40 0 -96 32q-7 -28 -12 -42q-31 -116 -117 -184 q-138 -108 -304 -112q-176 0 -316 112t-140 373h124q-12 -171 104 -270q90 -75 212 -83.5t225 73.5q102 83 102 239v468h130v-298q0 -174 95 -172q92 2 92 172v298h132v-298q0 -174 96 -172q91 1 91 171v299h133v-298q0 -178 144 -176h34v-132h-34z" />
<glyph unicode="&#x634;" horiz-adv-x="1016" arabic-form="initial" d="M768 907q0 -95 -95 -95t-95 95t95 95t95 -95zM556 907q0 -95 -95 -95t-95 95t95 95t95 -95zM665 1111q0 -95 -95 -95t-95 95t95 95t95 -95zM196 321v297h132v-297q0 -175 95 -173q92 2 92 173v297h132v-297q0 -175 96 -173q90 2 91 171v299h132l-1 -296q0 -138 -46 -208 q-69 -104 -180 -104q-74 0 -159 82q-85 -82 -159.5 -82t-159.5 82q-89 -82 -211 -82h-60v132h57q149 -2 149 179z" />
<glyph unicode="&#x634;" horiz-adv-x="1135" arabic-form="medial" d="M765 903q0 -95 -95 -95t-95 95t95 95t95 -95zM553 903q0 -95 -95 -95t-95 95t95 95t95 -95zM655 1111q0 -95 -95 -95t-95 95t95 95t95 -95zM196 318v297h132v-297q0 -174 95 -172q92 2 92 172v297h132v-297q0 -175 96 -173q90 2 91 172v298h133v-297q0 -178 143 -176h35 v-132h-35q-129 0 -209 78q-79 -78 -158.5 -78t-162.5 80q-83 -80 -159.5 -80t-159.5 80q-87 -80 -211 -80h-60v132h57q149 -2 149 176z" />
<glyph unicode="&#x635;" horiz-adv-x="2022" arabic-form="final" d="M1457 479q-369 0 -496 -337h778q-19 337 -282 337zM2032 142v-132h-1103q-34 -125 -119 -192q-136 -109 -308 -110.5t-312 110.5t-140 373h124q-12 -172 104 -270q90 -75 212 -83.5t223 72t101 227.5v309l133 -1v-122q241 297 551 297q160 0 262 -141.5t99 -336.5h173z " />
<glyph unicode="&#x635;" horiz-adv-x="1184" arabic-form="initial" d="M730 480q-368 0 -496 -338h778q-21 338 -282 338zM-10 142h97v305h133v-123q241 297 550 297q162 0 263 -141.5t98 -327.5v-142h-1141v132z" />
<glyph unicode="&#x635;" horiz-adv-x="1294" arabic-form="medial" d="M730 480q-368 0 -496 -338h778q-21 338 -282 338zM87 447h133v-123q241 297 550 297q162 0 263 -141.5t98 -337.5h173v-132h-1314v132h97v305z" />
<glyph unicode="&#x636;" horiz-adv-x="2022" arabic-form="final" d="M1344 895q0 -95 -95 -95t-95 95t95 95t95 -95zM1457 479q-369 0 -496 -337h778q-19 337 -282 337zM2032 142v-132h-1103q-34 -125 -119 -192q-136 -109 -308 -110.5t-312 110.5t-140 373h124q-12 -172 104 -270q90 -75 212 -83.5t223 72t101 227.5v309l133 -1v-122 q241 297 551 297q160 0 262 -141.5t99 -336.5h173z" />
<glyph unicode="&#x636;" horiz-adv-x="1184" arabic-form="initial" d="M577 908q0 -95 -95 -95t-95 95t95 95t95 -95zM730 480q-368 0 -496 -338h778q-21 338 -282 338zM-10 142h97v305h133v-123q241 297 550 297q162 0 263 -141.5t98 -327.5v-142h-1141v132z" />
<glyph unicode="&#x636;" horiz-adv-x="1294" arabic-form="medial" d="M672 908q0 -95 -95 -95t-95 95t95 95t95 -95zM730 480q-368 0 -496 -338h778q-21 338 -282 338zM87 447h133v-123q241 297 550 297q162 0 263 -141.5t98 -337.5h173v-132h-1314v132h97v305z" />
<glyph unicode="&#x637;" horiz-adv-x="1528" arabic-form="final" d="M964 479q-370 0 -497 -337h779q-19 337 -282 337zM1539 142v-132h-1357q-132 2 -130 169q46 -38 134 -37h135l1 1125l132 -2v-942q242 297 550 297q161 0 265 -146q101 -137 96 -332h174z" />
<glyph unicode="&#x637;" horiz-adv-x="1192" arabic-form="initial" d="M-10 10v132h105l1 1125l132 -2v-942q242 297 550 297q161 0 262.5 -141.5t98.5 -327.5v-141h-1149zM734 480q-368 0 -496 -338h778q-21 338 -282 338z" />
<glyph unicode="&#x637;" horiz-adv-x="1316" arabic-form="medial" d="M1326 10h-1336v132h105l1 1125l132 -2v-942q242 297 550 297q161 0 262.5 -141.5t98.5 -336.5h187v-132zM734 480q-368 0 -496 -338h778q-21 338 -282 338z" />
<glyph unicode="&#x638;" horiz-adv-x="1528" arabic-form="final" d="M905 908q0 -95 -95 -95t-95 95t95 95t95 -95zM964 479q-370 0 -497 -337h779q-19 337 -282 337zM1539 142v-132h-1357q-132 2 -130 169q46 -38 134 -37h135l1 1125l132 -2v-942q242 297 550 297q161 0 265 -146q101 -137 96 -332h174z" />
<glyph unicode="&#x638;" horiz-adv-x="1192" arabic-form="initial" d="M643 908q0 -95 -95 -95t-95 95t95 95t95 -95zM-10 10v132h105l1 1125l132 -2v-942q242 297 550 297q161 0 262.5 -141.5t98.5 -327.5v-141h-1149zM734 480q-368 0 -496 -338h778q-21 338 -282 338z" />
<glyph unicode="&#x638;" horiz-adv-x="1316" arabic-form="medial" d="M637 805q-95 0 -95 95t95 95t95 -95t-95 -95zM1326 10h-1336v132h105l1 1171l132 -2v-988q242 297 550 297q161 0 262.5 -141.5t98.5 -336.5h187v-132zM734 479q-369 0 -496 -337h778q-21 337 -282 337z" />
<glyph unicode="&#x639;" horiz-adv-x="887" arabic-form="final" d="M897 10h-489q-212 -2 -212 -249q8 -106 41 -173q61 -124 243 -255l65 -46v-131q-369 120 -463 517q-11 53 -14 92q-17 216 206 305q-187 163 -214 288q-10 41 -10 96q0 166 173 166h328q172 0 172 -166v-7q-2 -166 -161 -305h335v-132zM581 408q0 80 -96 80h-197 q-96 0 -96 -80q0 -160 198 -268l7 5q184 104 184 263z" />
<glyph unicode="&#x639;" horiz-adv-x="756" arabic-form="initial" d="M524 142h212v-132h-746v132h172l-57 69q-145 190 35 341q193 166 536 23v-128q-368 149 -470 -42q-79 -151 191 -242q59 -21 127 -21z" />
<glyph unicode="&#x639;" horiz-adv-x="1000" arabic-form="medial" d="M582 527h-205q-122 0 -122 -103q0 -181 227 -304q220 120 220 304q0 103 -120 103zM1010 142v-132h-413q-67 0 -116 24q-47 -23 -127 -24h-364v132h280q-141 134 -141 329q0 172 179 172h342q178 0 178 -172q0 -178 -172 -329h354z" />
<glyph unicode="&#x63a;" horiz-adv-x="887" arabic-form="final" d="M459 908q0 -95 -95 -95t-95 95t95 95t95 -95zM897 10h-489q-212 -2 -212 -249q8 -106 41 -173q61 -124 243 -255l65 -46v-131q-369 120 -463 517q-11 53 -14 92q-17 216 206 305q-187 163 -214 288q-10 41 -10 96q0 166 173 166h328q172 0 172 -166v-7q-2 -166 -161 -305 h335v-132zM581 408q0 80 -96 80h-197q-96 0 -96 -80q0 -160 198 -268l7 5q184 104 184 263z" />
<glyph unicode="&#x63a;" horiz-adv-x="756" arabic-form="initial" d="M435 908q0 -95 -95 -95t-95 95t95 95t95 -95zM524 142h212v-132h-746v132h172l-57 69q-145 190 35 341q193 166 536 23v-128q-368 149 -470 -42q-79 -151 191 -242q59 -21 127 -21z" />
<glyph unicode="&#x63a;" horiz-adv-x="1000" arabic-form="medial" d="M587 908q0 -95 -95 -95t-95 95t95 95t95 -95zM592 527h-205q-122 0 -122 -103q0 -181 227 -304q220 120 220 304q0 103 -120 103zM1020 142v-132h-413q-67 0 -116 24q-47 -23 -127 -24h-364v132h280q-141 134 -141 329q0 172 179 172h342q178 0 178 -172 q0 -178 -172 -329h354z" />
<glyph unicode="&#x641;" horiz-adv-x="1586" arabic-form="final" d="M1262 847q0 -95 -95 -95t-95 95t95 95t95 -95zM1145 141q146 0 167 103q46 250 -159 234q-177 0 -175 -176q5 -149 167 -161zM1596 142v-132h-1149q-240 2 -319 84q-78 82 -78 205q0 318 390 318v-130q-259 0 -259 -167q0 -178 178 -178h543q-61 100 -49 204 q29 253 273 272q211 16 296 -156q64 -131 -1 -320h175z" />
<glyph unicode="&#x641;" horiz-adv-x="766" arabic-form="initial" d="M373 141q147 1 167 104q46 251 -159 234q-175 0 -175 -176q5 -149 167 -162zM-10 142h140q-61 100 -49 205q29 253 273 272q212 17 296 -156q66 -137 3 -309q-69 -146 -192 -144h-471v132zM493 904q0 -95 -95 -95t-95 95t95 95t95 -95z" />
<glyph unicode="&#x641;" horiz-adv-x="814" arabic-form="medial" d="M373 141q146 0 167 103q46 250 -159 234q-177 0 -175 -176q5 -149 167 -161zM-10 142h140q-61 100 -49 204q29 253 273 272q211 16 296 -156q64 -131 -1 -320h175v-132h-834v132zM498 908q0 -95 -95 -95t-95 95t95 95t95 -95z" />
<glyph unicode="&#x642;" horiz-adv-x="1110" arabic-form="final" d="M881 854q0 -95 -95 -95t-95 95t95 95t95 -95zM639 854q0 -95 -95 -95t-95 95t95 95t95 -95zM1120 10h-180q-16 -161 -128 -250q-138 -108 -304 -112q-176 0 -317 113t-141 380h124q-13 -177 106 -278q90 -75 212 -83.5t225 73.5q56 44 82 157q-385 0 -385 336 q0 272 371 272q65 0 115.5 -52t50.5 -121q0 -218 -4 -303h173v-132zM808 141v239q0 98 -116 98q-138 0 -139 -160q-13 -177 255 -177z" />
<glyph unicode="&#x642;" horiz-adv-x="766" arabic-form="initial" d="M373 141q147 1 167 104q46 251 -159 234q-175 0 -175 -176q5 -149 167 -162zM-10 142h140q-61 100 -49 205q29 253 273 272q212 17 296 -156q66 -137 3 -309q-69 -146 -192 -144h-471v132zM598 907q0 -95 -95 -95t-95 95t95 95t95 -95zM386 907q0 -95 -95 -95t-95 95 t95 95t95 -95z" />
<glyph unicode="&#x642;" horiz-adv-x="814" arabic-form="medial" d="M373 141q146 0 167 103q46 250 -159 234q-177 0 -175 -176q5 -149 167 -161zM-10 142h140q-61 100 -49 204q29 253 273 272q211 16 296 -156q64 -131 -1 -320h175v-132h-834v132zM594 907q0 -95 -95 -95t-95 95t95 95t95 -95zM382 907q0 -95 -95 -95t-95 95t95 95t95 -95 z" />
<glyph unicode="&#x643;" horiz-adv-x="1486" arabic-form="final" d="M441 620v-130q-259 0 -259 -167q0 -179 179 -181h678q147 11 148 178v947l132 -1l1 -951q0 -171 144 -173h34v-132h-34q-133 3 -201 66v25q-85 -85 -224 -91h-590q-251 -17 -326 59t-73 313q1 238 391 238zM828 547h102v-56h-354v55h82q-27 8 -58 75.5t51.5 140.5 t248.5 4v-53q-182 73 -235 -26q-43 -83 99 -129q30 -11 64 -11z" />
<glyph unicode="&#x643;" horiz-adv-x="821" arabic-form="initial" d="M73 488v154q0 41 18 59l492 496h188l-587 -582q215 -39 346 -137q180 -135 180 -301q0 -65 -51 -115t-121 -52h-548v132h482q96 2 96 80q0 65 -126 152q-206 114 -369 114z" />
<glyph unicode="&#x643;" horiz-adv-x="871" arabic-form="medial" d="M676 10v70q-69 -69 -139 -70h-547v132h482q96 2 96 81q0 65 -126 153q-206 113 -369 113v154q0 40 17 60l102 106l391 390h188l-281 -279q-20 -16 -203 -204l-103 -99q215 -40 346 -138q180 -133 180 -301q0 -17 -4 -36h175v-132h-205z" />
<glyph unicode="&#x644;" horiz-adv-x="1117" arabic-form="final" d="M1127 142v-132h-34q-64 0 -131 26q-10 3 -23 11q-7 -31 -12 -48q-31 -115 -117 -183q-138 -108 -304 -112q-176 0 -316 112t-140 373h124q-12 -172 104 -270q90 -75 212 -83.5t225 73.5q102 83 102 239v1117h131l1 -947q0 -178 144 -176h34z" />
<glyph unicode="&#x644;" horiz-adv-x="378" arabic-form="initial" d="M196 319v946h131l1 -944q-1 -137 -40 -197q-73 -111 -240 -114h-58v132h58q148 -2 148 177z" />
<glyph unicode="&#x644;" horiz-adv-x="497" arabic-form="medial" d="M-10 10v132h57q149 -2 149 176v945h131l1 -945q0 -178 144 -176h35v-132h-35q-124 0 -211 80q-87 -80 -211 -80h-60z" />
<glyph unicode="&#x645;" horiz-adv-x="884" arabic-form="final" d="M894 142v-132h-144v37q-67 -40 -138 -37h-284q-146 -10 -147 -177v-270h-130q0 283 -1 283q5 130 46 192q65 99 244 104q-26 290 35 382q61 99 180 97.5t195 -93.5q79 -89 92 -236q6 -78 -18 -150h70zM446 142h151q60 -2 101 43t35 113q-17 189 -164 191 q-153 2 -123 -347z" />
<glyph unicode="&#x645;" horiz-adv-x="686" arabic-form="initial" d="M229 142h151q60 -2 100 43t35 112q-17 191 -164 192q-153 2 -122 -347zM-10 142h132q-26 288 35 384t179 95t196 -93q80 -90 92 -230t-57 -217q-62 -76 -173 -71h-404v132z" />
<glyph unicode="&#x645;" horiz-adv-x="809" arabic-form="medial" d="M535 10v39q-68 -42 -140 -39h-405v132h132q-26 288 35 384t179 95t196 -93q79 -89 92 -236q8 -78 -18 -150h213v-132h-284zM229 142h151q60 -2 100 43t35 112q-17 191 -164 192q-153 2 -122 -347z" />
<glyph unicode="&#x646;" horiz-adv-x="1116" arabic-form="final" d="M546 583q0 -95 -95 -95t-95 95t95 95t95 -95zM947 320q0 -180 148 -178h31v-132h-35q-61 -2 -129 27l-23 9q-3 -12 -6 -26l-5 -20q-32 -115 -118 -182q-136 -109 -307.5 -110.5t-312 110.5t-140.5 373h124q-12 -173 105 -270q87 -75 210 -83.5t225.5 73t102.5 238.5v468 h130v-297z" />
<glyph unicode="&#x646;" horiz-adv-x="502" arabic-form="initial" d="M452 618v-297q0 -137 -40 -197q-74 -112 -239 -114h-183v132h183q147 -2 147 177v299h132zM472 908q0 -95 -95 -95t-95 95t95 95t95 -95z" />
<glyph unicode="&#x646;" horiz-adv-x="593" arabic-form="medial" d="M-10 10v132h153q149 -4 149 176v297h133v-297q0 -178 143 -176h35v-132h-35q-121 0 -210 80q-89 -80 -211 -80h-157zM440 908q0 -95 -95 -95t-95 95t95 95t95 -95z" />
<glyph unicode="&#x647;" horiz-adv-x="729" arabic-form="final" d="M739 10h-296v28q-71 -25 -222 -25q-68 0 -121 50q-50 50 -50 115q0 165 178 298q57 42 215 110v31h123v-475h173v-132zM191 222q0 -80 95 -80h157v316q-74 -32 -133 -73q-119 -83 -119 -163z" />
<glyph unicode="&#x647;" horiz-adv-x="808" arabic-form="initial" d="M756 10h-766v132h127q-25 60 -25 130.5t41 135.5q36 51 88.5 66.5t102.5 -4t83.5 -75t33.5 -124.5t-25 -129h219q-2 68 -16 126q-34 108 -97 182q-129 150 -312 103q-90 -24 -159 -81v123q172 105 328 77.5t280 -198.5q99 -136 97 -322v-142zM266 366q-84 0 -84 -106.5 t84 -106.5t84 106.5t-84 106.5z" />
<glyph unicode="&#x647;" horiz-adv-x="819" arabic-form="medial" d="M829 142v-132h-839v132h127q-25 60 -25 130.5t41 135.5q36 51 88.5 66.5t102.5 -4t83.5 -75t33.5 -121.5t-23 -132h219q-5 72 -18 126q-34 108 -97 182q-129 150 -312 103q-90 -24 -159 -81v123q172 105 328 77.5t280 -198.5q99 -136 97 -332h73zM266 366 q-84 0 -84 -106.5t84 -106.5t84 106.5t-84 106.5z" />
<glyph unicode="&#x648;" horiz-adv-x="747" arabic-form="final" d="M444 380q0 98 -115 98q-139 0 -139 -159q-14 -174 254 -180v241zM757 10h-181q-18 -163 -128 -249q-136 -109 -303 -112q-47 0 -95 8v135q171 -44 304 62q55 43 82 156q-385 0 -386 337q0 271 371 271q65 0 116 -51t51 -122q-1 -133 -4 -303h173v-132z" />
<glyph unicode="&#x649;" horiz-adv-x="989" arabic-form="final" d="M1011 10h-69q0 -150 -116.5 -271.5t-340.5 -121.5t-341 152q-62 80 -81 232q-11 78 -6 141h111q-11 -66 10 -144q29 -117 109 -183.5t192 -66.5q169 0 248 66t85 196q-146 4 -201 129l65 132q51 -129 201 -129h134v-132z" />
<glyph unicode="&#x64a;" horiz-adv-x="989" arabic-form="final" d="M715 -623q0 -95 -95 -95t-95 95t95 95t95 -95zM503 -623q0 -95 -95 -95t-95 95t95 95t95 -95zM1011 10h-69q0 -150 -116.5 -271.5t-340.5 -121.5t-341 152q-62 80 -81 232q-11 78 -6 141h111q-11 -66 10 -144q29 -117 109 -183.5t192 -66.5q169 0 248 66t85 196 q-146 4 -201 129l65 132q51 -129 201 -129h134v-132z" />
<glyph unicode="&#x64a;" horiz-adv-x="503" arabic-form="initial" d="M453 618v-297q0 -137 -40 -197q-74 -112 -239 -114h-183v132h183q147 -2 147 177v299h132zM429 -233q0 -95 -95 -95t-95 95t95 95t95 -95zM217 -233q0 -95 -95 -95t-95 95t95 95t95 -95z" />
<glyph unicode="&#x64a;" horiz-adv-x="593" arabic-form="medial" d="M-10 10v132h153q149 -4 149 176v297h133v-297q0 -178 143 -176h35v-132h-35q-121 0 -210 80q-89 -80 -211 -80h-157zM505 -233q0 -95 -95 -95t-95 95t95 95t95 -95zM293 -233q0 -95 -95 -95t-95 95t95 95t95 -95z" />
<glyph unicode="&#xd;" horiz-adv-x="682" />
<glyph unicode=" "  horiz-adv-x="508" />
<glyph unicode="&#x09;" horiz-adv-x="508" />
<glyph unicode="&#xa0;" horiz-adv-x="508" />
<glyph unicode="!" horiz-adv-x="328" d="M164 374q-20 0 -54 250t-34 452t88 203q88 -1 88 -203t-34 -452t-54 -250zM165 181q39 1 66 -27t27 -67t-27 -67t-67 -28t-67 28q-28 28 -28 67t28 67q29 27 68 27z" />
<glyph unicode="&#x22;" horiz-adv-x="672" d="M96 1422h172v-218l-42 -248h-88l-42 248v218zM406 1422h172v-218l-43 -248h-87l-42 248v218z" />
<glyph unicode="#" horiz-adv-x="1277" d="M141 979h279l83 403h120l-82 -403h314l82 403h121l-83 -403h160v-121h-185l-69 -349h254v-119h-279l-82 -405h-120l83 405h-316l-82 -405h-119l82 405h-161v119h186l68 349h-254v121zM446 509h316l68 349h-314z" />
<glyph unicode="$" horiz-adv-x="705" d="M188 960q0 -88 119 -183v317q-119 -46 -119 -134zM521 300q0 109 -122 205v-376q122 62 122 171zM55 949q0 100 66 178t186 95v60h92v-52q109 -2 222 -57v-136q-108 65 -222 66v-400q250 -187 250 -403q0 -112 -65 -196t-185 -115v-190h-92v179q-158 15 -254 69v142 q122 -72 254 -75v465q-252 198 -252 370z" />
<glyph unicode="%" horiz-adv-x="1140" d="M195 -51l645 1333h96l-642 -1333h-99zM200 1197q-62 -1 -62 -247t62 -246t62 246t-62 247zM200 1278q166 0 166 -329t-166 -329t-166 329t166 329zM878 322q0 -246 62 -246t61 246q1 246 -61 247q-62 -1 -62 -247zM1105 322q1 -329 -165 -329t-166 329t166 329t165 -329z " />
<glyph unicode="&#x26;" horiz-adv-x="778" d="M399 1173q-40 0 -67 -37q-27 -38 -27 -106t59 -184q124 123 124 209q0 118 -89 118zM200 379q0 -109 40 -175t108 -67q68 0 133 108l-171 380q-110 -137 -110 -246zM325 -8q-109 0 -189 106t-81 259q0 220 194 393q-73 162 -73 270t66 184t157 77q90 1 150 -65t60 -162 q0 -158 -189 -325l129 -305h19q34 137 41 208h126q-15 -188 -105 -383l117 -257h-155l-52 121q-106 -121 -215 -121z" />
<glyph unicode="(" horiz-adv-x="416" d="M83 377q0 464 254 871h63q-178 -298 -178 -872t178 -870h-63q-254 407 -254 871z" />
<glyph unicode=")" horiz-adv-x="416" d="M333 377q0 -464 -254 -871h-63q178 296 178 870t-178 872h63q254 -407 254 -871z" />
<glyph unicode="*" horiz-adv-x="665" d="M374 1065q-6 -6 -6 1q3 -1 6 -1zM604 1123q0 -65 -136 -65q-44 0 -94 7q121 109 176 109q54 0 54 -51zM332 1096q2 -6 1 -6h-3zM332 1334q54 0 54 -55t-54 -183q-53 127 -53 183q-1 55 53 55zM333 1090q22 -4 35 -26q0 -22 -13 -42q-21 -7 -42 0q-17 18 -14 41 q11 22 34 27zM292 1065q4 1 8 1l-2 -6q-3 3 -6 5zM63 1123q0 51 53 51t176 -109q-52 -7 -95 -7q-134 0 -134 65zM307 1017q1 4 1 7q5 -2 6 -3q-3 -2 -7 -4zM145 867q0 52 162 150q-39 -202 -104 -202q-58 0 -58 52zM361 1015q-4 2 -8 5q1 2 6 4q1 -5 2 -9zM464 815 q-68 0 -103 200q161 -99 161 -147q0 -20 -18 -36t-40 -17z" />
<glyph unicode="+" horiz-adv-x="1283" d="M1084 621h-374v-373h-139v373h-373v139h373v373h139v-373h374v-139z" />
<glyph unicode="," horiz-adv-x="326" d="M45 69q0 41 26 70q27 29 71 29t77 -44q32 -44 32 -116q0 -183 -179 -260q64 94 52 228q-79 18 -79 93z" />
<glyph unicode="-" horiz-adv-x="447" d="M59 524h327v-141h-327v141z" />
<glyph unicode="." horiz-adv-x="328" d="M258 87q0 -39 -27 -67t-67 -28t-67 28q-28 28 -28 67t28 67q29 27 68 27q39 1 66 -27t27 -67z" />
<glyph unicode="/" horiz-adv-x="514" d="M20 -8l358 1276h116l-359 -1276h-115z" />
<glyph unicode="0" horiz-adv-x="688" d="M223 632q-1 -516 119 -516t120 516q0 263 -19 368q-26 152 -100 152q-79 0 -105 -162q-15 -100 -15 -358zM610 632q0 -367 -79 -521q-63 -126 -190 -126q-266 0 -266 648q-1 648 267 648t268 -649z" />
<glyph unicode="1" horiz-adv-x="716" d="M284 10v1259h145v-1259h-145z" />
<glyph unicode="2" horiz-adv-x="690" d="M69 10v12q337 556 337 882q0 100 -47 162t-115 62t-148 -36v148q91 42 175 42q132 0 208 -94t76 -254q0 -236 -278 -781h304v-143h-512z" />
<glyph unicode="3" horiz-adv-x="694" d="M234 126q74 0 122 66t48 176q0 215 -166 237v145q151 22 151 196q1 90 -43 144t-109 53q-65 0 -114 -28v138q56 28 137 28q118 -1 198 -89t80 -219q0 -185 -209 -293q224 -78 224 -327q-1 -152 -89 -260t-215 -108q-64 0 -155 35v140q67 -34 140 -34z" />
<glyph unicode="4" horiz-adv-x="687" d="M390 456v533h-21l-226 -533h247zM390 10v351h-335v134l344 787h136v-826h70v-95h-70v-351h-145z" />
<glyph unicode="5" horiz-adv-x="693" d="M224 126q96 0 151 68t55 184t-59 180t-162 65q-49 0 -57 -4v648h386v-129h-245v-398q285 -34 285 -355q0 -171 -92 -285t-231 -115q-76 0 -149 32v134q65 -25 118 -25z" />
<glyph unicode="6" horiz-adv-x="690" d="M464 406q0 227 -108 227q-108 1 -108 -253t108 -254t108 280zM383 774q101 0 165 -104t64 -278q0 -175 -74 -291t-178 -116t-172 85q-88 109 -88 346t116 472l185 379h142l-248 -509q58 16 88 16z" />
<glyph unicode="7" horiz-adv-x="689" d="M94 1138v129h501l-265 -1280l-135 31l228 1120h-329z" />
<glyph unicode="8" horiz-adv-x="689" d="M460 358q0 223 -116 223t-117 -223q0 -100 31 -166q32 -66 86 -66t85 66t31 166zM341 1140q-98 0 -98 -210t98 -209q98 -1 98 209t-98 210zM94 942q0 172 90 265q72 74 162 74t168 -88q78 -87 79 -255q0 -168 -139 -276q155 -101 155 -304q0 -171 -73 -272 q-72 -101 -192 -101q-120 1 -192 101t-73 267q0 211 155 309q-140 108 -140 280z" />
<glyph unicode="9" horiz-adv-x="690" d="M248 864q0 -229 108 -229t108 253t-108 253t-108 -277zM331 494q-101 0 -166 106t-65 279q0 175 75 289t185 114t181 -107t71 -331t-114 -460l-178 -374h-141l239 498q-67 -14 -87 -14z" />
<glyph unicode=":" horiz-adv-x="328" d="M258 87q0 -39 -27 -67t-67 -28t-67 28q-28 28 -28 67t28 67q29 27 68 27q39 1 66 -27t27 -67zM69 766q0 38 28 66q27 28 67 28t67 -28t27 -66t-27 -66t-67 -28t-67 28q-28 28 -28 66z" />
<glyph unicode=";" horiz-adv-x="326" d="M257 750q0 -38 -27 -67q-28 -27 -67 -27t-67 28t-28 66t28 66t67 28t67 -27q27 -29 27 -67zM45 69q0 41 26 70q27 29 71 29t77 -44q32 -44 32 -116q0 -183 -179 -260q64 94 52 228q-79 18 -79 93z" />
<glyph unicode="&#x3c;" horiz-adv-x="1283" d="M198 621v143l888 376v-147l-737 -300l737 -300v-147z" />
<glyph unicode="=" horiz-adv-x="1283" d="M1084 841h-886v139h886v-139zM1084 428h-886v139h886v-139z" />
<glyph unicode="&#x3e;" horiz-adv-x="1283" d="M1086 621l-888 -375v147l737 300l-737 300v147l888 -376v-143z" />
<glyph unicode="?" horiz-adv-x="681" d="M163 98q102 0 102 -106t-102 -105q-107 -1 -107 105t107 106zM226 700h141q84 0 83 91q-5 175 -128 239q-37 19 -203 19l3 133q38 6 81 6q358 0 384 -479q7 -141 -183 -141h-185q-35 -177 -8 -345l-99 -6q-38 205 -38 340q20 143 152 143z" />
<glyph unicode="@" horiz-adv-x="1956" d="M1076 618q0 184 -133 184q-110 0 -175 -158q-61 -140 -61 -348t139 -207q56 0 112 54q118 118 118 475zM1246 98q82 0 174 107q117 141 117 377q1 236 -143 383t-387 147q-281 0 -456 -191t-175 -495t170 -486t442 -182t492 174h188q-98 -126 -284 -218t-388 -93 q-326 -1 -544 229t-217 556q0 326 170 559q210 286 602 286q321 0 506 -210q165 -189 165 -473t-187 -461q-152 -146 -307 -146q-105 0 -141 121q-121 -121 -240 -121t-201 109t-82 309t109 375q115 190 281 190q120 0 227 -155l20 122h161l-115 -728q-13 -85 43 -85z" />
<glyph unicode="A" horiz-adv-x="655" d="M224 427h207l-94 555h-20zM14 10l237 1267h154l236 -1267h-139l-46 283h-253l-50 -283h-139z" />
<glyph unicode="B" horiz-adv-x="729" d="M265 727h25q90 1 144 57t53 152q0 200 -197 200h-25v-409zM265 143h39q212 0 212 221q0 94 -52 162t-160 68h-39v-451zM120 10v1259h185q145 1 236 -91t91 -215q0 -169 -177 -277q206 -96 206 -317q-1 -147 -97 -253t-299 -106h-145z" />
<glyph unicode="C" horiz-adv-x="623" d="M400 -8q-159 0 -247 165t-88 465q1 300 85 482t254 181q77 0 166 -62v-137q-67 66 -155 66q-111 0 -158 -138q-40 -116 -40 -377q-1 -261 45 -387t159 -126q74 0 164 81v-146q-85 -67 -185 -67z" />
<glyph unicode="D" horiz-adv-x="791" d="M257 143h35q150 1 212 115t63 382q-1 268 -61 382t-210 114h-39v-993zM112 10v1259h172q429 0 429 -628q0 -355 -138 -512q-102 -119 -268 -119h-195z" />
<glyph unicode="E" horiz-adv-x="692" d="M118 10v1259h435v-133h-290v-403h266v-133h-266v-457h306v-133h-451z" />
<glyph unicode="F" horiz-adv-x="617" d="M118 10v1259h378v-133h-233v-401h218v-133h-218v-592h-145z" />
<glyph unicode="G" horiz-adv-x="789" d="M696 676v-613q-113 -71 -215 -71q-189 0 -301 169t-111 472q0 303 107 477t285 175q106 0 235 -87v-149q-128 113 -227 113q-255 0 -255 -519t270 -519q20 0 67 9v410h-113v133h258z" />
<glyph unicode="H" horiz-adv-x="794" d="M120 10v1259h145v-563h263v563h144v-1259h-144v563h-263v-563h-145z" />
<glyph unicode="I" horiz-adv-x="374" d="M114 10v1259h145v-1259h-145z" />
<glyph unicode="J" horiz-adv-x="380" d="M116 -98v1340h145v-1313q0 -378 -313 -326l-15 129q111 -9 147 20t36 150z" />
<glyph unicode="K" horiz-adv-x="660" d="M517 10l-225 639l179 620h146l-198 -599l247 -660h-149zM122 10v1259h145v-1259h-145z" />
<glyph unicode="L" horiz-adv-x="588" d="M120 10v1259h145v-1126h316v-133h-461z" />
<glyph unicode="M" horiz-adv-x="871" d="M757 1269v-1259h-141l9 919l-17 17l-164 -428h-17l-163 426l-19 -14l10 -920h-141v1259h125l196 -486l197 486h125z" />
<glyph unicode="N" horiz-adv-x="794" d="M120 10v1259h117l283 -789h22v789h130v-1259h-116l-284 797h-21v-797h-131z" />
<glyph unicode="O" horiz-adv-x="806" d="M584 638q0 514 -180 514t-181 -514q0 -514 183 -514q86 0 132 136t46 378zM399 1285q162 0 252 -191q85 -176 85 -474t-103 -473q-93 -155 -233 -155t-231 163q-98 179 -98 463t77 461q89 206 251 206z" />
<glyph unicode="P" horiz-adv-x="709" d="M271 704h39q211 0 211 230q0 206 -250 202v-432zM126 10v1259h164q170 1 272 -89t103 -255q0 -165 -93 -259t-257 -95h-44v-561h-145z" />
<glyph unicode="Q" horiz-adv-x="800" d="M584 622q0 514 -180 514t-181 -514q0 -514 183 -514q178 0 178 514zM71 622q0 270 85 458t250 188q142 0 236 -173t94 -473q0 -474 -233 -620q103 -132 174 -132q40 0 68 28l14 -8l-98 -151q-163 21 -322 246q-268 103 -268 637z" />
<glyph unicode="R" horiz-adv-x="685" d="M265 716h17q148 0 148 208t-165 212v-420zM120 10v1259h127q175 0 261 -113q67 -88 67 -231q0 -177 -139 -274q109 -79 181 -390l57 -251h-152l-48 213q-47 204 -82 275q-45 93 -127 83v-571h-145z" />
<glyph unicode="S" horiz-adv-x="525" d="M188 121q66 -1 106 39t39 95q0 92 -138 350t-138 390t70 211t181 79q61 0 127 -30v-132q-57 33 -105 33q-134 0 -134 -132q0 -96 138 -352t138 -390t-70 -212t-185 -78q-80 0 -153 46v141q58 -58 124 -58z" />
<glyph unicode="T" horiz-adv-x="582" d="M217 10v1126h-197v133h539v-133h-197v-1126h-145z" />
<glyph unicode="U" horiz-adv-x="771" d="M110 1268h145v-951q1 -193 131 -193t130 185v959h144v-940q0 -179 -100 -270q-76 -66 -184 -66t-187 90t-79 233v953z" />
<glyph unicode="V" horiz-adv-x="596" d="M250 -8l-232 1276h151l117 -862h22l118 862h152l-231 -1276h-97z" />
<glyph unicode="W" horiz-adv-x="1133" d="M290 -8l-270 1276h151l152 -859h20l173 859h102l163 -879h20l161 879h151l-269 -1276h-97l-172 856h-21l-168 -856h-96z" />
<glyph unicode="X" horiz-adv-x="651" d="M16 10l221 670l-190 589h154l113 -423h20l115 423h153l-188 -589l221 -670h-154l-147 475h-19l-144 -475h-155z" />
<glyph unicode="Y" horiz-adv-x="574" d="M212 10v575l-198 684h147l112 -502h19l117 502h148l-200 -684v-575h-145z" />
<glyph unicode="Z" horiz-adv-x="540" d="M64 1136v133h439l-294 -1126h297v-133h-474l295 1126h-263z" />
<glyph unicode="[" horiz-adv-x="489" d="M163 -473v1711h311v-121h-181v-1469h181v-121h-311z" />
<glyph unicode="\" horiz-adv-x="514" d="M494 -8h-116l-358 1276h115z" />
<glyph unicode="]" horiz-adv-x="489" d="M325 -473h-311v121h182v1469h-182v121h311v-1711z" />
<glyph unicode="^" horiz-adv-x="874" d="M205 700h-152l322 729h124l320 -729h-150l-233 576z" />
<glyph unicode="_" horiz-adv-x="936" d="M-12 -171h961v-75h-961v75z" />
<glyph unicode="a" horiz-adv-x="622" d="M193 220q0 -113 83 -113q68 0 113 105v239q-196 -118 -196 -231zM494 -10q-76 0 -105 119q-91 -124 -161 -124q-70 1 -116 61q-47 60 -47 148q1 88 67 157q66 68 257 179v87q0 121 -97 121t-205 -123v141q111 104 205 104t160 -56t66 -162v-479q0 -60 33 -60q17 0 49 29 v-85q-64 -57 -106 -57z" />
<glyph unicode="b" horiz-adv-x="668" d="M335 117q130 1 130 311t-140 310q-60 0 -101 -86v-445q44 -90 111 -90zM94 9v1259h130v-475h19q41 68 127 68t148 -89q81 -112 81 -336q1 -224 -69 -332t-166 -108q-69 0 -140 80v-67h-130z" />
<glyph unicode="c" horiz-adv-x="524" d="M366 -15q-129 -1 -212 121t-83 314q1 192 83 316t212 124q62 0 124 -28v-128q-55 34 -102 34q-86 0 -135 -86t-49 -230q0 -143 53 -229t147 -86q53 0 99 37v-117q-66 -42 -137 -42z" />
<glyph unicode="d" horiz-adv-x="667" d="M336 738q-138 0 -138 -306t131 -307q73 0 116 88v433q-35 92 -109 92zM573 9h-128v66h-20q-51 -79 -137 -79t-154 112t-69 309q0 198 66 321t171 123q70 0 143 -88v495h128v-1259z" />
<glyph unicode="e" horiz-adv-x="589" d="M197 490h186q0 260 -96 260q-90 0 -90 -260zM331 -15q-123 0 -193 112q-70 113 -69 325q0 212 61 324q58 114 164 114t169 -121q52 -91 50 -340h-314q0 -296 161 -296q85 0 135 65v-114q-73 -69 -164 -69z" />
<glyph unicode="f" horiz-adv-x="340" d="M112 10v718h-67v110h67v145q0 306 279 303v-104q-150 0 -150 -208v-136h82v-110h-82v-718h-129z" />
<glyph unicode="g" horiz-adv-x="621" d="M315 -386q71 0 118 40t47 98q0 60 -50 102t-120 43q-69 0 -112 -40q-42 -41 -42 -104t44 -101t115 -38zM308 272q109 0 109 220t-109 220q-114 0 -114 -220t114 -220zM598 695h-120q55 -91 55 -231t-85 -225q-48 -49 -140 -63t-91 -74t131 -87t189 -86t59 -170t-78 -181 t-200 -70t-202 65q-76 66 -76 161q0 140 161 208q-111 50 -111 128t129 131q-141 97 -141 293q0 141 62 226t179 85h279v-110z" />
<glyph unicode="h" horiz-adv-x="670" d="M104 10v1259h130v-515h19q63 107 141 107t132 -56t54 -173v-622h-129v604q0 133 -89 133q-72 0 -128 -107v-630h-130z" />
<glyph unicode="i" horiz-adv-x="330" d="M166 1286q32 0 54 -22t22 -54t-22 -54t-54 -22t-54 22t-22 54t22 54t54 22zM101 10v828h130v-828h-130z" />
<glyph unicode="j" horiz-adv-x="305" d="M143 1254q31 0 53 -22t23 -54q-1 -32 -23 -54t-54 -22t-53 22q-22 22 -22 54t22 55q23 21 54 21zM84 -156v962h129v-899q0 -168 -19 -225q-51 -144 -204 -160v124q50 9 72 53t22 145z" />
<glyph unicode="k" horiz-adv-x="638" d="M490 10l-226 427l207 401h134l-219 -392l248 -436h-144zM98 10v1259h130v-1259h-130z" />
<glyph unicode="l" horiz-adv-x="312" d="M90 10v1259h130v-1259h-130z" />
<glyph unicode="m" horiz-adv-x="1008" d="M924 10h-129v593q0 136 -91 136q-65 0 -129 -106v-623h-128v591q0 138 -93 138q-62 0 -126 -108v-621h-130v828h130v-92h19q63 106 157 106t167 -136q95 136 173 136t129 -60t51 -180v-602z" />
<glyph unicode="n" horiz-adv-x="670" d="M100 10v828h130v-92h19q64 106 146 106q81 0 131 -62t50 -179v-601h-129v597q0 132 -91 132q-71 0 -126 -109v-620h-130z" />
<glyph unicode="o" horiz-adv-x="647" d="M447 422q1 316 -123 316t-124 -316t124 -315q124 -1 123 315zM324 860q118 0 186 -116t69 -323q-1 -206 -69 -321t-186 -115t-188 115t-69 321q-1 207 69 323t188 116z" />
<glyph unicode="p" horiz-adv-x="668" d="M342 77q129 1 129 311t-142 310q-66 0 -99 -83v-454q56 -84 112 -84zM100 -479v1285h130v-61h18q48 75 123 75q99 0 167 -125t67 -315q0 -190 -67 -308q-64 -117 -167 -117q-67 0 -123 75h-18v-509h-130z" />
<glyph unicode="q" horiz-adv-x="667" d="M331 698q-133 0 -133 -310t142 -311q67 0 105 92v435q-43 94 -114 94zM445 -479v507h-21q-46 -73 -124 -73q-100 1 -168 117t-67 318q-1 202 65 316t168 114q78 0 126 -76h21v62h128v-1285h-128z" />
<glyph unicode="r" horiz-adv-x="465" d="M104 10v828h130v-229h21q45 155 73 199t71 44t72 -20l-11 -131q-20 14 -56 14q-82 0 -133 -155q-37 -112 -37 -223v-327h-130z" />
<glyph unicode="s" horiz-adv-x="466" d="M195 107q85 0 85 83q0 60 -107 220t-107 252t49 144q49 54 123 54t134 -49v-116q-58 48 -118 48q-69 0 -69 -72q1 -55 111 -212t110 -257t-55 -158t-135 -59q-80 0 -159 64v134q70 -76 138 -76z" />
<glyph unicode="t" horiz-adv-x="421" d="M276 -15q-147 0 -147 180v561h-97q100 120 227 324v-214h140v-110h-140v-494q0 -125 70 -125q29 0 70 18v-110q-71 -30 -123 -30zM259 1055h3q-2 -2 -3 -5v5z" />
<glyph unicode="u" horiz-adv-x="670" d="M564 837v-828h-129v92h-20q-61 -105 -142 -105t-133 59t-52 174v608h130v-597q0 -130 90 -130q84 0 127 108v619h129z" />
<glyph unicode="v" horiz-adv-x="553" d="M262 -10l-248 847h129l124 -485h19l124 485h129l-250 -847h-27z" />
<glyph unicode="w" horiz-adv-x="833" d="M237 -10l-225 847h130l107 -456h21l126 456h41l126 -456h20l107 456h131l-225 -847h-26l-143 509h-21l-143 -509h-26z" />
<glyph unicode="x" horiz-adv-x="591" d="M30 10l191 423l-191 405h135l124 -286l117 286h131l-179 -405l200 -423h-135l-135 309l-123 -309h-135z" />
<glyph unicode="y" horiz-adv-x="574" d="M66 -490l171 607l-221 689h134l138 -443h18l124 443h127l-361 -1296h-130z" />
<glyph unicode="z" horiz-adv-x="518" d="M49 728v110h421l-268 -718h279v-110h-453l265 718h-244z" />
<glyph unicode="{" horiz-adv-x="626" d="M253 763v144q1 201 63 281t212 80h53v-122h-19q-104 0 -138 -42t-33 -165v-136q0 -189 -41 -279t-172 -144q130 -54 172 -144t41 -279v-137q0 -123 33 -165t138 -42h19v-121h-53q-150 0 -212 80t-63 281v144q-1 167 -45 239t-149 77v133q104 6 149 78t45 239z" />
<glyph unicode="|" horiz-adv-x="1049" d="M460 -502v1895h130v-1895h-130z" />
<glyph unicode="}" horiz-adv-x="626" d="M376 -3v-144q0 -203 -64 -282t-211 -79h-54v121h17q105 -1 139 41t34 166v137q-1 189 41 279t172 144q-131 54 -172 144t-41 279v136q0 125 -33 166t-138 41h-19v122h54q147 0 211 -79t64 -282v-144q0 -169 44 -241t149 -76v-133q-105 -5 -149 -76t-44 -240z" />
<glyph unicode="~" horiz-adv-x="1253" d="M880 583q-106 -1 -262 75t-223 76q-125 0 -264 -117v108q139 112 264 112q89 1 245 -75t222 -76q124 0 260 120v-109q-135 -114 -242 -114z" />
<glyph unicode="&#xad;" horiz-adv-x="447" d="M59 524h327v-141h-327v141z" />
<glyph unicode="&#x60c;" horiz-adv-x="303" d="M253 114q0 -103 -142 -103q-25 1 -43 19t-18 44q0 170 10 206t44 63q52 43 117 44q14 0 32 -2v-41l-21 2q-108 10 -135 -104q156 0 156 -128z" />
<glyph unicode="&#x61b;" horiz-adv-x="317" d="M263 100q-1 -107 -107 -107t-106 107t106 107t107 -107zM267 383q0 -103 -142 -103q-25 0 -43 18t-18 45q0 171 10 207t44 62q52 43 117 44q14 0 32 -2v-41l-21 2q-108 10 -135 -104q156 0 156 -128z" />
<glyph unicode="&#x61f;" horiz-adv-x="639" d="M489 -113q-102 -1 -102 105t102 106q107 0 107 -106t-107 -105zM248 568q-190 0 -183 141q27 479 384 479q45 0 82 -6l2 -133q-167 0 -202 -19q-124 -64 -129 -239q-1 -91 84 -91h140q132 0 152 -143q0 -135 -38 -340l-99 6q28 165 -7 345h-186z" />
<glyph unicode="&#x621;" horiz-adv-x="615" d="M415 136h150v-124h-515v123h91l-24 34q-51 72 -45 138q-6 81 72 152q138 127 378 18v-122q-264 115 -336 -36q-10 -18 -13 -40q10 -75 151 -125q42 -18 91 -18z" />
<glyph unicode="&#x622;" horiz-adv-x="233" d="M249 1401v-43l2 -2q-50 -14 -128.5 4t-135.5 2v47q51 18 137 -6q68 -11 96.5 -6t28.5 4zM50 10v1256h133l-1 -1256h-132zM-13 1409v1l-1 -1h1z" />
<glyph unicode="&#x623;" horiz-adv-x="233" d="M175 1390h78v-40h-275v39h66q-103 76 -26.5 157.5t211.5 16.5v-37q-142 57 -184 -23q-36 -67 79 -104q24 -9 51 -9zM50 10v1256h133l-1 -1256h-132z" />
<glyph unicode="&#x624;" horiz-adv-x="638" d="M378 818h78v-40h-275v39h66q-102 77 -25.5 158t210.5 16v-37q-140 57 -184 -23q-34 -67 79 -104q24 -9 51 -9zM446 383q0 98 -116 98q-139 0 -139 -159q-13 -174 255 -180v241zM422 621q65 0 116 -51t51 -122q-2 -428 -22 -501q-30 -114 -118 -183q-134 -109 -303 -112 q-48 0 -94 8v135q171 -43 303 62q55 43 82 156q-385 0 -385 337q-2 271 370 271z" />
<glyph unicode="&#x625;" horiz-adv-x="233" d="M173 -254h78v-40h-275v39h66q-102 76 -26 158q79 80 211 16v-37q-142 57 -184 -23q-34 -67 79 -104q24 -9 51 -9zM50 10v1256h133l-1 -1256h-132z" />
<glyph unicode="&#x626;" horiz-adv-x="1075" d="M321 272h78v-40h-275v39h66q-103 76 -26.5 157.5t211.5 16.5v-37q-142 57 -184 -23q-36 -67 79 -104q24 -9 51 -9zM754 10q-178 0 -170 139q26 470 359 470q41 0 75 -6l2 -130q-157 0 -189 -19q-115 -64 -119 -236q-2 -88 78 -86h133q120 -2 139 -143 q0 -138 -116.5 -258.5t-341.5 -120.5t-335 144t-92 376h111q-30 -198 119 -324q79 -66 191 -66q169 0 255 71q84 72 77 189h-176z" />
<glyph unicode="&#x627;" horiz-adv-x="233" d="M50 10v1256h133l-1 -1256h-132z" />
<glyph unicode="&#x628;" horiz-adv-x="1367" d="M181 321q0 -181 179 -179h678q147 10 147 176l1 300h130l1 -298q-4 -141 -46 -207q-66 -100 -233 -103h-591q-275 2 -336 86t-61 204q0 318 390 318v-130q-259 0 -259 -167zM832 -241q0 -95 -95 -95t-95 95t95 95t95 -95z" />
<glyph unicode="&#x629;" horiz-adv-x="631" d="M506 911q0 -95 -95 -95t-95 95t95 95t95 -95zM294 911q0 -95 -95 -95t-95 95t95 95t95 -95zM264.5 505q-23.5 -24 -52.5 -94.5t-37 -226.5q61 -50 137.5 -55.5t150.5 50.5q-7 146 -51.5 247t-96.5 102q-27 1 -50.5 -23zM579 168q5 -77 -89 -124q-73 -37 -166.5 -38.5 t-182.5 40.5t-87 122q3 113 34.5 234.5t85.5 182.5t142 71q86 -13 139 -74t86.5 -185t37.5 -229z" />
<glyph unicode="&#x62a;" horiz-adv-x="1367" d="M181 321q0 -181 179 -179h678q147 10 147 176l1 300h130l1 -298q-4 -141 -46 -207q-66 -100 -233 -103h-591q-275 2 -336 86t-61 204q0 318 390 318v-130q-259 0 -259 -167zM984 826q0 -95 -95 -95t-95 95t95 95t95 -95zM772 826q0 -95 -95 -95t-95 95t95 95t95 -95z" />
<glyph unicode="&#x62b;" horiz-adv-x="1367" d="M858 991q0 -95 -95 -95t-95 95t95 95t95 -95zM964 791q0 -95 -95 -95t-95 95t95 95t95 -95zM756 791q0 -95 -95 -95t-95 95t95 95t95 -95zM181 321q0 -181 179 -179h678q147 10 147 176l1 300h130l1 -298q-4 -141 -46 -207q-66 -100 -233 -103h-591q-275 2 -336 86 t-61 204q0 318 390 318v-130q-259 0 -259 -167z" />
<glyph unicode="&#x62c;" horiz-adv-x="1081" d="M677 -280q0 -95 -95 -95t-95 95t95 95t95 -95zM1034 10h-459q-371 0 -376 -236q-3 -236 346 -471v-132q-485 297 -489 635t805 335q-397 473 -654 267l-78 94q179 124 324.5 113.5t322.5 -194.5t258 -253v-158z" />
<glyph unicode="&#x62d;" horiz-adv-x="1081" d="M1034 10h-459q-371 0 -376 -236q-3 -236 346 -471v-132q-485 297 -489 635t805 335q-397 473 -654 267l-78 94q179 124 324.5 113.5t322.5 -194.5t258 -253v-158z" />
<glyph unicode="&#x62e;" horiz-adv-x="1081" d="M545 908q0 -95 -95 -95t-95 95t95 95t95 -95zM1034 10h-459q-371 0 -376 -236q-3 -236 346 -471v-132q-485 297 -489 635t805 335q-397 473 -654 267l-78 94q179 124 324.5 113.5t322.5 -194.5t258 -253v-158z" />
<glyph unicode="&#x62f;" horiz-adv-x="848" d="M344 489h-259v130h263q258 -1 354 -131t96 -478h-748v132h606q-28 239 -100 293t-212 54z" />
<glyph unicode="&#x630;" horiz-adv-x="848" d="M414 904q0 -95 -95 -95t-95 95t95 95t95 -95zM344 489h-259v130h263q258 -1 354 -131t96 -478h-748v132h606q-28 239 -100 293t-212 54z" />
<glyph unicode="&#x631;" horiz-adv-x="407" d="M215 617h140l2 -441q0 -529 -408 -527v132q232 18 259 243q9 78 9 158z" />
<glyph unicode="&#x632;" horiz-adv-x="407" d="M335 908q0 -95 -95 -95t-95 95t95 95t95 -95zM215 617h140l2 -441q0 -529 -408 -527v132q232 18 259 243q9 78 9 158z" />
<glyph unicode="&#x633;" horiz-adv-x="1635" d="M817 148v468h130v-297q0 -175 95 -173q92 2 92 173v297h132v-297q0 -175 96 -173q91 1 91 171v299h132v-296q-1 -138 -47 -208q-69 -104 -180 -104q-74 0 -159 82q-85 -82 -164 -82q-38 0 -96 34q-7 -27 -12 -42q-31 -116 -117 -183q-136 -109 -308 -110.5t-312 111 t-140 372.5h124q-12 -172 104 -270q90 -75 212 -83.5t224.5 73t102.5 238.5z" />
<glyph unicode="&#x634;" horiz-adv-x="1635" d="M1379 907q0 -95 -95 -95t-95 95t95 95t95 -95zM1167 907q0 -95 -95 -95t-95 95t95 95t95 -95zM1287 1153q0 -95 -95 -95t-95 95t95 95t95 -95zM817 148v468h130v-297q0 -175 95 -173q92 2 92 173v297h132v-297q0 -175 96 -173q91 1 91 171v299h132v-296q-1 -138 -47 -208 q-69 -104 -180 -104q-74 0 -159 82q-85 -82 -164 -82q-38 0 -96 34q-7 -27 -12 -42q-31 -116 -117 -183q-136 -109 -308 -110.5t-312 111t-140 372.5h124q-12 -172 104 -270q90 -75 212 -83.5t224.5 73t102.5 238.5z" />
<glyph unicode="&#x635;" horiz-adv-x="1912" d="M1457 479q-369 0 -496 -337h778q-19 337 -282 337zM50 191h124q-12 -172 104 -270q90 -75 212 -83.5t223 72t101 227.5v309l133 -1v-122q241 297 551 297q160 0 262 -141.5t99 -327.5v-141h-930q-33 -124 -119 -192q-136 -109 -308 -110.5t-312 110.5t-140 373z" />
<glyph unicode="&#x636;" horiz-adv-x="1912" d="M1410 908q0 -95 -95 -95t-95 95t95 95t95 -95zM1457 479q-369 0 -496 -337h778q-19 337 -282 337zM50 191h124q-12 -172 104 -270q90 -75 212 -83.5t223 72t101 227.5v309l133 -1v-122q241 297 551 297q160 0 262 -141.5t99 -327.5v-141h-930q-33 -124 -119 -192 q-136 -109 -308 -110.5t-312 110.5t-140 373z" />
<glyph unicode="&#x637;" horiz-adv-x="1417" d="M965 478q-369 0 -497 -336h779q-21 336 -282 336zM1005 619q161 0 262.5 -141.5t98.5 -327.5v-140h-1183q-131 0 -130 168q43 -37 134 -36h135l1 1124l132 -2v-942q241 297 550 297z" />
<glyph unicode="&#x638;" horiz-adv-x="1417" d="M930 909q0 -95 -95 -95t-95 95t95 95t95 -95zM965 478q-369 0 -497 -336h779q-21 336 -282 336zM1005 619q161 0 262.5 -141.5t98.5 -327.5v-140h-1183q-131 0 -130 168q43 -37 134 -36h135l1 1124l132 -2v-942q241 297 550 297z" />
<glyph unicode="&#x639;" horiz-adv-x="876" d="M906 142v-132h-217q-338 -2 -338 -242.5t349 -475.5v-132q-479 156 -479 648q0 125 97 206q38 32 87 54q-60 51 -130 141q-145 190 35 342q195 165 536 22v-127q-368 147 -470 -43q-79 -151 191 -242q65 -20 127 -19h212z" />
<glyph unicode="&#x63a;" horiz-adv-x="876" d="M645 908q0 -95 -95 -95t-95 95t95 95t95 -95zM906 142v-132h-217q-338 -2 -338 -242.5t349 -475.5v-132q-479 156 -479 648q0 125 97 206q38 32 87 54q-60 51 -130 141q-145 190 35 342q195 165 536 22v-127q-368 147 -470 -43q-79 -151 191 -242q65 -20 127 -19h212z " />
<glyph unicode="&#x640;" horiz-adv-x="276" d="M-4 10v132h284v-132h-284z" />
<glyph unicode="&#x641;" horiz-adv-x="1553" d="M1263 860q0 -107 -106.5 -107t-106.5 107t106.5 107t106.5 -107zM1343 247q23 126 -16.5 184.5t-142.5 50.5q-175 0 -175 -177q5 -147 167 -161q148 0 167 103zM478 10q-271 0 -341.5 95.5t-48.5 296t383 218.5v-130q-259 0 -259 -167q0 -180 178 -181h543 q-61 100 -49 208q29 252 273 271q211 16 296 -156q68 -135 3 -308q-69 -145 -194 -147h-784z" />
<glyph unicode="&#x642;" horiz-adv-x="1001" d="M894 860q0 -107 -106.5 -107t-106.5 107t106.5 107t106.5 -107zM659 860q0 -107 -106.5 -107t-106.5 107t106.5 107t106.5 -107zM784 618q65 0 116 -52t51 -121q-1 -422 -27 -519t-113 -166q-138 -108 -303 -112q-176 0 -317 113t-141 380h123q-12 -177 107 -278 q89 -75 211.5 -83.5t225.5 73.5q55 43 82 157q-385 0 -386 336q0 272 371 272zM807 380q0 98 -115 98q-139 0 -139 -160q-14 -177 254 -177v239z" />
<glyph unicode="&#x643;" horiz-adv-x="1369" d="M458 491q-259 0 -259 -167q0 -181 178 -182h678q148 12 148 179v946l133 -1l-2 -943q0 -137 -39 -197q-69 -106 -239 -116h-589q-400 4 -382 307t373 304v-130zM849 547h102v-56h-355v55h83q-114 104 -19.5 199.5t261.5 20.5v-53q-184 74 -236 -26q-39 -85 99 -129 q33 -11 65 -11z" />
<glyph unicode="&#x644;" horiz-adv-x="998" d="M50 189h124q-12 -172 104 -270q90 -75 212 -83.5t225 73.5q102 83 102 239l-1 1117h132l-1 -995q0 -200 -20 -271q-31 -115 -117 -183q-138 -108 -304 -112q-176 0 -316 112t-140 373z" />
<glyph unicode="&#x645;" horiz-adv-x="903" d="M446 142h151q58 -1 99.5 43.5t35.5 112.5q-17 189 -164 191q-153 2 -122 -347zM53 -125q0 259 286 267q-26 290 35 382q61 98 179.5 97t195.5 -93q79 -89 91.5 -229.5t-54.5 -217t-175 -71.5h-283q-147 -11 -148 -177v-270h-130q3 213 3 312z" />
<glyph unicode="&#x646;" horiz-adv-x="997" d="M544 583q0 -95 -95 -95t-95 95t95 95t95 -95zM817 149v468h130v-345q0 -200 -20 -271q-32 -115 -118 -183q-136 -109 -307.5 -110.5t-311.5 110.5t-140 373h124q-12 -172 104 -270q89 -75 211.5 -83.5t225 73t102.5 238.5z" />
<glyph unicode="&#x647;" horiz-adv-x="631" d="M264.5 505q-23.5 -24 -52.5 -94.5t-37 -226.5q61 -50 137.5 -55.5t150.5 50.5q-7 146 -51.5 247t-96.5 102q-27 1 -50.5 -23zM579 168q5 -77 -89 -124q-73 -37 -166.5 -38.5t-182.5 40.5t-87 122q3 113 34.5 234.5t85.5 182.5t142 71q86 -13 139 -74t86.5 -185t37.5 -229 z" />
<glyph unicode="&#x648;" horiz-adv-x="638" d="M446 383q0 98 -116 98q-139 0 -139 -159q-13 -174 255 -180v241zM422 621q65 0 116 -51t51 -122q-2 -428 -22 -501q-30 -114 -118 -183q-134 -109 -303 -112q-48 0 -94 8v135q171 -43 303 62q55 43 82 156q-385 0 -385 337q-2 271 370 271z" />
<glyph unicode="&#x649;" horiz-adv-x="1003" d="M660 10q-178 0 -170 139q26 470 359 470q41 0 75 -6l2 -130q-155 0 -189 -19q-115 -64 -119 -236q-2 -88 78 -86h133q120 -2 139 -143q0 -138 -117 -258.5t-340.5 -120.5t-334.5 144t-93 376h111q-30 -198 119 -324q79 -66 191 -66q169 0 255 71q84 72 77 189h-176z" />
<glyph unicode="&#x64a;" horiz-adv-x="1003" d="M707 -619q0 -95 -95 -95t-95 95t95 95t95 -95zM495 -619q0 -95 -95 -95t-95 95t95 95t95 -95zM660 10q-178 0 -170 139q26 470 359 470q41 0 75 -6l2 -130q-155 0 -189 -19q-115 -64 -119 -236q-2 -88 78 -86h133q120 -2 139 -143q0 -138 -117 -258.5t-340.5 -120.5 t-334.5 144t-93 376h111q-30 -198 119 -324q79 -66 191 -66q169 0 255 71q84 72 77 189h-176z" />
<glyph unicode="&#x64b;" d="M-24 1754l261 34l6 -41l-262 -33zM-8 1654l261 34l6 -41l-262 -33z" />
<glyph unicode="&#x64c;" d="M-31 1792q0 21 4 34q12 59 60 85q-5 -3 -23 -29.5t-23 -66.5q-10 -94 76 -109q-7 -7 -15 -22q-79 33 -79 108zM189 1723l14 78q4 37 -35 44q-48 7 -57 -45q-14 -59 78 -77zM162 1871q48 0 65 -22q11 -19 7 -33q-24 -133 -31 -145q-20 -32 -41 -45q-49 -24 -111 -12 q2 16 5 24q95 -24 128 62q-114 20 -99 112q9 59 77 59z" />
<glyph unicode="&#x64d;" d="M-23 -711l261 34l6 -41l-262 -33zM-8 -812l261 34l6 -41l-262 -33z" />
<glyph unicode="&#x64e;" d="M-8 1654l261 34l6 -41l-262 -33z" />
<glyph unicode="&#x64f;" d="M135 1724l13 76q6 36 -38 44t-52 -45q-15 -57 77 -75zM91 1648q22 12 39 53q-114 20 -97 110q12 70 112 54q17 -3 27 -17t7 -33q-21 -123 -33 -148t-48 -43t-79 -11l-20 5l4 23q-1 1 24 -6t64 13z" />
<glyph unicode="&#x650;" d="M-23 -711l261 34l6 -41l-262 -33z" />
<glyph unicode="&#x651;" d="M74 1638h14v1q28 1 28 68v73h34v-73q0 -71 41 -69q39 2 39 68v101h35l-1 -100q0 -106 -74 -106q-22 0 -57 32q-33 -30 -45 -31v-1h-13q-36 0 -55.5 28.5t-19.5 77.5v99h35v-100q0 -68 39 -68z" />
<glyph unicode="&#x652;" d="M117 1659q20 0 30.5 19.5t10.5 44t-19 46t-42 21.5q-41 4 -54.5 -35.5t-13.5 -95.5h88zM103 1840q81 0 81 -156q0 -27 -15 -47t-34 -20q-74 0 -87 1q-40 24 -48 80q3 91 40 122q30 20 63 20z" />
<glyph unicode="&#x660;" horiz-adv-x="310" d="M155 612q105 0 105 -104t-105 -105q-105 1 -105 105t105 104z" />
<glyph unicode="&#x661;" horiz-adv-x="230" d="M50 22v1232h130l-1 -1232h-129z" />
<glyph unicode="&#x662;" horiz-adv-x="655" d="M50 22v1232h130v-324q10 -139 144 -137t135 168v293h129l-1 -290q0 -136 -45 -205q-68 -101 -188 -101t-174 26l-1 -662h-129z" />
<glyph unicode="&#x663;" horiz-adv-x="856" d="M493 963q0 -172 94 -170q88 2 89 168v293h130l-1 -290q0 -136 -45 -205q-68 -101 -177 -101q-73 0 -156 80q-86 -80 -161 -80q-32 0 -86 26l-1 -662h-129v1232h130v-315q6 -148 93 -146q90 1 90 170v291h130v-291z" />
<glyph unicode="&#x664;" horiz-adv-x="794" d="M157 793q-76 157 117 310q166 130 340 155l36 -94q-195 -45 -334 -181q-68 -67 -36 -138q26 -54 113 -106q96 -47 309 -34l12 -119q-212 -46 -308 -130t-135 -160q-63 -125 70 -147q67 -11 195 4t205 55l33 -134q-182 -59 -372 -62q-270 -5 -290 147q-6 124 94 260 q89 117 220 185q-81 8 -161 70t-108 119z" />
<glyph unicode="&#x665;" horiz-adv-x="722" d="M370 149q-146 0 -220 115q-74 116 -84 288t32 338t104 238t164 70t164 -70t105 -238q44 -170 37 -340t-81 -286q-75 -116 -221 -115zM371 304q109 0 154 125q37 102 25 255t-64 273t-120 121q-66 2 -116 -117t-62 -273t27 -259q47 -125 156 -125z" />
<glyph unicode="&#x666;" horiz-adv-x="680" d="M50 1124v130l304 -1q72 -1 134 -27t95 -74q44 -71 44 -204l3 -928h-131v929q0 165 -145 175h-304z" />
<glyph unicode="&#x667;" horiz-adv-x="774" d="M180 1253l121 -954q14 -106 76 -143q64 37 80 143l137 958l130 -19l-138 -956q-20 -134 -76 -198q-46 -55 -135 -72q-79 14 -133 76q-53 61 -71 197l-121 951z" />
<glyph unicode="&#x668;" horiz-adv-x="774" d="M301 971l-121 -954l-130 17l121 951q18 137 63 189t82 66t59 18q26 -5 59 -16q45 -20 76 -57q56 -62 76 -197l138 -956l-130 -19l-137 958q-16 106 -80 143q-62 -37 -76 -143z" />
<glyph unicode="&#x669;" horiz-adv-x="628" d="M437 711v305q0 97 -113 97q-68 0 -100 -38q-32 -39 -36 -125t58 -162t191 -77zM578 1080v-1058h-130v561h-32q-176 1 -270 113t-96 287q0 267 364 267q64 0 114 -52t50 -118z" />
<glyph unicode="&#x66a;" horiz-adv-x="711" d="M58 -25l433 1211l130 -46l-434 -1211zM556 317q105 -1 105 -105t-105 -104t-105 104t105 105zM155 1059q105 -1 105 -105t-105 -104t-105 104t105 105z" />
<glyph unicode="&#x2000;" horiz-adv-x="1080" />
<glyph unicode="&#x2001;" horiz-adv-x="2161" />
<glyph unicode="&#x2002;" horiz-adv-x="1080" />
<glyph unicode="&#x2003;" horiz-adv-x="2161" />
<glyph unicode="&#x2004;" horiz-adv-x="720" />
<glyph unicode="&#x2005;" horiz-adv-x="540" />
<glyph unicode="&#x2006;" horiz-adv-x="360" />
<glyph unicode="&#x2007;" horiz-adv-x="360" />
<glyph unicode="&#x2008;" horiz-adv-x="270" />
<glyph unicode="&#x2009;" horiz-adv-x="432" />
<glyph unicode="&#x200a;" horiz-adv-x="120" />
<glyph unicode="&#x2010;" horiz-adv-x="447" d="M59 524h327v-141h-327v141z" />
<glyph unicode="&#x2011;" horiz-adv-x="447" d="M59 524h327v-141h-327v141z" />
<glyph unicode="&#x2012;" horiz-adv-x="447" d="M59 524h327v-141h-327v141z" />
<glyph unicode="&#x2013;" horiz-adv-x="1144" d="M59 524h1024v-141h-1024v141z" />
<glyph unicode="&#x2014;" horiz-adv-x="2168" d="M59 524h2048v-141h-2048v141z" />
<glyph unicode="&#x2018;" horiz-adv-x="326" d="M271 1020q0 -42 -27 -70t-71 -29q-44 0 -76 44t-32 117q0 182 179 259v-1q-63 -91 -52 -226q79 -18 79 -94z" />
<glyph unicode="&#x2019;" horiz-adv-x="326" d="M55 1247q0 41 26 70q27 28 72 28q45 1 77 -43t31 -117q0 -183 -179 -260v1q64 91 52 227q-79 18 -79 94z" />
<glyph unicode="&#x202f;" horiz-adv-x="432" />
<glyph unicode="&#x205f;" horiz-adv-x="540" />
<glyph unicode="&#x25fc;" horiz-adv-x="840" d="M0 840h840v-840h-840v840z" />
<glyph />
<glyph horiz-adv-x="508" />
<glyph d="M74 1648h14v1q28 1 28 68v73h34v-73q0 -71 41 -69q39 2 39 68v101h35l-1 -100q0 -106 -74 -106q-22 0 -57 32q-33 -30 -45 -31v-1h-13q-36 0 -55.5 28.5t-19.5 77.5v99h35v-100q0 -68 39 -68zM178 1966l13 76q6 35 -38 43.5t-52 -44.5q-15 -57 77 -75zM46 1883 q50 -12 88 7q22 12 39 53q-114 20 -97 110q12 70 112 54q16 -3 26.5 -17t7.5 -33q-22 -123 -33.5 -148t-47 -43t-79.5 -11l-20 5z" />
<glyph d="M74 1649h14v1q28 1 28 68v73h34v-73q0 -71 41 -69q39 1 39 68v101h35l-1 -100q0 -48 -19 -77t-48 -29t-64 32q-33 -30 -45 -31v-1h-13q-36 0 -55.5 28.5t-19.5 77.5v99h35v-100q0 -68 39 -68zM1 2042q0 21 4 34q12 59 60 85q-5 -3 -23 -29.5t-23 -66.5q-10 -94 76 -109 q-7 -7 -15 -22q-79 33 -79 108zM221 1973l14 78q4 37 -35 44q-48 7 -57 -45q-14 -59 78 -77zM194 2121q48 0 65 -22q11 -19 7 -33q-24 -133 -31 -145q-20 -32 -41 -45q-49 -24 -111 -12q2 16 5 24q95 -24 128 62q-114 20 -99 112q9 59 77 59z" />
<glyph d="M74 1648h14v1q28 1 28 68v73h34v-73q0 -71 41 -69q39 2 39 68v101h35l-1 -100q0 -106 -74 -106q-22 0 -57 32q-33 -30 -45 -31v-1h-13q-36 0 -55.5 28.5t-19.5 77.5v99h35v-100q0 -68 39 -68zM1 1913l261 34l6 -41l-262 -33z" />
<glyph d="M74 1648h14v1q28 1 28 68v73h34v-73q0 -71 41 -69q39 2 39 68v101h35l-1 -100q0 -106 -74 -106q-22 0 -57 32q-33 -30 -45 -31v-1h-13q-36 0 -55.5 28.5t-19.5 77.5v99h35v-100q0 -68 39 -68zM-17 1996l261 34l6 -41l-262 -33zM-1 1896l261 34l6 -41l-262 -33z" />
<glyph d="M55 1887h14v1q28 1 28 68v73h34v-73q0 -71 41 -69q39 1 39 68v101h35l-1 -100q0 -106 -74 -106q-22 0 -57 32q-33 -30 -45 -31v-1h-13q-36 0 -55.5 28.5t-19.5 77.5v99h35v-100q0 -68 39 -68zM-21 1751l261 34l6 -41l-262 -33z" />
<glyph d="M28 1876h14v1q28 1 28 68v73h34v-73q0 -71 41 -69q39 2 39 68v101h35l-1 -100q0 -106 -74 -106q-22 0 -57 32q-33 -30 -45 -31v-1h-13q-36 0 -55.5 28.5t-19.5 77.5v99h35v-100q0 -68 39 -68zM-22 1755l261 34l6 -41l-262 -33zM-7 1654l261 34l6 -41l-262 -33z" />
<glyph horiz-adv-x="416" d="M298 49h78v-40h-275v39h66q-103 76 -27 158t212 16v-37q-142 57 -184 -23q-36 -67 79 -104q24 -9 51 -9z" />
<glyph horiz-adv-x="359" d="M324 61v-43l2 -2q-50 -14 -128 4t-136 2v47q51 18 137 -6q68 -11 97 -6q28 5 28 4zM62 69v1l-1 -1h1z" />
<glyph horiz-adv-x="497" d="M341 861q0 -95 -95 -95t-95 95t95 95t95 -95z" />
<glyph horiz-adv-x="702" d="M566 860q0 -95 -95 -95t-95 95t95 95t95 -95zM354 860q0 -95 -95 -95t-95 95t95 95t95 -95z" />
<glyph horiz-adv-x="1367" d="M181 321q0 -181 179 -179h678q147 10 147 176l1 300h130l1 -298q-4 -141 -46 -207q-66 -100 -233 -103h-591q-275 2 -336 86t-61 204q0 318 390 318v-130q-259 0 -259 -167z" />
<glyph horiz-adv-x="1478" d="M50 299q0 318 389 318v-130q-259 0 -259 -167q0 -180 179 -178h677q149 11 149 177v297h132v-297q0 -167 148 -177h31v-132h-35q-122 0 -211 80q-93 -83 -211 -80h-593q-274 1 -335 86t-61 203z" />
<glyph horiz-adv-x="512" d="M444 618v-297q0 -137 -40 -197q-74 -112 -239 -114h-183v132h183q147 -2 147 177v299h132z" />
<glyph horiz-adv-x="593" d="M-10 10v132h153q149 -4 149 176v297h133v-297q0 -178 143 -176h35v-132h-35q-121 0 -210 80q-89 -80 -211 -80h-157z" />
<glyph horiz-adv-x="814" d="M373 141q146 0 167 103q46 250 -159 234q-177 0 -175 -176q5 -149 167 -161zM-10 142h140q-61 100 -49 204q29 253 273 272q211 16 296 -156q64 -131 -1 -320h175v-132h-834v132z" />
<glyph horiz-adv-x="741" d="M369 141q147 1 167 104q46 251 -159 234q-175 0 -175 -176q5 -149 167 -162zM-14 142h140q-61 100 -49 205q29 253 273 272q212 17 296 -156q66 -137 3 -309q-69 -146 -192 -144h-471v132z" />
</font>
</defs>
</svg>
