<?xml version="1.0" standalone="no"?>
<!DOCTYPE svg PUBLIC "-//W3C//DTD SVG 1.1//EN" "http://www.w3.org/Graphics/SVG/1.1/DTD/svg11.dtd" >
<svg xmlns="http://www.w3.org/2000/svg" xmlns:xlink="http://www.w3.org/1999/xlink" version="1.1">
<metadata></metadata>
<defs>
<font id="shorooq_yaraathin" horiz-adv-x="0" >
<font-face units-per-em="2048" ascent="1536" descent="-512" />
<missing-glyph horiz-adv-x="508" />
<glyph unicode="&#xfedf;&#xfee0;&#xfeea;" horiz-adv-x="1532" arabic-form="isolated" d="M924 1296q0 -81 52 -79q48 1 48 78v91h15v-89q2 -101 -64 -102q-34 0 -58 41q-31 -43 -60 -38q-63 4 -63 98v89h15v-90q0 -78 49 -78q52 3 52 79v63h14v-63zM785 1489l242 31l3 -22l-242 -30zM211 336q-64 0 -114 47q-47 47 -47 108q0 159 174 290q57 43 219 112v27h103 v-587h-1q2 -188 137 -201q5 -1 21 -1h16q159 0 159 187v760h111l1 -760q0 -187 154 -187h68q158 0 158 188v936h111l1 -934q-2 -133 -40 -191q-71 -107 -230 -110h-68q-123 0 -211 84q-88 -84 -206 -84l-3 1l-21 -1q-161 2 -231 110q-38 58 -39 191v40q-82 -25 -222 -25z M171 536q0 -89 105 -89h167v342q-272 -122 -272 -253z" />
<glyph unicode="&#xfedf;&#xfe82;" horiz-adv-x="783" arabic-form="isolated" d="M313 1243v-30q-47 -13 -119.5 3.5t-140.5 5.5q-2 23 2 25q53 16 132 -7q89 -14 93 -10t33 13zM621 319v936h111l1 -934q-1 -135 -39 -192q-70 -107 -231 -109h-135q-120 2 -118 136q26 -25 123 -26q149 50 66 210l-278 694l104 45l279 -691q44 -116 29 -186 q-1 -10 -24 -81q112 82 112 198z" />
<glyph unicode="&#xfee0;&#xfe82;" horiz-adv-x="974" arabic-form="final" d="M313 1256v-30q-47 -13 -119.5 3.5t-140.5 5.5q-2 23 2 25q53 16 132 -7q92 -14 96 -7q1 1 30 10zM691 319v936h111l1 -934q11 -191 156 -189h25v-112h-25q-123 0 -211 84q-93 -82 -215 -84h-135q-120 2 -118 136q26 -25 123 -26q151 56 57 211l-277 693l113 45l277 -691 q45 -114 30 -186q-2 -16 -25 -81q113 83 113 198z" />
<glyph unicode="&#xfedf;&#xfe84;" horiz-adv-x="809" arabic-form="isolated" d="M303 1214h68v-20h-255v19h76q-109 82 -34 163q77 81 189 8v-25q-125 75 -184 -18q-41 -77 85 -118q25 -9 55 -9zM680 319v936h111l1 -934q-2 -133 -40 -191q-71 -107 -230 -110h-135q-120 1 -118 136q26 -25 123 -26q150 50 66 210l-278 694l104 45l279 -691 q44 -116 29 -186q-2 -10 -24 -81q112 82 112 198z" />
<glyph unicode="&#xfee0;&#xfe84;" horiz-adv-x="999" arabic-form="final" d="M303 1222h68v-20h-255v19h76q-109 82 -34 163q77 81 189 8v-25q-125 75 -184 -18q-41 -77 85 -118q25 -9 55 -9zM749 319v936h111l1 -934q11 -191 156 -189h25v-112h-25q-123 0 -211 84q-93 -82 -215 -84h-135q-120 1 -118 136q26 -25 123 -26q151 56 57 211l-277 693 l113 45l277 -691q45 -114 30 -186q-1 -9 -25 -81q113 83 113 198z" />
<glyph unicode="&#xfedf;&#xfe88;" horiz-adv-x="712" arabic-form="isolated" d="M428 -311h68v-20h-255v19h76q-109 82 -34 163q77 81 189 8v-25q-125 75 -184 -18q-41 -77 85 -118q25 -9 55 -9zM550 319v936h111l1 -934q-2 -133 -40 -191q-71 -107 -230 -110h-135q-120 2 -118 136q26 -25 123 -26q150 50 66 210l-278 694l104 45l279 -691 q44 -116 29 -186q-2 -10 -24 -81q112 82 112 198z" />
<glyph unicode="&#xfee0;&#xfe88;" horiz-adv-x="841" arabic-form="final" d="M394 -312h68v-20h-255v19h76q-109 82 -34 163q77 81 189 8v-25q-125 75 -184 -18q-41 -77 85 -118q25 -9 55 -9zM558 319v936h111l1 -934q10 -191 156 -189h25v-112h-25q-123 0 -211 84q-93 -82 -215 -84h-135q-120 2 -118 136q26 -25 123 -26q151 56 57 211l-277 693 l113 45l277 -691q45 -114 30 -186q-1 -9 -25 -81q113 83 113 198z" />
<glyph unicode="&#xfedf;&#xfe8e;" horiz-adv-x="712" arabic-form="isolated" d="M550 319v936h111l1 -934q-2 -133 -40 -191q-71 -107 -230 -110h-135q-120 2 -118 136q26 -25 123 -26q150 50 66 210l-278 694l104 45l279 -691q44 -116 29 -186q-2 -10 -24 -81q112 82 112 198z" />
<glyph unicode="&#xfee0;&#xfe8e;" horiz-adv-x="841" arabic-form="final" d="M558 319v936h111l1 -934q10 -191 156 -189h25v-112h-25q-123 0 -211 84q-93 -82 -215 -84h-135q-120 2 -118 136q26 -25 123 -26q151 56 57 211l-277 693l113 45l277 -691q45 -114 30 -186q-1 -9 -25 -81q113 83 113 198z" />
<glyph unicode="&#x622;" horiz-adv-x="365" arabic-form="final" d="M285 1396v-30q-47 -13 -119.5 3.5t-140.5 5.5q-2 23 2 25q53 16 132 -7q92 -14 96 -7q1 1 30 10zM194 1256v-937q0 -177 157 -187h24v-112h-23q-160 4 -230 109q-38 57 -39 192l-2 935h113z" />
<glyph unicode="&#x623;" horiz-adv-x="333" arabic-form="final" d="M207 1384h68v-20h-255v19h76q-109 82 -34 163q77 81 189 8v-25q-125 75 -184 -18q-41 -77 85 -118q26 -9 55 -9zM195 1256v-937q0 -177 157 -187h24v-112h-23q-71 1 -132.5 26.5t-91.5 72.5q-45 67 -45 202l-2 935h113z" />
<glyph unicode="&#x624;" horiz-adv-x="727" arabic-form="final" d="M344 804h68v-20h-255v19h76q-109 82 -34 163q77 81 189 8v-25q-125 75 -184 -18q-41 -77 85 -118q25 -9 55 -9zM444 380q0 108 -125 108q-149 0 -149 -168q-14 -183 274 -191v251zM737 20h-180q-6 -63 -10 -74q-30 -110 -115 -177q-134 -107 -297 -110q-52 0 -85 6v114 q19 -5 59 -8q134 -9 241 75q58 46 88 174q-386 0 -388 327q0 261 361 261q61 0 109 -48t48 -115q-1 -210 -5 -313h174v-112z" />
<glyph unicode="&#x625;" horiz-adv-x="337" arabic-form="final" d="M269 -282h68v-20h-255v19h76q-109 82 -34 163q77 81 189 8v-25q-125 75 -184 -18q-41 -77 85 -118q26 -9 55 -9zM199 1256v-937q0 -177 157 -187h24v-112h-23q-71 1 -132.5 26.5t-91.5 72.5q-45 67 -45 202l-2 935h113z" />
<glyph unicode="&#x626;" horiz-adv-x="1067" arabic-form="final" d="M303 283h68v-20h-255v19h76q-109 82 -34 163q77 81 189 8v-25q-125 75 -184 -18q-41 -77 85 -118q25 -9 55 -9zM1110 20h-69q0 -47 -5 -77q-20 -103 -105 -192q-118 -124 -337 -124t-333 148q-60 78 -79 228q-10 77 -6 129h90q-9 -57 12 -137q29 -120 112.5 -188.5 t197.5 -68.5q173 0 262 74q75 65 82 207q-152 6 -201 120l53 108q45 -115 202 -115h124v-112z" />
<glyph unicode="&#x626;" horiz-adv-x="493" arabic-form="initial" d="M273 319v289h112v-287q0 -135 -46 -202q-61 -94 -223 -99h-126v112h126q157 -2 157 187zM375 739h68v-20h-255v19h76q-109 82 -34 163q77 81 189 8v-25q-125 75 -184 -18q-41 -77 85 -118q26 -9 55 -9z" />
<glyph unicode="&#x626;" horiz-adv-x="524" arabic-form="medial" d="M-10 20v112h94q159 -4 159 186v287h113v-287q0 -188 153 -186h25v-112h-25q-122 0 -210 84q-88 -84 -211 -84h-98zM360 742h68v-20h-255v19h76q-109 82 -34 163q77 81 189 8v-25q-125 75 -184 -18q-41 -77 85 -118q25 -9 55 -9z" />
<glyph unicode="&#x627;" horiz-adv-x="368" arabic-form="final" d="M197 1256v-937q0 -177 157 -187h24v-112h-23q-71 1 -132.5 26.5t-91.5 72.5q-45 67 -45 202l-2 935h113z" />
<glyph unicode="&#x628;" horiz-adv-x="1466" arabic-form="final" d="M50 299q0 308 369 308v-110q-259 0 -259 -177q0 -190 189 -188h678q158 11 158 187v287h112v-287q0 -177 157 -187h22v-112h-25q-123 0 -211 84q-92 -88 -211 -84h-593q-269 2 -327.5 83t-58.5 196zM776 -229q0 -85 -85 -85t-85 85t85 85t85 -85z" />
<glyph unicode="&#x628;" horiz-adv-x="435" arabic-form="initial" d="M273 319v289h112v-287q0 -135 -46 -202q-61 -94 -223 -99h-126v112h126q157 -2 157 187zM277 -231q0 -85 -85 -85t-85 85t85 85t85 -85z" />
<glyph unicode="&#x628;" horiz-adv-x="524" arabic-form="medial" d="M-10 20v112h94q159 -4 159 186v287h113v-287q0 -188 153 -186h25v-112h-25q-122 0 -210 84q-88 -84 -211 -84h-98zM343 -232q0 -85 -85 -85t-85 85t85 85t85 -85z" />
<glyph unicode="&#x629;" horiz-adv-x="709" arabic-form="final" d="M475 907q0 -85 -85 -85t-85 85t85 85t85 -85zM285 907q0 -85 -85 -85t-85 85t85 85t85 -85zM719 20h-276v32q-89 -29 -232 -29q-64 0 -114 47q-47 47 -47 108q0 160 174 290q57 43 219 112v27h103v-475h173v-112zM171 221q0 -89 105 -89h167v342q-272 -122 -272 -253z " />
<glyph unicode="&#x62a;" horiz-adv-x="1466" arabic-form="final" d="M50 299q0 308 369 308v-110q-259 0 -259 -177q0 -190 189 -188h678q158 11 158 187v287h112v-287q0 -177 157 -187h22v-112h-25q-123 0 -211 84q-92 -88 -211 -84h-593q-269 2 -327.5 83t-58.5 196zM928 907q0 -85 -85 -85t-85 85t85 85t85 -85zM738 907q0 -85 -85 -85 t-85 85t85 85t85 -85z" />
<glyph unicode="&#x62a;" horiz-adv-x="483" arabic-form="initial" d="M273 319v289h112v-287q0 -135 -46 -202q-61 -94 -223 -99h-126v112h126q157 -2 157 187zM435 907q0 -85 -85 -85t-85 85t85 85t85 -85zM245 907q0 -85 -85 -85t-85 85t85 85t85 -85z" />
<glyph unicode="&#x62a;" horiz-adv-x="524" arabic-form="medial" d="M-10 20v112h94q159 -4 159 186v287h113v-287q0 -188 153 -186h25v-112h-25q-122 0 -210 84q-88 -84 -211 -84h-98zM467 907q0 -85 -85 -85t-85 85t85 85t85 -85zM277 907q0 -85 -85 -85t-85 85t85 85t85 -85z" />
<glyph unicode="&#x62b;" horiz-adv-x="1466" arabic-form="final" d="M845 1000q0 -85 -85 -85t-85 85t85 85t85 -85zM940 828q0 -85 -85 -85t-85 85t85 85t85 -85zM754 828q0 -85 -85 -85t-85 85t85 85t85 -85zM50 299q0 308 369 308v-110q-259 0 -259 -177q0 -190 189 -188h678q158 11 158 187v287h112v-287q0 -177 157 -187h22v-112h-25 q-123 0 -211 84q-92 -88 -211 -84h-593q-269 2 -327.5 83t-58.5 196z" />
<glyph unicode="&#x62b;" horiz-adv-x="567" arabic-form="initial" d="M422 1068q0 -85 -85 -85t-85 85t85 85t85 -85zM517 896q0 -85 -85 -85t-85 85t85 85t85 -85zM331 896q0 -85 -85 -85t-85 85t85 85t85 -85zM278 319v289h112v-287q0 -135 -46 -202q-61 -94 -223 -99h-131v112h131q157 -2 157 187z" />
<glyph unicode="&#x62b;" horiz-adv-x="524" arabic-form="medial" d="M384 1068q0 -85 -85 -85t-85 85t85 85t85 -85zM479 896q0 -85 -85 -85t-85 85t85 85t85 -85zM293 896q0 -85 -85 -85t-85 85t85 85t85 -85zM-10 20v112h94q159 -4 159 186v287h113v-287q0 -188 153 -186h25v-112h-25q-122 0 -210 84q-88 -84 -211 -84h-98z" />
<glyph unicode="&#x62c;" horiz-adv-x="1150" arabic-form="final" d="M613 -284q0 -85 -85 -85t-85 85t85 85t85 -85zM1161 20h-632q-379 -1 -379 -244t349 -478v-112q-94 17 -271 170t-176 486.5t799 289.5l-293 297q-81 66 -167.5 73t-217.5 -80l-65 79q329 226 572 -35l379 -334h102v-112z" />
<glyph unicode="&#x62c;" horiz-adv-x="985" arabic-form="initial" d="M489 -267q0 -85 -85 -85t-85 85t85 85t85 -85zM-10 20v112h791l-294 297q-81 66 -167.5 72.5t-217.5 -79.5l-65 79q329 227 573 -35l325 -335l-15 -111h-930z" />
<glyph unicode="&#x62c;" horiz-adv-x="1081" arabic-form="medial" d="M485 -237q0 -85 -85 -85t-85 85t85 85t85 -85zM1091 132v-112h-1101v112h791l-294 297q-81 66 -167.5 72.5t-217.5 -79.5l-65 79q329 227 573 -35l294 -260q16 -14 41 -37l44 -37h102z" />
<glyph unicode="&#x62d;" horiz-adv-x="1150" arabic-form="final" d="M1161 20h-632q-379 -1 -379 -244t349 -478v-112q-94 17 -271 170t-176 486.5t799 289.5l-293 297q-81 66 -167.5 73t-217.5 -80l-65 79q329 226 572 -35l379 -334h102v-112z" />
<glyph unicode="&#x62d;" horiz-adv-x="985" arabic-form="initial" d="M-10 20v112h791l-294 297q-81 66 -167.5 72.5t-217.5 -79.5l-65 79q329 227 573 -35l325 -335l-15 -111h-930z" />
<glyph unicode="&#x62d;" horiz-adv-x="1081" arabic-form="medial" d="M1091 132v-112h-1101v112h791l-294 297q-81 66 -167.5 72.5t-217.5 -79.5l-65 79q329 227 573 -35l294 -260q16 -14 41 -37l44 -37h102z" />
<glyph unicode="&#x62e;" horiz-adv-x="1150" arabic-form="final" d="M467 908q0 -85 -85 -85t-85 85t85 85t85 -85zM1161 20h-632q-379 -1 -379 -244t349 -478v-112q-94 17 -271 170t-176 486.5t799 289.5l-293 297q-81 66 -167.5 73t-217.5 -80l-65 79q329 226 572 -35l379 -334h102v-112z" />
<glyph unicode="&#x62e;" horiz-adv-x="985" arabic-form="initial" d="M400 908q0 -85 -85 -85t-85 85t85 85t85 -85zM-10 20v112h791l-294 297q-81 66 -167.5 72.5t-217.5 -79.5l-65 79q329 227 573 -35l325 -335l-15 -111h-930z" />
<glyph unicode="&#x62e;" horiz-adv-x="1081" arabic-form="medial" d="M395 908q0 -85 -85 -85t-85 85t85 85t85 -85zM1091 132v-112h-1101v112h791l-294 297q-81 66 -167.5 72.5t-217.5 -79.5l-65 79q329 227 573 -35l294 -260q16 -14 41 -37l44 -37h102z" />
<glyph unicode="&#x62f;" horiz-adv-x="941" arabic-form="final" d="M334 498h-249v110h253q254 0 357 -141q54 -72 77 -335h179v-112h-901v112h607q-27 254 -103 310t-220 56z" />
<glyph unicode="&#x630;" horiz-adv-x="941" arabic-form="final" d="M368 908q0 -85 -85 -85t-85 85t85 85t85 -85zM334 498h-249v110h253q254 0 357 -141q54 -72 77 -335h179v-112h-901v112h607q-27 254 -103 310t-220 56z" />
<glyph unicode="&#x631;" horiz-adv-x="505" arabic-form="final" d="M515 132v-112h-23q-77 1 -161 38q-58 -401 -382 -399v112q231 18 259 252q9 79 9 159l-2 425h120l1 -289q2 -188 154 -186h25z" />
<glyph unicode="&#x632;" horiz-adv-x="505" arabic-form="final" d="M356 912q0 -85 -85 -85t-85 85t85 85t85 -85zM515 132v-112h-23q-77 1 -161 38q-58 -401 -382 -399v112q231 18 259 252q9 79 9 159l-2 425h120l1 -289q2 -188 154 -186h25z" />
<glyph unicode="&#x633;" horiz-adv-x="1734" arabic-form="final" d="M1720 20q-127 0 -210 83q-83 -83 -158.5 -83t-162.5 84q-85 -84 -164 -84q-38 0 -103 38l-14 -56q-31 -112 -114 -178q-133 -106 -300 -108t-307 108q-137 110 -137 355h103q-12 -167 108 -267q95 -77 218.5 -86t231.5 75q106 85 106 247v458h110v-288q0 -184 103.5 -182 t103.5 182v288h112v-288q0 -184 106 -182q101 2 101 181v289h113v-288q0 -188 154 -186h24v-112h-24z" />
<glyph unicode="&#x633;" horiz-adv-x="996" arabic-form="initial" d="M40 20h-50v112h47q159 -2 159 189v287h112v-287q0 -185 105 -183q102 2 102 183v287h112v-287q0 -185 106 -183q100 2 101 181v289h112l-1 -286q0 -136 -45 -203q-66 -99 -171 -99q-70 0 -159 86q-89 -86 -159.5 -86t-159.5 86q-90 -86 -211 -86z" />
<glyph unicode="&#x633;" horiz-adv-x="1115" arabic-form="medial" d="M-10 20v112h47q159 -2 159 186v287h112v-287q0 -184 103.5 -182t103.5 182v287h112v-287q0 -185 106 -183q100 2 101 182v288h113v-287q0 -188 153 -186h25v-112h-25q-125 0 -209 82q-82 -82 -158 -82t-163 84q-87 -84 -159.5 -84t-159.5 84q-88 -84 -211 -84h-50z" />
<glyph unicode="&#x634;" horiz-adv-x="1734" arabic-form="final" d="M1369 906q0 -85 -85 -85t-85 85t85 85t85 -85zM1179 906q0 -85 -85 -85t-85 85t85 85t85 -85zM1271 1092q0 -85 -85 -85t-85 85t85 85t85 -85zM1720 20q-127 0 -210 83q-83 -83 -158.5 -83t-162.5 84q-85 -84 -164 -84q-38 0 -103 38l-14 -56q-31 -112 -114 -178 q-133 -106 -300 -108t-307 108q-137 110 -137 355h103q-12 -167 108 -267q95 -77 218.5 -86t231.5 75q106 85 106 247v458h110v-288q0 -184 103.5 -182t103.5 182v288h112v-288q0 -184 106 -182q101 2 101 181v289h113v-288q0 -188 154 -186h24v-112h-24z" />
<glyph unicode="&#x634;" horiz-adv-x="996" arabic-form="initial" d="M756 907q0 -85 -85 -85t-85 85t85 85t85 -85zM566 907q0 -85 -85 -85t-85 85t85 85t85 -85zM658 1099q0 -85 -85 -85t-85 85t85 85t85 -85zM40 20h-50v112h47q159 -2 159 189v287h112v-287q0 -185 105 -183q102 2 102 183v287h112v-287q0 -185 106 -183q100 2 101 181 v289h112l-1 -286q0 -136 -45 -203q-66 -99 -171 -99q-70 0 -159 86q-89 -86 -159.5 -86t-159.5 86q-90 -86 -211 -86z" />
<glyph unicode="&#x634;" horiz-adv-x="1115" arabic-form="medial" d="M770 903q0 -85 -85 -85t-85 85t85 85t85 -85zM580 903q0 -85 -85 -85t-85 85t85 85t85 -85zM671 1084q0 -85 -85 -85t-85 85t85 85t85 -85zM-10 20v112h47q159 -2 159 186v287h112v-287q0 -184 103.5 -182t103.5 182v287h112v-287q0 -185 106 -183q100 2 101 182v288h113 v-287q0 -188 153 -186h25v-112h-25q-125 0 -209 82q-82 -82 -158 -82t-163 84q-87 -84 -159.5 -84t-159.5 84q-88 -84 -211 -84h-50z" />
<glyph unicode="&#x635;" horiz-adv-x="2002" arabic-form="final" d="M1447 489q-376 0 -511 -357h803q-19 357 -292 357zM2012 132v-112h-1100q-36 -130 -118 -194q-134 -107 -300.5 -108.5t-306.5 108.5q-137 110 -137 355h103q-12 -167 108 -267q95 -77 218.5 -86t229 74t105.5 235v299l113 -1v-140q257 315 561 315q155 0 254.5 -137.5 t96.5 -340.5h173z" />
<glyph unicode="&#x635;" horiz-adv-x="1164" arabic-form="initial" d="M720 490q-376 0 -511 -358h803q-21 358 -292 358zM-10 132h97v305h113v-141q256 315 560 315q156 0 255 -137t96 -322v-132h-1121v112z" />
<glyph unicode="&#x635;" horiz-adv-x="1274" arabic-form="medial" d="M720 490q-376 0 -511 -358h803q-21 358 -292 358zM87 437h113v-141q256 315 560 315q156 0 255 -137t96 -342h173v-112h-1294v112h97v305z" />
<glyph unicode="&#x636;" horiz-adv-x="2002" arabic-form="final" d="M1324 895q0 -85 -85 -85t-85 85t85 85t85 -85zM1447 490q-376 0 -511 -358h803q-19 358 -292 358zM2012 132v-112h-1100q-36 -130 -118 -194q-134 -107 -300.5 -108.5t-306.5 108.5q-137 110 -137 355h103q-12 -167 108 -267q95 -77 218.5 -86t229 74t105.5 235v299 l113 -1v-140q257 315 561 315q155 0 254.5 -137.5t96.5 -340.5h173z" />
<glyph unicode="&#x636;" horiz-adv-x="1164" arabic-form="initial" d="M557 908q0 -85 -85 -85t-85 85t85 85t85 -85zM720 490q-376 0 -511 -358h803q-21 358 -292 358zM-10 132h97v305h113v-141q256 315 560 315q156 0 255 -137t96 -322v-132h-1121v112z" />
<glyph unicode="&#x636;" horiz-adv-x="1274" arabic-form="medial" d="M652 908q0 -85 -85 -85t-85 85t85 85t85 -85zM720 490q-376 0 -511 -358h803q-21 358 -292 358zM87 437h113v-141q256 315 560 315q156 0 255 -137t96 -342h173v-112h-1294v112h97v305z" />
<glyph unicode="&#x637;" horiz-adv-x="1508" arabic-form="final" d="M954 489q-376 0 -511 -357h803q-21 357 -292 357zM1519 132v-112h-1347q-121 1 -120 137q31 -26 124 -25h145l1 1125l112 -2v-960q256 315 560 315q157 0 257 -142q97 -133 94 -336h174z" />
<glyph unicode="&#x637;" horiz-adv-x="1172" arabic-form="initial" d="M-10 20v112h105l1 1125l112 -2v-960q256 315 560 315q157 0 257 -142q97 -133 94 -317v-131h-1129zM724 490q-376 0 -511 -358h803q-21 358 -292 358z" />
<glyph unicode="&#x637;" horiz-adv-x="1296" arabic-form="medial" d="M1306 20h-1316v112h105l1 1125l112 -2v-960q256 315 560 315q157 0 257 -142q97 -133 94 -336h187v-112zM724 490q-376 0 -511 -358h803q-21 358 -292 358z" />
<glyph unicode="&#x638;" horiz-adv-x="1508" arabic-form="final" d="M885 908q0 -85 -85 -85t-85 85t85 85t85 -85zM954 489q-376 0 -511 -357h803q-21 357 -292 357zM1519 132v-112h-1347q-121 1 -120 137q31 -26 124 -25h145l1 1125l112 -2v-960q256 315 560 315q157 0 257 -142q97 -133 94 -336h174z" />
<glyph unicode="&#x638;" horiz-adv-x="1172" arabic-form="initial" d="M623 908q0 -85 -85 -85t-85 85t85 85t85 -85zM-10 20v112h105l1 1125l112 -2v-960q256 315 560 315q157 0 257 -142q97 -133 94 -317v-131h-1129zM724 490q-376 0 -511 -358h803q-21 358 -292 358z" />
<glyph unicode="&#x638;" horiz-adv-x="1296" arabic-form="medial" d="M627 815q-85 0 -85 85t85 85t85 -85t-85 -85zM1306 20h-1316v112h105l1 1171l112 -2v-1006q256 315 560 315q157 0 257 -142q97 -133 94 -336h187v-112zM724 490q-376 0 -511 -358h803q-21 358 -292 358z" />
<glyph unicode="&#x639;" horiz-adv-x="877" arabic-form="final" d="M887 20h-314q-159 0 -166 -1q-221 0 -221 -259l1 -12q2 -86 41 -165q63 -125 246 -258l61 -44v-111q-349 114 -444 506q-50 197 64 311q43 43 138 79q-197 173 -223 294q-10 41 -10 94q0 156 163 156h328q162 0 162 -156v-7q-1 -162 -177 -315h351v-112zM591 408 q0 90 -106 90h-197q-106 0 -106 -90q0 -167 208 -279l12 8q189 105 189 271z" />
<glyph unicode="&#x639;" horiz-adv-x="738" arabic-form="initial" d="M514 132h202v-112h-726v112h185q-51 58 -73 85q-140 182 33 328q191 162 521 24v-107q-364 145 -469 -53q-85 -160 196 -256q60 -21 131 -21z" />
<glyph unicode="&#x639;" horiz-adv-x="1036" arabic-form="medial" d="M608 539h-205q-132 0 -132 -113q0 -187 237 -316q230 125 230 316q0 113 -130 113zM1046 132v-112h-423q-67 0 -116 25q-47 -24 -127 -25h-390v112h281q-126 118 -126 320q0 183 189 183h342q190 0 190 -181.5t-162 -321.5h342z" />
<glyph unicode="&#x63a;" horiz-adv-x="867" arabic-form="final" d="M451 908q0 -85 -85 -85t-85 85t85 85t85 -85zM879 20h-314q-159 0 -166 -1q-221 0 -221 -259l1 -12q2 -86 41 -165q63 -125 246 -258l61 -44v-111q-349 114 -444 506q-50 197 64 311q43 43 138 79q-197 173 -223 294q-10 41 -10 94q0 156 163 156h328q162 0 162 -156v-7 q-1 -162 -177 -315h351v-112zM583 408q0 90 -106 90h-197q-106 0 -106 -90q0 -167 208 -279l12 8q189 105 189 271z" />
<glyph unicode="&#x63a;" horiz-adv-x="738" arabic-form="initial" d="M445 908q0 -85 -85 -85t-85 85t85 85t85 -85zM514 132h202v-112h-726v112h185q-51 58 -73 85q-140 182 33 328q191 162 521 24v-107q-364 145 -469 -53q-85 -160 196 -256q60 -21 131 -21z" />
<glyph unicode="&#x63a;" horiz-adv-x="1036" arabic-form="medial" d="M567 908q0 -85 -85 -85t-85 85t85 85t85 -85zM608 539h-205q-132 0 -132 -113q0 -187 237 -316q230 125 230 316q0 113 -130 113zM1046 132v-112h-423q-67 0 -116 25q-47 -24 -127 -25h-390v112h281q-126 118 -126 320q0 183 189 183h342q190 0 190 -181.5t-162 -321.5 h342z" />
<glyph unicode="&#x641;" horiz-adv-x="1566" arabic-form="final" d="M1233 847q0 -85 -85 -85t-85 85t85 85t85 -85zM1134 131q156 0 178 111q50 262 -170 246q-186 0 -184 -186q6 -159 176 -171zM1576 132v-112h-1139q-268 1 -327.5 80.5t-59.5 198.5q0 308 370 308v-110q-259 0 -259 -177q0 -188 188 -188h560q-67 110 -56 213 q27 244 264 263q203 17 286 -151q62 -128 -6 -325h179z" />
<glyph unicode="&#x641;" horiz-adv-x="745" arabic-form="initial" d="M362 131q157 1 178 112q50 262 -170 246q-184 0 -184 -186q6 -158 176 -172zM-10 132h147q-67 110 -56 214q27 244 264 263q205 16 286 -151q65 -130 3 -300q-68 -140 -183 -138h-461v112zM468 904q0 -85 -85 -85t-85 85t85 85t85 -85z" />
<glyph unicode="&#x641;" horiz-adv-x="794" arabic-form="medial" d="M362 131q156 0 178 111q50 262 -170 246q-186 0 -184 -186q6 -159 176 -171zM-10 132h147q-67 110 -56 213q27 244 264 263q203 17 286 -151q62 -128 -6 -325h179v-112h-814v112zM429 908q0 -85 -85 -85t-85 85t85 85t85 -85z" />
<glyph unicode="&#x642;" horiz-adv-x="1090" arabic-form="final" d="M839 852q0 -85 -85 -85t-85 85t85 85t85 -85zM649 852q0 -85 -85 -85t-85 85t85 85t85 -85zM1100 20h-179q-7 -49 -11 -74q-30 -111 -114 -178q-133 -106 -300 -108t-307 108q-139 111 -139 363h103q-14 -174 110 -275q95 -77 218.5 -86t231.5 75q59 47 88 175 q-387 0 -387 326q0 262 361 262q61 0 108.5 -49t47.5 -114q0 -166 -5 -313h174v-112zM808 131v249q0 108 -126 108q-148 0 -149 -169q-15 -188 275 -188z" />
<glyph unicode="&#x642;" horiz-adv-x="745" arabic-form="initial" d="M362 131q157 1 178 112q50 262 -170 246q-184 0 -184 -186q6 -158 176 -172zM-10 132h147q-67 110 -56 214q27 244 264 263q205 16 286 -151q65 -130 3 -300q-68 -140 -183 -138h-461v112zM565 907q0 -85 -85 -85t-85 85t85 85t85 -85zM375 907q0 -85 -85 -85t-85 85 t85 85t85 -85z" />
<glyph unicode="&#x642;" horiz-adv-x="794" arabic-form="medial" d="M362 131q156 0 178 111q50 262 -170 246q-186 0 -184 -186q6 -159 176 -171zM-10 132h147q-67 110 -56 213q27 244 264 263q203 17 286 -151q62 -128 -6 -325h179v-112h-814v112zM565 907q0 -85 -85 -85t-85 85t85 85t85 -85zM375 907q0 -85 -85 -85t-85 85t85 85t85 -85 z" />
<glyph unicode="&#x643;" horiz-adv-x="1475" arabic-form="final" d="M1501 132v-112h-24q-79 2 -124 21t-67 83q-60 -60 -111.5 -80.5t-122.5 -23.5h-590q-270 3 -333 94t-41 291t356 205v-110q-259 0 -259 -177q0 -189 189 -191h679q156 10 157 188v937l112 -1l1 -941q0 -182 154 -183h24zM841 537h92v-36h-334v35h93q-130 79 -33 211 q94 77 244 13v-32q-175 70 -234 -37q-47 -98 104 -143q35 -11 68 -11z" />
<glyph unicode="&#x643;" horiz-adv-x="787" arabic-form="initial" d="M73 498v144q0 37 15 52l489 493h160l-584 -579q232 -42 361 -138q176 -132 176 -293q0 -61 -48 -108t-114 -49h-538v112h472q106 1 106 90q0 72 -130 160q-209 116 -365 116z" />
<glyph unicode="&#x643;" horiz-adv-x="851" arabic-form="medial" d="M676 20v85q-82 -84 -149 -85h-537v112h472q106 1 106 91q0 70 -130 161q-208 115 -365 115v144q0 36 14 53l490 493h160l-584 -579q232 -43 361 -139q176 -131 176 -293q0 -4 -5 -46h176v-112h-185z" />
<glyph unicode="&#x644;" horiz-adv-x="1097" arabic-form="final" d="M1083 20q-82 0 -161 41q-2 -10 -14 -60q-32 -111 -114 -177q-133 -106 -300 -108t-307 108q-137 110 -137 355h103q-12 -167 108 -267q95 -77 218.5 -86t231.5 75q106 85 106 247v1107h111l1 -937q0 -188 154 -186h24v-112h-24z" />
<glyph unicode="&#x644;" horiz-adv-x="358" arabic-form="initial" d="M196 319v936h111l1 -934q-2 -133 -40 -191q-71 -107 -230 -110h-48v112h48q158 -2 158 187z" />
<glyph unicode="&#x644;" horiz-adv-x="477" arabic-form="medial" d="M-10 20v112h47q159 -2 159 186v935h111l1 -935q0 -188 154 -186h25v-112h-25q-123 0 -211 84q-88 -84 -211 -84h-50z" />
<glyph unicode="&#x645;" horiz-adv-x="863" arabic-form="final" d="M873 132v-112h-124v44q-80 -47 -148 -44h-283q-157 -11 -158 -187v-260h-110v283q4 118 44 177q64 95 246 100q-25 295 33.5 387.5t171.5 90.5t188.5 -90t87.5 -230q7 -71 -22 -159h74zM426 132h161q63 -1 107.5 46.5t37.5 120.5q-17 198 -173 200q-165 2 -133 -367z" />
<glyph unicode="&#x645;" horiz-adv-x="665" arabic-form="initial" d="M211 132h159q64 0 108 48t37 118q-18 200 -174 201q-164 2 -130 -367zM-10 132h133q-26 296 33 388t172 90q112 -2 188 -89t87 -223t-52 -210t-167 -68h-394v112z" />
<glyph unicode="&#x645;" horiz-adv-x="789" arabic-form="medial" d="M535 20v47q-80 -50 -150 -47h-395v112h133q-26 296 33 388t172 90q112 -2 188 -89.5t88 -229.5q7 -71 -22 -159h217v-112h-264zM210 132h160q64 0 108 48t37 118q-18 200 -174 201q-164 2 -131 -367z" />
<glyph unicode="&#x646;" horiz-adv-x="1096" arabic-form="final" d="M526 583q0 -85 -85 -85t-85 85t85 85t85 -85zM927 320q0 -190 158 -188h21v-112h-25q-58 -1 -125 26l-35 13q-6 -30 -12 -56q-32 -110 -115 -177q-134 -107 -300 -108.5t-306 108.5q-138 110 -138 355h103q-12 -167 109 -267q92 -77 217 -86t232 75q106 84 106 246v458 h110v-287z" />
<glyph unicode="&#x646;" horiz-adv-x="467" arabic-form="initial" d="M273 319v289h112v-287q0 -135 -46 -202q-61 -94 -223 -99h-126v112h126q157 -2 157 187zM417 908q0 -85 -85 -85t-85 85t85 85t85 -85z" />
<glyph unicode="&#x646;" horiz-adv-x="524" arabic-form="medial" d="M-10 20v112h94q159 -4 159 186v287h113v-287q0 -188 153 -186h25v-112h-25q-122 0 -210 84q-88 -84 -211 -84h-98zM387 908q0 -85 -85 -85t-85 85t85 85t85 -85z" />
<glyph unicode="&#x647;" horiz-adv-x="709" arabic-form="final" d="M719 20h-276v32q-89 -29 -232 -29q-64 0 -114 47q-47 47 -47 108q0 160 174 290q57 43 219 112v27h103v-475h173v-112zM171 221q0 -89 105 -89h167v342q-272 -122 -272 -253z" />
<glyph unicode="&#x647;" horiz-adv-x="788" arabic-form="initial" d="M736 20h-746v112h131q-29 78 -29 144t36.5 120t86 69t95.5 -4t78.5 -70.5t32.5 -116t-29 -142.5h244q-3 83 -18 139q-75 232 -247 288q-82 27 -173.5 3t-146.5 -69v97q163 100 316 73t274 -195q97 -132 95 -316v-132zM256 376q-94 0 -94 -116.5t94 -116.5t94 116.5 t-94 116.5z" />
<glyph unicode="&#x647;" horiz-adv-x="799" arabic-form="medial" d="M809 132v-112h-819v112h131q-29 78 -29 144t36.5 120t86 69t95.5 -4t78.5 -70.5t32.5 -119t-28 -139.5h244q-4 82 -19 139q-75 232 -247 288q-82 27 -173.5 3t-146.5 -69v97q163 100 316 73t274 -195q97 -132 95 -336h73zM256 376q-94 0 -94 -116.5t94 -116.5t94 116.5 t-94 116.5z" />
<glyph unicode="&#x648;" horiz-adv-x="727" arabic-form="final" d="M444 380q0 108 -125 108q-149 0 -149 -168q-14 -183 274 -191v251zM737 20h-180q-6 -63 -10 -74q-30 -110 -115 -177q-134 -107 -297 -110q-52 0 -85 6v114q19 -5 59 -8q134 -9 241 75q58 46 88 174q-386 0 -388 327q0 261 361 261q61 0 109 -48t48 -115q-1 -210 -5 -313 h174v-112z" />
<glyph unicode="&#x649;" horiz-adv-x="978" arabic-form="final" d="M991 20h-69q0 -47 -5 -77q-19 -103 -105 -192q-118 -124 -338 -124t-332 148q-59 76 -79 228q-11 77 -6 129h90q-11 -57 12 -137q29 -121 113 -189t197 -68q171 0 262 74q75 65 82 207q-151 6 -201 120l53 108q43 -115 202 -115h124v-112z" />
<glyph unicode="&#x64a;" horiz-adv-x="978" arabic-form="final" d="M673 -623q0 -85 -85 -85t-85 85t85 85t85 -85zM483 -623q0 -85 -85 -85t-85 85t85 85t85 -85zM991 20h-69q0 -47 -5 -77q-19 -103 -105 -192q-118 -124 -338 -124t-332 148q-59 76 -79 228q-11 77 -6 129h90q-11 -57 12 -137q29 -121 113 -189t197 -68q171 0 262 74 q75 65 82 207q-151 6 -201 120l53 108q43 -115 202 -115h124v-112z" />
<glyph unicode="&#x64a;" horiz-adv-x="454" arabic-form="initial" d="M273 319v289h112v-287q0 -135 -46 -202q-61 -94 -223 -99h-126v112h126q157 -2 157 187zM367 -234q0 -85 -85 -85t-85 85t85 85t85 -85zM177 -234q0 -85 -85 -85t-85 85t85 85t85 -85z" />
<glyph unicode="&#x64a;" horiz-adv-x="524" arabic-form="medial" d="M-10 20v112h94q159 -4 159 186v287h113v-287q0 -188 153 -186h25v-112h-25q-122 0 -210 84q-88 -84 -211 -84h-98zM457 -233q0 -85 -85 -85t-85 85t85 85t85 -85zM267 -233q0 -85 -85 -85t-85 85t85 85t85 -85z" />
<glyph unicode="&#xd;" horiz-adv-x="682" />
<glyph unicode=" "  horiz-adv-x="508" />
<glyph unicode="&#x09;" horiz-adv-x="508" />
<glyph unicode="&#xa0;" horiz-adv-x="508" />
<glyph unicode="!" horiz-adv-x="308" d="M154 384q-12 0 -44 244q-34 244 -34 443q0 198 78 198t78 -198q0 -199 -33 -443t-45 -244zM155 171q35 -1 59 -25t24 -59t-24 -60t-60 -25t-60 25q-25 25 -25 60t25 60q26 24 61 24z" />
<glyph unicode="&#x22;" horiz-adv-x="652" d="M96 1412h152v-207l-41 -239h-70l-41 239v207zM406 1412h152v-207l-42 -239h-69l-41 239v207z" />
<glyph unicode="#" horiz-adv-x="1257" d="M141 969h277l83 403h100l-82 -403h334l82 403h100l-83 -403h163v-101h-183l-73 -369h256v-99h-277l-82 -405h-99l83 405h-337l-82 -405h-99l82 405h-163v99h184l72 369h-256v101zM424 499h336l72 369h-334z" />
<glyph unicode="$" horiz-adv-x="685" d="M168 960q0 -94 139 -203v351q-139 -54 -139 -148zM521 298q0 116 -142 227v-412q142 69 142 185zM55 949q0 96 63 171t189 94v58h72v-52q118 -2 222 -53v-112q-95 56 -222 58v-415q250 -187 250 -398q1 -109 -63 -190t-187 -114v-187h-72v178q-165 16 -254 66v119 q109 -64 254 -69v481q-252 198 -252 365z" />
<glyph unicode="%" horiz-adv-x="1120" d="M201 -41l636 1313h73l-633 -1313h-76zM190 1207q-72 -1 -72 -257t72 -256t72 256t-72 257zM190 1268q156 0 156 -319t-156 -319t-156 319t156 319zM858 322q0 -256 72 -256t71 256q1 256 -71 257q-72 -1 -72 -257zM1085 322q1 -319 -155 -319t-156 319t156 319t155 -319z " />
<glyph unicode="&#x26;" horiz-adv-x="752" d="M389 1183q-45 0 -75 -40t-29 -113q0 -73 67 -200q136 135 136 225q0 128 -99 128zM180 380q0 -110 42 -182t116 -71q74 0 145 118l-180 399q-123 -154 -123 -264zM316 2q-104 0 -183 102q-78 102 -78 253q0 216 196 391q-75 166 -75 272t64 178q64 73 148 73 q86 1 144 -61t57 -156q0 -153 -191 -323l135 -317h33q35 137 42 208h106q-13 -176 -105 -373l113 -247h-134l-55 129q-113 -129 -217 -129z" />
<glyph unicode="(" horiz-adv-x="388" d="M83 377q0 462 249 861h41q-171 -286 -171 -862t171 -860h-41q-249 399 -249 861z" />
<glyph unicode=")" horiz-adv-x="388" d="M306 377q0 -464 -250 -861h-40q171 284 171 860t-171 862h40q250 -397 250 -861z" />
<glyph unicode="*" horiz-adv-x="645" d="M388 1072q-15 -13 -31 -28q-4 9 -10 16q1 9 1 18q19 -4 40 -6zM540 1164q44 0 44 -41q0 -55 -126 -55q-36 0 -70 4q108 92 152 92zM322 1123q8 -19 18 -41q-9 -1 -17 -5q-8 3 -18 5q9 22 17 41zM322 1324q44 0 44 -48t-44 -153q-84 201 0 201zM323 1077q14 -6 24 -17 q-2 -14 -9 -27q-14 -3 -29 -1q-8 13 -7 30q9 10 21 15zM258 1073q22 2 46 6q-2 -9 -2 -17q-6 -7 -11 -18q-17 16 -33 29zM63 1123q0 41 43 41t152 -91q-41 -5 -71 -5q-124 0 -124 55zM283 996q4 19 8 41q9 -3 18 -5q4 -7 11 -13q-19 -12 -37 -23zM145 868q0 43 138 128 q-38 -171 -88 -171t-50 43zM365 994q-17 11 -36 22q5 8 9 17q9 2 18 5q5 -23 9 -44zM454 825q-53 0 -89 169q137 -87 137 -126q0 -16 -15 -28q-13 -15 -33 -15z" />
<glyph unicode="+" horiz-adv-x="1263" d="M1064 631h-374v-373h-119v373h-373v119h373v373h119v-373h374v-119z" />
<glyph unicode="," horiz-adv-x="306" d="M71 -237q9 4 17 8q-7 -13 -15 -25zM45 69q0 37 24 63t64 26t69 -40t29 -110q0 -168 -143 -237q47 88 36 213q-79 18 -79 85z" />
<glyph unicode="-" horiz-adv-x="427" d="M59 514h307v-121h-307v121z" />
<glyph unicode="." horiz-adv-x="308" d="M238 87q0 -35 -24 -60t-60 -25t-60 25q-25 25 -25 60t25 60q26 24 61 24q35 -1 59 -25t24 -59z" />
<glyph unicode="/" horiz-adv-x="488" d="M20 2l353 1256h94l-353 -1256h-94z" />
<glyph unicode="0" horiz-adv-x="668" d="M203 632q-1 -526 129 -526t130 526q0 264 -19 369q-27 161 -110 161q-88 0 -115 -171q-15 -102 -15 -359zM590 632q0 -362 -78 -516q-60 -121 -181 -121q-256 0 -256 638q-1 638 257 638t258 -639z" />
<glyph unicode="1" horiz-adv-x="696" d="M284 20v1239h125v-1239h-125z" />
<glyph unicode="2" horiz-adv-x="670" d="M69 20v-1q0 1 1 1h-1zM406 904q0 104 -50 169t-122 65t-138 -31v126q84 39 165 39q126 0 200 -90t74 -248q0 -233 -285 -791h311v-123h-491q336 555 336 884z" />
<glyph unicode="3" horiz-adv-x="674" d="M225 116q75 0 127 70t52 182q0 224 -166 246v128q151 22 151 204q-1 91 -47 149t-114 58t-105 -21v114q50 25 127 25q114 -1 191 -85t77 -213q0 -179 -225 -295q240 -82 240 -325q1 -148 -85 -253t-209 -105q-61 0 -145 32v117q55 -28 131 -28z" />
<glyph unicode="4" horiz-adv-x="667" d="M390 446v553h-37l-235 -553h272zM390 20v351h-335v122l340 779h120v-826h70v-75h-70v-351h-125z" />
<glyph unicode="5" horiz-adv-x="673" d="M214 116q100 0 158 72t58 190t-62 187q-62 68 -169 68h-47v624h366v-109h-245v-417q285 -35 285 -346q0 -170 -90 -280t-223 -110q-79 0 -139 28v113q58 -20 108 -20z" />
<glyph unicode="6" horiz-adv-x="670" d="M464 406q0 237 -118 237q-118 1 -118 -263t118 -264t118 290zM373 764q95 0 157 -99q62 -103 62 -273t-72 -284t-171 -113q-99 0 -163 82q-86 107 -86 342t115 464l182 374h120l-250 -515q78 22 106 22z" />
<glyph unicode="7" horiz-adv-x="667" d="M94 1148v109h478l-259 -1258l-116 26l228 1123h-331z" />
<glyph unicode="8" horiz-adv-x="669" d="M460 358q0 233 -126 233t-127 -233q0 -107 31 -169q34 -73 96 -73t95 73q31 62 31 169zM331 1150q-108 0 -108 -220t108 -219q108 -1 108 219t-108 220zM94 942q0 168 78 248t164 81q86 -1 162 -85t75 -248q0 -164 -147 -276q163 -106 163 -304q0 -167 -71 -265t-185 -98 q-114 -1 -184 97t-70 261q0 205 163 308q-148 113 -148 281z" />
<glyph unicode="9" horiz-adv-x="670" d="M228 864q0 -239 118 -239t118 263t-118 263t-118 -287zM321 504q-97 0 -159 101t-62 273t73 283t177 111t173 -105t69 -323t-113 -455l-176 -369h-118l241 503q-77 -19 -105 -19z" />
<glyph unicode=":" horiz-adv-x="308" d="M238 87q0 -35 -24 -60t-60 -25t-60 25q-25 25 -25 60t25 60q26 24 61 24q35 -1 59 -25t24 -59zM155 850q35 0 59 -25t24 -59t-24 -60q-24 -24 -60 -24t-60 24q-25 24 -25 60q0 35 25 60q26 24 61 24z" />
<glyph unicode=";" horiz-adv-x="306" d="M237 750q0 -34 -24 -60q-25 -24 -60 -24t-60 24t-25 60t25 60t60 24t60 -24q24 -26 24 -60zM71 -237q9 4 17 8q-7 -13 -15 -25zM45 69q0 37 24 63t64 26t69 -40t29 -110q0 -168 -143 -237q47 88 36 213q-79 18 -79 85z" />
<glyph unicode="&#x3c;" horiz-adv-x="1263" d="M198 627v131l868 367v-126l-753 -306l753 -306v-126z" />
<glyph unicode="=" horiz-adv-x="1263" d="M1064 851h-866v119h866v-119zM1064 438h-866v119h866v-119z" />
<glyph unicode="&#x3e;" horiz-adv-x="1263" d="M1066 627l-868 -366v126l753 306l-753 306v126l868 -367v-131z" />
<glyph unicode="?" horiz-adv-x="661" d="M153 88q92 0 92 -96t-92 -95q-97 -1 -97 95t97 96zM216 690h141q95 0 93 101q-5 181 -134 248q-43 20 -197 20l3 115q23 4 71 4q349 0 374 -469q8 -131 -173 -131h-193q-37 -179 -11 -345l-80 -5q-36 189 -36 329q18 133 142 133z" />
<glyph unicode="@" horiz-adv-x="1936" d="M1076 618q0 194 -143 194q-116 0 -181 -156t-65 -354q0 -223 149 -223q60 0 119 57q121 121 121 482zM1236 88q86 0 181 110q120 142 120 383q-1 241 -147 391t-393 150q-285 0 -463 -195t-178 -502t172 -492t449 -185t497 174h164q-84 -109 -270 -200t-382 -91 q-322 1 -536 227t-215 549q0 323 168 552q207 282 594 282q317 0 499 -206q162 -186 162 -465t-184 -456q-149 -143 -300 -143q-97 0 -137 130q-130 -130 -244 -130q-113 -1 -193 105t-80 302t110 376t270 180q115 0 233 -172l22 139h142l-114 -717q-17 -96 53 -96z" />
<glyph unicode="A" horiz-adv-x="631" d="M200 417h231l-97 575h-37zM14 20l234 1247h136l233 -1247h-118l-46 283h-271l-50 -283h-118z" />
<glyph unicode="B" horiz-adv-x="709" d="M245 717h35q95 0 151 59t56 160q0 210 -207 210h-35v-429zM245 133h49q222 0 222 231q0 98 -54 169t-168 71h-49v-471zM120 20v1239h175q141 -1 229 -89t88 -207q0 -164 -188 -278q217 -102 217 -316q0 -145 -87 -238q-100 -111 -299 -111h-135z" />
<glyph unicode="C" horiz-adv-x="603" d="M390 2q-153 0 -239 162t-86 462q1 300 83 474t246 175q75 0 156 -57v-108q-52 52 -145 52q-119 0 -168 -145q-40 -117 -40 -380t47 -393t167 -130q77 0 154 68v-118q-83 -62 -175 -62z" />
<glyph unicode="D" horiz-adv-x="771" d="M237 133h45q155 0 220 119q65 118 65 388q-1 270 -63 388t-218 118h-49v-1013zM112 20v1239h162q419 0 419 -618q0 -351 -135 -506q-99 -115 -261 -115h-185z" />
<glyph unicode="E" horiz-adv-x="672" d="M118 20v1239h415v-113h-290v-423h266v-113h-266v-477h306v-113h-431z" />
<glyph unicode="F" horiz-adv-x="597" d="M118 20v1239h358v-113h-233v-421h218v-113h-218v-592h-125z" />
<glyph unicode="G" horiz-adv-x="769" d="M676 666v-597q-103 -67 -205 -67q-184 0 -293 164t-109 466q0 301 105 475q104 168 277 168q103 0 225 -83v-120q-112 100 -217 100q-265 0 -265 -529t280 -529q27 0 77 10v429h-113v113h238z" />
<glyph unicode="H" horiz-adv-x="774" d="M120 20v1239h125v-563h283v563h124v-1239h-124v563h-283v-563h-125z" />
<glyph unicode="I" horiz-adv-x="354" d="M114 20v1239h125v-1239h-125z" />
<glyph unicode="J" horiz-adv-x="359" d="M114 -98v1330h125v-1303q0 -368 -293 -318l-13 110q101 -9 141 23t40 158z" />
<glyph unicode="K" horiz-adv-x="636" d="M514 20l-221 630l175 609h125l-194 -589l242 -650h-127zM122 20v1239h125v-1239h-125z" />
<glyph unicode="L" horiz-adv-x="568" d="M120 20v1239h125v-1126h316v-113h-441z" />
<glyph unicode="M" horiz-adv-x="851" d="M737 1259v-1239h-121l9 913l-31 31l-167 -436h-3l-166 432l-33 -25l10 -915h-121v1239h108l203 -502l203 502h109z" />
<glyph unicode="N" horiz-adv-x="774" d="M120 20v1239h100l283 -789h39v789h110v-1239h-99l-284 797h-38v-797h-111z" />
<glyph unicode="O" horiz-adv-x="786" d="M584 638q0 524 -190 524t-191 -524q0 -524 193 -524q92 0 140 141t48 383zM388 1275q156 1 242 -181t86 -476t-101 -466q-89 -150 -224 -150t-224 158q-96 174 -96 460t76 455q85 200 241 200z" />
<glyph unicode="P" horiz-adv-x="689" d="M251 694h49q221 0 221 240q0 216 -270 212v-452zM126 20v1239h154q167 0 266 -87q99 -88 99 -248t-90 -252t-250 -91h-54v-561h-125z" />
<glyph unicode="Q" horiz-adv-x="777" d="M584 622q0 524 -190 524t-191 -524q0 -524 193 -524q188 0 188 524zM731 -119l4 6l2 -1q-3 -3 -6 -5zM71 622q0 273 79 444q88 192 246 192q136 0 228 -170t92 -466q0 -470 -237 -618q113 -144 188 -144q37 0 64 21l-85 -132q-152 21 -310 245q-265 100 -265 628z" />
<glyph unicode="R" horiz-adv-x="663" d="M245 706h27q158 0 158 218t-185 222v-440zM120 20v1239h117q171 0 245 -99t73 -235q0 -172 -146 -274q117 -86 189 -392l53 -239h-131l-46 205q-47 207 -83 278q-48 99 -146 87v-570h-125z" />
<glyph unicode="S" horiz-adv-x="505" d="M180 111q68 1 110 43t43 101q0 96 -138 354t-138 386q-1 128 67 204t174 76q58 0 117 -27v-108q-47 26 -95 26q-144 0 -144 -142q0 -101 138 -356q138 -256 138 -384t-68 -208q-68 -74 -177 -74q-75 0 -143 41v112q48 -44 116 -44z" />
<glyph unicode="T" horiz-adv-x="562" d="M217 20v1126h-197v113h519v-113h-197v-1126h-125z" />
<glyph unicode="U" horiz-adv-x="751" d="M110 1258h125v-941q1 -203 141 -203t140 195v949h124v-930q0 -174 -96 -262q-73 -64 -177 -64q-105 0 -181 86t-76 227v943z" />
<glyph unicode="V" horiz-adv-x="572" d="M247 2l-229 1256h131l117 -862h38l118 862h132l-228 -1256h-79z" />
<glyph unicode="W" horiz-adv-x="1108" d="M286 2l-266 1256h131l152 -859h36l173 859h86l163 -879h36l161 879h131l-266 -1256h-80l-172 856h-37l-168 -856h-80z" />
<glyph unicode="X" horiz-adv-x="623" d="M16 20l217 660l-186 579h133l113 -423h35l115 423h132l-186 -579l219 -660h-134l-147 475h-33l-144 -475h-134z" />
<glyph unicode="Y" horiz-adv-x="547" d="M208 20v567l-194 672h125l112 -502h35l117 502h128l-198 -672v-567h-125z" />
<glyph unicode="Z" horiz-adv-x="517" d="M61 1146v113h416l-294 -1126h300v-113h-451l295 1126h-266z" />
<glyph unicode="[" horiz-adv-x="469" d="M163 -463v1691h291v-101h-181v-1489h181v-101h-291z" />
<glyph unicode="\" horiz-adv-x="488" d="M467 2h-94l-353 1256h94z" />
<glyph unicode="]" horiz-adv-x="469" d="M305 -463h-291v101h182v1489h-182v101h291v-1691z" />
<glyph unicode="^" horiz-adv-x="843" d="M183 710h-130l313 709h111l312 -709h-128l-241 592z" />
<glyph unicode="_" horiz-adv-x="916" d="M-12 -181h941v-55h-941v55z" />
<glyph unicode="a" horiz-adv-x="602" d="M173 217q0 -120 93 -120q73 0 123 113v259q-216 -132 -216 -252zM484 0q-68 0 -101 132q-101 -137 -165 -137q-64 -1 -108 57t-45 142t63 150t261 181v92q0 131 -108 131q-99 0 -194 -107v110q104 99 195 99q92 0 154 -54t62 -154v-479q0 -70 43 -70q23 0 39 15v-57 q-58 -51 -96 -51z" />
<glyph unicode="b" horiz-adv-x="648" d="M325 107q140 1 140 321t-150 320q-68 0 -111 -94v-450q46 -97 121 -97zM94 19v1239h110v-475h34q40 68 122 68t140 -85q79 -108 79 -328q1 -220 -67 -326t-158 -106q-66 0 -150 96v-83h-110z" />
<glyph unicode="c" horiz-adv-x="504" d="M356 -5q-122 0 -204 117q-82 118 -81 308q0 190 81 310t204 120q58 0 114 -24v-105q-44 27 -92 27q-92 0 -143 -92t-51 -236t56 -234t154 -89q54 0 89 27v-91q-59 -38 -127 -38z" />
<glyph unicode="d" horiz-adv-x="647" d="M326 748q-148 0 -148 -316t141 -317q78 0 126 95v438q-37 100 -119 100zM553 19h-108v66h-36q-52 -79 -132 -79t-141 100q-71 119 -71 315t67 314q62 116 160 116q66 0 153 -105v512h108v-1239z" />
<glyph unicode="e" horiz-adv-x="569" d="M177 480h206q0 280 -106 280q-100 0 -100 -280zM321 -5q-117 1 -185 107t-67 317q0 211 60 323q55 108 154 108t161 -116q51 -91 49 -325h-314q0 -316 171 -316q90 0 125 45v-79q-67 -64 -154 -64z" />
<glyph unicode="f" horiz-adv-x="320" d="M112 20v718h-67v90h67v155q0 296 259 293v-84q-150 0 -150 -218v-146h82v-90h-82v-718h-109z" />
<glyph unicode="g" horiz-adv-x="601" d="M136 -247q0 -67 48 -108t122 -41t124 42t50 107q0 64 -54 110q-56 44 -127 44t-118 -42q-45 -45 -45 -112zM298 262q119 0 119 230t-119 230q-124 0 -124 -230t124 -230zM578 705h-127q62 -105 62 -241t-82 -218q-46 -46 -140 -61t-94 -83t133 -96q134 -28 190 -84 t56 -162t-74 -174q-80 -68 -196 -68t-193 62q-73 63 -73 154q0 135 176 207q-126 59 -126 125q0 76 140 132q-152 107 -152 296q0 134 60 218t171 83h269v-90z" />
<glyph unicode="h" horiz-adv-x="650" d="M104 20v1239h110v-515q98 107 170 107t124 -53t52 -166v-612h-109v594q0 143 -99 143q-78 0 -138 -114v-623h-110z" />
<glyph unicode="i" horiz-adv-x="310" d="M156 1276q28 0 47 -18t19 -48q0 -28 -19 -47t-47 -19t-47 19t-19 47t19 48q19 18 47 18zM101 20v808h110v-808h-110z" />
<glyph unicode="j" horiz-adv-x="285" d="M133 1244q27 0 47 -19t19 -47q1 -28 -19 -46q-20 -20 -48 -20t-46 19q-19 19 -19 47t19 48q20 18 47 18zM84 -156v952h109v-889q0 -166 -19 -222q-50 -137 -184 -152v104q48 9 71 55t23 152z" />
<glyph unicode="k" horiz-adv-x="611" d="M486 20l-220 417l201 391h111l-214 -382l243 -426h-121zM98 20v1239h110v-1239h-110z" />
<glyph unicode="l" horiz-adv-x="292" d="M90 20v1239h110v-1239h-110z" />
<glyph unicode="m" horiz-adv-x="988" d="M904 20h-109v583q0 146 -101 146q-70 0 -139 -113v-616h-108v581q0 148 -103 148q-66 0 -136 -115v-614h-110v808h110v-92q96 106 186 106t166 -145q100 145 174 145t122 -56t48 -174v-592z" />
<glyph unicode="n" horiz-adv-x="650" d="M100 20v808h110v-92q99 106 176 106q78 0 124 -58t46 -173v-591h-109v587q0 142 -101 142q-76 0 -136 -116v-613h-110z" />
<glyph unicode="o" horiz-adv-x="627" d="M447 422q1 326 -133 326t-134 -326t134 -325q134 -1 133 325zM314 850q112 0 178 -113t67 -315q-1 -202 -67 -314q-66 -113 -178 -113t-180 113q-67 112 -67 314t67 315q68 113 180 113z" />
<glyph unicode="p" horiz-adv-x="648" d="M332 67q139 1 139 321t-152 320q-73 0 -109 -91v-459q60 -91 122 -91zM100 -469v1265h110v-61q82 75 151 75q93 0 159 -122t65 -307q0 -185 -64 -301t-160 -115q-63 0 -151 75v-509h-110z" />
<glyph unicode="q" horiz-adv-x="647" d="M321 708q-143 0 -143 -320t152 -321q73 0 115 100v439q-47 102 -124 102zM445 -469v507q-82 -73 -155 -73q-95 1 -160 113t-65 310q-1 198 63 310t160 112q75 0 157 -76v62h108v-1265h-108z" />
<glyph unicode="r" horiz-adv-x="445" d="M104 20v808h110v-229q84 161 111 202t65 41t60 -15l-8 -107q-8 5 -48 5q-90 0 -142 -162q-38 -122 -38 -226v-317h-110z" />
<glyph unicode="s" horiz-adv-x="446" d="M185 97q95 0 95 93q0 60 -107 222t-107 250t48 137q45 51 112 51t126 -44v-90q-46 37 -108 37q-79 0 -79 -82q1 -57 111 -215t110 -254t-52 -152t-128 -55q-75 0 -149 59v103q55 -60 128 -60z" />
<glyph unicode="t" horiz-adv-x="401" d="M266 -5q-137 0 -137 170v571h-79q121 95 145 329h44v-239h140v-90h-140v-504q0 -135 80 -135q31 0 60 12v-88q-64 -26 -113 -26zM32 736h18q-9 -7 -18 -13v13z" />
<glyph unicode="u" horiz-adv-x="650" d="M544 827v-808h-109v92q-97 -105 -173 -105t-124 56q-50 56 -50 167v598h110v-587q0 -140 100 -140q89 0 137 116v611h109z" />
<glyph unicode="v" horiz-adv-x="526" d="M256 0l-242 827h108l124 -485h35l124 485h108l-245 -827h-12z" />
<glyph unicode="w" horiz-adv-x="807" d="M231 0l-219 827h109l107 -456h36l126 456h27l126 -456h35l107 456h110l-219 -827h-12l-143 509h-35l-143 -509h-12z" />
<glyph unicode="x" horiz-adv-x="560" d="M30 20l186 413l-185 395h112l131 -301l123 301h109l-175 -395l195 -413h-112l-142 325l-129 -325h-113z" />
<glyph unicode="y" horiz-adv-x="547" d="M66 -480l167 597l-217 679h113l138 -443h33l124 443h106l-356 -1276h-108z" />
<glyph unicode="z" horiz-adv-x="494" d="M44 738v90h397l-268 -718h283v-90h-428l265 718h-249z" />
<glyph unicode="{" horiz-adv-x="606" d="M253 763v144q0 199 60 275t205 76h43v-102h-9q-110 0 -146 -44t-35 -173v-136q-1 -185 -41 -273t-189 -150q149 -62 189 -150t41 -273v-137q0 -127 36 -172t145 -45h9v-101h-43q-145 0 -205 76t-60 275v144q0 172 -47 247t-147 78v115q100 5 147 79t47 247z" />
<glyph unicode="|" horiz-adv-x="1029" d="M460 -492v1875h110v-1875h-110z" />
<glyph unicode="}" horiz-adv-x="606" d="M356 -3v-144q0 -202 -64 -278q-58 -73 -201 -73h-44v101h7q110 1 146 45t37 172v137q1 185 41 273t189 150q-149 62 -189 150t-41 273v136q1 129 -35 173t-146 44h-9v102h44q143 0 201 -73q64 -76 64 -278v-144q0 -169 46 -245t147 -81v-115q-101 -3 -147 -79t-46 -246z " />
<glyph unicode="~" horiz-adv-x="1233" d="M872 593q-102 -1 -258 75t-229 76q-128 0 -254 -105v81q137 107 241 107q104 1 256 -75t224 -76q127 0 250 108v-83q-128 -108 -230 -108z" />
<glyph unicode="&#xad;" horiz-adv-x="427" d="M59 514h307v-121h-307v121z" />
<glyph unicode="&#x60c;" horiz-adv-x="324" d="M262 114q0 -93 -132 -93q-19 0 -35 16t-16 37q0 165 9 201t41 60q49 41 111 42h22v-19q6 -3 2 -3t-13 1q-59 6 -95 -24t-52 -100q158 0 158 -118z" />
<glyph unicode="&#x61b;" horiz-adv-x="298" d="M248 100q0 -97 -96 -97t-97 97q1 97 97 97t96 -97zM252 383q0 -93 -132 -93q-19 0 -35 16t-16 37q0 165 9 201q10 36 50 68t102 34h22v-19q6 -3 1 -3q-72 6 -108 -24q-35 -30 -51 -99q158 0 158 -118z" />
<glyph unicode="&#x61f;" horiz-adv-x="659" d="M476 -103q-92 -1 -92 95t92 96q97 0 97 -96t-97 -95zM235 578q-181 0 -173 131q25 469 374 469q48 0 71 -4l2 -115q-154 0 -196 -20q-129 -67 -134 -248q-2 -101 94 -101h140q123 0 142 -133q0 -145 -37 -329l-79 5q25 162 -11 345h-193z" />
<glyph unicode="&#x621;" horiz-adv-x="657" d="M529 126h140v-78h-495v77h122q-184 184 -39 328q146 144 369 17v-73q-258 113 -350 -24q-43 -160 158 -229q44 -18 95 -18z" />
<glyph unicode="&#x622;" horiz-adv-x="213" d="M233 1396v-30q-47 -13 -119.5 3.5t-140.5 5.5q-2 23 2 25q53 16 132 -7q92 -14 96 -7q1 1 30 10zM50 20v1236h113l-1 -1236h-112z" />
<glyph unicode="&#x623;" horiz-adv-x="213" d="M170 1380h68v-20h-255v19h76q-109 82 -34 163q77 81 189 8v-25q-125 75 -184 -18q-41 -77 85 -118q25 -9 55 -9zM50 20v1236h113l-1 -1236h-112z" />
<glyph unicode="&#x624;" horiz-adv-x="618" d="M369 808h68v-20h-255v19h76q-109 82 -34 163q77 81 189 8v-25q-126 75 -184 -18q-43 -77 85 -118q26 -9 55 -9zM447 383q0 108 -126 108q-149 0 -149 -168q-15 -183 275 -191v251zM413 611q61 0 109 -48t48 -115q-2 -423 -21 -499q-32 -110 -115 -177 q-136 -107 -297 -110q-53 0 -84 6v114q17 -5 57 -8q133 -9 242 75q56 46 88 174q-387 0 -387 327q-1 261 360 261z" />
<glyph unicode="&#x625;" horiz-adv-x="213" d="M163 -264h68v-20h-255v19h76q-109 82 -34 163q77 81 189 8v-25q-125 75 -184 -18q-41 -77 85 -118q26 -9 55 -9zM50 20v1236h113l-1 -1236h-112z" />
<glyph unicode="&#x626;" horiz-adv-x="1049" d="M303 262h68v-20h-255v19h76q-109 82 -34 163q77 81 189 8v-25q-125 75 -184 -18q-41 -77 85 -118q25 -9 55 -9zM734 20q-166 0 -160 129q25 460 349 460q46 0 66 -4l1 -112q-145 0 -183 -20q-120 -67 -125 -245q-2 -98 88 -96h132q113 -2 130 -133q0 -134 -114 -251.5 t-333 -117.5t-326.5 140t-91.5 360h90q-29 -194 125 -321q82 -69 196 -69q176 0 262.5 73.5t79.5 206.5h-186z" />
<glyph unicode="&#x627;" horiz-adv-x="213" d="M50 20v1236h113l-1 -1236h-112z" />
<glyph unicode="&#x628;" horiz-adv-x="1347" d="M50 300q0 308 370 308v-110q-259 0 -259 -177q0 -191 189 -189h679q156 10 156 186l1 290h110l1 -288q-4 -140 -45 -202q-63 -95 -224 -98h-591q-270 1 -328.5 82t-58.5 198zM812 -241q0 -85 -85 -85t-85 85t85 85t85 -85z" />
<glyph unicode="&#x629;" horiz-adv-x="610" d="M463 911q0 -85 -85 -85t-85 85t85 85t85 -85zM273 911q0 -85 -85 -85t-85 85t85 85t85 -85zM304 538q-59 2 -101.5 -99.5t-49.5 -258.5q67 -55 148 -61.5t161 56.5q-8 155 -52.5 258.5t-105.5 104.5zM558 167q3 -70 -75 -110t-172 -41.5t-176.5 39t-81.5 112.5 q5 107 35 228q58 233 216 251q81 -13 133.5 -72t84 -180.5t36.5 -226.5z" />
<glyph unicode="&#x62a;" horiz-adv-x="1347" d="M50 300q0 308 370 308v-110q-259 0 -259 -177q0 -191 189 -189h679q156 10 156 186l1 290h110l1 -288q-4 -140 -45 -202q-63 -95 -224 -98h-591q-270 1 -328.5 82t-58.5 198zM942 826q0 -85 -85 -85t-85 85t85 85t85 -85zM752 826q0 -85 -85 -85t-85 85t85 85t85 -85z " />
<glyph unicode="&#x62b;" horiz-adv-x="1347" d="M873 1038q0 -85 -85 -85t-85 85t85 85t85 -85zM996 821q0 -85 -85 -85t-85 85t85 85t85 -85zM754 821q0 -85 -85 -85t-85 85t85 85t85 -85zM50 300q0 308 370 308v-110q-259 0 -259 -177q0 -191 189 -189h679q156 10 156 186l1 290h110l1 -288q-4 -140 -45 -202 q-63 -95 -223 -98h-592q-270 1 -328.5 82t-58.5 198z" />
<glyph unicode="&#x62c;" horiz-adv-x="1076" d="M691 -280q0 -85 -85 -85t-85 85t85 85t85 -85zM1048 20h-461q-377 0 -377 -244t349 -479v-112q-179 58 -333 233.5t-128 454.5q27 276 812 259l-292 296q-82 68 -168.5 73.5t-216.5 -80.5l-65 79q326 225 572 -35q227 -233 308 -301v-144z" />
<glyph unicode="&#x62d;" horiz-adv-x="1076" d="M1048 20h-461q-377 0 -377 -244t349 -479v-112q-179 58 -333 233.5t-128 454.5q27 276 812 259l-292 296q-82 68 -168.5 73.5t-216.5 -80.5l-65 79q326 225 572 -35q227 -233 308 -301v-144z" />
<glyph unicode="&#x62e;" horiz-adv-x="1076" d="M559 908q0 -85 -85 -85t-85 85t85 85t85 -85zM1048 20h-461q-377 0 -377 -244t349 -479v-112q-179 58 -333 233.5t-128 454.5q27 276 812 259l-292 296q-82 68 -168.5 73.5t-216.5 -80.5l-65 79q326 225 572 -35q227 -233 308 -301v-144z" />
<glyph unicode="&#x62f;" horiz-adv-x="828" d="M334 498h-249v110h253q254 0 357 -141q83 -116 83 -447h-728v112h607q-27 254 -103 310t-220 56z" />
<glyph unicode="&#x630;" horiz-adv-x="828" d="M394 904q0 -85 -85 -85t-85 85t85 85t85 -85zM334 498h-249v110h253q254 0 357 -141q83 -116 83 -447h-728v112h607q-27 254 -103 310t-220 56z" />
<glyph unicode="&#x631;" horiz-adv-x="387" d="M215 607h120l2 -431q0 -519 -388 -517v112q231 18 259 252q9 79 9 159z" />
<glyph unicode="&#x632;" horiz-adv-x="411" d="M343 908q0 -85 -85 -85t-85 85t85 85t85 -85zM215 607h120l2 -431q0 -519 -388 -517v112q231 18 259 252q9 79 9 159z" />
<glyph unicode="&#x633;" horiz-adv-x="1615" d="M1246 319q0 -185 106 -183q101 2 101 181v289h112v-286q-1 -134 -46 -203q-66 -99 -171 -99q-70 0 -159 86q-89 -86 -164 -86q-35 0 -103 39q-4 -14 -14 -55q-32 -111 -114 -177q-134 -107 -300.5 -108.5t-306.5 108.5q-137 110 -137 355h103q-12 -166 108 -267 q95 -77 218.5 -86t231.5 75q106 84 106 246v458h110v-287q0 -185 105 -183q102 2 102 183v287h112v-287z" />
<glyph unicode="&#x634;" horiz-adv-x="1615" d="M1389 907q0 -85 -85 -85t-85 85t85 85t85 -85zM1199 907q0 -85 -85 -85t-85 85t85 85t85 -85zM1289 1153q0 -85 -85 -85t-85 85t85 85t85 -85zM1246 319q0 -185 106 -183q101 2 101 181v289h112v-286q-1 -134 -46 -203q-66 -99 -171 -99q-70 0 -159 86q-89 -86 -164 -86 q-35 0 -103 39q-4 -14 -14 -55q-32 -111 -114 -177q-134 -107 -300.5 -108.5t-306.5 108.5q-137 110 -137 355h103q-12 -166 108 -267q95 -77 218.5 -86t231.5 75q106 84 106 246v458h110v-287q0 -185 105 -183q102 2 102 183v287h112v-287z" />
<glyph unicode="&#x635;" horiz-adv-x="1892" d="M1447 489q-376 0 -511 -357h803q-19 357 -292 357zM50 181h103q-12 -167 108 -267q95 -77 218.5 -86t229 74t105.5 235v299l113 -1v-140q257 315 561 315q155 0 254.5 -137.5t96.5 -321.5v-131h-927q-34 -127 -118 -194q-134 -107 -300.5 -108.5t-306.5 108.5 q-137 110 -137 355z" />
<glyph unicode="&#x636;" horiz-adv-x="1892" d="M1390 908q0 -85 -85 -85t-85 85t85 85t85 -85zM1447 489q-376 0 -511 -357h803q-19 357 -292 357zM50 181h103q-12 -167 108 -267q95 -77 218.5 -86t229 74t105.5 235v299l113 -1v-140q257 315 561 315q155 0 254.5 -137.5t96.5 -321.5v-131h-927q-34 -127 -118 -194 q-134 -107 -300.5 -108.5t-306.5 108.5q-137 110 -137 355z" />
<glyph unicode="&#x637;" horiz-adv-x="1397" d="M954 488q-374 0 -511 -356h803q-21 356 -292 356zM994 609q157 0 256 -138.5t95 -320.5v-130h-1173q-121 0 -120 136q30 -25 124 -24h145l1 1124l112 -2v-960q256 315 560 315z" />
<glyph unicode="&#x638;" horiz-adv-x="1397" d="M909 909q0 -85 -85 -85t-85 85t85 85t85 -85zM954 488q-374 0 -511 -356h803q-21 356 -292 356zM994 609q157 0 256 -138.5t95 -320.5v-130h-1173q-121 0 -120 136q30 -25 124 -24h145l1 1124l112 -2v-960q256 315 560 315z" />
<glyph unicode="&#x639;" horiz-adv-x="765" d="M792 132v-113h-207q-348 0 -348 -254q0 -244 349 -479v-112q-459 150 -459 634q0 121 92 199q35 29 99 59q-74 63 -140 149q-140 182 33 329q191 161 521 23v-107q-364 145 -469 -53q-85 -160 196 -256q66 -20 130 -19h203z" />
<glyph unicode="&#x63a;" horiz-adv-x="770" d="M536 908q0 -85 -85 -85t-85 85t85 85t85 -85zM797 132v-113h-207q-348 0 -348 -254q0 -244 349 -479v-112q-459 150 -459 634q0 121 92 199q35 29 99 59q-74 63 -140 149q-140 182 33 329q191 161 521 23v-107q-364 145 -469 -53q-85 -160 196 -256q66 -20 130 -19h203z " />
<glyph unicode="&#x640;" horiz-adv-x="244" d="M-10 20v112h264v-112h-264z" />
<glyph unicode="&#x641;" horiz-adv-x="1517" d="M1251 860q0 -97 -96.5 -97t-96.5 97t96.5 97t96.5 -97zM1312 245q50 263 -170 247q-184 0 -184 -187q6 -157 176 -171q157 0 178 111zM50 302q0 308 370 308v-110q-259 0 -259 -177q0 -189 188 -191h560q-67 112 -56 217q27 243 264 262q203 16 286 -151q64 -130 3 -299 q-67 -139 -185 -141h-784q-269 2 -328 83.5t-59 198.5z" />
<glyph unicode="&#x642;" horiz-adv-x="981" d="M839 860q0 -85 -85 -85t-85 85t85 85t85 -85zM649 860q0 -85 -85 -85t-85 85t85 85t85 -85zM774 608q61 0 109 -49t48 -114q-2 -423 -21 -499q-31 -111 -115 -178q-133 -106 -299 -108t-307 108q-139 111 -139 363h103q-14 -174 110 -275q92 -77 217 -86t233 75 q58 46 88 175q-386 0 -388 326q0 262 361 262zM807 131v249q0 108 -125 108q-149 0 -149 -169q-16 -188 274 -188z" />
<glyph unicode="&#x643;" horiz-adv-x="1348" d="M50 303q0 308 370 308v-110q-259 0 -259 -177q0 -190 188 -192h679q157 12 157 189v936l113 -1l-2 -933q0 -135 -38 -193q-67 -101 -231 -110h-590q-270 4 -328.5 85t-58.5 198zM821 537h92v-36h-335v35h94q-138 101 -34 211q92 77 245 13v-32q-176 71 -235 -37 q-37 -88 105 -143q35 -11 68 -11z" />
<glyph unicode="&#x644;" horiz-adv-x="978" d="M50 179h103q-12 -167 108 -267q95 -77 218.5 -86t231.5 75q106 85 106 247l-1 1107h112l-1 -985q0 -205 -19 -269q-32 -111 -114 -177q-133 -106 -300 -108t-307 108q-137 110 -137 355z" />
<glyph unicode="&#x645;" horiz-adv-x="898" d="M452 132h159q61 -1 106.5 46.5t38.5 120.5q-18 198 -174 200q-164 2 -130 -367zM184 -427h-110q-14 214 -5 214q1 0 3 -5q5 189 46 251q63 95 247 99q-27 294 31.5 387t172 91.5t189 -89.5t87 -223.5t-53 -208.5t-166.5 -69h-284q-156 -10 -157 -187v-260z" />
<glyph unicode="&#x646;" horiz-adv-x="977" d="M524 583q0 -85 -85 -85t-85 85t85 85t85 -85zM817 149v458h110v-335q0 -205 -19 -269q-32 -110 -115 -177q-134 -107 -300 -108.5t-306 108.5q-137 110 -137 355h103q-12 -167 108 -267q92 -77 217 -86t233 75q106 84 106 246z" />
<glyph unicode="&#x647;" horiz-adv-x="610" d="M304 538q-59 2 -101.5 -99.5t-49.5 -258.5q67 -55 148 -61.5t161 56.5q-8 155 -52.5 258.5t-105.5 104.5zM558 167q3 -70 -75 -110t-172 -41.5t-176.5 39t-81.5 112.5q5 107 35 228q58 233 216 251q81 -13 133.5 -72t84 -180.5t36.5 -226.5z" />
<glyph unicode="&#x648;" horiz-adv-x="618" d="M447 383q0 108 -126 108q-149 0 -149 -168q-15 -183 275 -191v251zM413 611q61 0 109 -48t48 -115q-2 -423 -21 -499q-32 -110 -115 -177q-136 -107 -297 -110q-53 0 -84 6v114q17 -5 57 -8q133 -9 242 75q56 46 88 174q-387 0 -387 327q-1 261 360 261z" />
<glyph unicode="&#x649;" horiz-adv-x="982" d="M647 20q-166 0 -160 129q25 460 349 460q46 0 66 -4l1 -112q-143 0 -183 -20q-120 -68 -125 -245q-2 -98 88 -96h132q113 -1 130 -133q0 -134 -113.5 -251.5t-333 -117.5t-333.5 147q-101 135 -85 353h90q-28 -193 125 -321q83 -69 196 -69q176 0 262.5 73.5t79.5 206.5 h-186z" />
<glyph unicode="&#x64a;" horiz-adv-x="982" d="M662 -619q0 -85 -85 -85t-85 85t85 85t85 -85zM472 -619q0 -85 -85 -85t-85 85t85 85t85 -85zM647 20q-166 0 -160 129q25 460 349 460q46 0 66 -4l1 -112q-143 0 -183 -20q-120 -68 -125 -245q-2 -98 88 -96h132q113 -1 130 -133q0 -134 -113.5 -251.5t-333 -117.5 t-333.5 147q-101 135 -85 353h90q-28 -193 125 -321q83 -69 196 -69q176 0 262.5 73.5t79.5 206.5h-186z" />
<glyph unicode="&#x64b;" d="M-24 1746l241 31l3 -22l-241 -30zM-8 1646l241 31l3 -22l-241 -30z" />
<glyph unicode="&#x64c;" d="M153 1721l14 77q9 46 -45 47t-64 -60q-9 -61 95 -64zM20 1619l1 14q88 -15 128 78q-112 -2 -102 73q12 76 65 72q53 -3 61.5 -14.5t5.5 -24.5q-10 -114 -34 -147q-42 -56 -125 -51zM-31 1767q0 21 4 34q12 59 60 85q-5 -3 -23 -29.5t-23 -66.5q-10 -81 71 -113l-10 -18 q-79 33 -79 108z" />
<glyph unicode="&#x64d;" d="M-23 -719l241 31l3 -22l-241 -30zM-8 -820l241 31l3 -22l-241 -30z" />
<glyph unicode="&#x64e;" d="M-8 1646l241 31l3 -22l-241 -30z" />
<glyph unicode="&#x64f;" d="M116 1721l14 77q9 46 -45 47t-64 -60q-9 -61 95 -64zM-17 1619l1 14q88 -15 128 78q-112 -2 -102 73q12 76 65 72q53 -3 61.5 -14.5t5.5 -24.5q-10 -114 -34 -147q-42 -56 -125 -51z" />
<glyph unicode="&#x650;" d="M-23 -719l241 31l3 -22l-241 -30z" />
<glyph unicode="&#x651;" d="M0 1707v89h15v-90q0 -78 49 -78q52 3 52 79v63h14v-63q0 -81 52 -79q48 2 48 78v91h15v-89q4 -98 -64 -102q-34 0 -58 41q-31 -43 -60 -38q-63 5 -63 98z" />
<glyph unicode="&#x652;" d="M158 1725q0 29 -21.5 52t-49.5 23q-46 6 -67 -48q-6 -57 15.5 -82.5t60 -23t50.5 26t12 52.5zM93 1830q71 0 78 -135q-1 -42 -27 -63.5t-59.5 -19.5t-58.5 25.5t-26 60.5q3 86 36 114q33 18 57 18z" />
<glyph unicode="&#x660;" horiz-adv-x="290" d="M145 602q95 0 95 -94t-95 -95q-95 1 -95 95t95 94z" />
<glyph unicode="&#x661;" horiz-adv-x="210" d="M50 32v1212h110l-1 -1212h-109z" />
<glyph unicode="&#x662;" horiz-adv-x="609" d="M50 32v1212h110v-315q9 -149 149 -146t141 178v283h109l-1 -280q0 -132 -44 -200q-64 -96 -176 -96t-178 32l-1 -668h-109z" />
<glyph unicode="&#x663;" horiz-adv-x="836" d="M473 963q0 -182 104 -180q98 3 99 178v283h110l-1 -280q0 -132 -44 -200q-65 -96 -168 -96q-69 0 -156 84q-89 -84 -161 -84q-32 0 -96 33l-1 -669h-109v1212h110v-305q7 -159 104 -156q99 1 99 180v281h110v-281z" />
<glyph unicode="&#x664;" horiz-adv-x="770" d="M258 682q-258 202 8 413q165 129 328 152l29 -76q-186 -43 -327 -181q-73 -71 -38 -149q26 -59 116 -111q98 -48 306 -35l9 -101q-203 -45 -301 -129t-140 -165q-67 -136 78 -161q68 -9 196 5t199 49l28 -113q-165 -55 -360 -58q-262 -4 -280 138q-8 121 83 243t256 207 q-113 10 -190 72z" />
<glyph unicode="&#x665;" horiz-adv-x="702" d="M361 159q-141 -1 -213 111t-82 280q-9 168 32 335q42 165 102 235t157 68t156 -68t103 -230t36 -336q-6 -172 -78 -284t-213 -111zM360 294q116 0 165 131q37 103 25 261t-64 271q-56 130 -130 131q-71 2 -124 -121q-52 -123 -64 -279t27 -262q49 -132 165 -132z" />
<glyph unicode="&#x666;" horiz-adv-x="660" d="M50 1134v110l294 -1q161 -5 227 -107q36 -56 36 -188l3 -918h-111v919q0 175 -154 185h-295z" />
<glyph unicode="&#x667;" horiz-adv-x="752" d="M160 1242l120 -945q13 -109 85 -152q74 41 90 152l137 948l110 -15l-137 -946q-27 -194 -137 -242q-36 -16 -64 -20q-160 21 -195 265l-119 941z" />
<glyph unicode="&#x668;" horiz-adv-x="752" d="M280 973l-120 -945l-110 14l119 941q19 133 62 183t90 69q20 10 43 13q76 -12 140 -84q42 -48 61 -178l137 -946l-110 -15l-137 948q-16 111 -90 152q-72 -43 -85 -152z" />
<glyph unicode="&#x669;" horiz-adv-x="608" d="M437 701v315q0 107 -123 107q-140 0 -146 -167q-5 -96 61 -176t208 -79zM558 1080v-1048h-110v561h-42q-171 0 -263 109t-93 281q0 257 354 257q60 0 107 -48t47 -112z" />
<glyph unicode="&#x66a;" horiz-adv-x="691" d="M61 -19l426 1192l111 -39l-427 -1192zM546 307q95 -1 95 -95t-95 -94t-95 94t95 95zM145 1049q95 -1 95 -95t-95 -94t-95 94t95 95z" />
<glyph unicode="&#x2000;" horiz-adv-x="1068" />
<glyph unicode="&#x2001;" horiz-adv-x="2136" />
<glyph unicode="&#x2002;" horiz-adv-x="1068" />
<glyph unicode="&#x2003;" horiz-adv-x="2136" />
<glyph unicode="&#x2004;" horiz-adv-x="712" />
<glyph unicode="&#x2005;" horiz-adv-x="534" />
<glyph unicode="&#x2006;" horiz-adv-x="356" />
<glyph unicode="&#x2007;" horiz-adv-x="356" />
<glyph unicode="&#x2008;" horiz-adv-x="267" />
<glyph unicode="&#x2009;" horiz-adv-x="427" />
<glyph unicode="&#x200a;" horiz-adv-x="118" />
<glyph unicode="&#x2010;" horiz-adv-x="427" d="M59 514h307v-121h-307v121z" />
<glyph unicode="&#x2011;" horiz-adv-x="427" d="M59 514h307v-121h-307v121z" />
<glyph unicode="&#x2012;" horiz-adv-x="427" d="M59 514h307v-121h-307v121z" />
<glyph unicode="&#x2013;" horiz-adv-x="1144" d="M59 514h1024v-121h-1024v121z" />
<glyph unicode="&#x2014;" horiz-adv-x="2168" d="M59 514h2048v-121h-2048v121z" />
<glyph unicode="&#x2018;" horiz-adv-x="306" d="M225 1326q-9 -4 -17 -7q7 13 15 24zM251 1020q-1 -38 -25 -64t-64 -25t-68 41q-29 40 -29 110q0 168 143 237q-47 -88 -36 -213q79 -18 79 -86z" />
<glyph unicode="&#x2019;" horiz-adv-x="306" d="M81 940q9 4 17 8q-7 -12 -15 -24zM55 1247q0 37 23 63q24 26 64 25q40 1 70 -39t29 -111q0 -168 -143 -237q49 87 36 213q-79 18 -79 86z" />
<glyph unicode="&#x202f;" horiz-adv-x="427" />
<glyph unicode="&#x205f;" horiz-adv-x="534" />
<glyph unicode="&#x25fc;" horiz-adv-x="830" d="M0 830h830v-830h-830v830z" />
<glyph />
<glyph horiz-adv-x="508" />
<glyph d="M0 1717v89h15v-90q0 -78 49 -78q52 3 52 79v63h14v-63q0 -81 52 -79q48 2 48 78v91h15v-89q4 -98 -64 -102q-34 0 -58 41q-31 -43 -60 -38q-63 5 -63 98zM188 1963l14 77q9 46 -45 47t-64 -60q-9 -61 95 -64zM55 1861l1 14q88 -15 128 78q-112 -2 -102 73q12 76 65 72 q53 -3 61.5 -14.5t5.5 -24.5q-10 -114 -34 -147q-42 -56 -125 -51z" />
<glyph d="M1 1718v89h15v-90q0 -78 49 -78q52 3 52 79v63h14v-63q0 -81 52 -79q48 1 48 78v91h15v-89q4 -98 -64 -102q-34 0 -58 41q-31 -43 -60 -38q-63 4 -63 98zM210 1971l14 77q9 46 -45 47t-64 -60q-9 -61 95 -64zM77 1869l1 14q88 -15 128 78q-112 -2 -102 73q12 76 65 72 q53 -3 61.5 -14.5t5.5 -24.5q-10 -114 -34 -147q-42 -56 -125 -51zM26 2017q0 21 4 34q12 59 60 85q-5 -3 -23 -29.5t-23 -66.5q-10 -81 71 -113l-10 -18q-79 33 -79 108z" />
<glyph d="M0 1717v89h15v-90q0 -78 49 -78q52 3 52 79v63h14v-63q0 -81 52 -79q48 2 48 78v91h15v-89q4 -98 -64 -102q-34 0 -58 41q-31 -43 -60 -38q-63 5 -63 98zM2 1905l241 31l3 -22l-241 -30z" />
<glyph d="M0 1717v89h15v-90q0 -78 49 -78q52 3 52 79v63h14v-63q0 -81 52 -79q48 2 48 78v91h15v-89q4 -98 -64 -102q-34 0 -58 41q-31 -43 -60 -38q-63 5 -63 98zM-17 1988l241 31l3 -22l-241 -30zM-1 1888l241 31l3 -22l-241 -30z" />
<glyph d="M-19 1956v89h15v-90q0 -78 49 -78q52 3 52 79v63h14v-63q0 -81 52 -79q48 1 48 78v91h15v-89q4 -98 -64 -102q-34 0 -58 41q-31 -43 -60 -38q-63 4 -63 98zM-20 1743l241 31l3 -22l-241 -30z" />
<glyph d="M-20 1945v89h15v-90q0 -78 49 -78q52 3 52 79v63h14v-63q0 -81 52 -79q48 2 48 78v91h15v-89q4 -98 -64 -102q-34 0 -58 41q-31 -43 -60 -38q-63 5 -63 98zM-21 1747l241 31l3 -22l-241 -30zM-6 1646l241 31l3 -22l-241 -30z" />
<glyph horiz-adv-x="392" d="M281 39h68v-20h-255v19h76q-109 82 -34 163q77 81 189 8v-25q-125 75 -184 -18q-41 -77 85 -118q26 -9 55 -9z" />
<glyph horiz-adv-x="351" d="M319 56v-30q-47 -13 -119 4t-141 5q-2 23 2 25q53 16 132 -7q92 -14 96 -7q1 1 30 10z" />
<glyph horiz-adv-x="477" d="M321 861q0 -85 -85 -85t-85 85t85 85t85 -85z" />
<glyph horiz-adv-x="682" d="M524 860q0 -85 -85 -85t-85 85t85 85t85 -85zM334 860q0 -85 -85 -85t-85 85t85 85t85 -85z" />
<glyph horiz-adv-x="1347" d="M50 300q0 308 370 308v-110q-259 0 -259 -177q0 -191 189 -189h679q156 10 156 186l1 290h110l1 -288q-4 -140 -45 -202q-63 -95 -224 -98h-591q-271 1 -329 82t-58 198z" />
<glyph horiz-adv-x="1466" d="M50 299q0 308 369 308v-110q-259 0 -259 -177q0 -190 189 -188h678q158 11 158 187v287h112v-287q0 -177 157 -187h22v-112h-25q-123 0 -211 84q-92 -88 -211 -84h-593q-270 2 -328 83t-58 196z" />
<glyph horiz-adv-x="425" d="M265 319v289h112v-287q0 -135 -46 -202q-61 -94 -223 -99h-126v112h126q157 -2 157 187z" />
<glyph horiz-adv-x="524" d="M-10 20v112h94q159 -4 159 186v287h113v-287q0 -188 153 -186h25v-112h-25q-122 0 -210 84q-88 -84 -211 -84h-98z" />
<glyph horiz-adv-x="794" d="M362 131q156 0 178 111q50 262 -170 246q-186 0 -184 -186q6 -159 176 -171zM-10 132h147q-67 110 -56 213q27 244 264 263q203 17 286 -151q62 -128 -6 -325h179v-112h-814v112z" />
<glyph horiz-adv-x="721" d="M358 131q157 1 178 112q50 262 -170 246q-184 0 -184 -186q6 -158 176 -172zM-14 132h147q-67 110 -56 214q27 244 264 263q205 16 286 -151q65 -130 3 -300q-68 -140 -183 -138h-461v112z" />
</font>
</defs>
</svg>
