<?xml version="1.0" standalone="no"?>
<!DOCTYPE svg PUBLIC "-//W3C//DTD SVG 1.1//EN" "http://www.w3.org/Graphics/SVG/1.1/DTD/svg11.dtd" >
<svg xmlns="http://www.w3.org/2000/svg" xmlns:xlink="http://www.w3.org/1999/xlink" version="1.1">
<metadata></metadata>
<defs>
<font id="zahraarabic-regularregular" horiz-adv-x="708" >
<font-face units-per-em="2048" ascent="1536" descent="-512" />
<missing-glyph horiz-adv-x="294" />
<glyph horiz-adv-x="0" />
<glyph unicode="&#xd;" horiz-adv-x="681" />
<glyph unicode=" "  horiz-adv-x="294" />
<glyph unicode="&#x09;" horiz-adv-x="294" />
<glyph unicode="&#xa0;" horiz-adv-x="294" />
<glyph unicode="!" horiz-adv-x="282" d="M59 64q1 30 23 54t56 25t57 -23t23 -56t-24 -56q-22 -24 -56 -22q-34 0 -56 24t-23 54zM84 205v686h106v-686h-106z" />
<glyph unicode="&#x22;" horiz-adv-x="423" d="M70 547v344h104v-344h-104zM252 547v344h104v-344h-104z" />
<glyph unicode="#" d="M41 272l4 82h135l25 183h-127l4 81h135l37 273h92l-37 -273h152l37 273h92l-39 -273h117l-4 -81h-123l-27 -183h117l-4 -82h-123l-39 -272h-92l39 272h-152l-39 -272h-92l39 272h-127zM270 354h154l25 183h-152z" />
<glyph unicode="$" d="M109 711q0 86 60 133t150 47v104h97v-104h172v-107h-172v-225q37 -27 73 -49q82 -51 115 -113q18 -45 19 -92q0 -92 -62 -139q-51 -43 -145 -43v-137h-97v137h-204v106h204v244q-25 16 -91 55q-119 70 -119 183zM221 705q0 -58 98 -107v186q-98 0 -98 -79zM416 229 q94 0 94 82q0 61 -61 95q-12 8 -33 24v-201z" />
<glyph unicode="%" horiz-adv-x="1132" d="M59 698q0 88 64 152q63 57 145 57t146 -57q63 -64 63 -152t-62 -148q-63 -60 -147 -60t-146 60t-63 148zM158 698q0 -49 32 -80q32 -30 77 -30q46 0 78 30t32 79q0 48 -32 79t-78 31t-78 -30q-31 -30 -31 -79zM213 -14l594 921h78l-592 -921h-80zM624 194q0 90 64 150 q64 59 146 59t145 -57q63 -63 63 -151t-63 -152q-61 -57 -146 -57t-147 59t-62 149zM723 194q0 -46 33 -78t78 -32q44 0 76 31t32 79t-32 78t-76 31q-45 0 -78 -31q-33 -32 -33 -78z" />
<glyph unicode="&#x26;" horiz-adv-x="849" d="M43 348q0 197 152 297q-61 70 -61 126t36 88q37 32 92 32h369v-111h-352q-27 0 -27 -15t29 -54l370 -473q29 40 29 118t-86 185l82 84q123 -129 123 -261t-70 -229l109 -135h-146l-47 49q-87 -63 -237 -63t-258 102t-107 260zM166 362q0 -114 72 -192q74 -74 175 -74 t167 51l-314 408q-100 -79 -100 -193z" />
<glyph unicode="'" horiz-adv-x="282" d="M90 547v344h105v-344h-105z" />
<glyph unicode="(" horiz-adv-x="495" d="M92 337q0 167 71 321t204 249l51 -69q-228 -180 -228 -504t228 -498l-45 -76q-135 96 -208 253t-73 324z" />
<glyph unicode=")" horiz-adv-x="495" d="M78 -170q227 180 227 502t-227 499l45 76q135 -96 208 -253q147 -316 3 -642q-74 -160 -205 -252z" />
<glyph unicode="*" horiz-adv-x="636" d="M80 555l168 90l-168 88l47 80l158 -106l-15 184h97l-15 -184l158 106l47 -80l-168 -88l168 -90l-47 -78l-158 101l15 -179h-97l15 179l-158 -101z" />
<glyph unicode="+" horiz-adv-x="763" d="M76 256v100h256v256h100v-256h256v-100h-256v-256h-100v256h-256z" />
<glyph unicode="," horiz-adv-x="354" d="M80 -127l53 250h119l-74 -250h-98z" />
<glyph unicode="-" horiz-adv-x="354" d="M35 254v102h284v-102h-284z" />
<glyph unicode="." horiz-adv-x="354" d="M102 68q0 31 22 53t53 22q31 -1 53 -23t22 -54t-23 -53t-53 -21t-52 22t-22 54z" />
<glyph unicode="/" horiz-adv-x="354" d="M-8 -14l270 921h100l-270 -921h-100z" />
<glyph unicode="0" d="M43 313v265q0 152 94 241q88 88 216 88t220 -90t93 -239v-265q0 -145 -93 -241q-90 -86 -220 -86t-220 90t-90 237zM172 313q0 -100 47 -154q47 -55 135 -55t135 54t48 155v265q1 100 -47 154t-136 54t-135 -54t-47 -154v-265z" />
<glyph unicode="1" d="M141 780l33 111h250v-891h-123v780h-160z" />
<glyph unicode="2" d="M41 94q1 35 21 57t59 52l313 246q96 76 96 176q0 74 -49 123q-51 47 -131 47q-80 1 -128 -51t-48 -129t53 -123q47 -47 115 -54l-104 -82q-184 66 -185 267q1 125 93 205t216 79q124 0 208 -82t83 -190q0 -108 -49 -177t-153 -149l-250 -194v-2h448v-113h-489 q-119 0 -119 94z" />
<glyph unicode="3" d="M57 0v113h295q86 0 131 47t45 118q0 70 -55 112t-154 42h-139v90l281 258h-383v111h385q127 0 127 -96q0 -41 -25 -71t-82 -77l-121 -102q125 0 207 -71q82 -72 82 -194t-75 -201t-191 -79h-328z" />
<glyph unicode="4" d="M12 281q0 25 39 92l287 518h133l-321 -572h266v383l112 193l9 12q2 0 2 -18v-570h133v-112h-133v-207h-123v207h-318q-86 0 -86 74z" />
<glyph unicode="5" d="M72 0v113h290q82 0 125 43t43 114q0 166 -198 166h-223v455h466v-111h-344v-233h109q150 0 234 -71t85 -194q0 -123 -71 -198q-74 -84 -193 -84h-323z" />
<glyph unicode="6" d="M31 301q0 86 35 152q18 39 81 131l218 307h147l-279 -389q-43 -60 -61 -104t-18 -114t58 -129t141 -59t143 62t59 156q0 96 -69 154t-181 54l70 103q145 -6 227 -95q76 -88 76 -221t-95 -228t-233 -95t-228 91q-91 91 -91 224z" />
<glyph unicode="7" d="M55 780v111h449q137 0 137 -90q0 -37 -23 -88q-25 -45 -53 -117l-264 -596h-141l350 780h-455z" />
<glyph unicode="8" d="M37 268q0 147 143 236q-44 45 -64 83q-20 37 -20 113t72 142t185 65q112 0 182 -59q73 -56 73 -160t-80 -184q143 -76 144 -236q0 -119 -82 -196q-86 -86 -234 -86t-233 82q-86 82 -86 200zM166 268q0 -78 52 -125t136 -47t135 47t52 125t-51 125t-136 47t-136 -47 t-52 -125zM225 674q0 -51 35 -86t91 -35t91 35t35 86t-35 86t-91 35t-91 -35t-35 -86z" />
<glyph unicode="9" d="M30 582q0 136 98 230q97 95 231 95q135 0 227 -92t92 -225q0 -80 -33 -152q-23 -43 -84 -129l-217 -309h-147l276 389q45 61 62 100q20 57 20 124t-57 124q-58 57 -140 57t-143 -58q-61 -60 -61 -156t66 -154q66 -57 183 -57l-71 -101q-142 0 -222 89t-80 225z" />
<glyph unicode=":" horiz-adv-x="354" d="M102 68q0 31 22 53t53 22q31 -1 53 -23t22 -54t-23 -53t-53 -21t-52 22t-22 54zM102 436q0 32 22 52q22 22 53 22t53 -22t22 -54t-23 -54t-53 -22t-52 23t-22 55z" />
<glyph unicode=";" horiz-adv-x="354" d="M80 -127l53 250h119l-74 -250h-98zM102 436q0 32 22 52q22 22 53 22t53 -22t22 -54t-23 -54t-53 -22t-52 23t-22 55z" />
<glyph unicode="&#x3c;" horiz-adv-x="763" d="M76 262v86l612 275v-101l-487 -217l487 -215v-100z" />
<glyph unicode="=" horiz-adv-x="763" d="M76 129v100h612v-100h-612zM76 383v98h612v-98h-612z" />
<glyph unicode="&#x3e;" horiz-adv-x="763" d="M76 -10v100l487 215l-487 217v101l612 -275v-86z" />
<glyph unicode="?" horiz-adv-x="565" d="M33 625q0 119 76 200q72 82 185 82t189 -76q74 -79 74 -187t-61 -180t-162 -89v-170h-113v278h33q184 0 184 156q0 68 -39 112t-105 44q-66 -1 -104 -49q-37 -48 -36 -121h-121zM198 64q0 32 23 56q23 23 58 23q35 1 57 -23t20 -57q0 -33 -22 -55t-56 -22t-57 24t-23 54z " />
<glyph unicode="@" horiz-adv-x="1019" d="M66 443q0 193 137 331q137 133 318 133t306 -104q127 -111 127 -272t-103 -259t-196 -98q-70 0 -75 72h-2q-62 -72 -142 -72t-133 58t-53 141q0 127 78 228t188 101t154 -90l22 70h90l-92 -334q-10 -47 -10 -57q0 -31 22 -31q62 0 114 78t52 174q0 145 -97 229t-252 84 q-155 1 -256 -109t-101 -274t108 -270t277 -106q168 0 280 129h88q-61 -101 -161 -155t-219 -54q-197 0 -333 132t-136 325zM356 398q0 -64 29 -96t74 -32q72 0 123 75t51 135t-29 94q-29 32 -72 32q-74 0 -124 -72t-52 -136z" />
<glyph unicode="A" d="M49 0v565q0 158 87 250t218 92t218 -92t87 -250v-565h-120v406h-322v112h322v55q-1 105 -51 163t-134 58t-134 -58t-50 -163v-573h-121z" />
<glyph unicode="B" d="M76 0v633q0 111 80 190q80 84 204 84t207 -65q80 -68 80 -187t-90 -178q131 -74 131 -225q0 -112 -75 -182t-193 -70h-178v113h147q178 0 178 146t-178 147h-147v112h125q77 0 119 38t42 102t-45 100q-45 37 -121 37t-122 -46q-45 -46 -45 -126v-623h-119z" />
<glyph unicode="C" horiz-adv-x="636" d="M45 436q0 182 130 318t335 137h94v-111h-80q-154 0 -254 -95t-100 -247t96 -238t211 -87h127v-113h-127q-188 0 -310 127t-122 309z" />
<glyph unicode="D" horiz-adv-x="778" d="M76 0v891h225q186 0 311 -133q125 -132 125 -314t-125 -313t-311 -131h-55v113h65q127 0 214 95q87 96 87 242t-97 238t-247 92h-73v-780h-119z" />
<glyph unicode="E" horiz-adv-x="636" d="M160 764q131 127 329 127h95v-111h-80q-158 0 -252 -91t-98 -171h430v-112h-430q8 -123 101 -208t214 -85h115v-113h-95q-197 0 -329 128q-131 127 -131 313q0 191 131 323z" />
<glyph unicode="F" horiz-adv-x="495" d="M35 0v592q0 143 73 221t203 78h150v-111h-131q-174 0 -174 -176v-104h305v-113h-305v-387h-121z" />
<glyph unicode="G" horiz-adv-x="991" d="M29 446q0 194 139 327q139 134 328 134q114 0 196 -36t172 -126l-80 -86q-96 78 -150 107t-138 29q-146 -1 -244 -103t-98 -246t98 -246q98 -104 236 -104t231 80q94 76 104 213h-311v113h436v-76q0 -207 -147 -330q-129 -110 -312 -110t-321 133t-139 327z" />
<glyph unicode="H" horiz-adv-x="778" d="M76 0v891h119v-373h387v373h120v-891h-120v406h-387v-406h-119z" />
<glyph unicode="I" horiz-adv-x="282" d="M82 0v891h119v-891h-119z" />
<glyph unicode="J" horiz-adv-x="423" d="M-2 0v113h59q190 0 191 168v610h121v-602q0 -139 -78 -214t-232 -75h-61z" />
<glyph unicode="K" d="M82 0v891h119v-373h92q104 0 156 121l112 252h135l-88 -189q-4 -8 -17 -38t-19 -42q-6 -11 -20 -36q-34 -66 -79 -92q178 -47 178 -246v-248h-119v248q0 156 -163 158h-168v-406h-119z" />
<glyph unicode="L" horiz-adv-x="495" d="M82 289v602h119v-574q0 -204 180 -204h2h115v-113h-133q-131 0 -207 80t-76 209z" />
<glyph unicode="M" horiz-adv-x="991" d="M0 0l102 813q8 45 36 70t67 25t65 -22t43 -83l181 -600h4l180 600q16 61 43 83t65 22t67 -26q28 -24 36 -69l102 -813h-125l-86 723h-2l-190 -621q-20 -66 -38 -84t-52 -18h-4q-33 0 -52 18q-18 18 -39 84l-190 621h-2l-86 -723h-125z" />
<glyph unicode="N" horiz-adv-x="778" d="M63 0v791q0 108 103 108h2q46 0 72 -27t65 -104l287 -592h2v715h119v-813q0 -86 -90 -86q-45 0 -71 18t-48 70l-318 651h-2v-731h-121z" />
<glyph unicode="O" horiz-adv-x="991" d="M29 446q0 194 139 328q140 133 328 133t327 -133q139 -139 139 -330q0 -190 -138 -324t-328 -134t-328 133t-139 327zM154 446q0 -144 98 -246q98 -104 244 -104t243 104q98 104 99 246q0 143 -98 246t-244 103q-146 -1 -244 -103t-98 -246z" />
<glyph unicode="P" horiz-adv-x="636" d="M51 0v596q0 141 86 227q78 84 203 84t208 -85q83 -84 83 -202t-73 -201t-179 -83h-162v113h129q68 0 117 45q47 47 47 127t-48 127t-123 47t-120 -50q-49 -49 -49 -133v-612h-119z" />
<glyph unicode="Q" horiz-adv-x="991" d="M28 458q0 180 140 315q140 134 328 134t327 -133q139 -140 139 -318t-116 -311q-111 -131 -264 -149v-180h-121v475h121v-185q116 31 186 124t70 226q0 134 -98 236t-244 102t-244 -102t-98 -236t76 -232q76 -97 173 -115v-113q-159 30 -267 156t-108 306z" />
<glyph unicode="R" d="M63 0v588q0 147 84 235q74 84 203 84t207 -73t78 -181q0 -137 -105 -198q59 -23 89 -68t30 -139v-248h-119v244q0 145 -161 145h-133v113h94q84 0 134 38t50 106t-46 109q-46 40 -117 40t-119 -47t-48 -125v-623h-121z" />
<glyph unicode="S" horiz-adv-x="636" d="M31 0v113h305q149 0 149 112q0 76 -116 140q-45 25 -107 51q-135 59 -192 139q-33 49 -33 113q0 106 66 164t178 59h284v-111h-301q-106 0 -106 -106q0 -87 223 -176q223 -104 223 -260q0 -110 -64 -174t-182 -64h-327z" />
<glyph unicode="T" horiz-adv-x="565" d="M2 780v111h561v-111h-221v-780h-119v780h-221z" />
<glyph unicode="U" d="M59 293v598h119v-586q0 -96 45 -147q45 -62 128 -62t132 62q45 51 45 147v586h121v-598q0 -127 -85 -217t-212 -90t-210 88t-83 219z" />
<glyph unicode="V" d="M-18 891h124l252 -735h2l242 735h125l-260 -801q-18 -59 -44 -82q-26 -22 -63 -22q-38 0 -62 22t-44 82z" />
<glyph unicode="W" horiz-adv-x="1132" d="M61 268v623h121v-623q0 -80 41 -126t121 -46t121 46t41 126v623h119v-623q0 -78 42 -125q43 -47 121 -47t119 46t41 126v623h121v-623q0 -127 -82 -209q-77 -73 -179 -73h-3q-164 0 -240 114q-75 -114 -236 -114h-3q-102 0 -183 73q-82 82 -82 209z" />
<glyph unicode="X" d="M4 0v113h5q124 0 201 96q79 98 79 235t-76 236q-84 100 -209 100v111q127 -4 224 -71t124 -183h4q23 115 122 182t224 72v-111q-123 0 -206 -100q-76 -98 -76 -236t79 -235q77 -96 198 -96h5v-113q-121 4 -222 74t-124 180h-4q-27 -114 -125 -182t-223 -72z" />
<glyph unicode="Y" horiz-adv-x="636" d="M29 623v268h121v-270q0 -76 46 -118t122 -42t123 42q46 42 46 118v270h119v-268q0 -94 -57 -170t-174 -105v-348h-119v348q-117 31 -172 109q-55 72 -55 166z" />
<glyph unicode="Z" horiz-adv-x="636" d="M14 98q0 44 56 123l401 559h-410v111h431q52 0 78 -22t26 -54q0 -68 -51 -137l-400 -565h465v-113h-497q-47 0 -73 27t-26 71z" />
<glyph unicode="[" horiz-adv-x="495" d="M143 -223v1114h222v-57h-111v-1000h111v-57h-222z" />
<glyph unicode="\" horiz-adv-x="354" d="M-80 907h100l412 -921h-98z" />
<glyph unicode="]" horiz-adv-x="495" d="M131 -166h111v1000h-111v57h221v-1114h-221v57z" />
<glyph unicode="^" horiz-adv-x="763" d="M72 365l262 526h96l262 -526h-106l-203 417l-205 -417h-106z" />
<glyph unicode="_" horiz-adv-x="636" d="M0 -96h637v-64h-637v64z" />
<glyph unicode="a" d="M33 312q0 134 84 223q90 90 231 90t225 -79t84 -212v-334h-112v344q0 82 -62 129q-53 45 -141 45t-141 -65q-55 -59 -55 -147t56 -150q58 -62 145 -62t153 84v-133q-78 -57 -166 -57q-127 0 -215 94q-86 96 -86 230z" />
<glyph unicode="b" d="M51 324v567h113v-547q0 -125 57 -186q51 -64 140 -64t145 60t57 155q0 93 -55 151q-56 58 -142 58t-159 -55v119q77 43 187 43t196 -90t86 -221q0 -130 -85 -228t-225 -98t-229 92q-86 92 -86 244z" />
<glyph unicode="c" horiz-adv-x="495" d="M56 304q0 138 94 223q96 85 212 85h107v-108h-86q-83 0 -147 -51t-64 -147t64 -147q64 -52 147 -53h86v-106h-107q-117 0 -206 80q-100 86 -100 224z" />
<glyph unicode="d" d="M33 312q0 130 87 222q86 91 196 91t184 -43v-119q-70 55 -158 55t-142 -57t-54 -153t57 -154q55 -60 142 -60t143 64t57 186v547h112v-567q0 -147 -86 -244q-88 -92 -228 -92t-225 97t-85 227z" />
<glyph unicode="e" d="M39 305q0 139 94 229t223 91q201 0 295 -195l-413 -229l-45 90l301 168q-60 59 -142 59t-139 -59t-57 -153t57 -152q57 -60 147 -60t136 50t65 141l113 -15q-10 -125 -99 -200q-88 -82 -219 -82t-224 89t-93 228z" />
<glyph unicode="f" horiz-adv-x="354" d="M66 0v670q0 98 61 164q61 57 156 57h94v-107h-78q-121 0 -121 -112v-60h184v-108h-184v-504h-112z" />
<glyph unicode="g" d="M41 301q0 137 88 230t223 93t226 -94q80 -90 79 -208v-273q0 -168 -88 -254t-231 -86q-96 0 -201 37l27 100q120 -30 188 -30t125 43q68 47 68 151v285q1 103 -55 163t-143 60t-144 -67q-49 -66 -49 -157q0 -92 56 -146t130 -54t160 49v-114q-68 -41 -144 -41 q-135 0 -225 88t-90 225z" />
<glyph unicode="h" horiz-adv-x="636" d="M57 0v891h113v-334q57 68 156 68q254 0 254 -269v-356h-113v356q0 88 -42 125q-43 37 -105 37t-107 -45q-43 -47 -43 -117v-356h-113z" />
<glyph unicode="i" horiz-adv-x="354" d="M109 748q0 28 18 47q18 20 50 20t49 -19q18 -19 18 -48q0 -28 -18 -48t-49 -20q-32 0 -50 20t-18 48zM121 0v612h112v-612h-112z" />
<glyph unicode="j" horiz-adv-x="282" d="M-82 -168h29q83 0 111 28t28 111v641h113v-665q0 -221 -248 -221h-33v106zM76 748q0 30 17 48q17 19 49 19t50 -20t19 -47q0 -28 -18 -48q-19 -20 -51 -20t-49 19t-17 49z" />
<glyph unicode="k" horiz-adv-x="565" d="M66 0v891h112v-506h47q68 0 94 45l107 182h127l-80 -139q-27 -43 -49 -73t-47 -38v-4q141 -29 141 -178v-180h-112v166q0 113 -101 113h-127v-279h-112z" />
<glyph unicode="l" horiz-adv-x="282" d="M86 0v891h111v-891h-111z" />
<glyph unicode="m" horiz-adv-x="919" d="M61 0v416q1 84 63 146t170 62t167 -87q55 88 163 88q108 -1 172 -63q62 -62 62 -146v-416h-113v389q0 59 -29 94q-30 35 -81 35q-119 0 -119 -145v-373h-113v373q0 145 -118 145q-51 0 -81 -35t-30 -94v-389h-113z" />
<glyph unicode="n" horiz-adv-x="636" d="M57 0v356q0 119 73 194q74 75 188 75t188 -76t74 -193v-356h-113v356q0 70 -43 117q-50 45 -106 45t-105 -45q-43 -47 -43 -117v-356h-113z" />
<glyph unicode="o" d="M37 305q0 139 96 230q90 90 220 90q131 0 225 -90q94 -89 94 -229t-93 -229t-225 -89t-221 88q-96 90 -96 229zM154 306q0 -96 56 -153q56 -59 144 -59t144 58t57 154q-1 96 -57 154t-144 58t-144 -58t-56 -154z" />
<glyph unicode="p" d="M51 -274v563q0 151 86 243t227 92q140 0 226 -98t86 -230t-86 -220t-196 -88t-187 43v116q77 -53 161 -53t140 58q55 57 55 147q0 95 -57 157q-56 62 -144 62t-143 -64t-55 -186v-542h-113z" />
<glyph unicode="q" d="M33 297q0 131 85 229t226 98t227 -94t86 -241v-563h-112v542q0 117 -58 189q-55 61 -141 61t-143 -59t-57 -155t54 -152q54 -58 141 -58t159 53v-116q-74 -43 -184 -43t-196 89q-87 89 -87 220z" />
<glyph unicode="r" horiz-adv-x="354" d="M55 0v612h109v-71h2q53 84 166 84h24v-107h-16q-172 0 -172 -233v-285h-113z" />
<glyph unicode="s" horiz-adv-x="565" d="M35 0v106h313q74 0 74 58t-193 104q-117 35 -163 90q-31 35 -31 88q0 166 209 166h264v-108h-283q-41 0 -56 -12t-15 -41q0 -43 98 -72q47 -14 94 -25q115 -33 164 -92q29 -34 29 -104q-1 -70 -53 -114t-138 -44h-313z" />
<glyph unicode="t" horiz-adv-x="423" d="M76 197v567h110v-152h220v-108h-220v-320q0 -78 84 -78h136v-106h-150q-86 0 -133 52t-47 145z" />
<glyph unicode="u" horiz-adv-x="636" d="M57 254v358h113v-358q0 -68 43 -115q49 -45 105 -45t106 45q43 47 43 115v358h113v-358q0 -119 -74 -193q-74 -73 -189 -73t-184 73q-76 72 -76 193z" />
<glyph unicode="v" horiz-adv-x="565" d="M-16 612h122l179 -475l176 475h123l-215 -563q-13 -37 -33 -49t-53 -12t-53 12q-19 12 -33 49z" />
<glyph unicode="w" horiz-adv-x="919" d="M61 197v415h113v-391q0 -57 30 -92t81 -35q119 0 118 146v372h113v-372q0 -145 119 -146q51 0 81 35t29 92v391h113v-415q0 -84 -63 -148q-66 -61 -156 -61q-121 0 -178 86q-59 -86 -180 -86q-90 0 -156 61q-63 63 -64 148z" />
<glyph unicode="x" horiz-adv-x="495" d="M8 0v106q80 2 132 62t52 138q0 79 -53 136q-45 55 -131 62v108q172 -12 240 -153q24 69 92 111t147 42v-108q-82 -6 -132 -62t-50 -135q0 -78 51 -139q55 -59 131 -62v-106q-160 0 -239 143q-80 -143 -240 -143z" />
<glyph unicode="y" horiz-adv-x="636" d="M63 244v368h113v-368q0 -66 37 -108t105 -42t106 42q37 42 37 108v368h112v-368q0 -203 -198 -256v-262h-113v262q-199 53 -199 256z" />
<glyph unicode="z" horiz-adv-x="495" d="M45 504v108h297q117 0 117 -82q0 -43 -19 -67l-293 -357h316v-106h-348q-43 0 -68 22q-24 22 -24 53q0 50 61 124l250 305h-289z" />
<glyph unicode="{" horiz-adv-x="495" d="M43 299v74q39 0 70 39t30 98v227q0 68 37 111t90 43h101v-57h-60q-57 0 -57 -103v-237q0 -74 -35 -113t-65 -45v-2q39 -12 59 -37q41 -49 41 -125v-235q0 -103 57 -103h60v-57h-101q-53 0 -90 43t-37 110v226q0 61 -30 102q-31 41 -70 41z" />
<glyph unicode="|" horiz-adv-x="282" d="M92 0v891h98v-891h-98z" />
<glyph unicode="}" horiz-adv-x="495" d="M125 -166h59q23 0 39 23q18 20 19 80v237q0 72 39 119q27 29 61 39v2q-37 10 -61 39q-39 43 -39 123v235q0 101 -58 103h-59v57h100q53 0 90 -43t37 -111v-225q0 -63 33 -102q29 -41 68 -41v-74q-39 0 -70 -39t-31 -98v-228q0 -68 -37 -110t-90 -43h-100v57z" />
<glyph unicode="~" horiz-adv-x="763" d="M88 289q62 108 160 108q47 0 143 -43t128 -43t53 19t59 73l45 -79q-37 -53 -71 -82t-86 -29t-134 45q-90 43 -151 43t-101 -92z" />
<glyph unicode="&#xa1;" horiz-adv-x="282" d="M66 554q0 32 22 56t56 23q34 0 57 -25q23 -26 23 -56t-24 -54q-22 -24 -56 -25q-34 0 -56 24q-22 25 -22 57zM92 -274v688h107v-688h-107z" />
<glyph unicode="&#xa2;" d="M90 480q0 99 66 173t166 80v158h96v-158h82v-110h-135q-154 -1 -154 -139t154 -138h135v-113h-82v-163h-96v163q-100 2 -166 78q-66 70 -66 169z" />
<glyph unicode="&#xa3;" d="M0 0v113h25q77 -1 105 27t28 93v89q-4 53 -4 88h-86v112h82v103q0 123 74 203t194 79q61 0 153 -30l-39 -109q-56 27 -118 27t-103 -42t-41 -120q0 -16 4 -53q0 -39 2 -58h146v-112h-141v-162q0 -98 -48 -133l5 -2h168q76 0 116 39q45 39 45 124v134h123v-125 q0 -285 -289 -285h-401z" />
<glyph unicode="&#xa4;" d="M33 184l69 74q-63 78 -63 188t63 187l-69 74l59 61l72 -74q74 68 188 68t193 -68l69 74l62 -61l-70 -74q64 -76 64 -187t-64 -188l70 -74l-62 -61l-69 74q-78 -68 -193 -68t-188 68l-72 -74zM144 446q0 -90 61 -155q63 -63 151 -63t148 64t61 154q-1 90 -61 155t-148 65 t-151 -64q-61 -66 -61 -156z" />
<glyph unicode="&#xa5;" d="M14 780v111q121 -4 217 -72t121 -182h4q23 115 119 182t217 72v-111q-84 0 -148 -49t-98 -129h209v-113h-235q-4 -29 -4 -43v-32h239v-113h-239v-301h-125v301h-238v113h238v32q0 29 -2 43h-236v113h209q-31 76 -96 129q-66 49 -152 49z" />
<glyph unicode="&#xa6;" horiz-adv-x="282" d="M92 0v334h98v-334h-98zM92 557v334h98v-334h-98z" />
<glyph unicode="&#xa7;" horiz-adv-x="636" d="M68 461q0 135 145 141q-74 82 -74 151q-1 69 53 111t125 43q109 0 197 -104l-74 -60q-41 47 -67 63q-27 15 -56 15t-51 -20t-20 -56q0 -37 66 -103t96 -91q100 -92 137 -162q25 -41 25 -92t-43 -88q-42 -37 -97 -47q68 -80 68 -155t-58 -116t-129 -41t-113 26t-94 81 l80 61q51 -82 127 -81q33 0 57 20t24 59t-85 131l-78 78q-102 98 -137 160q-25 37 -24 76zM174 471q0 -31 47 -88q41 -55 96 -101t81 -46t45 15t19 37t-46 86q-47 64 -97 103q-57 51 -88 51q-57 0 -57 -57z" />
<glyph unicode="&#xa9;" horiz-adv-x="1019" d="M41 446q0 198 138 329q138 132 331 132t331 -132t138 -330q0 -199 -139 -329q-140 -130 -330 -130t-328 127q-141 135 -141 333zM148 445q0 -163 104 -271t258 -108t257 107t103 272t-103 273t-257 107t-258 -109t-104 -271zM258 449q0 121 70 200q76 80 181 80t167 -50 t76 -142h-90q-18 104 -152 104q-68 0 -110 -54t-42 -136t45 -140q47 -57 113 -57t104 30q36 30 42 78h90q-16 -90 -78 -142t-148 -52q-123 0 -194 82q-74 78 -74 199z" />
<glyph unicode="&#xaa;" horiz-adv-x="425" d="M8 717q0 80 55 135q59 55 151 55t148 -47q55 -47 56 -127v-201h-80v207q0 49 -36 76t-91 27t-90 -37t-35 -90t36 -88t93 -35t98 47v-78q-51 -37 -119 -37t-128 56q-58 56 -58 137z" />
<glyph unicode="&#xab;" horiz-adv-x="636" d="M82 305l158 197h96l-158 -197l166 -196h-96zM299 305l158 197h96l-158 -197l166 -196h-98z" />
<glyph unicode="&#xac;" horiz-adv-x="763" d="M76 383v98h612v-352h-100v254h-512z" />
<glyph unicode="&#xad;" horiz-adv-x="354" d="M35 254v102h284v-102h-284z" />
<glyph unicode="&#xae;" horiz-adv-x="1019" d="M41 446q0 198 138 329q138 132 331 132t331 -132t138 -330q0 -199 -139 -329q-140 -130 -330 -130t-328 127q-141 135 -141 333zM148 445q0 -163 104 -271t258 -108t257 107t103 272t-103 273t-257 107t-258 -109t-104 -271zM330 182v527h200q96 0 144 -36t47 -116 q0 -125 -137 -143l147 -232h-94l-137 228h-84v-228h-86zM416 481h110q57 -1 83 19t26 65q0 74 -115 74h-104v-158z" />
<glyph unicode="&#xb0;" horiz-adv-x="509" d="M72 725q0 78 55 129q49 53 129 53t130 -52t50 -130t-52 -130t-128 -52t-130 52t-54 130zM133 725q0 -53 35 -90t87 -37t86 36t34 90t-34 90t-86 36t-87 -36t-35 -89z" />
<glyph unicode="&#xb1;" horiz-adv-x="763" d="M76 0v100h612v-100h-612zM76 328v98h256v186h100v-186h256v-98h-256v-185h-100v185h-256z" />
<glyph unicode="&#xb2;" horiz-adv-x="423" d="M8 420l2 15q0 13 18 24q18 12 23 17q6 5 10 7l203 150q64 47 64 98t-30 79t-80 28t-81 -30t-31 -76t33 -74t72 -33l-78 -50q-117 41 -117 162q0 76 64 123q57 47 140 47t139 -48q57 -47 57 -115t-37 -111q-27 -37 -94 -86l-162 -113v-2h287v-70h-324q-78 0 -78 58z" />
<glyph unicode="&#xb3;" horiz-adv-x="423" d="M18 362v70h187q55 0 86 28t31 70t-37 66q-37 25 -101 25h-92v55l184 151v2h-243v70h256q82 0 82 -59q1 -30 -21 -49t-49 -39l-78 -60v-2q82 0 134 -42q53 -42 53 -116t-48 -121q-48 -48 -124 -49h-220z" />
<glyph unicode="&#xb6;" horiz-adv-x="763" d="M35 651q0 240 297 240h334v-1061h-109v981h-141v-981h-107v590q-125 0 -199 66t-75 165z" />
<glyph unicode="&#xb7;" horiz-adv-x="354" d="M102 306q0 30 22 52t53 23q31 0 53 -22q22 -21 22 -53t-23 -54t-53 -21q-30 0 -52 22q-22 23 -22 53z" />
<glyph unicode="&#xb9;" horiz-adv-x="423" d="M80 829l20 70h168v-537h-90v467h-98z" />
<glyph unicode="&#xba;" horiz-adv-x="425" d="M2 717q0 86 64 137q59 53 146 53t146 -53q66 -53 66 -137t-64 -138q-64 -55 -148 -55q-83 0 -146 54t-64 139zM86 717q0 -57 35 -91t92 -34t92 34t35 91t-35 91t-92 34t-92 -34t-35 -91z" />
<glyph unicode="&#xbb;" horiz-adv-x="636" d="M76 109l166 196l-158 197h96l158 -197l-164 -196h-98zM293 109l166 196l-158 197h96l158 -197l-166 -196h-96z" />
<glyph unicode="&#xbc;" horiz-adv-x="1062" d="M80 829l20 70h168v-537h-90v467h-98zM209 -14l551 921h88l-551 -921h-88zM588 168q0 21 24 55l187 312h92l-209 -345h170v232l86 119l4 4v-355h80v-67h-80v-123h-90v123h-211q-53 0 -53 45z" />
<glyph unicode="&#xbd;" horiz-adv-x="1062" d="M80 829l20 70h168v-537h-90v467h-98zM195 -14l548 921h88l-550 -921h-86zM645 55l2 16q-1 12 9 18q10 7 15 11t8 6t9 8t10 7l203 147q63 52 63 102t-29 78q-30 28 -80 27q-50 0 -81 -30q-31 -29 -31 -75t33 -74t72 -34l-78 -49q-117 41 -117 160q0 78 64 125 q57 47 140 47t139 -48q56 -49 56 -115t-32 -110q-33 -44 -98 -88l-162 -112v-2h287v-70h-324q-78 0 -78 55z" />
<glyph unicode="&#xbe;" horiz-adv-x="1062" d="M18 362v70h187q55 0 86 28t31 70t-37 66q-37 25 -101 25h-92v55l184 151v2h-243v70h256q82 0 82 -59q1 -30 -21 -49t-49 -39l-78 -60v-2q82 0 134 -42q53 -42 53 -116t-48 -121q-48 -48 -124 -49h-220zM248 -14l549 921h88l-549 -921h-88zM588 168q0 21 24 55l187 312h92 l-209 -345h170v232l86 119l4 4v-355h80v-67h-80v-123h-90v123h-211q-53 0 -53 45z" />
<glyph unicode="&#xbf;" horiz-adv-x="565" d="M8 -28q0 108 62 180t161 90v172h113v-281h-33q-92 0 -138 -42t-46 -112q0 -69 39 -113q40 -44 108 -44t104 49t36 121h118q0 -117 -73 -201q-75 -82 -189 -82t-186 78q-76 77 -76 185zM208 554q0 32 24 56q22 24 56 23q34 0 56 -25q22 -26 23 -56q0 -30 -23 -54 q-22 -24 -56 -25q-34 0 -57 24q-23 25 -23 57z" />
<glyph unicode="&#xc0;" d="M49 0v565q0 158 87 250t218 92t218 -92t87 -250v-565h-120v406h-322v112h322v55q-1 105 -51 163t-134 58t-134 -58t-50 -163v-573h-121zM186 1124h138l114 -182h-86z" />
<glyph unicode="&#xc1;" d="M49 0v565q0 158 87 250t218 92t218 -92t87 -250v-565h-120v406h-322v112h322v55q-1 105 -51 163t-134 58t-134 -58t-50 -163v-573h-121zM270 942l115 182h137l-166 -182h-86z" />
<glyph unicode="&#xc2;" d="M49 0v565q0 158 87 250t218 92t218 -92t87 -250v-565h-120v406h-322v112h322v55q-1 105 -51 163t-134 58t-134 -58t-50 -163v-573h-121zM168 942l127 182h119l127 -182h-103l-84 121l-84 -121h-102z" />
<glyph unicode="&#xc3;" d="M49 0v565q0 158 87 250t218 92t218 -92t87 -250v-565h-120v406h-322v112h322v55q-1 105 -51 163t-134 58t-134 -58t-50 -163v-573h-121zM137 954q4 60 39 100t94 40q24 0 90 -25t86 -25q57 0 64 58h61q-8 -57 -43 -98t-82 -41q-47 1 -114 25q-66 24 -82 24t-32 -18 t-19 -40h-62z" />
<glyph unicode="&#xc4;" d="M49 0v565q0 158 87 250t218 92t218 -92t87 -250v-565h-120v406h-322v112h322v55q-1 105 -51 163t-134 58t-134 -58t-50 -163v-573h-121zM180 1021q0 33 20 53t53 20q32 0 51 -20q20 -20 20 -53q0 -32 -20 -51q-20 -20 -51 -20q-32 0 -52 20q-21 20 -21 51zM385 1021 q-1 33 19 53t52 20t52 -20t20 -53q0 -32 -20 -51q-20 -20 -52 -20t-52 20t-19 51z" />
<glyph unicode="&#xc5;" d="M49 0v565q0 158 87 250t218 92t218 -92t87 -250v-565h-120v406h-322v112h322v55q-1 105 -51 163t-134 58t-134 -58t-50 -163v-573h-121zM223 1066q0 54 39 93q35 39 91 39t93 -38t37 -93t-37 -92t-92 -37t-93 37t-38 91zM285 1067q0 -31 19 -49t50 -18t50 18t20 49 q0 31 -20 51t-50 19q-31 1 -50 -19t-19 -51z" />
<glyph unicode="&#xc6;" horiz-adv-x="1132" d="M35 0v565q0 160 86 251t217 91q219 0 293 -186q84 98 169 134t210 36h80v-111h-80q-150 0 -248 -87t-103 -175h431v-112h-431q8 -123 105 -209q90 -84 211 -84h115v-113h-60q-158 0 -241 44t-132 108h-2v-152h-120v406h-330v112h330v55q1 105 -51 163t-140 58t-139 -58 t-51 -163v-573h-119z" />
<glyph unicode="&#xc7;" horiz-adv-x="636" d="M45 442q0 176 130 312t335 137h94v-111h-80q-154 0 -254 -95t-100 -247t96 -238t211 -87h127v-113h-110l-52 -68q30 4 60 4t58 -25q28 -26 28 -73t-38 -80q-38 -32 -107 -32t-130 26l23 51q45 -20 84 -20q72 0 72 52t-62 52q-23 0 -47 -10l-25 27l74 98q-170 16 -276 141 q-111 123 -111 299z" />
<glyph unicode="&#xc8;" horiz-adv-x="636" d="M29 444q0 188 131 320q131 127 329 127h95v-111h-80q-158 0 -252 -91t-98 -171h430v-112h-430q8 -123 101 -208t214 -85h115v-113h-95q-197 0 -329 128t-131 316zM262 1124h137l115 -182h-88z" />
<glyph unicode="&#xc9;" horiz-adv-x="636" d="M29 444q0 188 131 320q131 127 329 127h95v-111h-80q-158 0 -252 -91t-98 -171h430v-112h-430q8 -123 101 -208t214 -85h115v-113h-95q-197 0 -329 128t-131 316zM346 942l115 182h137l-166 -182h-86z" />
<glyph unicode="&#xca;" horiz-adv-x="636" d="M29 444q0 188 131 320q131 127 329 127h95v-111h-80q-158 0 -252 -91t-98 -171h430v-112h-430q8 -123 101 -208t214 -85h115v-113h-95q-197 0 -329 128t-131 316zM244 942l127 182h116l127 -182h-100l-84 121l-84 -121h-102z" />
<glyph unicode="&#xcb;" horiz-adv-x="636" d="M29 444q0 188 131 320q131 127 329 127h95v-111h-80q-158 0 -252 -91t-98 -171h430v-112h-430q8 -123 101 -208t214 -85h115v-113h-95q-197 0 -329 128t-131 316zM256 1021q0 33 20 53t51 20q32 0 52 -20t20 -53q0 -32 -20 -51q-20 -20 -52 -20q-31 0 -51 20t-20 51z M461 1021q0 33 19 53t51 20q31 0 51 -20t20 -53q0 -32 -19 -51q-19 -20 -51 -20t-52 20q-19 20 -19 51z" />
<glyph unicode="&#xcc;" horiz-adv-x="282" d="M-33 1124h137l115 -182h-86zM82 0v891h119v-891h-119z" />
<glyph unicode="&#xcd;" horiz-adv-x="282" d="M51 942l115 182h137l-166 -182h-86zM82 0v891h119v-891h-119z" />
<glyph unicode="&#xce;" horiz-adv-x="282" d="M-51 942l127 182h119l127 -182h-103l-84 121l-84 -121h-102zM82 0v891h119v-891h-119z" />
<glyph unicode="&#xcf;" horiz-adv-x="282" d="M-38 1021q0 33 20 53t52 20t51 -20t19 -53q0 -32 -19 -51q-19 -20 -51 -20t-52 20t-20 51zM82 0v891h119v-891h-119zM166 1021q0 33 20 53t51 20q32 0 52 -20t20 -53q0 -32 -20 -51q-20 -20 -52 -20q-31 0 -51 20t-20 51z" />
<glyph unicode="&#xd0;" horiz-adv-x="778" d="M-25 406v112h97v373h225q186 0 311 -133q125 -132 125 -314t-125 -313t-311 -131h-55v113h65q127 0 214 95q87 96 87 242t-97 238t-247 92h-74v-262h218v-112h-218v-406h-118v406h-97z" />
<glyph unicode="&#xd1;" horiz-adv-x="778" d="M63 0v791q0 109 105 108q46 0 72 -27t65 -104l287 -592h2v715h119v-813q0 -86 -90 -86q-45 0 -71 18t-48 70l-318 651h-2v-731h-121zM188 954q4 60 39 100t95 40q20 0 94 -25q61 -25 82 -25q57 0 63 58h62q-6 -53 -42 -96t-84 -43q-48 1 -114 25t-82 24q-15 0 -31 -18 t-20 -40h-62z" />
<glyph unicode="&#xd2;" horiz-adv-x="991" d="M29 446q0 194 139 328q140 133 328 133t327 -133q139 -139 139 -330q0 -190 -138 -324t-328 -134t-328 133t-139 327zM154 446q0 -144 98 -246q98 -104 244 -104t243 104q98 104 99 246q0 143 -98 246t-244 103q-146 -1 -244 -103t-98 -246zM328 1124h137l115 -182h-86z " />
<glyph unicode="&#xd3;" horiz-adv-x="991" d="M29 446q0 194 139 328q140 133 328 133t327 -133q139 -139 139 -330q0 -190 -138 -324t-328 -134t-328 133t-139 327zM154 446q0 -144 98 -246q98 -104 244 -104t243 104q98 104 99 246q0 143 -98 246t-244 103q-146 -1 -244 -103t-98 -246zM412 942l114 182h138 l-166 -182h-86z" />
<glyph unicode="&#xd4;" horiz-adv-x="991" d="M29 446q0 194 139 328q140 133 328 133t327 -133q139 -139 139 -330q0 -190 -138 -324t-328 -134t-328 133t-139 327zM154 446q0 -144 98 -246q98 -104 244 -104t243 104q98 104 99 246q0 143 -98 246t-244 103q-146 -1 -244 -103t-98 -246zM309 942l127 182h119 l127 -182h-102l-84 121l-84 -121h-103z" />
<glyph unicode="&#xd5;" horiz-adv-x="991" d="M29 446q0 194 139 328q140 133 328 133t327 -133q139 -139 139 -330q0 -190 -138 -324t-328 -134t-328 133t-139 327zM154 446q0 -144 98 -246q98 -104 244 -104t243 104q98 104 99 246q0 143 -98 246t-244 103q-146 -1 -244 -103t-98 -246zM279 954q4 59 38 100 q35 40 95 40q25 0 90 -25t86 -25q57 0 63 58h62q-8 -57 -43 -98t-83 -41q-48 1 -114 25t-82 24q-15 0 -31 -18t-20 -40h-61z" />
<glyph unicode="&#xd6;" horiz-adv-x="991" d="M29 446q0 194 139 328q140 133 328 133t327 -133q139 -139 139 -330q0 -190 -138 -324t-328 -134t-328 133t-139 327zM154 446q0 -144 98 -246q98 -104 244 -104t243 104q98 104 99 246q0 143 -98 246t-244 103q-146 -1 -244 -103t-98 -246zM322 1021q0 33 20 53t52 20 t51 -20t19 -53q0 -32 -18 -51q-20 -20 -52 -20t-52 20t-20 51zM526 1021q0 33 20 53t51 20q32 0 52 -20q21 -20 21 -53q0 -32 -20 -51q-20 -20 -53 -20q-32 0 -51 20q-20 20 -20 51z" />
<glyph unicode="&#xd7;" horiz-adv-x="763" d="M76 70l235 235l-235 236l71 71l236 -237l235 237l70 -71l-235 -236l235 -235l-70 -70l-235 236l-236 -236z" />
<glyph unicode="&#xd8;" horiz-adv-x="991" d="M-12 -14l155 159q-115 127 -115 311t140 317q140 134 316 134t302 -102l99 102h119l-156 -159q115 -135 115 -315q-1 -179 -139 -313t-314 -134t-305 100l-99 -100h-118zM154 458q0 -132 71 -229l482 494q-92 72 -225 72q-132 -1 -230 -103t-98 -234zM285 170 q90 -74 223 -74t231 104q99 104 99 236q0 133 -74 226z" />
<glyph unicode="&#xd9;" d="M59 293v598h119v-586q0 -96 45 -147q45 -62 128 -62t132 62q45 51 45 147v586h121v-598q0 -127 -85 -217t-212 -90t-210 88t-83 219zM186 1124h138l114 -182h-86z" />
<glyph unicode="&#xda;" d="M59 293v598h119v-586q0 -96 45 -147q45 -62 128 -62t132 62q45 51 45 147v586h121v-598q0 -127 -85 -217t-212 -90t-210 88t-83 219zM270 942l115 182h137l-166 -182h-86z" />
<glyph unicode="&#xdb;" d="M59 293v598h119v-586q0 -96 45 -147q45 -62 128 -62t132 62q45 51 45 147v586h121v-598q0 -127 -85 -217t-212 -90t-210 88t-83 219zM168 942l127 182h119l127 -182h-103l-84 121l-84 -121h-102z" />
<glyph unicode="&#xdc;" d="M59 293v598h119v-586q0 -96 45 -147q45 -62 128 -62t132 62q45 51 45 147v586h121v-598q0 -127 -85 -217t-212 -90t-210 88t-83 219zM180 1021q0 33 20 53t53 20q32 0 51 -20q20 -20 20 -53q0 -32 -20 -51q-20 -20 -51 -20q-32 0 -52 20q-21 20 -21 51zM385 1021 q-1 33 19 53t52 20t52 -20t20 -53q0 -32 -20 -51q-20 -20 -52 -20t-52 20t-19 51z" />
<glyph unicode="&#xdd;" horiz-adv-x="636" d="M29 623v268h121v-270q0 -76 46 -118t122 -42t123 42q46 42 46 118v270h119v-268q0 -94 -57 -170t-174 -105v-348h-119v348q-117 31 -172 109q-55 72 -55 166zM264 942l115 182h137l-166 -182h-86z" />
<glyph unicode="&#xde;" horiz-adv-x="636" d="M51 0v891h119v-201q57 55 178 55t202 -83q81 -82 81 -200t-74 -202t-190 -84h-150v113h129q68 0 116 44t48 125t-48 129t-123 48t-122 -49t-47 -135v-451h-119z" />
<glyph unicode="&#xdf;" horiz-adv-x="778" d="M8 479l29 107h102v69q1 111 65 173t168 62t162 -51q58 -53 58 -123t-41 -118q-31 -31 -100 -68q135 -51 192 -104q86 -76 86 -180q-1 -104 -65 -176q-64 -70 -181 -70h-188v106h172q74 0 113 34t38 93q0 121 -147 183q-90 37 -125 63q-20 18 -20 52t41 59q13 8 47 23 q64 29 65 85q0 86 -100 86q-127 0 -127 -139v-645h-113v479h-131z" />
<glyph unicode="&#xe0;" d="M33 312q0 134 84 223q90 90 231 90t225 -79t84 -212v-334h-112v344q0 82 -62 129q-53 45 -141 45t-141 -65q-55 -59 -55 -147t56 -150q58 -62 145 -62t153 84v-133q-78 -57 -166 -57q-127 0 -215 94q-86 96 -86 230zM186 866h138l114 -180h-86z" />
<glyph unicode="&#xe1;" d="M33 312q0 134 84 223q90 90 231 90t225 -79t84 -212v-334h-112v344q0 82 -62 129q-53 45 -141 45t-141 -65q-55 -59 -55 -147t56 -150q58 -62 145 -62t153 84v-133q-78 -57 -166 -57q-127 0 -215 94q-86 96 -86 230zM270 686l115 180h137l-166 -180h-86z" />
<glyph unicode="&#xe2;" d="M33 312q0 134 84 223q90 90 231 90t225 -79t84 -212v-334h-112v344q0 82 -62 129q-53 45 -141 45t-141 -65q-55 -59 -55 -147t56 -150q58 -62 145 -62t153 84v-133q-78 -57 -166 -57q-127 0 -215 94q-86 96 -86 230zM168 686l127 180h119l127 -180h-103l-84 119l-84 -119 h-102z" />
<glyph unicode="&#xe3;" d="M33 312q0 134 84 223q90 90 231 90t225 -79t84 -212v-334h-112v344q0 82 -62 129q-53 45 -141 45t-141 -65q-55 -59 -55 -147t56 -150q58 -62 145 -62t153 84v-133q-78 -57 -166 -57q-127 0 -215 94q-86 96 -86 230zM137 696q4 60 39 100t83 40t106 -25q74 -25 81 -25 q57 0 64 58h61q-8 -57 -43 -97t-71 -40t-117 22q-124 55 -141 -33h-62z" />
<glyph unicode="&#xe4;" d="M33 312q0 134 84 223q90 90 231 90t225 -79t84 -212v-334h-112v344q0 82 -62 129q-53 45 -141 45t-141 -65q-55 -59 -55 -147t56 -150q58 -62 145 -62t153 84v-133q-78 -57 -166 -57q-127 0 -215 94q-86 96 -86 230zM180 764q0 32 20 52t53 20q32 0 51 -20q20 -20 20 -52 q0 -31 -20 -51q-20 -21 -51 -21q-32 0 -52 20t-21 52zM385 764q-1 32 19 52t52 20t52 -20t20 -52q0 -31 -20 -51q-20 -21 -52 -21t-52 20t-19 52z" />
<glyph unicode="&#xe5;" d="M33 312q0 134 84 223q90 90 231 90t225 -79t84 -212v-334h-112v344q0 82 -62 129q-53 45 -141 45t-141 -65q-55 -59 -55 -147t56 -150q58 -62 145 -62t153 84v-133q-78 -57 -166 -57q-127 0 -215 94q-86 96 -86 230zM223 811q0 55 39 90q35 39 91 39t93 -38t37 -92 t-37 -92t-93 -38t-93 38t-37 93zM285 810q0 -30 19 -49t50 -19t50 18q20 20 20 50t-20 50t-50 19q-31 1 -50 -19t-19 -50z" />
<glyph unicode="&#xe6;" horiz-adv-x="1132" d="M22 174q0 88 68 142q67 54 180 94q84 25 166 36q-43 72 -147 72t-203 -55l-51 88q125 74 250 74q182 0 256 -138q25 53 90 95q72 43 151 43q125 0 211 -72q53 -47 101 -147l-414 -173l-41 95l291 121q-52 69 -140 69t-143 -63t-55 -149t59 -148q59 -64 143 -64 q158 -1 210 176l102 -45q-37 -115 -116 -176t-189 -61q-186 0 -271 149q-36 -73 -112 -111t-169 -38t-155 47q-72 51 -72 139zM139 168q-1 -74 105 -74t168 56t63 147v55q-171 -25 -268 -84q-68 -43 -68 -100z" />
<glyph unicode="&#xe7;" horiz-adv-x="495" d="M55 313q-1 129 95 214t212 85h107v-108h-86q-83 0 -147 -51t-64 -147t64 -147q64 -52 147 -53h86v-106h-104l-50 -68q25 4 57 4t60 -25q29 -26 29 -73t-38 -80q-38 -32 -108 -32t-131 26l23 51q45 -20 84 -20q72 0 71 53q0 51 -61 51q-23 0 -47 -10l-23 27l74 100 q-102 20 -176 100t-74 209z" />
<glyph unicode="&#xe8;" d="M39 305q0 139 94 229t223 91q201 0 295 -195l-413 -229l-45 90l301 168q-60 59 -142 59t-139 -59t-57 -153t57 -152q57 -60 147 -60t136 50t65 141l113 -15q-10 -125 -99 -200q-88 -82 -219 -82t-224 89t-93 228zM186 866h138l114 -180h-86z" />
<glyph unicode="&#xe9;" d="M39 305q0 139 94 229t223 91q201 0 295 -195l-413 -229l-45 90l301 168q-60 59 -142 59t-139 -59t-57 -153t57 -152q57 -60 147 -60t136 50t65 141l113 -15q-10 -125 -99 -200q-88 -82 -219 -82t-224 89t-93 228zM270 686l115 180h137l-166 -180h-86z" />
<glyph unicode="&#xea;" d="M39 305q0 139 94 229t223 91q201 0 295 -195l-413 -229l-45 90l301 168q-60 59 -142 59t-139 -59t-57 -153t57 -152q57 -60 147 -60t136 50t65 141l113 -15q-10 -125 -99 -200q-88 -82 -219 -82t-224 89t-93 228zM168 686l127 180h119l127 -180h-103l-84 119l-84 -119 h-102z" />
<glyph unicode="&#xeb;" d="M39 305q0 139 94 229t223 91q201 0 295 -195l-413 -229l-45 90l301 168q-60 59 -142 59t-139 -59t-57 -153t57 -152q57 -60 147 -60t136 50t65 141l113 -15q-10 -125 -99 -200q-88 -82 -219 -82t-224 89t-93 228zM180 764q0 32 20 52t53 20q32 0 51 -20q20 -20 20 -52 q0 -31 -20 -51q-20 -21 -51 -21q-32 0 -52 20t-21 52zM385 764q-1 32 19 52t52 20t52 -20t20 -52q0 -31 -20 -51q-20 -21 -52 -21t-52 20t-19 52z" />
<glyph unicode="&#xec;" horiz-adv-x="354" d="M8 866h139l115 -180h-88zM121 0v612h112v-612h-112z" />
<glyph unicode="&#xed;" horiz-adv-x="354" d="M92 686l115 180h139l-166 -180h-88zM121 0v612h112v-612h-112z" />
<glyph unicode="&#xee;" horiz-adv-x="354" d="M-8 686l127 180h117l126 -180h-100l-86 119l-84 -119h-100zM121 0v612h112v-612h-112z" />
<glyph unicode="&#xef;" horiz-adv-x="354" d="M4 764q0 32 20 52t51 20q32 0 52 -20t20 -52q0 -31 -20 -51q-20 -21 -52 -21t-51 20t-20 52zM121 0v612h112v-612h-112zM207 764q1 32 21 52t52 20t51 -20t19 -52q0 -31 -19 -51q-19 -21 -51 -21t-52 20t-21 52z" />
<glyph unicode="&#xf0;" d="M37 305q0 139 96 230q90 90 221 90q6 0 56 -4q4 -6 35 -61t34 -87h-2q-49 45 -130 45t-137 -58t-56 -154t56 -153q56 -59 145 -59t145 64t55 172q0 110 -51 217q-51 94 -127 168l-135 -70l-62 74l117 59q-63 41 -107 58l70 71q76 -31 133 -76l131 70l64 -74l-117 -63 q84 -78 142 -191q59 -113 59 -253t-92 -236t-226 -96t-221 88q-96 90 -96 229z" />
<glyph unicode="&#xf1;" horiz-adv-x="636" d="M57 0v356q0 119 73 194q74 75 188 75t188 -76t74 -193v-356h-113v356q0 70 -43 117q-50 45 -106 45t-105 -45q-43 -47 -43 -117v-356h-113zM102 696q4 60 39 100t82 40t105 -25q74 -25 82 -25q59 0 63 58h62q-8 -57 -42 -97t-70 -40t-84 14t-78 23q-30 10 -47 10 q-16 0 -32 -18t-18 -40h-62z" />
<glyph unicode="&#xf2;" d="M37 305q0 139 96 230q90 90 220 90q131 0 225 -90q94 -89 94 -229t-93 -229t-225 -89t-221 88q-96 90 -96 229zM154 306q0 -96 56 -153q56 -59 144 -59t144 58t57 154q-1 96 -57 154t-144 58t-144 -58t-56 -154zM186 866h138l114 -180h-86z" />
<glyph unicode="&#xf3;" d="M37 305q0 139 96 230q90 90 220 90q131 0 225 -90q94 -89 94 -229t-93 -229t-225 -89t-221 88q-96 90 -96 229zM154 306q0 -96 56 -153q56 -59 144 -59t144 58t57 154q-1 96 -57 154t-144 58t-144 -58t-56 -154zM270 686l115 180h137l-166 -180h-86z" />
<glyph unicode="&#xf4;" d="M37 305q0 139 96 230q90 90 220 90q131 0 225 -90q94 -89 94 -229t-93 -229t-225 -89t-221 88q-96 90 -96 229zM154 306q0 -96 56 -153q56 -59 144 -59t144 58t57 154q-1 96 -57 154t-144 58t-144 -58t-56 -154zM168 686l127 180h119l127 -180h-103l-84 119l-84 -119 h-102z" />
<glyph unicode="&#xf5;" d="M37 305q0 139 96 230q90 90 220 90q131 0 225 -90q94 -89 94 -229t-93 -229t-225 -89t-221 88q-96 90 -96 229zM137 696q4 60 39 100t83 40t106 -25q74 -25 81 -25q57 0 64 58h61q-8 -57 -43 -97t-71 -40t-117 22q-124 55 -141 -33h-62zM154 306q0 -96 56 -153 q56 -59 144 -59t144 58t57 154q-1 96 -57 154t-144 58t-144 -58t-56 -154z" />
<glyph unicode="&#xf6;" d="M37 305q0 139 96 230q90 90 220 90q131 0 225 -90q94 -89 94 -229t-93 -229t-225 -89t-221 88q-96 90 -96 229zM154 306q0 -96 56 -153q56 -59 144 -59t144 58t57 154q-1 96 -57 154t-144 58t-144 -58t-56 -154zM180 764q0 32 20 52t53 20q32 0 51 -20q20 -20 20 -52 q0 -31 -20 -51q-20 -21 -51 -21q-32 0 -52 20t-21 52zM385 764q-1 32 19 52t52 20t52 -20t20 -52q0 -31 -20 -51q-20 -21 -52 -21t-52 20t-19 52z" />
<glyph unicode="&#xf7;" horiz-adv-x="763" d="M76 256v100h612v-100h-612zM294 56q0 34 25 61q25 26 64 26q39 -1 63 -27t23 -61q0 -35 -24 -61q-25 -26 -63 -25q-38 0 -63 26q-25 27 -25 61zM294 556q0 34 26 60q24 26 63 25q39 0 63 -26q24 -27 23 -61q0 -34 -24 -60q-25 -26 -63 -25q-38 0 -63 26q-25 27 -25 61z " />
<glyph unicode="&#xf8;" d="M-8 -12l114 118q-70 82 -70 210t97 219q91 90 209 90t205 -64l61 64h109l-115 -119q70 -82 70 -211t-93 -218t-213 -89t-204 63l-62 -63h-108zM154 320q0 -82 30 -134l287 295q-49 37 -127 37t-134 -58t-56 -140zM238 129q52 -35 128 -35t132 58t57 140q0 81 -31 132z " />
<glyph unicode="&#xf9;" horiz-adv-x="636" d="M57 254v358h113v-358q0 -68 43 -115q49 -45 105 -45t106 45q43 47 43 115v358h113v-358q0 -119 -74 -193q-74 -73 -189 -73t-184 73q-76 72 -76 193zM150 866h139l114 -180h-88z" />
<glyph unicode="&#xfa;" horiz-adv-x="636" d="M57 254v358h113v-358q0 -68 43 -115q49 -45 105 -45t106 45q43 47 43 115v358h113v-358q0 -119 -74 -193q-74 -73 -189 -73t-184 73q-76 72 -76 193zM233 686l115 180h139l-165 -180h-89z" />
<glyph unicode="&#xfb;" horiz-adv-x="636" d="M57 254v358h113v-358q0 -68 43 -115q49 -45 105 -45t106 45q43 47 43 115v358h113v-358q0 -119 -74 -193q-74 -73 -189 -73t-184 73q-76 72 -76 193zM133 686l127 180h117l127 -180h-101l-84 119l-86 -119h-100z" />
<glyph unicode="&#xfc;" horiz-adv-x="636" d="M57 254v358h113v-358q0 -68 43 -115q49 -45 105 -45t106 45q43 47 43 115v358h113v-358q0 -119 -74 -193q-74 -73 -189 -73t-184 73q-76 72 -76 193zM145 764q-1 32 19 52t52 20t52 -20t20 -52q0 -31 -20 -51q-20 -21 -52 -21t-51 20t-20 52zM348 764q0 32 20 52t53 20 q32 0 51 -20q20 -20 20 -52q0 -31 -20 -51q-20 -21 -51 -21q-32 0 -52 20t-21 52z" />
<glyph unicode="&#xfd;" horiz-adv-x="636" d="M63 244v368h113v-368q0 -66 37 -108t105 -42t106 42q37 42 37 108v368h112v-368q0 -203 -198 -256v-262h-113v262q-199 53 -199 256zM233 686l115 180h139l-165 -180h-89z" />
<glyph unicode="&#xfe;" d="M51 -274v1165h113v-338q86 72 194 72q146 -1 232 -99t86 -230t-86 -220t-196 -88t-187 43v116q77 -53 161 -53t140 58t55 150q0 92 -57 154q-56 62 -144 62t-143 -64t-55 -186v-542h-113z" />
<glyph unicode="&#xff;" horiz-adv-x="636" d="M63 244v368h113v-368q0 -66 37 -108t105 -42t106 42q37 42 37 108v368h112v-368q0 -203 -198 -256v-262h-113v262q-199 53 -199 256zM145 764q-1 32 19 52t52 20t52 -20t20 -52q0 -31 -20 -51q-20 -21 -52 -21t-51 20t-20 52zM348 764q0 32 20 52t53 20q32 0 51 -20 q20 -20 20 -52q0 -31 -20 -51q-20 -21 -51 -21q-32 0 -52 20t-21 52z" />
<glyph unicode="&#x152;" horiz-adv-x="1273" d="M0 445q0 179 128 321t302 141q127 0 229 -61t152 -174q112 219 391 219h58v-111h-35q-147 0 -252 -94q-92 -78 -96 -168h383v-112h-383q6 -123 99 -208t214 -85h70v-113h-58q-137 0 -234 52t-157 169q-49 -115 -153 -175t-228 -60q-174 0 -302 140t-128 319zM119 446 q0 -136 91 -242q91 -108 225 -108q133 0 225 106t92 244q0 139 -90 244t-227 105q-136 -1 -226 -107t-90 -242z" />
<glyph unicode="&#x153;" horiz-adv-x="1202" d="M18 305q0 139 94 229t224 91q170 0 264 -138q61 74 122 106q60 32 166 32q206 0 290 -228l-433 -186l-40 94l315 137q-56 76 -150 76t-153 -59q-57 -61 -57 -147t65 -152q61 -66 139 -66q164 0 209 185l111 -41q-88 -250 -320 -250q-170 0 -260 141q-109 -141 -268 -141 q-131 0 -224 89t-94 228zM136 306q0 -92 56 -151q56 -61 147 -61t147 60t56 152t-56 152t-147 60t-147 -60t-56 -152z" />
<glyph unicode="&#x178;" horiz-adv-x="636" d="M29 623v268h121v-270q0 -76 46 -118t122 -42t123 42q46 42 46 118v270h119v-268q0 -94 -57 -170t-174 -105v-348h-119v348q-117 31 -172 109q-55 72 -55 166zM174 1021q0 33 20 53t53 20q32 0 51 -20t19 -53q0 -32 -19 -51q-19 -20 -51 -20t-52 20q-21 20 -21 51z M379 1021q-1 33 19 53t52 20t51 -20t19 -53q0 -32 -19 -51q-19 -20 -51 -20t-52 20t-19 51z" />
<glyph unicode="&#x2000;" horiz-adv-x="682" />
<glyph unicode="&#x2001;" horiz-adv-x="1365" />
<glyph unicode="&#x2002;" horiz-adv-x="682" />
<glyph unicode="&#x2003;" horiz-adv-x="1365" />
<glyph unicode="&#x2004;" horiz-adv-x="455" />
<glyph unicode="&#x2005;" horiz-adv-x="341" />
<glyph unicode="&#x2006;" horiz-adv-x="227" />
<glyph unicode="&#x2007;" horiz-adv-x="227" />
<glyph unicode="&#x2008;" horiz-adv-x="170" />
<glyph unicode="&#x2009;" horiz-adv-x="273" />
<glyph unicode="&#x200a;" horiz-adv-x="75" />
<glyph unicode="&#x2010;" horiz-adv-x="354" d="M35 254v102h284v-102h-284z" />
<glyph unicode="&#x2011;" horiz-adv-x="354" d="M35 254v102h284v-102h-284z" />
<glyph unicode="&#x2012;" horiz-adv-x="354" d="M35 254v102h284v-102h-284z" />
<glyph unicode="&#x2013;" horiz-adv-x="636" d="M0 264v82h637v-82h-637z" />
<glyph unicode="&#x2014;" horiz-adv-x="1273" d="M0 264v82h1274v-82h-1274z" />
<glyph unicode="&#x2018;" horiz-adv-x="282" d="M59 891h107l45 -256h-94z" />
<glyph unicode="&#x2019;" horiz-adv-x="282" d="M72 635l45 256h106l-57 -256h-94z" />
<glyph unicode="&#x201a;" horiz-adv-x="282" d="M45 -129l47 256h107l-60 -256h-94z" />
<glyph unicode="&#x201c;" horiz-adv-x="495" d="M53 891h107l47 -256h-94zM289 891h106l47 -256h-94z" />
<glyph unicode="&#x201d;" horiz-adv-x="495" d="M53 635l47 256h107l-60 -256h-94zM289 635l47 256h106l-59 -256h-94z" />
<glyph unicode="&#x201e;" horiz-adv-x="495" d="M53 -129l47 256h107l-60 -256h-94zM289 -129l47 256h106l-59 -256h-94z" />
<glyph unicode="&#x2022;" horiz-adv-x="636" d="M96 444q0 96 64 161t158 65t158 -64t64 -162q0 -96 -63 -155q-66 -66 -159 -66t-158 66q-64 59 -64 155z" />
<glyph unicode="&#x2026;" horiz-adv-x="1273" d="M137 67q1 32 23 54t53 22q31 -1 53 -23t23 -54q0 -32 -23 -53q-24 -21 -54 -21t-52 22t-23 53zM561 67q1 32 23 54t53 22q31 -1 53 -23t23 -54q0 -32 -23 -53q-24 -21 -54 -21t-52 22t-23 53zM985 67q1 32 23 54t53 22q31 -1 53 -23t23 -54q0 -32 -23 -53 q-24 -21 -54 -21t-52 22t-23 53z" />
<glyph unicode="&#x202f;" horiz-adv-x="273" />
<glyph unicode="&#x2039;" horiz-adv-x="423" d="M88 305l158 197h96l-158 -197l166 -196h-96z" />
<glyph unicode="&#x203a;" horiz-adv-x="423" d="M74 109l166 196l-158 197h96l158 -197l-166 -196h-96z" />
<glyph unicode="&#x205f;" horiz-adv-x="341" />
<glyph unicode="&#x20ac;" d="M43 313v107h80v12q-2 4 -2 14v25l2 25h-80v106h109q48 125 162 207t274 82h94v-111h-82q-106 0 -190 -48t-127 -130h258v-106h-291q-4 -32 -4 -46t2 -18v-12h293v-107h-273q37 -98 120 -149t167 -51h127v-113h-127q-151 0 -265 87t-151 226h-96z" />
<glyph unicode="&#x2122;" horiz-adv-x="1261" d="M70 811v80h422v-80h-158v-444h-107v444h-157zM588 367v524h160l143 -371l143 371h158v-524h-107v413h-2l-157 -413h-72l-156 413h-2v-413h-108z" />
<glyph unicode="&#x25fc;" horiz-adv-x="610" d="M0 0v610h610v-610h-610z" />
</font>
</defs>
</svg>
