<?xml version="1.0" standalone="no"?>
<!DOCTYPE svg PUBLIC "-//W3C//DTD SVG 1.1//EN" "http://www.w3.org/Graphics/SVG/1.1/DTD/svg11.dtd" >
<svg xmlns="http://www.w3.org/2000/svg" xmlns:xlink="http://www.w3.org/1999/xlink" version="1.1">
<metadata></metadata>
<defs>
<font id="zahraarabic-regularregular" horiz-adv-x="0" >
<font-face units-per-em="1000" ascent="750" descent="-250" />
<missing-glyph horiz-adv-x="143" />
<glyph unicode="&#xfedf;&#xfe82;" horiz-adv-x="413" arabic-form="isolated" d="M103 113v330h62v-330h-62zM50 0v63h251v380h63v-443h-314zM188 484q-23 0 -49 20.5t-36 20.5q-20 0 -47 -39l-36 23q38 59 87 59q18 0 44 -22t40 -22q26 0 58 53l35 -23q-43 -70 -96 -70z" />
<glyph unicode="&#xfee0;&#xfe82;" horiz-adv-x="416" arabic-form="final" d="M103 113v330h62v-330h-62zM417 63v-63h-367v63h251v380h63v-380h53zM188 484q-23 0 -49 20.5t-36 20.5q-20 0 -47 -39l-36 23q38 59 87 59q18 0 44 -22t40 -22q26 0 58 53l35 -23q-43 -70 -96 -70z" />
<glyph unicode="&#xfedf;&#xfe84;" horiz-adv-x="413" arabic-form="isolated" d="M103 113v330h62v-330h-62zM50 0v63h251v380h63v-443h-314zM179 688q38 0 67 -29l-26 -36q-13 15 -32 20.5t-35 -4.5t-17 -37q1 -41 57 -47h52v-40h-195v40h64q-34 42 -11.5 87.5t76.5 45.5z" />
<glyph unicode="&#xfee0;&#xfe84;" horiz-adv-x="416" arabic-form="final" d="M103 113v330h62v-330h-62zM417 63v-63h-367v63h251v380h63v-380h53zM179 688q38 0 67 -29l-26 -36q-13 15 -32 20.5t-35 -4.5t-17 -37q1 -41 57 -47h52v-40h-195v40h64q-34 42 -11.5 87.5t76.5 45.5z" />
<glyph unicode="&#xfedf;&#xfe88;" horiz-adv-x="413" arabic-form="isolated" d="M179 -52q38 0 67 -29l-26 -36q-13 15 -32 20.5t-35 -4.5t-17 -37q1 -41 57 -47h52v-40h-195v40h64q-34 42 -11.5 87.5t76.5 45.5zM103 113v330h62v-330h-62zM50 0v63h251v380h63v-443h-314z" />
<glyph unicode="&#xfee0;&#xfe88;" horiz-adv-x="416" arabic-form="final" d="M179 -52q38 0 67 -29l-26 -36q-13 15 -32 20.5t-35 -4.5t-17 -37q1 -41 57 -47h52v-40h-195v40h64q-34 42 -11.5 87.5t76.5 45.5zM103 113v330h62v-330h-62zM417 63v-63h-367v63h251v380h63v-380h53z" />
<glyph unicode="&#xfedf;&#xfe8e;" horiz-adv-x="413" arabic-form="isolated" d="M165 113h-62v330h62v-330zM364 0h-314v63h251v380h63v-443z" />
<glyph unicode="&#xfee0;&#xfe8e;" horiz-adv-x="416" arabic-form="final" d="M165 113h-62v330h62v-330zM364 63h53v-63h-367v63h251v380h63v-380z" />
<glyph unicode="&#x620;" horiz-adv-x="299" d="M0 -5l10 82q59 0 92 4.5t47 23t14 58.5q0 38 -17.5 95.5t-39.5 114.5l81 30q13 -32 24.5 -73t19.5 -81t8 -70q0 -96 -51 -138q16 -12 25.5 -30.5t9.5 -40.5q0 -37 -26 -63t-63 -26t-63 26t-26 63q0 14 4 27q-23 -2 -49 -2zM134 -68q17 0 29 11t12 27q0 17 -12 28.5 t-29 11.5h-1.5t-8.5 -1q-1 -1 -2 -1q-13 -3 -21 -14t-8 -24q0 -16 12 -27t29 -11z" />
<glyph unicode="&#x620;" horiz-adv-x="373" d="M0 -5l10 82q50 0 78 7.5t42.5 29t23.5 62.5t22 107l78 -15q-6 -27 -13.5 -62t-7.5 -59q0 -15 2 -28t15 -22t44 -14.5t89 -5.5q21 0 30.5 -11.5t9.5 -27.5t-14 -29.5t-36 -13.5q-65 0 -101.5 7.5t-54 22t-25.5 36.5q-12 -17 -26 -29q15 -12 24 -30t9 -39q0 -37 -26 -63 t-63 -26t-63 26t-26 63q0 17 6 32h-27zM110 -75q17 0 29 11t12 27q0 17 -12 28.5t-29 11.5t-29 -11.5t-12 -28.5q0 -16 12 -27t29 -11z" />
<glyph unicode="&#x620;" horiz-adv-x="736" d="M30 -1q0 36 10 80t32 97l72 -28q-16 -42 -24 -77t-8 -65q0 -55 32.5 -90t86 -51t117.5 -16q77 0 140.5 18t101.5 47.5t38 65.5q0 26 -40 45t-112 39l19 83q104 -40 162 -55t89 -15q21 0 30.5 -11.5t9.5 -27.5t-14 -29.5t-36 -13.5h-37q2 -9 3 -14.5t1 -14.5 q0 -43 -34.5 -83.5t-100 -70t-157.5 -39.5q12 -21 12 -45q0 -37 -26 -63t-63 -26t-63 26t-26 63q0 24 12 45q-64 10 -115.5 38t-81.5 75t-30 113zM334 -310q17 0 29 11t12 27q0 17 -12 28.5t-29 11.5t-29 -11.5t-12 -28.5q0 -16 12 -27t29 -11z" />
<glyph unicode="&#x63b;" horiz-adv-x="412" d="M262 723q-21 0 -35.5 14.5t-14.5 34.5t14.5 35t35.5 15q20 0 34.5 -15t14.5 -35t-14.5 -34.5t-34.5 -14.5zM147 670q-21 0 -35.5 14.5t-14.5 34.5t14.5 35t35.5 15q20 0 34.5 -15t14.5 -35t-14.5 -34.5t-34.5 -14.5zM0 -5l10 82h94q59 0 93.5 6.5t51 17t22 23t5.5 25.5 q0 23 -17.5 57t-71.5 88q-37 38 -74 67t-61 49t-24 29q0 23 5.5 43t15.5 31q40 43 125.5 86.5t213.5 107.5l34 -74q-91 -44 -148.5 -72.5t-95 -50t-69.5 -43.5q117 -95 179.5 -170.5t62.5 -152.5q0 -22 -8 -48t-34 -49t-78 -37.5t-140 -14.5h-91z" />
<glyph unicode="&#x63b;" horiz-adv-x="508" d="M230 723q-21 0 -35.5 14.5t-14.5 34.5t14.5 35t35.5 15q20 0 34.5 -15t14.5 -35t-14.5 -34.5t-34.5 -14.5zM115 670q-21 0 -35.5 14.5t-14.5 34.5t14.5 35t35.5 15q20 0 34.5 -15t14.5 -35t-14.5 -34.5t-34.5 -14.5zM0 -5l10 82h77q83 0 123 9t52.5 24t12.5 31 q0 24 -18 53t-46 59.5t-59.5 60.5t-59.5 55t-46 43.5t-18 26.5q0 23 5.5 43t15.5 31q27 29 79.5 60.5t120.5 65t139 68.5l34 -74q-88 -44 -172.5 -85t-147.5 -85q55 -47 103 -91t89 -94.5t75 -114.5q21 -39 49 -57t55.5 -23.5t44.5 -5.5q21 0 30.5 -11.5t9.5 -27.5 t-14 -29.5t-36 -13.5q-24 0 -55.5 6.5t-63.5 25t-56 54.5q-20 -29 -50 -48t-78 -28.5t-122 -9.5h-83z" />
<glyph unicode="&#x63b;" horiz-adv-x="975" d="M733 723q-21 0 -35.5 14.5t-14.5 34.5t14.5 35t35.5 15q20 0 34.5 -15t14.5 -35t-14.5 -34.5t-34.5 -14.5zM618 670q-21 0 -35.5 14.5t-14.5 34.5t14.5 35t35.5 15q20 0 34.5 -15t14.5 -35t-14.5 -34.5t-34.5 -14.5zM390 -21q-178 0 -269 47t-91 156q0 37 9 78.5t19 78.5 l75 -19q-6 -22 -13.5 -55.5t-7.5 -59.5q0 -52 26.5 -83.5t92.5 -46t185 -14.5q125 0 196 13t100.5 32t29.5 35q0 24 -18 53t-46 59.5t-59.5 60.5t-59.5 55t-46 43.5t-18 26.5q0 23 5.5 43t15.5 31q27 29 79.5 60.5t120.5 65t139 68.5l34 -74q-88 -44 -172.5 -85t-147.5 -85 q55 -47 103 -91t89 -94.5t75 -114.5q21 -39 49 -57t55.5 -23.5t44.5 -5.5q21 0 30.5 -11.5t9.5 -27.5t-14 -29.5t-36 -13.5q-24 0 -56 6.5t-63.5 25t-55.5 54.5q-17 -22 -45 -41t-74.5 -32.5t-117.5 -21t-173 -7.5z" />
<glyph unicode="&#x63c;" horiz-adv-x="412" d="M260 317q65 0 110 -44.5t45 -109.5q0 -47 -26.5 -88.5t-64.5 -58t-64 -16.5h-270v63h270q36 0 62 29t26 65.5t-25.5 67t-62.5 30.5h-163v72l135 190l53 -38l-118 -162h93zM95 -189q-21 0 -35.5 14.5t-14.5 34.5t14.5 35t35.5 15q20 0 34.5 -15t14.5 -35t-14.5 -34.5 t-34.5 -14.5zM231 -189q-21 0 -35.5 14.5t-14.5 34.5t14.5 35t35.5 15q20 0 34.5 -15t14.5 -35t-14.5 -34.5t-34.5 -14.5zM163 -299q-21 0 -35.5 14.5t-14.5 34.5t14.5 35t35.5 15q20 0 34.5 -15t14.5 -35t-14.5 -34.5t-34.5 -14.5z" />
<glyph unicode="&#x63c;" horiz-adv-x="508" d="M260 317q65 0 110 -44.5t45 -109.5q0 -45 -34 -100h87v-63h-478v63h270q36 0 62 29t26 65.5t-25.5 67t-62.5 30.5h-163v72l135 190l53 -38l-118 -162h93zM95 -189q-21 0 -35.5 14.5t-14.5 34.5t14.5 35t35.5 15q20 0 34.5 -15t14.5 -35t-14.5 -34.5t-34.5 -14.5z M231 -189q-21 0 -35.5 14.5t-14.5 34.5t14.5 35t35.5 15q20 0 34.5 -15t14.5 -35t-14.5 -34.5t-34.5 -14.5zM163 -299q-21 0 -35.5 14.5t-14.5 34.5t14.5 35t35.5 15q20 0 34.5 -15t14.5 -35t-14.5 -34.5t-34.5 -14.5z" />
<glyph unicode="&#x63c;" horiz-adv-x="975" d="M390 -21q-178 0 -269 47t-91 156q0 37 9 78.5t19 78.5l75 -19q-6 -22 -13.5 -55.5t-7.5 -59.5q0 -52 26.5 -83.5t92.5 -46t185 -14.5q125 0 196 13t100.5 32t29.5 35q0 24 -18 53t-46 59.5t-59.5 60.5t-59.5 55t-46 43.5t-18 26.5q0 23 5.5 43t15.5 31q27 29 79.5 60.5 t120.5 65t139 68.5l34 -74q-88 -44 -172.5 -85t-147.5 -85q55 -47 103 -91t89 -94.5t75 -114.5q21 -39 49 -57t55.5 -23.5t44.5 -5.5q21 0 30.5 -11.5t9.5 -27.5t-14 -29.5t-36 -13.5q-24 0 -56 6.5t-63.5 25t-55.5 54.5q-17 -22 -45 -41t-74.5 -32.5t-117.5 -21t-173 -7.5z M342 -210q-21 0 -35.5 14.5t-14.5 34.5t14.5 35t35.5 15q20 0 34.5 -15t14.5 -35t-14.5 -34.5t-34.5 -14.5zM478 -210q-21 0 -35.5 14.5t-14.5 34.5t14.5 35t35.5 15q20 0 34.5 -15t14.5 -35t-14.5 -34.5t-34.5 -14.5zM410 -320q-21 0 -35.5 14.5t-14.5 34.5t14.5 35 t35.5 15q20 0 34.5 -15t14.5 -35t-14.5 -34.5t-34.5 -14.5z" />
<glyph unicode="&#x63d;" horiz-adv-x="269" d="M180 0h-190v63h128v249h62v-312zM93 726l59 6q9 -20 25 -53.5t33 -67t29 -54.5l-46 -25q-7 12 -20 36.5t-27.5 52t-24.5 49.5q-11 -26 -24 -55.5t-24 -53t-16 -31.5l-45 19q5 10 16 32.5t24 50t24 53t17 41.5zM179 -194q-21 0 -35.5 14.5t-14.5 34.5t14.5 35t35.5 15 q20 0 34.5 -15t14.5 -35t-14.5 -34.5t-34.5 -14.5zM42 -194q-21 0 -35.5 14.5t-14.5 34.5t14.5 35t35.5 15q20 0 34.5 -15t14.5 -35t-14.5 -34.5t-34.5 -14.5z" />
<glyph unicode="&#x63d;" horiz-adv-x="343" d="M180 63h64v-63h-254v63h128v249h62v-249zM152 605l59 6q9 -20 25 -53.5t33 -67t29 -54.5l-46 -25q-7 12 -20 36.5t-27.5 52t-24.5 49.5q-11 -26 -24 -55.5t-24 -53t-16 -31.5l-45 19q5 10 16 32.5t24 50t24 53t17 41.5zM242 -194q-21 0 -35.5 14.5t-14.5 34.5t14.5 35 t35.5 15q20 0 34.5 -15t14.5 -35t-14.5 -34.5t-34.5 -14.5zM105 -194q-21 0 -35.5 14.5t-14.5 34.5t14.5 35t35.5 15q20 0 34.5 -15t14.5 -35t-14.5 -34.5t-34.5 -14.5z" />
<glyph unicode="&#x63d;" horiz-adv-x="736" d="M112 156q0 -35 27.5 -64t64.5 -29h190v128q0 48 36 84.5t84 36.5h102v-249h64v-63h-126v250h-40q-21 0 -39.5 -18t-18.5 -41v-191h-252q-66 0 -110 46.5t-44 111.5t38.5 108t100.5 48v-62q-32 -6 -54.5 -33.5t-22.5 -62.5zM182 472l59 6q9 -20 25 -53.5t33 -67t29 -54.5 l-46 -25q-7 12 -20 36.5t-27.5 52t-24.5 49.5q-11 -26 -24 -55.5t-24 -53t-16 -31.5l-45 19q5 10 16 32.5t24 50t24 53t17 41.5z" />
<glyph unicode="&#x63e;" horiz-adv-x="299" d="M218 507q-21 0 -35.5 14.5t-14.5 34.5t14.5 35t35.5 15q20 0 34.5 -15t14.5 -35t-14.5 -34.5t-34.5 -14.5zM81 507q-21 0 -35.5 14.5t-14.5 34.5t14.5 35t35.5 15q20 0 34.5 -15t14.5 -35t-14.5 -34.5t-34.5 -14.5zM0 -5l10 82q59 0 92 4.5t47 23t14 58.5 q0 38 -17.5 95.5t-39.5 114.5l81 30q13 -32 24.5 -73t19.5 -81t8 -70q0 -100 -56 -142t-183 -42zM185 -194q-21 0 -35.5 14.5t-14.5 34.5t14.5 35t35.5 15q20 0 34.5 -15t14.5 -35t-14.5 -34.5t-34.5 -14.5zM48 -194q-21 0 -35.5 14.5t-14.5 34.5t14.5 35t35.5 15 q20 0 34.5 -15t14.5 -35t-14.5 -34.5t-34.5 -14.5z" />
<glyph unicode="&#x63e;" horiz-adv-x="373" d="M267 386q-21 0 -35.5 14.5t-14.5 34.5t14.5 35t35.5 15q20 0 34.5 -15t14.5 -35t-14.5 -34.5t-34.5 -14.5zM130 386q-21 0 -35.5 14.5t-14.5 34.5t14.5 35t35.5 15q20 0 34.5 -15t14.5 -35t-14.5 -34.5t-34.5 -14.5zM0 -5l10 82q50 0 78 7.5t42.5 29t23.5 62.5t22 107 l78 -15q-6 -27 -13.5 -62t-7.5 -59q0 -15 2 -28t15 -22t44 -14.5t89 -5.5q21 0 30.5 -11.5t9.5 -27.5t-14 -29.5t-36 -13.5q-65 0 -101.5 7.5t-54 22t-25.5 36.5q-29 -41 -71.5 -53.5t-120.5 -12.5zM252 -194q-21 0 -35.5 14.5t-14.5 34.5t14.5 35t35.5 15q20 0 34.5 -15 t14.5 -35t-14.5 -34.5t-34.5 -14.5zM115 -194q-21 0 -35.5 14.5t-14.5 34.5t14.5 35t35.5 15q20 0 34.5 -15t14.5 -35t-14.5 -34.5t-34.5 -14.5z" />
<glyph unicode="&#x63e;" horiz-adv-x="736" d="M112 156q0 -35 27.5 -64t64.5 -29h190v128q0 48 36 84.5t84 36.5h102v-249h64v-63h-126v250h-40q-21 0 -39.5 -18t-18.5 -41v-191h-252q-66 0 -110 46.5t-44 111.5t38.5 108t100.5 48v-62q-32 -6 -54.5 -33.5t-22.5 -62.5zM287 253q-21 0 -35.5 14.5t-14.5 34.5t14.5 35 t35.5 15q20 0 34.5 -15t14.5 -35t-14.5 -34.5t-34.5 -14.5zM150 253q-21 0 -35.5 14.5t-14.5 34.5t14.5 35t35.5 15q20 0 34.5 -15t14.5 -35t-14.5 -34.5t-34.5 -14.5z" />
<glyph unicode="&#x63f;" horiz-adv-x="299" d="M150 617q-21 0 -35.5 14.5t-14.5 34.5t14.5 35t35.5 15q20 0 34.5 -15t14.5 -35t-14.5 -34.5t-34.5 -14.5zM82 507q-21 0 -35.5 14.5t-14.5 34.5t14.5 35t35.5 15q20 0 34.5 -15t14.5 -35t-14.5 -34.5t-34.5 -14.5zM218 507q-21 0 -35.5 14.5t-14.5 34.5t14.5 35t35.5 15 q20 0 34.5 -15t14.5 -35t-14.5 -34.5t-34.5 -14.5zM0 -5l10 82q59 0 92 4.5t47 23t14 58.5q0 38 -17.5 95.5t-39.5 114.5l81 30q13 -32 24.5 -73t19.5 -81t8 -70q0 -100 -56 -142t-183 -42zM185 -194q-21 0 -35.5 14.5t-14.5 34.5t14.5 35t35.5 15q20 0 34.5 -15t14.5 -35 t-14.5 -34.5t-34.5 -14.5zM48 -194q-21 0 -35.5 14.5t-14.5 34.5t14.5 35t35.5 15q20 0 34.5 -15t14.5 -35t-14.5 -34.5t-34.5 -14.5z" />
<glyph unicode="&#x63f;" horiz-adv-x="373" d="M199 496q-21 0 -35.5 14.5t-14.5 34.5t14.5 35t35.5 15q20 0 34.5 -15t14.5 -35t-14.5 -34.5t-34.5 -14.5zM131 386q-21 0 -35.5 14.5t-14.5 34.5t14.5 35t35.5 15q20 0 34.5 -15t14.5 -35t-14.5 -34.5t-34.5 -14.5zM267 386q-21 0 -35.5 14.5t-14.5 34.5t14.5 35 t35.5 15q20 0 34.5 -15t14.5 -35t-14.5 -34.5t-34.5 -14.5zM0 -5l10 82q50 0 78 7.5t42.5 29t23.5 62.5t22 107l78 -15q-6 -27 -13.5 -62t-7.5 -59q0 -15 2 -28t15 -22t44 -14.5t89 -5.5q21 0 30.5 -11.5t9.5 -27.5t-14 -29.5t-36 -13.5q-65 0 -101.5 7.5t-54 22t-25.5 36.5 q-29 -41 -71.5 -53.5t-120.5 -12.5zM252 -194q-21 0 -35.5 14.5t-14.5 34.5t14.5 35t35.5 15q20 0 34.5 -15t14.5 -35t-14.5 -34.5t-34.5 -14.5zM115 -194q-21 0 -35.5 14.5t-14.5 34.5t14.5 35t35.5 15q20 0 34.5 -15t14.5 -35t-14.5 -34.5t-34.5 -14.5z" />
<glyph unicode="&#x63f;" horiz-adv-x="736" d="M112 156q0 -35 27.5 -64t64.5 -29h190v128q0 48 36 84.5t84 36.5h102v-249h64v-63h-126v250h-40q-21 0 -39.5 -18t-18.5 -41v-191h-252q-66 0 -110 46.5t-44 111.5t38.5 108t100.5 48v-62q-32 -6 -54.5 -33.5t-22.5 -62.5zM219 363q-21 0 -35.5 14.5t-14.5 34.5t14.5 35 t35.5 15q20 0 34.5 -15t14.5 -35t-14.5 -34.5t-34.5 -14.5zM151 253q-21 0 -35.5 14.5t-14.5 34.5t14.5 35t35.5 15q20 0 34.5 -15t14.5 -35t-14.5 -34.5t-34.5 -14.5zM287 253q-21 0 -35.5 14.5t-14.5 34.5t14.5 35t35.5 15q20 0 34.5 -15t14.5 -35t-14.5 -34.5 t-34.5 -14.5z" />
<glyph unicode="&#x66e;" horiz-adv-x="269" d="M0 -5l10 82q49 0 78 6t42 24.5t13 55.5q0 38 -17.5 95.5t-39.5 114.5l81 30q13 -32 24.5 -73t19.5 -81t8 -70q0 -100 -53.5 -142t-165.5 -42z" />
<glyph unicode="&#x66e;" horiz-adv-x="343" d="M0 -5l10 82q42 0 66 7.5t36.5 29t21.5 62.5t22 107l78 -15q-6 -27 -13.5 -62t-7.5 -59q0 -20 9 -36t39 -25t92 -9q21 0 30.5 -11.5t9.5 -27.5t-14 -29.5t-36 -13.5q-79 0 -117 17t-52 51q-30 -42 -69 -55t-105 -13z" />
<glyph unicode="&#x66e;" horiz-adv-x="1093" d="M390 -21q-178 0 -269 47t-91 156q0 37 9 78.5t19 78.5l75 -19q-6 -22 -13.5 -55.5t-7.5 -59.5q0 -52 26.5 -83.5t92.5 -46t185 -14.5q61 0 129 7.5t135.5 27t128.5 53.5t107 86l63 -37q-9 -23 -12 -36.5t-3 -24.5q0 -15 11 -28.5t41.5 -22.5t86.5 -9q21 0 30.5 -11.5 t9.5 -27.5t-14 -29.5t-36 -13.5q-88 0 -144.5 26t-57.5 85q-83 -64 -215 -95.5t-286 -31.5z" />
<glyph unicode="&#x66f;" horiz-adv-x="447" d="M0 -5l10 82q33 0 75.5 0.5t82.5 4t63 11.5q32 11 51.5 28.5t29.5 45.5q-18 -6 -38.5 -8.5t-40.5 -2.5q-76 0 -117.5 36t-41.5 91q0 38 12 76.5t34 70.5t53 51.5t69 19.5q54 0 89.5 -35t53 -91.5t17.5 -119.5q0 -75 -25.5 -128.5t-84.5 -88.5q-31 -18 -77.5 -27.5 t-101.5 -12.5t-113 -3zM153 303q0 -31 20 -49.5t69 -18.5q43 0 82 12v14q0 42 -11 78t-31 58t-48 22q-23 0 -41.5 -17.5t-29 -44.5t-10.5 -54z" />
<glyph unicode="&#x66f;" horiz-adv-x="495" d="M0 -5l10 82q34 0 70.5 1t70.5 5q-24 22 -47 57t-23 85q0 54 25 97t65 68t85 25q49 0 86 -27t57.5 -68.5t20.5 -86.5q0 -47 -19 -84t-51 -65q40 -3 82 -5t73 -2q21 0 30.5 -11.5t9.5 -27.5t-14 -29.5t-36 -13.5q-61 0 -127 9.5t-116 23.5q-16 -6 -33 -11 q-46 -13 -105 -17.5t-114 -4.5zM163 223q0 -39 24 -68.5t54 -47.5q41 18 69 48t28 72q0 23 -11 47.5t-30 41.5t-44 17q-24 0 -44.5 -16t-33 -41.5t-12.5 -52.5z" />
<glyph unicode="&#x66f;" horiz-adv-x="808" d="M326 -272q-79 0 -146.5 24.5t-108.5 76.5t-41 136q0 23 9 73.5t48 121.5l73 -34q-23 -47 -33.5 -81t-10.5 -65q0 -62 31.5 -99t84 -53t116.5 -16q116 0 189.5 41.5t93.5 102.5q6 17 10 39h-72q-45 0 -83 12.5t-61 40.5t-25 73q-1 37 11.5 74t35.5 68t54 49.5t67 18.5 q67 0 114 -61t50 -193h86q21 0 30.5 -11.5t9.5 -27.5t-14 -29.5t-36 -13.5h-85q-5 -23 -13 -48t-19 -48q-32 -62 -86.5 -100t-125.5 -54.5t-153 -16.5zM607 77h43q0 83 -26 128t-64 45q-21 0 -39 -16.5t-29.5 -42.5t-11.5 -55q0 -35 31.5 -47t95.5 -12z" />
<glyph unicode="&#x672;" horiz-adv-x="289" d="M-37 721l-41 24q12 28 33 40.5t39 12.5q26 0 43 -11t35 -11h6h6q-20 13 -36 34.5t-16 48.5q0 45 31.5 68t71.5 23q23 0 47 -8l-8 -50q-10 2 -19 4t-20 2q-49 0 -49 -36q0 -20 12 -34.5t28.5 -23t28.5 -10.5q16 6 29.5 11.5t26.5 10.5l16 -48q-10 -5 -38 -16.5 t-60.5 -20.5t-57.5 -9q-26 0 -44.5 11t-32.5 11q-11 0 -17 -6t-14 -17zM289 -5q-80 0 -122 18t-58 56t-19 98l-18 477h82l18 -445q2 -49 9.5 -75.5t34 -36.5t83.5 -10q21 0 30.5 -11.5t9.5 -27.5t-14 -29.5t-36 -13.5z" />
<glyph unicode="&#x673;" horiz-adv-x="291" d="M112 63h63v-63h-125v443h62v-380zM-18 -296l-41 24q12 28 33 40.5t39 12.5q26 0 43 -11t35 -11h6h6q-20 13 -36 34.5t-16 48.5q0 45 31.5 68t71.5 23q23 0 47 -8l-8 -50q-10 2 -19 4t-20 2q-49 0 -49 -36q0 -20 12 -34.5t28.5 -23t28.5 -10.5q16 6 29.5 11.5t26.5 10.5 l16 -48q-10 -5 -38 -16.5t-60.5 -20.5t-57.5 -9q-26 0 -44.5 11t-32.5 11q-11 0 -17 -6t-14 -17z" />
<glyph unicode="&#x675;" horiz-adv-x="411" d="M218 578l-12 54q15 3 26 6t21 5q-19 13 -33 34t-14 46q0 45 31.5 68t71.5 23q23 0 47 -8l-8 -50q-10 2 -19 4t-20 2q-49 0 -49 -36q0 -26 19.5 -43t38.5 -22q38 11 67 22l16 -51q-24 -9 -56.5 -19t-65.5 -19t-61 -16zM411 -5h-122q-79 0 -121 18t-58 56.5t-18 97.5 l-20 547h82l20 -515q2 -48 9.5 -74.5t33 -37t81.5 -10.5h123q21 0 30.5 -11.5t9.5 -27.5t-14 -29.5t-36 -13.5z" />
<glyph unicode="&#x676;" horiz-adv-x="472" d="M218 255q-45 0 -72 -28.5t-27 -69.5q0 -98 128 -98q20 0 54 4q11 24 11 68t-24.5 84t-69.5 40zM242 0q-90 0 -141 43t-51 113t41.5 116t125.5 46t123.5 -52.5t39.5 -126.5q0 -37 -11 -76h58v-63h-73q-32 -79 -106 -166l-53 43q58 60 90 125q-15 -2 -43 -2zM298 387 l-12 54q15 3 26 6t21 5q-19 13 -33 34t-14 46q0 45 31.5 68t71.5 23q23 0 47 -8l-8 -50q-10 2 -19 4t-20 2q-49 0 -49 -36q0 -26 19.5 -43t38.5 -22q38 11 67 22l16 -51q-24 -9 -56.5 -19t-65.5 -19t-61 -16z" />
<glyph unicode="&#x677;" horiz-adv-x="531" d="M277 255q-45 0 -72 -28.5t-27 -69.5q0 -98 128 -98q20 0 54 4q11 24 11 68t-24.5 84t-69.5 40zM301 0q-90 0 -141 43t-51 113t41.5 116t125.5 46t123.5 -52.5t39.5 -126.5q0 -37 -11 -76h58v-63h-73q-32 -79 -106 -166l-53 43q58 60 90 125q-15 -2 -43 -2zM368 387 l-12 54q15 3 26 6t21 5q-19 13 -33 34t-14 46q0 45 31.5 68t71.5 23q23 0 47 -8l-8 -50q-10 2 -19 4t-20 2q-49 0 -49 -36q0 -26 19.5 -43t38.5 -22q38 11 67 22l16 -51q-24 -9 -56.5 -19t-65.5 -19t-61 -16zM22.5 -25q-17.5 0 -31 -13t-13.5 -31t13 -31t31 -13t31 13t13 31 t-13 31t-30.5 13zM-53 -71q0 32 22 54t54 22t54 -22.5t22 -50.5t-14 -47t-37 -27v-1l-103 -51l-16 29l57 28q-39 21 -39 66z" />
<glyph unicode="&#x678;" horiz-adv-x="350" d="M180 0h-190v63h128v249h62v-312zM167 578l-12 54q15 3 26 6t21 5q-19 13 -33 34t-14 46q0 45 31.5 68t71.5 23q23 0 47 -8l-8 -50q-10 2 -19 4t-20 2q-49 0 -49 -36q0 -26 19.5 -43t38.5 -22q38 11 67 22l16 -51q-24 -9 -56.5 -19t-65.5 -19t-61 -16z" />
<glyph unicode="&#x678;" horiz-adv-x="343" d="M180 63h64v-63h-254v63h128v249h62v-249zM163 409l-12 54q15 3 26 6t21 5q-19 13 -33 34t-14 46q0 45 31.5 68t71.5 23q23 0 47 -8l-8 -50q-10 2 -19 4t-20 2q-49 0 -49 -36q0 -26 19.5 -43t38.5 -22q38 11 67 22l16 -51q-24 -9 -56.5 -19t-65.5 -19t-61 -16z" />
<glyph unicode="&#x678;" horiz-adv-x="736" d="M112 156q0 -35 27.5 -64t64.5 -29h190v128q0 48 36 84.5t84 36.5h102v-249h64v-63h-126v250h-40q-21 0 -39.5 -18t-18.5 -41v-191h-252q-66 0 -110 46.5t-44 111.5t38.5 108t100.5 48v-62q-32 -6 -54.5 -33.5t-22.5 -62.5zM500 205l-12 54q15 3 26 6t21 5q-19 13 -33 34 t-14 46q0 45 31.5 68t71.5 23q23 0 47 -8l-8 -50q-10 2 -19 4t-20 2q-49 0 -49 -36q0 -26 19.5 -43t38.5 -22q38 11 67 22l16 -51q-24 -9 -56.5 -19t-65.5 -19t-61 -16z" />
<glyph unicode="&#x67c;" horiz-adv-x="299" d="M218 507q-21 0 -35.5 14.5t-14.5 34.5t14.5 35t35.5 15q20 0 34.5 -15t14.5 -35t-14.5 -34.5t-34.5 -14.5zM81 507q-21 0 -35.5 14.5t-14.5 34.5t14.5 35t35.5 15q20 0 34.5 -15t14.5 -35t-14.5 -34.5t-34.5 -14.5zM0 -5l10 82q59 0 92 4.5t47 23t14 58.5 q0 38 -17.5 95.5t-39.5 114.5l81 30q13 -32 24.5 -73t19.5 -81t8 -70q0 -97 -52 -139q16 -12 26 -31t10 -41q0 -37 -26 -63t-63 -26t-63 26t-26 63q0 15 5 29q-23 -2 -50 -2zM134 -70q17 0 29 11t12 27q0 17 -12 28.5t-29 11.5t-29 -11.5t-12 -28.5q0 -16 12 -27t29 -11z " />
<glyph unicode="&#x67c;" horiz-adv-x="343" d="M257 386q-21 0 -35.5 14.5t-14.5 34.5t14.5 35t35.5 15q20 0 34.5 -15t14.5 -35t-14.5 -34.5t-34.5 -14.5zM120 386q-21 0 -35.5 14.5t-14.5 34.5t14.5 35t35.5 15q20 0 34.5 -15t14.5 -35t-14.5 -34.5t-34.5 -14.5zM0 -5l10 82q42 0 66 7.5t36.5 29t21.5 62.5t22 107 l78 -15q-6 -27 -13.5 -62t-7.5 -59q0 -20 9 -36t39 -25t92 -9q21 0 30.5 -11.5t9.5 -27.5t-14 -29.5t-36 -13.5q-79 0 -117 17t-52 51q-9 -13 -19 -23q18 -12 29 -31.5t11 -42.5q0 -37 -26 -63t-63 -26t-63 26t-26 63q0 15 5 29h-22zM106 -72q17 0 29 11t12 27 q0 17 -12 28.5t-29 11.5t-29 -11.5t-12 -28.5q0 -16 12 -27t29 -11z" />
<glyph unicode="&#x67c;" horiz-adv-x="1093" d="M558 401q-21 0 -35.5 14.5t-14.5 34.5t14.5 35t35.5 15q20 0 34.5 -15t14.5 -35t-14.5 -34.5t-34.5 -14.5zM421 401q-21 0 -35.5 14.5t-14.5 34.5t14.5 35t35.5 15q20 0 34.5 -15t14.5 -35t-14.5 -34.5t-34.5 -14.5zM390 -21q-178 0 -269 47t-91 156q0 37 9 78.5t19 78.5 l75 -19q-6 -22 -13.5 -55.5t-7.5 -59.5q0 -52 26.5 -83.5t92.5 -46t185 -14.5q61 0 129 7.5t135.5 27t128.5 53.5t107 86l63 -37q-9 -23 -12 -36.5t-3 -24.5q0 -15 11 -28.5t41.5 -22.5t86.5 -9q21 0 30.5 -11.5t9.5 -27.5t-14 -29.5t-36 -13.5q-88 0 -144.5 26t-57.5 85 q-54 -42 -130.5 -70t-167.5 -42q16 -23 16 -51q0 -37 -26 -63t-63 -26t-63 26t-26 63q0 19 8 37q-24 -1 -49 -1zM520 -95q17 0 29 11t12 27q0 17 -12 28.5t-29 11.5t-29 -11.5t-12 -28.5q0 -16 12 -27t29 -11z" />
<glyph unicode="&#x67d;" horiz-adv-x="299" d="M82 617q-21 0 -35.5 14.5t-14.5 34.5t14.5 35t35.5 15q20 0 34.5 -15t14.5 -35t-14.5 -34.5t-34.5 -14.5zM218 617q-21 0 -35.5 14.5t-14.5 34.5t14.5 35t35.5 15q20 0 34.5 -15t14.5 -35t-14.5 -34.5t-34.5 -14.5zM150 507q-21 0 -35.5 14.5t-14.5 34.5t14.5 35t35.5 15 q20 0 34.5 -15t14.5 -35t-14.5 -34.5t-34.5 -14.5zM0 -5l10 82q59 0 92 4.5t47 23t14 58.5q0 38 -17.5 95.5t-39.5 114.5l81 30q13 -32 24.5 -73t19.5 -81t8 -70q0 -100 -56 -142t-183 -42z" />
<glyph unicode="&#x67d;" horiz-adv-x="373" d="M131 496q-21 0 -35.5 14.5t-14.5 34.5t14.5 35t35.5 15q20 0 34.5 -15t14.5 -35t-14.5 -34.5t-34.5 -14.5zM267 496q-21 0 -35.5 14.5t-14.5 34.5t14.5 35t35.5 15q20 0 34.5 -15t14.5 -35t-14.5 -34.5t-34.5 -14.5zM199 386q-21 0 -35.5 14.5t-14.5 34.5t14.5 35 t35.5 15q20 0 34.5 -15t14.5 -35t-14.5 -34.5t-34.5 -14.5zM0 -5l10 82q50 0 78 7.5t42.5 29t23.5 62.5t22 107l78 -15q-6 -27 -13.5 -62t-7.5 -59q0 -15 2 -28t15 -22t44 -14.5t89 -5.5q21 0 30.5 -11.5t9.5 -27.5t-14 -29.5t-36 -13.5q-65 0 -101.5 7.5t-54 22t-25.5 36.5 q-29 -41 -71.5 -53.5t-120.5 -12.5z" />
<glyph unicode="&#x67d;" horiz-adv-x="1093" d="M390 -21q-178 0 -269 47t-91 156q0 37 9 78.5t19 78.5l75 -19q-6 -22 -13.5 -55.5t-7.5 -59.5q0 -52 26.5 -83.5t92.5 -46t185 -14.5q61 0 129 7.5t135.5 27t128.5 53.5t107 86l63 -37q-9 -23 -12 -36.5t-3 -24.5q0 -15 11 -28.5t41.5 -22.5t86.5 -9q21 0 30.5 -11.5 t9.5 -27.5t-14 -29.5t-36 -13.5q-88 0 -144.5 26t-57.5 85q-83 -64 -215 -95.5t-286 -31.5zM422 511q-21 0 -35.5 14.5t-14.5 34.5t14.5 35t35.5 15q20 0 34.5 -15t14.5 -35t-14.5 -34.5t-34.5 -14.5zM558 511q-21 0 -35.5 14.5t-14.5 34.5t14.5 35t35.5 15q20 0 34.5 -15 t14.5 -35t-14.5 -34.5t-34.5 -14.5zM490 401q-21 0 -35.5 14.5t-14.5 34.5t14.5 35t35.5 15q20 0 34.5 -15t14.5 -35t-14.5 -34.5t-34.5 -14.5z" />
<glyph unicode="&#x681;" horiz-adv-x="589" d="M251 334q81 0 152 -71t82 -186q3 -41 3 -77h-498v63h435q-10 102 -63.5 155.5t-112.5 53.5t-108 -33l-38 50q67 45 148 45zM76 462l-12 54q15 3 26 6t21 5q-19 13 -33 34t-14 46q0 45 31.5 68t71.5 23q23 0 47 -8l-8 -50q-10 2 -19 4t-20 2q-49 0 -49 -36q0 -26 19.5 -43 t38.5 -22q38 11 67 22l16 -51q-24 -9 -56.5 -19t-65.5 -19t-61 -16z" />
<glyph unicode="&#x681;" horiz-adv-x="637" d="M243 334q90 0 157 -67q78 -81 86 -204h52v-63h-548v63h435q-10 102 -63.5 155.5t-112.5 53.5t-108 -33l-38 50q67 45 140 45zM66 462l-12 54q15 3 26 6t21 5q-19 13 -33 34t-14 46q0 45 31.5 68t71.5 23q23 0 47 -8l-8 -50q-10 2 -19 4t-20 2q-49 0 -49 -36 q0 -26 19.5 -43t38.5 -22q38 11 67 22l16 -51q-24 -9 -56.5 -19t-65.5 -19t-61 -16z" />
<glyph unicode="&#x681;" horiz-adv-x="649" d="M260 334q90 0 156 -67q82 -82 85 -204h53v-63h-315q-124 0 -124 -91q0 -42 22 -69h-75q-12 36 -12 73q0 78 45 113q46 37 126 37h215q0 91 -64 160q-49 49 -107.5 49t-108.5 -33l-36 50q66 45 140 45zM221 526l-12 54q15 3 26 6t21 5q-19 13 -33 34t-14 46q0 45 31.5 68 t71.5 23q23 0 47 -8l-8 -50q-10 2 -19 4t-20 2q-49 0 -49 -36q0 -26 19.5 -43t38.5 -22q38 11 67 22l16 -51q-24 -9 -56.5 -19t-65.5 -19t-61 -16z" />
<glyph unicode="&#x682;" horiz-adv-x="589" d="M251 334q81 0 152 -71t82 -186q3 -41 3 -77h-498v63h435q-10 102 -63.5 155.5t-112.5 53.5t-108 -33l-38 50q67 45 148 45zM166 584q-21 0 -35.5 14.5t-14.5 34.5t14.5 35t35.5 15q20 0 34.5 -15t14.5 -35t-14.5 -34.5t-34.5 -14.5zM167 455q-21 0 -35.5 14.5t-14.5 34.5 t14.5 35t35.5 15q20 0 34.5 -15t14.5 -35t-14.5 -34.5t-34.5 -14.5z" />
<glyph unicode="&#x682;" horiz-adv-x="637" d="M243 334q90 0 157 -67q78 -81 86 -204h52v-63h-548v63h435q-10 102 -63.5 155.5t-112.5 53.5t-108 -33l-38 50q67 45 140 45zM156 584q-21 0 -35.5 14.5t-14.5 34.5t14.5 35t35.5 15q20 0 34.5 -15t14.5 -35t-14.5 -34.5t-34.5 -14.5zM157 455q-21 0 -35.5 14.5 t-14.5 34.5t14.5 35t35.5 15q20 0 34.5 -15t14.5 -35t-14.5 -34.5t-34.5 -14.5z" />
<glyph unicode="&#x682;" horiz-adv-x="649" d="M260 334q90 0 156 -67q82 -82 85 -204h53v-63h-315q-124 0 -124 -91q0 -42 22 -69h-75q-12 36 -12 73q0 78 45 113q46 37 126 37h215q0 91 -64 160q-49 49 -107.5 49t-108.5 -33l-36 50q66 45 140 45zM311 648q-21 0 -35.5 14.5t-14.5 34.5t14.5 35t35.5 15 q20 0 34.5 -15t14.5 -35t-14.5 -34.5t-34.5 -14.5zM312 519q-21 0 -35.5 14.5t-14.5 34.5t14.5 35t35.5 15q20 0 34.5 -15t14.5 -35t-14.5 -34.5t-34.5 -14.5z" />
<glyph unicode="&#x685;" horiz-adv-x="589" d="M251 334q81 0 152 -71t82 -186q3 -41 3 -77h-498v63h435q-10 102 -63.5 155.5t-112.5 53.5t-108 -33l-38 50q67 45 148 45zM169 565q-21 0 -35.5 14.5t-14.5 34.5t14.5 35t35.5 15q20 0 34.5 -15t14.5 -35t-14.5 -34.5t-34.5 -14.5zM101 455q-21 0 -35.5 14.5t-14.5 34.5 t14.5 35t35.5 15q20 0 34.5 -15t14.5 -35t-14.5 -34.5t-34.5 -14.5zM237 455q-21 0 -35.5 14.5t-14.5 34.5t14.5 35t35.5 15q20 0 34.5 -15t14.5 -35t-14.5 -34.5t-34.5 -14.5z" />
<glyph unicode="&#x685;" horiz-adv-x="637" d="M243 334q90 0 157 -67q78 -81 86 -204h52v-63h-548v63h435q-10 102 -63.5 155.5t-112.5 53.5t-108 -33l-38 50q67 45 140 45zM159 565q-21 0 -35.5 14.5t-14.5 34.5t14.5 35t35.5 15q20 0 34.5 -15t14.5 -35t-14.5 -34.5t-34.5 -14.5zM91 455q-21 0 -35.5 14.5 t-14.5 34.5t14.5 35t35.5 15q20 0 34.5 -15t14.5 -35t-14.5 -34.5t-34.5 -14.5zM227 455q-21 0 -35.5 14.5t-14.5 34.5t14.5 35t35.5 15q20 0 34.5 -15t14.5 -35t-14.5 -34.5t-34.5 -14.5z" />
<glyph unicode="&#x685;" horiz-adv-x="649" d="M260 334q90 0 156 -67q82 -82 85 -204h53v-63h-315q-124 0 -124 -91q0 -42 22 -69h-75q-12 36 -12 73q0 78 45 113q46 37 126 37h215q0 91 -64 160q-49 49 -107.5 49t-108.5 -33l-36 50q66 45 140 45zM314 629q-21 0 -35.5 14.5t-14.5 34.5t14.5 35t35.5 15 q20 0 34.5 -15t14.5 -35t-14.5 -34.5t-34.5 -14.5zM246 519q-21 0 -35.5 14.5t-14.5 34.5t14.5 35t35.5 15q20 0 34.5 -15t14.5 -35t-14.5 -34.5t-34.5 -14.5zM382 519q-21 0 -35.5 14.5t-14.5 34.5t14.5 35t35.5 15q20 0 34.5 -15t14.5 -35t-14.5 -34.5t-34.5 -14.5z" />
<glyph unicode="&#x689;" horiz-adv-x="532" d="M215 77q74 0 105 22.5t31 62.5q0 26 -18 67t-47.5 91.5t-65.5 103.5l69 45q58 -89 94.5 -162.5t54.5 -132.5q14 -44 31.5 -65t36.5 -26.5t35 -5.5q21 0 31 -11.5t10 -27.5t-14 -29.5t-36 -13.5q-39 0 -75 17t-58 58q-14 -24 -40.5 -42t-68.5 -27q13 -22 13 -47 q0 -37 -26 -63t-63 -26t-63 26t-26 63q0 26 13 47q-63 13 -103 44l40 69q20 -13 56 -25t84 -12zM214 -84q17 0 29 11t12 27q0 17 -12 28.5t-29 11.5t-29 -11.5t-12 -28.5q0 -16 12 -27t29 -11z" />
<glyph unicode="&#x68a;" horiz-adv-x="532" d="M438 63v-63h-388v63h272q-3 97 -52 145.5t-121 48.5q-37 0 -76 -11v60q45 15 88 15q89 0 150.5 -64.5t74.5 -193.5h52zM234 -191q-21 0 -35.5 14.5t-14.5 34.5t14.5 35t35.5 15q20 0 34.5 -15t14.5 -35t-14.5 -34.5t-34.5 -14.5z" />
<glyph unicode="&#x68b;" horiz-adv-x="532" d="M438 63v-63h-388v63h272q-3 97 -52 145.5t-121 48.5q-37 0 -76 -11v60q45 15 88 15q89 0 150.5 -64.5t74.5 -193.5h52zM224 588q-18 0 -42.5 1.5t-46.5 3.5l-33 3l2 58q6 -1 13 -1.5t15 -1.5q10 18 22 34l-5 162h55l5 -106q18 13 37.5 20.5t39.5 7.5q38 0 60 -23t22 -57 q0 -20 -11.5 -43.5t-42.5 -40.5t-90 -17zM278 710q-18 0 -35 -11t-31.5 -26t-22.5 -26q16 -1 28 -1q49 0 71 10.5t22 27.5q0 14 -9 20t-23 6zM234 -191q-21 0 -35.5 14.5t-14.5 34.5t14.5 35t35.5 15q20 0 34.5 -15t14.5 -35t-14.5 -34.5t-34.5 -14.5z" />
<glyph unicode="&#x68f;" horiz-adv-x="532" d="M438 63v-63h-388v63h272q-3 97 -52 145.5t-121 48.5q-37 0 -76 -11v60q45 15 88 15q89 0 150.5 -64.5t74.5 -193.5h52zM155 670q-21 0 -35.5 14.5t-14.5 34.5t14.5 35t35.5 15q20 0 34.5 -15t14.5 -35t-14.5 -34.5t-34.5 -14.5zM291 670q-21 0 -35.5 14.5t-14.5 34.5 t14.5 35t35.5 15q20 0 34.5 -15t14.5 -35t-14.5 -34.5t-34.5 -14.5zM223 560q-21 0 -35.5 14.5t-14.5 34.5t14.5 35t35.5 15q20 0 34.5 -15t14.5 -35t-14.5 -34.5t-34.5 -14.5z" />
<glyph unicode="&#x690;" horiz-adv-x="532" d="M438 63v-63h-388v63h272q-3 97 -52 145.5t-121 48.5q-37 0 -76 -11v60q45 15 88 15q89 0 150.5 -64.5t74.5 -193.5h52zM155 685q-21 0 -35.5 14.5t-14.5 34.5t14.5 35t35.5 15q20 0 34.5 -15t14.5 -35t-14.5 -34.5t-34.5 -14.5zM291 685q-21 0 -35.5 14.5t-14.5 34.5 t14.5 35t35.5 15q20 0 34.5 -15t14.5 -35t-14.5 -34.5t-34.5 -14.5zM155 560q-21 0 -35.5 14.5t-14.5 34.5t14.5 35t35.5 15q20 0 34.5 -15t14.5 -35t-14.5 -34.5t-34.5 -14.5zM291 560q-21 0 -35.5 14.5t-14.5 34.5t14.5 35t35.5 15q20 0 34.5 -15t14.5 -35t-14.5 -34.5 t-34.5 -14.5z" />
<glyph unicode="&#x692;" horiz-adv-x="396" d="M226 63v-63h-71q-37 -99 -101 -166l-54 41q86 104 104.5 217.5t-30.5 219.5h73q48 -127 23 -249h56zM134 485q-9 20 -25 53.5t-32.5 67t-29.5 54.5l46 25q7 -12 20 -36.5t27.5 -52t24.5 -49.5q11 26 24 55.5t24 53t16 31.5l45 -19q-5 -10 -16 -32.5t-23.5 -50t-24 -53 t-17.5 -41.5z" />
<glyph unicode="&#x693;" horiz-adv-x="396" d="M4 -232l-29 76q97 32 151.5 76t77 92.5t22.5 94.5q0 49 -21.5 99.5t-47.5 95.5l73 37q28 -53 47.5 -102t30.5 -86q14 -43 36.5 -58.5t61.5 -15.5q21 0 30.5 -11.5t9.5 -27.5t-14 -29.5t-36 -13.5q-38 0 -63.5 12t-41.5 32q-4 -24 -13 -46t-21 -42q31 -6 52 -30.5 t21 -57.5q0 -37 -26 -63t-63 -26q-32 0 -55.5 19.5t-30.5 48.5q-39 -28 -78.5 -47t-72.5 -27zM241 -175q17 0 29 11t12 27q0 17 -12 28.5t-29 11.5t-29 -11.5t-12 -28.5q0 -16 12 -27t29 -11z" />
<glyph unicode="&#x694;" horiz-adv-x="396" d="M226 63v-63h-71q-37 -99 -101 -166l-54 41q86 104 104.5 217.5t-30.5 219.5h73q48 -127 23 -249h56zM83 -403q-21 0 -35.5 14.5t-14.5 34.5t14.5 35t35.5 15q20 0 34.5 -15t14.5 -35t-14.5 -34.5t-34.5 -14.5z" />
<glyph unicode="&#x695;" horiz-adv-x="396" d="M4 -232l-29 76q97 32 151.5 76t77 92.5t22.5 94.5q0 49 -21.5 99.5t-47.5 95.5l73 37q28 -53 47.5 -102t30.5 -86q14 -43 36.5 -58.5t61.5 -15.5q21 0 30.5 -11.5t9.5 -27.5t-14 -29.5t-36 -13.5q-38 0 -63.5 12t-41.5 32q-10 -56 -42 -102t-75 -80.5t-88 -56.5t-82 -32z M45 -57l-20.5 41t-26 50.5t-23.5 42.5l37 20q6 -9 16.5 -27.5t21.5 -39.5t20 -38q8 20 18.5 42.5t19.5 40t13 24.5l36 -15q-6 -11 -19 -37t-26.5 -54.5t-19.5 -44.5z" />
<glyph unicode="&#x696;" horiz-adv-x="396" d="M226 63v-63h-71q-37 -99 -101 -166l-54 41q86 104 104.5 217.5t-30.5 219.5h73q48 -127 23 -249h56zM71 -7q-21 0 -35.5 14.5t-14.5 34.5t14.5 35t35.5 15q20 0 34.5 -15t14.5 -35t-14.5 -34.5t-34.5 -14.5zM83 -403q-21 0 -35.5 14.5t-14.5 34.5t14.5 35t35.5 15 q20 0 34.5 -15t14.5 -35t-14.5 -34.5t-34.5 -14.5z" />
<glyph unicode="&#x697;" horiz-adv-x="396" d="M226 63v-63h-71q-37 -99 -101 -166l-54 41q86 104 104.5 217.5t-30.5 219.5h73q48 -127 23 -249h56zM233 454q-21 0 -35.5 14.5t-14.5 34.5t14.5 35t35.5 15q20 0 34.5 -15t14.5 -35t-14.5 -34.5t-34.5 -14.5zM96 454q-21 0 -35.5 14.5t-14.5 34.5t14.5 35t35.5 15 q20 0 34.5 -15t14.5 -35t-14.5 -34.5t-34.5 -14.5z" />
<glyph unicode="&#x699;" horiz-adv-x="396" d="M226 63v-63h-71q-37 -99 -101 -166l-54 41q86 104 104.5 217.5t-30.5 219.5h73q48 -127 23 -249h56zM97 579q-21 0 -35.5 14.5t-14.5 34.5t14.5 35t35.5 15q20 0 34.5 -15t14.5 -35t-14.5 -34.5t-34.5 -14.5zM233 579q-21 0 -35.5 14.5t-14.5 34.5t14.5 35t35.5 15 q20 0 34.5 -15t14.5 -35t-14.5 -34.5t-34.5 -14.5zM97 454q-21 0 -35.5 14.5t-14.5 34.5t14.5 35t35.5 15q20 0 34.5 -15t14.5 -35t-14.5 -34.5t-34.5 -14.5zM233 454q-21 0 -35.5 14.5t-14.5 34.5t14.5 35t35.5 15q20 0 34.5 -15t14.5 -35t-14.5 -34.5t-34.5 -14.5z" />
<glyph unicode="&#x69a;" horiz-adv-x="784" d="M552 118q0 -52 -39 -90.5t-92 -38.5t-97 46q-37 -46 -91.5 -46t-93.5 37q-25 -26 -54 -26h-95v63h107v249h65v-188q0 -28 19 -47.5t46 -19.5t46.5 19.5t19.5 47.5v188h63v-188q0 -26 20.5 -46.5t47 -20.5t46.5 19.5t20 47.5v188h62v-194zM386 -191q-21 0 -35.5 14.5 t-14.5 34.5t14.5 35t35.5 15q20 0 34.5 -15t14.5 -35t-14.5 -34.5t-34.5 -14.5zM429 435q-21 0 -35.5 14.5t-14.5 34.5t14.5 35t35.5 15q20 0 34.5 -15t14.5 -35t-14.5 -34.5t-34.5 -14.5z" />
<glyph unicode="&#x69a;" horiz-adv-x="850" d="M552 63h53v-63h-43q-19 0 -48 26q-42 -37 -94 -37t-96 46q-37 -46 -91.5 -46t-93.5 37q-25 -26 -54 -26h-95v63h107v249h65v-188q0 -28 19 -47.5t46 -19.5t46.5 19.5t19.5 47.5v188h63v-188q0 -26 20.5 -46.5t47 -20.5t46.5 19.5t20 47.5v188h62v-249zM386 -191 q-21 0 -35.5 14.5t-14.5 34.5t14.5 35t35.5 15q20 0 34.5 -15t14.5 -35t-14.5 -34.5t-34.5 -14.5zM429 435q-21 0 -35.5 14.5t-14.5 34.5t14.5 35t35.5 15q20 0 34.5 -15t14.5 -35t-14.5 -34.5t-34.5 -14.5z" />
<glyph unicode="&#x69a;" horiz-adv-x="1269" d="M833 136q0 -26 14.5 -46t38.5 -25v-65q-26 0 -42 8.5t-41 31.5q-40 -52 -103 -52q-49 0 -99 45q-37 -45 -97 -45q-33 0 -65 18q-8 -76 -64 -129t-138 -53t-134.5 58.5t-52.5 138.5q0 115 100 174l33 -57q-69 -44 -69 -122q0 -50 36 -88q37 -39 92.5 -39t95 40.5 t39.5 92.5v289h63v-188q0 -28 18.5 -47.5t46 -19.5t47 19.5t19.5 47.5v188h62v-188q0 -26 20.5 -46.5t46.5 -20.5t46.5 19.5t20.5 47.5v188h66v-175zM848 -186q-21 0 -35.5 14.5t-14.5 34.5t14.5 35t35.5 15q20 0 34.5 -15t14.5 -35t-14.5 -34.5t-34.5 -14.5zM822 435 q-21 0 -35.5 14.5t-14.5 34.5t14.5 35t35.5 15q20 0 34.5 -15t14.5 -35t-14.5 -34.5t-34.5 -14.5z" />
<glyph unicode="&#x69b;" horiz-adv-x="784" d="M552 118q0 -52 -39 -90.5t-92 -38.5t-97 46q-37 -46 -91.5 -46t-93.5 37q-25 -26 -54 -26h-95v63h107v249h65v-188q0 -28 19 -47.5t46 -19.5t46.5 19.5t19.5 47.5v188h63v-188q0 -26 20.5 -46.5t47 -20.5t46.5 19.5t20 47.5v188h62v-194zM318 -194q-21 0 -35.5 14.5 t-14.5 34.5t14.5 35t35.5 15q20 0 34.5 -15t14.5 -35t-14.5 -34.5t-34.5 -14.5zM454 -194q-21 0 -35.5 14.5t-14.5 34.5t14.5 35t35.5 15q20 0 34.5 -15t14.5 -35t-14.5 -34.5t-34.5 -14.5zM386 -304q-21 0 -35.5 14.5t-14.5 34.5t14.5 35t35.5 15q20 0 34.5 -15t14.5 -35 t-14.5 -34.5t-34.5 -14.5z" />
<glyph unicode="&#x69b;" horiz-adv-x="850" d="M552 63h53v-63h-43q-19 0 -48 26q-42 -37 -94 -37t-96 46q-37 -46 -91.5 -46t-93.5 37q-25 -26 -54 -26h-95v63h107v249h65v-188q0 -28 19 -47.5t46 -19.5t46.5 19.5t19.5 47.5v188h63v-188q0 -26 20.5 -46.5t47 -20.5t46.5 19.5t20 47.5v188h62v-249zM318 -194 q-21 0 -35.5 14.5t-14.5 34.5t14.5 35t35.5 15q20 0 34.5 -15t14.5 -35t-14.5 -34.5t-34.5 -14.5zM454 -194q-21 0 -35.5 14.5t-14.5 34.5t14.5 35t35.5 15q20 0 34.5 -15t14.5 -35t-14.5 -34.5t-34.5 -14.5zM386 -304q-21 0 -35.5 14.5t-14.5 34.5t14.5 35t35.5 15 q20 0 34.5 -15t14.5 -35t-14.5 -34.5t-34.5 -14.5z" />
<glyph unicode="&#x69b;" horiz-adv-x="1269" d="M833 136q0 -26 14.5 -46t38.5 -25v-65q-26 0 -42 8.5t-41 31.5q-40 -52 -103 -52q-49 0 -99 45q-37 -45 -97 -45q-33 0 -65 18q-8 -76 -64 -129t-138 -53t-134.5 58.5t-52.5 138.5q0 115 100 174l33 -57q-69 -44 -69 -122q0 -50 36 -88q37 -39 92.5 -39t95 40.5 t39.5 92.5v289h63v-188q0 -28 18.5 -47.5t46 -19.5t47 19.5t19.5 47.5v188h62v-188q0 -26 20.5 -46.5t46.5 -20.5t46.5 19.5t20.5 47.5v188h66v-175zM780 -189q-21 0 -35.5 14.5t-14.5 34.5t14.5 35t35.5 15q20 0 34.5 -15t14.5 -35t-14.5 -34.5t-34.5 -14.5zM916 -189 q-21 0 -35.5 14.5t-14.5 34.5t14.5 35t35.5 15q20 0 34.5 -15t14.5 -35t-14.5 -34.5t-34.5 -14.5zM848 -299q-21 0 -35.5 14.5t-14.5 34.5t14.5 35t35.5 15q20 0 34.5 -15t14.5 -35t-14.5 -34.5t-34.5 -14.5z" />
<glyph unicode="&#x69c;" horiz-adv-x="784" d="M552 118q0 -52 -39 -90.5t-92 -38.5t-97 46q-37 -46 -91.5 -46t-93.5 37q-25 -26 -54 -26h-95v63h107v249h65v-188q0 -28 19 -47.5t46 -19.5t46.5 19.5t19.5 47.5v188h63v-188q0 -26 20.5 -46.5t47 -20.5t46.5 19.5t20 47.5v188h62v-194zM431 545q-21 0 -35.5 14.5 t-14.5 34.5t14.5 35t35.5 15q20 0 34.5 -15t14.5 -35t-14.5 -34.5t-34.5 -14.5zM363 435q-21 0 -35.5 14.5t-14.5 34.5t14.5 35t35.5 15q20 0 34.5 -15t14.5 -35t-14.5 -34.5t-34.5 -14.5zM499 435q-21 0 -35.5 14.5t-14.5 34.5t14.5 35t35.5 15q20 0 34.5 -15t14.5 -35 t-14.5 -34.5t-34.5 -14.5zM318 -194q-21 0 -35.5 14.5t-14.5 34.5t14.5 35t35.5 15q20 0 34.5 -15t14.5 -35t-14.5 -34.5t-34.5 -14.5zM454 -194q-21 0 -35.5 14.5t-14.5 34.5t14.5 35t35.5 15q20 0 34.5 -15t14.5 -35t-14.5 -34.5t-34.5 -14.5zM386 -304q-21 0 -35.5 14.5 t-14.5 34.5t14.5 35t35.5 15q20 0 34.5 -15t14.5 -35t-14.5 -34.5t-34.5 -14.5z" />
<glyph unicode="&#x69c;" horiz-adv-x="850" d="M552 63h53v-63h-43q-19 0 -48 26q-42 -37 -94 -37t-96 46q-37 -46 -91.5 -46t-93.5 37q-25 -26 -54 -26h-95v63h107v249h65v-188q0 -28 19 -47.5t46 -19.5t46.5 19.5t19.5 47.5v188h63v-188q0 -26 20.5 -46.5t47 -20.5t46.5 19.5t20 47.5v188h62v-249zM431 545 q-21 0 -35.5 14.5t-14.5 34.5t14.5 35t35.5 15q20 0 34.5 -15t14.5 -35t-14.5 -34.5t-34.5 -14.5zM363 435q-21 0 -35.5 14.5t-14.5 34.5t14.5 35t35.5 15q20 0 34.5 -15t14.5 -35t-14.5 -34.5t-34.5 -14.5zM499 435q-21 0 -35.5 14.5t-14.5 34.5t14.5 35t35.5 15 q20 0 34.5 -15t14.5 -35t-14.5 -34.5t-34.5 -14.5zM318 -194q-21 0 -35.5 14.5t-14.5 34.5t14.5 35t35.5 15q20 0 34.5 -15t14.5 -35t-14.5 -34.5t-34.5 -14.5zM454 -194q-21 0 -35.5 14.5t-14.5 34.5t14.5 35t35.5 15q20 0 34.5 -15t14.5 -35t-14.5 -34.5t-34.5 -14.5z M386 -304q-21 0 -35.5 14.5t-14.5 34.5t14.5 35t35.5 15q20 0 34.5 -15t14.5 -35t-14.5 -34.5t-34.5 -14.5z" />
<glyph unicode="&#x69c;" horiz-adv-x="1269" d="M833 136q0 -26 14.5 -46t38.5 -25v-65q-26 0 -42 8.5t-41 31.5q-40 -52 -103 -52q-49 0 -99 45q-37 -45 -97 -45q-33 0 -65 18q-8 -76 -64 -129t-138 -53t-134.5 58.5t-52.5 138.5q0 115 100 174l33 -57q-69 -44 -69 -122q0 -50 36 -88q37 -39 92.5 -39t95 40.5 t39.5 92.5v289h63v-188q0 -28 18.5 -47.5t46 -19.5t47 19.5t19.5 47.5v188h62v-188q0 -26 20.5 -46.5t46.5 -20.5t46.5 19.5t20.5 47.5v188h66v-175zM824 545q-21 0 -35.5 14.5t-14.5 34.5t14.5 35t35.5 15q20 0 34.5 -15t14.5 -35t-14.5 -34.5t-34.5 -14.5zM756 435 q-21 0 -35.5 14.5t-14.5 34.5t14.5 35t35.5 15q20 0 34.5 -15t14.5 -35t-14.5 -34.5t-34.5 -14.5zM892 435q-21 0 -35.5 14.5t-14.5 34.5t14.5 35t35.5 15q20 0 34.5 -15t14.5 -35t-14.5 -34.5t-34.5 -14.5zM780 -189q-21 0 -35.5 14.5t-14.5 34.5t14.5 35t35.5 15 q20 0 34.5 -15t14.5 -35t-14.5 -34.5t-34.5 -14.5zM916 -189q-21 0 -35.5 14.5t-14.5 34.5t14.5 35t35.5 15q20 0 34.5 -15t14.5 -35t-14.5 -34.5t-34.5 -14.5zM848 -299q-21 0 -35.5 14.5t-14.5 34.5t14.5 35t35.5 15q20 0 34.5 -15t14.5 -35t-14.5 -34.5t-34.5 -14.5z" />
<glyph unicode="&#x69d;" horiz-adv-x="903" d="M365.5 259q-75.5 0 -130 -60t-47.5 -136h357q7 77 -48.5 136.5t-131 59.5zM370 320q73 0 126.5 -33t77.5 -84q49 -101 38 -203h-622v63h107v245h62v-105q45 59 91.5 88t119.5 29zM556 -207q-21 0 -35.5 14.5t-14.5 34.5t14.5 35t35.5 15q20 0 34.5 -15t14.5 -35 t-14.5 -34.5t-34.5 -14.5zM419 -207q-21 0 -35.5 14.5t-14.5 34.5t14.5 35t35.5 15q20 0 34.5 -15t14.5 -35t-14.5 -34.5t-34.5 -14.5z" />
<glyph unicode="&#x69d;" horiz-adv-x="949" d="M365 259q-76 0 -130.5 -60t-47.5 -136h357q7 77 -48 136.5t-131 59.5zM365 321q106 0 177 -75.5t73 -182.5h53v-63h-678v63h106v245h62v-105q47 60 92 89t115 29zM556 -207q-21 0 -35.5 14.5t-14.5 34.5t14.5 35t35.5 15q20 0 34.5 -15t14.5 -35t-14.5 -34.5t-34.5 -14.5 zM419 -207q-21 0 -35.5 14.5t-14.5 34.5t14.5 35t35.5 15q20 0 34.5 -15t14.5 -35t-14.5 -34.5t-34.5 -14.5z" />
<glyph unicode="&#x69d;" horiz-adv-x="1352" d="M655 259q-76 0 -130 -60t-47 -136h357q7 77 -48.5 136.5t-131.5 59.5zM182 138q-70 -42 -70 -129q0 -43 36 -80.5t92.5 -37.5t96.5 39t40 92v290h58v-136q33 65 89 105t131 40q106 0 177 -75.5t73 -182.5h53v-63h-523v-14q-14 -68 -69 -114.5t-125 -46.5q-87 0 -139 58.5 t-52 138.5q0 115 100 174zM976 -202q-21 0 -35.5 14.5t-14.5 34.5t14.5 35t35.5 15q20 0 34.5 -15t14.5 -35t-14.5 -34.5t-34.5 -14.5zM839 -202q-21 0 -35.5 14.5t-14.5 34.5t14.5 35t35.5 15q20 0 34.5 -15t14.5 -35t-14.5 -34.5t-34.5 -14.5z" />
<glyph unicode="&#x69e;" horiz-adv-x="903" d="M365.5 259q-75.5 0 -130 -60t-47.5 -136h357q7 77 -48.5 136.5t-131 59.5zM370 320q73 0 126.5 -33t77.5 -84q49 -101 38 -203h-622v63h107v245h62v-105q45 59 91.5 88t119.5 29zM654 582q-21 0 -35.5 14.5t-14.5 34.5t14.5 35t35.5 15q20 0 34.5 -15t14.5 -35 t-14.5 -34.5t-34.5 -14.5zM586 472q-21 0 -35.5 14.5t-14.5 34.5t14.5 35t35.5 15q20 0 34.5 -15t14.5 -35t-14.5 -34.5t-34.5 -14.5zM722 472q-21 0 -35.5 14.5t-14.5 34.5t14.5 35t35.5 15q20 0 34.5 -15t14.5 -35t-14.5 -34.5t-34.5 -14.5z" />
<glyph unicode="&#x69e;" horiz-adv-x="949" d="M365 259q-76 0 -130.5 -60t-47.5 -136h357q7 77 -48 136.5t-131 59.5zM365 321q106 0 177 -75.5t73 -182.5h53v-63h-678v63h106v245h62v-105q47 60 92 89t115 29zM654 582q-21 0 -35.5 14.5t-14.5 34.5t14.5 35t35.5 15q20 0 34.5 -15t14.5 -35t-14.5 -34.5t-34.5 -14.5z M586 472q-21 0 -35.5 14.5t-14.5 34.5t14.5 35t35.5 15q20 0 34.5 -15t14.5 -35t-14.5 -34.5t-34.5 -14.5zM722 472q-21 0 -35.5 14.5t-14.5 34.5t14.5 35t35.5 15q20 0 34.5 -15t14.5 -35t-14.5 -34.5t-34.5 -14.5z" />
<glyph unicode="&#x69e;" horiz-adv-x="1352" d="M655 259q-76 0 -130 -60t-47 -136h357q7 77 -48.5 136.5t-131.5 59.5zM182 138q-70 -42 -70 -129q0 -43 36 -80.5t92.5 -37.5t96.5 39t40 92v290h58v-136q33 65 89 105t131 40q106 0 177 -75.5t73 -182.5h53v-63h-523v-14q-14 -68 -69 -114.5t-125 -46.5q-87 0 -139 58.5 t-52 138.5q0 115 100 174zM1057 587q-21 0 -35.5 14.5t-14.5 34.5t14.5 35t35.5 15q20 0 34.5 -15t14.5 -35t-14.5 -34.5t-34.5 -14.5zM989 477q-21 0 -35.5 14.5t-14.5 34.5t14.5 35t35.5 15q20 0 34.5 -15t14.5 -35t-14.5 -34.5t-34.5 -14.5zM1125 477q-21 0 -35.5 14.5 t-14.5 34.5t14.5 35t35.5 15q20 0 34.5 -15t14.5 -35t-14.5 -34.5t-34.5 -14.5z" />
<glyph unicode="&#x69f;" horiz-adv-x="677" d="M339 258q-76 0 -129.5 -59.5t-46.5 -135.5h357q7 76 -49 135.5t-132 59.5zM339 320q70 0 123 -29q53 -28 81 -76q56 -96 44 -215h-597v63h106v380h63v-207q64 84 180 84zM408 582q-21 0 -35.5 14.5t-14.5 34.5t14.5 35t35.5 15q20 0 34.5 -15t14.5 -35t-14.5 -34.5 t-34.5 -14.5zM340 472q-21 0 -35.5 14.5t-14.5 34.5t14.5 35t35.5 15q20 0 34.5 -15t14.5 -35t-14.5 -34.5t-34.5 -14.5zM476 472q-21 0 -35.5 14.5t-14.5 34.5t14.5 35t35.5 15q20 0 34.5 -15t14.5 -35t-14.5 -34.5t-34.5 -14.5z" />
<glyph unicode="&#x69f;" horiz-adv-x="710" d="M339 258q-76 0 -129.5 -59.5t-46.5 -135.5h357q7 76 -49 135.5t-132 59.5zM339 320h5q107 0 175.5 -73.5t70.5 -183.5h53v-63h-653v63h106v380h63v-207q64 84 180 84zM408 582q-21 0 -35.5 14.5t-14.5 34.5t14.5 35t35.5 15q20 0 34.5 -15t14.5 -35t-14.5 -34.5 t-34.5 -14.5zM340 472q-21 0 -35.5 14.5t-14.5 34.5t14.5 35t35.5 15q20 0 34.5 -15t14.5 -35t-14.5 -34.5t-34.5 -14.5zM476 472q-21 0 -35.5 14.5t-14.5 34.5t14.5 35t35.5 15q20 0 34.5 -15t14.5 -35t-14.5 -34.5t-34.5 -14.5z" />
<glyph unicode="&#x69f;" horiz-adv-x="831" d="M399 258q-76 0 -129.5 -59.5t-46.5 -135.5h357q7 76 -49 135.5t-132 59.5zM399 320h4q108 0 176.5 -73.5t70.5 -183.5h53v-63h-653v63h106v380h63v-207q64 84 180 84zM519 587q-21 0 -35.5 14.5t-14.5 34.5t14.5 35t35.5 15q20 0 34.5 -15t14.5 -35t-14.5 -34.5 t-34.5 -14.5zM451 477q-21 0 -35.5 14.5t-14.5 34.5t14.5 35t35.5 15q20 0 34.5 -15t14.5 -35t-14.5 -34.5t-34.5 -14.5zM587 477q-21 0 -35.5 14.5t-14.5 34.5t14.5 35t35.5 15q20 0 34.5 -15t14.5 -35t-14.5 -34.5t-34.5 -14.5z" />
<glyph unicode="&#x6a0;" horiz-adv-x="503" d="M261 313q65 0 115 -44l-37 -51q-35 37 -78 37t-68 -28.5t-25 -69.5t33.5 -67.5t76.5 -26.5h117v-63h-405v63h139q-32 51 -32 99q0 64 49.5 107.5t114.5 43.5zM267 652q-21 0 -35.5 14.5t-14.5 34.5t14.5 35t35.5 15q20 0 34.5 -15t14.5 -35t-14.5 -34.5t-34.5 -14.5z M199 542q-21 0 -35.5 14.5t-14.5 34.5t14.5 35t35.5 15q20 0 34.5 -15t14.5 -35t-14.5 -34.5t-34.5 -14.5zM335 542q-21 0 -35.5 14.5t-14.5 34.5t14.5 35t35.5 15q20 0 34.5 -15t14.5 -35t-14.5 -34.5t-34.5 -14.5z" />
<glyph unicode="&#x6a0;" horiz-adv-x="521" d="M97 162q0 64 49 107.5t114 43.5t115 -44l-36 -51q-35 37 -78 37t-68 -28.5t-25 -69.5t33.5 -67.5t76.5 -26.5h155v-63h-443v63h138q-31 55 -31 99zM277 624q-21 0 -35.5 14.5t-14.5 34.5t14.5 35t35.5 15q20 0 34.5 -15t14.5 -35t-14.5 -34.5t-34.5 -14.5zM209 514 q-21 0 -35.5 14.5t-14.5 34.5t14.5 35t35.5 15q20 0 34.5 -15t14.5 -35t-14.5 -34.5t-34.5 -14.5zM345 514q-21 0 -35.5 14.5t-14.5 34.5t14.5 35t35.5 15q20 0 34.5 -15t14.5 -35t-14.5 -34.5t-34.5 -14.5z" />
<glyph unicode="&#x6a0;" horiz-adv-x="531" d="M50 -86q0 65 33 99q30 38 109 53q-29 46 -29 95q0 67 48 108q50 46 114.5 46t116.5 -46l-37 -51q-38 38 -78.5 38t-68 -28.5t-27.5 -66t27 -64.5q31 -34 87 -34h155v-63h-262q-51 0 -86.5 -22t-35.5 -66t22 -71h-74q-14 34 -14 73zM297 624q-21 0 -35.5 14.5t-14.5 34.5 t14.5 35t35.5 15q20 0 34.5 -15t14.5 -35t-14.5 -34.5t-34.5 -14.5zM229 514q-21 0 -35.5 14.5t-14.5 34.5t14.5 35t35.5 15q20 0 34.5 -15t14.5 -35t-14.5 -34.5t-34.5 -14.5zM365 514q-21 0 -35.5 14.5t-14.5 34.5t14.5 35t35.5 15q20 0 34.5 -15t14.5 -35t-14.5 -34.5 t-34.5 -14.5z" />
<glyph unicode="&#x6a1;" horiz-adv-x="447" d="M0 -5l10 82q33 0 75.5 0.5t82.5 4t63 11.5q32 11 51.5 28.5t29.5 45.5q-18 -6 -38.5 -8.5t-40.5 -2.5q-76 0 -117.5 36t-41.5 91q0 38 12 76.5t34 70.5t53 51.5t69 19.5q54 0 89.5 -35t53 -91.5t17.5 -119.5q0 -75 -25.5 -128.5t-84.5 -88.5q-31 -18 -77.5 -27.5 t-101.5 -12.5t-113 -3zM153 303q0 -31 20 -49.5t69 -18.5q43 0 82 12v14q0 42 -11 78t-31 58t-48 22q-23 0 -41.5 -17.5t-29 -44.5t-10.5 -54z" />
<glyph unicode="&#x6a1;" horiz-adv-x="495" d="M0 -5l10 82q34 0 70.5 1t70.5 5q-24 22 -47 57t-23 85q0 54 25 97t65 68t85 25q49 0 86 -27t57.5 -68.5t20.5 -86.5q0 -47 -19 -84t-51 -65q40 -3 82 -5t73 -2q21 0 30.5 -11.5t9.5 -27.5t-14 -29.5t-36 -13.5q-61 0 -127 9.5t-116 23.5q-16 -6 -33 -11 q-46 -13 -105 -17.5t-114 -4.5zM163 223q0 -39 24 -68.5t54 -47.5q41 18 69 48t28 72q0 23 -11 47.5t-30 41.5t-44 17q-24 0 -44.5 -16t-33 -41.5t-12.5 -52.5z" />
<glyph unicode="&#x6a1;" horiz-adv-x="1098" d="M390 -21q-178 0 -269 47t-91 156q0 37 9 78.5t19 78.5l75 -19q-6 -22 -13.5 -55.5t-7.5 -59.5q0 -52 26.5 -83.5t92.5 -46t185 -14.5q110 0 197 6.5t141 15.5q-24 20 -47 54.5t-23 84.5q0 54 24.5 97.5t64.5 69.5t86 26q49 0 86 -27.5t57.5 -70t20.5 -87.5 q0 -47 -19 -83.5t-52 -63.5q41 -3 83 -4.5t73 -1.5q21 0 30.5 -11.5t9.5 -27.5t-14 -29.5t-36 -13.5q-129 0 -242 33q-16 -6 -34 -11q-30 -9 -95.5 -17.5t-153 -14.5t-183.5 -6zM766 220q0 -40 25.5 -67.5t56.5 -44.5q39 18 66 46.5t27 69.5q0 23 -11 48t-30 43t-44 18 q-24 0 -44.5 -17t-33 -43t-12.5 -53z" />
<glyph unicode="&#x6a2;" horiz-adv-x="447" d="M0 -5l10 82q33 0 75.5 0.5t82.5 4t63 11.5q32 11 51.5 28.5t29.5 45.5q-18 -6 -38.5 -8.5t-40.5 -2.5q-76 0 -117.5 36t-41.5 91q0 38 12 76.5t34 70.5t53 51.5t69 19.5q54 0 89.5 -35t53 -91.5t17.5 -119.5q0 -75 -25.5 -128.5t-84.5 -88.5q-31 -18 -77.5 -27.5 t-101.5 -12.5t-113 -3zM153 303q0 -31 20 -49.5t69 -18.5q43 0 82 12v14q0 42 -11 78t-31 58t-48 22q-23 0 -41.5 -17.5t-29 -44.5t-10.5 -54zM202 -191q-21 0 -35.5 14.5t-14.5 34.5t14.5 35t35.5 15q20 0 34.5 -15t14.5 -35t-14.5 -34.5t-34.5 -14.5z" />
<glyph unicode="&#x6a2;" horiz-adv-x="495" d="M0 -5l10 82q34 0 70.5 1t70.5 5q-24 22 -47 57t-23 85q0 54 25 97t65 68t85 25q49 0 86 -27t57.5 -68.5t20.5 -86.5q0 -47 -19 -84t-51 -65q40 -3 82 -5t73 -2q21 0 30.5 -11.5t9.5 -27.5t-14 -29.5t-36 -13.5q-61 0 -127 9.5t-116 23.5q-16 -6 -33 -11 q-46 -13 -105 -17.5t-114 -4.5zM163 223q0 -39 24 -68.5t54 -47.5q41 18 69 48t28 72q0 23 -11 47.5t-30 41.5t-44 17q-24 0 -44.5 -16t-33 -41.5t-12.5 -52.5zM243 -191q-21 0 -35.5 14.5t-14.5 34.5t14.5 35t35.5 15q20 0 34.5 -15t14.5 -35t-14.5 -34.5t-34.5 -14.5z" />
<glyph unicode="&#x6a2;" horiz-adv-x="1098" d="M390 -21q-178 0 -269 47t-91 156q0 37 9 78.5t19 78.5l75 -19q-6 -22 -13.5 -55.5t-7.5 -59.5q0 -52 26.5 -83.5t92.5 -46t185 -14.5q110 0 197 6.5t141 15.5q-24 20 -47 54.5t-23 84.5q0 54 24.5 97.5t64.5 69.5t86 26q49 0 86 -27.5t57.5 -70t20.5 -87.5 q0 -47 -19 -83.5t-52 -63.5q41 -3 83 -4.5t73 -1.5q21 0 30.5 -11.5t9.5 -27.5t-14 -29.5t-36 -13.5q-129 0 -242 33q-16 -6 -34 -11q-30 -9 -95.5 -17.5t-153 -14.5t-183.5 -6zM766 220q0 -40 25.5 -67.5t56.5 -44.5q39 18 66 46.5t27 69.5q0 23 -11 48t-30 43t-44 18 q-24 0 -44.5 -17t-33 -43t-12.5 -53zM460 -211q-21 0 -35.5 14.5t-14.5 34.5t14.5 35t35.5 15q20 0 34.5 -15t14.5 -35t-14.5 -34.5t-34.5 -14.5z" />
<glyph unicode="&#x6a3;" horiz-adv-x="447" d="M0 -5l10 82q33 0 75.5 0.5t82.5 4t63 11.5q32 11 51.5 28.5t29.5 45.5q-18 -6 -38.5 -8.5t-40.5 -2.5q-76 0 -117.5 36t-41.5 91q0 38 12 76.5t34 70.5t53 51.5t69 19.5q54 0 89.5 -35t53 -91.5t17.5 -119.5q0 -75 -25.5 -128.5t-84.5 -88.5q-31 -18 -77.5 -27.5 t-101.5 -12.5t-113 -3zM153 303q0 -31 20 -49.5t69 -18.5q43 0 82 12v14q0 42 -11 78t-31 58t-48 22q-23 0 -41.5 -17.5t-29 -44.5t-10.5 -54zM223 604q-21 0 -35.5 14.5t-14.5 34.5t14.5 35t35.5 15q20 0 34.5 -15t14.5 -35t-14.5 -34.5t-34.5 -14.5zM202 -191 q-21 0 -35.5 14.5t-14.5 34.5t14.5 35t35.5 15q20 0 34.5 -15t14.5 -35t-14.5 -34.5t-34.5 -14.5z" />
<glyph unicode="&#x6a3;" horiz-adv-x="495" d="M0 -5l10 82q34 0 70.5 1t70.5 5q-24 22 -47 57t-23 85q0 54 25 97t65 68t85 25q49 0 86 -27t57.5 -68.5t20.5 -86.5q0 -47 -19 -84t-51 -65q40 -3 82 -5t73 -2q21 0 30.5 -11.5t9.5 -27.5t-14 -29.5t-36 -13.5q-61 0 -127 9.5t-116 23.5q-16 -6 -33 -11 q-46 -13 -105 -17.5t-114 -4.5zM163 223q0 -39 24 -68.5t54 -47.5q41 18 69 48t28 72q0 23 -11 47.5t-30 41.5t-44 17q-24 0 -44.5 -16t-33 -41.5t-12.5 -52.5zM247 518q-21 0 -35.5 14.5t-14.5 34.5t14.5 35t35.5 15q20 0 34.5 -15t14.5 -35t-14.5 -34.5t-34.5 -14.5z M243 -191q-21 0 -35.5 14.5t-14.5 34.5t14.5 35t35.5 15q20 0 34.5 -15t14.5 -35t-14.5 -34.5t-34.5 -14.5z" />
<glyph unicode="&#x6a3;" horiz-adv-x="1098" d="M390 -21q-178 0 -269 47t-91 156q0 37 9 78.5t19 78.5l75 -19q-6 -22 -13.5 -55.5t-7.5 -59.5q0 -52 26.5 -83.5t92.5 -46t185 -14.5q110 0 197 6.5t141 15.5q-24 20 -47 54.5t-23 84.5q0 54 24.5 97.5t64.5 69.5t86 26q49 0 86 -27.5t57.5 -70t20.5 -87.5 q0 -47 -19 -83.5t-52 -63.5q41 -3 83 -4.5t73 -1.5q21 0 30.5 -11.5t9.5 -27.5t-14 -29.5t-36 -13.5q-129 0 -242 33q-16 -6 -34 -11q-30 -9 -95.5 -17.5t-153 -14.5t-183.5 -6zM766 220q0 -40 25.5 -67.5t56.5 -44.5q39 18 66 46.5t27 69.5q0 23 -11 48t-30 43t-44 18 q-24 0 -44.5 -17t-33 -43t-12.5 -53zM850 518q-21 0 -35.5 14.5t-14.5 34.5t14.5 35t35.5 15q20 0 34.5 -15t14.5 -35t-14.5 -34.5t-34.5 -14.5zM460 -211q-21 0 -35.5 14.5t-14.5 34.5t14.5 35t35.5 15q20 0 34.5 -15t14.5 -35t-14.5 -34.5t-34.5 -14.5z" />
<glyph unicode="&#x6a5;" horiz-adv-x="447" d="M0 -5l10 82q33 0 75.5 0.5t82.5 4t63 11.5q32 11 51.5 28.5t29.5 45.5q-18 -6 -38.5 -8.5t-40.5 -2.5q-76 0 -117.5 36t-41.5 91q0 38 12 76.5t34 70.5t53 51.5t69 19.5q54 0 89.5 -35t53 -91.5t17.5 -119.5q0 -75 -25.5 -128.5t-84.5 -88.5q-31 -18 -77.5 -27.5 t-101.5 -12.5t-113 -3zM153 303q0 -31 20 -49.5t69 -18.5q43 0 82 12v14q0 42 -11 78t-31 58t-48 22q-23 0 -41.5 -17.5t-29 -44.5t-10.5 -54zM134 -194q-21 0 -35.5 14.5t-14.5 34.5t14.5 35t35.5 15q20 0 34.5 -15t14.5 -35t-14.5 -34.5t-34.5 -14.5zM270 -194 q-21 0 -35.5 14.5t-14.5 34.5t14.5 35t35.5 15q20 0 34.5 -15t14.5 -35t-14.5 -34.5t-34.5 -14.5zM202 -304q-21 0 -35.5 14.5t-14.5 34.5t14.5 35t35.5 15q20 0 34.5 -15t14.5 -35t-14.5 -34.5t-34.5 -14.5z" />
<glyph unicode="&#x6a5;" horiz-adv-x="495" d="M0 -5l10 82q34 0 70.5 1t70.5 5q-24 22 -47 57t-23 85q0 54 25 97t65 68t85 25q49 0 86 -27t57.5 -68.5t20.5 -86.5q0 -47 -19 -84t-51 -65q40 -3 82 -5t73 -2q21 0 30.5 -11.5t9.5 -27.5t-14 -29.5t-36 -13.5q-61 0 -127 9.5t-116 23.5q-16 -6 -33 -11 q-46 -13 -105 -17.5t-114 -4.5zM163 223q0 -39 24 -68.5t54 -47.5q41 18 69 48t28 72q0 23 -11 47.5t-30 41.5t-44 17q-24 0 -44.5 -16t-33 -41.5t-12.5 -52.5zM175 -194q-21 0 -35.5 14.5t-14.5 34.5t14.5 35t35.5 15q20 0 34.5 -15t14.5 -35t-14.5 -34.5t-34.5 -14.5z M311 -194q-21 0 -35.5 14.5t-14.5 34.5t14.5 35t35.5 15q20 0 34.5 -15t14.5 -35t-14.5 -34.5t-34.5 -14.5zM243 -304q-21 0 -35.5 14.5t-14.5 34.5t14.5 35t35.5 15q20 0 34.5 -15t14.5 -35t-14.5 -34.5t-34.5 -14.5z" />
<glyph unicode="&#x6a5;" horiz-adv-x="1098" d="M390 -21q-178 0 -269 47t-91 156q0 37 9 78.5t19 78.5l75 -19q-6 -22 -13.5 -55.5t-7.5 -59.5q0 -52 26.5 -83.5t92.5 -46t185 -14.5q110 0 197 6.5t141 15.5q-24 20 -47 54.5t-23 84.5q0 54 24.5 97.5t64.5 69.5t86 26q49 0 86 -27.5t57.5 -70t20.5 -87.5 q0 -47 -19 -83.5t-52 -63.5q41 -3 83 -4.5t73 -1.5q21 0 30.5 -11.5t9.5 -27.5t-14 -29.5t-36 -13.5q-129 0 -242 33q-16 -6 -34 -11q-30 -9 -95.5 -17.5t-153 -14.5t-183.5 -6zM766 220q0 -40 25.5 -67.5t56.5 -44.5q39 18 66 46.5t27 69.5q0 23 -11 48t-30 43t-44 18 q-24 0 -44.5 -17t-33 -43t-12.5 -53zM392 -214q-21 0 -35.5 14.5t-14.5 34.5t14.5 35t35.5 15q20 0 34.5 -15t14.5 -35t-14.5 -34.5t-34.5 -14.5zM528 -214q-21 0 -35.5 14.5t-14.5 34.5t14.5 35t35.5 15q20 0 34.5 -15t14.5 -35t-14.5 -34.5t-34.5 -14.5zM460 -324 q-21 0 -35.5 14.5t-14.5 34.5t14.5 35t35.5 15q20 0 34.5 -15t14.5 -35t-14.5 -34.5t-34.5 -14.5z" />
<glyph unicode="&#x6a7;" horiz-adv-x="808" d="M326 -272q-79 0 -146.5 24.5t-108.5 76.5t-41 136q0 23 9 73.5t48 121.5l73 -34q-23 -47 -33.5 -81t-10.5 -65q0 -62 31.5 -99t84 -53t116.5 -16q116 0 189.5 41.5t93.5 102.5q6 17 10 39h-72q-45 0 -83 12.5t-61 40.5t-25 73q-1 37 11.5 74t35.5 68t54 49.5t67 18.5 q67 0 114 -61t50 -193h86q21 0 30.5 -11.5t9.5 -27.5t-14 -29.5t-36 -13.5h-85q-5 -23 -13 -48t-19 -48q-32 -62 -86.5 -100t-125.5 -54.5t-153 -16.5zM607 77h43q0 83 -26 128t-64 45q-21 0 -39 -16.5t-29.5 -42.5t-11.5 -55q0 -35 31.5 -47t95.5 -12zM569 434 q-21 0 -35.5 14.5t-14.5 34.5t14.5 35t35.5 15q20 0 34.5 -15t14.5 -35t-14.5 -34.5t-34.5 -14.5z" />
<glyph unicode="&#x6a8;" horiz-adv-x="808" d="M326 -272q-79 0 -146.5 24.5t-108.5 76.5t-41 136q0 23 9 73.5t48 121.5l73 -34q-23 -47 -33.5 -81t-10.5 -65q0 -62 31.5 -99t84 -53t116.5 -16q116 0 189.5 41.5t93.5 102.5q6 17 10 39h-72q-45 0 -83 12.5t-61 40.5t-25 73q-1 37 11.5 74t35.5 68t54 49.5t67 18.5 q67 0 114 -61t50 -193h86q21 0 30.5 -11.5t9.5 -27.5t-14 -29.5t-36 -13.5h-85q-5 -23 -13 -48t-19 -48q-32 -62 -86.5 -100t-125.5 -54.5t-153 -16.5zM607 77h43q0 83 -26 128t-64 45q-21 0 -39 -16.5t-29.5 -42.5t-11.5 -55q0 -35 31.5 -47t95.5 -12zM571 544 q-21 0 -35.5 14.5t-14.5 34.5t14.5 35t35.5 15q20 0 34.5 -15t14.5 -35t-14.5 -34.5t-34.5 -14.5zM503 434q-21 0 -35.5 14.5t-14.5 34.5t14.5 35t35.5 15q20 0 34.5 -15t14.5 -35t-14.5 -34.5t-34.5 -14.5zM639 434q-21 0 -35.5 14.5t-14.5 34.5t14.5 35t35.5 15 q20 0 34.5 -15t14.5 -35t-14.5 -34.5t-34.5 -14.5z" />
<glyph unicode="&#x6aa;" horiz-adv-x="763" d="M0 -5l10 82h281q110 0 187.5 2.5t119 15t41.5 40.5q0 18 -18 36.5t-68.5 33t-148.5 20.5q-107 7 -172 18t-94 33t-29 60q0 41 30 76.5t82.5 65t119.5 53t141 40.5l16 -72q-92 -21 -161.5 -47.5t-108 -53.5t-38.5 -50q0 -14 20.5 -22.5t67.5 -14.5t126 -13q95 -7 155 -21 t94 -33.5t47 -44.5t13 -54q0 -62 -45 -94.5t-138 -44t-239 -11.5h-291z" />
<glyph unicode="&#x6aa;" horiz-adv-x="838" d="M0 -5l10 82h281q110 0 187.5 2.5t119 15t41.5 40.5q0 18 -18 36.5t-68.5 33t-148.5 20.5q-107 7 -172 18t-94 33t-29 60q0 41 30 76.5t82.5 65t119.5 53t141 40.5l16 -72q-92 -21 -161.5 -47.5t-108 -53.5t-38.5 -50q0 -14 20.5 -22.5t67.5 -14.5t126 -13q95 -7 155 -21 t94 -33.5t47 -44.5t13 -54q0 -25 -7 -45v0q35 -14 72.5 -18.5t69.5 -4.5q21 0 30.5 -11.5t9.5 -27.5t-14 -29.5t-36 -13.5t-55 4t-68 13.5t-64 26.5q-49 -26 -138 -35t-222 -9h-291z" />
<glyph unicode="&#x6aa;" horiz-adv-x="1091" d="M546 -15q-48 0 -112.5 1t-134 3t-133.5 6t-111 9l6 80q67 -4 147.5 -8t167 -6.5t170.5 -2.5q164 0 256 12.5t92 55.5q0 18 -18 36.5t-68.5 33t-148.5 20.5q-107 7 -172 18t-94 33t-29 60q0 41 30 76.5t82.5 65t119.5 53t141 40.5l16 -72q-92 -21 -161.5 -47.5t-108 -53.5 t-38.5 -50q0 -14 20.5 -22.5t67.5 -14.5t126 -13q95 -7 155 -21t94 -33.5t47 -44.5t13 -54q0 -25 -7 -46q35 -14 71.5 -18t68.5 -4q21 0 30.5 -11.5t9.5 -27.5t-14 -29.5t-36 -13.5t-54 3.5t-66 13t-63 25.5q-49 -29 -138.5 -40.5t-223.5 -11.5z" />
<glyph unicode="&#x6ab;" horiz-adv-x="412" d="M0 -5l10 82h94q59 0 93.5 6.5t51 17t22 23t5.5 25.5q0 23 -17.5 57t-71.5 88q-37 38 -74 67t-61 49t-24 29q0 23 5.5 43t15.5 31q40 43 125.5 86.5t213.5 107.5l34 -74q-19 -9 -35 -17q16 -12 26 -30.5t10 -40.5q0 -37 -26 -63t-63 -26t-63 26t-26 63v1 q-46 -23 -77.5 -41.5t-58.5 -37.5q117 -95 179.5 -170.5t62.5 -152.5q0 -22 -8 -48t-34 -49t-78 -37.5t-140 -14.5h-91zM334 507q17 0 29 11t12 27q0 17 -12 28.5t-29 11.5t-29 -11.5t-12 -28.5q0 -16 12 -27t29 -11z" />
<glyph unicode="&#x6ab;" horiz-adv-x="508" d="M0 -5l10 82h77q83 0 123 9t52.5 24t12.5 31q0 24 -18 53t-46 59.5t-59.5 60.5t-59.5 55t-46 43.5t-18 26.5q0 23 5.5 43t15.5 31q27 29 79.5 60.5t120.5 65t139 68.5l34 -74l-32 -16q16 -12 26 -30.5t10 -40.5q0 -37 -26 -63t-63 -26t-63 26t-26 63v1q-41 -21 -78 -41.5 t-68 -42.5q55 -47 103 -91t89 -94.5t75 -114.5q21 -39 49 -57t55.5 -23.5t44.5 -5.5q21 0 30.5 -11.5t9.5 -27.5t-14 -29.5t-36 -13.5q-24 0 -55.5 6.5t-63.5 25t-56 54.5q-20 -29 -50 -48t-78 -28.5t-122 -9.5h-83zM337 508q17 0 29 11t12 27q0 17 -12 28.5t-29 11.5 t-29 -11.5t-12 -28.5q0 -16 12 -27t29 -11z" />
<glyph unicode="&#x6ab;" horiz-adv-x="975" d="M390 -21q-178 0 -269 47t-91 156q0 37 9 78.5t19 78.5l75 -19q-6 -22 -13.5 -55.5t-7.5 -59.5q0 -52 26.5 -83.5t92.5 -46t185 -14.5q125 0 196 13t100.5 32t29.5 35q0 24 -18 53t-46 59.5t-59.5 60.5t-59.5 55t-46 43.5t-18 26.5q0 23 5.5 43t15.5 31q27 29 79.5 60.5 t120.5 65t139 68.5l34 -74l-32 -16q16 -12 26 -30.5t10 -40.5q0 -37 -26 -63t-63 -26t-63 26t-26 63v1q-41 -21 -78 -41.5t-68 -42.5q55 -47 103 -91t89 -94.5t75 -114.5q21 -39 49 -57t55.5 -23.5t44.5 -5.5q21 0 30.5 -11.5t9.5 -27.5t-14 -29.5t-36 -13.5q-24 0 -56 6.5 t-63.5 25t-55.5 54.5q-17 -22 -45 -41t-74.5 -32.5t-117.5 -21t-173 -7.5zM804 508q17 0 29 11t12 27q0 17 -12 28.5t-29 11.5t-29 -11.5t-12 -28.5q0 -16 12 -27t29 -11z" />
<glyph unicode="&#x6ac;" horiz-adv-x="412" d="M260 317q65 0 110 -44.5t45 -109.5q0 -47 -26.5 -88.5t-64.5 -58t-64 -16.5h-270v63h270q36 0 62 29t26 65.5t-25.5 67t-62.5 30.5h-163v72l135 190l53 -38l-118 -162h93zM203 713q-21 0 -35.5 14.5t-14.5 34.5t14.5 35t35.5 15q20 0 34.5 -15t14.5 -35t-14.5 -34.5 t-34.5 -14.5z" />
<glyph unicode="&#x6ac;" horiz-adv-x="508" d="M260 317q65 0 110 -44.5t45 -109.5q0 -45 -34 -100h87v-63h-478v63h270q36 0 62 29t26 65.5t-25.5 67t-62.5 30.5h-163v72l135 190l53 -38l-118 -162h93zM171 713q-21 0 -35.5 14.5t-14.5 34.5t14.5 35t35.5 15q20 0 34.5 -15t14.5 -35t-14.5 -34.5t-34.5 -14.5z" />
<glyph unicode="&#x6ac;" horiz-adv-x="922" d="M399 424q38 0 67 -29l-26 -36q-13 15 -32 20.5t-35 -4.5t-17 -37q1 -41 57 -47h52v-40h-195v40h64q-34 42 -11.5 87.5t76.5 45.5zM616 63h53v-63h-466q-67 0 -110 46t-43 111.5t38 108t100 47.5v-62q-33 -6 -55 -33t-22 -63t27.5 -64t64.5 -28h350v378h63v-378zM467 631 q-21 0 -35.5 14.5t-14.5 34.5t14.5 35t35.5 15q20 0 34.5 -15t14.5 -35t-14.5 -34.5t-34.5 -14.5z" />
<glyph unicode="&#x6ae;" horiz-adv-x="412" d="M260 317q65 0 110 -44.5t45 -109.5q0 -47 -26.5 -88.5t-64.5 -58t-64 -16.5h-270v63h270q36 0 62 29t26 65.5t-25.5 67t-62.5 30.5h-163v72l135 190l53 -38l-118 -162h93zM95 -189q-21 0 -35.5 14.5t-14.5 34.5t14.5 35t35.5 15q20 0 34.5 -15t14.5 -35t-14.5 -34.5 t-34.5 -14.5zM231 -189q-21 0 -35.5 14.5t-14.5 34.5t14.5 35t35.5 15q20 0 34.5 -15t14.5 -35t-14.5 -34.5t-34.5 -14.5zM163 -299q-21 0 -35.5 14.5t-14.5 34.5t14.5 35t35.5 15q20 0 34.5 -15t14.5 -35t-14.5 -34.5t-34.5 -14.5z" />
<glyph unicode="&#x6ae;" horiz-adv-x="508" d="M260 317q65 0 110 -44.5t45 -109.5q0 -45 -34 -100h87v-63h-478v63h270q36 0 62 29t26 65.5t-25.5 67t-62.5 30.5h-163v72l135 190l53 -38l-118 -162h93zM95 -189q-21 0 -35.5 14.5t-14.5 34.5t14.5 35t35.5 15q20 0 34.5 -15t14.5 -35t-14.5 -34.5t-34.5 -14.5z M231 -189q-21 0 -35.5 14.5t-14.5 34.5t14.5 35t35.5 15q20 0 34.5 -15t14.5 -35t-14.5 -34.5t-34.5 -14.5zM163 -299q-21 0 -35.5 14.5t-14.5 34.5t14.5 35t35.5 15q20 0 34.5 -15t14.5 -35t-14.5 -34.5t-34.5 -14.5z" />
<glyph unicode="&#x6ae;" horiz-adv-x="922" d="M399 424q38 0 67 -29l-26 -36q-13 15 -32 20.5t-35 -4.5t-17 -37q1 -41 57 -47h52v-40h-195v40h64q-34 42 -11.5 87.5t76.5 45.5zM616 63h53v-63h-466q-67 0 -110 46t-43 111.5t38 108t100 47.5v-62q-33 -6 -55 -33t-22 -63t27.5 -64t64.5 -28h350v378h63v-378zM342 -210 q-21 0 -35.5 14.5t-14.5 34.5t14.5 35t35.5 15q20 0 34.5 -15t14.5 -35t-14.5 -34.5t-34.5 -14.5zM478 -210q-21 0 -35.5 14.5t-14.5 34.5t14.5 35t35.5 15q20 0 34.5 -15t14.5 -35t-14.5 -34.5t-34.5 -14.5zM410 -320q-21 0 -35.5 14.5t-14.5 34.5t14.5 35t35.5 15 q20 0 34.5 -15t14.5 -35t-14.5 -34.5t-34.5 -14.5z" />
<glyph unicode="&#x6b0;" horiz-adv-x="412" d="M-1 550l-37 56q58 35 152.5 91.5t223.5 123.5l28 -61q-130 -69 -218 -120.5t-149 -89.5zM0 -5l10 82h94q59 0 93.5 6.5t51 17t22 23t5.5 25.5q0 23 -17.5 57t-71.5 88q-37 38 -74 67t-61 49t-24 29q0 23 5.5 43t15.5 31q40 43 125.5 86.5t213.5 107.5l34 -74 q-17 -8 -31 -15q16 -12 26 -30.5t10 -40.5q0 -37 -26 -63t-63 -26t-63 26t-26 63v1q-48 -24 -80 -42.5t-60 -38.5q117 -95 179.5 -170.5t62.5 -152.5q0 -22 -8 -48t-34 -49t-78 -37.5t-140 -14.5h-91zM338 509q17 0 29 11t12 27q0 17 -12 28.5t-29 11.5t-29 -11.5t-12 -28.5 q0 -16 12 -27t29 -11z" />
<glyph unicode="&#x6b0;" horiz-adv-x="508" d="M-1 550l-37 56q58 35 152.5 91.5t223.5 123.5l28 -61q-130 -69 -218 -120.5t-149 -89.5zM0 -5l10 82h77q83 0 123 9t52.5 24t12.5 31q0 24 -18 53t-46 59.5t-59.5 60.5t-59.5 55t-46 43.5t-18 26.5q0 23 5.5 43t15.5 31q27 29 79.5 60.5t120.5 65t139 68.5l34 -74 q-8 -4 -16.5 -8.5t-17.5 -8.5q16 -12 26 -30.5t10 -40.5q0 -37 -26 -63t-63 -26t-63 26t-26 63v1q-40 -20 -76.5 -41t-67.5 -42q55 -47 103 -91t89 -94.5t75 -114.5q21 -39 49 -57t55.5 -23.5t44.5 -5.5q21 0 30.5 -11.5t9.5 -27.5t-14 -29.5t-36 -13.5q-24 0 -55.5 6.5 t-63.5 25t-56 54.5q-20 -29 -50 -48t-78 -28.5t-122 -9.5h-83zM335 507q17 0 29 11t12 27q0 17 -12 28.5t-29 11.5t-29 -11.5t-12 -28.5q0 -16 12 -27t29 -11z" />
<glyph unicode="&#x6b0;" horiz-adv-x="975" d="M462 550l-37 56q58 35 152.5 91.5t223.5 123.5l28 -61q-130 -69 -218 -120.5t-149 -89.5zM390 -21q-178 0 -269 47t-91 156q0 37 9 78.5t19 78.5l75 -19q-6 -22 -13.5 -55.5t-7.5 -59.5q0 -52 26.5 -83.5t92.5 -46t185 -14.5q125 0 196 13t100.5 32t29.5 35q0 24 -18 53 t-46 59.5t-59.5 60.5t-59.5 55t-46 43.5t-18 26.5q0 23 5.5 43t15.5 31q27 29 79.5 60.5t120.5 65t139 68.5l34 -74l-26 -13q16 -12 26 -30.5t10 -40.5q0 -37 -26 -63t-63 -26t-63 26t-26 63v1q-42 -21 -81 -43t-71 -44q55 -47 103 -91t89 -94.5t75 -114.5q21 -39 49 -57 t55.5 -23.5t44.5 -5.5q21 0 30.5 -11.5t9.5 -27.5t-14 -29.5t-36 -13.5q-24 0 -56 6.5t-63.5 25t-55.5 54.5q-17 -22 -45 -41t-74.5 -32.5t-117.5 -21t-173 -7.5zM810 511q17 0 29 11t12 27q0 17 -12 28.5t-29 11.5t-29 -11.5t-12 -28.5q0 -16 12 -27t29 -11z" />
<glyph unicode="&#x6b2;" horiz-adv-x="412" d="M-1 550l-37 56q58 35 152.5 91.5t223.5 123.5l28 -61q-130 -69 -218 -120.5t-149 -89.5zM0 -5l10 82h94q59 0 93.5 6.5t51 17t22 23t5.5 25.5q0 23 -17.5 57t-71.5 88q-37 38 -74 67t-61 49t-24 29q0 23 5.5 43t15.5 31q40 43 125.5 86.5t213.5 107.5l34 -74 q-91 -44 -148.5 -72.5t-95 -50t-69.5 -43.5q117 -95 179.5 -170.5t62.5 -152.5q0 -22 -8 -48t-34 -49t-78 -37.5t-140 -14.5h-91zM235 -189q-21 0 -35.5 14.5t-14.5 34.5t14.5 35t35.5 15q20 0 34.5 -15t14.5 -35t-14.5 -34.5t-34.5 -14.5zM98 -189q-21 0 -35.5 14.5 t-14.5 34.5t14.5 35t35.5 15q20 0 34.5 -15t14.5 -35t-14.5 -34.5t-34.5 -14.5z" />
<glyph unicode="&#x6b2;" horiz-adv-x="508" d="M-1 550l-37 56q58 35 152.5 91.5t223.5 123.5l28 -61q-130 -69 -218 -120.5t-149 -89.5zM0 -5l10 82h77q83 0 123 9t52.5 24t12.5 31q0 24 -18 53t-46 59.5t-59.5 60.5t-59.5 55t-46 43.5t-18 26.5q0 23 5.5 43t15.5 31q27 29 79.5 60.5t120.5 65t139 68.5l34 -74 q-88 -44 -172.5 -85t-147.5 -85q55 -47 103 -91t89 -94.5t75 -114.5q21 -39 49 -57t55.5 -23.5t44.5 -5.5q21 0 30.5 -11.5t9.5 -27.5t-14 -29.5t-36 -13.5q-24 0 -55.5 6.5t-63.5 25t-56 54.5q-20 -29 -50 -48t-78 -28.5t-122 -9.5h-83zM235 -189q-21 0 -35.5 14.5 t-14.5 34.5t14.5 35t35.5 15q20 0 34.5 -15t14.5 -35t-14.5 -34.5t-34.5 -14.5zM98 -189q-21 0 -35.5 14.5t-14.5 34.5t14.5 35t35.5 15q20 0 34.5 -15t14.5 -35t-14.5 -34.5t-34.5 -14.5z" />
<glyph unicode="&#x6b2;" horiz-adv-x="975" d="M462 550l-37 56q58 35 152.5 91.5t223.5 123.5l28 -61q-130 -69 -218 -120.5t-149 -89.5zM390 -21q-178 0 -269 47t-91 156q0 37 9 78.5t19 78.5l75 -19q-6 -22 -13.5 -55.5t-7.5 -59.5q0 -52 26.5 -83.5t92.5 -46t185 -14.5q125 0 196 13t100.5 32t29.5 35q0 24 -18 53 t-46 59.5t-59.5 60.5t-59.5 55t-46 43.5t-18 26.5q0 23 5.5 43t15.5 31q27 29 79.5 60.5t120.5 65t139 68.5l34 -74q-88 -44 -172.5 -85t-147.5 -85q55 -47 103 -91t89 -94.5t75 -114.5q21 -39 49 -57t55.5 -23.5t44.5 -5.5q21 0 30.5 -11.5t9.5 -27.5t-14 -29.5t-36 -13.5 q-24 0 -56 6.5t-63.5 25t-55.5 54.5q-17 -22 -45 -41t-74.5 -32.5t-117.5 -21t-173 -7.5zM482 -210q-21 0 -35.5 14.5t-14.5 34.5t14.5 35t35.5 15q20 0 34.5 -15t14.5 -35t-14.5 -34.5t-34.5 -14.5zM345 -210q-21 0 -35.5 14.5t-14.5 34.5t14.5 35t35.5 15q20 0 34.5 -15 t14.5 -35t-14.5 -34.5t-34.5 -14.5z" />
<glyph unicode="&#x6b4;" horiz-adv-x="412" d="M82 872q-21 0 -35.5 14.5t-14.5 34.5t14.5 35t35.5 15q20 0 34.5 -15t14.5 -35t-14.5 -34.5t-34.5 -14.5zM187 798q-21 0 -35.5 14.5t-14.5 34.5t14.5 35t35.5 15q20 0 34.5 -15t14.5 -35t-14.5 -34.5t-34.5 -14.5zM72 747q-21 0 -35.5 14.5t-14.5 34.5t14.5 35t35.5 15 q20 0 34.5 -15t14.5 -35t-14.5 -34.5t-34.5 -14.5zM-1 550l-37 56q58 35 152.5 91.5t223.5 123.5l28 -61q-130 -69 -218 -120.5t-149 -89.5zM0 -5l10 82h94q59 0 93.5 6.5t51 17t22 23t5.5 25.5q0 23 -17.5 57t-71.5 88q-37 38 -74 67t-61 49t-24 29q0 23 5.5 43t15.5 31 q40 43 125.5 86.5t213.5 107.5l34 -74q-91 -44 -148.5 -72.5t-95 -50t-69.5 -43.5q117 -95 179.5 -170.5t62.5 -152.5q0 -22 -8 -48t-34 -49t-78 -37.5t-140 -14.5h-91z" />
<glyph unicode="&#x6b4;" horiz-adv-x="508" d="M77 872q-21 0 -35.5 14.5t-14.5 34.5t14.5 35t35.5 15q20 0 34.5 -15t14.5 -35t-14.5 -34.5t-34.5 -14.5zM182 798q-21 0 -35.5 14.5t-14.5 34.5t14.5 35t35.5 15q20 0 34.5 -15t14.5 -35t-14.5 -34.5t-34.5 -14.5zM67 747q-21 0 -35.5 14.5t-14.5 34.5t14.5 35t35.5 15 q20 0 34.5 -15t14.5 -35t-14.5 -34.5t-34.5 -14.5zM-1 550l-37 56q58 35 152.5 91.5t223.5 123.5l28 -61q-130 -69 -218 -120.5t-149 -89.5zM0 -5l10 82h77q83 0 123 9t52.5 24t12.5 31q0 24 -18 53t-46 59.5t-59.5 60.5t-59.5 55t-46 43.5t-18 26.5q0 23 5.5 43t15.5 31 q27 29 79.5 60.5t120.5 65t139 68.5l34 -74q-88 -44 -172.5 -85t-147.5 -85q55 -47 103 -91t89 -94.5t75 -114.5q21 -39 49 -57t55.5 -23.5t44.5 -5.5q21 0 30.5 -11.5t9.5 -27.5t-14 -29.5t-36 -13.5q-24 0 -55.5 6.5t-63.5 25t-56 54.5q-20 -29 -50 -48t-78 -28.5 t-122 -9.5h-83z" />
<glyph unicode="&#x6b4;" horiz-adv-x="975" d="M534 874q-21 0 -35.5 14.5t-14.5 34.5t14.5 35t35.5 15q20 0 34.5 -15t14.5 -35t-14.5 -34.5t-34.5 -14.5zM639 800q-21 0 -35.5 14.5t-14.5 34.5t14.5 35t35.5 15q20 0 34.5 -15t14.5 -35t-14.5 -34.5t-34.5 -14.5zM524 749q-21 0 -35.5 14.5t-14.5 34.5t14.5 35 t35.5 15q20 0 34.5 -15t14.5 -35t-14.5 -34.5t-34.5 -14.5zM462 550l-37 56q58 35 152.5 91.5t223.5 123.5l28 -61q-130 -69 -218 -120.5t-149 -89.5zM390 -21q-178 0 -269 47t-91 156q0 37 9 78.5t19 78.5l75 -19q-6 -22 -13.5 -55.5t-7.5 -59.5q0 -52 26.5 -83.5t92.5 -46 t185 -14.5q125 0 196 13t100.5 32t29.5 35q0 24 -18 53t-46 59.5t-59.5 60.5t-59.5 55t-46 43.5t-18 26.5q0 23 5.5 43t15.5 31q27 29 79.5 60.5t120.5 65t139 68.5l34 -74q-88 -44 -172.5 -85t-147.5 -85q55 -47 103 -91t89 -94.5t75 -114.5q21 -39 49 -57t55.5 -23.5 t44.5 -5.5q21 0 30.5 -11.5t9.5 -27.5t-14 -29.5t-36 -13.5q-24 0 -56 6.5t-63.5 25t-55.5 54.5q-17 -22 -45 -41t-74.5 -32.5t-117.5 -21t-173 -7.5z" />
<glyph unicode="&#x6b5;" horiz-adv-x="260" d="M159 0h-169v63h106v381h63v-444zM102 848q-9 20 -25 53.5t-32.5 67t-29.5 54.5l46 25q7 -12 20 -36.5t27.5 -52t24.5 -49.5q11 26 24 55.5t24 53t16 31.5l45 -19q-5 -10 -16 -32.5t-23.5 -50t-24 -53t-17.5 -41.5z" />
<glyph unicode="&#x6b5;" horiz-adv-x="300" d="M158 63h53v-63h-221v63h106v383h62v-383zM116 848q-9 20 -25 53.5t-32.5 67t-29.5 54.5l46 25q7 -12 20 -36.5t27.5 -52t24.5 -49.5q11 26 24 55.5t24 53t16 31.5l45 -19q-5 -10 -16 -32.5t-23.5 -50t-24 -53t-17.5 -41.5z" />
<glyph unicode="&#x6b5;" horiz-adv-x="730" d="M443 63h53v-63h-53q-16 -75 -70 -123t-130 -48t-134.5 56t-58.5 138q0 54 28 101t76 75l33 -59q-34 -25 -53 -51.5t-19 -72t40 -85.5t92.5 -40t93 39.5t40.5 92.5v424h62v-384zM279 591q-9 20 -25 53.5t-32.5 67t-29.5 54.5l46 25q7 -12 20 -36.5t27.5 -52t24.5 -49.5 q11 26 24 55.5t24 53t16 31.5l45 -19q-5 -10 -16 -32.5t-23.5 -50t-24 -53t-17.5 -41.5z" />
<glyph unicode="&#x6b6;" horiz-adv-x="260" d="M159 0h-169v63h106v381h63v-444zM131 817q-21 0 -35.5 14.5t-14.5 34.5t14.5 35t35.5 15q20 0 34.5 -15t14.5 -35t-14.5 -34.5t-34.5 -14.5z" />
<glyph unicode="&#x6b6;" horiz-adv-x="300" d="M158 63h53v-63h-221v63h106v383h62v-383zM145 817q-21 0 -35.5 14.5t-14.5 34.5t14.5 35t35.5 15q20 0 34.5 -15t14.5 -35t-14.5 -34.5t-34.5 -14.5z" />
<glyph unicode="&#x6b6;" horiz-adv-x="730" d="M443 63h53v-63h-53q-16 -75 -70 -123t-130 -48t-134.5 56t-58.5 138q0 54 28 101t76 75l33 -59q-34 -25 -53 -51.5t-19 -72t40 -85.5t92.5 -40t93 39.5t40.5 92.5v424h62v-384zM308 560q-21 0 -35.5 14.5t-14.5 34.5t14.5 35t35.5 15q20 0 34.5 -15t14.5 -35t-14.5 -34.5 t-34.5 -14.5z" />
<glyph unicode="&#x6b7;" horiz-adv-x="260" d="M159 0h-169v63h106v381h63v-444zM133 927q-21 0 -35.5 14.5t-14.5 34.5t14.5 35t35.5 15q20 0 34.5 -15t14.5 -35t-14.5 -34.5t-34.5 -14.5zM65 817q-21 0 -35.5 14.5t-14.5 34.5t14.5 35t35.5 15q20 0 34.5 -15t14.5 -35t-14.5 -34.5t-34.5 -14.5zM201 817 q-21 0 -35.5 14.5t-14.5 34.5t14.5 35t35.5 15q20 0 34.5 -15t14.5 -35t-14.5 -34.5t-34.5 -14.5z" />
<glyph unicode="&#x6b7;" horiz-adv-x="300" d="M158 63h53v-63h-221v63h106v383h62v-383zM147 927q-21 0 -35.5 14.5t-14.5 34.5t14.5 35t35.5 15q20 0 34.5 -15t14.5 -35t-14.5 -34.5t-34.5 -14.5zM79 817q-21 0 -35.5 14.5t-14.5 34.5t14.5 35t35.5 15q20 0 34.5 -15t14.5 -35t-14.5 -34.5t-34.5 -14.5zM215 817 q-21 0 -35.5 14.5t-14.5 34.5t14.5 35t35.5 15q20 0 34.5 -15t14.5 -35t-14.5 -34.5t-34.5 -14.5z" />
<glyph unicode="&#x6b7;" horiz-adv-x="730" d="M443 63h53v-63h-53q-16 -75 -70 -123t-130 -48t-134.5 56t-58.5 138q0 54 28 101t76 75l33 -59q-34 -25 -53 -51.5t-19 -72t40 -85.5t92.5 -40t93 39.5t40.5 92.5v424h62v-384zM310 670q-21 0 -35.5 14.5t-14.5 34.5t14.5 35t35.5 15q20 0 34.5 -15t14.5 -35t-14.5 -34.5 t-34.5 -14.5zM242 560q-21 0 -35.5 14.5t-14.5 34.5t14.5 35t35.5 15q20 0 34.5 -15t14.5 -35t-14.5 -34.5t-34.5 -14.5zM378 560q-21 0 -35.5 14.5t-14.5 34.5t14.5 35t35.5 15q20 0 34.5 -15t14.5 -35t-14.5 -34.5t-34.5 -14.5z" />
<glyph unicode="&#x6b8;" horiz-adv-x="260" d="M159 0h-169v63h106v381h63v-444zM62 -189q-21 0 -35.5 14.5t-14.5 34.5t14.5 35t35.5 15q20 0 34.5 -15t14.5 -35t-14.5 -34.5t-34.5 -14.5zM198 -189q-21 0 -35.5 14.5t-14.5 34.5t14.5 35t35.5 15q20 0 34.5 -15t14.5 -35t-14.5 -34.5t-34.5 -14.5zM130 -299 q-21 0 -35.5 14.5t-14.5 34.5t14.5 35t35.5 15q20 0 34.5 -15t14.5 -35t-14.5 -34.5t-34.5 -14.5z" />
<glyph unicode="&#x6b8;" horiz-adv-x="300" d="M158 63h53v-63h-221v63h106v383h62v-383zM87 -189q-21 0 -35.5 14.5t-14.5 34.5t14.5 35t35.5 15q20 0 34.5 -15t14.5 -35t-14.5 -34.5t-34.5 -14.5zM223 -189q-21 0 -35.5 14.5t-14.5 34.5t14.5 35t35.5 15q20 0 34.5 -15t14.5 -35t-14.5 -34.5t-34.5 -14.5zM155 -299 q-21 0 -35.5 14.5t-14.5 34.5t14.5 35t35.5 15q20 0 34.5 -15t14.5 -35t-14.5 -34.5t-34.5 -14.5z" />
<glyph unicode="&#x6b8;" horiz-adv-x="730" d="M443 63h53v-63h-53q-16 -75 -70 -123t-130 -48t-134.5 56t-58.5 138q0 54 28 101t76 75l33 -59q-34 -25 -53 -51.5t-19 -72t40 -85.5t92.5 -40t93 39.5t40.5 92.5v424h62v-384zM230 -421q-21 0 -35.5 14.5t-14.5 34.5t14.5 35t35.5 15q20 0 34.5 -15t14.5 -35 t-14.5 -34.5t-34.5 -14.5zM366 -421q-21 0 -35.5 14.5t-14.5 34.5t14.5 35t35.5 15q20 0 34.5 -15t14.5 -35t-14.5 -34.5t-34.5 -14.5zM298 -531q-21 0 -35.5 14.5t-14.5 34.5t14.5 35t35.5 15q20 0 34.5 -15t14.5 -35t-14.5 -34.5t-34.5 -14.5z" />
<glyph unicode="&#x6b9;" horiz-adv-x="269" d="M180 0h-190v63h128v249h62v-312zM152.5 450q14.5 0 24.5 -10.5t10 -25t-10 -24.5t-24.5 -10t-25 10t-10.5 24.5t10.5 25t25 10.5zM107 -191q-21 0 -35.5 14.5t-14.5 34.5t14.5 35t35.5 15q20 0 34.5 -15t14.5 -35t-14.5 -34.5t-34.5 -14.5z" />
<glyph unicode="&#x6b9;" horiz-adv-x="343" d="M180 63h64v-63h-254v63h128v249h62v-249zM152.5 450q14.5 0 24.5 -10.5t10 -25t-10 -24.5t-24.5 -10t-25 10t-10.5 24.5t10.5 25t25 10.5zM170 -191q-21 0 -35.5 14.5t-14.5 34.5t14.5 35t35.5 15q20 0 34.5 -15t14.5 -35t-14.5 -34.5t-34.5 -14.5z" />
<glyph unicode="&#x6b9;" horiz-adv-x="730" d="M541 63v-63h-86q-30 -50 -78 -78t-106 -28h-5q-99 4 -157.5 69t-58.5 152q0 59 29.5 110t86.5 81l22 -49q-35 -18 -56.5 -58.5t-21.5 -92t39 -95t116 -49.5q66 0 111.5 44t45.5 108v198h66v-200l-5 -49h58zM293.5 322q14.5 0 24.5 -10.5t10 -25t-10 -24.5t-24.5 -10 t-25 10t-10.5 24.5t10.5 25t25 10.5zM313 -418q-21 0 -35.5 14.5t-14.5 34.5t14.5 35t35.5 15q20 0 34.5 -15t14.5 -35t-14.5 -34.5t-34.5 -14.5z" />
<glyph unicode="&#x6bc;" horiz-adv-x="299" d="M148 507q-21 0 -35.5 14.5t-14.5 34.5t14.5 35t35.5 15q20 0 34.5 -15t14.5 -35t-14.5 -34.5t-34.5 -14.5zM0 -5l10 82q59 0 92 4.5t47 23t14 58.5q0 38 -17.5 95.5t-39.5 114.5l81 30q13 -32 24.5 -73t19.5 -81t8 -70q0 -86 -40 -128q19 -12 30.5 -32t11.5 -44 q0 -37 -26 -63t-63 -26t-63 26t-26 63q0 12 3 23q-30 -3 -66 -3zM152 -63q17 0 29 11t12 27q0 17 -12 28.5t-29 11.5t-29 -11.5t-12 -28.5q0 -16 12 -27t29 -11z" />
<glyph unicode="&#x6bc;" horiz-adv-x="373" d="M197 386q-21 0 -35.5 14.5t-14.5 34.5t14.5 35t35.5 15q20 0 34.5 -15t14.5 -35t-14.5 -34.5t-34.5 -14.5zM0 -5l10 82q50 0 78 7.5t42.5 29t23.5 62.5t22 107l78 -15q-6 -27 -13.5 -62t-7.5 -59q0 -15 2 -28t15 -22t44 -14.5t89 -5.5q21 0 30.5 -11.5t9.5 -27.5 t-14 -29.5t-36 -13.5q-65 0 -101.5 7.5t-54 22t-25.5 36.5q-7 -11 -16 -20q18 -12 29 -31.5t11 -42.5q0 -37 -26 -63t-63 -26t-63 26t-26 63q0 15 5 29q-19 -1 -43 -1zM127 -71q17 0 29 11t12 27q0 17 -12 28.5t-29 11.5t-29 -11.5t-12 -28.5q0 -16 12 -27t29 -11z" />
<glyph unicode="&#x6bc;" horiz-adv-x="730" d="M332 398q-21 0 -35.5 14.5t-14.5 34.5t14.5 35t35.5 15q20 0 34.5 -15t14.5 -35t-14.5 -34.5t-34.5 -14.5zM30 -1q0 36 10 80t32 97l72 -28q-16 -42 -24 -77t-8 -65q0 -55 27.5 -89.5t74 -50.5t102.5 -16q91 0 142.5 25.5t73 65.5t21.5 85q0 66 -14.5 121.5t-31.5 114.5 l81 22q16 -57 22.5 -82.5t10.5 -41.5q11 -37 29 -54.5t41.5 -23t48.5 -5.5q21 0 30.5 -11.5t9.5 -27.5t-14 -29.5t-36 -13.5q-31 0 -54.5 8.5t-39.5 21.5q-6 -59 -31.5 -114t-81 -92.5t-151.5 -47.5q22 -11 36 -32.5t14 -47.5q0 -37 -26 -63t-63 -26t-63 26t-26 63 q0 25 12.5 45.5t32.5 32.5q-70 3 -129 29.5t-94.5 76.5t-35.5 124zM333 -347q17 0 29 11t12 27q0 17 -12 28.5t-29 11.5t-29 -11.5t-12 -28.5q0 -16 12 -27t29 -11z" />
<glyph unicode="&#x6bd;" horiz-adv-x="730" d="M30 -1q0 36 10 80t32 97l72 -28q-16 -42 -24 -77t-8 -65q0 -55 27.5 -89.5t74 -50.5t102.5 -16q91 0 142.5 25.5t73 65.5t21.5 85q0 66 -14.5 121.5t-31.5 114.5l81 22q16 -57 22.5 -82.5t10.5 -41.5q11 -37 29 -54.5t41.5 -23t48.5 -5.5q21 0 30.5 -11.5t9.5 -27.5 t-14 -29.5t-36 -13.5q-31 0 -54.5 8.5t-39.5 21.5q-5 -49 -23 -95t-54.5 -82.5t-96.5 -58t-149 -21.5q-75 0 -139.5 25t-104 76.5t-39.5 129.5zM334 508q-21 0 -35.5 14.5t-14.5 34.5t14.5 35t35.5 15q20 0 34.5 -15t14.5 -35t-14.5 -34.5t-34.5 -14.5zM266 398 q-21 0 -35.5 14.5t-14.5 34.5t14.5 35t35.5 15q20 0 34.5 -15t14.5 -35t-14.5 -34.5t-34.5 -14.5zM402 398q-21 0 -35.5 14.5t-14.5 34.5t14.5 35t35.5 15q20 0 34.5 -15t14.5 -35t-14.5 -34.5t-34.5 -14.5z" />
<glyph unicode="&#x6bf;" horiz-adv-x="589" d="M251 334q81 0 152 -71t82 -186q3 -41 3 -77h-498v63h435q-10 102 -63.5 155.5t-112.5 53.5t-108 -33l-38 50q67 45 148 45zM211 -189q-21 0 -35.5 14.5t-14.5 34.5t14.5 35t35.5 15q20 0 34.5 -15t14.5 -35t-14.5 -34.5t-34.5 -14.5zM347 -189q-21 0 -35.5 14.5 t-14.5 34.5t14.5 35t35.5 15q20 0 34.5 -15t14.5 -35t-14.5 -34.5t-34.5 -14.5zM279 -299q-21 0 -35.5 14.5t-14.5 34.5t14.5 35t35.5 15q20 0 34.5 -15t14.5 -35t-14.5 -34.5t-34.5 -14.5zM167 455q-21 0 -35.5 14.5t-14.5 34.5t14.5 35t35.5 15q20 0 34.5 -15t14.5 -35 t-14.5 -34.5t-34.5 -14.5z" />
<glyph unicode="&#x6bf;" horiz-adv-x="637" d="M243 334q90 0 157 -67q78 -81 86 -204h52v-63h-548v63h435q-10 102 -63.5 155.5t-112.5 53.5t-108 -33l-38 50q67 45 140 45zM193 -189q-21 0 -35.5 14.5t-14.5 34.5t14.5 35t35.5 15q20 0 34.5 -15t14.5 -35t-14.5 -34.5t-34.5 -14.5zM329 -189q-21 0 -35.5 14.5 t-14.5 34.5t14.5 35t35.5 15q20 0 34.5 -15t14.5 -35t-14.5 -34.5t-34.5 -14.5zM261 -299q-21 0 -35.5 14.5t-14.5 34.5t14.5 35t35.5 15q20 0 34.5 -15t14.5 -35t-14.5 -34.5t-34.5 -14.5zM157 455q-21 0 -35.5 14.5t-14.5 34.5t14.5 35t35.5 15q20 0 34.5 -15t14.5 -35 t-14.5 -34.5t-34.5 -14.5z" />
<glyph unicode="&#x6bf;" horiz-adv-x="719" d="M380 -394q-70 0 -136.5 16t-119 49.5t-83.5 84.5t-31 120q0 92 48 171t133 139.5t197 97.5q-49 16 -105.5 32.5t-141.5 16.5q-30 0 -52.5 -5t-42.5 -10l-14 74q26 11 58.5 17.5t65.5 6.5q52 0 91.5 -8.5t74.5 -20.5t71.5 -24.5t81.5 -21t106 -9.5h9l2 -82q-29 0 -60 -4 q7 -58 25 -92.5t44.5 -50.5t59.5 -21t68 -5q21 0 30.5 -11.5t9.5 -27.5t-13.5 -29.5t-35.5 -13.5q-43 0 -86.5 6t-80.5 29t-60.5 71.5t-26.5 132.5q-66 -15 -132.5 -45.5t-121 -74.5t-87.5 -101t-33 -127q0 -52 25 -89.5t67.5 -61.5t96 -35t109.5 -11q99 0 201 40l28 -68 q-58 -28 -119 -41.5t-120 -13.5zM271 -113q-21 0 -35.5 14.5t-14.5 34.5t14.5 35t35.5 15q20 0 34.5 -15t14.5 -35t-14.5 -34.5t-34.5 -14.5zM407 -113q-21 0 -35.5 14.5t-14.5 34.5t14.5 35t35.5 15q20 0 34.5 -15t14.5 -35t-14.5 -34.5t-34.5 -14.5zM339 -223 q-21 0 -35.5 14.5t-14.5 34.5t14.5 35t35.5 15q20 0 34.5 -15t14.5 -35t-14.5 -34.5t-34.5 -14.5zM312 519q-21 0 -35.5 14.5t-14.5 34.5t14.5 35t35.5 15q20 0 34.5 -15t14.5 -35t-14.5 -34.5t-34.5 -14.5z" />
<glyph unicode="&#x6c2;" horiz-adv-x="269" d="M0 -5l10 82q49 0 78 6t42 24.5t13 55.5q0 38 -17.5 95.5t-39.5 114.5l81 30q13 -32 24.5 -73t19.5 -81t8 -70q0 -100 -53.5 -142t-165.5 -42zM136 -27l26 -26q-43 -24 -44 -61h3q18 0 30 -8.5t12 -24.5q0 -13 -10 -27t-33 -14q-19 0 -32.5 14t-13.5 42q0 25 14.5 57 t47.5 48zM17 564l-12 54q15 3 26 6t21 5q-19 13 -33 34t-14 46q0 45 31.5 68t71.5 23q23 0 47 -8l-8 -50q-10 2 -19 4t-20 2q-49 0 -49 -36q0 -26 19.5 -43t38.5 -22q38 11 67 22l16 -51q-24 -9 -56.5 -19t-65.5 -19t-61 -16z" />
<glyph unicode="&#x6c2;" horiz-adv-x="438" d="M251 -269q-46 32 -76.5 83t-47 108.5t-20.5 106.5q-30 -34 -107 -34l9 82q16 0 36.5 3.5t41 19.5t35.5 56l67 -17q-14 -53 -11 -107.5t21 -103t48 -83.5q0 70 18.5 122t62.5 81t120 29q20 0 30 -11.5t10 -27.5t-13.5 -29.5t-34.5 -13.5q-55 0 -83 -22.5t-37.5 -69 t-9.5 -118.5zM66 293l-12 54q15 3 26 6t21 5q-19 13 -33 34t-14 46q0 45 31.5 68t71.5 23q23 0 47 -8l-8 -50q-10 2 -19 4t-20 2q-49 0 -49 -36q0 -26 19.5 -43t38.5 -22q38 11 67 22l16 -51q-24 -9 -56.5 -19t-65.5 -19t-61 -16z" />
<glyph unicode="&#x6c2;" horiz-adv-x="479" d="M479 -5q-57 0 -91.5 17t-56 47.5t-37.5 72.5t-34 91q-4 13 -19 18t-32 5q-26 0 -51.5 -11t-42 -33t-16.5 -54q0 -28 8.5 -53.5t19.5 -57.5l-72 -20q-13 35 -24 65.5t-11 73.5q0 55 31 93.5t78 58.5t94 20q17 0 36.5 -3t36 -14.5t24.5 -36.5q16 -45 28.5 -81.5t28.5 -62.5 t42.5 -39.5t69.5 -13.5q21 0 30.5 -11.5t9.5 -27.5t-14 -29.5t-36 -13.5zM105 440l-12 54q15 3 26 6t21 5q-19 13 -33 34t-14 46q0 45 31.5 68t71.5 23q23 0 47 -8l-8 -50q-10 2 -19 4t-20 2q-49 0 -49 -36q0 -26 19.5 -43t38.5 -22q38 11 67 22l16 -51q-24 -9 -56.5 -19 t-65.5 -19t-61 -16z" />
<glyph unicode="&#x6c3;" horiz-adv-x="479" d="M479 -5q-57 0 -91.5 17t-56 47.5t-37.5 72.5t-34 91q-4 13 -19 18t-32 5q-26 0 -51.5 -11t-42 -33t-16.5 -54q0 -28 8.5 -53.5t19.5 -57.5l-72 -20q-13 35 -24 65.5t-11 73.5q0 55 31 93.5t78 58.5t94 20q17 0 36.5 -3t36 -14.5t24.5 -36.5q16 -45 28.5 -81.5t28.5 -62.5 t42.5 -39.5t69.5 -13.5q21 0 30.5 -11.5t9.5 -27.5t-14 -29.5t-36 -13.5zM266 433q-21 0 -35.5 14.5t-14.5 34.5t14.5 35t35.5 15q20 0 34.5 -15t14.5 -35t-14.5 -34.5t-34.5 -14.5zM129 433q-21 0 -35.5 14.5t-14.5 34.5t14.5 35t35.5 15q20 0 34.5 -15t14.5 -35 t-14.5 -34.5t-34.5 -14.5z" />
<glyph unicode="&#x6c4;" horiz-adv-x="472" d="M482 77q21 0 30.5 -11.5t9.5 -27.5t-14 -29.5t-36 -13.5h-81q-13 -83 -57.5 -132.5t-112.5 -72t-151 -22.5h-12t-12 1l-6 79q10 0 19 1q-12 21 -12 45q0 37 26 63t63 26t63 -26t26 -63q0 -8 -1 -15q32 16 53 44t30 72h-74q-45 0 -83.5 13t-62 40.5t-23.5 72.5q0 38 13 75 t35.5 67.5t53 49t66.5 18.5q67 0 114 -61t50 -193h86zM271 77h43q0 83 -26 128t-64 45q-21 0 -39 -16t-29.5 -42t-11.5 -55q0 -35 31.5 -47.5t95.5 -12.5zM136 -144q17 0 29 11t12 27q0 17 -12 28.5t-29 11.5t-29 -11.5t-12 -28.5q0 -16 12 -27t29 -11z" />
<glyph unicode="&#x6ca;" horiz-adv-x="472" d="M218 255q-45 0 -72 -28.5t-27 -69.5q0 -98 128 -98q20 0 54 4q11 24 11 68t-24.5 84t-69.5 40zM242 0q-90 0 -141 43t-51 113t41.5 116t125.5 46t123.5 -52.5t39.5 -126.5q0 -37 -11 -76h58v-63h-73q-32 -79 -106 -166l-53 43q58 60 90 125q-15 -2 -43 -2zM303 434 q-21 0 -35.5 14.5t-14.5 34.5t14.5 35t35.5 15q20 0 34.5 -15t14.5 -35t-14.5 -34.5t-34.5 -14.5zM166 434q-21 0 -35.5 14.5t-14.5 34.5t14.5 35t35.5 15q20 0 34.5 -15t14.5 -35t-14.5 -34.5t-34.5 -14.5z" />
<glyph unicode="&#x6cd;" horiz-adv-x="850" d="M440 -269q-79 0 -146.5 23.5t-108.5 75t-41 135.5q0 14 3 39.5t14 60.5l-151 -54l9 82l182 64l68 -31q-23 -47 -33.5 -81t-10.5 -65q0 -62 32.5 -99t86.5 -53t118 -16q77 0 140.5 21t101.5 59t38 88q0 26 -40 45t-112 39l19 83q104 -40 162 -55t89 -15q21 0 30.5 -11.5 t9.5 -27.5t-14 -29.5t-36 -13.5h-37q2 -9 3 -14.5t1 -14.5q0 -64 -45 -117.5t-129.5 -85.5t-202.5 -32z" />
<glyph unicode="&#x6ce;" horiz-adv-x="299" d="M119 538q-9 20 -25 53.5t-32.5 67t-29.5 54.5l46 25q7 -12 20 -36.5t27.5 -52t24.5 -49.5q11 26 24 55.5t24 53t16 31.5l45 -19q-5 -10 -16 -32.5t-23.5 -50t-24 -53t-17.5 -41.5zM0 -5l10 82q59 0 92 4.5t47 23t14 58.5q0 38 -17.5 95.5t-39.5 114.5l81 30 q13 -32 24.5 -73t19.5 -81t8 -70q0 -100 -56 -142t-183 -42zM185 -194q-21 0 -35.5 14.5t-14.5 34.5t14.5 35t35.5 15q20 0 34.5 -15t14.5 -35t-14.5 -34.5t-34.5 -14.5zM48 -194q-21 0 -35.5 14.5t-14.5 34.5t14.5 35t35.5 15q20 0 34.5 -15t14.5 -35t-14.5 -34.5 t-34.5 -14.5z" />
<glyph unicode="&#x6ce;" horiz-adv-x="373" d="M168 417q-9 20 -25 53.5t-32.5 67t-29.5 54.5l46 25q7 -12 20 -36.5t27.5 -52t24.5 -49.5q11 26 24 55.5t24 53t16 31.5l45 -19q-5 -10 -16 -32.5t-23.5 -50t-24 -53t-17.5 -41.5zM0 -5l10 82q50 0 78 7.5t42.5 29t23.5 62.5t22 107l78 -15q-6 -27 -13.5 -62t-7.5 -59 q0 -15 2 -28t15 -22t44 -14.5t89 -5.5q21 0 30.5 -11.5t9.5 -27.5t-14 -29.5t-36 -13.5q-65 0 -101.5 7.5t-54 22t-25.5 36.5q-29 -41 -71.5 -53.5t-120.5 -12.5zM252 -194q-21 0 -35.5 14.5t-14.5 34.5t14.5 35t35.5 15q20 0 34.5 -15t14.5 -35t-14.5 -34.5t-34.5 -14.5z M115 -194q-21 0 -35.5 14.5t-14.5 34.5t14.5 35t35.5 15q20 0 34.5 -15t14.5 -35t-14.5 -34.5t-34.5 -14.5z" />
<glyph unicode="&#x6ce;" horiz-adv-x="736" d="M112 156q0 -35 27.5 -64t64.5 -29h190v128q0 48 36 84.5t84 36.5h102v-249h64v-63h-126v250h-40q-21 0 -39.5 -18t-18.5 -41v-191h-252q-66 0 -110 46.5t-44 111.5t38.5 108t100.5 48v-62q-32 -6 -54.5 -33.5t-22.5 -62.5zM188 284q-9 20 -25 53.5t-32.5 67t-29.5 54.5 l46 25q7 -12 20 -36.5t27.5 -52t24.5 -49.5q11 26 24 55.5t24 53t16 31.5l45 -19q-5 -10 -16 -32.5t-23.5 -50t-24 -53t-17.5 -41.5z" />
<glyph unicode="&#x6cf;" horiz-adv-x="472" d="M218 255q-45 0 -72 -28.5t-27 -69.5q0 -98 128 -98q20 0 54 4q11 24 11 68t-24.5 84t-69.5 40zM242 0q-90 0 -141 43t-51 113t41.5 116t125.5 46t123.5 -52.5t39.5 -126.5q0 -37 -11 -76h58v-63h-73q-32 -79 -106 -166l-53 43q58 60 90 125q-15 -2 -43 -2zM233 434 q-21 0 -35.5 14.5t-14.5 34.5t14.5 35t35.5 15q20 0 34.5 -15t14.5 -35t-14.5 -34.5t-34.5 -14.5z" />
<glyph unicode="&#x6d1;" horiz-adv-x="736" d="M112 156q0 -35 27.5 -64t64.5 -29h190v128q0 48 36 84.5t84 36.5h102v-249h64v-63h-126v250h-40q-21 0 -39.5 -18t-18.5 -41v-191h-252q-66 0 -110 46.5t-44 111.5t38.5 108t100.5 48v-62q-32 -6 -54.5 -33.5t-22.5 -62.5zM258 -421q-21 0 -35.5 14.5t-14.5 34.5t14.5 35 t35.5 15q20 0 34.5 -15t14.5 -35t-14.5 -34.5t-34.5 -14.5zM394 -421q-21 0 -35.5 14.5t-14.5 34.5t14.5 35t35.5 15q20 0 34.5 -15t14.5 -35t-14.5 -34.5t-34.5 -14.5zM326 -531q-21 0 -35.5 14.5t-14.5 34.5t14.5 35t35.5 15q20 0 34.5 -15t14.5 -35t-14.5 -34.5 t-34.5 -14.5z" />
<glyph unicode="&#x6ee;" horiz-adv-x="532" d="M438 63v-63h-388v63h272q-3 97 -52 145.5t-121 48.5q-37 0 -76 -11v60q45 15 88 15q89 0 150.5 -64.5t74.5 -193.5h52zM186 779l59 6q9 -20 25 -53.5t33 -67t29 -54.5l-46 -25q-7 12 -20 36.5t-27.5 52t-24.5 49.5q-11 -26 -24 -55.5t-24 -53t-16 -31.5l-45 19 q5 10 16 32.5t24 50t24 53t17 41.5z" />
<glyph unicode="&#x6ef;" horiz-adv-x="396" d="M226 63v-63h-71q-37 -99 -101 -166l-54 41q86 104 104.5 217.5t-30.5 219.5h73q48 -127 23 -249h56zM128 673l59 6q9 -20 25 -53.5t33 -67t29 -54.5l-46 -25q-7 12 -20 36.5t-27.5 52t-24.5 49.5q-11 -26 -24 -55.5t-24 -53t-16 -31.5l-45 19q5 10 16 32.5t24 50t24 53 t17 41.5z" />
<glyph unicode="&#x6fa;" horiz-adv-x="784" d="M552 118q0 -52 -39 -90.5t-92 -38.5t-97 46q-37 -46 -91.5 -46t-93.5 37q-25 -26 -54 -26h-95v63h107v249h65v-188q0 -28 19 -47.5t46 -19.5t46.5 19.5t19.5 47.5v188h63v-188q0 -26 20.5 -46.5t47 -20.5t46.5 19.5t20 47.5v188h62v-194zM431 545q-21 0 -35.5 14.5 t-14.5 34.5t14.5 35t35.5 15q20 0 34.5 -15t14.5 -35t-14.5 -34.5t-34.5 -14.5zM363 435q-21 0 -35.5 14.5t-14.5 34.5t14.5 35t35.5 15q20 0 34.5 -15t14.5 -35t-14.5 -34.5t-34.5 -14.5zM499 435q-21 0 -35.5 14.5t-14.5 34.5t14.5 35t35.5 15q20 0 34.5 -15t14.5 -35 t-14.5 -34.5t-34.5 -14.5zM386 -191q-21 0 -35.5 14.5t-14.5 34.5t14.5 35t35.5 15q20 0 34.5 -15t14.5 -35t-14.5 -34.5t-34.5 -14.5z" />
<glyph unicode="&#x6fa;" horiz-adv-x="850" d="M552 63h53v-63h-43q-19 0 -48 26q-42 -37 -94 -37t-96 46q-37 -46 -91.5 -46t-93.5 37q-25 -26 -54 -26h-95v63h107v249h65v-188q0 -28 19 -47.5t46 -19.5t46.5 19.5t19.5 47.5v188h63v-188q0 -26 20.5 -46.5t47 -20.5t46.5 19.5t20 47.5v188h62v-249zM431 545 q-21 0 -35.5 14.5t-14.5 34.5t14.5 35t35.5 15q20 0 34.5 -15t14.5 -35t-14.5 -34.5t-34.5 -14.5zM363 435q-21 0 -35.5 14.5t-14.5 34.5t14.5 35t35.5 15q20 0 34.5 -15t14.5 -35t-14.5 -34.5t-34.5 -14.5zM499 435q-21 0 -35.5 14.5t-14.5 34.5t14.5 35t35.5 15 q20 0 34.5 -15t14.5 -35t-14.5 -34.5t-34.5 -14.5zM386 -191q-21 0 -35.5 14.5t-14.5 34.5t14.5 35t35.5 15q20 0 34.5 -15t14.5 -35t-14.5 -34.5t-34.5 -14.5z" />
<glyph unicode="&#x6fa;" horiz-adv-x="1269" d="M833 136q0 -26 14.5 -46t38.5 -25v-65q-26 0 -42 8.5t-41 31.5q-40 -52 -103 -52q-49 0 -99 45q-37 -45 -97 -45q-33 0 -65 18q-8 -76 -64 -129t-138 -53t-134.5 58.5t-52.5 138.5q0 115 100 174l33 -57q-69 -44 -69 -122q0 -50 36 -88q37 -39 92.5 -39t95 40.5 t39.5 92.5v289h63v-188q0 -28 18.5 -47.5t46 -19.5t47 19.5t19.5 47.5v188h62v-188q0 -26 20.5 -46.5t46.5 -20.5t46.5 19.5t20.5 47.5v188h66v-175zM824 545q-21 0 -35.5 14.5t-14.5 34.5t14.5 35t35.5 15q20 0 34.5 -15t14.5 -35t-14.5 -34.5t-34.5 -14.5zM756 435 q-21 0 -35.5 14.5t-14.5 34.5t14.5 35t35.5 15q20 0 34.5 -15t14.5 -35t-14.5 -34.5t-34.5 -14.5zM892 435q-21 0 -35.5 14.5t-14.5 34.5t14.5 35t35.5 15q20 0 34.5 -15t14.5 -35t-14.5 -34.5t-34.5 -14.5zM848 -186q-21 0 -35.5 14.5t-14.5 34.5t14.5 35t35.5 15 q20 0 34.5 -15t14.5 -35t-14.5 -34.5t-34.5 -14.5z" />
<glyph unicode="&#x6fb;" horiz-adv-x="903" d="M365.5 259q-75.5 0 -130 -60t-47.5 -136h357q7 77 -48.5 136.5t-131 59.5zM370 320q73 0 126.5 -33t77.5 -84q49 -101 38 -203h-622v63h107v245h62v-105q45 59 91.5 88t119.5 29zM370.5 430q14.5 0 24.5 -10.5t10 -25t-10 -24.5t-24.5 -10t-25 10t-10.5 24.5t10.5 25 t25 10.5zM484 -204q-21 0 -35.5 14.5t-14.5 34.5t14.5 35t35.5 15q20 0 34.5 -15t14.5 -35t-14.5 -34.5t-34.5 -14.5z" />
<glyph unicode="&#x6fb;" horiz-adv-x="949" d="M365 259q-76 0 -130.5 -60t-47.5 -136h357q7 77 -48 136.5t-131 59.5zM365 321q106 0 177 -75.5t73 -182.5h53v-63h-678v63h106v245h62v-105q47 60 92 89t115 29zM370.5 430q14.5 0 24.5 -10.5t10 -25t-10 -24.5t-24.5 -10t-25 10t-10.5 24.5t10.5 25t25 10.5zM484 -204 q-21 0 -35.5 14.5t-14.5 34.5t14.5 35t35.5 15q20 0 34.5 -15t14.5 -35t-14.5 -34.5t-34.5 -14.5z" />
<glyph unicode="&#x6fb;" horiz-adv-x="1352" d="M655 259q-76 0 -130 -60t-47 -136h357q7 77 -48.5 136.5t-131.5 59.5zM182 138q-70 -42 -70 -129q0 -43 36 -80.5t92.5 -37.5t96.5 39t40 92v290h58v-136q33 65 89 105t131 40q106 0 177 -75.5t73 -182.5h53v-63h-523v-14q-14 -68 -69 -114.5t-125 -46.5q-87 0 -139 58.5 t-52 138.5q0 115 100 174zM662.5 430q14.5 0 24.5 -10.5t10 -25t-10 -24.5t-24.5 -10t-25 10t-10.5 24.5t10.5 25t25 10.5zM904 -199q-21 0 -35.5 14.5t-14.5 34.5t14.5 35t35.5 15q20 0 34.5 -15t14.5 -35t-14.5 -34.5t-34.5 -14.5z" />
<glyph unicode="&#x6fc;" horiz-adv-x="503" d="M261 313q65 0 115 -44l-37 -51q-35 37 -78 37t-68 -28.5t-25 -69.5t33.5 -67.5t76.5 -26.5h117v-63h-405v63h139q-32 51 -32 99q0 64 49.5 107.5t114.5 43.5zM261.5 430q14.5 0 24.5 -10.5t10 -25t-10 -24.5t-24.5 -10t-25 10t-10.5 24.5t10.5 25t25 10.5zM279 -191 q-21 0 -35.5 14.5t-14.5 34.5t14.5 35t35.5 15q20 0 34.5 -15t14.5 -35t-14.5 -34.5t-34.5 -14.5z" />
<glyph unicode="&#x6fc;" horiz-adv-x="521" d="M97 162q0 64 49 107.5t114 43.5t115 -44l-36 -51q-35 37 -78 37t-68 -28.5t-25 -69.5t33.5 -67.5t76.5 -26.5h155v-63h-443v63h138q-31 55 -31 99zM261.5 430q14.5 0 24.5 -10.5t10 -25t-10 -24.5t-24.5 -10t-25 10t-10.5 24.5t10.5 25t25 10.5zM251 -191 q-21 0 -35.5 14.5t-14.5 34.5t14.5 35t35.5 15q20 0 34.5 -15t14.5 -35t-14.5 -34.5t-34.5 -14.5z" />
<glyph unicode="&#x6fc;" horiz-adv-x="531" d="M50 -86q0 65 33 99q30 38 109 53q-29 46 -29 95q0 67 48 108q50 46 114.5 46t116.5 -46l-37 -51q-38 38 -78.5 38t-68 -28.5t-27.5 -66t27 -64.5q31 -34 87 -34h155v-63h-262q-51 0 -86.5 -22t-35.5 -66t22 -71h-74q-14 34 -14 73zM303 -188q-21 0 -35.5 14.5t-14.5 34.5 t14.5 35t35.5 15q20 0 34.5 -15t14.5 -35t-14.5 -34.5t-34.5 -14.5zM295 514q-21 0 -35.5 14.5t-14.5 34.5t14.5 35t35.5 15q20 0 34.5 -15t14.5 -35t-14.5 -34.5t-34.5 -14.5z" />
<glyph unicode="&#x6ff;" horiz-adv-x="574" d="M313 63v193q-65 -13 -110.5 -69.5t-38.5 -123.5h149zM375 63h151q6 68 -39.5 126t-111.5 69v-195zM596 40q0 -16 -2 -40h-604v63h106q7 100 65.5 173.5t151.5 83.5v93h62v-92q100 -9 160.5 -91t60.5 -190zM203 779l59 6q9 -20 25 -53.5t33 -67t29 -54.5l-46 -25 q-7 12 -20 36.5t-27.5 52t-24.5 49.5q-11 -26 -24 -55.5t-24 -53t-16 -31.5l-45 19q5 10 16 32.5t24 50t24 53t17 41.5z" />
<glyph unicode="&#x6ff;" horiz-adv-x="507" d="M313 63v192q-66 -13 -111 -69t-38 -123h149zM375 63h151q6 68 -39.5 125.5t-111.5 68.5v-194zM647 63v-63h-657v63h106q7 99 65.5 172.5t151.5 83.5v93h62v-93q94 -6 153.5 -80t66.5 -176h52zM247 738l59 6q9 -20 25 -53.5t33 -67t29 -54.5l-46 -25q-7 12 -20 36.5 t-27.5 52t-24.5 49.5q-11 -26 -24 -55.5t-24 -53t-16 -31.5l-45 19q5 10 16 32.5t24 50t24 53t17 41.5z" />
<glyph unicode="&#x6ff;" horiz-adv-x="614" d="M152 -5q-38 0 -71 8t-66 23l23 67q34 -11 65 -15.5t65 -4.5h22q3 76 22.5 139t49.5 108.5t65.5 70.5t71.5 25q49 0 84 -43t35 -122q0 -37 -14 -78.5t-53 -74.5q40 -9 82.5 -15t90.5 -6q21 0 30.5 -11.5t9.5 -27.5t-14 -29.5t-36 -13.5q-34 0 -77 5q23 -34 25.5 -71.5 t-14 -70.5t-50 -54t-84.5 -21q-86 0 -148 53t-74 161q-21 -2 -40 -2zM392 334q-20 0 -47 -32t-49 -88.5t-26 -129.5q48 7 85.5 24.5t59 49.5t21.5 84q0 21 -4.5 42t-14.5 35.5t-25 14.5zM416 -135q26 0 51 15t25 55q0 25 -12.5 45.5t-43.5 33.5t-88 13q-17 0 -36 -2.5 t-40 -6.5q6 -50 22 -80t37.5 -46t43.5 -21.5t41 -5.5zM365 738l59 6q9 -20 25 -53.5t33 -67t29 -54.5l-46 -25q-7 12 -20 36.5t-27.5 52t-24.5 49.5q-11 -26 -24 -55.5t-24 -53t-16 -31.5l-45 19q5 10 16 32.5t24 50t24 53t17 41.5z" />
<glyph unicode="&#x671;" horiz-adv-x="235" arabic-form="isolated" d="M103 731q-22 0 -52.5 2t-57.5 5.5t-41 5.5l7 51q9 -1 23 -3t31 -3q14 30 34.5 60t48 50.5t64.5 20.5q32 0 60.5 -20t28.5 -67q0 -24 -12 -47.5t-43.5 -39t-90.5 -15.5zM156 866q-25 0 -48 -23t-42 -59q21 -1 37 -1q57 0 74.5 13t17.5 32q0 20 -12 29t-27 9zM89 0l-17 644 h81l17 -644h-81z" />
<glyph unicode="&#x671;" horiz-adv-x="235" arabic-form="final" d="M103 731q-22 0 -52.5 2t-57.5 5.5t-41 5.5l7 51q9 -1 23 -3t31 -3q14 30 34.5 60t48 50.5t64.5 20.5q32 0 60.5 -20t28.5 -67q0 -24 -12 -47.5t-43.5 -39t-90.5 -15.5zM156 866q-25 0 -48 -23t-42 -59q21 -1 37 -1q57 0 74.5 13t17.5 32q0 20 -12 29t-27 9zM89 0l-17 644 h81l17 -644h-81z" />
<glyph unicode="&#x67b;" horiz-adv-x="993" arabic-form="isolated" d="M390 -21q-178 0 -269 47t-91 156q0 37 9 78.5t19 78.5l75 -19q-6 -22 -13.5 -55.5t-7.5 -59.5q0 -52 26.5 -83.5t92.5 -46t185 -14.5q233 0 340.5 25.5t107.5 94.5q0 38 -14 88t-36 107l77 27q19 -49 35.5 -105t16.5 -101q0 -59 -27 -100.5t-90 -67.5t-169.5 -38 t-266.5 -12zM486 -212q-21 0 -35.5 14.5t-14.5 34.5t14.5 35t35.5 15q20 0 34.5 -15t14.5 -35t-14.5 -34.5t-34.5 -14.5zM487 -341q-21 0 -35.5 14.5t-14.5 34.5t14.5 35t35.5 15q20 0 34.5 -15t14.5 -35t-14.5 -34.5t-34.5 -14.5z" />
<glyph unicode="&#x67b;" horiz-adv-x="1093" arabic-form="final" d="M390 -21q-178 0 -269 47t-91 156q0 37 9 78.5t19 78.5l75 -19q-6 -22 -13.5 -55.5t-7.5 -59.5q0 -52 26.5 -83.5t92.5 -46t185 -14.5q61 0 129 7.5t135.5 27t128.5 53.5t107 86l63 -37q-9 -23 -12 -36.5t-3 -24.5q0 -15 11 -28.5t41.5 -22.5t86.5 -9q21 0 30.5 -11.5 t9.5 -27.5t-14 -29.5t-36 -13.5q-88 0 -144.5 26t-57.5 85q-83 -64 -215 -95.5t-286 -31.5zM463 -212q-21 0 -35.5 14.5t-14.5 34.5t14.5 35t35.5 15q20 0 34.5 -15t14.5 -35t-14.5 -34.5t-34.5 -14.5zM464 -341q-21 0 -35.5 14.5t-14.5 34.5t14.5 35t35.5 15q20 0 34.5 -15 t14.5 -35t-14.5 -34.5t-34.5 -14.5z" />
<glyph unicode="&#x67b;" horiz-adv-x="269" arabic-form="initial" d="M0 -5l10 82q49 0 78 6t42 24.5t13 55.5q0 38 -17.5 95.5t-39.5 114.5l81 30q13 -32 24.5 -73t19.5 -81t8 -70q0 -100 -53.5 -142t-165.5 -42zM107 -192q-21 0 -35.5 14.5t-14.5 34.5t14.5 35t35.5 15q20 0 34.5 -15t14.5 -35t-14.5 -34.5t-34.5 -14.5zM108 -321 q-21 0 -35.5 14.5t-14.5 34.5t14.5 35t35.5 15q20 0 34.5 -15t14.5 -35t-14.5 -34.5t-34.5 -14.5z" />
<glyph unicode="&#x67b;" horiz-adv-x="343" arabic-form="medial" d="M0 -5l10 82q42 0 66 7.5t36.5 29t21.5 62.5t22 107l78 -15q-6 -27 -13.5 -62t-7.5 -59q0 -20 9 -36t39 -25t92 -9q21 0 30.5 -11.5t9.5 -27.5t-14 -29.5t-36 -13.5q-79 0 -117 17t-52 51q-30 -42 -69 -55t-105 -13zM170 -192q-21 0 -35.5 14.5t-14.5 34.5t14.5 35 t35.5 15q20 0 34.5 -15t14.5 -35t-14.5 -34.5t-34.5 -14.5zM171 -321q-21 0 -35.5 14.5t-14.5 34.5t14.5 35t35.5 15q20 0 34.5 -15t14.5 -35t-14.5 -34.5t-34.5 -14.5z" />
<glyph unicode="&#x67e;" horiz-adv-x="993" arabic-form="isolated" d="M390 -21q-178 0 -269 47t-91 156q0 37 9 78.5t19 78.5l75 -19q-6 -22 -13.5 -55.5t-7.5 -59.5q0 -52 26.5 -83.5t92.5 -46t185 -14.5q233 0 340.5 25.5t107.5 94.5q0 38 -14 88t-36 107l77 27q19 -49 35.5 -105t16.5 -101q0 -59 -27 -100.5t-90 -67.5t-169.5 -38 t-266.5 -12zM418 -214q-21 0 -35.5 14.5t-14.5 34.5t14.5 35t35.5 15q20 0 34.5 -15t14.5 -35t-14.5 -34.5t-34.5 -14.5zM554 -214q-21 0 -35.5 14.5t-14.5 34.5t14.5 35t35.5 15q20 0 34.5 -15t14.5 -35t-14.5 -34.5t-34.5 -14.5zM486 -324q-21 0 -35.5 14.5t-14.5 34.5 t14.5 35t35.5 15q20 0 34.5 -15t14.5 -35t-14.5 -34.5t-34.5 -14.5z" />
<glyph unicode="&#x67e;" horiz-adv-x="1093" arabic-form="final" d="M390 -21q-178 0 -269 47t-91 156q0 37 9 78.5t19 78.5l75 -19q-6 -22 -13.5 -55.5t-7.5 -59.5q0 -52 26.5 -83.5t92.5 -46t185 -14.5q61 0 129 7.5t135.5 27t128.5 53.5t107 86l63 -37q-9 -23 -12 -36.5t-3 -24.5q0 -15 11 -28.5t41.5 -22.5t86.5 -9q21 0 30.5 -11.5 t9.5 -27.5t-14 -29.5t-36 -13.5q-88 0 -144.5 26t-57.5 85q-83 -64 -215 -95.5t-286 -31.5zM395 -214q-21 0 -35.5 14.5t-14.5 34.5t14.5 35t35.5 15q20 0 34.5 -15t14.5 -35t-14.5 -34.5t-34.5 -14.5zM531 -214q-21 0 -35.5 14.5t-14.5 34.5t14.5 35t35.5 15q20 0 34.5 -15 t14.5 -35t-14.5 -34.5t-34.5 -14.5zM463 -324q-21 0 -35.5 14.5t-14.5 34.5t14.5 35t35.5 15q20 0 34.5 -15t14.5 -35t-14.5 -34.5t-34.5 -14.5z" />
<glyph unicode="&#x67e;" horiz-adv-x="299" arabic-form="initial" d="M0 -5l10 82q59 0 92 4.5t47 23t14 58.5q0 38 -17.5 95.5t-39.5 114.5l81 30q13 -32 24.5 -73t19.5 -81t8 -70q0 -100 -56 -142t-183 -42zM45 -194q-21 0 -35.5 14.5t-14.5 34.5t14.5 35t35.5 15q20 0 34.5 -15t14.5 -35t-14.5 -34.5t-34.5 -14.5zM181 -194 q-21 0 -35.5 14.5t-14.5 34.5t14.5 35t35.5 15q20 0 34.5 -15t14.5 -35t-14.5 -34.5t-34.5 -14.5zM113 -304q-21 0 -35.5 14.5t-14.5 34.5t14.5 35t35.5 15q20 0 34.5 -15t14.5 -35t-14.5 -34.5t-34.5 -14.5z" />
<glyph unicode="&#x67e;" horiz-adv-x="373" arabic-form="medial" d="M0 -5l10 82q50 0 78 7.5t42.5 29t23.5 62.5t22 107l78 -15q-6 -27 -13.5 -62t-7.5 -59q0 -15 2 -28t15 -22t44 -14.5t89 -5.5q21 0 30.5 -11.5t9.5 -27.5t-14 -29.5t-36 -13.5q-65 0 -101.5 7.5t-54 22t-25.5 36.5q-29 -41 -71.5 -53.5t-120.5 -12.5zM112 -194 q-21 0 -35.5 14.5t-14.5 34.5t14.5 35t35.5 15q20 0 34.5 -15t14.5 -35t-14.5 -34.5t-34.5 -14.5zM248 -194q-21 0 -35.5 14.5t-14.5 34.5t14.5 35t35.5 15q20 0 34.5 -15t14.5 -35t-14.5 -34.5t-34.5 -14.5zM180 -304q-21 0 -35.5 14.5t-14.5 34.5t14.5 35t35.5 15 q20 0 34.5 -15t14.5 -35t-14.5 -34.5t-34.5 -14.5z" />
<glyph unicode="&#x680;" horiz-adv-x="993" arabic-form="isolated" d="M390 -21q-178 0 -269 47t-91 156q0 37 9 78.5t19 78.5l75 -19q-6 -22 -13.5 -55.5t-7.5 -59.5q0 -52 26.5 -83.5t92.5 -46t185 -14.5q233 0 340.5 25.5t107.5 94.5q0 38 -14 88t-36 107l77 27q19 -49 35.5 -105t16.5 -101q0 -59 -27 -100.5t-90 -67.5t-169.5 -38 t-266.5 -12zM558 -212q-21 0 -35.5 14.5t-14.5 34.5t14.5 35t35.5 15q20 0 34.5 -15t14.5 -35t-14.5 -34.5t-34.5 -14.5zM422 -212q-21 0 -35.5 14.5t-14.5 34.5t14.5 35t35.5 15q20 0 34.5 -15t14.5 -35t-14.5 -34.5t-34.5 -14.5zM558 -337q-21 0 -35.5 14.5t-14.5 34.5 t14.5 35t35.5 15q20 0 34.5 -15t14.5 -35t-14.5 -34.5t-34.5 -14.5zM422 -337q-21 0 -35.5 14.5t-14.5 34.5t14.5 35t35.5 15q20 0 34.5 -15t14.5 -35t-14.5 -34.5t-34.5 -14.5z" />
<glyph unicode="&#x680;" horiz-adv-x="1093" arabic-form="final" d="M390 -21q-178 0 -269 47t-91 156q0 37 9 78.5t19 78.5l75 -19q-6 -22 -13.5 -55.5t-7.5 -59.5q0 -52 26.5 -83.5t92.5 -46t185 -14.5q61 0 129 7.5t135.5 27t128.5 53.5t107 86l63 -37q-9 -23 -12 -36.5t-3 -24.5q0 -15 11 -28.5t41.5 -22.5t86.5 -9q21 0 30.5 -11.5 t9.5 -27.5t-14 -29.5t-36 -13.5q-88 0 -144.5 26t-57.5 85q-83 -64 -215 -95.5t-286 -31.5zM535 -212q-21 0 -35.5 14.5t-14.5 34.5t14.5 35t35.5 15q20 0 34.5 -15t14.5 -35t-14.5 -34.5t-34.5 -14.5zM399 -212q-21 0 -35.5 14.5t-14.5 34.5t14.5 35t35.5 15q20 0 34.5 -15 t14.5 -35t-14.5 -34.5t-34.5 -14.5zM535 -337q-21 0 -35.5 14.5t-14.5 34.5t14.5 35t35.5 15q20 0 34.5 -15t14.5 -35t-14.5 -34.5t-34.5 -14.5zM399 -337q-21 0 -35.5 14.5t-14.5 34.5t14.5 35t35.5 15q20 0 34.5 -15t14.5 -35t-14.5 -34.5t-34.5 -14.5z" />
<glyph unicode="&#x680;" horiz-adv-x="299" arabic-form="initial" d="M0 -5l10 82q59 0 92 4.5t47 23t14 58.5q0 38 -17.5 95.5t-39.5 114.5l81 30q13 -32 24.5 -73t19.5 -81t8 -70q0 -100 -56 -142t-183 -42zM185 -192q-21 0 -35.5 14.5t-14.5 34.5t14.5 35t35.5 15q20 0 34.5 -15t14.5 -35t-14.5 -34.5t-34.5 -14.5zM49 -192 q-21 0 -35.5 14.5t-14.5 34.5t14.5 35t35.5 15q20 0 34.5 -15t14.5 -35t-14.5 -34.5t-34.5 -14.5zM185 -317q-21 0 -35.5 14.5t-14.5 34.5t14.5 35t35.5 15q20 0 34.5 -15t14.5 -35t-14.5 -34.5t-34.5 -14.5zM49 -317q-21 0 -35.5 14.5t-14.5 34.5t14.5 35t35.5 15 q20 0 34.5 -15t14.5 -35t-14.5 -34.5t-34.5 -14.5z" />
<glyph unicode="&#x680;" horiz-adv-x="373" arabic-form="medial" d="M0 -5l10 82q50 0 78 7.5t42.5 29t23.5 62.5t22 107l78 -15q-6 -27 -13.5 -62t-7.5 -59q0 -15 2 -28t15 -22t44 -14.5t89 -5.5q21 0 30.5 -11.5t9.5 -27.5t-14 -29.5t-36 -13.5q-65 0 -101.5 7.5t-54 22t-25.5 36.5q-29 -41 -71.5 -53.5t-120.5 -12.5zM252 -192 q-21 0 -35.5 14.5t-14.5 34.5t14.5 35t35.5 15q20 0 34.5 -15t14.5 -35t-14.5 -34.5t-34.5 -14.5zM116 -192q-21 0 -35.5 14.5t-14.5 34.5t14.5 35t35.5 15q20 0 34.5 -15t14.5 -35t-14.5 -34.5t-34.5 -14.5zM252 -317q-21 0 -35.5 14.5t-14.5 34.5t14.5 35t35.5 15 q20 0 34.5 -15t14.5 -35t-14.5 -34.5t-34.5 -14.5zM116 -317q-21 0 -35.5 14.5t-14.5 34.5t14.5 35t35.5 15q20 0 34.5 -15t14.5 -35t-14.5 -34.5t-34.5 -14.5z" />
<glyph unicode="&#x67a;" horiz-adv-x="993" arabic-form="isolated" d="M390 -21q-178 0 -269 47t-91 156q0 37 9 78.5t19 78.5l75 -19q-6 -22 -13.5 -55.5t-7.5 -59.5q0 -52 26.5 -83.5t92.5 -46t185 -14.5q233 0 340.5 25.5t107.5 94.5q0 38 -14 88t-36 107l77 27q19 -49 35.5 -105t16.5 -101q0 -59 -27 -100.5t-90 -67.5t-169.5 -38 t-266.5 -12zM486 530q-21 0 -35.5 14.5t-14.5 34.5t14.5 35t35.5 15q20 0 34.5 -15t14.5 -35t-14.5 -34.5t-34.5 -14.5zM487 401q-21 0 -35.5 14.5t-14.5 34.5t14.5 35t35.5 15q20 0 34.5 -15t14.5 -35t-14.5 -34.5t-34.5 -14.5z" />
<glyph unicode="&#x67a;" horiz-adv-x="1093" arabic-form="final" d="M390 -21q-178 0 -269 47t-91 156q0 37 9 78.5t19 78.5l75 -19q-6 -22 -13.5 -55.5t-7.5 -59.5q0 -52 26.5 -83.5t92.5 -46t185 -14.5q61 0 129 7.5t135.5 27t128.5 53.5t107 86l63 -37q-9 -23 -12 -36.5t-3 -24.5q0 -15 11 -28.5t41.5 -22.5t86.5 -9q21 0 30.5 -11.5 t9.5 -27.5t-14 -29.5t-36 -13.5q-88 0 -144.5 26t-57.5 85q-83 -64 -215 -95.5t-286 -31.5zM487 530q-21 0 -35.5 14.5t-14.5 34.5t14.5 35t35.5 15q20 0 34.5 -15t14.5 -35t-14.5 -34.5t-34.5 -14.5zM488 401q-21 0 -35.5 14.5t-14.5 34.5t14.5 35t35.5 15q20 0 34.5 -15 t14.5 -35t-14.5 -34.5t-34.5 -14.5z" />
<glyph unicode="&#x67a;" horiz-adv-x="269" arabic-form="initial" d="M0 -5l10 82q49 0 78 6t42 24.5t13 55.5q0 38 -17.5 95.5t-39.5 114.5l81 30q13 -32 24.5 -73t19.5 -81t8 -70q0 -100 -53.5 -142t-165.5 -42zM127 636q-21 0 -35.5 14.5t-14.5 34.5t14.5 35t35.5 15q20 0 34.5 -15t14.5 -35t-14.5 -34.5t-34.5 -14.5zM128 507 q-21 0 -35.5 14.5t-14.5 34.5t14.5 35t35.5 15q20 0 34.5 -15t14.5 -35t-14.5 -34.5t-34.5 -14.5z" />
<glyph unicode="&#x67a;" horiz-adv-x="343" arabic-form="medial" d="M0 -5l10 82q42 0 66 7.5t36.5 29t21.5 62.5t22 107l78 -15q-6 -27 -13.5 -62t-7.5 -59q0 -20 9 -36t39 -25t92 -9q21 0 30.5 -11.5t9.5 -27.5t-14 -29.5t-36 -13.5q-79 0 -117 17t-52 51q-30 -42 -69 -55t-105 -13zM186 515q-21 0 -35.5 14.5t-14.5 34.5t14.5 35t35.5 15 q20 0 34.5 -15t14.5 -35t-14.5 -34.5t-34.5 -14.5zM187 386q-21 0 -35.5 14.5t-14.5 34.5t14.5 35t35.5 15q20 0 34.5 -15t14.5 -35t-14.5 -34.5t-34.5 -14.5z" />
<glyph unicode="&#x67f;" horiz-adv-x="993" arabic-form="isolated" d="M390 -21q-178 0 -269 47t-91 156q0 37 9 78.5t19 78.5l75 -19q-6 -22 -13.5 -55.5t-7.5 -59.5q0 -52 26.5 -83.5t92.5 -46t185 -14.5q233 0 340.5 25.5t107.5 94.5q0 38 -14 88t-36 107l77 27q19 -49 35.5 -105t16.5 -101q0 -59 -27 -100.5t-90 -67.5t-169.5 -38 t-266.5 -12zM421 526q-21 0 -35.5 14.5t-14.5 34.5t14.5 35t35.5 15q20 0 34.5 -15t14.5 -35t-14.5 -34.5t-34.5 -14.5zM557 526q-21 0 -35.5 14.5t-14.5 34.5t14.5 35t35.5 15q20 0 34.5 -15t14.5 -35t-14.5 -34.5t-34.5 -14.5zM421 401q-21 0 -35.5 14.5t-14.5 34.5 t14.5 35t35.5 15q20 0 34.5 -15t14.5 -35t-14.5 -34.5t-34.5 -14.5zM557 401q-21 0 -35.5 14.5t-14.5 34.5t14.5 35t35.5 15q20 0 34.5 -15t14.5 -35t-14.5 -34.5t-34.5 -14.5z" />
<glyph unicode="&#x67f;" horiz-adv-x="1093" arabic-form="final" d="M390 -21q-178 0 -269 47t-91 156q0 37 9 78.5t19 78.5l75 -19q-6 -22 -13.5 -55.5t-7.5 -59.5q0 -52 26.5 -83.5t92.5 -46t185 -14.5q61 0 129 7.5t135.5 27t128.5 53.5t107 86l63 -37q-9 -23 -12 -36.5t-3 -24.5q0 -15 11 -28.5t41.5 -22.5t86.5 -9q21 0 30.5 -11.5 t9.5 -27.5t-14 -29.5t-36 -13.5q-88 0 -144.5 26t-57.5 85q-83 -64 -215 -95.5t-286 -31.5zM422 526q-21 0 -35.5 14.5t-14.5 34.5t14.5 35t35.5 15q20 0 34.5 -15t14.5 -35t-14.5 -34.5t-34.5 -14.5zM558 526q-21 0 -35.5 14.5t-14.5 34.5t14.5 35t35.5 15q20 0 34.5 -15 t14.5 -35t-14.5 -34.5t-34.5 -14.5zM422 401q-21 0 -35.5 14.5t-14.5 34.5t14.5 35t35.5 15q20 0 34.5 -15t14.5 -35t-14.5 -34.5t-34.5 -14.5zM558 401q-21 0 -35.5 14.5t-14.5 34.5t14.5 35t35.5 15q20 0 34.5 -15t14.5 -35t-14.5 -34.5t-34.5 -14.5z" />
<glyph unicode="&#x67f;" horiz-adv-x="299" arabic-form="initial" d="M82 632q-21 0 -35.5 14.5t-14.5 34.5t14.5 35t35.5 15q20 0 34.5 -15t14.5 -35t-14.5 -34.5t-34.5 -14.5zM218 632q-21 0 -35.5 14.5t-14.5 34.5t14.5 35t35.5 15q20 0 34.5 -15t14.5 -35t-14.5 -34.5t-34.5 -14.5zM82 507q-21 0 -35.5 14.5t-14.5 34.5t14.5 35t35.5 15 q20 0 34.5 -15t14.5 -35t-14.5 -34.5t-34.5 -14.5zM218 507q-21 0 -35.5 14.5t-14.5 34.5t14.5 35t35.5 15q20 0 34.5 -15t14.5 -35t-14.5 -34.5t-34.5 -14.5zM0 -5l10 82q59 0 92 4.5t47 23t14 58.5q0 38 -17.5 95.5t-39.5 114.5l81 30q13 -32 24.5 -73t19.5 -81t8 -70 q0 -100 -56 -142t-183 -42z" />
<glyph unicode="&#x67f;" horiz-adv-x="373" arabic-form="medial" d="M131 511q-21 0 -35.5 14.5t-14.5 34.5t14.5 35t35.5 15q20 0 34.5 -15t14.5 -35t-14.5 -34.5t-34.5 -14.5zM267 511q-21 0 -35.5 14.5t-14.5 34.5t14.5 35t35.5 15q20 0 34.5 -15t14.5 -35t-14.5 -34.5t-34.5 -14.5zM131 386q-21 0 -35.5 14.5t-14.5 34.5t14.5 35 t35.5 15q20 0 34.5 -15t14.5 -35t-14.5 -34.5t-34.5 -14.5zM267 386q-21 0 -35.5 14.5t-14.5 34.5t14.5 35t35.5 15q20 0 34.5 -15t14.5 -35t-14.5 -34.5t-34.5 -14.5zM0 -5l10 82q50 0 78 7.5t42.5 29t23.5 62.5t22 107l78 -15q-6 -27 -13.5 -62t-7.5 -59q0 -15 2 -28 t15 -22t44 -14.5t89 -5.5q21 0 30.5 -11.5t9.5 -27.5t-14 -29.5t-36 -13.5q-65 0 -101.5 7.5t-54 22t-25.5 36.5q-29 -41 -71.5 -53.5t-120.5 -12.5z" />
<glyph unicode="&#x679;" horiz-adv-x="993" arabic-form="isolated" d="M390 -21q-178 0 -269 47t-91 156q0 37 9 78.5t19 78.5l75 -19q-6 -22 -13.5 -55.5t-7.5 -59.5q0 -52 26.5 -83.5t92.5 -46t185 -14.5q233 0 340.5 25.5t107.5 94.5q0 38 -14 88t-36 107l77 27q19 -49 35.5 -105t16.5 -101q0 -59 -27 -100.5t-90 -67.5t-169.5 -38 t-266.5 -12zM490 429q-18 0 -42.5 1.5t-46.5 3.5l-33 3l2 58q6 -1 13 -1.5t15 -1.5q10 18 22 34l-5 162h55l5 -106q18 13 37.5 20.5t39.5 7.5q38 0 60 -23t22 -57q0 -20 -11.5 -43.5t-42.5 -40.5t-90 -17zM544 551q-18 0 -35 -11t-31.5 -26t-22.5 -26q16 -1 28 -1 q49 0 71 10.5t22 27.5q0 14 -9 20t-23 6z" />
<glyph unicode="&#x679;" horiz-adv-x="1093" arabic-form="final" d="M390 -21q-178 0 -269 47t-91 156q0 37 9 78.5t19 78.5l75 -19q-6 -22 -13.5 -55.5t-7.5 -59.5q0 -52 26.5 -83.5t92.5 -46t185 -14.5q61 0 129 7.5t135.5 27t128.5 53.5t107 86l63 -37q-9 -23 -12 -36.5t-3 -24.5q0 -15 11 -28.5t41.5 -22.5t86.5 -9q21 0 30.5 -11.5 t9.5 -27.5t-14 -29.5t-36 -13.5q-88 0 -144.5 26t-57.5 85q-83 -64 -215 -95.5t-286 -31.5zM491 429q-18 0 -42.5 1.5t-46.5 3.5l-33 3l2 58q6 -1 13 -1.5t15 -1.5q10 18 22 34l-5 162h55l5 -106q18 13 37.5 20.5t39.5 7.5q38 0 60 -23t22 -57q0 -20 -11.5 -43.5 t-42.5 -40.5t-90 -17zM545 551q-18 0 -35 -11t-31.5 -26t-22.5 -26q16 -1 28 -1q49 0 71 10.5t22 27.5q0 14 -9 20t-23 6z" />
<glyph unicode="&#x679;" horiz-adv-x="299" arabic-form="initial" d="M151 535q-18 0 -42.5 1.5t-46.5 3.5l-33 3l2 58q6 -1 13 -1.5t15 -1.5q10 18 22 34l-5 162h55l5 -106q18 13 37.5 20.5t39.5 7.5q38 0 60 -23t22 -57q0 -20 -11.5 -43.5t-42.5 -40.5t-90 -17zM205 657q-18 0 -35 -11t-31.5 -26t-22.5 -26q16 -1 28 -1q49 0 71 10.5 t22 27.5q0 14 -9 20t-23 6zM0 -5l10 82q59 0 92 4.5t47 23t14 58.5q0 38 -17.5 95.5t-39.5 114.5l81 30q13 -32 24.5 -73t19.5 -81t8 -70q0 -100 -56 -142t-183 -42z" />
<glyph unicode="&#x679;" horiz-adv-x="343" arabic-form="medial" d="M0 -5l10 82q42 0 66 7.5t36.5 29t21.5 62.5t22 107l78 -15q-6 -27 -13.5 -62t-7.5 -59q0 -20 9 -36t39 -25t92 -9q21 0 30.5 -11.5t9.5 -27.5t-14 -29.5t-36 -13.5q-79 0 -117 17t-52 51q-30 -42 -69 -55t-105 -13zM190 414q-18 0 -42.5 1.5t-46.5 3.5l-33 3l2 58 q6 -1 13 -1.5t15 -1.5q10 18 22 34l-5 162h55l5 -106q18 13 37.5 20.5t39.5 7.5q38 0 60 -23t22 -57q0 -20 -11.5 -43.5t-42.5 -40.5t-90 -17zM244 536q-18 0 -35 -11t-31.5 -26t-22.5 -26q16 -1 28 -1q49 0 71 10.5t22 27.5q0 14 -9 20t-23 6z" />
<glyph unicode="&#x6a4;" horiz-adv-x="983" arabic-form="isolated" d="M390 -21q-178 0 -269 47t-91 156q0 37 9 78.5t19 78.5l75 -19q-6 -22 -13.5 -55.5t-7.5 -59.5q0 -52 26.5 -83.5t92.5 -46t185 -14.5h124.5t119.5 2t96.5 7t56.5 15q34 22 43 84q-20 -7 -42.5 -10t-44.5 -3q-76 0 -117.5 31.5t-41.5 95.5q0 38 12 76.5t34 70.5t53 51.5 t69 19.5q54 0 89.5 -35t53 -91.5t17.5 -119.5q0 -75 -14.5 -132.5t-49.5 -92.5q-19 -19 -66.5 -29.5t-114.5 -15t-145 -5.5t-158 -1zM689 303q0 -31 20 -49.5t69 -18.5q43 0 82 12v14q0 42 -11 78t-31 58t-48 22q-23 0 -41.5 -17.5t-29 -44.5t-10.5 -54zM761 714 q-21 0 -35.5 14.5t-14.5 34.5t14.5 35t35.5 15q20 0 34.5 -15t14.5 -35t-14.5 -34.5t-34.5 -14.5zM693 604q-21 0 -35.5 14.5t-14.5 34.5t14.5 35t35.5 15q20 0 34.5 -15t14.5 -35t-14.5 -34.5t-34.5 -14.5zM829 604q-21 0 -35.5 14.5t-14.5 34.5t14.5 35t35.5 15 q20 0 34.5 -15t14.5 -35t-14.5 -34.5t-34.5 -14.5z" />
<glyph unicode="&#x6a4;" horiz-adv-x="1098" arabic-form="final" d="M390 -21q-178 0 -269 47t-91 156q0 37 9 78.5t19 78.5l75 -19q-6 -22 -13.5 -55.5t-7.5 -59.5q0 -52 26.5 -83.5t92.5 -46t185 -14.5q110 0 197 6.5t141 15.5q-24 20 -47 54.5t-23 84.5q0 54 24.5 97.5t64.5 69.5t86 26q49 0 86 -27.5t57.5 -70t20.5 -87.5 q0 -47 -19 -83.5t-52 -63.5q41 -3 83 -4.5t73 -1.5q21 0 30.5 -11.5t9.5 -27.5t-14 -29.5t-36 -13.5q-129 0 -242 33q-16 -6 -34 -11q-30 -9 -95.5 -17.5t-153 -14.5t-183.5 -6zM766 220q0 -40 25.5 -67.5t56.5 -44.5q39 18 66 46.5t27 69.5q0 23 -11 48t-30 43t-44 18 q-24 0 -44.5 -17t-33 -43t-12.5 -53zM852 628q-21 0 -35.5 14.5t-14.5 34.5t14.5 35t35.5 15q20 0 34.5 -15t14.5 -35t-14.5 -34.5t-34.5 -14.5zM784 518q-21 0 -35.5 14.5t-14.5 34.5t14.5 35t35.5 15q20 0 34.5 -15t14.5 -35t-14.5 -34.5t-34.5 -14.5zM920 518 q-21 0 -35.5 14.5t-14.5 34.5t14.5 35t35.5 15q20 0 34.5 -15t14.5 -35t-14.5 -34.5t-34.5 -14.5z" />
<glyph unicode="&#x6a4;" horiz-adv-x="447" arabic-form="initial" d="M0 -5l10 82q33 0 75.5 0.5t82.5 4t63 11.5q32 11 51.5 28.5t29.5 45.5q-18 -6 -38.5 -8.5t-40.5 -2.5q-76 0 -117.5 36t-41.5 91q0 38 12 76.5t34 70.5t53 51.5t69 19.5q54 0 89.5 -35t53 -91.5t17.5 -119.5q0 -75 -25.5 -128.5t-84.5 -88.5q-31 -18 -77.5 -27.5 t-101.5 -12.5t-113 -3zM153 303q0 -31 20 -49.5t69 -18.5q43 0 82 12v14q0 42 -11 78t-31 58t-48 22q-23 0 -41.5 -17.5t-29 -44.5t-10.5 -54zM225 714q-21 0 -35.5 14.5t-14.5 34.5t14.5 35t35.5 15q20 0 34.5 -15t14.5 -35t-14.5 -34.5t-34.5 -14.5zM157 604 q-21 0 -35.5 14.5t-14.5 34.5t14.5 35t35.5 15q20 0 34.5 -15t14.5 -35t-14.5 -34.5t-34.5 -14.5zM293 604q-21 0 -35.5 14.5t-14.5 34.5t14.5 35t35.5 15q20 0 34.5 -15t14.5 -35t-14.5 -34.5t-34.5 -14.5z" />
<glyph unicode="&#x6a4;" horiz-adv-x="495" arabic-form="medial" d="M0 -5l10 82q34 0 70.5 1t70.5 5q-24 22 -47 57t-23 85q0 54 25 97t65 68t85 25q49 0 86 -27t57.5 -68.5t20.5 -86.5q0 -47 -19 -84t-51 -65q40 -3 82 -5t73 -2q21 0 30.5 -11.5t9.5 -27.5t-14 -29.5t-36 -13.5q-61 0 -127 9.5t-116 23.5q-16 -6 -33 -11 q-46 -13 -105 -17.5t-114 -4.5zM163 223q0 -39 24 -68.5t54 -47.5q41 18 69 48t28 72q0 23 -11 47.5t-30 41.5t-44 17q-24 0 -44.5 -16t-33 -41.5t-12.5 -52.5zM249 628q-21 0 -35.5 14.5t-14.5 34.5t14.5 35t35.5 15q20 0 34.5 -15t14.5 -35t-14.5 -34.5t-34.5 -14.5z M181 518q-21 0 -35.5 14.5t-14.5 34.5t14.5 35t35.5 15q20 0 34.5 -15t14.5 -35t-14.5 -34.5t-34.5 -14.5zM317 518q-21 0 -35.5 14.5t-14.5 34.5t14.5 35t35.5 15q20 0 34.5 -15t14.5 -35t-14.5 -34.5t-34.5 -14.5z" />
<glyph unicode="&#x6a6;" horiz-adv-x="983" arabic-form="isolated" d="M390 -21q-178 0 -269 47t-91 156q0 37 9 78.5t19 78.5l75 -19q-6 -22 -13.5 -55.5t-7.5 -59.5q0 -52 26.5 -83.5t92.5 -46t185 -14.5h124.5t119.5 2t96.5 7t56.5 15q34 22 43 84q-20 -7 -42.5 -10t-44.5 -3q-76 0 -117.5 31.5t-41.5 95.5q0 38 12 76.5t34 70.5t53 51.5 t69 19.5q54 0 89.5 -35t53 -91.5t17.5 -119.5q0 -75 -14.5 -132.5t-49.5 -92.5q-19 -19 -66.5 -29.5t-114.5 -15t-145 -5.5t-158 -1zM689 303q0 -31 20 -49.5t69 -18.5q43 0 82 12v14q0 42 -11 78t-31 58t-48 22q-23 0 -41.5 -17.5t-29 -44.5t-10.5 -54zM693 729 q-21 0 -35.5 14.5t-14.5 34.5t14.5 35t35.5 15q20 0 34.5 -15t14.5 -35t-14.5 -34.5t-34.5 -14.5zM829 729q-21 0 -35.5 14.5t-14.5 34.5t14.5 35t35.5 15q20 0 34.5 -15t14.5 -35t-14.5 -34.5t-34.5 -14.5zM693 604q-21 0 -35.5 14.5t-14.5 34.5t14.5 35t35.5 15 q20 0 34.5 -15t14.5 -35t-14.5 -34.5t-34.5 -14.5zM829 604q-21 0 -35.5 14.5t-14.5 34.5t14.5 35t35.5 15q20 0 34.5 -15t14.5 -35t-14.5 -34.5t-34.5 -14.5z" />
<glyph unicode="&#x6a6;" horiz-adv-x="1098" arabic-form="final" d="M390 -21q-178 0 -269 47t-91 156q0 37 9 78.5t19 78.5l75 -19q-6 -22 -13.5 -55.5t-7.5 -59.5q0 -52 26.5 -83.5t92.5 -46t185 -14.5q110 0 197 6.5t141 15.5q-24 20 -47 54.5t-23 84.5q0 54 24.5 97.5t64.5 69.5t86 26q49 0 86 -27.5t57.5 -70t20.5 -87.5 q0 -47 -19 -83.5t-52 -63.5q41 -3 83 -4.5t73 -1.5q21 0 30.5 -11.5t9.5 -27.5t-14 -29.5t-36 -13.5q-129 0 -242 33q-16 -6 -34 -11q-30 -9 -95.5 -17.5t-153 -14.5t-183.5 -6zM766 220q0 -40 25.5 -67.5t56.5 -44.5q39 18 66 46.5t27 69.5q0 23 -11 48t-30 43t-44 18 q-24 0 -44.5 -17t-33 -43t-12.5 -53zM784 643q-21 0 -35.5 14.5t-14.5 34.5t14.5 35t35.5 15q20 0 34.5 -15t14.5 -35t-14.5 -34.5t-34.5 -14.5zM920 643q-21 0 -35.5 14.5t-14.5 34.5t14.5 35t35.5 15q20 0 34.5 -15t14.5 -35t-14.5 -34.5t-34.5 -14.5zM784 518 q-21 0 -35.5 14.5t-14.5 34.5t14.5 35t35.5 15q20 0 34.5 -15t14.5 -35t-14.5 -34.5t-34.5 -14.5zM920 518q-21 0 -35.5 14.5t-14.5 34.5t14.5 35t35.5 15q20 0 34.5 -15t14.5 -35t-14.5 -34.5t-34.5 -14.5z" />
<glyph unicode="&#x6a6;" horiz-adv-x="447" arabic-form="initial" d="M0 -5l10 82q33 0 75.5 0.5t82.5 4t63 11.5q32 11 51.5 28.5t29.5 45.5q-18 -6 -38.5 -8.5t-40.5 -2.5q-76 0 -117.5 36t-41.5 91q0 38 12 76.5t34 70.5t53 51.5t69 19.5q54 0 89.5 -35t53 -91.5t17.5 -119.5q0 -75 -25.5 -128.5t-84.5 -88.5q-31 -18 -77.5 -27.5 t-101.5 -12.5t-113 -3zM153 303q0 -31 20 -49.5t69 -18.5q43 0 82 12v14q0 42 -11 78t-31 58t-48 22q-23 0 -41.5 -17.5t-29 -44.5t-10.5 -54zM157 729q-21 0 -35.5 14.5t-14.5 34.5t14.5 35t35.5 15q20 0 34.5 -15t14.5 -35t-14.5 -34.5t-34.5 -14.5zM293 729 q-21 0 -35.5 14.5t-14.5 34.5t14.5 35t35.5 15q20 0 34.5 -15t14.5 -35t-14.5 -34.5t-34.5 -14.5zM157 604q-21 0 -35.5 14.5t-14.5 34.5t14.5 35t35.5 15q20 0 34.5 -15t14.5 -35t-14.5 -34.5t-34.5 -14.5zM293 604q-21 0 -35.5 14.5t-14.5 34.5t14.5 35t35.5 15 q20 0 34.5 -15t14.5 -35t-14.5 -34.5t-34.5 -14.5z" />
<glyph unicode="&#x6a6;" horiz-adv-x="495" arabic-form="medial" d="M0 -5l10 82q34 0 70.5 1t70.5 5q-24 22 -47 57t-23 85q0 54 25 97t65 68t85 25q49 0 86 -27t57.5 -68.5t20.5 -86.5q0 -47 -19 -84t-51 -65q40 -3 82 -5t73 -2q21 0 30.5 -11.5t9.5 -27.5t-14 -29.5t-36 -13.5q-61 0 -127 9.5t-116 23.5q-16 -6 -33 -11 q-46 -13 -105 -17.5t-114 -4.5zM163 223q0 -39 24 -68.5t54 -47.5q41 18 69 48t28 72q0 23 -11 47.5t-30 41.5t-44 17q-24 0 -44.5 -16t-33 -41.5t-12.5 -52.5zM181 643q-21 0 -35.5 14.5t-14.5 34.5t14.5 35t35.5 15q20 0 34.5 -15t14.5 -35t-14.5 -34.5t-34.5 -14.5z M317 643q-21 0 -35.5 14.5t-14.5 34.5t14.5 35t35.5 15q20 0 34.5 -15t14.5 -35t-14.5 -34.5t-34.5 -14.5zM181 518q-21 0 -35.5 14.5t-14.5 34.5t14.5 35t35.5 15q20 0 34.5 -15t14.5 -35t-14.5 -34.5t-34.5 -14.5zM317 518q-21 0 -35.5 14.5t-14.5 34.5t14.5 35t35.5 15 q20 0 34.5 -15t14.5 -35t-14.5 -34.5t-34.5 -14.5z" />
<glyph unicode="&#x684;" horiz-adv-x="639" arabic-form="isolated" d="M360 -394q-70 0 -133.5 16t-112 49.5t-76.5 84.5t-28 120q0 92 43 171t123.5 139.5t191.5 97.5q-49 16 -102.5 32.5t-124.5 16.5q-30 0 -52.5 -5t-42.5 -10l-14 74q26 11 58.5 17.5t65.5 6.5q46 0 82 -8.5t68.5 -20.5t68.5 -24.5t80.5 -21t105.5 -9.5h9l2 -82 q-58 0 -123.5 -15.5t-128.5 -46t-114.5 -74.5t-82.5 -101t-31 -127t38 -113.5t101.5 -63.5t138.5 -20q99 0 201 40l28 -68q-58 -28 -119 -41.5t-120 -13.5zM366 -53q-21 0 -35.5 14.5t-14.5 34.5t14.5 35t35.5 15q20 0 34.5 -15t14.5 -35t-14.5 -34.5t-34.5 -14.5zM367 -181 q-21 0 -35.5 14.5t-14.5 34.5t14.5 35t35.5 15q20 0 34.5 -15t14.5 -35t-14.5 -34.5t-34.5 -14.5z" />
<glyph unicode="&#x684;" horiz-adv-x="649" arabic-form="final" d="M360 -394q-70 0 -133.5 16t-112 49.5t-76.5 84.5t-28 120q0 92 43 171t123.5 139.5t191.5 97.5q-49 16 -102.5 32.5t-124.5 16.5q-30 0 -52.5 -5t-42.5 -10l-14 74q26 11 58.5 17.5t65.5 6.5q46 0 82 -8.5t68.5 -20.5t68.5 -24.5t80.5 -21t105.5 -9.5h9l2 -82 q-52 0 -109 -12q8 -56 26 -88.5t44.5 -48t58.5 -20t67 -4.5q21 0 30.5 -11.5t9.5 -27.5t-13.5 -29.5t-35.5 -13.5q-42 0 -84.5 6t-79 27t-60.5 66.5t-29 125.5q-58 -20 -113 -51t-98 -73t-68.5 -94.5t-25.5 -115.5q0 -70 38 -113.5t101.5 -63.5t138.5 -20q99 0 201 40 l28 -68q-58 -28 -119 -41.5t-120 -13.5zM321 -82q-21 0 -35.5 14.5t-14.5 34.5t14.5 35t35.5 15q20 0 34.5 -15t14.5 -35t-14.5 -34.5t-34.5 -14.5zM322 -210q-21 0 -35.5 14.5t-14.5 34.5t14.5 35t35.5 15q20 0 34.5 -15t14.5 -35t-14.5 -34.5t-34.5 -14.5z" />
<glyph unicode="&#x684;" horiz-adv-x="589" arabic-form="initial" d="M251 334q81 0 152 -71t82 -186q3 -41 3 -77h-498v63h435q-10 102 -63.5 155.5t-112.5 53.5t-108 -33l-38 50q67 45 148 45zM279 -187q-21 0 -35.5 14.5t-14.5 34.5t14.5 35t35.5 15q20 0 34.5 -15t14.5 -35t-14.5 -34.5t-34.5 -14.5zM280 -316q-21 0 -35.5 14.5 t-14.5 34.5t14.5 35t35.5 15q20 0 34.5 -15t14.5 -35t-14.5 -34.5t-34.5 -14.5z" />
<glyph unicode="&#x684;" horiz-adv-x="637" arabic-form="medial" d="M243 334q90 0 157 -67q78 -81 86 -204h52v-63h-548v63h435q-10 102 -63.5 155.5t-112.5 53.5t-108 -33l-38 50q67 45 140 45zM261 -187q-21 0 -35.5 14.5t-14.5 34.5t14.5 35t35.5 15q20 0 34.5 -15t14.5 -35t-14.5 -34.5t-34.5 -14.5zM262 -316q-21 0 -35.5 14.5 t-14.5 34.5t14.5 35t35.5 15q20 0 34.5 -15t14.5 -35t-14.5 -34.5t-34.5 -14.5z" />
<glyph unicode="&#x683;" horiz-adv-x="659" arabic-form="isolated" d="M380 -394q-70 0 -136.5 16t-119 49.5t-83.5 84.5t-31 120q0 92 48 171t133 139.5t197 97.5q-49 16 -105.5 32.5t-141.5 16.5q-30 0 -52.5 -5t-42.5 -10l-14 74q26 11 58.5 17.5t65.5 6.5q52 0 91.5 -8.5t74.5 -20.5t71.5 -24.5t81.5 -21t106 -9.5h9l2 -82 q-58 0 -125.5 -15.5t-133.5 -46t-120.5 -74.5t-87.5 -101t-33 -127q0 -52 25 -89.5t67.5 -61.5t96 -35t109.5 -11q99 0 201 40l28 -68q-58 -28 -119 -41.5t-120 -13.5zM445 -115q-21 0 -35.5 14.5t-14.5 34.5t14.5 35t35.5 15q20 0 34.5 -15t14.5 -35t-14.5 -34.5 t-34.5 -14.5zM308 -115q-21 0 -35.5 14.5t-14.5 34.5t14.5 35t35.5 15q20 0 34.5 -15t14.5 -35t-14.5 -34.5t-34.5 -14.5z" />
<glyph unicode="&#x683;" horiz-adv-x="719" arabic-form="final" d="M380 -394q-70 0 -136.5 16t-119 49.5t-83.5 84.5t-31 120q0 92 48 171t133 139.5t197 97.5q-49 16 -105.5 32.5t-141.5 16.5q-30 0 -52.5 -5t-42.5 -10l-14 74q26 11 58.5 17.5t65.5 6.5q52 0 91.5 -8.5t74.5 -20.5t71.5 -24.5t81.5 -21t106 -9.5h9l2 -82q-29 0 -60 -4 q7 -58 25 -92.5t44.5 -50.5t59.5 -21t68 -5q21 0 30.5 -11.5t9.5 -27.5t-13.5 -29.5t-35.5 -13.5q-43 0 -86.5 6t-80.5 29t-60.5 71.5t-26.5 132.5q-66 -15 -132.5 -45.5t-121 -74.5t-87.5 -101t-33 -127q0 -52 25 -89.5t67.5 -61.5t96 -35t109.5 -11q99 0 201 40l28 -68 q-58 -28 -119 -41.5t-120 -13.5zM407 -146q-21 0 -35.5 14.5t-14.5 34.5t14.5 35t35.5 15q20 0 34.5 -15t14.5 -35t-14.5 -34.5t-34.5 -14.5zM270 -146q-21 0 -35.5 14.5t-14.5 34.5t14.5 35t35.5 15q20 0 34.5 -15t14.5 -35t-14.5 -34.5t-34.5 -14.5z" />
<glyph unicode="&#x683;" horiz-adv-x="589" arabic-form="initial" d="M251 334q81 0 152 -71t82 -186q3 -41 3 -77h-498v63h435q-10 102 -63.5 155.5t-112.5 53.5t-108 -33l-38 50q67 45 148 45zM351 -189q-21 0 -35.5 14.5t-14.5 34.5t14.5 35t35.5 15q20 0 34.5 -15t14.5 -35t-14.5 -34.5t-34.5 -14.5zM214 -189q-21 0 -35.5 14.5 t-14.5 34.5t14.5 35t35.5 15q20 0 34.5 -15t14.5 -35t-14.5 -34.5t-34.5 -14.5z" />
<glyph unicode="&#x683;" horiz-adv-x="637" arabic-form="medial" d="M243 334q90 0 157 -67q78 -81 86 -204h52v-63h-548v63h435q-10 102 -63.5 155.5t-112.5 53.5t-108 -33l-38 50q67 45 140 45zM333 -189q-21 0 -35.5 14.5t-14.5 34.5t14.5 35t35.5 15q20 0 34.5 -15t14.5 -35t-14.5 -34.5t-34.5 -14.5zM196 -189q-21 0 -35.5 14.5 t-14.5 34.5t14.5 35t35.5 15q20 0 34.5 -15t14.5 -35t-14.5 -34.5t-34.5 -14.5z" />
<glyph unicode="&#x686;" horiz-adv-x="659" arabic-form="isolated" d="M380 -394q-70 0 -136.5 16t-119 49.5t-83.5 84.5t-31 120q0 92 48 171t133 139.5t197 97.5q-49 16 -105.5 32.5t-141.5 16.5q-30 0 -52.5 -5t-42.5 -10l-14 74q26 11 58.5 17.5t65.5 6.5q52 0 91.5 -8.5t74.5 -20.5t71.5 -24.5t81.5 -21t106 -9.5h9l2 -82 q-58 0 -125.5 -15.5t-133.5 -46t-120.5 -74.5t-87.5 -101t-33 -127q0 -52 25 -89.5t67.5 -61.5t96 -35t109.5 -11q99 0 201 40l28 -68q-58 -28 -119 -41.5t-120 -13.5zM309 -83q-21 0 -35.5 14.5t-14.5 34.5t14.5 35t35.5 15q20 0 34.5 -15t14.5 -35t-14.5 -34.5 t-34.5 -14.5zM445 -83q-21 0 -35.5 14.5t-14.5 34.5t14.5 35t35.5 15q20 0 34.5 -15t14.5 -35t-14.5 -34.5t-34.5 -14.5zM377 -193q-21 0 -35.5 14.5t-14.5 34.5t14.5 35t35.5 15q20 0 34.5 -15t14.5 -35t-14.5 -34.5t-34.5 -14.5z" />
<glyph unicode="&#x686;" horiz-adv-x="719" arabic-form="final" d="M380 -394q-70 0 -136.5 16t-119 49.5t-83.5 84.5t-31 120q0 92 48 171t133 139.5t197 97.5q-49 16 -105.5 32.5t-141.5 16.5q-30 0 -52.5 -5t-42.5 -10l-14 74q26 11 58.5 17.5t65.5 6.5q52 0 91.5 -8.5t74.5 -20.5t71.5 -24.5t81.5 -21t106 -9.5h9l2 -82q-29 0 -60 -4 q7 -58 25 -92.5t44.5 -50.5t59.5 -21t68 -5q21 0 30.5 -11.5t9.5 -27.5t-13.5 -29.5t-35.5 -13.5q-43 0 -86.5 6t-80.5 29t-60.5 71.5t-26.5 132.5q-66 -15 -132.5 -45.5t-121 -74.5t-87.5 -101t-33 -127q0 -52 25 -89.5t67.5 -61.5t96 -35t109.5 -11q99 0 201 40l28 -68 q-58 -28 -119 -41.5t-120 -13.5zM271 -113q-21 0 -35.5 14.5t-14.5 34.5t14.5 35t35.5 15q20 0 34.5 -15t14.5 -35t-14.5 -34.5t-34.5 -14.5zM407 -113q-21 0 -35.5 14.5t-14.5 34.5t14.5 35t35.5 15q20 0 34.5 -15t14.5 -35t-14.5 -34.5t-34.5 -14.5zM339 -223 q-21 0 -35.5 14.5t-14.5 34.5t14.5 35t35.5 15q20 0 34.5 -15t14.5 -35t-14.5 -34.5t-34.5 -14.5z" />
<glyph unicode="&#x686;" horiz-adv-x="589" arabic-form="initial" d="M251 334q81 0 152 -71t82 -186q3 -41 3 -77h-498v63h435q-10 102 -63.5 155.5t-112.5 53.5t-108 -33l-38 50q67 45 148 45zM211 -189q-21 0 -35.5 14.5t-14.5 34.5t14.5 35t35.5 15q20 0 34.5 -15t14.5 -35t-14.5 -34.5t-34.5 -14.5zM347 -189q-21 0 -35.5 14.5 t-14.5 34.5t14.5 35t35.5 15q20 0 34.5 -15t14.5 -35t-14.5 -34.5t-34.5 -14.5zM279 -299q-21 0 -35.5 14.5t-14.5 34.5t14.5 35t35.5 15q20 0 34.5 -15t14.5 -35t-14.5 -34.5t-34.5 -14.5z" />
<glyph unicode="&#x686;" horiz-adv-x="637" arabic-form="medial" d="M243 334q90 0 157 -67q78 -81 86 -204h52v-63h-548v63h435q-10 102 -63.5 155.5t-112.5 53.5t-108 -33l-38 50q67 45 140 45zM193 -189q-21 0 -35.5 14.5t-14.5 34.5t14.5 35t35.5 15q20 0 34.5 -15t14.5 -35t-14.5 -34.5t-34.5 -14.5zM329 -189q-21 0 -35.5 14.5 t-14.5 34.5t14.5 35t35.5 15q20 0 34.5 -15t14.5 -35t-14.5 -34.5t-34.5 -14.5zM261 -299q-21 0 -35.5 14.5t-14.5 34.5t14.5 35t35.5 15q20 0 34.5 -15t14.5 -35t-14.5 -34.5t-34.5 -14.5z" />
<glyph unicode="&#x687;" horiz-adv-x="659" arabic-form="isolated" d="M380 -394q-70 0 -136.5 16t-119 49.5t-83.5 84.5t-31 120q0 92 48 171t133 139.5t197 97.5q-49 16 -105.5 32.5t-141.5 16.5q-30 0 -52.5 -5t-42.5 -10l-14 74q26 11 58.5 17.5t65.5 6.5q52 0 91.5 -8.5t74.5 -20.5t71.5 -24.5t81.5 -21t106 -9.5h9l2 -82 q-58 0 -125.5 -15.5t-133.5 -46t-120.5 -74.5t-87.5 -101t-33 -127q0 -52 25 -89.5t67.5 -61.5t96 -35t109.5 -11q99 0 201 40l28 -68q-58 -28 -119 -41.5t-120 -13.5zM329 -60q-21 0 -35.5 14.5t-14.5 34.5t14.5 35t35.5 15q20 0 34.5 -15t14.5 -35t-14.5 -34.5 t-34.5 -14.5zM465 -60q-21 0 -35.5 14.5t-14.5 34.5t14.5 35t35.5 15q20 0 34.5 -15t14.5 -35t-14.5 -34.5t-34.5 -14.5zM329 -185q-21 0 -35.5 14.5t-14.5 34.5t14.5 35t35.5 15q20 0 34.5 -15t14.5 -35t-14.5 -34.5t-34.5 -14.5zM465 -185q-21 0 -35.5 14.5t-14.5 34.5 t14.5 35t35.5 15q20 0 34.5 -15t14.5 -35t-14.5 -34.5t-34.5 -14.5z" />
<glyph unicode="&#x687;" horiz-adv-x="719" arabic-form="final" d="M380 -394q-70 0 -136.5 16t-119 49.5t-83.5 84.5t-31 120q0 92 48 171t133 139.5t197 97.5q-49 16 -105.5 32.5t-141.5 16.5q-30 0 -52.5 -5t-42.5 -10l-14 74q26 11 58.5 17.5t65.5 6.5q52 0 91.5 -8.5t74.5 -20.5t71.5 -24.5t81.5 -21t106 -9.5h9l2 -82q-29 0 -60 -4 q7 -58 25 -92.5t44.5 -50.5t59.5 -21t68 -5q21 0 30.5 -11.5t9.5 -27.5t-13.5 -29.5t-35.5 -13.5q-43 0 -86.5 6t-80.5 29t-60.5 71.5t-26.5 132.5q-66 -15 -132.5 -45.5t-121 -74.5t-87.5 -101t-33 -127q0 -52 25 -89.5t67.5 -61.5t96 -35t109.5 -11q99 0 201 40l28 -68 q-58 -28 -119 -41.5t-120 -13.5zM271 -98q-21 0 -35.5 14.5t-14.5 34.5t14.5 35t35.5 15q20 0 34.5 -15t14.5 -35t-14.5 -34.5t-34.5 -14.5zM407 -98q-21 0 -35.5 14.5t-14.5 34.5t14.5 35t35.5 15q20 0 34.5 -15t14.5 -35t-14.5 -34.5t-34.5 -14.5zM271 -223 q-21 0 -35.5 14.5t-14.5 34.5t14.5 35t35.5 15q20 0 34.5 -15t14.5 -35t-14.5 -34.5t-34.5 -14.5zM407 -223q-21 0 -35.5 14.5t-14.5 34.5t14.5 35t35.5 15q20 0 34.5 -15t14.5 -35t-14.5 -34.5t-34.5 -14.5z" />
<glyph unicode="&#x687;" horiz-adv-x="589" arabic-form="initial" d="M251 334q81 0 152 -71t82 -186q3 -41 3 -77h-498v63h435q-10 102 -63.5 155.5t-112.5 53.5t-108 -33l-38 50q67 45 148 45zM351 -187q-21 0 -35.5 14.5t-14.5 34.5t14.5 35t35.5 15q20 0 34.5 -15t14.5 -35t-14.5 -34.5t-34.5 -14.5zM215 -187q-21 0 -35.5 14.5 t-14.5 34.5t14.5 35t35.5 15q20 0 34.5 -15t14.5 -35t-14.5 -34.5t-34.5 -14.5zM351 -312q-21 0 -35.5 14.5t-14.5 34.5t14.5 35t35.5 15q20 0 34.5 -15t14.5 -35t-14.5 -34.5t-34.5 -14.5zM215 -312q-21 0 -35.5 14.5t-14.5 34.5t14.5 35t35.5 15q20 0 34.5 -15t14.5 -35 t-14.5 -34.5t-34.5 -14.5z" />
<glyph unicode="&#x687;" horiz-adv-x="637" arabic-form="medial" d="M243 334q90 0 157 -67q78 -81 86 -204h52v-63h-548v63h435q-10 102 -63.5 155.5t-112.5 53.5t-108 -33l-38 50q67 45 140 45zM333 -187q-21 0 -35.5 14.5t-14.5 34.5t14.5 35t35.5 15q20 0 34.5 -15t14.5 -35t-14.5 -34.5t-34.5 -14.5zM197 -187q-21 0 -35.5 14.5 t-14.5 34.5t14.5 35t35.5 15q20 0 34.5 -15t14.5 -35t-14.5 -34.5t-34.5 -14.5zM333 -312q-21 0 -35.5 14.5t-14.5 34.5t14.5 35t35.5 15q20 0 34.5 -15t14.5 -35t-14.5 -34.5t-34.5 -14.5zM197 -312q-21 0 -35.5 14.5t-14.5 34.5t14.5 35t35.5 15q20 0 34.5 -15t14.5 -35 t-14.5 -34.5t-34.5 -14.5z" />
<glyph unicode="&#x68d;" horiz-adv-x="477" arabic-form="isolated" d="M50 0v62h271q-2 97 -51 146t-121 49q-36 0 -77 -11v60q45 15 88 15q100 0 164 -80.5t65 -240.5h-339zM298 -194q-21 0 -35.5 14.5t-14.5 34.5t14.5 35t35.5 15q20 0 34.5 -15t14.5 -35t-14.5 -34.5t-34.5 -14.5zM161 -194q-21 0 -35.5 14.5t-14.5 34.5t14.5 35t35.5 15 q20 0 34.5 -15t14.5 -35t-14.5 -34.5t-34.5 -14.5z" />
<glyph unicode="&#x68d;" horiz-adv-x="532" arabic-form="final" d="M438 63v-63h-388v63h272q-3 97 -52 145.5t-121 48.5q-37 0 -76 -11v60q45 15 88 15q89 0 150.5 -64.5t74.5 -193.5h52zM306 -194q-21 0 -35.5 14.5t-14.5 34.5t14.5 35t35.5 15q20 0 34.5 -15t14.5 -35t-14.5 -34.5t-34.5 -14.5zM169 -194q-21 0 -35.5 14.5t-14.5 34.5 t14.5 35t35.5 15q20 0 34.5 -15t14.5 -35t-14.5 -34.5t-34.5 -14.5z" />
<glyph unicode="&#x68c;" horiz-adv-x="477" arabic-form="isolated" d="M50 0v62h271q-2 97 -51 146t-121 49q-36 0 -77 -11v60q45 15 88 15q100 0 164 -80.5t65 -240.5h-339zM286 560q-21 0 -35.5 14.5t-14.5 34.5t14.5 35t35.5 15q20 0 34.5 -15t14.5 -35t-14.5 -34.5t-34.5 -14.5zM149 560q-21 0 -35.5 14.5t-14.5 34.5t14.5 35t35.5 15 q20 0 34.5 -15t14.5 -35t-14.5 -34.5t-34.5 -14.5z" />
<glyph unicode="&#x68c;" horiz-adv-x="532" arabic-form="final" d="M438 63v-63h-388v63h272q-3 97 -52 145.5t-121 48.5q-37 0 -76 -11v60q45 15 88 15q89 0 150.5 -64.5t74.5 -193.5h52zM291 560q-21 0 -35.5 14.5t-14.5 34.5t14.5 35t35.5 15q20 0 34.5 -15t14.5 -35t-14.5 -34.5t-34.5 -14.5zM154 560q-21 0 -35.5 14.5t-14.5 34.5 t14.5 35t35.5 15q20 0 34.5 -15t14.5 -35t-14.5 -34.5t-34.5 -14.5z" />
<glyph unicode="&#x68e;" horiz-adv-x="477" arabic-form="isolated" d="M50 0v62h271q-2 97 -51 146t-121 49q-36 0 -77 -11v60q45 15 88 15q100 0 164 -80.5t65 -240.5h-339zM218 670q-21 0 -35.5 14.5t-14.5 34.5t14.5 35t35.5 15q20 0 34.5 -15t14.5 -35t-14.5 -34.5t-34.5 -14.5zM150 560q-21 0 -35.5 14.5t-14.5 34.5t14.5 35t35.5 15 q20 0 34.5 -15t14.5 -35t-14.5 -34.5t-34.5 -14.5zM286 560q-21 0 -35.5 14.5t-14.5 34.5t14.5 35t35.5 15q20 0 34.5 -15t14.5 -35t-14.5 -34.5t-34.5 -14.5z" />
<glyph unicode="&#x68e;" horiz-adv-x="532" arabic-form="final" d="M438 63v-63h-388v63h272q-3 97 -52 145.5t-121 48.5q-37 0 -76 -11v60q45 15 88 15q89 0 150.5 -64.5t74.5 -193.5h52zM223 670q-21 0 -35.5 14.5t-14.5 34.5t14.5 35t35.5 15q20 0 34.5 -15t14.5 -35t-14.5 -34.5t-34.5 -14.5zM155 560q-21 0 -35.5 14.5t-14.5 34.5 t14.5 35t35.5 15q20 0 34.5 -15t14.5 -35t-14.5 -34.5t-34.5 -14.5zM291 560q-21 0 -35.5 14.5t-14.5 34.5t14.5 35t35.5 15q20 0 34.5 -15t14.5 -35t-14.5 -34.5t-34.5 -14.5z" />
<glyph unicode="&#x688;" horiz-adv-x="477" arabic-form="isolated" d="M50 0v62h271q-2 97 -51 146t-121 49q-36 0 -77 -11v60q45 15 88 15q100 0 164 -80.5t65 -240.5h-339zM219 588q-18 0 -42.5 1.5t-46.5 3.5l-33 3l2 58q6 -1 13 -1.5t15 -1.5q10 18 22 34l-5 162h55l5 -106q18 13 37.5 20.5t39.5 7.5q38 0 60 -23t22 -57 q0 -20 -11.5 -43.5t-42.5 -40.5t-90 -17zM273 710q-18 0 -35 -11t-31.5 -26t-22.5 -26q16 -1 28 -1q49 0 71 10.5t22 27.5q0 14 -9 20t-23 6z" />
<glyph unicode="&#x688;" horiz-adv-x="532" arabic-form="final" d="M438 63v-63h-388v63h272q-3 97 -52 145.5t-121 48.5q-37 0 -76 -11v60q45 15 88 15q89 0 150.5 -64.5t74.5 -193.5h52zM224 588q-18 0 -42.5 1.5t-46.5 3.5l-33 3l2 58q6 -1 13 -1.5t15 -1.5q10 18 22 34l-5 162h55l5 -106q18 13 37.5 20.5t39.5 7.5q38 0 60 -23t22 -57 q0 -20 -11.5 -43.5t-42.5 -40.5t-90 -17zM278 710q-18 0 -35 -11t-31.5 -26t-22.5 -26q16 -1 28 -1q49 0 71 10.5t22 27.5q0 14 -9 20t-23 6z" />
<glyph unicode="&#x698;" horiz-adv-x="367" arabic-form="isolated" d="M177 144q0 -183 -123 -310l-54 41q110 134 110 276q0 82 -36 161h73q30 -83 30 -168zM179 564q-21 0 -35.5 14.5t-14.5 34.5t14.5 35t35.5 15q20 0 34.5 -15t14.5 -35t-14.5 -34.5t-34.5 -14.5zM111 454q-21 0 -35.5 14.5t-14.5 34.5t14.5 35t35.5 15q20 0 34.5 -15 t14.5 -35t-14.5 -34.5t-34.5 -14.5zM247 454q-21 0 -35.5 14.5t-14.5 34.5t14.5 35t35.5 15q20 0 34.5 -15t14.5 -35t-14.5 -34.5t-34.5 -14.5z" />
<glyph unicode="&#x698;" horiz-adv-x="396" arabic-form="final" d="M226 63v-63h-71q-37 -99 -101 -166l-54 41q86 104 104.5 217.5t-30.5 219.5h73q48 -127 23 -249h56zM165 564q-21 0 -35.5 14.5t-14.5 34.5t14.5 35t35.5 15q20 0 34.5 -15t14.5 -35t-14.5 -34.5t-34.5 -14.5zM97 454q-21 0 -35.5 14.5t-14.5 34.5t14.5 35t35.5 15 q20 0 34.5 -15t14.5 -35t-14.5 -34.5t-34.5 -14.5zM233 454q-21 0 -35.5 14.5t-14.5 34.5t14.5 35t35.5 15q20 0 34.5 -15t14.5 -35t-14.5 -34.5t-34.5 -14.5z" />
<glyph unicode="&#x691;" horiz-adv-x="367" arabic-form="isolated" d="M177 144q0 -183 -123 -310l-54 41q110 134 110 276q0 82 -36 161h73q30 -83 30 -168zM180 482q-18 0 -42.5 1.5t-46.5 3.5l-33 3l2 58q6 -1 13 -1.5t15 -1.5q10 18 22 34l-5 162h55l5 -106q18 13 37.5 20.5t39.5 7.5q38 0 60 -23t22 -57q0 -20 -11.5 -43.5t-42.5 -40.5 t-90 -17zM234 604q-18 0 -35 -11t-31.5 -26t-22.5 -26q16 -1 28 -1q49 0 71 10.5t22 27.5q0 14 -9 20t-23 6z" />
<glyph unicode="&#x691;" horiz-adv-x="396" arabic-form="final" d="M226 63v-63h-71q-37 -99 -101 -166l-54 41q86 104 104.5 217.5t-30.5 219.5h73q48 -127 23 -249h56zM166 482q-18 0 -42.5 1.5t-46.5 3.5l-33 3l2 58q6 -1 13 -1.5t15 -1.5q10 18 22 34l-5 162h55l5 -106q18 13 37.5 20.5t39.5 7.5q38 0 60 -23t22 -57q0 -20 -11.5 -43.5 t-42.5 -40.5t-90 -17zM220 604q-18 0 -35 -11t-31.5 -26t-22.5 -26q16 -1 28 -1q49 0 71 10.5t22 27.5q0 14 -9 20t-23 6z" />
<glyph unicode="&#x6a9;" horiz-adv-x="877" arabic-form="isolated" d="M390 -21q-178 0 -269 47t-91 156q0 37 9 78.5t19 78.5l75 -19q-6 -22 -13.5 -55.5t-7.5 -59.5q0 -52 26.5 -83.5t92.5 -46t185 -14.5q98 0 161.5 6t99 17t50 27.5t14.5 37.5q0 23 -17.5 57t-71.5 88q-37 38 -74 67t-61 49t-24 29q0 23 5.5 43t15.5 31q40 43 125.5 86.5 t213.5 107.5l34 -74q-91 -44 -148.5 -72.5t-95 -50t-69.5 -43.5q117 -95 179.5 -170.5t62.5 -152.5q0 -23 -7 -47t-30.5 -45t-69.5 -37.5t-124 -26t-195 -9.5z" />
<glyph unicode="&#x6a9;" horiz-adv-x="975" arabic-form="final" d="M390 -21q-178 0 -269 47t-91 156q0 37 9 78.5t19 78.5l75 -19q-6 -22 -13.5 -55.5t-7.5 -59.5q0 -52 26.5 -83.5t92.5 -46t185 -14.5q125 0 196 13t100.5 32t29.5 35q0 24 -18 53t-46 59.5t-59.5 60.5t-59.5 55t-46 43.5t-18 26.5q0 23 5.5 43t15.5 31q27 29 79.5 60.5 t120.5 65t139 68.5l34 -74q-88 -44 -172.5 -85t-147.5 -85q55 -47 103 -91t89 -94.5t75 -114.5q21 -39 49 -57t55.5 -23.5t44.5 -5.5q21 0 30.5 -11.5t9.5 -27.5t-14 -29.5t-36 -13.5q-24 0 -56 6.5t-63.5 25t-55.5 54.5q-17 -22 -45 -41t-74.5 -32.5t-117.5 -21t-173 -7.5z " />
<glyph unicode="&#x6a9;" horiz-adv-x="412" arabic-form="initial" d="M260 317q65 0 110 -44.5t45 -109.5q0 -47 -26.5 -88.5t-64.5 -58t-64 -16.5h-270v63h270q36 0 62 29t26 65.5t-25.5 67t-62.5 30.5h-163v72l135 190l53 -38l-118 -162h93z" />
<glyph unicode="&#x6a9;" horiz-adv-x="508" arabic-form="medial" d="M260 317q65 0 110 -44.5t45 -109.5q0 -45 -34 -100h87v-63h-478v63h270q36 0 62 29t26 65.5t-25.5 67t-62.5 30.5h-163v72l135 190l53 -38l-118 -162h93z" />
<glyph unicode="&#x6af;" horiz-adv-x="877" arabic-form="isolated" d="M462 550l-37 56q58 35 152.5 91.5t223.5 123.5l28 -61q-130 -69 -218 -120.5t-149 -89.5zM390 -21q-178 0 -269 47t-91 156q0 37 9 78.5t19 78.5l75 -19q-6 -22 -13.5 -55.5t-7.5 -59.5q0 -52 26.5 -83.5t92.5 -46t185 -14.5q98 0 161.5 6t99 17t50 27.5t14.5 37.5 q0 23 -17.5 57t-71.5 88q-37 38 -74 67t-61 49t-24 29q0 23 5.5 43t15.5 31q40 43 125.5 86.5t213.5 107.5l34 -74q-91 -44 -148.5 -72.5t-95 -50t-69.5 -43.5q117 -95 179.5 -170.5t62.5 -152.5q0 -23 -7 -47t-30.5 -45t-69.5 -37.5t-124 -26t-195 -9.5z" />
<glyph unicode="&#x6af;" horiz-adv-x="975" arabic-form="final" d="M462 550l-37 56q58 35 152.5 91.5t223.5 123.5l28 -61q-130 -69 -218 -120.5t-149 -89.5zM390 -21q-178 0 -269 47t-91 156q0 37 9 78.5t19 78.5l75 -19q-6 -22 -13.5 -55.5t-7.5 -59.5q0 -52 26.5 -83.5t92.5 -46t185 -14.5q125 0 196 13t100.5 32t29.5 35q0 24 -18 53 t-46 59.5t-59.5 60.5t-59.5 55t-46 43.5t-18 26.5q0 23 5.5 43t15.5 31q27 29 79.5 60.5t120.5 65t139 68.5l34 -74q-88 -44 -172.5 -85t-147.5 -85q55 -47 103 -91t89 -94.5t75 -114.5q21 -39 49 -57t55.5 -23.5t44.5 -5.5q21 0 30.5 -11.5t9.5 -27.5t-14 -29.5t-36 -13.5 q-24 0 -56 6.5t-63.5 25t-55.5 54.5q-17 -22 -45 -41t-74.5 -32.5t-117.5 -21t-173 -7.5z" />
<glyph unicode="&#x6af;" horiz-adv-x="412" arabic-form="initial" d="M-1 550l-37 56q58 35 152.5 91.5t223.5 123.5l28 -61q-130 -69 -218 -120.5t-149 -89.5zM0 -5l10 82h94q59 0 93.5 6.5t51 17t22 23t5.5 25.5q0 23 -17.5 57t-71.5 88q-37 38 -74 67t-61 49t-24 29q0 23 5.5 43t15.5 31q40 43 125.5 86.5t213.5 107.5l34 -74 q-91 -44 -148.5 -72.5t-95 -50t-69.5 -43.5q117 -95 179.5 -170.5t62.5 -152.5q0 -22 -8 -48t-34 -49t-78 -37.5t-140 -14.5h-91z" />
<glyph unicode="&#x6af;" horiz-adv-x="508" arabic-form="medial" d="M-1 550l-37 56q58 35 152.5 91.5t223.5 123.5l28 -61q-130 -69 -218 -120.5t-149 -89.5zM0 -5l10 82h77q83 0 123 9t52.5 24t12.5 31q0 24 -18 53t-46 59.5t-59.5 60.5t-59.5 55t-46 43.5t-18 26.5q0 23 5.5 43t15.5 31q27 29 79.5 60.5t120.5 65t139 68.5l34 -74 q-88 -44 -172.5 -85t-147.5 -85q55 -47 103 -91t89 -94.5t75 -114.5q21 -39 49 -57t55.5 -23.5t44.5 -5.5q21 0 30.5 -11.5t9.5 -27.5t-14 -29.5t-36 -13.5q-24 0 -55.5 6.5t-63.5 25t-56 54.5q-20 -29 -50 -48t-78 -28.5t-122 -9.5h-83z" />
<glyph unicode="&#x6b3;" horiz-adv-x="877" arabic-form="isolated" d="M462 550l-37 56q58 35 152.5 91.5t223.5 123.5l28 -61q-130 -69 -218 -120.5t-149 -89.5zM390 -21q-178 0 -269 47t-91 156q0 37 9 78.5t19 78.5l75 -19q-6 -22 -13.5 -55.5t-7.5 -59.5q0 -52 26.5 -83.5t92.5 -46t185 -14.5q98 0 161.5 6t99 17t50 27.5t14.5 37.5 q0 23 -17.5 57t-71.5 88q-37 38 -74 67t-61 49t-24 29q0 23 5.5 43t15.5 31q40 43 125.5 86.5t213.5 107.5l34 -74q-91 -44 -148.5 -72.5t-95 -50t-69.5 -43.5q117 -95 179.5 -170.5t62.5 -152.5q0 -23 -7 -47t-30.5 -45t-69.5 -37.5t-124 -26t-195 -9.5zM410 -208 q-21 0 -35.5 14.5t-14.5 34.5t14.5 35t35.5 15q20 0 34.5 -15t14.5 -35t-14.5 -34.5t-34.5 -14.5zM411 -337q-21 0 -35.5 14.5t-14.5 34.5t14.5 35t35.5 15q20 0 34.5 -15t14.5 -35t-14.5 -34.5t-34.5 -14.5z" />
<glyph unicode="&#x6b3;" horiz-adv-x="975" arabic-form="final" d="M462 550l-37 56q58 35 152.5 91.5t223.5 123.5l28 -61q-130 -69 -218 -120.5t-149 -89.5zM390 -21q-178 0 -269 47t-91 156q0 37 9 78.5t19 78.5l75 -19q-6 -22 -13.5 -55.5t-7.5 -59.5q0 -52 26.5 -83.5t92.5 -46t185 -14.5q125 0 196 13t100.5 32t29.5 35q0 24 -18 53 t-46 59.5t-59.5 60.5t-59.5 55t-46 43.5t-18 26.5q0 23 5.5 43t15.5 31q27 29 79.5 60.5t120.5 65t139 68.5l34 -74q-88 -44 -172.5 -85t-147.5 -85q55 -47 103 -91t89 -94.5t75 -114.5q21 -39 49 -57t55.5 -23.5t44.5 -5.5q21 0 30.5 -11.5t9.5 -27.5t-14 -29.5t-36 -13.5 q-24 0 -56 6.5t-63.5 25t-55.5 54.5q-17 -22 -45 -41t-74.5 -32.5t-117.5 -21t-173 -7.5zM410 -208q-21 0 -35.5 14.5t-14.5 34.5t14.5 35t35.5 15q20 0 34.5 -15t14.5 -35t-14.5 -34.5t-34.5 -14.5zM411 -337q-21 0 -35.5 14.5t-14.5 34.5t14.5 35t35.5 15q20 0 34.5 -15 t14.5 -35t-14.5 -34.5t-34.5 -14.5z" />
<glyph unicode="&#x6b3;" horiz-adv-x="412" arabic-form="initial" d="M-1 550l-37 56q58 35 152.5 91.5t223.5 123.5l28 -61q-130 -69 -218 -120.5t-149 -89.5zM0 -5l10 82h94q59 0 93.5 6.5t51 17t22 23t5.5 25.5q0 23 -17.5 57t-71.5 88q-37 38 -74 67t-61 49t-24 29q0 23 5.5 43t15.5 31q40 43 125.5 86.5t213.5 107.5l34 -74 q-91 -44 -148.5 -72.5t-95 -50t-69.5 -43.5q117 -95 179.5 -170.5t62.5 -152.5q0 -22 -8 -48t-34 -49t-78 -37.5t-140 -14.5h-91zM163 -187q-21 0 -35.5 14.5t-14.5 34.5t14.5 35t35.5 15q20 0 34.5 -15t14.5 -35t-14.5 -34.5t-34.5 -14.5zM164 -316q-21 0 -35.5 14.5 t-14.5 34.5t14.5 35t35.5 15q20 0 34.5 -15t14.5 -35t-14.5 -34.5t-34.5 -14.5z" />
<glyph unicode="&#x6b3;" horiz-adv-x="508" arabic-form="medial" d="M-1 550l-37 56q58 35 152.5 91.5t223.5 123.5l28 -61q-130 -69 -218 -120.5t-149 -89.5zM0 -5l10 82h77q83 0 123 9t52.5 24t12.5 31q0 24 -18 53t-46 59.5t-59.5 60.5t-59.5 55t-46 43.5t-18 26.5q0 23 5.5 43t15.5 31q27 29 79.5 60.5t120.5 65t139 68.5l34 -74 q-88 -44 -172.5 -85t-147.5 -85q55 -47 103 -91t89 -94.5t75 -114.5q21 -39 49 -57t55.5 -23.5t44.5 -5.5q21 0 30.5 -11.5t9.5 -27.5t-14 -29.5t-36 -13.5q-24 0 -55.5 6.5t-63.5 25t-56 54.5q-20 -29 -50 -48t-78 -28.5t-122 -9.5h-83zM163 -187q-21 0 -35.5 14.5 t-14.5 34.5t14.5 35t35.5 15q20 0 34.5 -15t14.5 -35t-14.5 -34.5t-34.5 -14.5zM164 -316q-21 0 -35.5 14.5t-14.5 34.5t14.5 35t35.5 15q20 0 34.5 -15t14.5 -35t-14.5 -34.5t-34.5 -14.5z" />
<glyph unicode="&#x6b1;" horiz-adv-x="877" arabic-form="isolated" d="M639 801q-21 0 -35.5 14.5t-14.5 34.5t14.5 35t35.5 15q20 0 34.5 -15t14.5 -35t-14.5 -34.5t-34.5 -14.5zM524 748q-21 0 -35.5 14.5t-14.5 34.5t14.5 35t35.5 15q20 0 34.5 -15t14.5 -35t-14.5 -34.5t-34.5 -14.5zM462 550l-37 56q58 35 152.5 91.5t223.5 123.5l28 -61 q-130 -69 -218 -120.5t-149 -89.5zM390 -21q-178 0 -269 47t-91 156q0 37 9 78.5t19 78.5l75 -19q-6 -22 -13.5 -55.5t-7.5 -59.5q0 -52 26.5 -83.5t92.5 -46t185 -14.5q98 0 161.5 6t99 17t50 27.5t14.5 37.5q0 23 -17.5 57t-71.5 88q-37 38 -74 67t-61 49t-24 29 q0 23 5.5 43t15.5 31q40 43 125.5 86.5t213.5 107.5l34 -74q-91 -44 -148.5 -72.5t-95 -50t-69.5 -43.5q117 -95 179.5 -170.5t62.5 -152.5q0 -23 -7 -47t-30.5 -45t-69.5 -37.5t-124 -26t-195 -9.5z" />
<glyph unicode="&#x6b1;" horiz-adv-x="975" arabic-form="final" d="M639 801q-21 0 -35.5 14.5t-14.5 34.5t14.5 35t35.5 15q20 0 34.5 -15t14.5 -35t-14.5 -34.5t-34.5 -14.5zM524 748q-21 0 -35.5 14.5t-14.5 34.5t14.5 35t35.5 15q20 0 34.5 -15t14.5 -35t-14.5 -34.5t-34.5 -14.5zM462 550l-37 56q58 35 152.5 91.5t223.5 123.5l28 -61 q-130 -69 -218 -120.5t-149 -89.5zM390 -21q-178 0 -269 47t-91 156q0 37 9 78.5t19 78.5l75 -19q-6 -22 -13.5 -55.5t-7.5 -59.5q0 -52 26.5 -83.5t92.5 -46t185 -14.5q125 0 196 13t100.5 32t29.5 35q0 24 -18 53t-46 59.5t-59.5 60.5t-59.5 55t-46 43.5t-18 26.5 q0 23 5.5 43t15.5 31q27 29 79.5 60.5t120.5 65t139 68.5l34 -74q-88 -44 -172.5 -85t-147.5 -85q55 -47 103 -91t89 -94.5t75 -114.5q21 -39 49 -57t55.5 -23.5t44.5 -5.5q21 0 30.5 -11.5t9.5 -27.5t-14 -29.5t-36 -13.5q-24 0 -56 6.5t-63.5 25t-55.5 54.5 q-17 -22 -45 -41t-74.5 -32.5t-117.5 -21t-173 -7.5z" />
<glyph unicode="&#x6b1;" horiz-adv-x="412" arabic-form="initial" d="M187 799q-21 0 -35.5 14.5t-14.5 34.5t14.5 35t35.5 15q20 0 34.5 -15t14.5 -35t-14.5 -34.5t-34.5 -14.5zM72 746q-21 0 -35.5 14.5t-14.5 34.5t14.5 35t35.5 15q20 0 34.5 -15t14.5 -35t-14.5 -34.5t-34.5 -14.5zM-1 550l-37 56q58 35 152.5 91.5t223.5 123.5l28 -61 q-130 -69 -218 -120.5t-149 -89.5zM0 -5l10 82h94q59 0 93.5 6.5t51 17t22 23t5.5 25.5q0 23 -17.5 57t-71.5 88q-37 38 -74 67t-61 49t-24 29q0 23 5.5 43t15.5 31q40 43 125.5 86.5t213.5 107.5l34 -74q-91 -44 -148.5 -72.5t-95 -50t-69.5 -43.5q117 -95 179.5 -170.5 t62.5 -152.5q0 -22 -8 -48t-34 -49t-78 -37.5t-140 -14.5h-91z" />
<glyph unicode="&#x6b1;" horiz-adv-x="508" arabic-form="medial" d="M182 799q-21 0 -35.5 14.5t-14.5 34.5t14.5 35t35.5 15q20 0 34.5 -15t14.5 -35t-14.5 -34.5t-34.5 -14.5zM67 746q-21 0 -35.5 14.5t-14.5 34.5t14.5 35t35.5 15q20 0 34.5 -15t14.5 -35t-14.5 -34.5t-34.5 -14.5zM-1 550l-37 56q58 35 152.5 91.5t223.5 123.5l28 -61 q-130 -69 -218 -120.5t-149 -89.5zM0 -5l10 82h77q83 0 123 9t52.5 24t12.5 31q0 24 -18 53t-46 59.5t-59.5 60.5t-59.5 55t-46 43.5t-18 26.5q0 23 5.5 43t15.5 31q27 29 79.5 60.5t120.5 65t139 68.5l34 -74q-88 -44 -172.5 -85t-147.5 -85q55 -47 103 -91t89 -94.5 t75 -114.5q21 -39 49 -57t55.5 -23.5t44.5 -5.5q21 0 30.5 -11.5t9.5 -27.5t-14 -29.5t-36 -13.5q-24 0 -55.5 6.5t-63.5 25t-56 54.5q-20 -29 -50 -48t-78 -28.5t-122 -9.5h-83z" />
<glyph unicode="&#x6ba;" horiz-adv-x="685" arabic-form="isolated" d="M30 -1q0 36 10 80t32 97l72 -28q-16 -42 -24 -77t-8 -65q0 -52 27 -86t74 -51t106 -17q67 0 112.5 18t72.5 47.5t38.5 65.5t11.5 71q0 38 -14.5 92t-53.5 134l75 38q29 -58 51.5 -121.5t22.5 -131.5q0 -48 -15 -100t-51 -96t-97.5 -71.5t-153.5 -27.5q-78 0 -143.5 24 t-105 75t-39.5 130z" />
<glyph unicode="&#x6ba;" horiz-adv-x="730" arabic-form="final" d="M30 -1q0 36 10 80t32 97l72 -28q-16 -42 -24 -77t-8 -65q0 -55 27.5 -89.5t74 -50.5t102.5 -16q91 0 142.5 25.5t73 65.5t21.5 85q0 66 -14.5 121.5t-31.5 114.5l81 22q16 -57 22.5 -82.5t10.5 -41.5q11 -37 29 -54.5t41.5 -23t48.5 -5.5q21 0 30.5 -11.5t9.5 -27.5 t-14 -29.5t-36 -13.5q-31 0 -54.5 8.5t-39.5 21.5q-5 -49 -23 -95t-54.5 -82.5t-96.5 -58t-149 -21.5q-75 0 -139.5 25t-104 76.5t-39.5 129.5z" />
<glyph unicode="&#x6bb;" horiz-adv-x="685" arabic-form="isolated" d="M30 -1q0 36 10 80t32 97l72 -28q-16 -42 -24 -77t-8 -65q0 -52 27 -86t74 -51t106 -17q67 0 112.5 18t72.5 47.5t38.5 65.5t11.5 71q0 38 -14.5 92t-53.5 134l75 38q29 -58 51.5 -121.5t22.5 -131.5q0 -48 -15 -100t-51 -96t-97.5 -71.5t-153.5 -27.5q-78 0 -143.5 24 t-105 75t-39.5 130zM335 426q-18 0 -42.5 1.5t-46.5 3.5l-33 3l2 58q6 -1 13 -1.5t15 -1.5q10 18 22 34l-5 162h55l5 -106q18 13 37.5 20.5t39.5 7.5q38 0 60 -23t22 -57q0 -20 -11.5 -43.5t-42.5 -40.5t-90 -17zM389 548q-18 0 -35 -11t-31.5 -26t-22.5 -26q16 -1 28 -1 q49 0 71 10.5t22 27.5q0 14 -9 20t-23 6z" />
<glyph unicode="&#x6bb;" horiz-adv-x="730" arabic-form="final" d="M30 -1q0 36 10 80t32 97l72 -28q-16 -42 -24 -77t-8 -65q0 -55 27.5 -89.5t74 -50.5t102.5 -16q91 0 142.5 25.5t73 65.5t21.5 85q0 66 -14.5 121.5t-31.5 114.5l81 22q16 -57 22.5 -82.5t10.5 -41.5q11 -37 29 -54.5t41.5 -23t48.5 -5.5q21 0 30.5 -11.5t9.5 -27.5 t-14 -29.5t-36 -13.5q-31 0 -54.5 8.5t-39.5 21.5q-5 -49 -23 -95t-54.5 -82.5t-96.5 -58t-149 -21.5q-75 0 -139.5 25t-104 76.5t-39.5 129.5zM335 426q-18 0 -42.5 1.5t-46.5 3.5l-33 3l2 58q6 -1 13 -1.5t15 -1.5q10 18 22 34l-5 162h55l5 -106q18 13 37.5 20.5t39.5 7.5 q38 0 60 -23t22 -57q0 -20 -11.5 -43.5t-42.5 -40.5t-90 -17zM389 548q-18 0 -35 -11t-31.5 -26t-22.5 -26q16 -1 28 -1q49 0 71 10.5t22 27.5q0 14 -9 20t-23 6z" />
<glyph unicode="&#x6bb;" horiz-adv-x="299" arabic-form="initial" d="M151 535q-18 0 -42.5 1.5t-46.5 3.5l-33 3l2 58q6 -1 13 -1.5t15 -1.5q10 18 22 34l-5 162h55l5 -106q18 13 37.5 20.5t39.5 7.5q38 0 60 -23t22 -57q0 -20 -11.5 -43.5t-42.5 -40.5t-90 -17zM205 657q-18 0 -35 -11t-31.5 -26t-22.5 -26q16 -1 28 -1q49 0 71 10.5 t22 27.5q0 14 -9 20t-23 6zM0 -5l10 82q59 0 92 4.5t47 23t14 58.5q0 38 -17.5 95.5t-39.5 114.5l81 30q13 -32 24.5 -73t19.5 -81t8 -70q0 -100 -56 -142t-183 -42z" />
<glyph unicode="&#x6bb;" horiz-adv-x="343" arabic-form="medial" d="M0 -5l10 82q42 0 66 7.5t36.5 29t21.5 62.5t22 107l78 -15q-6 -27 -13.5 -62t-7.5 -59q0 -20 9 -36t39 -25t92 -9q21 0 30.5 -11.5t9.5 -27.5t-14 -29.5t-36 -13.5q-79 0 -117 17t-52 51q-30 -42 -69 -55t-105 -13zM190 414q-18 0 -42.5 1.5t-46.5 3.5l-33 3l2 58 q6 -1 13 -1.5t15 -1.5q10 18 22 34l-5 162h55l5 -106q18 13 37.5 20.5t39.5 7.5q38 0 60 -23t22 -57q0 -20 -11.5 -43.5t-42.5 -40.5t-90 -17zM244 536q-18 0 -35 -11t-31.5 -26t-22.5 -26q16 -1 28 -1q49 0 71 10.5t22 27.5q0 14 -9 20t-23 6z" />
<glyph unicode="&#x6c0;" horiz-adv-x="405" arabic-form="isolated" d="M208 255q-38 0 -65 -29.5t-27 -65.5t26.5 -64.5t66 -28.5t68 28t28.5 64.5t-29.5 66t-67.5 29.5zM211 321q64 0 110.5 -47.5t46.5 -110.5v-4q0 -66 -47 -112.5t-112.5 -46.5t-112 47t-46.5 111.5t47.5 113.5t110.5 49h3zM117 567l-12 54q15 3 26 6t21 5q-19 13 -33 34 t-14 46q0 45 31.5 68t71.5 23q23 0 47 -8l-8 -50q-10 2 -19 4t-20 2q-49 0 -49 -36q0 -26 19.5 -43t38.5 -22q38 11 67 22l16 -51q-24 -9 -56.5 -19t-65.5 -19t-61 -16z" />
<glyph unicode="&#x6c0;" horiz-adv-x="486" arabic-form="final" d="M311 63v189q-85 6 -138.5 -48.5t-55.5 -140.5h194zM50 47q0 106 67.5 188.5t168.5 82.5q45 0 87 -19v-236h53v-63h-374q-2 32 -2 47zM153 638l-12 54q15 3 26 6t21 5q-19 13 -33 34t-14 46q0 45 31.5 68t71.5 23q23 0 47 -8l-8 -50q-10 2 -19 4t-20 2q-49 0 -49 -36 q0 -26 19.5 -43t38.5 -22q38 11 67 22l16 -51q-24 -9 -56.5 -19t-65.5 -19t-61 -16z" />
<glyph unicode="&#x6c1;" horiz-adv-x="405" arabic-form="isolated" d="M208 255q-38 0 -65 -29.5t-27 -65.5t26.5 -64.5t66 -28.5t68 28t28.5 64.5t-29.5 66t-67.5 29.5zM211 321q64 0 110.5 -47.5t46.5 -110.5v-4q0 -66 -47 -112.5t-112.5 -46.5t-112 47t-46.5 111.5t47.5 113.5t110.5 49h3z" />
<glyph unicode="&#x6c1;" horiz-adv-x="479" arabic-form="final" d="M479 -5q-57 0 -91.5 17t-56 47.5t-37.5 72.5t-34 91q-4 13 -19 18t-32 5q-26 0 -51.5 -11t-42 -33t-16.5 -54q0 -28 8.5 -53.5t19.5 -57.5l-72 -20q-13 35 -24 65.5t-11 73.5q0 55 31 93.5t78 58.5t94 20q17 0 36.5 -3t36 -14.5t24.5 -36.5q16 -45 28.5 -81.5t28.5 -62.5 t42.5 -39.5t69.5 -13.5q21 0 30.5 -11.5t9.5 -27.5t-14 -29.5t-36 -13.5z" />
<glyph unicode="&#x6c1;" horiz-adv-x="269" arabic-form="initial" d="M0 -5l10 82q49 0 78 6t42 24.5t13 55.5q0 38 -17.5 95.5t-39.5 114.5l81 30q13 -32 24.5 -73t19.5 -81t8 -70q0 -100 -53.5 -142t-165.5 -42zM136 -27l26 -26q-43 -24 -44 -61h3q18 0 30 -8.5t12 -24.5q0 -13 -10 -27t-33 -14q-19 0 -32.5 14t-13.5 42q0 25 14.5 57 t47.5 48z" />
<glyph unicode="&#x6c1;" horiz-adv-x="438" arabic-form="medial" d="M251 -269q-46 32 -76.5 83t-47 108.5t-20.5 106.5q-30 -34 -107 -34l9 82q16 0 36.5 3.5t41 19.5t35.5 56l67 -17q-14 -53 -11 -107.5t21 -103t48 -83.5q0 70 18.5 122t62.5 81t120 29q20 0 30 -11.5t10 -27.5t-13.5 -29.5t-34.5 -13.5q-55 0 -83 -22.5t-37.5 -69 t-9.5 -118.5z" />
<glyph unicode="&#x6be;" horiz-adv-x="672" arabic-form="isolated" d="M483 -8q-85 0 -165 43q-43 -21 -88 -32t-83 -11q-49 0 -81.5 12t-50.5 19l23 67q17 -5 44.5 -12t64.5 -7q29 0 54 3.5t46 10.5q-32 30 -51 68.5t-19 84.5q0 57 30.5 103.5t82.5 59.5q-23 18 -49 36l47 62q96 -70 158.5 -123.5t99 -93t54 -69t22.5 -52t5 -42.5 q0 -33 -14.5 -62t-46 -47t-83.5 -18zM252 248q0 -40 20 -71.5t51 -54.5q40 30 58 65.5t18 62.5q0 32 -18.5 58.5t-51.5 26.5q-34 0 -55.5 -27t-21.5 -60zM473 239q0 -47 -21.5 -85.5t-55.5 -67.5q43 -15 83 -15q34 0 50 11.5t16 38.5q0 6 -2.5 20t-17.5 39.5t-52 64.5v-6z " />
<glyph unicode="&#x6be;" horiz-adv-x="614" arabic-form="final" d="M152 -5q-38 0 -71 8t-66 23l23 67q34 -11 65 -15.5t65 -4.5h22q3 76 22.5 139t49.5 108.5t65.5 70.5t71.5 25q49 0 84 -43t35 -122q0 -37 -14 -78.5t-53 -74.5q40 -9 82.5 -15t90.5 -6q21 0 30.5 -11.5t9.5 -27.5t-14 -29.5t-36 -13.5q-34 0 -77 5q23 -34 25.5 -71.5 t-14 -70.5t-50 -54t-84.5 -21q-86 0 -148 53t-74 161q-21 -2 -40 -2zM392 334q-20 0 -47 -32t-49 -88.5t-26 -129.5q48 7 85.5 24.5t59 49.5t21.5 84q0 21 -4.5 42t-14.5 35.5t-25 14.5zM416 -135q26 0 51 15t25 55q0 25 -12.5 45.5t-43.5 33.5t-88 13q-17 0 -36 -2.5 t-40 -6.5q6 -50 22 -80t37.5 -46t43.5 -21.5t41 -5.5z" />
<glyph unicode="&#x6be;" horiz-adv-x="574" arabic-form="initial" d="M313 63v193q-65 -13 -110.5 -69.5t-38.5 -123.5h149zM375 63h151q6 68 -39.5 126t-111.5 69v-195zM596 40q0 -16 -2 -40h-604v63h106q7 100 65.5 173.5t151.5 83.5v93h62v-92q100 -9 160.5 -91t60.5 -190z" />
<glyph unicode="&#x6be;" horiz-adv-x="507" arabic-form="medial" d="M313 63v192q-66 -13 -111 -69t-38 -123h149zM375 63h151q6 68 -39.5 125.5t-111.5 68.5v-194zM647 63v-63h-657v63h106q7 99 65.5 172.5t151.5 83.5v93h62v-93q94 -6 153.5 -80t66.5 -176h52z" />
<glyph unicode="&#x6d2;" horiz-adv-x="942" arabic-form="isolated" d="M471 -21q-225 0 -332 40t-107 118q0 37 19 66t44.5 53t45.5 44q25 26 42 53t31.5 49.5t31 36.5t39.5 14q33 0 61 -25t52 -66.5t45 -92.5l-67 -45q-18 44 -43 87t-54 68q-2 -10 -18 -47t-55 -81q-24 -28 -45.5 -44.5t-34.5 -30t-13 -31.5q0 -35 88 -59.5t271 -24.5 q154 0 267 13t168 21l-14 -78q-27 -7 -73 -14t-104 -12.5t-121 -8.5t-124 -3z" />
<glyph unicode="&#x6d2;" horiz-adv-x="549" arabic-form="final" d="M439 -298q-225 0 -332 40t-107 118q0 55 61.5 104.5t186 81t311.5 31.5q21 0 30.5 -11.5t9.5 -27.5t-14 -29.5t-36 -13.5q-100 0 -185 -11t-148.5 -29t-99 -40.5t-35.5 -46.5q0 -35 88 -59.5t271 -24.5q154 0 267 12t168 22l-14 -78q-27 -7 -73 -14t-104 -12.5t-121 -8.5 t-124 -3z" />
<glyph unicode="&#x6d3;" horiz-adv-x="942" arabic-form="isolated" d="M471 -21q-225 0 -332 40t-107 118q0 37 19 66t44.5 53t45.5 44q25 26 42 53t31.5 49.5t31 36.5t39.5 14q33 0 61 -25t52 -66.5t45 -92.5l-67 -45q-18 44 -43 87t-54 68q-2 -10 -18 -47t-55 -81q-24 -28 -45.5 -44.5t-34.5 -30t-13 -31.5q0 -35 88 -59.5t271 -24.5 q154 0 267 13t168 21l-14 -78q-27 -7 -73 -14t-104 -12.5t-121 -8.5t-124 -3zM104 526l-12 54q15 3 26 6t21 5q-19 13 -33 34t-14 46q0 45 31.5 68t71.5 23q23 0 47 -8l-8 -50q-10 2 -19 4t-20 2q-49 0 -49 -36q0 -26 19.5 -43t38.5 -22q38 11 67 22l16 -51 q-24 -9 -56.5 -19t-65.5 -19t-61 -16z" />
<glyph unicode="&#x6d3;" horiz-adv-x="549" arabic-form="final" d="M439 -298q-225 0 -332 40t-107 118q0 55 61.5 104.5t186 81t311.5 31.5q21 0 30.5 -11.5t9.5 -27.5t-14 -29.5t-36 -13.5q-100 0 -185 -11t-148.5 -29t-99 -40.5t-35.5 -46.5q0 -35 88 -59.5t271 -24.5q154 0 267 12t168 22l-14 -78q-27 -7 -73 -14t-104 -12.5t-121 -8.5 t-124 -3zM105 149l-12 54q15 3 26 6t21 5q-19 13 -33 34t-14 46q0 45 31.5 68t71.5 23q23 0 47 -8l-8 -50q-10 2 -19 4t-20 2q-49 0 -49 -36q0 -26 19.5 -43t38.5 -22q38 11 67 22l16 -51q-24 -9 -56.5 -19t-65.5 -19t-61 -16z" />
<glyph unicode="&#x6ad;" horiz-adv-x="882" arabic-form="isolated" d="M399 424q38 0 67 -29l-26 -36q-13 15 -32 20.5t-35 -4.5t-17 -37q1 -41 57 -47h52v-40h-195v40h64q-34 42 -11.5 87.5t76.5 45.5zM616 0h-413q-67 0 -110 46t-43 111.5t38 108t100 47.5v-62q-33 -6 -55 -33t-22 -63t27.5 -64t64.5 -28h351v380h62v-443zM469 741 q-21 0 -35.5 14.5t-14.5 34.5t14.5 35t35.5 15q20 0 34.5 -15t14.5 -35t-14.5 -34.5t-34.5 -14.5zM401 631q-21 0 -35.5 14.5t-14.5 34.5t14.5 35t35.5 15q20 0 34.5 -15t14.5 -35t-14.5 -34.5t-34.5 -14.5zM537 631q-21 0 -35.5 14.5t-14.5 34.5t14.5 35t35.5 15 q20 0 34.5 -15t14.5 -35t-14.5 -34.5t-34.5 -14.5z" />
<glyph unicode="&#x6ad;" horiz-adv-x="922" arabic-form="final" d="M399 424q38 0 67 -29l-26 -36q-13 15 -32 20.5t-35 -4.5t-17 -37q1 -41 57 -47h52v-40h-195v40h64q-34 42 -11.5 87.5t76.5 45.5zM616 63h53v-63h-466q-67 0 -110 46t-43 111.5t38 108t100 47.5v-62q-33 -6 -55 -33t-22 -63t27.5 -64t64.5 -28h350v378h63v-378zM469 741 q-21 0 -35.5 14.5t-14.5 34.5t14.5 35t35.5 15q20 0 34.5 -15t14.5 -35t-14.5 -34.5t-34.5 -14.5zM401 631q-21 0 -35.5 14.5t-14.5 34.5t14.5 35t35.5 15q20 0 34.5 -15t14.5 -35t-14.5 -34.5t-34.5 -14.5zM537 631q-21 0 -35.5 14.5t-14.5 34.5t14.5 35t35.5 15 q20 0 34.5 -15t14.5 -35t-14.5 -34.5t-34.5 -14.5z" />
<glyph unicode="&#x6ad;" horiz-adv-x="412" arabic-form="initial" d="M157 796q-21 0 -35.5 14.5t-14.5 34.5t14.5 35t35.5 15q20 0 34.5 -15t14.5 -35t-14.5 -34.5t-34.5 -14.5zM262 722q-21 0 -35.5 14.5t-14.5 34.5t14.5 35t35.5 15q20 0 34.5 -15t14.5 -35t-14.5 -34.5t-34.5 -14.5zM147 671q-21 0 -35.5 14.5t-14.5 34.5t14.5 35 t35.5 15q20 0 34.5 -15t14.5 -35t-14.5 -34.5t-34.5 -14.5zM0 -5l10 82h94q59 0 93.5 6.5t51 17t22 23t5.5 25.5q0 23 -17.5 57t-71.5 88q-37 38 -74 67t-61 49t-24 29q0 23 5.5 43t15.5 31q40 43 125.5 86.5t213.5 107.5l34 -74q-91 -44 -148.5 -72.5t-95 -50t-69.5 -43.5 q117 -95 179.5 -170.5t62.5 -152.5q0 -22 -8 -48t-34 -49t-78 -37.5t-140 -14.5h-91z" />
<glyph unicode="&#x6ad;" horiz-adv-x="508" arabic-form="medial" d="M125 796q-21 0 -35.5 14.5t-14.5 34.5t14.5 35t35.5 15q20 0 34.5 -15t14.5 -35t-14.5 -34.5t-34.5 -14.5zM230 722q-21 0 -35.5 14.5t-14.5 34.5t14.5 35t35.5 15q20 0 34.5 -15t14.5 -35t-14.5 -34.5t-34.5 -14.5zM115 671q-21 0 -35.5 14.5t-14.5 34.5t14.5 35 t35.5 15q20 0 34.5 -15t14.5 -35t-14.5 -34.5t-34.5 -14.5zM0 -5l10 82h77q83 0 123 9t52.5 24t12.5 31q0 24 -18 53t-46 59.5t-59.5 60.5t-59.5 55t-46 43.5t-18 26.5q0 23 5.5 43t15.5 31q27 29 79.5 60.5t120.5 65t139 68.5l34 -74q-88 -44 -172.5 -85t-147.5 -85 q55 -47 103 -91t89 -94.5t75 -114.5q21 -39 49 -57t55.5 -23.5t44.5 -5.5q21 0 30.5 -11.5t9.5 -27.5t-14 -29.5t-36 -13.5q-24 0 -55.5 6.5t-63.5 25t-56 54.5q-20 -29 -50 -48t-78 -28.5t-122 -9.5h-83z" />
<glyph unicode="&#x6c7;" horiz-adv-x="447" arabic-form="isolated" d="M218 255q-45 0 -72 -28.5t-27 -69.5q0 -98 128 -98q20 0 54 4q11 24 11 68t-24.5 84t-69.5 40zM242 0q-90 0 -141 43t-51 113t41.5 116t124.5 46t123.5 -53.5t40.5 -127t-29 -145t-103 -158.5l-53 43q58 60 90 125q-15 -2 -43 -2zM57.5 48q-17.5 0 -31 -13t-13.5 -31 t13 -31t31 -13t31 13t13 31t-13 31t-30.5 13zM-18 2q0 32 22 54t54 22t54 -22.5t22 -50.5t-14 -47t-37 -27v-1l-103 -51l-16 29l57 28q-39 21 -39 66z" />
<glyph unicode="&#x6c7;" horiz-adv-x="472" arabic-form="final" d="M218 255q-45 0 -72 -28.5t-27 -69.5q0 -98 128 -98q20 0 54 4q11 24 11 68t-24.5 84t-69.5 40zM242 0q-90 0 -141 43t-51 113t41.5 116t125.5 46t123.5 -52.5t39.5 -126.5q0 -37 -11 -76h58v-63h-73q-32 -79 -106 -166l-53 43q58 60 90 125q-15 -2 -43 -2zM57.5 42 q-17.5 0 -31 -13t-13.5 -31t13 -31t31 -13t31 13t13 31t-13 31t-30.5 13zM-18 -4q0 32 22 54t54 22t54 -22.5t22 -50.5t-14 -47t-37 -27v-1l-103 -51l-16 29l57 28q-39 21 -39 66z" />
<glyph unicode="&#x6c6;" horiz-adv-x="447" arabic-form="isolated" d="M218 255q-45 0 -72 -28.5t-27 -69.5q0 -98 128 -98q20 0 54 4q11 24 11 68t-24.5 84t-69.5 40zM242 0q-90 0 -141 43t-51 113t41.5 116t124.5 46t123.5 -53.5t40.5 -127t-29 -145t-103 -158.5l-53 43q58 60 90 125q-15 -2 -43 -2zM204 471q-9 20 -25 53.5t-32.5 67 t-29.5 54.5l46 25q7 -12 20 -36.5t27.5 -52t24.5 -49.5q11 26 24 55.5t24 53t16 31.5l45 -19q-5 -10 -16 -32.5t-23.5 -50t-24 -53t-17.5 -41.5z" />
<glyph unicode="&#x6c6;" horiz-adv-x="472" arabic-form="final" d="M218 255q-45 0 -72 -28.5t-27 -69.5q0 -98 128 -98q20 0 54 4q11 24 11 68t-24.5 84t-69.5 40zM242 0q-90 0 -141 43t-51 113t41.5 116t125.5 46t123.5 -52.5t39.5 -126.5q0 -37 -11 -76h58v-63h-73q-32 -79 -106 -166l-53 43q58 60 90 125q-15 -2 -43 -2zM204 465 q-9 20 -25 53.5t-32.5 67t-29.5 54.5l46 25q7 -12 20 -36.5t27.5 -52t24.5 -49.5q11 26 24 55.5t24 53t16 31.5l45 -19q-5 -10 -16 -32.5t-23.5 -50t-24 -53t-17.5 -41.5z" />
<glyph unicode="&#x6c8;" horiz-adv-x="447" arabic-form="isolated" d="M218 255q-45 0 -72 -28.5t-27 -69.5q0 -98 128 -98q20 0 54 4q11 24 11 68t-24.5 84t-69.5 40zM242 0q-90 0 -141 43t-51 113t41.5 116t124.5 46t123.5 -53.5t40.5 -127t-29 -145t-103 -158.5l-53 43q58 60 90 125q-15 -2 -43 -2zM205 480l-6 173h55l6 -173h-55z" />
<glyph unicode="&#x6c8;" horiz-adv-x="472" arabic-form="final" d="M218 255q-45 0 -72 -28.5t-27 -69.5q0 -98 128 -98q20 0 54 4q11 24 11 68t-24.5 84t-69.5 40zM242 0q-90 0 -141 43t-51 113t41.5 116t125.5 46t123.5 -52.5t39.5 -126.5q0 -37 -11 -76h58v-63h-73q-32 -79 -106 -166l-53 43q58 60 90 125q-15 -2 -43 -2zM205 474 l-6 173h55l6 -173h-55z" />
<glyph unicode="&#x677;" horiz-adv-x="597" arabic-form="isolated" d="M279 255q-45 0 -72 -28.5t-27 -69.5q0 -98 128 -98q20 0 54 4q11 24 11 68t-24.5 84t-69.5 40zM303 0q-90 0 -141 43t-51 113t41.5 116t124.5 46t123.5 -53.5t40.5 -127t-29 -145t-103 -158.5l-53 43q58 60 90 125q-15 -2 -43 -2zM359 387l-12 54q15 3 26 6t21 5 q-19 13 -33 34t-14 46q0 45 31.5 68t71.5 23q23 0 47 -8l-8 -50q-10 2 -19 4t-20 2q-49 0 -49 -36q0 -26 19.5 -43t38.5 -22q38 11 67 22l16 -51q-24 -9 -56.5 -19t-65.5 -19t-61 -16zM22.5 -25q-17.5 0 -31 -13t-13.5 -31t13 -31t31 -13t31 13t13 31t-13 31t-30.5 13z M-53 -71q0 32 22 54t54 22t54 -22.5t22 -50.5t-14 -47t-37 -27v-1l-103 -51l-16 29l57 28q-39 21 -39 66z" />
<glyph unicode="&#x6cb;" horiz-adv-x="447" arabic-form="isolated" d="M218 255q-45 0 -72 -28.5t-27 -69.5q0 -98 128 -98q20 0 54 4q11 24 11 68t-24.5 84t-69.5 40zM242 0q-90 0 -141 43t-51 113t41.5 116t124.5 46t123.5 -53.5t40.5 -127t-29 -145t-103 -158.5l-53 43q58 60 90 125q-15 -2 -43 -2zM235 550q-21 0 -35.5 14.5t-14.5 34.5 t14.5 35t35.5 15q20 0 34.5 -15t14.5 -35t-14.5 -34.5t-34.5 -14.5zM167 440q-21 0 -35.5 14.5t-14.5 34.5t14.5 35t35.5 15q20 0 34.5 -15t14.5 -35t-14.5 -34.5t-34.5 -14.5zM303 440q-21 0 -35.5 14.5t-14.5 34.5t14.5 35t35.5 15q20 0 34.5 -15t14.5 -35t-14.5 -34.5 t-34.5 -14.5z" />
<glyph unicode="&#x6cb;" horiz-adv-x="472" arabic-form="final" d="M218 255q-45 0 -72 -28.5t-27 -69.5q0 -98 128 -98q20 0 54 4q11 24 11 68t-24.5 84t-69.5 40zM242 0q-90 0 -141 43t-51 113t41.5 116t125.5 46t123.5 -52.5t39.5 -126.5q0 -37 -11 -76h58v-63h-73q-32 -79 -106 -166l-53 43q58 60 90 125q-15 -2 -43 -2zM235 544 q-21 0 -35.5 14.5t-14.5 34.5t14.5 35t35.5 15q20 0 34.5 -15t14.5 -35t-14.5 -34.5t-34.5 -14.5zM167 434q-21 0 -35.5 14.5t-14.5 34.5t14.5 35t35.5 15q20 0 34.5 -15t14.5 -35t-14.5 -34.5t-34.5 -14.5zM303 434q-21 0 -35.5 14.5t-14.5 34.5t14.5 35t35.5 15 q20 0 34.5 -15t14.5 -35t-14.5 -34.5t-34.5 -14.5z" />
<glyph unicode="&#x6c5;" horiz-adv-x="447" arabic-form="isolated" d="M56 -103v59h229q11 21 18 47q-19 -6 -39.5 -8.5t-40.5 -2.5q-76 0 -117.5 31.5t-41.5 95.5q0 38 12 76.5t34 70.5t53 51.5t69 19.5q54 0 89.5 -35t53 -91.5t17.5 -119.5q0 -151 -84 -236.5t-238 -85.5h-12t-12 1l-6 78q59 2 108 12.5t85 36.5h-177zM143 139 q0 -31 20 -49.5t69 -18.5q43 0 82 12v14q0 42 -11 78t-31 58t-48 22q-23 0 -41.5 -17.5t-29 -44.5t-10.5 -54z" />
<glyph unicode="&#x6c5;" horiz-adv-x="472" arabic-form="final" d="M72 -103v59h223q7 18 12 39h-74q-45 0 -83.5 13t-62 40.5t-23.5 72.5q0 38 13 75t35.5 67.5t53 49t66.5 18.5q67 0 114 -61t50 -193h86q21 0 30.5 -11.5t9.5 -27.5t-14 -29.5t-36 -13.5h-81q-13 -83 -57.5 -132.5t-112.5 -72t-151 -22.5h-12t-12 1l-6 79q72 2 125 12 t87 37h-180zM271 77h43q0 83 -26 128t-64 45q-21 0 -39 -16t-29.5 -42t-11.5 -55q0 -35 31.5 -47.5t95.5 -12.5z" />
<glyph unicode="&#x6c9;" horiz-adv-x="447" arabic-form="isolated" d="M218 255q-45 0 -72 -28.5t-27 -69.5q0 -98 128 -98q20 0 54 4q11 24 11 68t-24.5 84t-69.5 40zM242 0q-90 0 -141 43t-51 113t41.5 116t124.5 46t123.5 -53.5t40.5 -127t-29 -145t-103 -158.5l-53 43q58 60 90 125q-15 -2 -43 -2zM198 659l59 6q9 -20 25 -53.5t33 -67 t29 -54.5l-46 -25q-7 12 -20 36.5t-27.5 52t-24.5 49.5q-11 -26 -24 -55.5t-24 -53t-16 -31.5l-45 19q5 10 16 32.5t24 50t24 53t17 41.5z" />
<glyph unicode="&#x6c9;" horiz-adv-x="472" arabic-form="final" d="M218 255q-45 0 -72 -28.5t-27 -69.5q0 -98 128 -98q20 0 54 4q11 24 11 68t-24.5 84t-69.5 40zM242 0q-90 0 -141 43t-51 113t41.5 116t125.5 46t123.5 -52.5t39.5 -126.5q0 -37 -11 -76h58v-63h-73q-32 -79 -106 -166l-53 43q58 60 90 125q-15 -2 -43 -2zM198 653l59 6 q9 -20 25 -53.5t33 -67t29 -54.5l-46 -25q-7 12 -20 36.5t-27.5 52t-24.5 49.5q-11 -26 -24 -55.5t-24 -53t-16 -31.5l-45 19q5 10 16 32.5t24 50t24 53t17 41.5z" />
<glyph unicode="&#x6d0;" horiz-adv-x="760" arabic-form="isolated" d="M112 156q0 -35 27.5 -64t64.5 -29h190v128q0 48 36 84.5t84 36.5h103v-312h-63v250h-40q-21 0 -39.5 -18t-18.5 -41v-191h-252q-66 0 -110 46.5t-44 111.5t38.5 108t100.5 48v-62q-32 -6 -54.5 -33.5t-22.5 -62.5zM356 -419q-21 0 -35.5 14.5t-14.5 34.5t14.5 35t35.5 15 q20 0 34.5 -15t14.5 -35t-14.5 -34.5t-34.5 -14.5zM357 -548q-21 0 -35.5 14.5t-14.5 34.5t14.5 35t35.5 15q20 0 34.5 -15t14.5 -35t-14.5 -34.5t-34.5 -14.5z" />
<glyph unicode="&#x6d0;" horiz-adv-x="736" arabic-form="final" d="M112 156q0 -35 27.5 -64t64.5 -29h190v128q0 48 36 84.5t84 36.5h102v-249h64v-63h-126v250h-40q-21 0 -39.5 -18t-18.5 -41v-191h-252q-66 0 -110 46.5t-44 111.5t38.5 108t100.5 48v-62q-32 -6 -54.5 -33.5t-22.5 -62.5zM326 -419q-21 0 -35.5 14.5t-14.5 34.5t14.5 35 t35.5 15q20 0 34.5 -15t14.5 -35t-14.5 -34.5t-34.5 -14.5zM327 -548q-21 0 -35.5 14.5t-14.5 34.5t14.5 35t35.5 15q20 0 34.5 -15t14.5 -35t-14.5 -34.5t-34.5 -14.5z" />
<glyph unicode="&#x6d0;" horiz-adv-x="269" arabic-form="initial" d="M0 -5l10 82q49 0 78 6t42 24.5t13 55.5q0 38 -17.5 95.5t-39.5 114.5l81 30q13 -32 24.5 -73t19.5 -81t8 -70q0 -100 -53.5 -142t-165.5 -42zM107 -192q-21 0 -35.5 14.5t-14.5 34.5t14.5 35t35.5 15q20 0 34.5 -15t14.5 -35t-14.5 -34.5t-34.5 -14.5zM108 -321 q-21 0 -35.5 14.5t-14.5 34.5t14.5 35t35.5 15q20 0 34.5 -15t14.5 -35t-14.5 -34.5t-34.5 -14.5z" />
<glyph unicode="&#x6d0;" horiz-adv-x="343" arabic-form="medial" d="M0 -5l10 82q42 0 66 7.5t36.5 29t21.5 62.5t22 107l78 -15q-6 -27 -13.5 -62t-7.5 -59q0 -20 9 -36t39 -25t92 -9q21 0 30.5 -11.5t9.5 -27.5t-14 -29.5t-36 -13.5q-79 0 -117 17t-52 51q-30 -42 -69 -55t-105 -13zM170 -192q-21 0 -35.5 14.5t-14.5 34.5t14.5 35 t35.5 15q20 0 34.5 -15t14.5 -35t-14.5 -34.5t-34.5 -14.5zM171 -321q-21 0 -35.5 14.5t-14.5 34.5t14.5 35t35.5 15q20 0 34.5 -15t14.5 -35t-14.5 -34.5t-34.5 -14.5z" />
<glyph unicode="&#x649;" horiz-adv-x="229" arabic-form="initial" d="M180 0h-190v63h128v249h62v-312z" />
<glyph unicode="&#x649;" horiz-adv-x="243" arabic-form="medial" d="M180 63h64v-63h-254v63h128v249h62v-249z" />
<glyph unicode="&#xfbea;" horiz-adv-x="560" arabic-form="isolated" d="M281 0v63h128v249h62v-312h-190zM436 533q38 0 67 -29l-26 -36q-13 15 -32 20.5t-35 -4.5t-17 -37q1 -41 57 -47h52v-40h-195v40h64q-34 42 -11.5 87.5t76.5 45.5zM112 63h63v-63h-125v443h62v-380z" />
<glyph unicode="&#xfbeb;" horiz-adv-x="634" arabic-form="final" d="M535 63v-63h-254v63h128v249h62v-249h64zM457 533q38 0 67 -29l-26 -36q-13 15 -32 20.5t-35 -4.5t-17 -37q1 -41 57 -47h52v-40h-195v40h64q-34 42 -11.5 87.5t76.5 45.5zM112 63h63v-63h-125v443h62v-380z" />
<glyph unicode="&#xfbec;" horiz-adv-x="755" arabic-form="isolated" d="M476 0v63h128v249h62v-312h-190zM631 533q38 0 67 -29l-26 -36q-13 15 -32 20.5t-35 -4.5t-17 -37q1 -41 57 -47h52v-40h-195v40h64q-34 42 -11.5 87.5t76.5 45.5zM311 63v189q-85 6 -138.5 -48.5t-55.5 -140.5h194zM50 47q0 106 67.5 188.5t168.5 82.5q45 0 87 -19v-236 h53v-63h-374q-2 32 -2 47z" />
<glyph unicode="&#xfbed;" horiz-adv-x="829" arabic-form="final" d="M730 63v-63h-254v63h128v249h62v-249h64zM652 533q38 0 67 -29l-26 -36q-13 15 -32 20.5t-35 -4.5t-17 -37q1 -41 57 -47h52v-40h-195v40h64q-34 42 -11.5 87.5t76.5 45.5zM311 63v189q-85 6 -138.5 -48.5t-55.5 -140.5h194zM50 47q0 106 67.5 188.5t168.5 82.5 q45 0 87 -19v-236h53v-63h-374q-2 32 -2 47z" />
<glyph unicode="&#xfbee;" horiz-adv-x="741" arabic-form="isolated" d="M462 0v63h128v249h62v-312h-190zM617 533q38 0 67 -29l-26 -36q-13 15 -32 20.5t-35 -4.5t-17 -37q1 -41 57 -47h52v-40h-195v40h64q-34 42 -11.5 87.5t76.5 45.5zM218 255q-45 0 -72 -28.5t-27 -69.5q0 -98 128 -98q20 0 54 4q11 24 11 68t-24.5 84t-69.5 40zM242 0 q-90 0 -141 43t-51 113t41.5 116t125.5 46t123.5 -52.5t39.5 -126.5q0 -37 -11 -76h58v-63h-73q-32 -79 -106 -166l-53 43q58 60 90 125q-15 -2 -43 -2z" />
<glyph unicode="&#xfbef;" horiz-adv-x="815" arabic-form="final" d="M716 63v-63h-254v63h128v249h62v-249h64zM638 533q38 0 67 -29l-26 -36q-13 15 -32 20.5t-35 -4.5t-17 -37q1 -41 57 -47h52v-40h-195v40h64q-34 42 -11.5 87.5t76.5 45.5zM218 255q-45 0 -72 -28.5t-27 -69.5q0 -98 128 -98q20 0 54 4q11 24 11 68t-24.5 84t-69.5 40z M242 0q-90 0 -141 43t-51 113t41.5 116t125.5 46t123.5 -52.5t39.5 -126.5q0 -37 -11 -76h58v-63h-73q-32 -79 -106 -166l-53 43q58 60 90 125q-15 -2 -43 -2z" />
<glyph unicode="&#xfbf0;" horiz-adv-x="741" arabic-form="isolated" d="M462 0v63h128v249h62v-312h-190zM617 533q38 0 67 -29l-26 -36q-13 15 -32 20.5t-35 -4.5t-17 -37q1 -41 57 -47h52v-40h-195v40h64q-34 42 -11.5 87.5t76.5 45.5zM218 255q-45 0 -72 -28.5t-27 -69.5q0 -98 128 -98q20 0 54 4q11 24 11 68t-24.5 84t-69.5 40zM242 0 q-90 0 -141 43t-51 113t41.5 116t125.5 46t123.5 -52.5t39.5 -126.5q0 -37 -11 -76h58v-63h-73q-32 -79 -106 -166l-53 43q58 60 90 125q-15 -2 -43 -2zM57.5 42q-17.5 0 -31 -13t-13.5 -31t13 -31t31 -13t31 13t13 31t-13 31t-30.5 13zM-18 -4q0 32 22 54t54 22t54 -22.5 t22 -50.5t-14 -47t-37 -27v-1l-103 -51l-16 29l57 28q-39 21 -39 66z" />
<glyph unicode="&#xfbf1;" horiz-adv-x="815" arabic-form="final" d="M716 63v-63h-254v63h128v249h62v-249h64zM638 533q38 0 67 -29l-26 -36q-13 15 -32 20.5t-35 -4.5t-17 -37q1 -41 57 -47h52v-40h-195v40h64q-34 42 -11.5 87.5t76.5 45.5zM218 255q-45 0 -72 -28.5t-27 -69.5q0 -98 128 -98q20 0 54 4q11 24 11 68t-24.5 84t-69.5 40z M242 0q-90 0 -141 43t-51 113t41.5 116t125.5 46t123.5 -52.5t39.5 -126.5q0 -37 -11 -76h58v-63h-73q-32 -79 -106 -166l-53 43q58 60 90 125q-15 -2 -43 -2zM57.5 42q-17.5 0 -31 -13t-13.5 -31t13 -31t31 -13t31 13t13 31t-13 31t-30.5 13zM-18 -4q0 32 22 54t54 22 t54 -22.5t22 -50.5t-14 -47t-37 -27v-1l-103 -51l-16 29l57 28q-39 21 -39 66z" />
<glyph unicode="&#xfbf2;" horiz-adv-x="741" arabic-form="isolated" d="M462 0v63h128v249h62v-312h-190zM617 533q38 0 67 -29l-26 -36q-13 15 -32 20.5t-35 -4.5t-17 -37q1 -41 57 -47h52v-40h-195v40h64q-34 42 -11.5 87.5t76.5 45.5zM218 255q-45 0 -72 -28.5t-27 -69.5q0 -98 128 -98q20 0 54 4q11 24 11 68t-24.5 84t-69.5 40zM242 0 q-90 0 -141 43t-51 113t41.5 116t125.5 46t123.5 -52.5t39.5 -126.5q0 -37 -11 -76h58v-63h-73q-32 -79 -106 -166l-53 43q58 60 90 125q-15 -2 -43 -2zM204 465q-9 20 -25 53.5t-32.5 67t-29.5 54.5l46 25q7 -12 20 -36.5t27.5 -52t24.5 -49.5q11 26 24 55.5t24 53t16 31.5 l45 -19q-5 -10 -16 -32.5t-23.5 -50t-24 -53t-17.5 -41.5z" />
<glyph unicode="&#xfbf3;" horiz-adv-x="815" arabic-form="final" d="M716 63v-63h-254v63h128v249h62v-249h64zM638 533q38 0 67 -29l-26 -36q-13 15 -32 20.5t-35 -4.5t-17 -37q1 -41 57 -47h52v-40h-195v40h64q-34 42 -11.5 87.5t76.5 45.5zM218 255q-45 0 -72 -28.5t-27 -69.5q0 -98 128 -98q20 0 54 4q11 24 11 68t-24.5 84t-69.5 40z M242 0q-90 0 -141 43t-51 113t41.5 116t125.5 46t123.5 -52.5t39.5 -126.5q0 -37 -11 -76h58v-63h-73q-32 -79 -106 -166l-53 43q58 60 90 125q-15 -2 -43 -2zM204 465q-9 20 -25 53.5t-32.5 67t-29.5 54.5l46 25q7 -12 20 -36.5t27.5 -52t24.5 -49.5q11 26 24 55.5t24 53 t16 31.5l45 -19q-5 -10 -16 -32.5t-23.5 -50t-24 -53t-17.5 -41.5z" />
<glyph unicode="&#xfbf4;" horiz-adv-x="741" arabic-form="isolated" d="M462 0v63h128v249h62v-312h-190zM617 533q38 0 67 -29l-26 -36q-13 15 -32 20.5t-35 -4.5t-17 -37q1 -41 57 -47h52v-40h-195v40h64q-34 42 -11.5 87.5t76.5 45.5zM218 255q-45 0 -72 -28.5t-27 -69.5q0 -98 128 -98q20 0 54 4q11 24 11 68t-24.5 84t-69.5 40zM242 0 q-90 0 -141 43t-51 113t41.5 116t125.5 46t123.5 -52.5t39.5 -126.5q0 -37 -11 -76h58v-63h-73q-32 -79 -106 -166l-53 43q58 60 90 125q-15 -2 -43 -2zM205 474l-6 173h55l6 -173h-55z" />
<glyph unicode="&#xfbf5;" horiz-adv-x="815" arabic-form="final" d="M716 63v-63h-254v63h128v249h62v-249h64zM638 533q38 0 67 -29l-26 -36q-13 15 -32 20.5t-35 -4.5t-17 -37q1 -41 57 -47h52v-40h-195v40h64q-34 42 -11.5 87.5t76.5 45.5zM218 255q-45 0 -72 -28.5t-27 -69.5q0 -98 128 -98q20 0 54 4q11 24 11 68t-24.5 84t-69.5 40z M242 0q-90 0 -141 43t-51 113t41.5 116t125.5 46t123.5 -52.5t39.5 -126.5q0 -37 -11 -76h58v-63h-73q-32 -79 -106 -166l-53 43q58 60 90 125q-15 -2 -43 -2zM205 474l-6 173h55l6 -173h-55z" />
<glyph unicode="&#xfbf6;" horiz-adv-x="1005" arabic-form="isolated" d="M726 0v63h128v249h62v-312h-190zM881 533q38 0 67 -29l-26 -36q-13 15 -32 20.5t-35 -4.5t-17 -37q1 -41 57 -47h52v-40h-195v40h64q-34 42 -11.5 87.5t76.5 45.5zM112 156q0 -35 27.5 -64t64.5 -29h190v128q0 48 36 84.5t84 36.5h102v-249h64v-63h-126v250h-40 q-21 0 -39.5 -18t-18.5 -41v-191h-252q-66 0 -110 46.5t-44 111.5t38.5 108t100.5 48v-62q-32 -6 -54.5 -33.5t-22.5 -62.5zM326 -419q-21 0 -35.5 14.5t-14.5 34.5t14.5 35t35.5 15q20 0 34.5 -15t14.5 -35t-14.5 -34.5t-34.5 -14.5zM327 -548q-21 0 -35.5 14.5t-14.5 34.5 t14.5 35t35.5 15q20 0 34.5 -15t14.5 -35t-14.5 -34.5t-34.5 -14.5z" />
<glyph unicode="&#xfbf7;" horiz-adv-x="1079" arabic-form="final" d="M980 63v-63h-254v63h128v249h62v-249h64zM902 533q38 0 67 -29l-26 -36q-13 15 -32 20.5t-35 -4.5t-17 -37q1 -41 57 -47h52v-40h-195v40h64q-34 42 -11.5 87.5t76.5 45.5zM112 156q0 -35 27.5 -64t64.5 -29h190v128q0 48 36 84.5t84 36.5h102v-249h64v-63h-126v250h-40 q-21 0 -39.5 -18t-18.5 -41v-191h-252q-66 0 -110 46.5t-44 111.5t38.5 108t100.5 48v-62q-32 -6 -54.5 -33.5t-22.5 -62.5zM326 -419q-21 0 -35.5 14.5t-14.5 34.5t14.5 35t35.5 15q20 0 34.5 -15t14.5 -35t-14.5 -34.5t-34.5 -14.5zM327 -548q-21 0 -35.5 14.5t-14.5 34.5 t14.5 35t35.5 15q20 0 34.5 -15t14.5 -35t-14.5 -34.5t-34.5 -14.5z" />
<glyph unicode="&#xfbf8;" horiz-adv-x="612" arabic-form="initial" d="M333 0v63h128v249h62v-312h-190zM488 533q38 0 67 -29l-26 -36q-13 15 -32 20.5t-35 -4.5t-17 -37q1 -41 57 -47h52v-40h-195v40h64q-34 42 -11.5 87.5t76.5 45.5zM0 -5l10 82q42 0 66 7.5t36.5 29t21.5 62.5t22 107l78 -15q-6 -27 -13.5 -62t-7.5 -59q0 -20 9 -36 t39 -25t92 -9q21 0 30.5 -11.5t9.5 -27.5t-14 -29.5t-36 -13.5q-79 0 -117 17t-52 51q-30 -42 -69 -55t-105 -13zM170 -192q-21 0 -35.5 14.5t-14.5 34.5t14.5 35t35.5 15q20 0 34.5 -15t14.5 -35t-14.5 -34.5t-34.5 -14.5zM171 -321q-21 0 -35.5 14.5t-14.5 34.5t14.5 35 t35.5 15q20 0 34.5 -15t14.5 -35t-14.5 -34.5t-34.5 -14.5z" />
<glyph unicode="&#xfbf9;" horiz-adv-x="1005" arabic-form="isolated" d="M726 0v63h128v249h62v-312h-190zM881 533q38 0 67 -29l-26 -36q-13 15 -32 20.5t-35 -4.5t-17 -37q1 -41 57 -47h52v-40h-195v40h64q-34 42 -11.5 87.5t76.5 45.5zM112 156q0 -35 27.5 -64t64.5 -29h190v128q0 48 36 84.5t84 36.5h102v-249h64v-63h-126v250h-40 q-21 0 -39.5 -18t-18.5 -41v-191h-252q-66 0 -110 46.5t-44 111.5t38.5 108t100.5 48v-62q-32 -6 -54.5 -33.5t-22.5 -62.5z" />
<glyph unicode="&#xfbfa;" horiz-adv-x="1079" arabic-form="final" d="M980 63v-63h-254v63h128v249h62v-249h64zM902 533q38 0 67 -29l-26 -36q-13 15 -32 20.5t-35 -4.5t-17 -37q1 -41 57 -47h52v-40h-195v40h64q-34 42 -11.5 87.5t76.5 45.5zM112 156q0 -35 27.5 -64t64.5 -29h190v128q0 48 36 84.5t84 36.5h102v-249h64v-63h-126v250h-40 q-21 0 -39.5 -18t-18.5 -41v-191h-252q-66 0 -110 46.5t-44 111.5t38.5 108t100.5 48v-62q-32 -6 -54.5 -33.5t-22.5 -62.5z" />
<glyph unicode="&#xfbfb;" horiz-adv-x="612" arabic-form="initial" d="M333 0v63h128v249h62v-312h-190zM488 533q38 0 67 -29l-26 -36q-13 15 -32 20.5t-35 -4.5t-17 -37q1 -41 57 -47h52v-40h-195v40h64q-34 42 -11.5 87.5t76.5 45.5zM0 -5l10 82q42 0 66 7.5t36.5 29t21.5 62.5t22 107l78 -15q-6 -27 -13.5 -62t-7.5 -59q0 -20 9 -36 t39 -25t92 -9q21 0 30.5 -11.5t9.5 -27.5t-14 -29.5t-36 -13.5q-79 0 -117 17t-52 51q-30 -42 -69 -55t-105 -13z" />
<glyph unicode="&#x6cc;" horiz-adv-x="760" arabic-form="isolated" d="M112 156q0 -35 27.5 -64t64.5 -29h190v128q0 48 36 84.5t84 36.5h103v-312h-63v250h-40q-21 0 -39.5 -18t-18.5 -41v-191h-252q-66 0 -110 46.5t-44 111.5t38.5 108t100.5 48v-62q-32 -6 -54.5 -33.5t-22.5 -62.5z" />
<glyph unicode="&#x6cc;" horiz-adv-x="736" arabic-form="final" d="M112 156q0 -35 27.5 -64t64.5 -29h190v128q0 48 36 84.5t84 36.5h102v-249h64v-63h-126v250h-40q-21 0 -39.5 -18t-18.5 -41v-191h-252q-66 0 -110 46.5t-44 111.5t38.5 108t100.5 48v-62q-32 -6 -54.5 -33.5t-22.5 -62.5z" />
<glyph unicode="&#x6cc;" horiz-adv-x="299" arabic-form="initial" d="M0 -5l10 82q59 0 92 4.5t47 23t14 58.5q0 38 -17.5 95.5t-39.5 114.5l81 30q13 -32 24.5 -73t19.5 -81t8 -70q0 -100 -56 -142t-183 -42zM185 -194q-21 0 -35.5 14.5t-14.5 34.5t14.5 35t35.5 15q20 0 34.5 -15t14.5 -35t-14.5 -34.5t-34.5 -14.5zM48 -194 q-21 0 -35.5 14.5t-14.5 34.5t14.5 35t35.5 15q20 0 34.5 -15t14.5 -35t-14.5 -34.5t-34.5 -14.5z" />
<glyph unicode="&#x6cc;" horiz-adv-x="373" arabic-form="medial" d="M0 -5l10 82q50 0 78 7.5t42.5 29t23.5 62.5t22 107l78 -15q-6 -27 -13.5 -62t-7.5 -59q0 -15 2 -28t15 -22t44 -14.5t89 -5.5q21 0 30.5 -11.5t9.5 -27.5t-14 -29.5t-36 -13.5q-65 0 -101.5 7.5t-54 22t-25.5 36.5q-29 -41 -71.5 -53.5t-120.5 -12.5zM252 -194 q-21 0 -35.5 14.5t-14.5 34.5t14.5 35t35.5 15q20 0 34.5 -15t14.5 -35t-14.5 -34.5t-34.5 -14.5zM115 -194q-21 0 -35.5 14.5t-14.5 34.5t14.5 35t35.5 15q20 0 34.5 -15t14.5 -35t-14.5 -34.5t-34.5 -14.5z" />
<glyph unicode="&#xfc00;" horiz-adv-x="918" arabic-form="isolated" d="M639 0v63h128v249h62v-312h-190zM794 533q38 0 67 -29l-26 -36q-13 15 -32 20.5t-35 -4.5t-17 -37q1 -41 57 -47h52v-40h-195v40h64q-34 42 -11.5 87.5t76.5 45.5zM275.5 -89q14.5 0 24.5 -10.5t10 -25t-10 -24.5t-24.5 -10t-25 10t-10.5 24.5t10.5 25t25 10.5zM260 334 q90 0 156 -67q82 -82 85 -204h53v-63h-315q-124 0 -124 -91q0 -42 22 -69h-75q-12 36 -12 73q0 78 45 113q46 37 126 37h215q0 91 -64 160q-49 49 -107.5 49t-108.5 -33l-36 50q66 45 140 45z" />
<glyph unicode="&#xfc01;" horiz-adv-x="918" arabic-form="isolated" d="M639 0v63h128v249h62v-312h-190zM794 533q38 0 67 -29l-26 -36q-13 15 -32 20.5t-35 -4.5t-17 -37q1 -41 57 -47h52v-40h-195v40h64q-34 42 -11.5 87.5t76.5 45.5zM260 334q90 0 156 -67q82 -82 85 -204h53v-63h-315q-124 0 -124 -91q0 -42 22 -69h-75q-12 36 -12 73 q0 78 45 113q46 37 126 37h215q0 91 -64 160q-49 49 -107.5 49t-108.5 -33l-36 50q66 45 140 45z" />
<glyph unicode="&#xfc02;" horiz-adv-x="831" arabic-form="isolated" d="M552 0v63h128v249h62v-312h-190zM707 533q38 0 67 -29l-26 -36q-13 15 -32 20.5t-35 -4.5t-17 -37q1 -41 57 -47h52v-40h-195v40h64q-34 42 -11.5 87.5t76.5 45.5zM313.5 255q-38.5 0 -65.5 -30t-27 -67.5t28 -66.5t64.5 -29t65 30t28.5 66t-27.5 66.5t-66 30.5zM50 34 q0 111 78 197t186 86q65 0 110.5 -49.5t45.5 -104t-35 -100.5h88v-63h-209q-69 0 -114 49.5t-41 125.5q-43 -69 -43 -138t30 -124l24 -36h-74l-26 53q-20 49 -20 104z" />
<glyph unicode="&#xfc03;" horiz-adv-x="1005" arabic-form="isolated" d="M726 0v63h128v249h62v-312h-190zM881 533q38 0 67 -29l-26 -36q-13 15 -32 20.5t-35 -4.5t-17 -37q1 -41 57 -47h52v-40h-195v40h64q-34 42 -11.5 87.5t76.5 45.5zM112 156q0 -35 27.5 -64t64.5 -29h190v128q0 48 36 84.5t84 36.5h102v-249h64v-63h-126v250h-40 q-21 0 -39.5 -18t-18.5 -41v-191h-252q-66 0 -110 46.5t-44 111.5t38.5 108t100.5 48v-62q-32 -6 -54.5 -33.5t-22.5 -62.5z" />
<glyph unicode="&#xfc04;" horiz-adv-x="1005" arabic-form="isolated" d="M726 0v63h128v249h62v-312h-190zM881 533q38 0 67 -29l-26 -36q-13 15 -32 20.5t-35 -4.5t-17 -37q1 -41 57 -47h52v-40h-195v40h64q-34 42 -11.5 87.5t76.5 45.5zM423.5 -50q14.5 0 24.5 -10.5t10 -25t-10 -24.5t-24.5 -10t-25 10t-10.5 24.5t10.5 25t25 10.5z M333.5 -50q14.5 0 24.5 -10.5t10 -25t-10 -24.5t-24.5 -10t-25 10t-10.5 24.5t10.5 25t25 10.5zM112 156q0 -35 27.5 -64t64.5 -29h190v128q0 48 36 84.5t84 36.5h102v-249h64v-63h-126v250h-40q-21 0 -39.5 -18t-18.5 -41v-191h-252q-66 0 -110 46.5t-44 111.5t38.5 108 t100.5 48v-62q-32 -6 -54.5 -33.5t-22.5 -62.5z" />
<glyph unicode="&#xfc05;" horiz-adv-x="918" arabic-form="isolated" d="M799.5 -50q14.5 0 24.5 -10.5t10 -25t-10 -24.5t-24.5 -10t-25 10t-10.5 24.5t10.5 25t25 10.5zM829 0h-190v63h128v249h62v-312zM275.5 -89q14.5 0 24.5 -10.5t10 -25t-10 -24.5t-24.5 -10t-25 10t-10.5 24.5t10.5 25t25 10.5zM260 334q90 0 156 -67q82 -82 85 -204h53 v-63h-315q-124 0 -124 -91q0 -42 22 -69h-75q-12 36 -12 73q0 78 45 113q46 37 126 37h215q0 91 -64 160q-49 49 -107.5 49t-108.5 -33l-36 50q66 45 140 45z" />
<glyph unicode="&#xfc06;" horiz-adv-x="918" arabic-form="isolated" d="M799.5 -50q14.5 0 24.5 -10.5t10 -25t-10 -24.5t-24.5 -10t-25 10t-10.5 24.5t10.5 25t25 10.5zM829 0h-190v63h128v249h62v-312zM260 334q90 0 156 -67q82 -82 85 -204h53v-63h-315q-124 0 -124 -91q0 -42 22 -69h-75q-12 36 -12 73q0 78 45 113q46 37 126 37h215 q0 91 -64 160q-49 49 -107.5 49t-108.5 -33l-36 50q66 45 140 45z" />
<glyph unicode="&#xfc07;" horiz-adv-x="918" arabic-form="isolated" d="M799.5 -50q14.5 0 24.5 -10.5t10 -25t-10 -24.5t-24.5 -10t-25 10t-10.5 24.5t10.5 25t25 10.5zM829 0h-190v63h128v249h62v-312zM260 334q90 0 156 -67q82 -82 85 -204h53v-63h-315q-124 0 -124 -91q0 -42 22 -69h-75q-12 36 -12 73q0 78 45 113q46 37 126 37h215 q0 91 -64 160q-49 49 -107.5 49t-108.5 -33l-36 50q66 45 140 45zM266.5 450q14.5 0 24.5 -10.5t10 -25t-10 -24.5t-24.5 -10t-25 10t-10.5 24.5t10.5 25t25 10.5z" />
<glyph unicode="&#xfc08;" horiz-adv-x="831" arabic-form="isolated" d="M712.5 -50q14.5 0 24.5 -10.5t10 -25t-10 -24.5t-24.5 -10t-25 10t-10.5 24.5t10.5 25t25 10.5zM742 0h-190v63h128v249h62v-312zM313.5 255q-38.5 0 -65.5 -30t-27 -67.5t28 -66.5t64.5 -29t65 30t28.5 66t-27.5 66.5t-66 30.5zM50 34q0 111 78 197t186 86 q65 0 110.5 -49.5t45.5 -104t-35 -100.5h88v-63h-209q-69 0 -114 49.5t-41 125.5q-43 -69 -43 -138t30 -124l24 -36h-74l-26 53q-20 49 -20 104z" />
<glyph unicode="&#xfc09;" horiz-adv-x="1005" arabic-form="isolated" d="M886.5 -50q14.5 0 24.5 -10.5t10 -25t-10 -24.5t-24.5 -10t-25 10t-10.5 24.5t10.5 25t25 10.5zM916 0h-190v63h128v249h62v-312zM112 156q0 -35 27.5 -64t64.5 -29h190v128q0 48 36 84.5t84 36.5h102v-249h64v-63h-126v250h-40q-21 0 -39.5 -18t-18.5 -41v-191h-252 q-66 0 -110 46.5t-44 111.5t38.5 108t100.5 48v-62q-32 -6 -54.5 -33.5t-22.5 -62.5z" />
<glyph unicode="&#xfc0a;" horiz-adv-x="1005" arabic-form="isolated" d="M886.5 -50q14.5 0 24.5 -10.5t10 -25t-10 -24.5t-24.5 -10t-25 10t-10.5 24.5t10.5 25t25 10.5zM916 0h-190v63h128v249h62v-312zM423.5 -50q14.5 0 24.5 -10.5t10 -25t-10 -24.5t-24.5 -10t-25 10t-10.5 24.5t10.5 25t25 10.5zM333.5 -50q14.5 0 24.5 -10.5t10 -25 t-10 -24.5t-24.5 -10t-25 10t-10.5 24.5t10.5 25t25 10.5zM112 156q0 -35 27.5 -64t64.5 -29h190v128q0 48 36 84.5t84 36.5h102v-249h64v-63h-126v250h-40q-21 0 -39.5 -18t-18.5 -41v-191h-252q-66 0 -110 46.5t-44 111.5t38.5 108t100.5 48v-62q-32 -6 -54.5 -33.5 t-22.5 -62.5z" />
<glyph unicode="&#xfc0b;" horiz-adv-x="948" arabic-form="isolated" d="M829 0h-190v63h128v249h62v-312zM825.5 450q14.5 0 24.5 -10.5t10 -25t-10 -24.5t-24.5 -10t-25 10t-10.5 24.5t10.5 25t25 10.5zM735.5 450q14.5 0 24.5 -10.5t10 -25t-10 -24.5t-24.5 -10t-25 10t-10.5 24.5t10.5 25t25 10.5zM275.5 -89q14.5 0 24.5 -10.5t10 -25 t-10 -24.5t-24.5 -10t-25 10t-10.5 24.5t10.5 25t25 10.5zM260 334q90 0 156 -67q82 -82 85 -204h53v-63h-315q-124 0 -124 -91q0 -42 22 -69h-75q-12 36 -12 73q0 78 45 113q46 37 126 37h215q0 91 -64 160q-49 49 -107.5 49t-108.5 -33l-36 50q66 45 140 45z" />
<glyph unicode="&#xfc0c;" horiz-adv-x="948" arabic-form="isolated" d="M829 0h-190v63h128v249h62v-312zM825.5 450q14.5 0 24.5 -10.5t10 -25t-10 -24.5t-24.5 -10t-25 10t-10.5 24.5t10.5 25t25 10.5zM735.5 450q14.5 0 24.5 -10.5t10 -25t-10 -24.5t-24.5 -10t-25 10t-10.5 24.5t10.5 25t25 10.5zM260 334q90 0 156 -67q82 -82 85 -204h53 v-63h-315q-124 0 -124 -91q0 -42 22 -69h-75q-12 36 -12 73q0 78 45 113q46 37 126 37h215q0 91 -64 160q-49 49 -107.5 49t-108.5 -33l-36 50q66 45 140 45z" />
<glyph unicode="&#xfc0d;" horiz-adv-x="948" arabic-form="isolated" d="M829 0h-190v63h128v249h62v-312zM825.5 450q14.5 0 24.5 -10.5t10 -25t-10 -24.5t-24.5 -10t-25 10t-10.5 24.5t10.5 25t25 10.5zM735.5 450q14.5 0 24.5 -10.5t10 -25t-10 -24.5t-24.5 -10t-25 10t-10.5 24.5t10.5 25t25 10.5zM260 334q90 0 156 -67q82 -82 85 -204h53 v-63h-315q-124 0 -124 -91q0 -42 22 -69h-75q-12 36 -12 73q0 78 45 113q46 37 126 37h215q0 91 -64 160q-49 49 -107.5 49t-108.5 -33l-36 50q66 45 140 45zM266.5 450q14.5 0 24.5 -10.5t10 -25t-10 -24.5t-24.5 -10t-25 10t-10.5 24.5t10.5 25t25 10.5z" />
<glyph unicode="&#xfc0e;" horiz-adv-x="861" arabic-form="isolated" d="M742 0h-190v63h128v249h62v-312zM738.5 450q14.5 0 24.5 -10.5t10 -25t-10 -24.5t-24.5 -10t-25 10t-10.5 24.5t10.5 25t25 10.5zM648.5 450q14.5 0 24.5 -10.5t10 -25t-10 -24.5t-24.5 -10t-25 10t-10.5 24.5t10.5 25t25 10.5zM313.5 255q-38.5 0 -65.5 -30t-27 -67.5 t28 -66.5t64.5 -29t65 30t28.5 66t-27.5 66.5t-66 30.5zM50 34q0 111 78 197t186 86q65 0 110.5 -49.5t45.5 -104t-35 -100.5h88v-63h-209q-69 0 -114 49.5t-41 125.5q-43 -69 -43 -138t30 -124l24 -36h-74l-26 53q-20 49 -20 104z" />
<glyph unicode="&#xfc0f;" horiz-adv-x="1035" arabic-form="isolated" d="M916 0h-190v63h128v249h62v-312zM912.5 450q14.5 0 24.5 -10.5t10 -25t-10 -24.5t-24.5 -10t-25 10t-10.5 24.5t10.5 25t25 10.5zM822.5 450q14.5 0 24.5 -10.5t10 -25t-10 -24.5t-24.5 -10t-25 10t-10.5 24.5t10.5 25t25 10.5zM112 156q0 -35 27.5 -64t64.5 -29h190v128 q0 48 36 84.5t84 36.5h102v-249h64v-63h-126v250h-40q-21 0 -39.5 -18t-18.5 -41v-191h-252q-66 0 -110 46.5t-44 111.5t38.5 108t100.5 48v-62q-32 -6 -54.5 -33.5t-22.5 -62.5z" />
<glyph unicode="&#xfc10;" horiz-adv-x="1035" arabic-form="isolated" d="M916 0h-190v63h128v249h62v-312zM912.5 450q14.5 0 24.5 -10.5t10 -25t-10 -24.5t-24.5 -10t-25 10t-10.5 24.5t10.5 25t25 10.5zM822.5 450q14.5 0 24.5 -10.5t10 -25t-10 -24.5t-24.5 -10t-25 10t-10.5 24.5t10.5 25t25 10.5zM423.5 -50q14.5 0 24.5 -10.5t10 -25 t-10 -24.5t-24.5 -10t-25 10t-10.5 24.5t10.5 25t25 10.5zM333.5 -50q14.5 0 24.5 -10.5t10 -25t-10 -24.5t-24.5 -10t-25 10t-10.5 24.5t10.5 25t25 10.5zM112 156q0 -35 27.5 -64t64.5 -29h190v128q0 48 36 84.5t84 36.5h102v-249h64v-63h-126v250h-40q-21 0 -39.5 -18 t-18.5 -41v-191h-252q-66 0 -110 46.5t-44 111.5t38.5 108t100.5 48v-62q-32 -6 -54.5 -33.5t-22.5 -62.5z" />
<glyph unicode="&#xfc11;" horiz-adv-x="948" arabic-form="isolated" d="M829 0h-190v63h128v249h62v-312zM843.5 430q14.5 0 24.5 -10.5t10 -25t-10 -24.5t-24.5 -10t-25 10t-10.5 24.5t10.5 25t25 10.5zM753.5 430q14.5 0 24.5 -10.5t10 -25t-10 -24.5t-24.5 -10t-25 10t-10.5 24.5t10.5 25t25 10.5zM798.5 500q14.5 0 24.5 -10.5t10 -25 t-10 -24.5t-24.5 -10t-25 10t-10.5 24.5t10.5 25t25 10.5zM275.5 -89q14.5 0 24.5 -10.5t10 -25t-10 -24.5t-24.5 -10t-25 10t-10.5 24.5t10.5 25t25 10.5zM260 334q90 0 156 -67q82 -82 85 -204h53v-63h-315q-124 0 -124 -91q0 -42 22 -69h-75q-12 36 -12 73q0 78 45 113 q46 37 126 37h215q0 91 -64 160q-49 49 -107.5 49t-108.5 -33l-36 50q66 45 140 45z" />
<glyph unicode="&#xfc12;" horiz-adv-x="861" arabic-form="isolated" d="M742 0h-190v63h128v249h62v-312zM756.5 430q14.5 0 24.5 -10.5t10 -25t-10 -24.5t-24.5 -10t-25 10t-10.5 24.5t10.5 25t25 10.5zM666.5 430q14.5 0 24.5 -10.5t10 -25t-10 -24.5t-24.5 -10t-25 10t-10.5 24.5t10.5 25t25 10.5zM711.5 500q14.5 0 24.5 -10.5t10 -25 t-10 -24.5t-24.5 -10t-25 10t-10.5 24.5t10.5 25t25 10.5zM313.5 255q-38.5 0 -65.5 -30t-27 -67.5t28 -66.5t64.5 -29t65 30t28.5 66t-27.5 66.5t-66 30.5zM50 34q0 111 78 197t186 86q65 0 110.5 -49.5t45.5 -104t-35 -100.5h88v-63h-209q-69 0 -114 49.5t-41 125.5 q-43 -69 -43 -138t30 -124l24 -36h-74l-26 53q-20 49 -20 104z" />
<glyph unicode="&#xfc13;" horiz-adv-x="1035" arabic-form="isolated" d="M916 0h-190v63h128v249h62v-312zM930.5 430q14.5 0 24.5 -10.5t10 -25t-10 -24.5t-24.5 -10t-25 10t-10.5 24.5t10.5 25t25 10.5zM840.5 430q14.5 0 24.5 -10.5t10 -25t-10 -24.5t-24.5 -10t-25 10t-10.5 24.5t10.5 25t25 10.5zM885.5 500q14.5 0 24.5 -10.5t10 -25 t-10 -24.5t-24.5 -10t-25 10t-10.5 24.5t10.5 25t25 10.5zM112 156q0 -35 27.5 -64t64.5 -29h190v128q0 48 36 84.5t84 36.5h102v-249h64v-63h-126v250h-40q-21 0 -39.5 -18t-18.5 -41v-191h-252q-66 0 -110 46.5t-44 111.5t38.5 108t100.5 48v-62q-32 -6 -54.5 -33.5 t-22.5 -62.5z" />
<glyph unicode="&#xfc14;" horiz-adv-x="1035" arabic-form="isolated" d="M916 0h-190v63h128v249h62v-312zM930.5 430q14.5 0 24.5 -10.5t10 -25t-10 -24.5t-24.5 -10t-25 10t-10.5 24.5t10.5 25t25 10.5zM840.5 430q14.5 0 24.5 -10.5t10 -25t-10 -24.5t-24.5 -10t-25 10t-10.5 24.5t10.5 25t25 10.5zM885.5 500q14.5 0 24.5 -10.5t10 -25 t-10 -24.5t-24.5 -10t-25 10t-10.5 24.5t10.5 25t25 10.5zM423.5 -50q14.5 0 24.5 -10.5t10 -25t-10 -24.5t-24.5 -10t-25 10t-10.5 24.5t10.5 25t25 10.5zM333.5 -50q14.5 0 24.5 -10.5t10 -25t-10 -24.5t-24.5 -10t-25 10t-10.5 24.5t10.5 25t25 10.5zM112 156 q0 -35 27.5 -64t64.5 -29h190v128q0 48 36 84.5t84 36.5h102v-249h64v-63h-126v250h-40q-21 0 -39.5 -18t-18.5 -41v-191h-252q-66 0 -110 46.5t-44 111.5t38.5 108t100.5 48v-62q-32 -6 -54.5 -33.5t-22.5 -62.5z" />
<glyph unicode="&#xfc15;" horiz-adv-x="1238" arabic-form="isolated" d="M913.5 -89q14.5 0 24.5 -10.5t10 -25t-10 -24.5t-24.5 -10t-25 10t-10.5 24.5t10.5 25t25 10.5zM900 334q81 0 152 -71t82 -186q3 -41 3 -77h-498v63h435q-10 102 -63.5 155.5t-112.5 53.5t-108 -33l-38 50q67 45 148 45zM260 334q90 0 156 -67q82 -82 85 -204h53v-63 h-315q-124 0 -124 -91q0 -42 22 -69h-75q-12 36 -12 73q0 78 45 113q46 37 126 37h215q0 91 -64 160q-49 49 -107.5 49t-108.5 -33l-36 50q66 45 140 45z" />
<glyph unicode="&#xfc16;" horiz-adv-x="1151" arabic-form="isolated" d="M826.5 -89q14.5 0 24.5 -10.5t10 -25t-10 -24.5t-24.5 -10t-25 10t-10.5 24.5t10.5 25t25 10.5zM813 334q81 0 152 -71t82 -186q3 -41 3 -77h-498v63h435q-10 102 -63.5 155.5t-112.5 53.5t-108 -33l-38 50q67 45 148 45zM313.5 255q-38.5 0 -65.5 -30t-27 -67.5 t28 -66.5t64.5 -29t65 30t28.5 66t-27.5 66.5t-66 30.5zM50 34q0 111 78 197t186 86q65 0 110.5 -49.5t45.5 -104t-35 -100.5h88v-63h-209q-69 0 -114 49.5t-41 125.5q-43 -69 -43 -138t30 -124l24 -36h-74l-26 53q-20 49 -20 104z" />
<glyph unicode="&#xfc17;" horiz-adv-x="1238" arabic-form="isolated" d="M900 334q81 0 152 -71t82 -186q3 -41 3 -77h-498v63h435q-10 102 -63.5 155.5t-112.5 53.5t-108 -33l-38 50q67 45 148 45zM275.5 -89q14.5 0 24.5 -10.5t10 -25t-10 -24.5t-24.5 -10t-25 10t-10.5 24.5t10.5 25t25 10.5zM260 334q90 0 156 -67q82 -82 85 -204h53v-63 h-315q-124 0 -124 -91q0 -42 22 -69h-75q-12 36 -12 73q0 78 45 113q46 37 126 37h215q0 91 -64 160q-49 49 -107.5 49t-108.5 -33l-36 50q66 45 140 45z" />
<glyph unicode="&#xfc18;" horiz-adv-x="1151" arabic-form="isolated" d="M813 334q81 0 152 -71t82 -186q3 -41 3 -77h-498v63h435q-10 102 -63.5 155.5t-112.5 53.5t-108 -33l-38 50q67 45 148 45zM313.5 255q-38.5 0 -65.5 -30t-27 -67.5t28 -66.5t64.5 -29t65 30t28.5 66t-27.5 66.5t-66 30.5zM50 34q0 111 78 197t186 86q65 0 110.5 -49.5 t45.5 -104t-35 -100.5h88v-63h-209q-69 0 -114 49.5t-41 125.5q-43 -69 -43 -138t30 -124l24 -36h-74l-26 53q-20 49 -20 104z" />
<glyph unicode="&#xfc19;" horiz-adv-x="1238" arabic-form="isolated" d="M900 334q81 0 152 -71t82 -186q3 -41 3 -77h-498v63h435q-10 102 -63.5 155.5t-112.5 53.5t-108 -33l-38 50q67 45 148 45zM900.5 450q14.5 0 24.5 -10.5t10 -25t-10 -24.5t-24.5 -10t-25 10t-10.5 24.5t10.5 25t25 10.5zM275.5 -89q14.5 0 24.5 -10.5t10 -25t-10 -24.5 t-24.5 -10t-25 10t-10.5 24.5t10.5 25t25 10.5zM260 334q90 0 156 -67q82 -82 85 -204h53v-63h-315q-124 0 -124 -91q0 -42 22 -69h-75q-12 36 -12 73q0 78 45 113q46 37 126 37h215q0 91 -64 160q-49 49 -107.5 49t-108.5 -33l-36 50q66 45 140 45z" />
<glyph unicode="&#xfc1a;" horiz-adv-x="1238" arabic-form="isolated" d="M900 334q81 0 152 -71t82 -186q3 -41 3 -77h-498v63h435q-10 102 -63.5 155.5t-112.5 53.5t-108 -33l-38 50q67 45 148 45zM900.5 450q14.5 0 24.5 -10.5t10 -25t-10 -24.5t-24.5 -10t-25 10t-10.5 24.5t10.5 25t25 10.5zM260 334q90 0 156 -67q82 -82 85 -204h53v-63 h-315q-124 0 -124 -91q0 -42 22 -69h-75q-12 36 -12 73q0 78 45 113q46 37 126 37h215q0 91 -64 160q-49 49 -107.5 49t-108.5 -33l-36 50q66 45 140 45z" />
<glyph unicode="&#xfc1b;" horiz-adv-x="1151" arabic-form="isolated" d="M813 334q81 0 152 -71t82 -186q3 -41 3 -77h-498v63h435q-10 102 -63.5 155.5t-112.5 53.5t-108 -33l-38 50q67 45 148 45zM813.5 450q14.5 0 24.5 -10.5t10 -25t-10 -24.5t-24.5 -10t-25 10t-10.5 24.5t10.5 25t25 10.5zM313.5 255q-38.5 0 -65.5 -30t-27 -67.5 t28 -66.5t64.5 -29t65 30t28.5 66t-27.5 66.5t-66 30.5zM50 34q0 111 78 197t186 86q65 0 110.5 -49.5t45.5 -104t-35 -100.5h88v-63h-209q-69 0 -114 49.5t-41 125.5q-43 -69 -43 -138t30 -124l24 -36h-74l-26 53q-20 49 -20 104z" />
<glyph unicode="&#xfc1c;" horiz-adv-x="1433" arabic-form="isolated" d="M1201 118q0 -52 -39 -90.5t-92 -38.5t-97 46q-37 -46 -91.5 -46t-93.5 37q-25 -26 -54 -26h-95v63h107v249h65v-188q0 -28 19 -47.5t46 -19.5t46.5 19.5t19.5 47.5v188h63v-188q0 -26 20.5 -46.5t47 -20.5t46.5 19.5t20 47.5v188h62v-194zM275.5 -89q14.5 0 24.5 -10.5 t10 -25t-10 -24.5t-24.5 -10t-25 10t-10.5 24.5t10.5 25t25 10.5zM260 334q90 0 156 -67q82 -82 85 -204h53v-63h-315q-124 0 -124 -91q0 -42 22 -69h-75q-12 36 -12 73q0 78 45 113q46 37 126 37h215q0 91 -64 160q-49 49 -107.5 49t-108.5 -33l-36 50q66 45 140 45z" />
<glyph unicode="&#xfc1d;" horiz-adv-x="1433" arabic-form="isolated" d="M1201 118q0 -52 -39 -90.5t-92 -38.5t-97 46q-37 -46 -91.5 -46t-93.5 37q-25 -26 -54 -26h-95v63h107v249h65v-188q0 -28 19 -47.5t46 -19.5t46.5 19.5t19.5 47.5v188h63v-188q0 -26 20.5 -46.5t47 -20.5t46.5 19.5t20 47.5v188h62v-194zM260 334q90 0 156 -67 q82 -82 85 -204h53v-63h-315q-124 0 -124 -91q0 -42 22 -69h-75q-12 36 -12 73q0 78 45 113q46 37 126 37h215q0 91 -64 160q-49 49 -107.5 49t-108.5 -33l-36 50q66 45 140 45z" />
<glyph unicode="&#xfc1e;" horiz-adv-x="1433" arabic-form="isolated" d="M1201 118q0 -52 -39 -90.5t-92 -38.5t-97 46q-37 -46 -91.5 -46t-93.5 37q-25 -26 -54 -26h-95v63h107v249h65v-188q0 -28 19 -47.5t46 -19.5t46.5 19.5t19.5 47.5v188h63v-188q0 -26 20.5 -46.5t47 -20.5t46.5 19.5t20 47.5v188h62v-194zM260 334q90 0 156 -67 q82 -82 85 -204h53v-63h-315q-124 0 -124 -91q0 -42 22 -69h-75q-12 36 -12 73q0 78 45 113q46 37 126 37h215q0 91 -64 160q-49 49 -107.5 49t-108.5 -33l-36 50q66 45 140 45zM266.5 450q14.5 0 24.5 -10.5t10 -25t-10 -24.5t-24.5 -10t-25 10t-10.5 24.5t10.5 25t25 10.5 z" />
<glyph unicode="&#xfc1f;" horiz-adv-x="1346" arabic-form="isolated" d="M1114 118q0 -52 -39 -90.5t-92 -38.5t-97 46q-37 -46 -91.5 -46t-93.5 37q-25 -26 -54 -26h-95v63h107v249h65v-188q0 -28 19 -47.5t46 -19.5t46.5 19.5t19.5 47.5v188h63v-188q0 -26 20.5 -46.5t47 -20.5t46.5 19.5t20 47.5v188h62v-194zM313.5 255q-38.5 0 -65.5 -30 t-27 -67.5t28 -66.5t64.5 -29t65 30t28.5 66t-27.5 66.5t-66 30.5zM50 34q0 111 78 197t186 86q65 0 110.5 -49.5t45.5 -104t-35 -100.5h88v-63h-209q-69 0 -114 49.5t-41 125.5q-43 -69 -43 -138t30 -124l24 -36h-74l-26 53q-20 49 -20 104z" />
<glyph unicode="&#xfc20;" horiz-adv-x="1552" arabic-form="isolated" d="M1014.5 259q-75.5 0 -130 -60t-47.5 -136h357q7 77 -48.5 136.5t-131 59.5zM1019 320q73 0 126.5 -33t77.5 -84q49 -101 38 -203h-622v63h107v245h62v-105q45 59 91.5 88t119.5 29zM260 334q90 0 156 -67q82 -82 85 -204h53v-63h-315q-124 0 -124 -91q0 -42 22 -69h-75 q-12 36 -12 73q0 78 45 113q46 37 126 37h215q0 91 -64 160q-49 49 -107.5 49t-108.5 -33l-36 50q66 45 140 45z" />
<glyph unicode="&#xfc21;" horiz-adv-x="1465" arabic-form="isolated" d="M927.5 259q-75.5 0 -130 -60t-47.5 -136h357q7 77 -48.5 136.5t-131 59.5zM932 320q73 0 126.5 -33t77.5 -84q49 -101 38 -203h-622v63h107v245h62v-105q45 59 91.5 88t119.5 29zM313.5 255q-38.5 0 -65.5 -30t-27 -67.5t28 -66.5t64.5 -29t65 30t28.5 66t-27.5 66.5 t-66 30.5zM50 34q0 111 78 197t186 86q65 0 110.5 -49.5t45.5 -104t-35 -100.5h88v-63h-209q-69 0 -114 49.5t-41 125.5q-43 -69 -43 -138t30 -124l24 -36h-74l-26 53q-20 49 -20 104z" />
<glyph unicode="&#xfc22;" horiz-adv-x="1552" arabic-form="isolated" d="M1014.5 259q-75.5 0 -130 -60t-47.5 -136h357q7 77 -48.5 136.5t-131 59.5zM1019 320q73 0 126.5 -33t77.5 -84q49 -101 38 -203h-622v63h107v245h62v-105q45 59 91.5 88t119.5 29zM1019.5 430q14.5 0 24.5 -10.5t10 -25t-10 -24.5t-24.5 -10t-25 10t-10.5 24.5t10.5 25 t25 10.5zM275.5 -89q14.5 0 24.5 -10.5t10 -25t-10 -24.5t-24.5 -10t-25 10t-10.5 24.5t10.5 25t25 10.5zM260 334q90 0 156 -67q82 -82 85 -204h53v-63h-315q-124 0 -124 -91q0 -42 22 -69h-75q-12 36 -12 73q0 78 45 113q46 37 126 37h215q0 91 -64 160q-49 49 -107.5 49 t-108.5 -33l-36 50q66 45 140 45z" />
<glyph unicode="&#xfc23;" horiz-adv-x="1552" arabic-form="isolated" d="M1014.5 259q-75.5 0 -130 -60t-47.5 -136h357q7 77 -48.5 136.5t-131 59.5zM1019 320q73 0 126.5 -33t77.5 -84q49 -101 38 -203h-622v63h107v245h62v-105q45 59 91.5 88t119.5 29zM1019.5 430q14.5 0 24.5 -10.5t10 -25t-10 -24.5t-24.5 -10t-25 10t-10.5 24.5t10.5 25 t25 10.5zM260 334q90 0 156 -67q82 -82 85 -204h53v-63h-315q-124 0 -124 -91q0 -42 22 -69h-75q-12 36 -12 73q0 78 45 113q46 37 126 37h215q0 91 -64 160q-49 49 -107.5 49t-108.5 -33l-36 50q66 45 140 45z" />
<glyph unicode="&#xfc24;" horiz-adv-x="1552" arabic-form="isolated" d="M1014.5 259q-75.5 0 -130 -60t-47.5 -136h357q7 77 -48.5 136.5t-131 59.5zM1019 320q73 0 126.5 -33t77.5 -84q49 -101 38 -203h-622v63h107v245h62v-105q45 59 91.5 88t119.5 29zM1019.5 430q14.5 0 24.5 -10.5t10 -25t-10 -24.5t-24.5 -10t-25 10t-10.5 24.5t10.5 25 t25 10.5zM260 334q90 0 156 -67q82 -82 85 -204h53v-63h-315q-124 0 -124 -91q0 -42 22 -69h-75q-12 36 -12 73q0 78 45 113q46 37 126 37h215q0 91 -64 160q-49 49 -107.5 49t-108.5 -33l-36 50q66 45 140 45zM266.5 450q14.5 0 24.5 -10.5t10 -25t-10 -24.5t-24.5 -10 t-25 10t-10.5 24.5t10.5 25t25 10.5z" />
<glyph unicode="&#xfc25;" horiz-adv-x="1465" arabic-form="isolated" d="M927.5 259q-75.5 0 -130 -60t-47.5 -136h357q7 77 -48.5 136.5t-131 59.5zM932 320q73 0 126.5 -33t77.5 -84q49 -101 38 -203h-622v63h107v245h62v-105q45 59 91.5 88t119.5 29zM932.5 430q14.5 0 24.5 -10.5t10 -25t-10 -24.5t-24.5 -10t-25 10t-10.5 24.5t10.5 25 t25 10.5zM313.5 255q-38.5 0 -65.5 -30t-27 -67.5t28 -66.5t64.5 -29t65 30t28.5 66t-27.5 66.5t-66 30.5zM50 34q0 111 78 197t186 86q65 0 110.5 -49.5t45.5 -104t-35 -100.5h88v-63h-209q-69 0 -114 49.5t-41 125.5q-43 -69 -43 -138t30 -124l24 -36h-74l-26 53 q-20 49 -20 104z" />
<glyph unicode="&#xfc26;" horiz-adv-x="1326" arabic-form="isolated" d="M988 258q-76 0 -129.5 -59.5t-46.5 -135.5h357q7 76 -49 135.5t-132 59.5zM988 320q70 0 123 -29q53 -28 81 -76q56 -96 44 -215h-597v63h106v380h63v-207q64 84 180 84zM260 334q90 0 156 -67q82 -82 85 -204h53v-63h-315q-124 0 -124 -91q0 -42 22 -69h-75 q-12 36 -12 73q0 78 45 113q46 37 126 37h215q0 91 -64 160q-49 49 -107.5 49t-108.5 -33l-36 50q66 45 140 45z" />
<glyph unicode="&#xfc27;" horiz-adv-x="1239" arabic-form="isolated" d="M901 258q-76 0 -129.5 -59.5t-46.5 -135.5h357q7 76 -49 135.5t-132 59.5zM901 320q70 0 123 -29q53 -28 81 -76q56 -96 44 -215h-597v63h106v380h63v-207q64 84 180 84zM313.5 255q-38.5 0 -65.5 -30t-27 -67.5t28 -66.5t64.5 -29t65 30t28.5 66t-27.5 66.5t-66 30.5z M50 34q0 111 78 197t186 86q65 0 110.5 -49.5t45.5 -104t-35 -100.5h88v-63h-209q-69 0 -114 49.5t-41 125.5q-43 -69 -43 -138t30 -124l24 -36h-74l-26 53q-20 49 -20 104z" />
<glyph unicode="&#xfc28;" horiz-adv-x="1239" arabic-form="isolated" d="M901 258q-76 0 -129.5 -59.5t-46.5 -135.5h357q7 76 -49 135.5t-132 59.5zM897.5 430q14.5 0 24.5 -10.5t10 -25t-10 -24.5t-24.5 -10t-25 10t-10.5 24.5t10.5 25t25 10.5zM901 320q70 0 123 -29q53 -28 81 -76q56 -96 44 -215h-597v63h106v380h63v-207q64 84 180 84z M313.5 255q-38.5 0 -65.5 -30t-27 -67.5t28 -66.5t64.5 -29t65 30t28.5 66t-27.5 66.5t-66 30.5zM50 34q0 111 78 197t186 86q65 0 110.5 -49.5t45.5 -104t-35 -100.5h88v-63h-209q-69 0 -114 49.5t-41 125.5q-43 -69 -43 -138t30 -124l24 -36h-74l-26 53q-20 49 -20 104z " />
<glyph unicode="&#xfc29;" horiz-adv-x="1152" arabic-form="isolated" d="M910 313q65 0 115 -44l-37 -51q-35 37 -78 37t-68 -28.5t-25 -69.5t33.5 -67.5t76.5 -26.5h117v-63h-405v63h139q-32 51 -32 99q0 64 49.5 107.5t114.5 43.5zM275.5 -89q14.5 0 24.5 -10.5t10 -25t-10 -24.5t-24.5 -10t-25 10t-10.5 24.5t10.5 25t25 10.5zM260 334 q90 0 156 -67q82 -82 85 -204h53v-63h-315q-124 0 -124 -91q0 -42 22 -69h-75q-12 36 -12 73q0 78 45 113q46 37 126 37h215q0 91 -64 160q-49 49 -107.5 49t-108.5 -33l-36 50q66 45 140 45z" />
<glyph unicode="&#xfc2a;" horiz-adv-x="1065" arabic-form="isolated" d="M823 313q65 0 115 -44l-37 -51q-35 37 -78 37t-68 -28.5t-25 -69.5t33.5 -67.5t76.5 -26.5h117v-63h-405v63h139q-32 51 -32 99q0 64 49.5 107.5t114.5 43.5zM313.5 255q-38.5 0 -65.5 -30t-27 -67.5t28 -66.5t64.5 -29t65 30t28.5 66t-27.5 66.5t-66 30.5zM50 34 q0 111 78 197t186 86q65 0 110.5 -49.5t45.5 -104t-35 -100.5h88v-63h-209q-69 0 -114 49.5t-41 125.5q-43 -69 -43 -138t30 -124l24 -36h-74l-26 53q-20 49 -20 104z" />
<glyph unicode="&#xfc2b;" horiz-adv-x="1152" arabic-form="isolated" d="M910 313q65 0 115 -44l-37 -51q-35 37 -78 37t-68 -28.5t-25 -69.5t33.5 -67.5t76.5 -26.5h117v-63h-405v63h139q-32 51 -32 99q0 64 49.5 107.5t114.5 43.5zM910.5 430q14.5 0 24.5 -10.5t10 -25t-10 -24.5t-24.5 -10t-25 10t-10.5 24.5t10.5 25t25 10.5zM275.5 -89 q14.5 0 24.5 -10.5t10 -25t-10 -24.5t-24.5 -10t-25 10t-10.5 24.5t10.5 25t25 10.5zM260 334q90 0 156 -67q82 -82 85 -204h53v-63h-315q-124 0 -124 -91q0 -42 22 -69h-75q-12 36 -12 73q0 78 45 113q46 37 126 37h215q0 91 -64 160q-49 49 -107.5 49t-108.5 -33l-36 50 q66 45 140 45z" />
<glyph unicode="&#xfc2c;" horiz-adv-x="1065" arabic-form="isolated" d="M823 313q65 0 115 -44l-37 -51q-35 37 -78 37t-68 -28.5t-25 -69.5t33.5 -67.5t76.5 -26.5h117v-63h-405v63h139q-32 51 -32 99q0 64 49.5 107.5t114.5 43.5zM823.5 430q14.5 0 24.5 -10.5t10 -25t-10 -24.5t-24.5 -10t-25 10t-10.5 24.5t10.5 25t25 10.5zM313.5 255 q-38.5 0 -65.5 -30t-27 -67.5t28 -66.5t64.5 -29t65 30t28.5 66t-27.5 66.5t-66 30.5zM50 34q0 111 78 197t186 86q65 0 110.5 -49.5t45.5 -104t-35 -100.5h88v-63h-209q-69 0 -114 49.5t-41 125.5q-43 -69 -43 -138t30 -124l24 -36h-74l-26 53q-20 49 -20 104z" />
<glyph unicode="&#xfc2d;" horiz-adv-x="1096" arabic-form="isolated" d="M904 255q-36 0 -62.5 -31.5t-26.5 -67t26 -64.5t63 -29t63 29t26 64.5t-26.5 67t-62.5 31.5zM746 165q0 58 44.5 104t113 46t113.5 -46t45 -110q0 -39 -18 -74v1q-49 -86 -141 -86h-264v63h138q-31 44 -31 102zM902.5 430q14.5 0 24.5 -10.5t10 -25t-10 -24.5t-24.5 -10 t-25 10t-10.5 24.5t10.5 25t25 10.5zM275.5 -89q14.5 0 24.5 -10.5t10 -25t-10 -24.5t-24.5 -10t-25 10t-10.5 24.5t10.5 25t25 10.5zM260 334q90 0 156 -67q82 -82 85 -204h53v-63h-315q-124 0 -124 -91q0 -42 22 -69h-75q-12 36 -12 73q0 78 45 113q46 37 126 37h215 q0 91 -64 160q-49 49 -107.5 49t-108.5 -33l-36 50q66 45 140 45z" />
<glyph unicode="&#xfc2e;" horiz-adv-x="1096" arabic-form="isolated" d="M904 255q-36 0 -62.5 -31.5t-26.5 -67t26 -64.5t63 -29t63 29t26 64.5t-26.5 67t-62.5 31.5zM746 165q0 58 44.5 104t113 46t113.5 -46t45 -110q0 -39 -18 -74v1q-49 -86 -141 -86h-264v63h138q-31 44 -31 102zM902.5 430q14.5 0 24.5 -10.5t10 -25t-10 -24.5t-24.5 -10 t-25 10t-10.5 24.5t10.5 25t25 10.5zM260 334q90 0 156 -67q82 -82 85 -204h53v-63h-315q-124 0 -124 -91q0 -42 22 -69h-75q-12 36 -12 73q0 78 45 113q46 37 126 37h215q0 91 -64 160q-49 49 -107.5 49t-108.5 -33l-36 50q66 45 140 45z" />
<glyph unicode="&#xfc2f;" horiz-adv-x="1096" arabic-form="isolated" d="M904 255q-36 0 -62.5 -31.5t-26.5 -67t26 -64.5t63 -29t63 29t26 64.5t-26.5 67t-62.5 31.5zM746 165q0 58 44.5 104t113 46t113.5 -46t45 -110q0 -39 -18 -74v1q-49 -86 -141 -86h-264v63h138q-31 44 -31 102zM902.5 430q14.5 0 24.5 -10.5t10 -25t-10 -24.5t-24.5 -10 t-25 10t-10.5 24.5t10.5 25t25 10.5zM260 334q90 0 156 -67q82 -82 85 -204h53v-63h-315q-124 0 -124 -91q0 -42 22 -69h-75q-12 36 -12 73q0 78 45 113q46 37 126 37h215q0 91 -64 160q-49 49 -107.5 49t-108.5 -33l-36 50q66 45 140 45zM266.5 450q14.5 0 24.5 -10.5 t10 -25t-10 -24.5t-24.5 -10t-25 10t-10.5 24.5t10.5 25t25 10.5z" />
<glyph unicode="&#xfc30;" horiz-adv-x="1009" arabic-form="isolated" d="M817 255q-36 0 -62.5 -31.5t-26.5 -67t26 -64.5t63 -29t63 29t26 64.5t-26.5 67t-62.5 31.5zM659 165q0 58 44.5 104t113 46t113.5 -46t45 -110q0 -39 -18 -74v1q-49 -86 -141 -86h-264v63h138q-31 44 -31 102zM815.5 430q14.5 0 24.5 -10.5t10 -25t-10 -24.5t-24.5 -10 t-25 10t-10.5 24.5t10.5 25t25 10.5zM313.5 255q-38.5 0 -65.5 -30t-27 -67.5t28 -66.5t64.5 -29t65 30t28.5 66t-27.5 66.5t-66 30.5zM50 34q0 111 78 197t186 86q65 0 110.5 -49.5t45.5 -104t-35 -100.5h88v-63h-209q-69 0 -114 49.5t-41 125.5q-43 -69 -43 -138t30 -124 l24 -36h-74l-26 53q-20 49 -20 104z" />
<glyph unicode="&#xfc31;" horiz-adv-x="1183" arabic-form="isolated" d="M991 255q-36 0 -62.5 -31.5t-26.5 -67t26 -64.5t63 -29t63 29t26 64.5t-26.5 67t-62.5 31.5zM833 165q0 58 44.5 104t113 46t113.5 -46t45 -110q0 -39 -18 -74v1q-49 -86 -141 -86h-264v63h138q-31 44 -31 102zM989.5 430q14.5 0 24.5 -10.5t10 -25t-10 -24.5t-24.5 -10 t-25 10t-10.5 24.5t10.5 25t25 10.5zM112 156q0 -35 27.5 -64t64.5 -29h190v128q0 48 36 84.5t84 36.5h102v-249h64v-63h-126v250h-40q-21 0 -39.5 -18t-18.5 -41v-191h-252q-66 0 -110 46.5t-44 111.5t38.5 108t100.5 48v-62q-32 -6 -54.5 -33.5t-22.5 -62.5z" />
<glyph unicode="&#xfc32;" horiz-adv-x="1183" arabic-form="isolated" d="M991 255q-36 0 -62.5 -31.5t-26.5 -67t26 -64.5t63 -29t63 29t26 64.5t-26.5 67t-62.5 31.5zM833 165q0 58 44.5 104t113 46t113.5 -46t45 -110q0 -39 -18 -74v1q-49 -86 -141 -86h-264v63h138q-31 44 -31 102zM989.5 430q14.5 0 24.5 -10.5t10 -25t-10 -24.5t-24.5 -10 t-25 10t-10.5 24.5t10.5 25t25 10.5zM423.5 -50q14.5 0 24.5 -10.5t10 -25t-10 -24.5t-24.5 -10t-25 10t-10.5 24.5t10.5 25t25 10.5zM333.5 -50q14.5 0 24.5 -10.5t10 -25t-10 -24.5t-24.5 -10t-25 10t-10.5 24.5t10.5 25t25 10.5zM112 156q0 -35 27.5 -64t64.5 -29h190 v128q0 48 36 84.5t84 36.5h102v-249h64v-63h-126v250h-40q-21 0 -39.5 -18t-18.5 -41v-191h-252q-66 0 -110 46.5t-44 111.5t38.5 108t100.5 48v-62q-32 -6 -54.5 -33.5t-22.5 -62.5z" />
<glyph unicode="&#xfc33;" horiz-adv-x="1096" arabic-form="isolated" d="M904 255q-36 0 -62.5 -31.5t-26.5 -67t26 -64.5t63 -29t63 29t26 64.5t-26.5 67t-62.5 31.5zM746 165q0 58 44.5 104t113 46t113.5 -46t45 -110q0 -39 -18 -74v1q-49 -86 -141 -86h-264v63h138q-31 44 -31 102zM944.5 430q14.5 0 24.5 -10.5t10 -25t-10 -24.5t-24.5 -10 t-25 10t-10.5 24.5t10.5 25t25 10.5zM854.5 430q14.5 0 24.5 -10.5t10 -25t-10 -24.5t-24.5 -10t-25 10t-10.5 24.5t10.5 25t25 10.5zM260 334q90 0 156 -67q82 -82 85 -204h53v-63h-315q-124 0 -124 -91q0 -42 22 -69h-75q-12 36 -12 73q0 78 45 113q46 37 126 37h215 q0 91 -64 160q-49 49 -107.5 49t-108.5 -33l-36 50q66 45 140 45z" />
<glyph unicode="&#xfc34;" horiz-adv-x="1009" arabic-form="isolated" d="M817 255q-36 0 -62.5 -31.5t-26.5 -67t26 -64.5t63 -29t63 29t26 64.5t-26.5 67t-62.5 31.5zM659 165q0 58 44.5 104t113 46t113.5 -46t45 -110q0 -39 -18 -74v1q-49 -86 -141 -86h-264v63h138q-31 44 -31 102zM857.5 430q14.5 0 24.5 -10.5t10 -25t-10 -24.5t-24.5 -10 t-25 10t-10.5 24.5t10.5 25t25 10.5zM767.5 430q14.5 0 24.5 -10.5t10 -25t-10 -24.5t-24.5 -10t-25 10t-10.5 24.5t10.5 25t25 10.5zM313.5 255q-38.5 0 -65.5 -30t-27 -67.5t28 -66.5t64.5 -29t65 30t28.5 66t-27.5 66.5t-66 30.5zM50 34q0 111 78 197t186 86 q65 0 110.5 -49.5t45.5 -104t-35 -100.5h88v-63h-209q-69 0 -114 49.5t-41 125.5q-43 -69 -43 -138t30 -124l24 -36h-74l-26 53q-20 49 -20 104z" />
<glyph unicode="&#xfc35;" horiz-adv-x="1183" arabic-form="isolated" d="M991 255q-36 0 -62.5 -31.5t-26.5 -67t26 -64.5t63 -29t63 29t26 64.5t-26.5 67t-62.5 31.5zM833 165q0 58 44.5 104t113 46t113.5 -46t45 -110q0 -39 -18 -74v1q-49 -86 -141 -86h-264v63h138q-31 44 -31 102zM1031.5 430q14.5 0 24.5 -10.5t10 -25t-10 -24.5t-24.5 -10 t-25 10t-10.5 24.5t10.5 25t25 10.5zM941.5 430q14.5 0 24.5 -10.5t10 -25t-10 -24.5t-24.5 -10t-25 10t-10.5 24.5t10.5 25t25 10.5zM112 156q0 -35 27.5 -64t64.5 -29h190v128q0 48 36 84.5t84 36.5h102v-249h64v-63h-126v250h-40q-21 0 -39.5 -18t-18.5 -41v-191h-252 q-66 0 -110 46.5t-44 111.5t38.5 108t100.5 48v-62q-32 -6 -54.5 -33.5t-22.5 -62.5z" />
<glyph unicode="&#xfc36;" horiz-adv-x="1183" arabic-form="isolated" d="M991 255q-36 0 -62.5 -31.5t-26.5 -67t26 -64.5t63 -29t63 29t26 64.5t-26.5 67t-62.5 31.5zM833 165q0 58 44.5 104t113 46t113.5 -46t45 -110q0 -39 -18 -74v1q-49 -86 -141 -86h-264v63h138q-31 44 -31 102zM1031.5 430q14.5 0 24.5 -10.5t10 -25t-10 -24.5t-24.5 -10 t-25 10t-10.5 24.5t10.5 25t25 10.5zM941.5 430q14.5 0 24.5 -10.5t10 -25t-10 -24.5t-24.5 -10t-25 10t-10.5 24.5t10.5 25t25 10.5zM423.5 -50q14.5 0 24.5 -10.5t10 -25t-10 -24.5t-24.5 -10t-25 10t-10.5 24.5t10.5 25t25 10.5zM333.5 -50q14.5 0 24.5 -10.5t10 -25 t-10 -24.5t-24.5 -10t-25 10t-10.5 24.5t10.5 25t25 10.5zM112 156q0 -35 27.5 -64t64.5 -29h190v128q0 48 36 84.5t84 36.5h102v-249h64v-63h-126v250h-40q-21 0 -39.5 -18t-18.5 -41v-191h-252q-66 0 -110 46.5t-44 111.5t38.5 108t100.5 48v-62q-32 -6 -54.5 -33.5 t-22.5 -62.5z" />
<glyph unicode="&#xfc37;" horiz-adv-x="703" arabic-form="isolated" d="M551 317q65 0 110 -44.5t45 -109.5q0 -47 -26.5 -88.5t-64.5 -58t-64 -16.5h-270v63h270q36 0 62 29t26 65.5t-25.5 67t-62.5 30.5h-163v72l135 190l53 -38l-118 -162h93zM112 63h63v-63h-125v443h62v-380z" />
<glyph unicode="&#xfc38;" horiz-adv-x="1061" arabic-form="isolated" d="M909 317q65 0 110 -44.5t45 -109.5q0 -47 -26.5 -88.5t-64.5 -58t-64 -16.5h-270v63h270q36 0 62 29t26 65.5t-25.5 67t-62.5 30.5h-163v72l135 190l53 -38l-118 -162h93zM275.5 -89q14.5 0 24.5 -10.5t10 -25t-10 -24.5t-24.5 -10t-25 10t-10.5 24.5t10.5 25t25 10.5z M260 334q90 0 156 -67q82 -82 85 -204h53v-63h-315q-124 0 -124 -91q0 -42 22 -69h-75q-12 36 -12 73q0 78 45 113q46 37 126 37h215q0 91 -64 160q-49 49 -107.5 49t-108.5 -33l-36 50q66 45 140 45z" />
<glyph unicode="&#xfc39;" horiz-adv-x="1061" arabic-form="isolated" d="M909 317q65 0 110 -44.5t45 -109.5q0 -47 -26.5 -88.5t-64.5 -58t-64 -16.5h-270v63h270q36 0 62 29t26 65.5t-25.5 67t-62.5 30.5h-163v72l135 190l53 -38l-118 -162h93zM260 334q90 0 156 -67q82 -82 85 -204h53v-63h-315q-124 0 -124 -91q0 -42 22 -69h-75 q-12 36 -12 73q0 78 45 113q46 37 126 37h215q0 91 -64 160q-49 49 -107.5 49t-108.5 -33l-36 50q66 45 140 45z" />
<glyph unicode="&#xfc3a;" horiz-adv-x="1061" arabic-form="isolated" d="M909 317q65 0 110 -44.5t45 -109.5q0 -47 -26.5 -88.5t-64.5 -58t-64 -16.5h-270v63h270q36 0 62 29t26 65.5t-25.5 67t-62.5 30.5h-163v72l135 190l53 -38l-118 -162h93zM260 334q90 0 156 -67q82 -82 85 -204h53v-63h-315q-124 0 -124 -91q0 -42 22 -69h-75 q-12 36 -12 73q0 78 45 113q46 37 126 37h215q0 91 -64 160q-49 49 -107.5 49t-108.5 -33l-36 50q66 45 140 45zM266.5 450q14.5 0 24.5 -10.5t10 -25t-10 -24.5t-24.5 -10t-25 10t-10.5 24.5t10.5 25t25 10.5z" />
<glyph unicode="&#xfc3b;" horiz-adv-x="1142" arabic-form="isolated" d="M990 317q65 0 110 -44.5t45 -109.5q0 -47 -26.5 -88.5t-64.5 -58t-64 -16.5h-270v63h270q36 0 62 29t26 65.5t-25.5 67t-62.5 30.5h-163v72l135 190l53 -38l-118 -162h93zM443 63h53v-63h-53q-16 -75 -70 -123t-130 -48t-134.5 56t-58.5 138q0 54 28 101t76 75l33 -59 q-34 -25 -53 -51.5t-19 -72t40 -85.5t92.5 -40t93 39.5t40.5 92.5v424h62v-384z" />
<glyph unicode="&#xfc3c;" horiz-adv-x="974" arabic-form="isolated" d="M822 317q65 0 110 -44.5t45 -109.5q0 -47 -26.5 -88.5t-64.5 -58t-64 -16.5h-270v63h270q36 0 62 29t26 65.5t-25.5 67t-62.5 30.5h-163v72l135 190l53 -38l-118 -162h93zM313.5 255q-38.5 0 -65.5 -30t-27 -67.5t28 -66.5t64.5 -29t65 30t28.5 66t-27.5 66.5t-66 30.5z M50 34q0 111 78 197t186 86q65 0 110.5 -49.5t45.5 -104t-35 -100.5h88v-63h-209q-69 0 -114 49.5t-41 125.5q-43 -69 -43 -138t30 -124l24 -36h-74l-26 53q-20 49 -20 104z" />
<glyph unicode="&#xfc3d;" horiz-adv-x="1148" arabic-form="isolated" d="M996 317q65 0 110 -44.5t45 -109.5q0 -47 -26.5 -88.5t-64.5 -58t-64 -16.5h-270v63h270q36 0 62 29t26 65.5t-25.5 67t-62.5 30.5h-163v72l135 190l53 -38l-118 -162h93zM112 156q0 -35 27.5 -64t64.5 -29h190v128q0 48 36 84.5t84 36.5h102v-249h64v-63h-126v250h-40 q-21 0 -39.5 -18t-18.5 -41v-191h-252q-66 0 -110 46.5t-44 111.5t38.5 108t100.5 48v-62q-32 -6 -54.5 -33.5t-22.5 -62.5z" />
<glyph unicode="&#xfc3e;" horiz-adv-x="1148" arabic-form="isolated" d="M996 317q65 0 110 -44.5t45 -109.5q0 -47 -26.5 -88.5t-64.5 -58t-64 -16.5h-270v63h270q36 0 62 29t26 65.5t-25.5 67t-62.5 30.5h-163v72l135 190l53 -38l-118 -162h93zM423.5 -50q14.5 0 24.5 -10.5t10 -25t-10 -24.5t-24.5 -10t-25 10t-10.5 24.5t10.5 25t25 10.5z M333.5 -50q14.5 0 24.5 -10.5t10 -25t-10 -24.5t-24.5 -10t-25 10t-10.5 24.5t10.5 25t25 10.5zM112 156q0 -35 27.5 -64t64.5 -29h190v128q0 48 36 84.5t84 36.5h102v-249h64v-63h-126v250h-40q-21 0 -39.5 -18t-18.5 -41v-191h-252q-66 0 -110 46.5t-44 111.5t38.5 108 t100.5 48v-62q-32 -6 -54.5 -33.5t-22.5 -62.5z" />
<glyph unicode="&#xfc3f;" horiz-adv-x="909" arabic-form="isolated" d="M808 0h-169v63h106v381h63v-444zM275.5 -89q14.5 0 24.5 -10.5t10 -25t-10 -24.5t-24.5 -10t-25 10t-10.5 24.5t10.5 25t25 10.5zM260 334q90 0 156 -67q82 -82 85 -204h53v-63h-315q-124 0 -124 -91q0 -42 22 -69h-75q-12 36 -12 73q0 78 45 113q46 37 126 37h215 q0 91 -64 160q-49 49 -107.5 49t-108.5 -33l-36 50q66 45 140 45z" />
<glyph unicode="&#xfc40;" horiz-adv-x="909" arabic-form="isolated" d="M808 0h-169v63h106v381h63v-444zM260 334q90 0 156 -67q82 -82 85 -204h53v-63h-315q-124 0 -124 -91q0 -42 22 -69h-75q-12 36 -12 73q0 78 45 113q46 37 126 37h215q0 91 -64 160q-49 49 -107.5 49t-108.5 -33l-36 50q66 45 140 45z" />
<glyph unicode="&#xfc41;" horiz-adv-x="909" arabic-form="isolated" d="M808 0h-169v63h106v381h63v-444zM260 334q90 0 156 -67q82 -82 85 -204h53v-63h-315q-124 0 -124 -91q0 -42 22 -69h-75q-12 36 -12 73q0 78 45 113q46 37 126 37h215q0 91 -64 160q-49 49 -107.5 49t-108.5 -33l-36 50q66 45 140 45zM266.5 450q14.5 0 24.5 -10.5 t10 -25t-10 -24.5t-24.5 -10t-25 10t-10.5 24.5t10.5 25t25 10.5z" />
</font>
</defs>
</svg>
