<?xml version="1.0" standalone="no"?>
<!DOCTYPE svg PUBLIC "-//W3C//DTD SVG 1.1//EN" "http://www.w3.org/Graphics/SVG/1.1/DTD/svg11.dtd" >
<svg xmlns="http://www.w3.org/2000/svg" xmlns:xlink="http://www.w3.org/1999/xlink" version="1.1">
<metadata></metadata>
<defs>
<font id="zahra_arabicbold" horiz-adv-x="708" >
<font-face units-per-em="2048" ascent="1536" descent="-512" />
<missing-glyph horiz-adv-x="294" />
<glyph unicode="&#xfedf;&#xfe82;" horiz-adv-x="862" arabic-form="isolated" d="M184 281v634h176v-634h-176zM82 0v178h483v737h178v-915h-661zM209 1042q-41 0 -96 -79l-74 47q78 121 178 120q37 0 90 -45t82 -45q53 0 119 109l72 -47q-41 -66 -81 -101t-116 -43q-47 0 -100.5 42t-73.5 42z" />
<glyph unicode="&#xfee0;&#xfe82;" horiz-adv-x="845" arabic-form="final" d="M184 281v634h176v-634h-176zM846 178v-178h-764v178h483v737h178v-737h103zM209 1042q-41 0 -96 -79l-74 47q78 121 178 120q37 0 90 -45t82 -45q53 0 119 109l72 -47q-41 -66 -81 -101t-116 -43q-47 0 -100.5 42t-73.5 42z" />
<glyph unicode="&#xfedf;&#xfe84;" horiz-adv-x="862" arabic-form="isolated" d="M184 281v634h176v-634h-176zM82 0v178h483v737h178v-915h-661zM338 1397q100 0 166 -72l-70 -94q-20 31 -57 45t-69 -2.5t-34 -65.5q2 -72 107 -84h117v-106h-424v106h119q-59 92 -7 182.5t152 90.5z" />
<glyph unicode="&#xfee0;&#xfe84;" horiz-adv-x="845" arabic-form="final" d="M184 281v634h176v-634h-176zM846 178v-178h-764v178h483v737h178v-737h103zM338 1397q100 0 166 -72l-70 -94q-20 31 -57 45t-69 -2.5t-34 -65.5q2 -72 107 -84h117v-106h-424v106h119q-59 92 -7 182.5t152 90.5z" />
<glyph unicode="&#xfedf;&#xfe88;" horiz-adv-x="862" arabic-form="isolated" d="M338 -102q100 0 166 -72l-70 -94q-20 31 -57 45t-69 -2.5t-34 -65.5q2 -72 107 -84h117v-106h-424v106h119q-59 92 -7 182.5t152 90.5zM184 281v634h176v-634h-176zM82 0v178h483v737h178v-915h-661z" />
<glyph unicode="&#xfee0;&#xfe88;" horiz-adv-x="845" arabic-form="final" d="M338 -102q100 0 166 -72l-70 -94q-20 31 -57 45t-69 -2.5t-34 -65.5q2 -72 107 -84h117v-106h-424v106h119q-59 92 -7 182.5t152 90.5zM184 281v634h176v-634h-176zM846 178v-178h-764v178h483v737h178v-737h103z" />
<glyph unicode="&#xfedf;&#xfe8e;" horiz-adv-x="862" arabic-form="isolated" d="M360 281h-176v634h176v-634zM743 0h-661v178h483v737h178v-915z" />
<glyph unicode="&#xfee0;&#xfe8e;" horiz-adv-x="845" arabic-form="final" d="M360 281h-176v634h176v-634zM743 178h103v-178h-764v178h483v737h178v-737z" />
<glyph unicode="&#x649;" horiz-adv-x="483" arabic-form="initial" d="M401 0h-421v178h245v477h176v-655z" />
<glyph unicode="&#x649;" horiz-adv-x="524" arabic-form="medial" d="M401 178h123v-178h-544v178h245v477h176v-477z" />
<glyph unicode="&#xfc63;" horiz-adv-x="0" arabic-form="isolated" d="M199 389v-47q0 -133 -44 -201q-22 -32 -69 -32t-82 53q-31 -100 -106 -100t-98 112q-10 57 -7 80q2 22 2 33v8h64q-10 -170 43 -170q68 0 63 217h64q-4 -170 63 -170q49 0 43 217h64zM29 403h-64v183h64v-183z" />
<glyph unicode="&#x622;" horiz-adv-x="380" arabic-form="final" d="M381 178v-178h-299v907h178v-729h121zM86 1042q-41 0 -96 -79l-74 47q78 121 178 120q37 0 90.5 -45t81.5 -45q53 0 119 109l72 -47q-41 -66 -81 -101t-116 -43q-47 0 -100.5 42t-73.5 42z" />
<glyph unicode="&#x623;" horiz-adv-x="380" arabic-form="final" d="M381 178v-178h-299v907h178v-729h121zM225.5 1382q100.5 0 165.5 -71l-69 -94q-20 31 -57.5 45t-69 -2.5t-33.5 -65.5q2 -72 106 -84h117v-106h-424v106h119q-59 92 -7 182t152.5 90z" />
<glyph unicode="&#x624;" horiz-adv-x="864" arabic-form="final" d="M427 489q-71 0 -113 -45t-42 -117.5t56.5 -111.5t124 -36t125.5 9q8 53 7 120t-44 124t-114 57zM82 338q0 135 88 232.5t250 97.5q100 0 173 -35t108.5 -88t56 -120t15.5 -130.5t-11 -116.5h102v-178h-149q-68 -158 -219 -330l-148 119q111 111 172 223 q-174 -35 -306 54.5t-132 271.5zM346 1137q100 0 166 -72l-70 -94q-20 31 -57 45t-68.5 -2.5t-33.5 -65.5q2 -72 106 -84h117v-106h-424v106h119q-59 92 -7 182.5t152 90.5z" />
<glyph unicode="&#x625;" horiz-adv-x="380" arabic-form="final" d="M219 -102q100 0 166 -72l-70 -94q-20 31 -57 45t-68.5 -2.5t-33.5 -65.5q2 -72 106 -84h117v-106h-424v106h119q-59 92 -7 182.5t152 90.5zM381 178v-178h-299v907h178v-729h121z" />
<glyph unicode="&#x626;" horiz-adv-x="1349" arabic-form="final" d="M408 485q-61 0 -104.5 -46t-43.5 -107.5t43 -107.5t105 -46h335v217q0 104 78 182t183 78h223v-477h123v-178h-299v479h-47q-33 0 -58.5 -24.5t-25.5 -59.5v-395h-512q-139 0 -232.5 97.5t-93.5 238.5t91 233.5t235 92.5v-177zM346 1137q100 0 166 -72l-70 -94 q-20 31 -57 45t-68.5 -2.5t-33.5 -65.5q2 -72 106 -84h117v-106h-424v106h119q-59 92 -7 182.5t152 90.5z" />
<glyph unicode="&#x626;" horiz-adv-x="483" arabic-form="initial" d="M-20 0v178h245v477h176v-655h-421zM295 1137q100 0 166 -72l-70 -94q-20 31 -57 45t-69 -2.5t-34 -65.5q2 -72 107 -84h117v-106h-424v106h119q-59 92 -7 182.5t152 90.5z" />
<glyph unicode="&#x626;" horiz-adv-x="524" arabic-form="medial" d="M524 178v-178h-544v178h245v477h176v-477h123zM336 1137q100 0 166 -72l-70 -94q-20 31 -57 45t-69 -2.5t-34 -65.5q2 -72 107 -84h117v-106h-424v106h118q-59 92 -6.5 182.5t152.5 90.5z" />
<glyph unicode="&#x627;" horiz-adv-x="380" arabic-form="final" d="M260 178h121v-178h-299v907h178v-729z" />
<glyph unicode="&#x628;" horiz-adv-x="1329" arabic-form="final" d="M732 -100q36 0 62.5 -26t26.5 -61.5t-26.5 -62t-62.5 -26.5t-61.5 26.5t-25.5 62.5t25.5 61.5t61.5 25.5zM408 485q-63 0 -105.5 -45t-42.5 -108.5t41 -108.5t107 -45h643v477h176v-477h102v-178h-921q-143 0 -234.5 97.5t-91.5 238.5t92 233.5t234 92.5v-177z" />
<glyph unicode="&#x628;" horiz-adv-x="483" arabic-form="initial" d="M290 -100q36 0 62.5 -26t26.5 -61.5t-26.5 -62t-62.5 -26.5t-61.5 26.5t-25.5 62.5t25.5 61.5t61.5 25.5zM401 0h-421v178h245v477h176v-655z" />
<glyph unicode="&#x628;" horiz-adv-x="524" arabic-form="medial" d="M290 -100q36 0 62.5 -26t26.5 -61.5t-26.5 -62t-62.5 -26.5t-61.5 26.5t-25.5 62.5t25.5 61.5t61.5 25.5zM401 178h123v-178h-544v178h245v477h176v-477z" />
<glyph unicode="&#x629;" horiz-adv-x="862" arabic-form="final" d="M584 485q-135 0 -219 -84t-95 -223h314v307zM82 119q0 215 137 382t346 167q96 0 195 -47v-443h102v-178h-774q-6 117 -6 119zM601 934q36 0 62.5 -25.5t26.5 -61.5t-26.5 -62.5t-62.5 -26.5t-61.5 26.5t-25.5 62.5t25.5 61.5t61.5 25.5zM384 934q36 0 62.5 -25.5 t26.5 -61.5t-26.5 -62.5t-62.5 -26.5t-61.5 26.5t-25.5 62.5t25.5 61.5t61.5 25.5z" />
<glyph unicode="&#x62a;" horiz-adv-x="1329" arabic-form="final" d="M833 662q36 0 62.5 -26t26.5 -62t-27 -62.5t-62.5 -26.5t-61.5 27t-26 62.5t26 61.5t62 26zM615 662q36 0 63 -26t27 -62t-27 -62.5t-63 -26.5t-61.5 27t-25.5 62.5t25.5 61.5t61.5 26zM408 485q-63 0 -105.5 -45t-42.5 -108.5t41 -108.5t107 -45h643v477h176v-477h102 v-178h-921q-143 0 -234.5 97.5t-91.5 238.5t92 233.5t234 92.5v-177z" />
<glyph unicode="&#x62a;" horiz-adv-x="483" arabic-form="initial" d="M401 0h-421v178h245v477h176v-655zM402 934q36 0 63 -25.5t27 -61.5t-27 -62.5t-63 -26.5t-61.5 26.5t-25.5 62.5t25.5 61.5t61.5 25.5zM185 934q36 0 62.5 -25.5t26.5 -61.5t-26.5 -62.5t-62.5 -26.5t-61.5 26.5t-25.5 62.5t25.5 61.5t61.5 25.5z" />
<glyph unicode="&#x62a;" horiz-adv-x="524" arabic-form="medial" d="M401 178h123v-178h-544v178h245v477h176v-477zM423 934q36 0 62.5 -25.5t26.5 -61.5t-26.5 -62.5t-62.5 -26.5t-61.5 26.5t-25.5 62.5t25.5 61.5t61.5 25.5zM206 934q36 0 62.5 -25.5t26.5 -61.5t-26.5 -62.5t-62.5 -26.5t-61.5 26.5t-25.5 62.5t25.5 61.5t61.5 25.5z " />
<glyph unicode="&#x62b;" horiz-adv-x="1329" arabic-form="final" d="M837 662q36 0 62.5 -26t26.5 -62t-27 -62.5t-62.5 -26.5t-61 27t-25.5 62.5t25.5 61.5t61.5 26zM620 662q36 0 62.5 -26t26.5 -62t-27 -62.5t-62.5 -26.5t-61.5 27t-26 62.5t26 61.5t62 26zM408 485q-63 0 -105.5 -45t-42.5 -108.5t41 -108.5t107 -45h643v477h176v-477 h102v-178h-921q-143 0 -234.5 97.5t-91.5 238.5t92 233.5t234 92.5v-177zM728 838q36 0 62.5 -26t26.5 -61.5t-26.5 -62t-62.5 -26.5t-61.5 26.5t-25.5 62.5t25.5 61.5t61.5 25.5z" />
<glyph unicode="&#x62b;" horiz-adv-x="483" arabic-form="initial" d="M401 0h-421v178h245v477h176v-655zM312 934q36 0 62.5 -25.5t26.5 -61.5t-26.5 -62.5t-62.5 -26.5t-61.5 26.5t-25.5 62.5t25.5 61.5t61.5 25.5zM95 934q36 0 62.5 -25.5t26.5 -61.5t-26.5 -62.5t-62.5 -26.5t-61.5 26.5t-25.5 62.5t25.5 61.5t61.5 25.5zM204 1110 q36 0 62.5 -25.5t26.5 -61.5t-26.5 -62.5t-62.5 -26.5t-61.5 26.5t-25.5 62.5t25.5 61.5t61.5 25.5z" />
<glyph unicode="&#x62b;" horiz-adv-x="524" arabic-form="medial" d="M401 178h123v-178h-544v178h245v477h176v-477zM312 934q36 0 62.5 -25.5t26.5 -61.5t-26.5 -62.5t-62.5 -26.5t-61.5 26.5t-25.5 62.5t25.5 61.5t61.5 25.5zM95 934q36 0 62.5 -25.5t26.5 -61.5t-26.5 -62.5t-62.5 -26.5t-61.5 26.5t-25.5 62.5t25.5 61.5t61.5 25.5z M204 1110q36 0 62.5 -25.5t26.5 -61.5t-26.5 -62.5t-62.5 -26.5t-61.5 26.5t-25.5 62.5t25.5 61.5t61.5 25.5z" />
<glyph unicode="&#x62c;" horiz-adv-x="1107" arabic-form="final" d="M548 -100q36 0 62.5 -26t26.5 -61.5t-26.5 -62t-62.5 -26.5t-61.5 26.5t-25.5 62.5t25.5 61.5t61.5 25.5zM475 0q-213 0 -213 -142q0 -133 113 -165h-260q-33 80 -33 178q0 152 97 229.5t261 77.5h383q-8 145 -112 258q-86 86 -193.5 86t-208.5 -73l-104 141 q145 109 319 108.5t320 -146t162 -374.5h102v-178h-633z" />
<glyph unicode="&#x62c;" horiz-adv-x="1075" arabic-form="initial" d="M527 -100q36 0 62.5 -26t26.5 -61.5t-26.5 -62t-62.5 -26.5t-61.5 26.5t-25.5 62.5t25.5 61.5t61.5 25.5zM993 0h-1013v178h831q-23 162 -114 253t-198 91t-208 -73l-107 141q145 109 318.5 108.5t316.5 -143.5t168 -377q6 -66 6 -178z" />
<glyph unicode="&#x62c;" horiz-adv-x="1089" arabic-form="medial" d="M527 -100q36 0 62.5 -26t26.5 -61.5t-26.5 -62t-62.5 -26.5t-61.5 26.5t-25.5 62.5t25.5 61.5t61.5 25.5zM1090 178v-178h-1110v178h831q-23 162 -114 253t-198 91t-208 -73l-107 141q145 109 319.5 108.5t311.5 -137.5q150 -156 172 -383h103z" />
<glyph unicode="&#x62d;" horiz-adv-x="1107" arabic-form="final" d="M475 0q-213 0 -213 -142q0 -133 113 -165h-260q-33 80 -33 178q0 152 97 229.5t261 77.5h383q-8 145 -112 258q-86 86 -193.5 86t-208.5 -73l-104 141q145 109 319 108.5t320 -146t162 -374.5h102v-178h-633z" />
<glyph unicode="&#x62d;" horiz-adv-x="1075" arabic-form="initial" d="M993 0h-1013v178h831q-23 162 -114 253t-198 91t-208 -73l-107 141q145 109 318.5 108.5t316.5 -143.5t168 -377q6 -66 6 -178z" />
<glyph unicode="&#x62d;" horiz-adv-x="1089" arabic-form="medial" d="M1090 178v-178h-1110v178h831q-23 162 -114 253t-198 91t-208 -73l-107 141q145 109 319.5 108.5t311.5 -137.5q150 -156 172 -383h103z" />
<glyph unicode="&#x62e;" horiz-adv-x="1107" arabic-form="final" d="M475 0q-213 0 -213 -142q0 -133 113 -165h-260q-33 80 -33 178q0 152 97 229.5t261 77.5h383q-8 145 -112 258q-86 86 -193.5 86t-208.5 -73l-104 141q145 109 319 108.5t320 -146t162 -374.5h102v-178h-633zM531 934q36 0 63 -25.5t27 -61.5t-27 -62.5t-63 -26.5 t-61.5 26.5t-25.5 62.5t25.5 61.5t61.5 25.5z" />
<glyph unicode="&#x62e;" horiz-adv-x="1075" arabic-form="initial" d="M993 0h-1013v178h831q-23 162 -114 253t-198 91t-208 -73l-107 141q145 109 318.5 108.5t316.5 -143.5t168 -377q6 -66 6 -178zM503 934q36 0 62.5 -25.5t26.5 -61.5t-26.5 -62.5t-62.5 -26.5t-61.5 26.5t-25.5 62.5t25.5 61.5t61.5 25.5z" />
<glyph unicode="&#x62e;" horiz-adv-x="1089" arabic-form="medial" d="M1090 178v-178h-1110v178h831q-23 162 -114 253t-198 91t-208 -73l-107 141q145 109 319.5 108.5t311.5 -137.5q150 -156 172 -383h103zM503 934q36 0 62.5 -25.5t26.5 -61.5t-26.5 -62.5t-62.5 -26.5t-61.5 26.5t-25.5 62.5t25.5 61.5t61.5 25.5z" />
<glyph unicode="&#x62f;" horiz-adv-x="933" arabic-form="final" d="M373 674q178 0 302 -124t156 -372h103v-178h-803v178h520q-12 162 -94 239t-207 77q-82 0 -176 -33v176q102 37 199 37z" />
<glyph unicode="&#x630;" horiz-adv-x="933" arabic-form="final" d="M373 674q178 0 302 -124t156 -372h103v-178h-803v178h520q-12 162 -94 239t-207 77q-82 0 -176 -33v176q102 37 199 37zM292 934q36 0 62.5 -25.5t26.5 -61.5t-26.5 -62.5t-62.5 -26.5t-61.5 26.5t-25.5 62.5t25.5 61.5t61.5 25.5z" />
<glyph unicode="&#x631;" horiz-adv-x="503" arabic-form="final" d="M504 178v-178h-146q-74 -193 -211 -330l-147 113q180 211 215 436t-78 436h205q94 -231 59 -477h103z" />
<glyph unicode="&#x632;" horiz-adv-x="503" arabic-form="final" d="M504 178v-178h-146q-74 -193 -211 -330l-147 113q180 211 215 436t-78 436h205q94 -231 59 -477h103zM189 934q36 0 63 -25.5t27 -61.5t-27 -62.5t-63 -26.5t-61.5 26.5t-25.5 62.5t25.5 61.5t61.5 25.5z" />
<glyph unicode="&#x633;" horiz-adv-x="1746" arabic-form="final" d="M1645 289q0 -49 26.5 -80t75.5 -31v-178h-29q-86 0 -157 63q-81 -88 -191 -88t-199 76q-76 -76 -188 -76q-55 0 -102 21q-29 -143 -140.5 -238.5t-276.5 -95.5t-273.5 121t-108.5 285q0 115 58.5 215t174.5 157l91 -157q-143 -74 -144 -224q0 -88 60.5 -151.5 t158.5 -63.5t164 66.5t66 159.5v583h178v-389q0 -45 26.5 -72.5t69.5 -27.5t70.5 27.5t27.5 72.5v389h177v-389q0 -41 29.5 -70.5t71.5 -29.5t70.5 28.5t28.5 71.5v389h185v-364z" />
<glyph unicode="&#x633;" horiz-adv-x="1198" arabic-form="initial" d="M1116 254q0 -111 -83 -194t-191 -83t-191 76q-76 -76 -179 -76t-177 62q-45 -39 -105 -39h-210v178h204v477h183v-389q0 -45 26.5 -72.5t69.5 -27.5t70.5 27.5t27.5 72.5v389h178v-389q0 -41 30 -70.5t72 -29.5t70.5 28.5t28.5 71.5v389h176v-401z" />
<glyph unicode="&#x633;" horiz-adv-x="1218" arabic-form="medial" d="M1116 178h103v-178h-113q-43 0 -92 41q-80 -63 -180 -63t-183 75q-76 -76 -179 -76t-177 62q-45 -39 -105 -39h-210v178h204v477h183v-389q0 -45 26.5 -72.5t69.5 -27.5t70.5 27.5t27.5 72.5v389h178v-389q0 -41 30 -70.5t72 -29.5t70.5 28.5t28.5 71.5v389h176v-477z " />
<glyph unicode="&#x634;" horiz-adv-x="1746" arabic-form="final" d="M1645 289q0 -49 26.5 -80t75.5 -31v-178h-29q-86 0 -157 63q-82 -88 -191.5 -88t-198.5 76q-76 -76 -188 -76q-55 0 -102 21q-29 -143 -140.5 -238.5t-276.5 -95.5t-273.5 121t-108.5 285q0 115 58.5 215t174.5 157l91 -157q-143 -74 -144 -224q0 -88 60.5 -151.5 t158.5 -63.5t164 66.5t66 159.5v583h178v-389q0 -45 26.5 -72.5t69.5 -27.5t70.5 27.5t27.5 72.5v389h177v-389q0 -41 29.5 -70.5t71.5 -29.5t70.5 28.5t28.5 71.5v389h185v-364zM1281 934q36 0 62.5 -25.5t26.5 -61.5t-26.5 -62.5t-62.5 -26.5t-61.5 26.5t-25.5 62.5 t25.5 61.5t61.5 25.5zM1064 934q36 0 62.5 -25.5t26.5 -61.5t-26.5 -62.5t-62.5 -26.5t-61.5 26.5t-25.5 62.5t25.5 61.5t61.5 25.5zM1173 1110q36 0 62.5 -25.5t26.5 -61.5t-27 -62.5t-62.5 -26.5t-61.5 26.5t-26 62.5t26 61.5t62 25.5z" />
<glyph unicode="&#x634;" horiz-adv-x="1198" arabic-form="initial" d="M1116 254q0 -111 -83 -194t-191 -83t-191 76q-76 -76 -179 -76t-177 62q-45 -39 -105 -39h-210v178h204v477h183v-389q0 -45 26.5 -72.5t69.5 -27.5t70.5 27.5t27.5 72.5v389h178v-389q0 -41 30 -70.5t72 -29.5t70.5 28.5t28.5 71.5v389h176v-401zM765 934 q36 0 62.5 -25.5t26.5 -61.5t-26.5 -62.5t-62.5 -26.5t-61.5 26.5t-25.5 62.5t25.5 61.5t61.5 25.5zM548 934q36 0 62.5 -25.5t26.5 -61.5t-26.5 -62.5t-62.5 -26.5t-61.5 26.5t-25.5 62.5t25.5 61.5t61.5 25.5zM656 1110q36 0 62.5 -25.5t26.5 -61.5t-26.5 -62.5 t-62.5 -26.5t-61.5 26.5t-25.5 62.5t25.5 61.5t61.5 25.5z" />
<glyph unicode="&#x634;" horiz-adv-x="1218" arabic-form="medial" d="M1219 178v-178h-113q-43 0 -92 41q-80 -63 -180 -63.5t-183 75.5q-76 -76 -179 -76t-177 62q-45 -39 -105 -39h-210v178h204v477h183v-389q0 -45 26.5 -72.5t69.5 -27.5t70.5 27.5t27.5 72.5v389h178v-389q0 -41 30 -70.5t72 -29.5t70.5 28.5t28.5 71.5v389h176v-477h103 zM765 934q36 0 62.5 -25.5t26.5 -61.5t-26.5 -62.5t-62.5 -26.5t-61.5 26.5t-25.5 62.5t25.5 61.5t61.5 25.5zM548 934q36 0 62.5 -25.5t26.5 -61.5t-26.5 -62.5t-62.5 -26.5t-61.5 26.5t-25.5 62.5t25.5 61.5t61.5 25.5zM656 1110q36 0 62.5 -25.5t26.5 -61.5t-26.5 -62.5 t-62.5 -26.5t-61.5 26.5t-25.5 62.5t25.5 61.5t61.5 25.5z" />
<glyph unicode="&#x635;" horiz-adv-x="1884" arabic-form="final" d="M1591 178q0 131 -94 225.5t-223 94.5t-221 -95.5t-92 -224.5h630zM403 283q-143 -72 -143 -233q0 -79 60.5 -141.5t158.5 -62.5t165 65.5t67 158.5v585h170v-188q152 207 393 207q209 0 352 -143.5t156 -352.5h102v-178h-1003v-2q-29 -143 -142.5 -238.5t-276.5 -95.5 t-271.5 121t-108.5 285q0 115 58.5 215t174.5 157z" />
<glyph unicode="&#x635;" horiz-adv-x="1316" arabic-form="initial" d="M1047 178q0 131 -94.5 225.5t-223.5 94.5t-221 -95.5t-92 -224.5h631zM733 672q109 0 196 -34t140 -90q120 -127 150 -291t10 -257h-1249v178h204v471h176v-151q154 174 373 174z" />
<glyph unicode="&#x635;" horiz-adv-x="1318" arabic-form="medial" d="M1026 178q0 131 -94 225.5t-223 94.5t-221.5 -95.5t-92.5 -224.5h631zM707 674q211 0 354 -143.5t156 -352.5h102v-178h-1360v178h205v471h176v-151q156 176 367 176z" />
<glyph unicode="&#x636;" horiz-adv-x="1884" arabic-form="final" d="M1591 178q0 131 -94 225.5t-223 94.5t-221 -95.5t-92 -224.5h630zM403 283q-143 -72 -143 -233q0 -79 60.5 -141.5t158.5 -62.5t165 65.5t67 158.5v585h170v-188q152 207 393 207q209 0 352 -143.5t156 -352.5h102v-178h-1003v-2q-29 -143 -142.5 -238.5t-276.5 -95.5 t-271.5 121t-108.5 285q0 115 58.5 215t174.5 157zM1291 934q36 0 62.5 -25.5t26.5 -61.5t-26.5 -62.5t-62.5 -26.5t-61.5 26.5t-25.5 62.5t25.5 61.5t61.5 25.5z" />
<glyph unicode="&#x636;" horiz-adv-x="1316" arabic-form="initial" d="M1047 178q0 131 -94.5 225.5t-223.5 94.5t-221 -95.5t-92 -224.5h631zM733 672q109 0 196 -34t140 -90q120 -127 150 -291t10 -257h-1249v178h204v471h176v-151q154 174 373 174zM730 934q36 0 62.5 -25.5t26.5 -61.5t-26.5 -62.5t-62.5 -26.5t-61.5 26.5t-25.5 62.5 t25.5 61.5t61.5 25.5z" />
<glyph unicode="&#x636;" horiz-adv-x="1318" arabic-form="medial" d="M1026 178q0 131 -94 225.5t-223 94.5t-221.5 -95.5t-92.5 -224.5h631zM707 674q211 0 354 -143.5t156 -352.5h102v-178h-1360v178h205v471h176v-151q156 176 367 176zM730 934q36 0 62.5 -25.5t26.5 -61.5t-26.5 -62.5t-62.5 -26.5t-61.5 26.5t-25.5 62.5t25.5 61.5 t61.5 25.5z" />
<glyph unicode="&#x637;" horiz-adv-x="1394" arabic-form="final" d="M1102 178q0 129 -95.5 223.5t-224.5 94.5t-220 -94.5t-91 -223.5h631zM782 672h9q211 0 350 -140.5t151 -353.5h103v-178h-1313v178h205v729h178v-352q127 117 317 117z" />
<glyph unicode="&#x637;" horiz-adv-x="1251" arabic-form="initial" d="M979 178q0 129 -95.5 223.5t-224.5 94.5t-220 -94.5t-91 -223.5h631zM659 672q147 0 257 -62q110 -64 166 -164q115 -208 79 -446h-1202v178h205v729h178v-352q127 117 317 117z" />
<glyph unicode="&#x637;" horiz-adv-x="1271" arabic-form="medial" d="M979 178q0 129 -95.5 223.5t-224.5 94.5t-220 -94.5t-91 -223.5h631zM659 672h9q211 0 350 -140.5t151 -353.5h103v-178h-1313v178h205v729h178v-352q127 117 317 117z" />
<glyph unicode="&#x638;" horiz-adv-x="1394" arabic-form="final" d="M1102 178q0 129 -95.5 223.5t-224.5 94.5t-220 -94.5t-91 -223.5h631zM782 672h9q211 0 350 -140.5t151 -353.5h103v-178h-1313v178h205v729h178v-352q127 117 317 117zM794 934q36 0 62.5 -25.5t26.5 -61.5t-27 -62.5t-62.5 -26.5t-61 26.5t-25.5 62.5t25.5 61.5 t61.5 25.5z" />
<glyph unicode="&#x638;" horiz-adv-x="1251" arabic-form="initial" d="M979 178q0 129 -95.5 223.5t-224.5 94.5t-220 -94.5t-91 -223.5h631zM659 672q147 0 257 -62q110 -64 166 -164q115 -208 79 -446h-1202v178h205v729h178v-352q127 117 317 117zM663 934q36 0 62.5 -25.5t26.5 -61.5t-27 -62.5t-62.5 -26.5t-61.5 26.5t-26 62.5t26 61.5 t62 25.5z" />
<glyph unicode="&#x638;" horiz-adv-x="1271" arabic-form="medial" d="M979 178q0 129 -95.5 223.5t-224.5 94.5t-220 -94.5t-91 -223.5h631zM659 672h9q211 0 350 -140.5t151 -353.5h103v-178h-1313v178h205v729h178v-352q127 117 317 117zM663 934q36 0 62.5 -25.5t26.5 -61.5t-27 -62.5t-62.5 -26.5t-61.5 26.5t-26 62.5t26 61.5t62 25.5z " />
<glyph unicode="&#x639;" horiz-adv-x="1005" arabic-form="final" d="M82 -137q0 135 72 209q42 48 114 76q20 8 74 24q-43 80 -43 166q0 139 104 231t244 92.5t256 -112.5l-106 -148q-76 90 -148.5 90.5t-117 -45t-44.5 -106.5t45 -107q49 -55 146 -55h328v-178h-533q-207 0 -207 -154q0 -123 113 -151h-260q-37 78 -37 168z" />
<glyph unicode="&#x639;" horiz-adv-x="897" arabic-form="initial" d="M184 340q0 137 103.5 227t246.5 90t252 -108l-106 -148q-41 47 -73 67.5t-91 20.5t-98 -45t-39 -113.5t53 -110.5t129 -42h254v-178h-835v178h245q-41 82 -41 162z" />
<glyph unicode="&#x639;" horiz-adv-x="886" arabic-form="medial" d="M184 340q0 135 103.5 226t245.5 91t251 -108l-104 -148q-41 47 -73 67.5t-91 20.5t-98 -45t-39 -113.5t53 -110.5t129 -42h326v-178h-907v178h245q-41 86 -41 162z" />
<glyph unicode="&#x63a;" horiz-adv-x="1005" arabic-form="final" d="M82 -137q0 135 72 209q42 48 114 76q20 8 74 24q-43 80 -43 166q0 139 104 231t244 92.5t256 -112.5l-106 -148q-76 90 -148.5 90.5t-117 -45t-44.5 -106.5t45 -107q49 -55 146 -55h328v-178h-533q-207 0 -207 -154q0 -123 113 -151h-260q-37 78 -37 168zM640 934 q36 0 62.5 -25.5t26.5 -61.5t-26.5 -62.5t-62.5 -26.5t-61.5 26.5t-25.5 62.5t25.5 61.5t61.5 25.5z" />
<glyph unicode="&#x63a;" horiz-adv-x="897" arabic-form="initial" d="M184 340q0 137 103.5 227t246.5 90t252 -108l-106 -148q-41 47 -73 67.5t-91 20.5t-98 -45t-39 -113.5t53 -110.5t129 -42h254v-178h-835v178h245q-41 82 -41 162zM521 934q36 0 62.5 -25.5t26.5 -61.5t-26.5 -62.5t-62.5 -26.5t-61.5 26.5t-25.5 62.5t25.5 61.5 t61.5 25.5z" />
<glyph unicode="&#x63a;" horiz-adv-x="886" arabic-form="medial" d="M184 340q0 135 103.5 226t245.5 91t251 -108l-104 -148q-41 47 -73 67.5t-91 20.5t-98 -45t-39 -113.5t53 -110.5t129 -42h326v-178h-907v178h245q-41 86 -41 162zM521 934q36 0 62.5 -25.5t26.5 -61.5t-26.5 -62.5t-62.5 -26.5t-61.5 26.5t-25.5 62.5t25.5 61.5 t61.5 25.5z" />
<glyph unicode="&#x641;" horiz-adv-x="1490" arabic-form="final" d="M1054.5 489q-59.5 0 -100.5 -49t-41 -110t40 -106.5t101.5 -45.5t102.5 45t41 106.5t-42 110.5t-101.5 49zM723 334q0 133 94 230.5t237.5 97.5t239 -97.5t95.5 -230.5q0 -80 -39 -156h141v-178h-1083q-139 0 -232.5 97.5t-93.5 238.5t92 233.5t234 92.5v-179 q-66 0 -107 -44t-41 -107.5t41 -108.5t107 -45h352q-37 72 -37 156zM1056 934q36 0 62.5 -25.5t26.5 -61.5t-26.5 -62.5t-62.5 -26.5t-61.5 26.5t-25.5 62.5t25.5 61.5t61.5 25.5z" />
<glyph unicode="&#x641;" horiz-adv-x="931" arabic-form="initial" d="M516 489q-59 0 -100 -49t-41 -110t40 -106.5t101.5 -45.5t102 45t40.5 106.5t-42 110.5t-101 49zM184 334q0 133 94.5 230.5t237.5 97.5t238.5 -97.5t95.5 -230.5q0 -80 -39 -156q-102 -178 -297 -178h-534v178h241q-37 72 -37 156zM519 934q36 0 62.5 -25.5t26.5 -61.5 t-26.5 -62.5t-62.5 -26.5t-61.5 26.5t-25.5 62.5t25.5 61.5t61.5 25.5z" />
<glyph unicode="&#x641;" horiz-adv-x="952" arabic-form="medial" d="M516 489q-59 0 -100 -49t-41 -110t40 -106.5t101.5 -45.5t102 45t40.5 106.5t-42 110.5t-101 49zM184 334q0 133 94.5 230.5t237.5 97.5t238.5 -97.5t95.5 -230.5q0 -80 -39 -156h141v-178h-972v178h241q-37 72 -37 156zM519 934q36 0 62.5 -25.5t26.5 -61.5t-26.5 -62.5 t-62.5 -26.5t-61.5 26.5t-25.5 62.5t25.5 61.5t61.5 25.5z" />
<glyph unicode="&#x642;" horiz-adv-x="1490" arabic-form="final" d="M1054.5 489q-59.5 0 -100.5 -49t-41 -110t40 -106.5t101.5 -45.5t102.5 45t41 106.5t-42 110.5t-101.5 49zM723 334q0 133 94 230.5t237.5 97.5t239 -97.5t95.5 -230.5q0 -80 -39 -156h141v-178h-1083q-139 0 -232.5 97.5t-93.5 238.5t92 233.5t234 92.5v-179 q-66 0 -107 -44t-41 -107.5t41 -108.5t107 -45h352q-37 72 -37 156zM1164 934q36 0 62.5 -25.5t26.5 -61.5t-26.5 -62.5t-62.5 -26.5t-61.5 26.5t-25.5 62.5t25.5 61.5t61.5 25.5zM947 934q36 0 62.5 -25.5t26.5 -61.5t-26.5 -62.5t-62.5 -26.5t-61.5 26.5t-25.5 62.5 t25.5 61.5t61.5 25.5z" />
<glyph unicode="&#x642;" horiz-adv-x="931" arabic-form="initial" d="M516 489q-59 0 -100 -49t-41 -110t40 -106.5t101.5 -45.5t102 45t40.5 106.5t-42 110.5t-101 49zM184 334q0 133 94.5 230.5t237.5 97.5t238.5 -97.5t95.5 -230.5q0 -80 -39 -156q-102 -178 -297 -178h-534v178h241q-37 72 -37 156zM622 934q36 0 62.5 -25.5t26.5 -61.5 t-27 -62.5t-62.5 -26.5t-61 26.5t-25.5 62.5t25.5 61.5t61.5 25.5zM405 934q36 0 62.5 -25.5t26.5 -61.5t-27 -62.5t-62.5 -26.5t-61.5 26.5t-26 62.5t26 61.5t62 25.5z" />
<glyph unicode="&#x642;" horiz-adv-x="952" arabic-form="medial" d="M516 489q-59 0 -100 -49t-41 -110t40 -106.5t101.5 -45.5t102 45t40.5 106.5t-42 110.5t-101 49zM184 334q0 133 94.5 230.5t237.5 97.5t238.5 -97.5t95.5 -230.5q0 -80 -39 -156h141v-178h-972v178h241q-37 72 -37 156zM622 934q36 0 62.5 -25.5t26.5 -61.5t-27 -62.5 t-62.5 -26.5t-61 26.5t-25.5 62.5t25.5 61.5t61.5 25.5zM405 934q36 0 62.5 -25.5t26.5 -61.5t-27 -62.5t-62.5 -26.5t-61.5 26.5t-26 62.5t26 61.5t62 25.5z" />
<glyph unicode="&#x643;" horiz-adv-x="1329" arabic-form="final" d="M768 860q100 0 166 -72l-70 -94q-20 31 -57 45.5t-68.5 -2t-33.5 -65.5q2 -72 106 -84h117v-107h-424v107h119q-59 92 -7 182t152 90zM1227 178h102v-178h-923q-141 0 -232.5 96.5t-91.5 238.5t91 233t233 91v-176q-66 0 -107 -45t-41 -108.5t42 -107.5t106 -44h643v725 h178v-725z" />
<glyph unicode="&#x643;" horiz-adv-x="933" arabic-form="initial" d="M526 666q135 0 230.5 -94.5t95.5 -229.5q0 -100 -54.5 -186t-134.5 -121t-137 -35h-546v178h546q59 0 100.5 46t41.5 107.5t-40 109.5t-102 48h-342v177l283 395l147 -107l-211 -288h123z" />
<glyph unicode="&#x643;" horiz-adv-x="954" arabic-form="medial" d="M526 666q135 0 230.5 -94.5t95.5 -229.5q0 -82 -43 -164h145v-178h-974v178h546q59 0 100.5 46t41.5 107.5t-40 109.5t-102 48h-342v177l283 395l147 -107l-211 -288h123z" />
<glyph unicode="&#x644;" horiz-adv-x="997" arabic-form="final" d="M895 178h102v-178h-108q-39 -145 -145.5 -237.5t-263.5 -92.5t-277.5 117t-120.5 285q0 121 64.5 221t177.5 156l88 -160q-49 -35 -75 -58.5t-49.5 -65.5t-23.5 -93q0 -90 67.5 -158t158.5 -68t160 67t69 159v843h176v-737z" />
<glyph unicode="&#x644;" horiz-adv-x="423" arabic-form="initial" d="M342 0h-383v178h205v731h178v-909z" />
<glyph unicode="&#x644;" horiz-adv-x="442" arabic-form="medial" d="M340 178h102v-178h-483v178h205v735h176v-735z" />
<glyph unicode="&#x645;" horiz-adv-x="1048" arabic-form="final" d="M618.5 489q-63.5 0 -106.5 -47t-43 -110t44 -109.5t104 -46.5t105.5 48t45.5 108.5t-43 108.5t-106.5 48zM82 94q0 223 158.5 397.5t377.5 174.5q139 0 233.5 -103.5t94.5 -234.5q0 -80 -41 -150h144v-178h-431q-119 0 -204.5 70.5t-112.5 187.5q-35 -104 -35 -170 q0 -158 101 -283l28 -43h-213l-6 13q-94 158 -94 319z" />
<glyph unicode="&#x645;" horiz-adv-x="923" arabic-form="initial" d="M511.5 485q-64.5 0 -107 -46t-42.5 -106t42 -105.5t109 -45.5t111 44t44 105.5t-46 107.5t-110.5 46zM184 330q0 131 99.5 231.5t231.5 100.5t229.5 -98.5t97.5 -233.5t-96.5 -232.5t-227.5 -97.5h-538v178h243q-39 72 -39 152z" />
<glyph unicode="&#x645;" horiz-adv-x="942" arabic-form="medial" d="M511.5 379q-64.5 0 -107 -46t-42.5 -106.5t42 -105.5t109 -45t111 44t44 105.5t-46 107.5t-110.5 46zM184 215q0 133 97.5 236.5t231.5 103.5t231.5 -98.5t97.5 -233.5q0 -12 -4 -45h104v-178h-190q-98 -104 -236.5 -104t-243.5 104h-292v178h206q-2 14 -2 37z" />
<glyph unicode="&#x646;" horiz-adv-x="1083" arabic-form="final" d="M1083 178v-178h-178q-61 -94 -158.5 -149.5t-209.5 -55.5h-11q-203 8 -323.5 142.5t-120.5 312.5q0 127 67.5 235.5t198.5 169.5l66 -147q-70 -25 -114 -99.5t-44 -170.5t66.5 -169t203.5 -85q117 0 194 74.5t77 189.5v407h184v-413l-6 -64h108zM599 688q36 0 62.5 -25.5 t26.5 -61.5t-26.5 -62.5t-62.5 -26.5t-61.5 26.5t-25.5 62.5t25.5 61.5t61.5 25.5z" />
<glyph unicode="&#x646;" horiz-adv-x="483" arabic-form="initial" d="M401 0h-421v178h245v477h176v-655zM312 934q36 0 62.5 -25.5t26.5 -61.5t-26.5 -62.5t-62.5 -26.5t-61.5 26.5t-25.5 62.5t25.5 61.5t61.5 25.5z" />
<glyph unicode="&#x646;" horiz-adv-x="524" arabic-form="medial" d="M401 178h123v-178h-544v178h245v477h176v-477zM312 934q36 0 62.5 -25.5t26.5 -61.5t-26.5 -62.5t-62.5 -26.5t-61.5 26.5t-25.5 62.5t25.5 61.5t61.5 25.5z" />
<glyph unicode="&#x647;" horiz-adv-x="862" arabic-form="final" d="M584 485q-135 0 -219 -84t-95 -223h314v307zM82 119q0 215 137 382t346 167q96 0 195 -47v-443h102v-178h-774q-6 117 -6 119z" />
<glyph unicode="&#x647;" horiz-adv-x="1282" arabic-form="initial" d="M369 178h231v305q-100 -33 -165.5 -116.5t-65.5 -188.5zM776 178h234q0 104 -66.5 192.5t-167.5 116.5v-309zM1200 104q0 -63 -8 -104h-1212v178h204q20 186 131 323.5t285 166.5v182h176v-180q195 -29 309.5 -192t114.5 -374z" />
<glyph unicode="&#x647;" horiz-adv-x="1298" arabic-form="medial" d="M369 178h231v303q-100 -33 -165.5 -116.5t-65.5 -186.5zM776 178h234q0 104 -66.5 191.5t-167.5 115.5v-307zM1298 178v-178h-1318v178h204q20 184 131 321.5t285 166.5v182h176v-180q176 -25 288 -163t132 -327h102z" />
<glyph unicode="&#x648;" horiz-adv-x="864" arabic-form="final" d="M427 489q-71 0 -113 -45t-42 -117.5t56.5 -111.5t124 -36t125.5 9q8 53 7 120t-44 124t-114 57zM82 338q0 135 88 232.5t250 97.5q100 0 173 -35t108.5 -88t56 -120t15.5 -130.5t-11 -116.5h102v-178h-149q-68 -158 -219 -330l-148 119q111 111 172 223 q-174 -35 -306 54.5t-132 271.5z" />
<glyph unicode="&#x649;" horiz-adv-x="1349" arabic-form="final" d="M408 485q-61 0 -104.5 -46t-43.5 -107.5t43 -107.5t105 -46h335v217q0 104 78 182t183 78h223v-477h123v-178h-299v479h-47q-33 0 -58.5 -24.5t-25.5 -59.5v-395h-512q-139 0 -232.5 97.5t-93.5 238.5t91 233.5t235 92.5v-177z" />
<glyph unicode="&#x64a;" horiz-adv-x="1349" arabic-form="final" d="M824 -100q36 0 62.5 -26t26.5 -61.5t-26.5 -62t-62.5 -26.5t-61.5 26.5t-25.5 62.5t25.5 61.5t61.5 25.5zM607 -100q36 0 62.5 -26t26.5 -61.5t-26.5 -62t-62.5 -26.5t-61.5 26.5t-25.5 62.5t25.5 61.5t61.5 25.5zM408 485q-61 0 -104.5 -46t-43.5 -107.5t43 -107.5 t105 -46h335v217q0 104 78 182t183 78h223v-477h123v-178h-299v479h-47q-33 0 -58.5 -24.5t-25.5 -59.5v-395h-512q-139 0 -232.5 97.5t-93.5 238.5t91 233.5t235 92.5v-177z" />
<glyph unicode="&#x64a;" horiz-adv-x="483" arabic-form="initial" d="M368 -100q36 0 62.5 -26t26.5 -61.5t-27 -62t-62.5 -26.5t-61 26.5t-25.5 62.5t25.5 61.5t61.5 25.5zM151 -100q36 0 62.5 -26t26.5 -61.5t-27 -62t-62.5 -26.5t-61.5 26.5t-26 62.5t26 61.5t62 25.5zM-20 0v178h245v477h176v-655h-421z" />
<glyph unicode="&#x64a;" horiz-adv-x="524" arabic-form="medial" d="M388 -100q36 0 62.5 -26t26.5 -61.5t-26.5 -62t-62.5 -26.5t-61.5 26.5t-25.5 62.5t25.5 61.5t61.5 25.5zM171 -100q36 0 62.5 -26t26.5 -61.5t-26.5 -62t-62.5 -26.5t-61.5 26.5t-25.5 62.5t25.5 61.5t61.5 25.5zM524 178v-178h-544v178h245v477h176v-477h123z" />
<glyph unicode="&#xd;" horiz-adv-x="681" />
<glyph unicode=" "  horiz-adv-x="294" />
<glyph unicode="&#x09;" horiz-adv-x="294" />
<glyph unicode="&#xa0;" horiz-adv-x="294" />
<glyph unicode="!" horiz-adv-x="354" d="M177 207q46 0 76 -31t30 -76q0 -44 -30 -74t-76 -30t-76 30q-29 30 -29 74t29 76q30 31 76 31zM90 256l-16 651h207l-17 -651h-174z" />
<glyph unicode="&#x22;" horiz-adv-x="423" d="M395 547h-143v344h143v-344zM174 547h-143v344h143v-344z" />
<glyph unicode="#" d="M410 369l22 153h-123l-20 -153h121zM672 637v-115h-115l-22 -153h100v-115h-117l-35 -254h-125l35 254h-123l-34 -254h-123l34 254h-112l4 115h125l20 153h-112l4 115h125l35 254h122l-32 -254h120l37 254h123l-35 -254h101z" />
<glyph unicode="$" d="M414 -41h-113v156h-174v155h225q64 0 64 45t-78 99l-74 51q-153 102 -151 207q0 90 50 142t138 63v133h113v-133h137v-148h-205q-63 0 -63 -49q0 -33 79 -82q27 -23 72 -49q90 -59 131 -125q21 -46 21 -110t-45 -122t-127 -77v-156z" />
<glyph unicode="%" horiz-adv-x="1132" d="M723 225q0 -41 30 -71q29 -30 71 -29q42 0 72 30q30 31 30 71t-30 70t-72 30t-72 -30t-29 -71zM598 225q0 92 64 160q66 66 162 66t163 -66q63 -68 63 -160t-63 -159q-66 -66 -163 -66t-162 66q-64 67 -64 159zM266 766q-40 0 -70 -28t-30 -71q0 -42 30 -72t70 -30t71 30 q30 30 30 72q0 43 -30 71t-71 28zM780 891h111l-574 -893h-112zM41 665q0 97 63 160q60 66 160 66t166 -66q62 -67 62 -161t-65 -159t-162 -65t-161 68q-63 60 -63 157z" />
<glyph unicode="&#x26;" horiz-adv-x="991" d="M471 158q84 0 137 57l-246 297q-80 -59 -79 -166q0 -76 52 -132t136 -56zM369 891h354v-178h-317l292 -351h2q0 131 -71 195l125 119q131 -131 131 -281q0 -104 -54 -190l164 -205h-219l-53 72q-96 -86 -258 -86t-268 101t-107 265q0 90 43 166t119 121q-47 47 -47 111 t43 103q43 38 121 38z" />
<glyph unicode="'" horiz-adv-x="282" d="M213 547h-143v344h143v-344z" />
<glyph unicode="(" horiz-adv-x="565" d="M123 307q0 174 72 333t211 267l94 -96q-113 -92 -176 -224q-64 -133 -64 -279t64 -278t176 -225l-94 -96q-139 109 -211 267t-72 331z" />
<glyph unicode=")" horiz-adv-x="565" d="M305 308q0 146 -63 278t-176 225l94 96q284 -224 282 -598q0 -180 -70 -335t-212 -265l-94 96q113 93 176 225t63 278z" />
<glyph unicode="*" horiz-adv-x="636" d="M287 612l-133 -123l-66 119l174 56v2l-176 55l74 117l129 -121l2 2l-35 172h127l-37 -172l2 -2l131 121l72 -117l-176 -55v-2l176 -56l-66 -119l-133 123l-4 -4l39 -176h-135l37 176z" />
<glyph unicode="+" horiz-adv-x="763" d="M74 379h239v239h138v-239h239v-137h-239v-242h-138v242h-239v137z" />
<glyph unicode="," horiz-adv-x="354" d="M279 164l-129 -385h-130l74 385h185z" />
<glyph unicode="-" horiz-adv-x="423" d="M358 381v-143h-292v143h292z" />
<glyph unicode="." horiz-adv-x="354" d="M177 207q46 0 76 -31t30 -76q0 -44 -30 -74t-76 -30t-76 30q-29 30 -29 74t29 76q30 31 76 31z" />
<glyph unicode="/" horiz-adv-x="354" d="M389 907l-287 -921h-137l285 921h139z" />
<glyph unicode="0" d="M475 281v331q0 117 -121 117t-121 -117v-331q0 -117 121 -117t121 117zM45 281v331q0 127 84 211t225 84q142 0 226 -84t84 -211v-331q0 -127 -84 -211t-226 -84t-225 84q-84 84 -84 211z" />
<glyph unicode="1" d="M270 721h-137v170h320v-891h-183v721z" />
<glyph unicode="2" d="M172 0q-137 0 -137 106q0 43 19 72t106 119l186 182q53 55 78 90t25 71t-30 64t-79 27q-49 0 -78 -29q-29 -28 -29 -68t22 -73t54 -39l-129 -129q-129 70 -129 240q0 117 86 196q78 78 203 78t209 -80t84 -178q-1 -99 -29 -151t-110 -129l-205 -193h370v-176h-487z" />
<glyph unicode="3" d="M322 0h-283v184h270q127 0 127 106t-127 105h-174v115l260 209v2h-342v170h373q86 0 131 -39q45 -40 45 -102t-67 -123q-31 -29 -62 -47q-18 -14 -59 -50q98 -16 165 -87t66 -169q0 -139 -94 -213q-82 -61 -229 -61z" />
<glyph unicode="4" d="M406 358v250l165 283q7 12 9 12t2 -12v-533h84v-170h-84v-188h-176v188h-267q-51 0 -88 34t-37 88t49 139l265 442h186l-324 -533h216z" />
<glyph unicode="5" d="M82 891h500v-170h-318v-143h113q106 0 190 -77t84 -211t-90 -218q-82 -72 -184 -72h-316v178h244q72 0 109 23t37 93t-37 91q-37 22 -109 23h-223v483z" />
<glyph unicode="6" d="M229 291q0 -47 36 -82t89 -35t89 35t36 90q0 125 -133 131l90 168q100 -23 166 -107q66 -83 66 -205t-86 -212q-92 -88 -228 -88t-225 86q-88 86 -88 227q0 80 72 211l209 381h215l-275 -492q-33 -61 -33 -108z" />
<glyph unicode="7" d="M76 713v178h411q61 0 103 -30t43 -81q0 -51 -29 -129l-217 -651h-203l256 713h-364z" />
<glyph unicode="8" d="M229 274q0 -53 36 -89q36 -35 90 -35t89 38t35 89t-34 87t-89 36t-91 -37q-36 -36 -36 -89zM351 760q-46 0 -75 -30q-28 -30 -28 -77t30 -77t74 -29q44 0 76 31q31 30 31 76t-31 76t-77 30zM668 280q0 -140 -84 -218t-230 -76q-146 0 -225 73q-88 77 -88 219t135 209 q-104 45 -104 169t83 187q83 64 199 64q116 1 199 -65q82 -66 82 -188t-105 -167q138 -67 138 -207z" />
<glyph unicode="9" d="M479 599q0 48 -36 84t-89 36t-89 -36t-36 -89q0 -123 133 -133l-90 -168q-100 25 -166 107t-65 208q0 125 88 209q86 90 224 90t229 -90q86 -90 86 -223q0 -80 -72 -211l-209 -383h-217l276 494q33 57 33 105z" />
<glyph unicode=":" horiz-adv-x="354" d="M177 207q46 0 76 -31t30 -76q0 -44 -30 -74t-76 -30t-76 30q-29 30 -29 74t29 76q30 31 76 31zM177 592q46 0 76 -31t30 -76t-30 -75t-76 -31q-46 0 -76 31q-29 32 -29 76t29 75q30 31 76 31z" />
<glyph unicode=";" horiz-adv-x="405" d="M283 106q0 -46 -30 -76t-76 -30t-76 31q-29 31 -29 75t29 76q30 31 76 31t76 -31t30 -76zM76 428l129 385h129l-74 -385h-184z" />
<glyph unicode="&#x3c;" horiz-adv-x="763" d="M690 618v-129l-444 -180l444 -180v-129l-616 256v106z" />
<glyph unicode="=" horiz-adv-x="763" d="M74 244h616v-138h-616v138zM74 512h616v-137h-616v137z" />
<glyph unicode="&#x3e;" horiz-adv-x="763" d="M74 0v129l444 180l-444 180v129l616 -256v-106z" />
<glyph unicode="?" horiz-adv-x="636" d="M306 207q46 0 76 -31t30 -76q0 -44 -30 -74t-76 -30t-76 30t-30 74t30 76q30 31 76 31zM399 260h-176v258q117 0 155 28t38 78t-30 78t-81 29q-76 0 -110 -94l-172 43q25 98 101 162t198 65q122 0 203 -81t81 -214q0 -88 -60 -160t-147 -79v-113z" />
<glyph unicode="@" horiz-adv-x="1019" d="M393 417q1 -112 101 -112q50 1 90 47t39 98q0 107 -106 107q-52 0 -88 -44t-36 -96zM713 318q0 -22 18 -23q47 0 86 54t39 149q0 141 -92 227q-90 78 -240 78q-150 -1 -244 -101t-94 -260t103 -256q97 -96 249 -96t255 86h114q-133 -190 -370 -190q-201 0 -339 130 t-138 328t137 330q139 133 322 133q183 1 312 -105t130 -272q1 -129 -57 -206q-58 -78 -133 -114t-124 -36q-63 0 -67 64l-2 2q-57 -66 -133 -66t-132 66q-61 66 -61 169t73 190t178 87t154 -78l15 62h112l-63 -301q-8 -29 -8 -51z" />
<glyph unicode="A" horiz-adv-x="778" d="M268 614v-614h-198v582q0 133 71 221q88 104 248 104t240 -98t80 -227v-582h-199v322h-193v172h193v120q0 119 -121 119t-121 -119z" />
<glyph unicode="B" d="M244 606v-606h-178v588q0 162 79 241t205 79t205 -74q78 -74 78 -189t-90 -168q123 -61 123 -215q0 -110 -68 -186t-176 -76h-131v178h102q39 0 62 28t22 73q0 102 -98 102h-88v156h47q104 0 104 92q0 45 -24 73t-70 27q-104 0 -104 -123z" />
<glyph unicode="C" horiz-adv-x="636" d="M459 891h147v-178h-137q-94 0 -163 -83q-68 -82 -68 -184t68 -185t163 -83h137v-178h-147q-168 0 -294 124t-126 320t125 322q125 125 295 125z" />
<glyph unicode="D" horiz-adv-x="849" d="M264 713v-713h-188v891h319q143 0 271 -117q141 -135 141 -333q0 -197 -127 -319t-307 -122h-54v178h54q96 0 171 81q74 81 74 195t-76 186q-76 73 -198 73h-80z" />
<glyph unicode="E" horiz-adv-x="636" d="M473 891h98v-178h-114q-102 0 -162 -60q-55 -51 -66 -125h342v-166h-342q9 -70 69 -126t159 -58h114v-178h-98q-213 0 -334 141q-104 125 -104 305t104 306q119 139 334 139z" />
<glyph unicode="F" horiz-adv-x="565" d="M244 334v-334h-189v612q0 121 64 201q68 78 194 78h205v-178h-160q-115 0 -114 -107v-94h274v-178h-274z" />
<glyph unicode="G" horiz-adv-x="991" d="M523 729q-130 0 -207 -83q-76 -84 -76 -196t76 -194t178 -82q104 0 172 57q68 51 84 131h-248v166h446v-120q0 -150 -122 -286t-325 -136q-202 0 -331 135t-129 325t129 326t326 135q217 0 364 -139l-119 -137q-88 98 -218 98z" />
<glyph unicode="H" horiz-adv-x="778" d="M268 393v-393h-188v891h188v-320h242v320h188v-891h-188v393h-242z" />
<glyph unicode="I" horiz-adv-x="354" d="M270 891v-891h-188v891h188z" />
<glyph unicode="J" horiz-adv-x="423" d="M6 0v188q92 0 127 29q31 29 31 109v565h188v-563q0 -193 -86 -262q-76 -66 -260 -66z" />
<glyph unicode="K" d="M258 385v-385h-188v891h188v-334q61 0 86 17t41 61l111 256h206l-106 -234q-29 -63 -43 -82q-31 -45 -74 -59v-2q80 -6 133 -54t54 -124v-336h-189v299q0 86 -82 86h-137z" />
<glyph unicode="L" horiz-adv-x="495" d="M72 268v623h188v-598q0 -59 23 -82t73 -23h142v-188h-187q-113 0 -174 59q-65 70 -65 209z" />
<glyph unicode="M" horiz-adv-x="1060" d="M272 907q134 0 162 -133l96 -422h2l93 422q31 133 164 133t157 -188l88 -719h-203l-61 690h-4l-162 -641q-8 -35 -25 -46t-55 -11t-55 12q-18 12 -27 45l-147 641h-4l-68 -690h-198l88 719q25 188 159 188z" />
<glyph unicode="N" horiz-adv-x="849" d="M776 113q0 -127 -106 -127q-55 0 -89 34t-65 99l-252 520l-2 -2v-637h-190v776q0 59 34 95q36 36 98 36t101 -43q25 -23 60 -88l219 -457h4v572h188v-778z" />
<glyph unicode="O" horiz-adv-x="991" d="M496 723q-121 0 -197 -82q-70 -80 -70 -197q0 -116 74 -196t193 -80q118 0 192 80t74 196t-72 198q-72 81 -194 81zM496 907q198 0 326 -135q128 -136 128 -326t-129 -325t-325 -135t-326 135q-129 135 -129 325t129 326t326 135z" />
<glyph unicode="P" d="M252 602v-602h-191v602q0 125 84 215q91 90 227 90t223 -87t87 -217t-84 -214q-84 -90 -225 -90h-70v178q96 0 135 21q56 29 56 96t-33 101t-89 34t-88 -34t-32 -93z" />
<glyph unicode="Q" horiz-adv-x="991" d="M588 -129h-162v438h162v-123q68 12 121 92t53 182q0 101 -70 181q-76 82 -196 82t-197 -82q-70 -80 -70 -195q0 -160 140 -247v-199q-137 39 -233 161q-96 123 -95 299q0 176 129 312t325 135q195 0 325 -135q130 -134 130 -316t-101 -306t-261 -158v-121z" />
<glyph unicode="R" d="M307 520q160 0 160 105q0 49 -31 77t-76 27q-46 1 -76 -27t-30 -77v-625h-188v612q0 117 67 199q86 96 250 96q125 0 199 -80t73 -186q0 -131 -110 -184q78 -29 102 -78q20 -37 21 -125v-254h-189v252q0 53 -22 78q-23 25 -78 24h-72v166z" />
<glyph unicode="S" horiz-adv-x="636" d="M264 891h297v-164h-254q-66 0 -65 -68q0 -33 110 -109t152 -114q90 -90 90 -166q0 -115 -51 -180q-66 -90 -201 -90h-297v178h293q57 0 57 64q0 35 -90 100q-12 8 -41 28t-45 29q-104 70 -149 154q-27 45 -27 102q-1 117 67 177t154 59z" />
<glyph unicode="T" horiz-adv-x="565" d="M377 0h-189v713h-192v178h575v-178h-194v-713z" />
<glyph unicode="U" horiz-adv-x="778" d="M266 315q0 -147 123 -147q53 0 88 29q35 34 35 118v576h188v-629q4 -111 -75 -190q-80 -86 -235 -86t-236 86q-76 76 -76 190v629h188v-576z" />
<glyph unicode="V" d="M345 -14q-79 0 -118 40t-59 117l-180 748h200l158 -684h2l172 684h201l-199 -748q-20 -77 -59 -117t-118 -40z" />
<glyph unicode="W" horiz-adv-x="1132" d="M471 326v565h188v-565q0 -96 19 -123q20 -39 84 -39t84 34t20 128v565h189v-678q0 -96 -74 -162q-73 -65 -197 -65t-219 96q-90 -96 -216 -96t-197 67q-76 63 -76 160v678h188v-565q0 -92 19 -123q20 -39 86 -39t84 34t18 128z" />
<glyph unicode="X" horiz-adv-x="636" d="M23 0v176q98 24 149 96t51 178t-51 178q-51 71 -149 89v174q100 0 179 -54t115 -147q39 92 118 146t179 55v-174q-98 -18 -149 -89t-51 -177q0 -105 51 -179t149 -96v-176q-100 0 -180 58t-115 155h-2q-35 -97 -115 -155t-179 -58z" />
<glyph unicode="Y" d="M63 565v326h189v-262q0 -131 102 -131t103 131v262h188v-326q0 -77 -48 -143t-148 -96v-326h-189v326q-102 33 -150 98t-47 141z" />
<glyph unicode="Z" horiz-adv-x="636" d="M610 178v-178h-493q-41 0 -72 31q-29 33 -29 61q0 66 29 115l313 506h-299v178h428q41 0 73 -32t32 -75t-43 -116l-297 -490h358z" />
<glyph unicode="[" horiz-adv-x="423" d="M348 -188v-86h-252v1165h252v-86h-121v-993h121z" />
<glyph unicode="\" horiz-adv-x="354" d="M307 -14l-397 921h139l395 -921h-137z" />
<glyph unicode="]" horiz-adv-x="423" d="M76 805v86h252v-1165h-252v86h121v993h-121z" />
<glyph unicode="^" horiz-adv-x="763" d="M383 752l-156 -338h-137l229 477h127l230 -477h-141z" />
<glyph unicode="_" horiz-adv-x="636" d="M637 -96v-64h-637v64h637z" />
<glyph unicode="a" d="M649 356v-356h-162v348q0 57 -38 90q-39 33 -101 33t-103 -46q-40 -45 -40 -111t40 -110t92 -44t103 20v-170q-63 -14 -104 -14q-139 0 -219 94q-76 82 -76 221t87 231t220 93q133 0 217 -78t84 -201z" />
<glyph unicode="b" d="M59 311v580h162v-582q0 -69 40 -111q41 -42 103 -42t101 43t39 111t-40 110q-40 43 -96 43t-94 -19v172q70 18 99 19q127 0 211 -97q84 -96 84 -230t-86 -228t-218 -94t-221 94q-84 94 -84 231z" />
<glyph unicode="c" horiz-adv-x="495" d="M344 618h113v-161h-109q-68 0 -108 -41t-39 -107q0 -65 40 -105t107 -40h109v-164h-113q-141 0 -225 84q-80 84 -80 226t80 227q82 81 225 81z" />
<glyph unicode="d" d="M487 309v582h162v-580q0 -137 -86 -231t-217 -94t-218 93t-87 227t84 232t211 97q29 0 98 -19v-172q-37 18 -93 18t-96 -42q-40 -43 -40 -111q0 -69 39 -111q40 -42 102 -42t102 42t39 111z" />
<glyph unicode="e" d="M31 309q0 139 87 233t214 93q127 0 209 -57q68 -43 104 -127l-315 -236l-78 104l162 123q-27 29 -83 29q-57 0 -97 -46q-40 -45 -40 -111t45 -116q44 -50 109 -50t111 35q45 37 55 98l164 -19q-27 -129 -114 -203q-87 -73 -223 -73t-223 92t-87 231z" />
<glyph unicode="f" horiz-adv-x="354" d="M53 623q0 268 226 268h63v-162h-63q-63 0 -64 -63v-48h127v-157h-127v-461h-162v623z" />
<glyph unicode="g" d="M317 -113q164 0 164 133v304q0 70 -41 108t-99 37q-58 0 -97 -41t-39 -108q0 -68 38 -106t94 -38t95 14v-167q-49 -18 -90 -19q-135 0 -218 88t-83 225t80 228q86 90 216 90t219 -87t89 -202v-301q0 -319 -323 -319q-119 -1 -199 30v168q94 -37 194 -37z" />
<glyph unicode="h" horiz-adv-x="636" d="M225 373v-373h-164v891h164v-320h2q45 63 135 63t152 -55q62 -56 61 -151v-428h-163v373q0 98 -94 98t-93 -98z" />
<glyph unicode="i" horiz-adv-x="282" d="M223 618v-618h-164v618h164zM141 907q43 1 70 -27t27 -76t-27 -76t-70 -28t-69 28t-27 76q1 48 27 76t69 27z" />
<glyph unicode="j" horiz-adv-x="282" d="M57 -51v669h164v-638q0 -150 -49 -210t-174 -61h-64v158h64q59 0 59 82zM141 907q43 1 70 -27t27 -76t-27 -76t-70 -28t-69 28t-27 76q1 48 27 76t69 27z" />
<glyph unicode="k" horiz-adv-x="636" d="M227 252v-252h-164v891h164v-481h47q43 0 74 65l64 143h182l-66 -143q-29 -63 -47 -85t-55 -32v-2q84 -14 120 -60t36 -138v-158h-164v143q0 109 -99 109h-92z" />
<glyph unicode="l" horiz-adv-x="282" d="M223 891v-891h-164v891h164z" />
<glyph unicode="m" horiz-adv-x="991" d="M760 373q0 101 -98 99q-50 -1 -80 -58v-414h-172v373q0 98 -90 98t-89 -98v-373h-170v428q0 100 70 154t176 53q106 0 193 -94q78 94 185 94t176 -55t69 -152v-428h-170v373z" />
<glyph unicode="n" horiz-adv-x="636" d="M225 373v-373h-164v428q0 98 71 152q70 54 186 55q116 0 187 -54t70 -153v-428h-163v373q0 98 -94 98t-93 -98z" />
<glyph unicode="o" d="M354 471q-70 0 -110 -42t-39 -119q0 -77 40 -120q39 -43 109 -43t110 43t40 120t-40 119t-110 42zM354 635q138 0 226 -93q88 -92 88 -232t-87 -232t-227 -92t-226 92q-87 92 -87 231t87 233t226 93z" />
<glyph unicode="p" d="M221 309v-583h-162v583q0 137 84 232q89 94 221 94t218 -94q86 -95 86 -229t-83 -230t-212 -96q-37 0 -99 16v172q45 -18 97 -18t93 43q40 43 40 111t-39 110q-39 43 -101 43t-103 -42q-40 -42 -40 -112z" />
<glyph unicode="q" d="M649 309v-583h-162v583q0 70 -40 112t-102 42t-101 -43t-39 -111q0 -69 40 -111t92 -42t97 18v-172q-61 -16 -98 -16q-129 0 -212 96t-83 231t87 229t218 93q131 0 219 -94q84 -95 84 -232z" />
<glyph unicode="r" horiz-adv-x="423" d="M231 303v-303h-172v618h154v-116h2q43 125 158 125h33v-174h-39q-61 0 -99 -39t-37 -111z" />
<glyph unicode="s" horiz-adv-x="495" d="M258 0h-229v154h211q45 0 45 32t-64 66l-61 33q-70 35 -98 76t-27 75q0 94 55 138t148 44h194v-151h-188q-39 0 -39 -29q1 -20 79 -58t115 -67q68 -55 68 -135t-61 -129q-56 -49 -148 -49z" />
<glyph unicode="t" horiz-adv-x="354" d="M211 784v-166h119v-157h-119v-230q0 -68 57 -67h62v-164h-86q-104 0 -154 61q-41 55 -41 166v557h162z" />
<glyph unicode="u" horiz-adv-x="636" d="M61 190v428h164v-370q0 -100 94 -101q92 0 93 101v370h163v-428q0 -100 -71 -151q-66 -53 -186 -53t-185 53q-72 51 -72 151z" />
<glyph unicode="v" horiz-adv-x="565" d="M278 -14q-102 0 -133 120l-149 512h180l103 -409h2l104 409h184l-159 -512q-20 -60 -47 -90t-85 -30z" />
<glyph unicode="w" horiz-adv-x="991" d="M410 248v370h172v-370q0 -100 84 -101q88 0 88 101v370h172v-411q0 -105 -66 -163t-179 -58q-112 0 -192 104q-66 -104 -178 -104t-179 57t-66 164v411h172v-370q0 -100 88 -101q84 1 84 101z" />
<glyph unicode="x" horiz-adv-x="495" d="M446 618h41v-151h-34q-53 0 -91 -43t-36 -115q0 -71 36 -113t91 -42h34v-154h-41q-55 0 -112 33t-88 90q-57 -123 -195 -123h-43v154h35q55 0 92 42t37 114t-37 114q-37 43 -92 43h-35v151h43q59 0 113 -32t88 -90q59 122 194 122z" />
<glyph unicode="y" horiz-adv-x="636" d="M59 223v395h164v-360q0 -111 95 -111t96 111v360h164v-395q0 -88 -44 -148t-131 -79v-258h-170v258q-82 16 -128 78t-46 149z" />
<glyph unicode="z" horiz-adv-x="565" d="M53 461v157h355q61 0 91 -24t29 -59q0 -72 -49 -129l-225 -248h274v-158h-399q-53 0 -84 28t-31 72t39 86l256 275h-256z" />
<glyph unicode="{" horiz-adv-x="565" d="M264 174v-258q0 -30 20 -58t62 -28h70v-104h-121q-53 0 -106 46t-54 124v262q0 49 -47 80q-35 18 -76 18v115q41 -1 82 21t41 69v260q-1 80 53 125t107 45h121v-105h-70q-79 0 -82 -86v-258q0 -63 -40 -95t-81 -32v-4q121 -10 121 -137z" />
<glyph unicode="|" horiz-adv-x="282" d="M211 0h-139v891h139v-891z" />
<glyph unicode="}" horiz-adv-x="565" d="M301 442v258q0 31 -16 58q-23 29 -66 28h-69v105h120q52 0 106 -44t54 -126v-260q0 -51 40 -75t83 -26v-114q-43 0 -74 -19q-49 -27 -49 -69v-264q0 -78 -53 -123t-107 -45h-120v104h69q43 0 66 29q16 27 16 57v258q0 63 45 100q39 27 78 27v4q-123 10 -123 137z" />
<glyph unicode="~" horiz-adv-x="763" d="M88 309q64 111 150 111q50 0 151 -41l70 -31q37 -16 63 -16t52 23t34 36q7 13 23 33l45 -115q-37 -53 -64 -76q-85 -72 -227 11q-74 43 -142 43t-110 -92z" />
<glyph unicode="&#xa1;" horiz-adv-x="354" d="M264 375l17 -649h-207l16 649h174zM283 531q0 -45 -30 -75t-76 -30t-76 30q-29 30 -29 76t29 75q30 30 76 30t76 -30t30 -76z" />
<glyph unicode="&#xa2;" d="M272 891h101v-186h84v-136h-121q-129 -1 -129 -121t129 -120h121v-133h-84v-185h-101v185q-102 14 -159 86q-53 72 -54 168q1 96 57 169t156 87v186z" />
<glyph unicode="&#xa3;" d="M145 651q0 256 287 256q20 0 123 -10v-178q-82 10 -124 10q-99 0 -97 -88v-88h123v-178h-123q0 -72 -13 -116t-59 -77l2 -4h156q68 0 100 41t35 139h178q0 -168 -79 -263t-234 -95h-402v178q80 0 107 49q20 35 20 148h-79v178h79v98z" />
<glyph unicode="&#xa4;" d="M354 629q-76 0 -125 -53q-49 -54 -49 -130t50 -130t124 -54t124 54t50 130t-49 130t-125 53zM39 450q0 118 59 175l-73 73l77 78l72 -71q63 57 179 57t177 -55l74 73l80 -82l-70 -71q56 -66 56 -180t-58 -183l72 -71l-74 -74l-73 74q-70 -63 -185 -63t-182 60l-70 -73 l-75 76l73 73q-59 66 -59 184z" />
<glyph unicode="&#xa5;" d="M449 362h155v-129h-155v-233h-189v233h-158v129h158v91h-158v129h131q-40 108 -174 135v174q101 0 179 -54t116 -147q39 92 117 146t178 55v-174q-139 -27 -176 -135h131v-129h-155v-91z" />
<glyph unicode="&#xa6;" horiz-adv-x="282" d="M211 0h-139v350h139v-350zM211 541h-139v350h139v-350z" />
<glyph unicode="&#xa7;" horiz-adv-x="636" d="M440 315q0 29 -43 78q-39 51 -89 95t-70 44q-41 0 -41 -45q0 -29 86 -121t112 -92q45 0 45 41zM322 801q-20 1 -34 -15t-14 -42t82 -103q131 -131 148 -149q80 -94 80 -160t-38 -104q-38 -36 -100 -44q68 -68 68 -148t-56 -122q-56 -41 -143 -41q-127 0 -213 109l105 79 q25 -39 47 -61t52 -20q30 0 48 16t18 45t-54 83t-128 124q-74 71 -112 145q-25 41 -25 88t42 91t100 44q-61 61 -61 136t56 118q54 37 150 37t190 -104l-106 -76q-59 74 -102 74z" />
<glyph unicode="&#xa9;" horiz-adv-x="1019" d="M512 180q-98 0 -170 77t-72 194t71 193t172 75q101 0 161 -52t71 -143h-108q-6 84 -113 84q-55 0 -90 -45t-35 -113t35 -114q35 -45 90 -45q107 0 113 84h108q-12 -91 -73 -143t-160 -52zM510 797q-142 1 -238 -97t-96 -254t98 -253q92 -99 236 -99t235 99q99 97 99 253 t-99 254q-92 97 -235 97zM510 907q195 0 332 -121q143 -133 143 -340t-143 -340q-137 -120 -332 -120t-336 126t-141 334q0 209 141 335t336 126z" />
<glyph unicode="&#xaa;" horiz-adv-x="425" d="M414 739v-213h-119v205q0 76 -86 76q-41 0 -64 -26q-23 -27 -23 -67t24 -65q22 -25 58 -25t60 13v-105q-41 -8 -63 -8q-93 0 -145 56t-52 136q0 79 62 136q55 55 142 55q86 0 146 -47t60 -121z" />
<glyph unicode="&#xab;" horiz-adv-x="636" d="M416 309l162 -196h-127l-162 196l157 197h129zM186 309l162 -196h-127l-162 196l158 197h129z" />
<glyph unicode="&#xac;" horiz-adv-x="763" d="M690 106h-137v269h-479v137h616v-406z" />
<glyph unicode="&#xad;" horiz-adv-x="423" d="M358 381v-143h-292v143h292z" />
<glyph unicode="&#xae;" horiz-adv-x="1019" d="M432 614v-122h88q45 0 66 12q20 12 20 49t-20 49t-66 12h-88zM432 406v-211h-110v505h190q102 0 154 -34q51 -35 51 -119q0 -127 -137 -133l131 -219h-111l-117 211h-51zM510 797q-142 1 -238 -97t-96 -254t98 -253q92 -99 236 -99t235 99q99 97 99 253t-99 254 q-92 97 -235 97zM510 907q195 0 332 -121q143 -133 143 -340t-143 -340q-137 -120 -332 -120t-336 126t-141 334q0 209 141 335t336 126z" />
<glyph unicode="&#xb0;" horiz-adv-x="509" d="M254 821q-39 1 -65 -25q-25 -26 -25 -71t26 -71t65 -26q40 0 66 26t25 71q0 45 -26 71t-66 25zM256 907q80 0 130 -52t50 -130t-52 -130t-128 -52t-130 52t-54 130t55 129q49 53 129 53z" />
<glyph unicode="&#xb1;" horiz-adv-x="763" d="M690 0h-616v137h616v-137zM74 467h239v151h138v-151h239v-139h-239v-154h-138v154h-239v139z" />
<glyph unicode="&#xb2;" horiz-adv-x="423" d="M416 471v-109h-324q-88 0 -88 64q0 26 14 48t68 67l119 110q68 61 67 97q0 20 -18 36t-47 16t-46 -16t-17 -40t12 -44t26 -24l-90 -78q-78 49 -78 133t58 130t137 46q78 0 136 -46q58 -45 58 -105t-24 -103q-12 -18 -68 -69l-133 -113h238z" />
<glyph unicode="&#xb3;" horiz-adv-x="423" d="M205 362h-187v111h172q82 -1 82 63t-82 64h-112v70l170 125v2h-221v102h245q57 1 86 -23t29 -63t-34 -67t-51 -37q-17 -10 -38 -27q68 -10 110 -52t42 -115t-60 -113t-151 -40z" />
<glyph unicode="&#xb6;" horiz-adv-x="790" d="M451 -242h-142v682q-135 0 -210 58t-75 175q0 116 82 167q81 51 230 51h387v-1133h-143v1026h-129v-1026z" />
<glyph unicode="&#xb7;" horiz-adv-x="354" d="M177 416q46 0 76 -31t30 -76t-30 -75t-76 -30t-76 30t-29 75q0 45 29 76q30 31 76 31z" />
<glyph unicode="&#xb9;" horiz-adv-x="423" d="M158 791h-84v108h215v-537h-131v429z" />
<glyph unicode="&#xba;" horiz-adv-x="425" d="M213 803q-39 0 -66 -26q-27 -27 -27 -65t28 -64q26 -26 65 -26t66 26t26 65t-27 65t-65 25zM213 907q88 0 149 -57q54 -57 54 -139q0 -81 -56 -137t-147 -56q-93 0 -149 56t-56 136t55 140q62 57 150 57z" />
<glyph unicode="&#xbb;" horiz-adv-x="636" d="M451 309l-162 197h127l162 -197l-158 -196h-129zM221 309l-162 197h127l162 -197l-158 -196h-129z" />
<glyph unicode="&#xbc;" horiz-adv-x="1062" d="M817 215v152l115 170l6 4v-326h51v-106h-51v-109h-121v109h-178q-31 -1 -55 21t-25 56q0 34 33 82l172 267h125l-209 -320h137zM158 791h-84v108h215v-537h-131v429zM305 -14h-115l517 921h120z" />
<glyph unicode="&#xbd;" horiz-adv-x="1062" d="M1028 106v-106h-321q-90 0 -91 63q0 25 17 48q10 23 65 67l119 111q68 57 68 96q1 19 -17 35t-48 16t-47 -15t-17 -39t12 -44t27 -25l-88 -77q-80 45 -80 143q0 70 55 119q61 47 141 47t138 -47q55 -48 55 -106t-25 -101q-23 -33 -65 -70l-135 -115h237zM158 791h-84v108 h215v-537h-131v429zM291 -14h-117l518 921h121z" />
<glyph unicode="&#xbe;" horiz-adv-x="1062" d="M817 215v152l115 170l6 4v-326h51v-106h-51v-109h-121v109h-178q-31 -1 -55 21t-25 56q0 34 33 82l172 267h125l-209 -320h137zM205 362h-187v111h172q82 -1 82 63t-82 64h-112v70l170 125v2h-221v102h245q57 1 86 -23t29 -63t-34 -67t-51 -37q-17 -10 -38 -27 q68 -10 110 -52t42 -115t-60 -113t-151 -40zM338 -14h-115l516 921h121z" />
<glyph unicode="&#xbf;" horiz-adv-x="636" d="M238 373h176v-258q-113 0 -158 -31q-35 -27 -35 -76t30 -79q30 -29 75 -29q82 1 116 96l172 -45q-26 -101 -102 -163t-198 -62t-203 78q-80 78 -80 216q1 88 59 157t148 81v115zM331 426q-46 0 -76 30t-30 76t30 75q30 30 76 30t76 -30q29 -30 29 -76q0 -45 -30 -75 t-75 -30z" />
<glyph unicode="&#xc0;" horiz-adv-x="778" d="M268 614v-614h-198v582q0 133 71 221q88 104 248 104t240 -98t80 -227v-582h-199v322h-193v172h193v120q0 119 -121 119t-121 -119zM369 946l-189 182h197l119 -182h-127z" />
<glyph unicode="&#xc1;" horiz-adv-x="778" d="M268 614v-614h-198v582q0 133 71 221q88 104 248 104t240 -98t80 -227v-582h-199v322h-193v172h193v120q0 119 -121 119t-121 -119zM285 946l118 182h195l-188 -182h-125z" />
<glyph unicode="&#xc2;" horiz-adv-x="778" d="M268 614v-614h-198v582q0 133 71 221q88 104 248 104t240 -98t80 -227v-582h-199v322h-193v172h193v120q0 119 -121 119t-121 -119zM471 1128l143 -182h-143l-80 105l-82 -105h-145l147 182h160z" />
<glyph unicode="&#xc3;" horiz-adv-x="778" d="M268 614v-614h-198v582q0 133 71 221q88 104 248 104t240 -98t80 -227v-582h-199v322h-193v172h193v120q0 119 -121 119t-121 -119zM481 961q-25 0 -96 22q-59 23 -90 23q-47 0 -57 -54h-80q6 66 45 112t100 46q31 0 98 -23q61 -25 78 -24q50 0 62 53h82 q-10 -68 -45 -112t-97 -43z" />
<glyph unicode="&#xc4;" horiz-adv-x="778" d="M268 614v-614h-198v582q0 133 71 221q88 104 248 104t240 -98t80 -227v-582h-199v322h-193v172h193v120q0 119 -121 119t-121 -119zM514 1118q39 0 65 -26q25 -26 25 -63t-26 -63t-64 -26q-40 0 -64 26t-24 64t24 62q24 26 64 26zM264 1118q39 0 65 -26q25 -26 25 -63 t-26 -63t-64 -26q-40 0 -64 26t-24 64t24 62q24 26 64 26z" />
<glyph unicode="&#xc5;" horiz-adv-x="778" d="M268 614v-614h-198v582q0 133 71 221q88 104 248 104t240 -98t80 -227v-582h-199v322h-193v172h193v120q0 119 -121 119t-121 -119zM390 1145q-28 -1 -47 -21t-19 -47t19 -46t47 -19t47 19t19 47t-18 48q-20 20 -48 19zM390 1212q56 0 95 -38q39 -44 39 -98t-40 -94 t-94 -40t-95 41t-41 93t41 98q39 38 95 38z" />
<glyph unicode="&#xc6;" horiz-adv-x="1132" d="M252 584v-584h-189v582q1 150 89 238t223 87q180 0 266 -145q104 129 305 129h127v-178h-115q-104 1 -173 -57t-78 -128h366v-166h-366q11 -68 81 -126t170 -58h115v-178h-127q-80 0 -156 27t-114 61v-88h-172v362h-193v166h193v99q0 43 -36 73t-81 29q-135 0 -135 -145z " />
<glyph unicode="&#xc7;" horiz-adv-x="636" d="M379 -217q70 0 70 57q-1 18 -17 30t-36 13q-20 0 -56 -12l-27 27l72 108q-143 25 -245 147t-101 305q0 183 125 308t295 125h147v-178h-137q-94 0 -163 -83q-68 -82 -68 -184t68 -185t163 -83h137v-178h-157l-46 -68q70 23 112 -12t42 -86t-49 -83q-50 -32 -110 -32 t-138 35l23 51l47 -12q27 -10 49 -10z" />
<glyph unicode="&#xc8;" horiz-adv-x="636" d="M473 891h98v-178h-114q-102 0 -162 -60q-55 -51 -66 -125h342v-166h-342q9 -70 69 -126t159 -58h114v-178h-98q-213 0 -334 141q-104 125 -104 305t104 306q119 139 334 139zM356 946l-188 182h197l118 -182h-127z" />
<glyph unicode="&#xc9;" horiz-adv-x="636" d="M473 891h98v-178h-114q-102 0 -162 -60q-55 -51 -66 -125h342v-166h-342q9 -70 69 -126t159 -58h114v-178h-98q-213 0 -334 141q-104 125 -104 305t104 306q119 139 334 139zM270 946l119 182h197l-189 -182h-127z" />
<glyph unicode="&#xca;" horiz-adv-x="636" d="M473 891h98v-178h-114q-102 0 -162 -60q-55 -51 -66 -125h342v-166h-342q9 -70 69 -126t159 -58h114v-178h-98q-213 0 -334 141q-104 125 -104 305t104 306q119 139 334 139zM457 1128l145 -182h-143l-80 105l-82 -105h-145l147 182h158z" />
<glyph unicode="&#xcb;" horiz-adv-x="636" d="M473 891h98v-178h-114q-102 0 -162 -60q-55 -51 -66 -125h342v-166h-342q9 -70 69 -126t159 -58h114v-178h-98q-213 0 -334 141q-104 125 -104 305t104 306q119 139 334 139zM502 1118q38 0 64 -26t26 -63t-26 -63t-64 -26t-64 26q-24 26 -24 64t24 63q25 25 64 25z M252 1118q38 0 64 -26t26 -63t-26 -63t-64 -26t-64 26q-24 26 -24 64t24 63q25 25 64 25z" />
<glyph unicode="&#xcc;" horiz-adv-x="354" d="M270 891v-891h-188v891h188zM158 946l-191 182h197l119 -182h-125z" />
<glyph unicode="&#xcd;" horiz-adv-x="354" d="M270 891v-891h-188v891h188zM72 946l118 182h195l-188 -182h-125z" />
<glyph unicode="&#xce;" horiz-adv-x="354" d="M270 891v-891h-188v891h188zM258 1128l145 -182h-145l-80 105l-82 -105h-145l147 182h160z" />
<glyph unicode="&#xcf;" horiz-adv-x="354" d="M270 891v-891h-188v891h188zM302 1118q38 0 64 -26t26 -63t-26 -63t-64 -26t-64 26t-25 64q-1 38 25 62q26 26 64 26zM52 1118q38 0 64 -26t26 -63t-26 -63t-64 -26t-64 26t-25 64q-1 38 25 62q26 26 64 26z" />
<glyph unicode="&#xd0;" horiz-adv-x="849" d="M264 571h146v-178h-146v-393h-188v393h-84v178h84v320h319q143 0 271 -117q141 -135 141 -333q0 -197 -127 -319t-307 -122h-54v178h54q96 0 171 81q74 81 74 195t-76 186q-76 73 -198 73h-80v-142z" />
<glyph unicode="&#xd1;" horiz-adv-x="849" d="M776 113q0 -127 -106 -127q-55 0 -89 34t-65 99l-252 520l-2 -2v-637h-190v776q0 59 34 95q36 36 98 36t101 -43q25 -23 60 -88l219 -457h4v572h188v-778zM338 1006q-43 0 -57 -54h-80q6 59 43 111q41 47 102 47q31 0 98 -23q61 -25 80 -24q48 0 60 53h82 q-23 -155 -142 -155q-25 0 -96 22q-59 23 -90 23z" />
<glyph unicode="&#xd2;" horiz-adv-x="991" d="M496 723q-121 0 -197 -82q-70 -80 -70 -197q0 -116 74 -196t193 -80q118 0 192 80t74 196t-72 198q-72 81 -194 81zM496 907q198 0 326 -135q128 -136 128 -326t-129 -325t-325 -135t-326 135q-129 135 -129 325t129 326t326 135zM475 946l-188 182h196l119 -182h-127z " />
<glyph unicode="&#xd3;" horiz-adv-x="991" d="M496 723q-121 0 -197 -82q-70 -80 -70 -197q0 -116 74 -196t193 -80q118 0 192 80t74 196t-72 198q-72 81 -194 81zM496 907q198 0 326 -135q128 -136 128 -326t-129 -325t-325 -135t-326 135q-129 135 -129 325t129 326t326 135zM389 946l119 182h197l-189 -182h-127z " />
<glyph unicode="&#xd4;" horiz-adv-x="991" d="M496 723q-121 0 -197 -82q-70 -80 -70 -197q0 -116 74 -196t193 -80q118 0 192 80t74 196t-72 198q-72 81 -194 81zM496 907q198 0 326 -135q128 -136 128 -326t-129 -325t-325 -135t-326 135q-129 135 -129 325t129 326t326 135zM575 1128l146 -182h-143l-80 105 l-82 -105h-146l146 182h159z" />
<glyph unicode="&#xd5;" horiz-adv-x="991" d="M496 723q-121 0 -197 -82q-70 -80 -70 -197q0 -116 74 -196t193 -80q118 0 192 80t74 196t-72 198q-72 81 -194 81zM496 907q198 0 326 -135q128 -136 128 -326t-129 -325t-325 -135t-326 135q-129 135 -129 325t129 326t326 135zM588 961q-23 0 -99 22q-59 23 -90 23 q-45 0 -55 -54h-82q10 68 48 113t100 45q31 0 98 -23q57 -25 78 -24q51 0 59 53h84q-10 -66 -45 -110t-96 -45z" />
<glyph unicode="&#xd6;" horiz-adv-x="991" d="M496 723q-121 0 -197 -82q-70 -80 -70 -197q0 -116 74 -196t193 -80q118 0 192 80t74 196t-72 198q-72 81 -194 81zM496 907q198 0 326 -135q128 -136 128 -326t-129 -325t-325 -135t-326 135q-129 135 -129 325t129 326t326 135zM621 1118q39 0 63 -26t25 -63 q0 -37 -25 -63q-26 -26 -64 -26t-64 26t-26 64t26 62q26 26 65 26zM371 1118q39 0 65 -26t25 -63q0 -37 -26 -63q-27 -26 -65 -26t-64 26t-26 64t26 63t65 25z" />
<glyph unicode="&#xd7;" horiz-adv-x="763" d="M690 102l-100 -102l-209 211l-207 -211l-100 102l207 207l-207 209l100 100l207 -206l209 206l100 -100l-209 -209z" />
<glyph unicode="&#xd8;" horiz-adv-x="991" d="M762 430q0 102 -43 174l-367 -397q59 -39 161 -39q101 0 175 80t74 182zM496 723q-121 0 -197 -82q-70 -80 -70 -182t43 -170l367 395q-59 39 -143 39zM950 433q0 -177 -129 -312t-325 -135q-154 0 -269 86l-80 -86h-153l151 164q-104 130 -104 308t129 314t326 135 q153 0 268 -86l80 86h155l-151 -164q102 -133 102 -310z" />
<glyph unicode="&#xd9;" horiz-adv-x="778" d="M266 315q0 -147 123 -147q53 0 88 29q35 34 35 118v576h188v-629q4 -111 -75 -190q-80 -86 -235 -86t-236 86q-76 76 -76 190v629h188v-576zM369 946l-189 182h197l119 -182h-127z" />
<glyph unicode="&#xda;" horiz-adv-x="778" d="M266 315q0 -147 123 -147q53 0 88 29q35 34 35 118v576h188v-629q4 -111 -75 -190q-80 -86 -235 -86t-236 86q-76 76 -76 190v629h188v-576zM285 946l118 182h195l-188 -182h-125z" />
<glyph unicode="&#xdb;" horiz-adv-x="778" d="M266 315q0 -147 123 -147q53 0 88 29q35 34 35 118v576h188v-629q4 -111 -75 -190q-80 -86 -235 -86t-236 86q-76 76 -76 190v629h188v-576zM471 1128l143 -182h-143l-80 105l-82 -105h-145l147 182h160z" />
<glyph unicode="&#xdc;" horiz-adv-x="778" d="M266 315q0 -147 123 -147q53 0 88 29q35 34 35 118v576h188v-629q4 -111 -75 -190q-80 -86 -235 -86t-236 86q-76 76 -76 190v629h188v-576zM514 1118q39 0 65 -26q25 -26 25 -63t-26 -63t-64 -26q-40 0 -64 26t-24 64t24 62q24 26 64 26zM264 1118q39 0 65 -26 q25 -26 25 -63t-26 -63t-64 -26q-40 0 -64 26t-24 64t24 62q24 26 64 26z" />
<glyph unicode="&#xdd;" d="M63 565v326h189v-262q0 -131 102 -131t103 131v262h188v-326q0 -77 -48 -143t-148 -96v-326h-189v326q-102 33 -150 98t-47 141zM256 946l119 182h196l-188 -182h-127z" />
<glyph unicode="&#xde;" d="M373 170h-70v178q92 0 141 26q50 26 50 93t-33 101t-89 34t-88 -34t-32 -95v-473h-191v891h191v-135q55 25 121 24q129 0 223 -90q86 -90 86 -216t-89 -215t-220 -89z" />
<glyph unicode="&#xdf;" horiz-adv-x="778" d="M260 0h-170v461h-82v157h82v58q0 98 75 156t177 59q102 0 172 -54q70 -53 70 -149t-76 -137q98 -51 156 -125q70 -82 70 -192t-91 -179q-78 -55 -207 -55h-121v158h121q127 0 127 96q1 84 -115 164q-116 81 -116 102q0 16 46 58t46 84q0 40 -26 65t-60 25q-78 0 -78 -82 v-670z" />
<glyph unicode="&#xe0;" d="M649 356v-356h-162v348q0 57 -38 90q-39 33 -101 33t-103 -46q-40 -45 -40 -111t40 -110t92 -44t103 20v-170q-63 -14 -104 -14q-139 0 -219 94q-76 82 -76 221t87 231t220 93q133 0 217 -78t84 -201zM342 709l-188 182h194l119 -182h-125z" />
<glyph unicode="&#xe1;" d="M649 356v-356h-162v348q0 57 -38 90q-39 33 -101 33t-103 -46q-40 -45 -40 -111t40 -110t92 -44t103 20v-170q-63 -14 -104 -14q-139 0 -219 94q-76 82 -76 221t87 231t220 93q133 0 217 -78t84 -201zM256 709l119 182h196l-188 -182h-127z" />
<glyph unicode="&#xe2;" d="M649 356v-356h-162v348q0 57 -38 90q-39 33 -101 33t-103 -46q-40 -45 -40 -111t40 -110t92 -44t103 20v-170q-63 -14 -104 -14q-139 0 -219 94q-76 82 -76 221t87 231t220 93q133 0 217 -78t84 -201zM442 891l146 -182h-146l-80 104l-81 -104h-144l146 182h159z" />
<glyph unicode="&#xe3;" d="M649 356v-356h-162v348q0 57 -38 90q-39 33 -101 33t-103 -46q-40 -45 -40 -111t40 -110t92 -44t103 20v-170q-63 -14 -104 -14q-139 0 -219 94q-76 82 -76 221t87 231t220 93q133 0 217 -78t84 -201zM453 723q-25 0 -97 22q-66 25 -90 25q-43 0 -55 -53h-82q6 59 45 108 t100 49q25 0 99 -24q61 -25 82 -25q21 -1 37 15t20 39h82q-10 -68 -45 -112t-96 -44z" />
<glyph unicode="&#xe4;" d="M649 356v-356h-162v348q0 57 -38 90q-39 33 -101 33t-103 -46q-40 -45 -40 -111t40 -110t92 -44t103 20v-170q-63 -14 -104 -14q-139 0 -219 94q-76 82 -76 221t87 231t220 93q133 0 217 -78t84 -201zM397 793q-1 37 25 63t64 25q38 0 64 -26q26 -27 26 -63t-26 -63 t-64 -27t-64 27t-25 64zM238 881q40 0 64 -26q24 -27 24 -63t-26 -63t-64 -27t-63 27q-26 27 -26 64t26 63t65 25z" />
<glyph unicode="&#xe5;" d="M649 356v-356h-162v348q0 57 -38 90q-39 33 -101 33t-103 -46q-40 -45 -40 -111t40 -110t92 -44t103 20v-170q-63 -14 -104 -14q-139 0 -219 94q-76 82 -76 221t87 231t220 93q133 0 217 -78t84 -201zM361 907q-28 0 -47 -19t-19 -47t19 -47q19 -20 47 -20q27 0 47 20 t20 47q0 28 -19 47q-20 19 -48 19zM360 975q58 0 98 -40t40 -94q0 -55 -40 -95t-98 -40t-92 39q-41 37 -41 95t41 96q35 39 92 39z" />
<glyph unicode="&#xe6;" horiz-adv-x="1132" d="M221 178q0 -27 23 -41t51 -14q78 0 116 61t38 146q-228 -53 -228 -152zM283 481q-66 0 -146 -41l-65 135q98 59 229 59t234 -89q102 90 219 90t198 -64q43 -35 111 -139l-324 -209l-63 105l174 112q-37 31 -97 31q-61 0 -101 -46q-40 -45 -40 -111t44 -116t110 -50 t111 35q45 36 55 98l172 -19q-33 -129 -122 -203q-88 -73 -230 -73t-244 120q-96 -121 -250 -120q-92 0 -151 46t-60 138q0 188 363 268q-61 43 -127 43z" />
<glyph unicode="&#xe7;" horiz-adv-x="495" d="M258 -217q70 0 70 57q0 18 -16 30t-36 13q-20 0 -57 -12l-26 27l71 110q-106 20 -166 100t-59 212q0 132 80 217q82 81 225 81h113v-161h-109q-68 0 -108 -41t-39 -107q0 -65 40 -105t107 -40h109v-164h-129l-47 -68q75 20 115 -14q40 -33 40 -84t-49 -83t-109 -32 t-139 35l23 51l47 -12q27 -10 49 -10z" />
<glyph unicode="&#xe8;" d="M31 309q0 139 87 233t214 93q127 0 209 -57q68 -43 104 -127l-315 -236l-78 104l162 123q-27 29 -83 29q-57 0 -97 -46q-40 -45 -40 -111t45 -116q44 -50 109 -50t111 35q45 37 55 98l164 -19q-27 -129 -114 -203q-87 -73 -223 -73t-223 92t-87 231zM326 709l-189 182 h197l119 -182h-127z" />
<glyph unicode="&#xe9;" d="M31 309q0 139 87 233t214 93q127 0 209 -57q68 -43 104 -127l-315 -236l-78 104l162 123q-27 29 -83 29q-57 0 -97 -46q-40 -45 -40 -111t45 -116q44 -50 109 -50t111 35q45 37 55 98l164 -19q-27 -129 -114 -203q-87 -73 -223 -73t-223 92t-87 231zM242 709l116 182h197 l-188 -182h-125z" />
<glyph unicode="&#xea;" d="M31 309q0 139 87 233t214 93q127 0 209 -57q68 -43 104 -127l-315 -236l-78 104l162 123q-27 29 -83 29q-57 0 -97 -46q-40 -45 -40 -111t45 -116q44 -50 109 -50t111 35q45 37 55 98l164 -19q-27 -129 -114 -203q-87 -73 -223 -73t-223 92t-87 231zM426 891l145 -182 h-143l-80 104l-82 -104h-145l147 182h158z" />
<glyph unicode="&#xeb;" d="M31 309q0 139 87 233t214 93q127 0 209 -57q68 -43 104 -127l-315 -236l-78 104l162 123q-27 29 -83 29q-57 0 -97 -46q-40 -45 -40 -111t45 -116q44 -50 109 -50t111 35q45 37 55 98l164 -19q-27 -129 -114 -203q-87 -73 -223 -73t-223 92t-87 231zM471 881q39 0 65 -26 q26 -27 26 -63t-26 -63t-64 -27t-64 27t-25 64t25 63t63 25zM221 881q39 0 65 -26q26 -27 26 -63t-26 -63t-64 -27t-64 27t-25 64t25 63t63 25z" />
<glyph unicode="&#xec;" horiz-adv-x="282" d="M223 618v-618h-164v618h164zM121 709l-189 182h197l119 -182h-127z" />
<glyph unicode="&#xed;" horiz-adv-x="282" d="M223 618v-618h-164v618h164zM35 709l119 182h196l-188 -182h-127z" />
<glyph unicode="&#xee;" horiz-adv-x="282" d="M223 618v-618h-164v618h164zM221 891l146 -182h-144l-80 104l-82 -104h-145l145 182h160z" />
<glyph unicode="&#xef;" horiz-adv-x="282" d="M223 618v-618h-164v618h164zM266 881q39 0 65 -26q25 -27 25 -63t-26 -63t-64 -27t-64 27t-26 64t26 63t64 25zM16 881q39 0 65 -26q25 -27 25 -63t-26 -63t-63 -27t-63 27t-26 64t24 63t64 25z" />
<glyph unicode="&#xf0;" d="M356 -14q-140 0 -228 92q-87 92 -87 229t81 227t261 91q49 -96 70 -187q-39 33 -104 33t-105 -42t-39 -119q0 -77 40 -120q41 -43 111 -43q70 -1 110 51t40 150q0 193 -123 348l-102 -51l-43 82l81 39q-24 22 -51 45l131 80q31 -23 62 -53l112 53l43 -80l-94 -47 q145 -188 146 -416q0 -168 -86 -265t-226 -97z" />
<glyph unicode="&#xf1;" horiz-adv-x="636" d="M225 373v-373h-164v428q0 98 71 152q70 54 186 55q116 0 187 -54t70 -153v-428h-163v373q0 98 -94 98t-93 -98zM410 723q-25 0 -97 22q-66 25 -90 25q-43 0 -57 -53h-80q6 57 43 108q43 49 102 49q25 0 99 -24q61 -25 80 -25q47 1 59 54h82q-10 -68 -45 -112t-96 -44z " />
<glyph unicode="&#xf2;" d="M354 471q-70 0 -110 -42t-39 -119q0 -77 40 -120q39 -43 109 -43t110 43t40 120t-40 119t-110 42zM354 635q138 0 226 -93q88 -92 88 -232t-87 -232t-227 -92t-226 92q-87 92 -87 231t87 233t226 93zM334 709l-189 182h197l119 -182h-127z" />
<glyph unicode="&#xf3;" d="M354 471q-70 0 -110 -42t-39 -119q0 -77 40 -120q39 -43 109 -43t110 43t40 120t-40 119t-110 42zM354 635q138 0 226 -93q88 -92 88 -232t-87 -232t-227 -92t-226 92q-87 92 -87 231t87 233t226 93zM248 709l119 182h196l-188 -182h-127z" />
<glyph unicode="&#xf4;" d="M354 471q-70 0 -110 -42t-39 -119q0 -77 40 -120q39 -43 109 -43t110 43t40 120t-40 119t-110 42zM354 635q138 0 226 -93q88 -92 88 -232t-87 -232t-227 -92t-226 92q-87 92 -87 231t87 233t226 93zM434 891l146 -182h-144l-80 104l-82 -104h-145l145 182h160z" />
<glyph unicode="&#xf5;" d="M354 471q-70 0 -110 -42t-39 -119q0 -77 40 -120q39 -43 109 -43t110 43t40 120t-40 119t-110 42zM354 635q138 0 226 -93q88 -92 88 -232t-87 -232t-227 -92t-226 92q-87 92 -87 231t87 233t226 93zM446 723q-23 0 -98 22q-66 25 -90 25q-43 0 -55 -53h-82q10 65 49 111 t98 46q25 0 99 -24q57 -25 77 -25q52 1 60 54h84q-10 -66 -46 -111t-96 -45z" />
<glyph unicode="&#xf6;" d="M354 471q-70 0 -110 -42t-39 -119q0 -77 40 -120q39 -43 109 -43t110 43t40 120t-40 119t-110 42zM354 635q138 0 226 -93q88 -92 88 -232t-87 -232t-227 -92t-226 92q-87 92 -87 231t87 233t226 93zM479 881q39 0 64 -26q25 -27 25 -63t-26 -63t-64 -27t-64 27t-25 64 q-1 37 25 63t65 25zM229 881q39 0 65 -26q26 -27 26 -63t-26 -63t-65 -27t-65 27t-25 64q-1 37 25 63t65 25z" />
<glyph unicode="&#xf7;" horiz-adv-x="763" d="M274 55q0 45 32 77t77 32t77 -32t32 -77t-32 -77t-77 -32t-77 32t-32 77zM690 379v-137h-616v137h616zM274 563q0 45 32 77t77 32t77 -32t32 -77t-32 -77t-77 -32t-77 32t-32 77z" />
<glyph unicode="&#xf8;" d="M487 391l-192 -231q25 -12 77 -12t92 42t40 106t-17 95zM354 471q-70 0 -110 -42q-40 -41 -39 -105q0 -64 14 -93l191 230q-25 10 -56 10zM711 657v-6l-115 -131q72 -84 72 -217t-87 -225t-227 -92q-98 0 -168 45l-53 -64h-135v4l111 129q-68 90 -68 219t87 223t226 93 q92 0 164 -43l53 65h140z" />
<glyph unicode="&#xf9;" horiz-adv-x="636" d="M61 190v428h164v-370q0 -100 94 -101q92 0 93 101v370h163v-428q0 -100 -71 -151q-66 -53 -186 -53t-185 53q-72 51 -72 151zM299 709l-190 182h196l119 -182h-125z" />
<glyph unicode="&#xfa;" horiz-adv-x="636" d="M61 190v428h164v-370q0 -100 94 -101q92 0 93 101v370h163v-428q0 -100 -71 -151q-66 -53 -186 -53t-185 53q-72 51 -72 151zM213 709l119 182h196l-190 -182h-125z" />
<glyph unicode="&#xfb;" horiz-adv-x="636" d="M61 190v428h164v-370q0 -100 94 -101q92 0 93 101v370h163v-428q0 -100 -71 -151q-66 -53 -186 -53t-185 53q-72 51 -72 151zM399 891l146 -182h-146l-80 104l-81 -104h-146l148 182h159z" />
<glyph unicode="&#xfc;" horiz-adv-x="636" d="M61 190v428h164v-370q0 -100 94 -101q92 0 93 101v370h163v-428q0 -100 -71 -151q-66 -53 -186 -53t-185 53q-72 51 -72 151zM354 793q0 37 26 63t63 25q38 0 64 -26q25 -27 25 -63t-26 -63t-63 -27t-63 27t-26 64zM104 793q0 37 26 63t64 25q38 0 64 -26q26 -27 25 -63 q0 -36 -26 -63q-25 -27 -63 -27t-64 27t-26 64z" />
<glyph unicode="&#xfd;" horiz-adv-x="636" d="M59 223v395h164v-360q0 -111 95 -111t96 111v360h164v-395q0 -88 -44 -148t-131 -79v-258h-170v258q-82 16 -128 78t-46 149zM213 709l119 182h196l-190 -182h-125z" />
<glyph unicode="&#xfe;" d="M221 309v-583h-162v1165h162v-293q66 37 144 37q131 0 217 -94q86 -95 86 -229t-83 -230t-212 -96q-37 0 -99 16v172q45 -18 97 -18t93 43q40 43 40 111t-39 110q-39 43 -101 43t-103 -42q-40 -42 -40 -112z" />
<glyph unicode="&#xff;" horiz-adv-x="636" d="M59 223v395h164v-360q0 -111 95 -111t96 111v360h164v-395q0 -88 -44 -148t-131 -79v-258h-170v258q-82 16 -128 78t-46 149zM354 793q0 37 26 63t63 25q38 0 64 -26q25 -27 25 -63t-26 -63t-63 -27t-63 27t-26 64zM104 793q0 37 26 63t64 25q38 0 64 -26q26 -27 25 -63 q0 -36 -26 -63q-25 -27 -63 -27t-64 27t-26 64z" />
<glyph unicode="&#x131;" horiz-adv-x="282" d="M223 618v-618h-164v618h164z" />
<glyph unicode="&#x152;" horiz-adv-x="1273" d="M463 723q-104 0 -178 -78q-74 -84 -74 -201q0 -116 74 -196t179 -80t175 80q74 78 74 198t-73 198q-73 79 -177 79zM1235 891v-178h-115q-102 1 -156 -53t-73 -132h344v-166h-344q18 -76 74 -130t155 -54h115v-178h-76q-113 0 -197 34t-161 124q-141 -172 -329 -172 t-316 133q-133 133 -133 327t131 328q130 133 318 133t329 -174q70 88 155 123t203 35h76z" />
<glyph unicode="&#x153;" horiz-adv-x="1202" d="M350 471q-70 0 -110 -42t-39 -119q0 -77 40 -120q39 -43 109 -43t110 43t40 120t-40 119t-110 42zM343 -14q-132 0 -219 92t-87 231t87 233t228 93q141 0 234 -98q63 55 113 77t142 21q92 0 177 -64q45 -35 112 -139l-319 -203l-74 103l178 114q-33 33 -95 33t-104 -50 q-42 -51 -42 -115t46 -115t112 -51t110 34q45 36 55 97l168 -15q-25 -125 -114 -203q-96 -75 -236 -75t-225 98q-115 -98 -247 -98z" />
<glyph unicode="&#x160;" horiz-adv-x="636" d="M264 891h297v-164h-254q-66 0 -65 -68q0 -33 110 -109t152 -114q90 -90 90 -166q0 -115 -51 -180q-66 -90 -201 -90h-297v178h293q57 0 57 64q0 35 -90 100q-12 8 -41 28t-45 29q-104 70 -149 154q-27 45 -27 102q-1 117 67 177t154 59zM246 946l-146 182h144l82 -104 l80 104h145l-145 -182h-160z" />
<glyph unicode="&#x161;" horiz-adv-x="495" d="M258 0h-229v154h211q45 0 45 32t-64 66l-61 33q-70 35 -98 76t-27 75q0 94 55 138t148 44h194v-151h-188q-39 0 -39 -29q1 -20 79 -58t115 -67q68 -55 68 -135t-61 -129q-56 -49 -148 -49zM168 709l-145 182h143l82 -105l80 105h145l-145 -182h-160z" />
<glyph unicode="&#x178;" d="M63 565v326h189v-262q0 -131 102 -131t103 131v262h188v-326q0 -77 -48 -143t-148 -96v-326h-189v326q-102 33 -150 98t-47 141zM486 1118q38 0 64 -26t26 -63t-26 -63t-64 -26t-64 26t-25 64q-1 38 25 62q26 26 64 26zM238 1118q40 0 64 -26t24 -63t-25 -63t-63 -26 t-65 26q-26 26 -26 64t26 62q26 26 65 26z" />
<glyph unicode="&#x17d;" horiz-adv-x="636" d="M610 178v-178h-493q-41 0 -72 31q-29 33 -29 61q0 66 29 115l313 506h-299v178h428q41 0 73 -32t32 -75t-43 -116l-297 -490h358zM246 946l-146 182h144l82 -104l80 104h145l-145 -182h-160z" />
<glyph unicode="&#x17e;" horiz-adv-x="565" d="M53 461v157h355q61 0 91 -24t29 -59q0 -72 -49 -129l-225 -248h274v-158h-399q-53 0 -84 28t-31 72t39 86l256 275h-256zM203 709l-146 182h144l80 -105l81 105h146l-146 -182h-159z" />
<glyph unicode="&#x192;" d="M113 387v156h178q12 154 57 237q61 111 203 111q68 0 145 -31l-28 -162q-55 23 -98 23q-86 0 -101 -178h180v-156h-192l-43 -377q-18 -120 -81 -202t-155 -82t-166 30l27 162q45 -23 84 -22q66 0 94 63q8 20 25 121l32 307h-161z" />
<glyph unicode="&#x3bc;" horiz-adv-x="636" d="M225 -274h-164v892h164v-370q0 -100 94 -101q92 0 93 101v370h163v-428q0 -100 -71 -151q-66 -53 -185 -53q-61 0 -94 10v-270z" />
<glyph unicode="&#x60c;" horiz-adv-x="413" d="M196 0q-56 0 -83 51t6 141t131 177l61 -54q-104 -109 -47 -176q35 -39 11 -89q-23 -50 -79 -50z" />
<glyph unicode="&#x61b;" horiz-adv-x="413" d="M291 93q0 -37 -28 -65q-29 -28 -67 -28t-66 28t-28 65q0 38 28 66q28 27 67 27t67 -28t27 -65zM199 328q-57 0 -84 52t5 141t132 175l59 -53q-100 -109 -47 -176q36 -39 14 -89t-79 -50z" />
<glyph unicode="&#x61f;" horiz-adv-x="636" d="M323 207q45 0 75 -31t30 -76q0 -44 -30 -74t-76 -30t-75 30q-30 30 -30 74t30 76q30 31 76 31zM229 260v113q-86 8 -146 80t-60 159q1 133 81 214t202 81q122 -1 199 -65t101 -162l-172 -43q-35 94 -110 94q-51 0 -81 -29q-30 -28 -30 -78t37 -78t156 -28v-258h-177z" />
<glyph unicode="&#x621;" horiz-adv-x="729" d="M201 277q0 81 69.5 150t177 69t199.5 -93l-92 -124q-41 68 -121 67q-86 0 -88 -98q2 -96 139 -109h154v-139h-557v139h156q-37 57 -37 138z" />
<glyph unicode="&#x622;" horiz-adv-x="342" d="M82 0v907h178v-907h-178zM86 1042q-41 0 -96 -79l-74 47q78 121 178 120q37 0 90.5 -45t81.5 -45q53 0 119 109l72 -47q-41 -66 -81 -101t-116 -43q-47 0 -100.5 42t-73.5 42z" />
<glyph unicode="&#x623;" horiz-adv-x="342" d="M82 0v907h178v-907h-178zM219 1382q100 0 166 -71l-70 -94q-20 31 -57 45t-68.5 -2.5t-33.5 -65.5q2 -72 106 -84h117v-106h-424v106h119q-59 92 -7 182t152 90z" />
<glyph unicode="&#x624;" horiz-adv-x="851" d="M427 489q-71 0 -113 -45t-42 -117.5t56.5 -111.5t124 -36t125.5 9q8 53 7 120t-44 124t-114 57zM82 338q0 135 88 232.5t250 97.5q96 0 166.5 -34t106.5 -88t57.5 -120t19.5 -129.5t-8 -118.5q-41 -256 -266 -508l-148 119q111 111 172 223q-174 -35 -306 54.5 t-132 271.5zM346 1137q100 0 166 -72l-70 -94q-20 31 -57 45t-68.5 -2.5t-33.5 -65.5q2 -72 106 -84h117v-106h-424v106h119q-59 92 -7 182.5t152 90.5z" />
<glyph unicode="&#x625;" horiz-adv-x="342" d="M219 -102q100 0 166 -72l-70 -94q-20 31 -57 45t-68.5 -2.5t-33.5 -65.5q2 -72 106 -84h117v-106h-424v106h119q-59 92 -7 182.5t152 90.5zM82 0v907h178v-907h-178z" />
<glyph unicode="&#x626;" horiz-adv-x="1310" d="M408 485q-61 0 -104.5 -46t-43.5 -107.5t43 -107.5t105 -46h335v217q0 104 78 182t183 78h225v-655h-178v479h-47q-33 0 -58.5 -24.5t-25.5 -59.5v-395h-512q-139 0 -232.5 97.5t-93.5 238.5t91 233.5t235 92.5v-177zM346 1137q100 0 166 -72l-70 -94q-20 31 -57 45 t-68.5 -2.5t-33.5 -65.5q2 -72 106 -84h117v-106h-424v106h119q-59 92 -7 182.5t152 90.5z" />
<glyph unicode="&#x627;" horiz-adv-x="342" d="M260 0h-178v907h178v-907z" />
<glyph unicode="&#x628;" horiz-adv-x="1308" d="M732 -100q36 0 62.5 -26t26.5 -61.5t-26.5 -62t-62.5 -26.5t-61.5 26.5t-25.5 62.5t25.5 61.5t61.5 25.5zM408 485q-63 0 -105.5 -45t-42.5 -108.5t41 -108.5t107 -45h643v477h176v-655h-819q-143 0 -234.5 97.5t-91.5 238.5t92 233.5t234 92.5v-177z" />
<glyph unicode="&#x629;" horiz-adv-x="880" d="M438.5 526q-69.5 0 -116 -51t-46.5 -116.5t46.5 -114.5t118 -49t120.5 48t49 115.5t-51 117.5t-120.5 50zM446 719q143 0 248 -105.5t105 -248.5v-9q0 -147 -106.5 -251.5t-253 -104.5t-252 105.5t-105.5 249.5t107.5 254t248.5 110h8zM540 934q36 0 62.5 -25.5 t26.5 -61.5t-27 -62.5t-62.5 -26.5t-61 26.5t-25.5 62.5t25.5 61.5t61.5 25.5zM323 934q36 0 62.5 -25.5t26.5 -61.5t-27 -62.5t-62.5 -26.5t-61 26.5t-25.5 62.5t25.5 61.5t61.5 25.5z" />
<glyph unicode="&#x62a;" horiz-adv-x="1308" d="M833 662q36 0 62.5 -26t26.5 -62t-27 -62.5t-62.5 -26.5t-61.5 27t-26 62.5t26 61.5t62 26zM615 662q36 0 63 -26t27 -62t-27 -62.5t-63 -26.5t-61.5 27t-25.5 62.5t25.5 61.5t61.5 26zM408 485q-63 0 -105.5 -45t-42.5 -108.5t41 -108.5t107 -45h643v477h176v-655h-819 q-143 0 -234.5 97.5t-91.5 238.5t92 233.5t234 92.5v-177z" />
<glyph unicode="&#x62b;" horiz-adv-x="1308" d="M837 662q36 0 62.5 -26t26.5 -62t-27 -62.5t-62.5 -26.5t-61 27t-25.5 62.5t25.5 61.5t61.5 26zM620 662q36 0 62.5 -26t26.5 -62t-27 -62.5t-62.5 -26.5t-61.5 27t-26 62.5t26 61.5t62 26zM408 485q-63 0 -105.5 -45t-42.5 -108.5t41 -108.5t107 -45h643v477h176v-655 h-819q-143 0 -234.5 97.5t-91.5 238.5t92 233.5t234 92.5v-177zM728 838q36 0 62.5 -26t26.5 -61.5t-26.5 -62t-62.5 -26.5t-61.5 26.5t-25.5 62.5t25.5 61.5t61.5 25.5z" />
<glyph unicode="&#x62c;" horiz-adv-x="1093" d="M548 -100q36 0 62.5 -26t26.5 -61.5t-26.5 -62t-62.5 -26.5t-61.5 26.5t-25.5 62.5t25.5 61.5t61.5 25.5zM475 0q-213 0 -213 -142q0 -133 113 -165h-260q-33 80 -33 178q0 152 97 229.5t261 77.5h383q-8 145 -112 258q-86 86 -193.5 86t-208.5 -73l-104 141 q145 109 319 108.5t320 -146t162 -374.5q6 -66 6 -178h-537z" />
<glyph unicode="&#x62d;" horiz-adv-x="1093" d="M475 0q-213 0 -213 -142q0 -133 113 -165h-260q-33 80 -33 178q0 152 97 229.5t261 77.5h383q-8 145 -112 258q-86 86 -193.5 86t-208.5 -73l-104 141q145 109 319 108.5t320 -146t162 -374.5q6 -66 6 -178h-537z" />
<glyph unicode="&#x62e;" horiz-adv-x="1093" d="M475 0q-213 0 -213 -142q0 -133 113 -165h-260q-33 80 -33 178q0 152 97 229.5t261 77.5h383q-8 145 -112 258q-86 86 -193.5 86t-208.5 -73l-104 141q145 109 319 108.5t320 -146t162 -374.5q6 -66 6 -178h-537zM531 934q36 0 63 -25.5t27 -61.5t-27 -62.5t-63 -26.5 t-61.5 26.5t-25.5 62.5t25.5 61.5t61.5 25.5z" />
<glyph unicode="&#x62f;" horiz-adv-x="872" d="M324 674q209 0 340 -170t127 -504h-709v176h520q-12 162 -94 240t-207 78q-82 0 -176 -33v176q102 37 199 37z" />
<glyph unicode="&#x630;" horiz-adv-x="872" d="M324 674q209 0 340 -170t127 -504h-709v176h520q-12 162 -94 240t-207 78q-82 0 -176 -33v176q102 37 199 37zM292 934q36 0 62.5 -25.5t26.5 -61.5t-26.5 -62.5t-62.5 -26.5t-61.5 26.5t-25.5 62.5t25.5 61.5t61.5 25.5z" />
<glyph unicode="&#x631;" horiz-adv-x="491" d="M410 305q0 -377 -263 -635l-147 113q223 258 223 534q0 172 -86 338h205q68 -168 68 -350z" />
<glyph unicode="&#x632;" horiz-adv-x="491" d="M410 305q0 -377 -263 -635l-147 113q223 258 223 534q0 172 -86 338h205q68 -168 68 -350zM189 934q36 0 63 -25.5t27 -61.5t-27 -62.5t-63 -26.5t-61.5 26.5t-25.5 62.5t25.5 61.5t61.5 25.5z" />
<glyph unicode="&#x633;" horiz-adv-x="1718" d="M1636 246q0 -111 -83 -194t-188 -83t-194 76q-76 -76 -188 -76q-55 0 -102 21q-29 -143 -140.5 -238.5t-276.5 -95.5t-273.5 121t-108.5 284q0 115 58.5 215.5t174.5 157.5l91 -158q-143 -74 -144 -223q0 -88 60.5 -151.5t158.5 -63.5t164 66.5t66 158.5v584h178v-389 q0 -45 26.5 -72.5t69.5 -27.5t70.5 27.5t27.5 72.5v389h177v-389q0 -41 29.5 -70.5t71.5 -29.5t70.5 28.5t28.5 71.5v389h176v-401z" />
<glyph unicode="&#x634;" horiz-adv-x="1718" d="M1636 246q0 -111 -83 -194t-188 -83t-194 76q-76 -76 -188 -76q-55 0 -102 21q-29 -143 -140.5 -238.5t-276.5 -95.5t-273.5 121t-108.5 284q0 115 58.5 215.5t174.5 157.5l91 -158q-143 -74 -144 -223q0 -88 60.5 -151.5t158.5 -63.5t164 66.5t66 158.5v584h178v-389 q0 -45 26.5 -72.5t69.5 -27.5t70.5 27.5t27.5 72.5v389h177v-389q0 -41 29.5 -70.5t71.5 -29.5t70.5 28.5t28.5 71.5v389h176v-401zM1281 934q36 0 62.5 -25.5t26.5 -61.5t-26.5 -62.5t-62.5 -26.5t-61.5 26.5t-25.5 62.5t25.5 61.5t61.5 25.5zM1064 934q36 0 62.5 -25.5 t26.5 -61.5t-26.5 -62.5t-62.5 -26.5t-61.5 26.5t-25.5 62.5t25.5 61.5t61.5 25.5zM1173 1110q36 0 62.5 -25.5t26.5 -61.5t-27 -62.5t-62.5 -26.5t-61.5 26.5t-26 62.5t26 61.5t62 25.5z" />
<glyph unicode="&#x635;" horiz-adv-x="1861" d="M1591 178q0 131 -94 225.5t-223 94.5t-221 -95.5t-92 -224.5h630zM403 283q-143 -72 -143 -233q0 -79 60.5 -141.5t158.5 -62.5t165 65.5t67 158.5v585h170v-188q152 205 397 205q109 0 196 -34t140 -90q120 -127 150 -291t10 -257h-893v-2q-29 -143 -142.5 -238.5 t-276.5 -95.5t-271.5 121t-108.5 285q0 115 58.5 215t174.5 157z" />
<glyph unicode="&#x636;" horiz-adv-x="1861" d="M1591 178q0 131 -94 225.5t-223 94.5t-221 -95.5t-92 -224.5h630zM403 283q-143 -72 -143 -233q0 -79 60.5 -141.5t158.5 -62.5t165 65.5t67 158.5v585h170v-188q152 205 397 205q109 0 196 -34t140 -90q120 -127 150 -291t10 -257h-893v-2q-29 -143 -142.5 -238.5 t-276.5 -95.5t-271.5 121t-108.5 285q0 115 58.5 215t174.5 157zM1291 934q36 0 62.5 -25.5t26.5 -61.5t-26.5 -62.5t-62.5 -26.5t-61.5 26.5t-25.5 62.5t25.5 61.5t61.5 25.5z" />
<glyph unicode="&#x637;" horiz-adv-x="1374" d="M1102 178q0 129 -95.5 223.5t-224.5 94.5t-220 -94.5t-91 -223.5h631zM782 672q111 0 200 -35q90 -35 144 -91q123 -126 146 -274q32 -197 12 -272h-1202v178h205v729h178v-352q127 117 317 117z" />
<glyph unicode="&#x638;" horiz-adv-x="1374" d="M1102 178q0 129 -95.5 223.5t-224.5 94.5t-220 -94.5t-91 -223.5h631zM782 672q111 0 200 -35q90 -35 144 -91q123 -126 146 -274q32 -197 12 -272h-1202v178h205v729h178v-352q127 117 317 117zM794 934q36 0 62.5 -25.5t26.5 -61.5t-27 -62.5t-62.5 -26.5t-61 26.5 t-25.5 62.5t25.5 61.5t61.5 25.5z" />
<glyph unicode="&#x639;" horiz-adv-x="1007" d="M82 -137q0 135 72 209q42 48 114 76q20 8 74 24q-55 90 -42 203.5t101 191.5q119 100 256.5 94t245.5 -112l-106 -148q-76 90 -152 90.5t-118 -46t-40 -108t45 -104.5q49 -55 146 -55h248v-178h-453q-207 0 -207 -154q0 -123 113 -151h-260q-37 78 -37 168z" />
<glyph unicode="&#x63a;" horiz-adv-x="1007" d="M82 -137q0 135 72 209q42 48 114 76q20 8 74 24q-55 90 -42 203.5t101 191.5q119 100 256.5 94t245.5 -112l-106 -148q-76 90 -152 90.5t-118 -46t-40 -108t45 -104.5q49 -55 146 -55h248v-178h-453q-207 0 -207 -154q0 -123 113 -151h-260q-37 78 -37 168zM640 934 q36 0 62.5 -25.5t26.5 -61.5t-26.5 -62.5t-62.5 -26.5t-61.5 26.5t-25.5 62.5t25.5 61.5t61.5 25.5z" />
<glyph unicode="&#x640;" horiz-adv-x="274" d="M274 0h-294v178h294v-178z" />
<glyph unicode="&#x641;" horiz-adv-x="1470" d="M1054.5 489q-59.5 0 -100.5 -49t-41 -110t40 -106.5t101.5 -45.5t102.5 45t41 106.5t-42 110.5t-101.5 49zM723 334q0 133 94 230.5t237.5 97.5t239 -97.5t95.5 -230.5q0 -80 -39 -156q-102 -178 -297 -178h-645q-139 0 -232.5 97.5t-93.5 238.5t92 233.5t234 92.5v-179 q-66 0 -107 -44t-41 -107.5t41 -108.5t107 -45h352q-37 72 -37 156zM1056 934q36 0 62.5 -25.5t26.5 -61.5t-26.5 -62.5t-62.5 -26.5t-61.5 26.5t-25.5 62.5t25.5 61.5t61.5 25.5z" />
<glyph unicode="&#x642;" horiz-adv-x="1470" d="M1054.5 489q-59.5 0 -100.5 -49t-41 -110t40 -106.5t101.5 -45.5t102.5 45t41 106.5t-42 110.5t-101.5 49zM723 334q0 133 94 230.5t237.5 97.5t239 -97.5t95.5 -230.5q0 -80 -39 -156q-102 -178 -297 -178h-645q-139 0 -232.5 97.5t-93.5 238.5t92 233.5t234 92.5v-179 q-66 0 -107 -44t-41 -107.5t41 -108.5t107 -45h352q-37 72 -37 156zM1164 934q36 0 62.5 -25.5t26.5 -61.5t-26.5 -62.5t-62.5 -26.5t-61.5 26.5t-25.5 62.5t25.5 61.5t61.5 25.5zM947 934q36 0 62.5 -25.5t26.5 -61.5t-26.5 -62.5t-62.5 -26.5t-61.5 26.5t-25.5 62.5 t25.5 61.5t61.5 25.5z" />
<glyph unicode="&#x643;" horiz-adv-x="1308" d="M768 860q100 0 166 -72l-70 -94q-20 31 -57 45.5t-68.5 -2t-33.5 -65.5q2 -72 106 -84h117v-107h-424v107h119q-59 92 -7 182t152 90zM1227 0h-821q-141 0 -232.5 96.5t-91.5 238.5t91 233t233 91v-176q-66 0 -107 -45t-41 -108.5t42 -107.5t106 -44h645v729h176v-907z " />
<glyph unicode="&#x644;" horiz-adv-x="976" d="M895 76q0 -168 -118 -287t-286 -119t-288.5 117t-120.5 285q0 121 64.5 221t177.5 156l88 -160q-55 -41 -80 -62.5t-46.5 -62.5t-21.5 -92q0 -90 67.5 -158t158.5 -68t160 67t69 159v843h176v-839z" />
<glyph unicode="&#x645;" horiz-adv-x="1028" d="M618.5 489q-63.5 0 -106.5 -47t-43 -110t44 -109.5t104 -46.5t105.5 48t45.5 108.5t-43 108.5t-106.5 48zM82 94q0 223 158.5 397.5t377.5 174.5q139 0 233.5 -103.5t94.5 -234.5q0 -88 -41 -152q-31 -61 -109.5 -118.5t-187.5 -57.5t-194.5 70.5t-112.5 187.5 q-35 -104 -35 -170q0 -158 129 -326h-215q-98 166 -98 332z" />
<glyph unicode="&#x646;" horiz-adv-x="1062" d="M541 -203h-15q-203 4 -323.5 139.5t-120.5 313.5q0 127 67.5 235.5t198.5 169.5l66 -147q-70 -25 -114 -99.5t-44 -170.5t66.5 -169t203.5 -85q115 4 193 76.5t78 187.5v407h184v-428q-8 -174 -137 -302t-303 -128zM599 688q36 0 62.5 -25.5t26.5 -61.5t-26.5 -62.5 t-62.5 -26.5t-61.5 26.5t-25.5 62.5t25.5 61.5t61.5 25.5z" />
<glyph unicode="&#x647;" horiz-adv-x="880" d="M438.5 526q-69.5 0 -116 -51t-46.5 -116.5t46.5 -114.5t118 -49t120.5 48t49 115.5t-51 117.5t-120.5 50zM446 719q143 0 248 -105.5t105 -248.5v-9q0 -147 -106.5 -251.5t-252.5 -104.5t-252 105.5t-106 249.5t107.5 254t248.5 110h8z" />
<glyph unicode="&#x648;" horiz-adv-x="851" d="M427 489q-71 0 -113 -45t-42 -117.5t56.5 -111.5t124 -36t125.5 9q8 53 7 120t-44 124t-114 57zM82 338q0 135 88 232.5t250 97.5q96 0 166.5 -34t106.5 -88t57.5 -120t19.5 -129.5t-8 -118.5q-41 -256 -266 -508l-148 119q111 111 172 223q-174 -35 -306 54.5 t-132 271.5z" />
<glyph unicode="&#x649;" horiz-adv-x="1310" d="M408 485q-61 0 -104.5 -46t-43.5 -107.5t43 -107.5t105 -46h335v217q0 104 78 182t183 78h225v-655h-178v479h-47q-33 0 -58.5 -24.5t-25.5 -59.5v-395h-512q-139 0 -232.5 97.5t-93.5 238.5t91 233.5t235 92.5v-177z" />
<glyph unicode="&#x64a;" horiz-adv-x="1310" d="M824 -100q36 0 62.5 -26t26.5 -61.5t-26.5 -62t-62.5 -26.5t-61.5 26.5t-25.5 62.5t25.5 61.5t61.5 25.5zM607 -100q36 0 62.5 -26t26.5 -61.5t-26.5 -62t-62.5 -26.5t-61.5 26.5t-25.5 62.5t25.5 61.5t61.5 25.5zM408 485q-61 0 -104.5 -46t-43.5 -107.5t43 -107.5 t105 -46h335v217q0 104 78 182t183 78h225v-655h-178v479h-47q-33 0 -58.5 -24.5t-25.5 -59.5v-395h-512q-139 0 -232.5 97.5t-93.5 238.5t91 233.5t235 92.5v-177z" />
<glyph unicode="&#x64b;" horiz-adv-x="0" d="M195 176l-359 -176l-29 59l357 174zM195 350l-355 -174l-33 60l359 174z" />
<glyph unicode="&#x64c;" horiz-adv-x="0" d="M-1 367q-36 0 -63.5 -27t-27.5 -63.5t26.5 -63.5t63.5 -27t63.5 27t26.5 63.5t-26.5 63.5t-62.5 27zM-156 272q0 66 45 111t111 45t111 -46t45 -103.5t-29 -96.5t-76 -55v-2l-254 -125l-96 193l57 28l68 -133l98 49q-80 43 -80 135z" />
<glyph unicode="&#x64d;" horiz-adv-x="0" d="M195 -236l-359 -174l-29 60l357 174zM195 -59l-355 -177l-33 60l359 176z" />
<glyph unicode="&#x64e;" horiz-adv-x="0" d="M195 176l-359 -176l-29 59l357 174z" />
<glyph unicode="&#x64f;" horiz-adv-x="0" d="M-1 346q-36 0 -63.5 -26.5t-27.5 -63.5t26.5 -63.5t63.5 -26.5t63.5 26.5t26.5 63.5t-26.5 63.5t-62.5 26.5zM-156 252q0 66 45 111t111 45t111 -46.5t45 -103.5t-29 -96t-76 -56v-2l-211 -104l-33 59l117 58q-80 43 -80 135z" />
<glyph unicode="&#x650;" horiz-adv-x="0" d="M195 -59l-355 -177l-33 60l359 176z" />
<glyph unicode="&#x651;" horiz-adv-x="0" d="M199 389v-47q-1 -136 -45 -200q-23 -32 -69 -32.5t-81 52.5q-31 -100 -99 -100q-69 0 -97 78q-10 29 -12.5 72.5t-1.5 53.5t1 21v8h64q-10 -170 43 -170q68 0 63 217h64q-4 -170 63 -170q49 0 43 217h64z" />
<glyph unicode="&#x652;" horiz-adv-x="0" d="M-1 311q-36 0 -63.5 -26.5t-27.5 -63.5t26.5 -63.5t63.5 -26.5t63.5 26.5t26.5 63.5t-26.5 63.5t-62.5 26.5zM0 373q66 0 111 -45t45 -110.5t-45 -111t-111 -45.5t-111 45.5t-45 111t45 110.5t111 45z" />
<glyph unicode="&#x660;" d="M475 281v331q0 117 -121 117t-121 -117v-331q0 -117 121 -117t121 117zM45 281v331q0 127 84 211t225 84q142 0 226 -84t84 -211v-331q0 -127 -84 -211t-226 -84t-225 84q-84 84 -84 211z" />
<glyph unicode="&#x661;" d="M270 721h-137v170h320v-891h-183v721z" />
<glyph unicode="&#x662;" d="M172 0q-137 0 -137 106q0 43 19 72t106 119l186 182q53 55 78 90t25 71t-30 64t-79 27q-49 0 -78 -29q-29 -28 -29 -68t22 -73t54 -39l-129 -129q-129 70 -129 240q0 117 86 196q78 78 203 78t209 -80t84 -178q-1 -99 -29 -151t-110 -129l-205 -193h370v-176h-487z" />
<glyph unicode="&#x663;" d="M322 0h-283v184h270q127 0 127 106t-127 105h-174v115l260 209v2h-342v170h373q86 0 131 -39q45 -40 45 -102t-67 -123q-31 -29 -62 -47q-18 -14 -59 -50q98 -16 165 -87t66 -169q0 -139 -94 -213q-82 -61 -229 -61z" />
<glyph unicode="&#x664;" d="M406 358v250l165 283q7 12 9 12t2 -12v-533h84v-170h-84v-188h-176v188h-267q-51 0 -88 34t-37 88t49 139l265 442h186l-324 -533h216z" />
<glyph unicode="&#x665;" d="M82 891h500v-170h-318v-143h113q106 0 190 -77t84 -211t-90 -218q-82 -72 -184 -72h-316v178h244q72 0 109 23t37 93t-37 91q-37 22 -109 23h-223v483z" />
<glyph unicode="&#x666;" d="M229 291q0 -47 36 -82t89 -35t89 35t36 90q0 125 -133 131l90 168q100 -23 166 -107q66 -83 66 -205t-86 -212q-92 -88 -228 -88t-225 86q-88 86 -88 227q0 80 72 211l209 381h215l-275 -492q-33 -61 -33 -108z" />
<glyph unicode="&#x667;" d="M76 713v178h411q61 0 103 -30t43 -81q0 -51 -29 -129l-217 -651h-203l256 713h-364z" />
<glyph unicode="&#x668;" d="M229 274q0 -53 36 -89q36 -35 90 -35t89 38t35 89t-34 87t-89 36t-91 -37q-36 -36 -36 -89zM351 760q-46 0 -75 -30q-28 -30 -28 -77t30 -77t74 -29q44 0 76 31q31 30 31 76t-31 76t-77 30zM668 280q0 -140 -84 -218t-230 -76q-146 0 -225 73q-88 77 -88 219t135 209 q-104 45 -104 169t83 187q83 64 199 64q116 1 199 -65q82 -66 82 -188t-105 -167q138 -67 138 -207z" />
<glyph unicode="&#x669;" d="M479 599q0 48 -36 84t-89 36t-89 -36t-36 -89q0 -123 133 -133l-90 -168q-100 25 -166 107t-65 208q0 125 88 209q86 90 224 90t229 -90q86 -90 86 -223q0 -80 -72 -211l-209 -383h-217l276 494q33 57 33 105z" />
<glyph unicode="&#x2000;" horiz-adv-x="717" />
<glyph unicode="&#x2001;" horiz-adv-x="1434" />
<glyph unicode="&#x2002;" horiz-adv-x="717" />
<glyph unicode="&#x2003;" horiz-adv-x="1434" />
<glyph unicode="&#x2004;" horiz-adv-x="478" />
<glyph unicode="&#x2005;" horiz-adv-x="358" />
<glyph unicode="&#x2006;" horiz-adv-x="239" />
<glyph unicode="&#x2007;" horiz-adv-x="239" />
<glyph unicode="&#x2008;" horiz-adv-x="179" />
<glyph unicode="&#x2009;" horiz-adv-x="286" />
<glyph unicode="&#x200a;" horiz-adv-x="79" />
<glyph unicode="&#x2010;" horiz-adv-x="423" d="M358 381v-143h-292v143h292z" />
<glyph unicode="&#x2011;" horiz-adv-x="423" d="M358 381v-143h-292v143h292z" />
<glyph unicode="&#x2012;" horiz-adv-x="423" d="M358 381v-143h-292v143h292z" />
<glyph unicode="&#x2013;" horiz-adv-x="636" d="M637 254h-637v111h637v-111z" />
<glyph unicode="&#x2014;" horiz-adv-x="1273" d="M1274 365v-111h-1274v111h1274z" />
<glyph unicode="&#x2018;" horiz-adv-x="282" d="M119 602l-72 289h164l35 -289h-127z" />
<glyph unicode="&#x2019;" horiz-adv-x="282" d="M37 602l35 289h164l-72 -289h-127z" />
<glyph unicode="&#x201a;" horiz-adv-x="282" d="M37 -127l35 291h164l-72 -291h-127z" />
<glyph unicode="&#x201c;" horiz-adv-x="495" d="M352 602l-73 289h163l35 -289h-125zM117 602l-74 289h164l35 -289h-125z" />
<glyph unicode="&#x201d;" horiz-adv-x="495" d="M254 602l35 289h164l-74 -289h-125zM18 602l35 289h164l-74 -289h-125z" />
<glyph unicode="&#x201e;" horiz-adv-x="495" d="M254 -127l35 291h164l-74 -291h-125zM18 -127l35 291h164l-74 -291h-125z" />
<glyph unicode="&#x2020;" horiz-adv-x="636" d="M565 692v-164l-219 56l57 -209l-57 -508h-57l-56 508l58 209l-219 -56v164l221 -55l-60 254h170l-59 -254z" />
<glyph unicode="&#x2021;" horiz-adv-x="636" d="M344 637l221 55v-164l-219 56l57 -209l-57 -209l219 55v-166l-221 58l59 -256h-170l60 256l-221 -58v166l219 -55l-58 209l58 209l-219 -56v164l221 -55l-60 254h170z" />
<glyph unicode="&#x2022;" horiz-adv-x="636" d="M318 670q94 0 158 -62t64 -162q0 -98 -63 -157q-66 -66 -159 -66t-158 66q-63 59 -64 157q0 98 64 158q65 66 158 66z" />
<glyph unicode="&#x2026;" horiz-adv-x="1273" d="M1062 207q46 0 76 -31t30 -76q0 -44 -30 -74t-76 -30t-76 30t-30 74t30 76q30 31 76 31zM637 207q45 0 76 -31t31 -76q0 -44 -32 -74q-30 -30 -75 -30t-76 30t-31 74t31 76q31 31 76 31zM212 207q46 0 77 -31t31 -76q0 -44 -32 -74q-30 -30 -76 -30t-76 30t-30 74t30 76 q30 31 76 31z" />
<glyph unicode="&#x202f;" horiz-adv-x="286" />
<glyph unicode="&#x2030;" horiz-adv-x="1273" d="M997 213q0 -76 74 -76t76 76q-1 35 -21 55t-54 20t-54 -20t-21 -55zM537 213q0 -76 75 -76q34 1 54 21t20 55t-20 55t-54 20t-55 -20q-20 -20 -20 -55zM881 213q0 82 55 137q55 56 136 56t137 -56q57 -56 57 -137q0 -80 -56 -136q-56 -57 -138 -57q-81 0 -136 56t-55 137 zM420 213q0 82 55 137q55 56 136 56t137 -56t55 -137q0 -82 -55 -137q-54 -56 -136 -56t-137 56t-55 137zM201 745q-76 -1 -76 -75q1 -74 75 -74t74 76q0 33 -20 53t-53 20zM8 672q0 82 55 137t137 55t137 -56q56 -56 56 -136t-56 -136t-137 -56q-80 0 -136 54 q-56 56 -56 138zM662 891h94l-600 -891h-95z" />
<glyph unicode="&#x2039;" horiz-adv-x="423" d="M201 309l161 -196h-126l-162 196l157 197h127z" />
<glyph unicode="&#x203a;" horiz-adv-x="423" d="M236 309l-162 197h127l161 -197l-157 -196h-129z" />
<glyph unicode="&#x205f;" horiz-adv-x="358" />
<glyph unicode="&#x20ac;" d="M313 465v-35q0 -10 2 -14h265v-123h-228q66 -115 193 -115h137v-178h-147q-127 0 -239 79t-157 214h-112v123h90v14q-2 6 -2 16v17q0 12 2 18h-90v123h112q45 129 155 208t241 79h147v-178h-137q-123 0 -189 -109h224v-123h-265q-2 -6 -2 -16z" />
<glyph unicode="&#x2122;" horiz-adv-x="1273" d="M569 891h195l121 -318l119 318h194v-535h-135v371h-2l-125 -371h-105l-124 371h-2v-371h-136v535zM35 891h436v-109h-147v-426h-144v426h-145v109z" />
<glyph unicode="&#x25fc;" horiz-adv-x="620" d="M0 620h620v-620h-620v620z" />
<glyph horiz-adv-x="1308" d="M408 485q-64 0 -106 -45t-42 -108q0 -62 41 -108t107 -46h643v477h176v-655h-819q-143 0 -235 97q-91 97 -91 239t92 233q92 92 234 93v-177z" />
<glyph horiz-adv-x="1329" d="M408 485q-64 0 -106 -45t-42 -108q0 -62 41 -108t107 -46h643v477h176v-477h102v-178h-921q-143 0 -235 97q-91 97 -91 239t92 233q92 92 234 93v-177z" />
<glyph horiz-adv-x="1470" d="M1055 489q-59 0 -101 -49t-41 -110q0 -60 40 -106q39 -46 101 -46t103 45t41 107t-42 110q-42 49 -101 49zM723 334q0 133 94 230q93 98 237 98t239 -98t96 -230q0 -80 -39 -156q-102 -178 -297 -178h-645q-139 0 -233 97q-93 97 -93 239t92 233q92 92 234 93v-179 q-66 0 -107 -44t-41 -107q0 -62 41 -108t107 -46h352q-37 72 -37 156z" />
<glyph horiz-adv-x="1490" d="M1055 489q-59 0 -101 -49t-41 -110q0 -60 40 -106q39 -46 101 -46t103 45t41 107t-42 110q-42 49 -101 49zM723 334q0 133 94 230q93 98 237 98t239 -98t96 -230q0 -80 -39 -156h141v-178h-1083q-139 0 -233 97q-93 97 -93 239t92 233q92 92 234 93v-179q-66 0 -107 -44 t-41 -107q0 -62 41 -108t107 -46h352q-37 72 -37 156z" />
<glyph horiz-adv-x="536" d="M168 80q-41 0 -96 -80l-74 47q78 121 178 121q37 0 90 -45t82 -45q53 0 119 108l72 -47q-140 -225 -297 -101q-53 42 -74 42z" />
<glyph horiz-adv-x="393" d="M304 176q36 0 63 -26t27 -61q0 -37 -28 -63q-26 -26 -62 -26t-62 27t-25 63q-1 36 25 60q26 26 62 26zM87 176q36 0 63 -26q26 -26 26 -61q0 -37 -26 -63t-63 -26q-35 0 -61 27t-26 63t26 60q26 26 61 26zM196 352q36 0 62 -26t27 -61q0 -37 -27 -63q-26 -26 -62 -26 t-62 27t-26 63t26 61t62 25z" />
<glyph horiz-adv-x="393" d="M304 176q36 0 63 -26t27 -61q0 -37 -28 -63q-26 -26 -62 -26t-62 27t-25 63q-1 36 25 60q26 26 62 26zM87 176q36 0 63 -26q26 -26 26 -61q0 -37 -26 -63t-63 -26q-35 0 -61 27t-26 63t26 60q26 26 61 26z" />
<glyph horiz-adv-x="931" d="M516 489q-59 0 -100 -49t-41 -110q0 -60 40 -106t101 -46t102 45t41 107t-42 110q-42 49 -101 49zM184 334q0 133 94 230q94 98 238 98q142 0 238 -98t96 -230q0 -80 -39 -156q-102 -178 -297 -178h-534v178h241q-37 72 -37 156z" />
<glyph horiz-adv-x="952" d="M516 489q-59 0 -100 -49t-41 -110q0 -60 40 -106t101 -46t102 45t41 107t-42 110q-42 49 -101 49zM184 334q0 133 94 230q94 98 238 98q142 0 238 -98t96 -230q0 -80 -39 -156h141v-178h-972v178h241q-37 72 -37 156z" />
<glyph horiz-adv-x="430" d="M264 379q100 0 166 -72l-70 -94q-20 31 -57 45t-69 -2t-33 -66q2 -72 106 -84h117v-106h-424v106h119q-59 92 -7 182t152 91z" />
<glyph horiz-adv-x="176" d="M87 176q36 0 63 -26q26 -26 26 -61q0 -37 -26 -63t-63 -26q-35 0 -61 27t-26 63t26 60q26 26 61 26z" />
</font>
</defs>
</svg>
